<svg width="28" height="28" viewBox="0 0 28 28" fill="none" xmlns="http://www.w3.org/2000/svg">
<path opacity="0.4" d="M14 2.33337C7.55672 2.33337 2.33337 7.55672 2.33337 14L8.16671 15.75L8.53033 15.263C8.83181 14.272 9.6809 14 10.6373 14H17.3627C18.2193 14 18.9902 14.2183 19.358 14.9769C19.4459 15.1583 19.53 15.3435 19.6506 15.505L19.8334 15.75L25.6667 14C25.6667 7.55672 20.4433 2.33337 14 2.33337Z" fill="black"/>
<path opacity="0.4" d="M17.363 22.1671H10.6374C9.68275 22.1671 8.83409 21.8958 8.53215 20.9069L8.16682 20.4171L4.08349 19.8338L3.87146 19.7941C5.88298 23.3032 9.6655 25.6671 14.0002 25.6671C18.3375 25.6671 22.1219 23.3003 24.1325 19.7877L23.9168 19.8338L19.8335 20.4171L19.4686 20.9063C19.1666 21.8957 18.318 22.1671 17.363 22.1671Z" fill="black"/>
<path d="M14 25.6667C20.4434 25.6667 25.6667 20.4434 25.6667 14C25.6667 7.55672 20.4434 2.33337 14 2.33337C7.55672 2.33337 2.33337 7.55672 2.33337 14C2.33337 20.4434 7.55672 25.6667 14 25.6667Z" stroke="black" stroke-width="1.75" stroke-linecap="round" stroke-linejoin="round"/>
<path d="M11.6667 9.91663H10.1583C9.63008 9.91663 9.1235 10.1265 8.75 10.5M16.3333 9.91663H17.8417C18.3699 9.91663 18.8765 10.1265 19.25 10.5" stroke="black" stroke-width="1.75" stroke-linecap="round" stroke-linejoin="round"/>
<path d="M8.53194 20.9064C8.04526 19.3124 8.04501 16.858 8.53025 15.2629C8.83173 14.272 9.68082 14 10.6372 14H17.3626C18.3178 14 19.1664 14.2715 19.4684 15.2608C19.955 16.8555 19.955 19.3111 19.4684 20.9059C19.1664 21.8952 18.3178 22.1667 17.3626 22.1667H10.6372C9.68255 22.1667 8.83389 21.8954 8.53194 20.9064Z" stroke="black" stroke-width="1.75" stroke-linecap="round" stroke-linejoin="round"/>
<path d="M8.16671 15.75L2.33337 14M19.8334 15.75L25.6667 14M8.16671 20.4167L4.08337 19.8333M19.8334 20.4167L23.9167 19.8333" stroke="black" stroke-width="1.75" stroke-linecap="round" stroke-linejoin="round"/>
</svg>
