<svg width="20" height="20" viewBox="0 0 20 20" fill="none" xmlns="http://www.w3.org/2000/svg">
<path opacity="0.4" d="M8.33333 7.08337H7.25593C6.87863 7.08337 6.51678 7.23326 6.25 7.50004M11.6667 7.08337H12.7441C13.1213 7.08337 13.4832 7.23326 13.75 7.50004" stroke="black" stroke-width="1.25" stroke-linecap="round" stroke-linejoin="round"/>
<path d="M9.99996 18.3333C14.6023 18.3333 18.3333 14.6023 18.3333 9.99996C18.3333 5.39759 14.6023 1.66663 9.99996 1.66663C5.39759 1.66663 1.66663 5.39759 1.66663 9.99996C1.66663 14.6023 5.39759 18.3333 9.99996 18.3333Z" stroke="black" stroke-width="1.25" stroke-linecap="round" stroke-linejoin="round"/>
<path d="M6.09432 14.9332C5.74668 13.7946 5.74651 12.0414 6.09311 10.9021C6.30845 10.1943 6.91494 10 7.59808 10H12.402C13.0842 10 13.6904 10.1939 13.906 10.9006C14.2536 12.0397 14.2536 13.7937 13.906 14.9328C13.6904 15.6394 13.0842 15.8333 12.402 15.8333H7.59808C6.91617 15.8333 6.30999 15.6396 6.09432 14.9332Z" stroke="black" stroke-width="1.25" stroke-linecap="round" stroke-linejoin="round"/>
<path opacity="0.4" d="M5.83329 11.25L1.66663 10M14.1666 11.25L18.3333 10M5.83329 14.5833L2.91663 14.1667M14.1666 14.5833L17.0833 14.1667" stroke="black" stroke-width="1.25" stroke-linecap="round" stroke-linejoin="round"/>
</svg>
