<svg width="16" height="16" viewBox="0 0 16 16" fill="none" xmlns="http://www.w3.org/2000/svg">
<path fill-rule="evenodd" clip-rule="evenodd" d="M1.15791 7.61111C1.00157 7.57204 0.923403 7.55251 0.880543 7.49084C0.837676 7.42917 0.84627 7.35204 0.863456 7.19777C1.2623 3.61734 4.2989 0.833374 7.98571 0.833374C11.6726 0.833374 14.7092 3.61737 15.108 7.19777C15.1252 7.35211 15.1338 7.42924 15.0909 7.49091C15.048 7.55257 14.9698 7.57211 14.8135 7.61117L11.8736 8.34617C11.7264 8.38297 11.6528 8.40137 11.5951 8.38017C11.5374 8.35904 11.4819 8.28177 11.3709 8.12724C11.2403 7.94544 11.073 7.80504 10.8792 7.70451C10.5677 7.54297 10.219 7.50017 9.90738 7.50017H6.06427C5.75221 7.50017 5.40324 7.54304 5.09153 7.70491C4.89798 7.80537 4.73087 7.94571 4.60044 8.12724C4.48948 8.28171 4.434 8.35897 4.37628 8.38011C4.31857 8.40131 4.24497 8.38291 4.09778 8.34611L1.15791 7.61111ZM0.905137 9.11417C0.86713 8.87064 0.84813 8.74891 0.927383 8.67651C1.00664 8.60411 1.13097 8.63517 1.37962 8.69731L3.86508 9.31871C4.02737 9.35924 4.10851 9.37957 4.15128 9.43884C4.19405 9.49817 4.18742 9.58504 4.17414 9.75891C4.15233 10.0446 4.147 10.3385 4.15819 10.6282C4.16711 10.8592 4.17157 10.9748 4.10616 11.037C4.04076 11.0994 3.93016 11.0896 3.70898 11.0703L1.65303 10.8902C1.53666 10.88 1.47848 10.8748 1.43301 10.841C1.38754 10.8072 1.36673 10.755 1.3251 10.6504C1.13075 10.1624 0.98847 9.64804 0.905137 9.11417ZM2.81262 11.9994C2.45048 11.9668 2.2694 11.9506 2.20742 12.069C2.14544 12.1873 2.25735 12.3214 2.48117 12.5896C3.7958 14.1646 5.77373 15.1667 7.98571 15.1667C10.1977 15.1667 12.1756 14.1646 13.4902 12.5896C13.714 12.3214 13.826 12.1874 13.764 12.069C13.702 11.9506 13.521 11.9668 13.1588 11.9994L11.8326 12.1184C11.7151 12.129 11.6564 12.1342 11.6142 12.1621C11.5721 12.1899 11.538 12.2535 11.4698 12.3808C11.3301 12.6415 11.1261 12.8344 10.8792 12.9624C10.5677 13.124 10.219 13.1668 9.90738 13.1668H6.06427C5.75271 13.1668 5.40419 13.124 5.09275 12.9626C4.84578 12.8345 4.64169 12.6416 4.50194 12.3808C4.43378 12.2536 4.3997 12.19 4.35756 12.1621C4.31544 12.1342 4.2567 12.129 4.13923 12.1184L2.81262 11.9994ZM14.6463 10.6505C14.6047 10.755 14.5839 10.8072 14.5384 10.841C14.493 10.8749 14.4348 10.88 14.3184 10.8902L12.2627 11.0703C12.0416 11.0896 11.931 11.0994 11.8656 11.037C11.8002 10.9748 11.8046 10.8592 11.8135 10.6282C11.8246 10.3386 11.8193 10.0446 11.7974 9.75897C11.7842 9.58511 11.7775 9.49817 11.8203 9.43891C11.863 9.37957 11.9442 9.35931 12.1065 9.31871L14.5918 8.69737C14.8404 8.63524 14.9648 8.60417 15.044 8.67657C15.1233 8.74897 15.1043 8.87071 15.0663 9.11424C14.983 9.64811 14.8407 10.1625 14.6463 10.6505ZM4.63217 5.64649C4.93936 5.33929 5.35602 5.16671 5.79046 5.16671H6.65239C6.92851 5.16671 7.15238 5.39057 7.15238 5.66671C7.15238 5.94285 6.92851 6.16671 6.65239 6.16671H5.79046C5.62123 6.16671 5.45894 6.23393 5.33928 6.35359C5.14401 6.54885 4.82743 6.54885 4.63217 6.35359C4.4369 6.15833 4.4369 5.84175 4.63217 5.64649ZM8.81904 5.66671C8.81904 5.39057 9.04291 5.16671 9.31904 5.16671H10.181C10.6154 5.16671 11.032 5.33929 11.3392 5.64649C11.5345 5.84175 11.5345 6.15833 11.3392 6.35359C11.144 6.54885 10.8274 6.54885 10.6322 6.35359C10.5125 6.23393 10.3502 6.16671 10.181 6.16671H9.31904C9.04291 6.16671 8.81904 5.94285 8.81904 5.66671ZM5.33864 8.86737C5.38571 8.71264 5.46088 8.63991 5.55236 8.59237C5.66294 8.53497 5.82982 8.50017 6.06427 8.50017H9.90738C10.1415 8.50017 10.3082 8.53491 10.4188 8.59224C10.5102 8.63971 10.5853 8.71231 10.6324 8.86651C10.8814 9.68271 10.8814 10.9843 10.6324 11.8004C10.5853 11.9546 10.5102 12.0273 10.4188 12.0748C10.3082 12.1321 10.1414 12.1668 9.90738 12.1668H6.06427C5.8303 12.1668 5.66359 12.1321 5.55304 12.0748C5.46155 12.0274 5.38651 11.9548 5.33947 11.8007C5.09042 10.985 5.09022 9.68397 5.33864 8.86737Z" fill="black"/>
</svg>
