<svg width="20" height="20" viewBox="0 0 20 20" fill="none" xmlns="http://www.w3.org/2000/svg">
<path fill-rule="evenodd" clip-rule="evenodd" d="M1.44733 9.51379C1.2519 9.46496 1.15419 9.44054 1.10062 9.36346C1.04703 9.28638 1.05778 9.18996 1.07926 8.99713C1.57781 4.52158 5.37356 1.04163 9.98208 1.04163C14.5907 1.04163 18.3864 4.52163 18.8849 8.99713C18.9064 9.19004 18.9172 9.28646 18.8636 9.36354C18.81 9.44063 18.7122 9.46504 18.5168 9.51388L14.842 10.4326C14.658 10.4786 14.566 10.5016 14.4938 10.4751C14.4217 10.4487 14.3523 10.3521 14.2136 10.159C14.0503 9.93171 13.8412 9.75621 13.5989 9.63054C13.2096 9.42863 12.7737 9.37513 12.3842 9.37513H7.58028C7.1902 9.37513 6.75398 9.42871 6.36435 9.63104C6.12241 9.75663 5.91353 9.93204 5.75049 10.159C5.61179 10.352 5.54244 10.4486 5.47029 10.475C5.39815 10.5015 5.30615 10.4785 5.12217 10.4325L1.44733 9.51379ZM1.13136 11.3926C1.08385 11.0882 1.0601 10.936 1.15917 10.8455C1.25824 10.755 1.41365 10.7939 1.72447 10.8715L4.83129 11.6483C5.03415 11.699 5.13558 11.7244 5.18903 11.7985C5.2425 11.8726 5.23421 11.9812 5.21762 12.1985C5.19035 12.5556 5.18369 12.923 5.19768 13.2852C5.20883 13.574 5.2144 13.7184 5.13264 13.7962C5.05088 13.8741 4.91264 13.862 4.63616 13.8378L2.06623 13.6126C1.92076 13.5999 1.84803 13.5935 1.7912 13.5512C1.73437 13.509 1.70835 13.4436 1.65632 13.313C1.41338 12.703 1.23553 12.06 1.13136 11.3926ZM3.51571 14.9991C3.06303 14.9585 2.83669 14.9381 2.75922 15.0861C2.68174 15.234 2.82163 15.4016 3.1014 15.7369C4.74468 17.7056 7.2171 18.9583 9.98208 18.9583C12.7471 18.9583 15.2195 17.7056 16.8627 15.7369C17.1425 15.4017 17.2824 15.2341 17.2049 15.0861C17.1275 14.9382 16.9012 14.9585 16.4484 14.9991L14.7907 15.1479C14.6438 15.1611 14.5704 15.1677 14.5177 15.2025C14.4651 15.2373 14.4225 15.3168 14.3372 15.4759C14.1626 15.8018 13.9076 16.0429 13.5989 16.203C13.2096 16.405 12.7737 16.4585 12.3842 16.4585H7.58028C7.19083 16.4585 6.75518 16.405 6.36588 16.2031C6.05716 16.043 5.80205 15.802 5.62736 15.4759C5.54216 15.3169 5.49956 15.2374 5.44689 15.2025C5.39424 15.1677 5.32082 15.1611 5.17398 15.148L3.51571 14.9991ZM18.3078 13.313C18.2558 13.4436 18.2298 13.509 18.173 13.5512C18.1162 13.5935 18.0434 13.5999 17.8979 13.6126L15.3283 13.8378C15.0519 13.862 14.9137 13.8741 14.8319 13.7962C14.7502 13.7184 14.7557 13.574 14.7668 13.2852C14.7807 12.9231 14.7741 12.5557 14.7467 12.1986C14.7302 11.9813 14.7218 11.8726 14.7753 11.7985C14.8287 11.7244 14.9302 11.699 15.1331 11.6483L18.2397 10.8716C18.5505 10.794 18.7059 10.7551 18.805 10.8456C18.9041 10.9361 18.8803 11.0883 18.8328 11.3927C18.7287 12.06 18.5508 12.703 18.3078 13.313ZM5.79015 7.05802C6.17414 6.67402 6.69496 6.45829 7.23801 6.45829H8.31543C8.66058 6.45829 8.94041 6.73812 8.94041 7.08329C8.94041 7.42847 8.66058 7.70829 8.31543 7.70829H7.23801C7.02648 7.70829 6.82361 7.79233 6.67404 7.9419C6.42995 8.18598 6.03423 8.18598 5.79015 7.9419C5.54607 7.69783 5.54607 7.30209 5.79015 7.05802ZM11.0237 7.08329C11.0237 6.73812 11.3036 6.45829 11.6487 6.45829H12.7262C13.2692 6.45829 13.79 6.67402 14.174 7.05802C14.4181 7.30209 14.4181 7.69783 14.174 7.9419C13.93 8.18598 13.5342 8.18598 13.2902 7.9419C13.1406 7.79233 12.9377 7.70829 12.7262 7.70829H11.6487C11.3036 7.70829 11.0237 7.42847 11.0237 7.08329ZM6.67324 11.0841C6.73208 10.8907 6.82604 10.7998 6.94039 10.7404C7.07861 10.6686 7.28722 10.6251 7.58028 10.6251H12.3842C12.6768 10.6251 12.8852 10.6685 13.0234 10.7402C13.1377 10.7995 13.2316 10.8903 13.2904 11.083C13.6017 12.1033 13.6017 13.7303 13.2904 14.7505C13.2316 14.9432 13.1377 15.034 13.0234 15.0934C12.8852 15.165 12.6767 15.2085 12.3842 15.2085H7.58028C7.28782 15.2085 7.07943 15.165 6.94123 15.0934C6.82688 15.0341 6.73308 14.9434 6.67428 14.7508C6.36297 13.7311 6.36272 12.1049 6.67324 11.0841Z" fill="black"/>
</svg>
