<svg width="32" height="32" viewBox="0 0 32 32" fill="none" xmlns="http://www.w3.org/2000/svg">
<path fill-rule="evenodd" clip-rule="evenodd" d="M2.3157 15.2221C2.00302 15.144 1.84668 15.1049 1.76096 14.9816C1.67523 14.8582 1.69242 14.704 1.72679 14.3954C2.52447 7.23456 8.59767 1.66663 15.9713 1.66663C23.345 1.66663 29.4182 7.23463 30.2158 14.3954C30.2502 14.7041 30.2674 14.8584 30.1817 14.9817C30.096 15.105 29.9396 15.1441 29.6269 15.2222L23.7472 16.6922C23.4528 16.7658 23.3056 16.8026 23.1901 16.7602C23.0746 16.718 22.9637 16.5634 22.7417 16.2544C22.4805 15.8908 22.1458 15.61 21.7582 15.4089C21.1353 15.0858 20.438 15.0002 19.8146 15.0002H12.1284C11.5043 15.0002 10.8064 15.086 10.1829 15.4097C9.79583 15.6106 9.46162 15.8913 9.20076 16.2544C8.97884 16.5633 8.86788 16.7178 8.75244 16.7601C8.63702 16.8025 8.48982 16.7657 8.19544 16.6921L2.3157 15.2221ZM1.81015 18.2282C1.73414 17.7412 1.69614 17.4977 1.85464 17.3529C2.01316 17.2081 2.26182 17.2702 2.75912 17.3945L7.73004 18.6373C8.05462 18.7184 8.2169 18.759 8.30243 18.8776C8.38798 18.9962 8.37471 19.17 8.34816 19.5177C8.30454 20.089 8.29388 20.6769 8.31626 21.2564C8.3341 21.7184 8.34302 21.9494 8.2122 22.074C8.08139 22.1986 7.8602 22.1792 7.41783 22.1405L3.30594 21.7802C3.07319 21.7598 2.95683 21.7496 2.8659 21.682C2.77496 21.6144 2.73334 21.5098 2.65008 21.3008C2.26138 20.3248 1.97682 19.296 1.81015 18.2282ZM5.62511 23.9986C4.90083 23.9336 4.53868 23.901 4.41472 24.1378C4.29076 24.3745 4.51458 24.6426 4.96222 25.179C7.59147 28.329 11.5473 30.3333 15.9713 30.3333C20.3953 30.3333 24.3512 28.329 26.9804 25.179C27.428 24.6428 27.6518 24.3746 27.5278 24.1378C27.404 23.9012 27.0418 23.9336 26.3174 23.9986L23.665 24.2366C23.4301 24.2578 23.3126 24.2684 23.2284 24.3241C23.1441 24.3797 23.076 24.5069 22.9396 24.7614C22.6601 25.2829 22.2521 25.6686 21.7582 25.9248C21.1353 26.248 20.438 26.3336 19.8146 26.3336H12.1284C11.5053 26.3336 10.8083 26.248 10.1854 25.925C9.69143 25.6689 9.28326 25.2832 9.00375 24.7614C8.86743 24.507 8.79927 24.3798 8.715 24.3241C8.63075 24.2684 8.51328 24.2578 8.27834 24.2368L5.62511 23.9986ZM29.2925 21.3009C29.2093 21.5098 29.1677 21.6144 29.0768 21.682C28.9858 21.7497 28.8694 21.7598 28.6366 21.7802L24.5253 22.1405C24.083 22.1792 23.8618 22.1986 23.731 22.074C23.6002 21.9494 23.6092 21.7184 23.6269 21.2564C23.6492 20.677 23.6385 20.0892 23.5948 19.5178C23.5682 19.1701 23.5549 18.9962 23.6405 18.8777C23.726 18.759 23.8884 18.7185 24.2129 18.6373L29.1834 17.3946C29.6808 17.2704 29.9294 17.2082 30.088 17.353C30.2465 17.4978 30.2085 17.7413 30.1325 18.2284C29.9658 19.2961 29.6813 20.3249 29.2925 21.3009ZM9.26422 11.2929C9.8786 10.6785 10.7119 10.3333 11.5808 10.3333H13.3047C13.8569 10.3333 14.3046 10.781 14.3046 11.3333C14.3046 11.8856 13.8569 12.3333 13.3047 12.3333H11.5808C11.2423 12.3333 10.9178 12.4677 10.6784 12.7071C10.2879 13.0976 9.65474 13.0976 9.26422 12.7071C8.87368 12.3165 8.87368 11.6834 9.26422 11.2929ZM17.638 11.3333C17.638 10.781 18.0857 10.3333 18.638 10.3333H20.3618C21.2308 10.3333 22.064 10.6785 22.6784 11.2929C23.0689 11.6834 23.0689 12.3165 22.6784 12.7071C22.288 13.0976 21.6548 13.0976 21.2642 12.7071C21.0249 12.4677 20.7002 12.3333 20.3618 12.3333H18.638C18.0857 12.3333 17.638 11.8856 17.638 11.3333ZM10.6772 17.7346C10.7713 17.4252 10.9216 17.2797 11.1046 17.1846C11.3258 17.0698 11.6595 17.0002 12.1284 17.0002H19.8146C20.2829 17.0002 20.6164 17.0697 20.8374 17.1844C21.0204 17.2793 21.1705 17.4245 21.2646 17.7329C21.7628 19.3653 21.7628 21.9685 21.2646 23.6008C21.1705 23.9092 21.0204 24.0545 20.8374 24.1494C20.6164 24.2641 20.2828 24.3336 19.8146 24.3336H12.1284C11.6605 24.3336 11.3271 24.2641 11.106 24.1494C10.923 24.0546 10.7729 23.9094 10.6788 23.6013C10.1807 21.9698 10.1803 19.3678 10.6772 17.7346Z" fill="black"/>
</svg>
