<svg width="32" height="32" viewBox="0 0 32 32" fill="none" xmlns="http://www.w3.org/2000/svg">
<path opacity="0.4" d="M1.63538 16C1.63538 8.08388 8.05263 1.66663 15.9688 1.66663C23.8848 1.66663 30.3021 8.08388 30.3021 16C30.3021 23.9161 23.8848 30.3333 15.9688 30.3333C8.05263 30.3333 1.63538 23.9161 1.63538 16Z" fill="black"/>
<path fill-rule="evenodd" clip-rule="evenodd" d="M9.26164 11.2929C9.87604 10.6785 10.7093 10.3334 11.5782 10.3334H13.3021C13.8544 10.3334 14.3021 10.7811 14.3021 11.3334C14.3021 11.8857 13.8544 12.3334 13.3021 12.3334H11.5782C11.2398 12.3334 10.9152 12.4678 10.6759 12.7071C10.2853 13.0977 9.65217 13.0977 9.26164 12.7071C8.87112 12.3166 8.87112 11.6835 9.26164 11.2929ZM17.6355 11.3334C17.6355 10.7811 18.0831 10.3334 18.6355 10.3334H20.3593C21.2281 10.3334 22.0615 10.6785 22.6759 11.2929C23.0664 11.6835 23.0664 12.3166 22.6759 12.7071C22.2853 13.0977 21.6521 13.0977 21.2616 12.7071C21.0223 12.4678 20.6977 12.3334 20.3593 12.3334H18.6355C18.0831 12.3334 17.6355 11.8857 17.6355 11.3334Z" fill="black"/>
<path fill-rule="evenodd" clip-rule="evenodd" d="M1.66571 15.06C1.64559 15.3707 1.63538 15.6841 1.63538 16C1.63538 16.3785 1.65006 16.7537 1.67887 17.1248L8.41778 18.8096C8.2764 19.9069 8.26479 21.11 8.3831 22.2249L2.83028 21.7385C3.15331 22.4771 3.53678 23.1831 3.97443 23.8504L8.79492 24.2831C9.05546 25.0529 9.54838 25.5957 10.1828 25.9247C10.8057 26.2476 11.5027 26.3332 12.1258 26.3332H19.8121C20.4354 26.3332 21.1326 26.2476 21.7556 25.9245C22.39 25.5956 22.8828 25.0527 23.1432 24.2829L27.963 23.8504C28.4006 23.1831 28.7841 22.4771 29.1072 21.7385L23.5549 22.2249C23.6732 21.1101 23.6614 19.9071 23.5198 18.8096L30.2585 17.1249C30.2874 16.7537 30.3021 16.3785 30.3021 16C30.3021 15.6843 30.2918 15.3708 30.2717 15.0601L23.0722 16.86C22.7985 16.1903 22.3364 15.7099 21.7556 15.4087C21.1326 15.0855 20.4354 14.9999 19.8121 14.9999H12.1258C11.5017 14.9999 10.8037 15.0857 10.1803 15.4095C9.60003 15.7107 9.13859 16.1909 8.86496 16.8599L1.66571 15.06ZM10.6746 17.7343C10.7687 17.4249 10.919 17.2793 11.102 17.1844C11.3231 17.0696 11.6569 16.9999 12.1258 16.9999H19.8121C20.2802 16.9999 20.6137 17.0693 20.8349 17.184C21.0178 17.2789 21.168 17.4243 21.2621 17.7327C21.7601 19.3651 21.7601 21.9681 21.2621 23.6005C21.168 23.9089 21.0178 24.0541 20.8349 24.1491C20.6137 24.2637 20.2802 24.3332 19.8121 24.3332H12.1258C11.6579 24.3332 11.3245 24.2639 11.1033 24.1492C10.9204 24.0543 10.7703 23.9091 10.6762 23.6009C10.1781 21.9696 10.1777 19.3675 10.6746 17.7343Z" fill="black"/>
</svg>
