<svg width="20" height="20" viewBox="0 0 20 20" fill="none" xmlns="http://www.w3.org/2000/svg">
<path opacity="0.4" d="M1.02209 9.99996C1.02209 5.05241 5.03288 1.04163 9.98046 1.04163C14.928 1.04163 18.9388 5.05241 18.9388 9.99996C18.9388 14.9475 14.928 18.9583 9.98046 18.9583C5.03288 18.9583 1.02209 14.9475 1.02209 9.99996Z" fill="black"/>
<path fill-rule="evenodd" clip-rule="evenodd" d="M5.78853 7.0581C6.17253 6.6741 6.69333 6.45837 7.23639 6.45837H8.3138C8.659 6.45837 8.93883 6.7382 8.93883 7.08337C8.93883 7.42855 8.659 7.70837 8.3138 7.70837H7.23639C7.02486 7.70837 6.82198 7.79241 6.67241 7.94198C6.42833 8.18606 6.03261 8.18606 5.78853 7.94198C5.54445 7.69791 5.54445 7.30217 5.78853 7.0581ZM11.0222 7.08337C11.0222 6.7382 11.3019 6.45837 11.6472 6.45837H12.7246C13.2676 6.45837 13.7884 6.6741 14.1724 7.0581C14.4165 7.30217 14.4165 7.69791 14.1724 7.94198C13.9283 8.18606 13.5326 8.18606 13.2885 7.94198C13.1389 7.79241 12.9361 7.70837 12.7246 7.70837H11.6472C11.3019 7.70837 11.0222 7.42855 11.0222 7.08337Z" fill="black"/>
<path fill-rule="evenodd" clip-rule="evenodd" d="M1.04105 9.41246C1.02848 9.60663 1.02209 9.80254 1.02209 9.99996C1.02209 10.2365 1.03127 10.471 1.04928 10.703L5.2611 11.756C5.17274 12.4418 5.16548 13.1937 5.23942 13.8905L1.76891 13.5865C1.9708 14.0481 2.21047 14.4894 2.484 14.9065L5.49681 15.1769C5.65965 15.658 5.96772 15.9973 6.36422 16.2029C6.75352 16.4047 7.18917 16.4582 7.57862 16.4582H12.3825C12.7721 16.4582 13.2079 16.4047 13.5972 16.2028C13.9937 15.9972 14.3017 15.6579 14.4645 15.1768L17.4769 14.9065C17.7504 14.4894 17.99 14.0481 18.192 13.5865L14.7218 13.8905C14.7957 13.1938 14.7884 12.4419 14.6999 11.756L18.9115 10.703C18.9296 10.471 18.9388 10.2365 18.9388 9.99996C18.9388 9.80263 18.9324 9.60671 18.9198 9.41254L14.4201 10.5375C14.249 10.1189 13.9602 9.81863 13.5972 9.63038C13.2079 9.42838 12.7721 9.37488 12.3825 9.37488H7.57862C7.18854 9.37488 6.75233 9.42854 6.36269 9.63088C6 9.81913 5.7116 10.1193 5.54059 10.5374L1.04105 9.41246ZM6.67159 11.0839C6.73042 10.8905 6.82438 10.7995 6.93872 10.7402C7.07695 10.6685 7.28556 10.6249 7.57862 10.6249H12.3825C12.6751 10.6249 12.8835 10.6683 13.0218 10.74C13.1361 10.7993 13.23 10.8901 13.2888 11.0829C13.6 12.1031 13.6 13.73 13.2888 14.7503C13.23 14.943 13.1361 15.0338 13.0218 15.0931C12.8835 15.1648 12.6751 15.2082 12.3825 15.2082H7.57862C7.28616 15.2082 7.07777 15.1649 6.93958 15.0932C6.82521 15.0339 6.73142 14.9431 6.67262 14.7505C6.36131 13.731 6.36106 12.1046 6.67159 11.0839Z" fill="black"/>
</svg>
