<svg width="32" height="32" viewBox="0 0 32 32" fill="none" xmlns="http://www.w3.org/2000/svg">
<path opacity="0.4" d="M13.3333 11.3334H11.6095C11.0058 11.3334 10.4269 11.5732 10 12M18.6667 11.3334H20.3905C20.9941 11.3334 21.5732 11.5732 22 12" stroke="black" stroke-width="2" stroke-linecap="round" stroke-linejoin="round"/>
<path d="M16 29.3333C23.3638 29.3333 29.3333 23.3638 29.3333 16C29.3333 8.63616 23.3638 2.66663 16 2.66663C8.63616 2.66663 2.66663 8.63616 2.66663 16C2.66663 23.3638 8.63616 29.3333 16 29.3333Z" stroke="black" stroke-width="2" stroke-linecap="round" stroke-linejoin="round"/>
<path d="M9.75088 23.8931C9.19467 22.0713 9.19439 19.2663 9.74895 17.4433C10.0935 16.3108 11.0639 16 12.1569 16H19.8431C20.9347 16 21.9046 16.3103 22.2496 17.4409C22.8058 19.2635 22.8058 22.0699 22.2496 23.8924C21.9046 25.0231 20.9347 25.3333 19.8431 25.3333H12.1569C11.0659 25.3333 10.096 25.0233 9.75088 23.8931Z" stroke="black" stroke-width="2" stroke-linecap="round" stroke-linejoin="round"/>
<path opacity="0.4" d="M9.33329 18L2.66663 16M22.6666 18L29.3333 16M9.33329 23.3333L4.66663 22.6667M22.6666 23.3333L27.3333 22.6667" stroke="black" stroke-width="2" stroke-linecap="round" stroke-linejoin="round"/>
</svg>
