<svg width="16" height="16" viewBox="0 0 16 16" fill="none" xmlns="http://www.w3.org/2000/svg">
<path opacity="0.4" d="M8.00004 1.33337C4.31814 1.33337 1.33337 4.31814 1.33337 8.00004L4.66671 9.00004L4.87449 8.72171C5.04677 8.15544 5.53196 8.00004 6.07847 8.00004H9.92157C10.411 8.00004 10.8516 8.12477 11.0617 8.55824C11.112 8.66191 11.16 8.76771 11.2289 8.86004L11.3334 9.00004L14.6667 8.00004C14.6667 4.31814 11.6819 1.33337 8.00004 1.33337Z" fill="black"/>
<path opacity="0.4" d="M9.92171 12.6669H6.07854C5.53302 12.6669 5.04807 12.5119 4.87553 11.9468L4.66677 11.6669L2.33344 11.3336L2.21228 11.3109C3.36172 13.3161 5.52316 14.6669 8.00011 14.6669C10.4786 14.6669 12.6411 13.3145 13.79 11.3073L13.6668 11.3336L11.3334 11.6669L11.1249 11.9465C10.9524 12.5118 10.4674 12.6669 9.92171 12.6669Z" fill="black"/>
<path d="M8.00004 14.6667C11.6819 14.6667 14.6667 11.6819 14.6667 8.00004C14.6667 4.31814 11.6819 1.33337 8.00004 1.33337C4.31814 1.33337 1.33337 4.31814 1.33337 8.00004C1.33337 11.6819 4.31814 14.6667 8.00004 14.6667Z" stroke="black" stroke-linecap="round" stroke-linejoin="round"/>
<path d="M6.66667 5.66663H5.80474C5.5029 5.66663 5.21343 5.78653 5 5.99996M9.33333 5.66663H10.1953C10.4971 5.66663 10.7866 5.78653 11 5.99996" stroke="black" stroke-linecap="round" stroke-linejoin="round"/>
<path d="M4.87538 11.9465C4.59727 11.0357 4.59713 9.63313 4.87441 8.72167C5.04669 8.1554 5.53188 8 6.07839 8H9.92149C10.4673 8 10.9522 8.15513 11.1248 8.72047C11.4028 9.63173 11.4028 11.0349 11.1248 11.9462C10.9522 12.5115 10.4673 12.6667 9.92149 12.6667H6.07839C5.53287 12.6667 5.04792 12.5117 4.87538 11.9465Z" stroke="black" stroke-linecap="round" stroke-linejoin="round"/>
<path d="M4.66671 9L1.33337 8M11.3334 9L14.6667 8M4.66671 11.6667L2.33337 11.3333M11.3334 11.6667L13.6667 11.3333" stroke="black" stroke-linecap="round" stroke-linejoin="round"/>
</svg>
