<svg width="28" height="28" viewBox="0 0 28 28" fill="none" xmlns="http://www.w3.org/2000/svg">
<path d="M11.6667 9.91663H10.1583C9.63008 9.91663 9.1235 10.1265 8.75 10.5M16.3333 9.91663H17.8417C18.3699 9.91663 18.8765 10.1265 19.25 10.5" stroke="black" stroke-width="1.75" stroke-linecap="round" stroke-linejoin="round"/>
<path d="M14 25.6667C20.4434 25.6667 25.6667 20.4434 25.6667 14C25.6667 7.55672 20.4434 2.33337 14 2.33337C7.55672 2.33337 2.33337 7.55672 2.33337 14C2.33337 20.4434 7.55672 25.6667 14 25.6667Z" stroke="black" stroke-width="1.75" stroke-linecap="round" stroke-linejoin="round"/>
<path d="M8.53194 20.9064C8.04526 19.3124 8.04501 16.858 8.53025 15.2629C8.83173 14.272 9.68082 14 10.6372 14H17.3626C18.3178 14 19.1664 14.2715 19.4684 15.2608C19.955 16.8555 19.955 19.3111 19.4684 20.9059C19.1664 21.8952 18.3178 22.1667 17.3626 22.1667H10.6372C9.68255 22.1667 8.83389 21.8954 8.53194 20.9064Z" stroke="black" stroke-width="1.75" stroke-linecap="round" stroke-linejoin="round"/>
<path d="M8.16671 15.75L2.33337 14M19.8334 15.75L25.6667 14M8.16671 20.4167L4.08337 19.8333M19.8334 20.4167L23.9167 19.8333" stroke="black" stroke-width="1.75" stroke-linecap="round" stroke-linejoin="round"/>
</svg>
