<svg width="28" height="28" viewBox="0 0 28 28" fill="none" xmlns="http://www.w3.org/2000/svg">
<path opacity="0.4" d="M1.43103 14C1.43103 7.07347 7.04613 1.45837 13.9727 1.45837C20.8992 1.45837 26.5144 7.07347 26.5144 14C26.5144 20.9267 20.8992 26.5417 13.9727 26.5417C7.04613 26.5417 1.43103 20.9267 1.43103 14Z" fill="black"/>
<path fill-rule="evenodd" clip-rule="evenodd" d="M8.10394 9.88124C8.64153 9.34364 9.37067 9.04163 10.1309 9.04163H11.6393C12.1226 9.04163 12.5144 9.43338 12.5144 9.91663C12.5144 10.3999 12.1226 10.7916 11.6393 10.7916H10.1309C9.8348 10.7916 9.55078 10.9093 9.34137 11.1187C8.99967 11.4604 8.44565 11.4604 8.10394 11.1187C7.76223 10.777 7.76223 10.2229 8.10394 9.88124ZM15.431 9.91663C15.431 9.43338 15.8227 9.04163 16.306 9.04163H17.8144C18.5746 9.04163 19.3038 9.34364 19.8414 9.88124C20.1831 10.2229 20.1831 10.777 19.8414 11.1187C19.4997 11.4604 18.9456 11.4604 18.6039 11.1187C18.3945 10.9093 18.1105 10.7916 17.8144 10.7916H16.306C15.8227 10.7916 15.431 10.3999 15.431 9.91663Z" fill="black"/>
<path fill-rule="evenodd" clip-rule="evenodd" d="M1.45757 13.1775C1.43997 13.4493 1.43103 13.7236 1.43103 14C1.43103 14.3312 1.44388 14.6595 1.46909 14.9842L7.36563 16.4584C7.24193 17.4186 7.23177 18.4712 7.33529 19.4468L2.47657 19.0212C2.75922 19.6674 3.09476 20.2852 3.4777 20.8691L7.69563 21.2477C7.9236 21.9213 8.35491 22.3963 8.91001 22.6841C9.45502 22.9666 10.0649 23.0415 10.6102 23.0415H17.3357C17.8811 23.0415 18.4911 22.9666 19.0362 22.684C19.5913 22.3961 20.0225 21.9211 20.2503 21.2476L24.4677 20.8691C24.8506 20.2852 25.1862 19.6674 25.4688 19.0212L20.6106 19.4468C20.7141 18.4714 20.7038 17.4187 20.5799 16.4584L26.4763 14.9843C26.5016 14.6595 26.5144 14.3312 26.5144 14C26.5144 13.7237 26.5054 13.4494 26.4878 13.1776L20.1883 14.7525C19.9488 14.1665 19.5444 13.7461 19.0362 13.4826C18.4911 13.1998 17.8811 13.1249 17.3357 13.1249H10.6102C10.064 13.1249 9.45336 13.2 8.90786 13.4833C8.4001 13.7468 7.99634 14.1671 7.75692 14.7524L1.45757 13.1775ZM9.34032 15.5175C9.42268 15.2468 9.55423 15.1194 9.7143 15.0363C9.90783 14.9359 10.1999 14.8749 10.6102 14.8749H17.3357C17.7453 14.8749 18.0371 14.9357 18.2306 15.036C18.3907 15.1191 18.522 15.2462 18.6044 15.5161C19.0402 16.9444 19.0402 19.2221 18.6044 20.6505C18.522 20.9203 18.3907 21.0474 18.2306 21.1304C18.0371 21.2308 17.7453 21.2915 17.3357 21.2915H10.6102C10.2007 21.2915 9.90898 21.2309 9.71551 21.1305C9.55539 21.0475 9.42408 20.9204 9.34176 20.6508C8.90593 19.2234 8.90558 16.9465 9.34032 15.5175Z" fill="black"/>
</svg>
