<svg width="32" height="32" viewBox="0 0 32 32" fill="none" xmlns="http://www.w3.org/2000/svg">
<path opacity="0.4" d="M16 2.66663C8.63616 2.66663 2.66663 8.63616 2.66663 16L9.33329 18L9.74887 17.4433C10.0934 16.3108 11.0638 16 12.1568 16H19.843C20.822 16 21.703 16.2494 22.1233 17.1164C22.2238 17.3237 22.32 17.5353 22.4577 17.72L22.6666 18L29.3333 16C29.3333 8.63616 23.3637 2.66663 16 2.66663Z" fill="black"/>
<path opacity="0.4" d="M19.8433 25.3338H12.157C11.0659 25.3338 10.096 25.0237 9.75094 23.8936L9.33343 23.3338L4.66676 22.6672L4.42444 22.6218C6.72332 26.6322 11.0462 29.3338 16.0001 29.3338C20.957 29.3338 25.2821 26.6289 27.58 22.6145L27.3334 22.6672L22.6668 23.3338L22.2497 23.8929C21.9046 25.0236 20.9348 25.3338 19.8433 25.3338Z" fill="black"/>
<path d="M16 29.3333C23.3638 29.3333 29.3333 23.3638 29.3333 16C29.3333 8.63616 23.3638 2.66663 16 2.66663C8.63616 2.66663 2.66663 8.63616 2.66663 16C2.66663 23.3638 8.63616 29.3333 16 29.3333Z" stroke="black" stroke-width="2" stroke-linecap="round" stroke-linejoin="round"/>
<path d="M13.3333 11.3334H11.6095C11.0058 11.3334 10.4269 11.5732 10 12M18.6667 11.3334H20.3905C20.9941 11.3334 21.5732 11.5732 22 12" stroke="black" stroke-width="2" stroke-linecap="round" stroke-linejoin="round"/>
<path d="M9.75088 23.8931C9.19467 22.0713 9.19439 19.2663 9.74895 17.4433C10.0935 16.3108 11.0639 16 12.1569 16H19.8431C20.9347 16 21.9046 16.3103 22.2496 17.4409C22.8058 19.2635 22.8058 22.0699 22.2496 23.8924C21.9046 25.0231 20.9347 25.3333 19.8431 25.3333H12.1569C11.0659 25.3333 10.096 25.0233 9.75088 23.8931Z" stroke="black" stroke-width="2" stroke-linecap="round" stroke-linejoin="round"/>
<path d="M9.33329 18L2.66663 16M22.6666 18L29.3333 16M9.33329 23.3333L4.66663 22.6667M22.6666 23.3333L27.3333 22.6667" stroke="black" stroke-width="2" stroke-linecap="round" stroke-linejoin="round"/>
</svg>
