<svg width="16" height="16" viewBox="0 0 16 16" fill="none" xmlns="http://www.w3.org/2000/svg">
<path opacity="0.4" d="M0.817749 8.00004C0.817749 4.042 4.02638 0.833374 7.98444 0.833374C11.9424 0.833374 15.1511 4.042 15.1511 8.00004C15.1511 11.9581 11.9424 15.1667 7.98444 15.1667C4.02638 15.1667 0.817749 11.9581 0.817749 8.00004Z" fill="black"/>
<path fill-rule="evenodd" clip-rule="evenodd" d="M4.63082 5.64641C4.93802 5.33921 5.35467 5.16663 5.78911 5.16663H6.65104C6.9272 5.16663 7.15107 5.39049 7.15107 5.66663C7.15107 5.94277 6.9272 6.16663 6.65104 6.16663H5.78911C5.61989 6.16663 5.45759 6.23385 5.33793 6.35351C5.14267 6.54877 4.82609 6.54877 4.63082 6.35351C4.43556 6.15825 4.43556 5.84167 4.63082 5.64641ZM8.81773 5.66663C8.81773 5.39049 9.04153 5.16663 9.31773 5.16663H10.1797C10.6141 5.16663 11.0307 5.33921 11.3379 5.64641C11.5332 5.84167 11.5332 6.15825 11.3379 6.35351C11.1427 6.54877 10.8261 6.54877 10.6308 6.35351C10.5111 6.23385 10.3489 6.16663 10.1797 6.16663H9.31773C9.04153 6.16663 8.81773 5.94277 8.81773 5.66663Z" fill="black"/>
<path fill-rule="evenodd" clip-rule="evenodd" d="M0.832916 7.52994C0.822856 7.68528 0.817749 7.84201 0.817749 7.99994C0.817749 8.18921 0.825089 8.37681 0.839496 8.56234L4.20895 9.40474C4.13826 9.95341 4.13246 10.5549 4.19161 11.1124L1.4152 10.8692C1.57672 11.2385 1.76845 11.5915 1.98728 11.9251L4.39752 12.1415C4.52779 12.5264 4.77425 12.7978 5.09145 12.9623C5.40289 13.1237 5.75141 13.1665 6.06297 13.1665H9.90611C10.2178 13.1665 10.5664 13.1237 10.8778 12.9622C11.195 12.7977 11.4414 12.5263 11.5716 12.1414L13.9816 11.9251C14.2004 11.5915 14.3921 11.2385 14.5536 10.8692L11.7775 11.1124C11.8366 10.555 11.8308 9.95348 11.76 9.40474L15.1293 8.56241C15.1438 8.37681 15.1511 8.18921 15.1511 7.99994C15.1511 7.84208 15.146 7.68534 15.1359 7.53001L11.5362 8.42994C11.3993 8.09508 11.1682 7.85488 10.8778 7.70428C10.5664 7.54268 10.2178 7.49988 9.90611 7.49988H6.06297C5.7509 7.49988 5.40194 7.54281 5.09022 7.70468C4.80008 7.85528 4.56936 8.09541 4.43254 8.42988L0.832916 7.52994ZM5.33734 8.86708C5.38441 8.71241 5.45958 8.63961 5.55105 8.59214C5.66164 8.53474 5.82852 8.49988 6.06297 8.49988H9.90611C10.1402 8.49988 10.3069 8.53461 10.4175 8.59194C10.509 8.63941 10.584 8.71208 10.6311 8.86628C10.8801 9.68248 10.8801 10.984 10.6311 11.8002C10.584 11.9544 10.509 12.027 10.4175 12.0745C10.3069 12.1318 10.1402 12.1665 9.90611 12.1665H6.06297C5.829 12.1665 5.66229 12.1319 5.55174 12.0745C5.46024 12.0271 5.38521 11.9545 5.33817 11.8004C5.08912 10.9847 5.08892 9.68368 5.33734 8.86708Z" fill="black"/>
</svg>
