<svg width="28" height="28" viewBox="0 0 28 28" fill="none" xmlns="http://www.w3.org/2000/svg">
<path fill-rule="evenodd" clip-rule="evenodd" d="M2.02628 13.3194C1.75269 13.251 1.61589 13.2169 1.54089 13.1089C1.46587 13.001 1.48091 12.866 1.51099 12.5961C2.20896 6.33032 7.52301 1.45837 13.9749 1.45837C20.4269 1.45837 25.741 6.33037 26.4389 12.5961C26.469 12.8662 26.484 13.0011 26.409 13.1091C26.334 13.217 26.1972 13.2512 25.9236 13.3195L20.7788 14.6058C20.5212 14.6702 20.3924 14.7024 20.2914 14.6653C20.1903 14.6283 20.0933 14.4931 19.899 14.2226C19.6705 13.9045 19.3776 13.6588 19.0385 13.4829C18.4934 13.2002 17.8833 13.1253 17.3378 13.1253H10.6124C10.0663 13.1253 9.4556 13.2003 8.91012 13.4836C8.5714 13.6594 8.27896 13.905 8.05071 14.2226C7.85653 14.493 7.75944 14.6282 7.65843 14.6652C7.55744 14.7023 7.42864 14.6701 7.17106 14.6057L2.02628 13.3194ZM1.58393 15.9498C1.51742 15.5236 1.48417 15.3106 1.62286 15.1839C1.76156 15.0572 1.97914 15.1115 2.41428 15.2203L6.76383 16.3077C7.04784 16.3786 7.18983 16.4142 7.26467 16.5179C7.33953 16.6218 7.32792 16.7738 7.30469 17.0781C7.26652 17.578 7.25719 18.0924 7.27677 18.5994C7.29238 19.0036 7.30019 19.2058 7.18572 19.3148C7.07126 19.4239 6.87772 19.4068 6.49065 19.373L2.89274 19.0578C2.68909 19.0399 2.58727 19.0309 2.50771 18.9718C2.42814 18.9126 2.39172 18.8212 2.31887 18.6382C1.97875 17.7842 1.72976 16.884 1.58393 15.9498ZM4.92202 20.9989C4.28827 20.9419 3.97139 20.9135 3.86293 21.1207C3.75446 21.3278 3.9503 21.5624 4.34199 22.0317C6.64258 24.788 10.104 26.5417 13.9749 26.5417C17.8459 26.5417 21.3073 24.788 23.6079 22.0317C23.9995 21.5625 24.1954 21.3279 24.0869 21.1207C23.9785 20.9136 23.6616 20.9419 23.0278 20.9989L20.7069 21.2071C20.5014 21.2257 20.3986 21.2349 20.3249 21.2837C20.2511 21.3323 20.1915 21.4436 20.0722 21.6663C19.8276 22.1226 19.4706 22.4601 19.0385 22.6842C18.4934 22.967 17.8833 23.0419 17.3378 23.0419H10.6124C10.0672 23.0419 9.45727 22.967 8.91225 22.6845C8.48005 22.4604 8.1229 22.1228 7.87833 21.6663C7.75905 21.4437 7.69941 21.3324 7.62567 21.2837C7.55195 21.2349 7.44917 21.2257 7.24359 21.2072L4.92202 20.9989ZM25.631 18.6384C25.5582 18.8212 25.5218 18.9126 25.4422 18.9718C25.3626 19.0311 25.2608 19.0399 25.0571 19.0578L21.4597 19.373C21.0727 19.4068 20.8791 19.4239 20.7647 19.3148C20.6502 19.2058 20.6581 19.0036 20.6736 18.5994C20.6931 18.0925 20.6837 17.5781 20.6455 17.0782C20.6222 16.7739 20.6106 16.6218 20.6855 16.5181C20.7603 16.4142 20.9024 16.3788 21.1863 16.3077L25.5355 15.2204C25.9707 15.1116 26.1883 15.0573 26.327 15.184C26.4657 15.3107 26.4325 15.5237 26.366 15.9499C26.2201 16.8842 25.9712 17.7844 25.631 18.6384ZM8.10624 9.88132C8.64382 9.34372 9.37297 9.04171 10.1332 9.04171H11.6416C12.1248 9.04171 12.5166 9.43346 12.5166 9.91671C12.5166 10.4 12.1248 10.7917 11.6416 10.7917H10.1332C9.83709 10.7917 9.55308 10.9094 9.34367 11.1188C9.00196 11.4605 8.44794 11.4605 8.10624 11.1188C7.76452 10.7771 7.76452 10.223 8.10624 9.88132ZM15.4333 9.91671C15.4333 9.43346 15.825 9.04171 16.3083 9.04171H17.8166C18.577 9.04171 19.306 9.34372 19.8436 9.88132C20.1853 10.223 20.1853 10.7771 19.8436 11.1188C19.502 11.4605 18.948 11.4605 18.6062 11.1188C18.3968 10.9094 18.1127 10.7917 17.8166 10.7917H16.3083C15.825 10.7917 15.4333 10.4 15.4333 9.91671ZM9.34256 15.5179C9.42493 15.2471 9.55648 15.1198 9.71656 15.0366C9.91008 14.9362 10.2021 14.8753 10.6124 14.8753H17.3378C17.7476 14.8753 18.0394 14.9361 18.2328 15.0364C18.3929 15.1195 18.5242 15.2465 18.6066 15.5164C19.0425 16.9447 19.0425 19.2225 18.6066 20.6507C18.5242 20.9206 18.3929 21.0478 18.2328 21.1308C18.0394 21.2312 17.7475 21.2919 17.3378 21.2919H10.6124C10.203 21.2919 9.91122 21.2312 9.71775 21.1308C9.55765 21.0479 9.42633 20.9208 9.34401 20.6512C8.90818 19.2237 8.90783 16.9469 9.34256 15.5179Z" fill="black"/>
</svg>
