<svg width="16" height="16" viewBox="0 0 16 16" fill="none" xmlns="http://www.w3.org/2000/svg">
<path d="M5.5 13.5C5.5 12.9477 5.94772 12.5 6.5 12.5C7.0523 12.5 7.50003 12.9477 7.50003 13.5C7.50003 14.0523 7.0523 14.5 6.5 14.5C5.94772 14.5 5.5 14.0523 5.5 13.5Z" fill="black"/>
<path d="M11.1666 13.5C11.1666 12.9477 11.6143 12.5 12.1666 12.5C12.7189 12.5 13.1666 12.9477 13.1666 13.5C13.1666 14.0523 12.7189 14.5 12.1666 14.5C11.6143 14.5 11.1666 14.0523 11.1666 13.5Z" fill="black"/>
<path opacity="0.4" d="M2.75318 1.53906C2.59831 1.51886 2.42533 1.50928 2.23821 1.50456L1.63795 1.5H1.49992C1.13173 1.5 0.833252 1.79848 0.833252 2.16667C0.833252 2.53485 1.13173 2.83333 1.49992 2.83333H1.63795L2.205 2.83724C2.35793 2.84089 2.47882 2.84805 2.58065 2.86133C2.76525 2.88543 2.79334 2.91991 2.79615 2.92253C2.79904 2.92519 2.83519 2.95076 2.87232 3.13281C2.91333 3.334 2.93463 3.61317 2.96737 4.07161L3.13534 6.41732C3.21475 7.5228 3.29469 8.33413 3.50773 8.9056C4.00312 10.2341 5.09592 11.2515 6.4563 11.6511C7.09429 11.8383 7.85235 11.8333 9.15422 11.8333C10.521 11.8333 11.316 11.8385 11.9726 11.6393C13.4108 11.2031 14.5363 10.0775 14.9726 8.63933C15.1717 7.98273 15.1666 7.19233 15.1666 5.83333C15.1666 5.40467 15.1715 5.0795 15.0872 4.80143C14.9094 4.21557 14.451 3.7565 13.8652 3.57877C13.5872 3.49453 13.2618 3.5 12.8333 3.5H4.26034C4.24023 3.26627 4.21687 3.05247 4.17896 2.86653C4.11269 2.54152 3.98951 2.21213 3.70435 1.94661C3.41924 1.68127 3.08201 1.58199 2.75318 1.53906Z" fill="black"/>
<path d="M6.83337 8.66666V6.66666C6.83337 6.39052 7.05717 6.16666 7.33337 6.16666C7.60951 6.16666 7.83337 6.39052 7.83337 6.66666V8.66666C7.83337 8.94279 7.60951 9.16666 7.33337 9.16666C7.05717 9.16666 6.83337 8.94279 6.83337 8.66666ZM10.1667 8.66666V6.66666C10.1667 6.39052 10.3905 6.16666 10.6667 6.16666C10.9428 6.16666 11.1667 6.39052 11.1667 6.66666V8.66666C11.1667 8.94279 10.9428 9.16666 10.6667 9.16666C10.3905 9.16666 10.1667 8.94279 10.1667 8.66666Z" fill="black"/>
</svg>
