<svg width="24" height="24" viewBox="0 0 24 24" fill="none" xmlns="http://www.w3.org/2000/svg">
<path d="M8.25 20.25C8.25 19.4216 8.92157 18.75 9.75 18.75C10.5784 18.75 11.25 19.4216 11.25 20.25C11.25 21.0784 10.5784 21.75 9.75 21.75C8.92157 21.75 8.25 21.0784 8.25 20.25Z" fill="black"/>
<path d="M16.75 20.25C16.75 19.4216 17.4215 18.75 18.25 18.75C19.0784 18.75 19.75 19.4216 19.75 20.25C19.75 21.0784 19.0784 21.75 18.25 21.75C17.4215 21.75 16.75 21.0784 16.75 20.25Z" fill="black"/>
<path d="M2.45703 2.25L3.35742 2.25684C3.63812 2.26392 3.89758 2.27829 4.12988 2.30859C4.62312 2.37298 5.12897 2.5219 5.55664 2.91992C5.98437 3.31819 6.16916 3.81228 6.26855 4.2998C6.32541 4.57871 6.36047 4.8994 6.39062 5.25H19.25C19.8927 5.25 20.3808 5.2418 20.7978 5.36816C21.6766 5.63475 22.3642 6.32335 22.6308 7.20215C22.7573 7.61925 22.75 8.107 22.75 8.75C22.75 10.7885 22.7576 11.9741 22.459 12.959C21.8045 15.1163 20.1162 16.8046 17.959 17.459C16.974 17.7577 15.7816 17.75 13.7314 17.75C11.7786 17.75 10.6415 17.7575 9.68457 17.4766C7.64401 16.8772 6.0048 15.3511 5.26172 13.3584C4.94216 12.5012 4.82225 11.2842 4.70312 9.62598L4.45117 6.10742C4.40205 5.41976 4.37012 5.001 4.30859 4.69922C4.2529 4.42614 4.19867 4.38779 4.19434 4.38379C4.19012 4.37987 4.14799 4.32814 3.87109 4.29199C3.71835 4.27207 3.53701 4.26134 3.30762 4.25586L2.45703 4.25H2.25C1.69771 4.25 1.25 3.80228 1.25 3.25C1.25 2.69772 1.69771 2.25 2.25 2.25H2.45703ZM11 9.25C10.5858 9.25 10.25 9.58579 10.25 10V13C10.25 13.4142 10.5858 13.75 11 13.75C11.4142 13.75 11.75 13.4142 11.75 13V10C11.75 9.58579 11.4142 9.25 11 9.25ZM16 9.25C15.5858 9.25 15.25 9.58579 15.25 10V13C15.25 13.4142 15.5858 13.75 16 13.75C16.4142 13.75 16.75 13.4142 16.75 13V10C16.75 9.58579 16.4142 9.25 16 9.25Z" fill="black"/>
</svg>
