<svg width="28" height="28" viewBox="0 0 28 28" fill="none" xmlns="http://www.w3.org/2000/svg">
<path d="M12.25 23.625C12.25 24.1082 11.8582 24.5 11.375 24.5C10.8918 24.5 10.5 24.1082 10.5 23.625C10.5 23.1418 10.8918 22.75 11.375 22.75C11.8582 22.75 12.25 23.1418 12.25 23.625Z" stroke="black" stroke-width="1.75" stroke-linecap="round" stroke-linejoin="round"/>
<path d="M22.1666 23.625C22.1666 24.1082 21.7749 24.5 21.2916 24.5C20.8084 24.5 20.4166 24.1082 20.4166 23.625C20.4166 23.1418 20.8084 22.75 21.2916 22.75C21.7749 22.75 22.1666 23.1418 22.1666 23.625Z" stroke="black" stroke-width="1.75" stroke-linecap="round" stroke-linejoin="round"/>
<path d="M2.33337 3.5H2.57445C4.11982 3.5 4.8925 3.5 5.39646 3.96925C5.90041 4.43848 5.95545 5.2092 6.06556 6.75064L6.35878 10.8558C6.52451 13.1759 6.60736 14.3359 6.95893 15.2788C7.72957 17.3457 9.42938 18.9285 11.5459 19.5498C12.5115 19.8333 13.6812 19.8333 16.0204 19.8333C18.4769 19.8333 19.705 19.8333 20.6987 19.5319C22.9359 18.8532 24.6866 17.1025 25.3652 14.8653C25.6667 13.8717 25.6667 12.6505 25.6667 10.2083C25.6667 9.39426 25.6667 8.98722 25.5663 8.656C25.34 7.91027 24.7565 7.32669 24.0107 7.10047C23.6795 7 23.2725 7 22.4584 7H6.41671" stroke="black" stroke-width="1.75" stroke-linecap="round" stroke-linejoin="round"/>
<path opacity="0.4" d="M18.6667 11.6667V15.1667M12.8334 11.6667V15.1667" stroke="black" stroke-width="1.75" stroke-linecap="round" stroke-linejoin="round"/>
</svg>
