<svg width="20" height="20" viewBox="0 0 20 20" fill="none" xmlns="http://www.w3.org/2000/svg">
<path d="M6.875 16.875C6.875 16.1847 7.43464 15.625 8.125 15.625C8.81536 15.625 9.37502 16.1847 9.37502 16.875C9.37502 17.5653 8.81536 18.125 8.125 18.125C7.43464 18.125 6.875 17.5653 6.875 16.875Z" fill="black"/>
<path d="M13.9584 16.875C13.9584 16.1847 14.518 15.625 15.2084 15.625C15.8987 15.625 16.4584 16.1847 16.4584 16.875C16.4584 17.5653 15.8987 18.125 15.2084 18.125C14.518 18.125 13.9584 17.5653 13.9584 16.875Z" fill="black"/>
<path d="M2.04748 1.875L2.79781 1.8807C3.03173 1.8866 3.24794 1.89857 3.44153 1.92382C3.85256 1.97748 4.2741 2.10158 4.63049 2.43327C4.98693 2.76516 5.14093 3.1769 5.22375 3.58317C5.27113 3.81559 5.30035 4.08283 5.32548 4.375H16.0417C16.5772 4.375 16.984 4.36817 17.3315 4.47347C18.0638 4.69562 18.6368 5.26946 18.859 6.00179C18.9644 6.34937 18.9583 6.75583 18.9583 7.29167C18.9583 8.99042 18.9647 9.97842 18.7158 10.7992C18.1704 12.5969 16.7635 14.0038 14.9658 14.5492C14.145 14.7981 13.1513 14.7917 11.4428 14.7917C9.81549 14.7917 8.8679 14.7979 8.07044 14.5638C6.36997 14.0643 5.00396 12.7926 4.38473 11.132C4.11843 10.4177 4.0185 9.4035 3.91923 8.02165L3.70927 5.08952C3.66833 4.51647 3.64173 4.1675 3.59045 3.91602C3.54404 3.68845 3.49885 3.65649 3.49524 3.65316C3.49173 3.64989 3.45662 3.60678 3.22587 3.57666C3.09858 3.56006 2.94747 3.55112 2.75631 3.54655L2.04748 3.54167H1.87496C1.41472 3.54167 1.04163 3.16857 1.04163 2.70833C1.04163 2.2481 1.41472 1.875 1.87496 1.875H2.04748ZM9.16665 7.70833C8.82149 7.70833 8.54165 7.98816 8.54165 8.33333V10.8333C8.54165 11.1785 8.82149 11.4583 9.16665 11.4583C9.51182 11.4583 9.79165 11.1785 9.79165 10.8333V8.33333C9.79165 7.98816 9.51182 7.70833 9.16665 7.70833ZM13.3333 7.70833C12.9882 7.70833 12.7083 7.98816 12.7083 8.33333V10.8333C12.7083 11.1785 12.9882 11.4583 13.3333 11.4583C13.6785 11.4583 13.9583 11.1785 13.9583 10.8333V8.33333C13.9583 7.98816 13.6785 7.70833 13.3333 7.70833Z" fill="black"/>
</svg>
