<svg width="32" height="32" viewBox="0 0 32 32" fill="none" xmlns="http://www.w3.org/2000/svg">
<path d="M11 27C11 25.8955 11.8954 25 13 25C14.1046 25 15.0001 25.8955 15.0001 27C15.0001 28.1045 14.1046 29 13 29C11.8954 29 11 28.1045 11 27Z" fill="black"/>
<path d="M22.3334 27C22.3334 25.8955 23.2287 25 24.3334 25C25.4379 25 26.3334 25.8955 26.3334 27C26.3334 28.1045 25.4379 29 24.3334 29C23.2287 29 22.3334 28.1045 22.3334 27Z" fill="black"/>
<path opacity="0.4" d="M5.50648 3.07812C5.19673 3.03772 4.85079 3.01856 4.47653 3.00912L3.27601 3H2.99996C2.26359 3 1.66663 3.59696 1.66663 4.33333C1.66663 5.06971 2.26359 5.66667 2.99996 5.66667H3.27601L4.41012 5.67448C4.71597 5.68179 4.95776 5.69609 5.16143 5.72265C5.53063 5.77085 5.5868 5.83983 5.59241 5.84505C5.5982 5.85039 5.67049 5.90152 5.74476 6.26563C5.82679 6.668 5.86937 7.22635 5.93487 8.14323L6.2708 12.8346C6.42963 15.0456 6.58951 16.6683 7.01559 17.8112C8.00636 20.4681 10.192 22.5029 12.9127 23.3021C14.1887 23.6767 15.7048 23.6667 18.3086 23.6667C21.0422 23.6667 22.632 23.6769 23.9452 23.2787C26.8216 22.4061 29.0727 20.1551 29.9452 17.2787C30.3435 15.9655 30.3334 14.3847 30.3334 11.6667C30.3334 10.8093 30.3431 10.159 30.1744 9.60287C29.819 8.43113 28.9022 7.513 27.7304 7.15755C27.1744 6.98907 26.5236 7 25.6667 7H8.5208C8.48059 6.53253 8.43385 6.10495 8.35804 5.73307C8.22551 5.08304 7.97913 4.42425 7.40881 3.89323C6.8386 3.36253 6.16413 3.16397 5.50648 3.07812Z" fill="black"/>
<path d="M13.6666 17.3333V13.3333C13.6666 12.7811 14.1142 12.3333 14.6666 12.3333C15.2189 12.3333 15.6666 12.7811 15.6666 13.3333V17.3333C15.6666 17.8856 15.2189 18.3333 14.6666 18.3333C14.1142 18.3333 13.6666 17.8856 13.6666 17.3333ZM20.3333 17.3333V13.3333C20.3333 12.7811 20.7809 12.3333 21.3333 12.3333C21.8856 12.3333 22.3333 12.7811 22.3333 13.3333V17.3333C22.3333 17.8856 21.8856 18.3333 21.3333 18.3333C20.7809 18.3333 20.3333 17.8856 20.3333 17.3333Z" fill="black"/>
</svg>
