<svg width="32" height="32" viewBox="0 0 32 32" fill="none" xmlns="http://www.w3.org/2000/svg">
<path d="M11 27C11 25.8955 11.8954 25 13 25C14.1046 25 15 25.8955 15 27C15 28.1045 14.1046 29 13 29C11.8954 29 11 28.1045 11 27Z" fill="black"/>
<path d="M22.3334 27C22.3334 25.8955 23.2287 25 24.3334 25C25.4379 25 26.3334 25.8955 26.3334 27C26.3334 28.1045 25.4379 29 24.3334 29C23.2287 29 22.3334 28.1045 22.3334 27Z" fill="black"/>
<path d="M3.276 3L4.47652 3.00912C4.85079 3.01856 5.19673 3.03772 5.50647 3.07812C6.16412 3.16397 6.83859 3.36253 7.40881 3.89323C7.97912 4.42425 8.22551 5.08304 8.35803 5.73307C8.43384 6.10495 8.48059 6.53253 8.52079 7H25.6667C26.5236 7 27.1744 6.98907 27.7304 7.15755C28.9021 7.513 29.8189 8.43113 30.1744 9.60287C30.3431 10.159 30.3333 10.8093 30.3333 11.6667C30.3333 14.3847 30.3435 15.9655 29.9453 17.2787C29.0727 20.1551 26.8216 22.4061 23.9453 23.2787C22.632 23.6769 21.0421 23.6667 18.3085 23.6667C15.7048 23.6667 14.1887 23.6767 12.9127 23.3021C10.192 22.5029 8.00636 20.4681 7.01559 17.8112C6.58951 16.6683 6.42963 15.0456 6.27079 12.8346L5.93485 8.14323C5.86936 7.22635 5.82679 6.668 5.74475 6.26563C5.67049 5.90152 5.59819 5.85039 5.59241 5.84505C5.58679 5.83983 5.53061 5.77085 5.16141 5.72265C4.95776 5.69609 4.71597 5.68179 4.41012 5.67448L3.276 5.66667H2.99996C2.26357 5.66667 1.66663 5.06971 1.66663 4.33333C1.66663 3.59696 2.26357 3 2.99996 3H3.276ZM14.6667 12.3333C14.1144 12.3333 13.6667 12.7811 13.6667 13.3333V17.3333C13.6667 17.8856 14.1144 18.3333 14.6667 18.3333C15.2189 18.3333 15.6667 17.8856 15.6667 17.3333V13.3333C15.6667 12.7811 15.2189 12.3333 14.6667 12.3333ZM21.3333 12.3333C20.7811 12.3333 20.3333 12.7811 20.3333 13.3333V17.3333C20.3333 17.8856 20.7811 18.3333 21.3333 18.3333C21.8856 18.3333 22.3333 17.8856 22.3333 17.3333V13.3333C22.3333 12.7811 21.8856 12.3333 21.3333 12.3333Z" fill="black"/>
</svg>
