<svg width="24" height="24" viewBox="0 0 24 24" fill="none" xmlns="http://www.w3.org/2000/svg">
<path d="M8.25 20.25C8.25 19.4216 8.92158 18.75 9.75 18.75C10.5784 18.75 11.25 19.4216 11.25 20.25C11.25 21.0784 10.5784 21.75 9.75 21.75C8.92158 21.75 8.25 21.0784 8.25 20.25Z" fill="black"/>
<path d="M16.75 20.25C16.75 19.4216 17.4215 18.75 18.25 18.75C19.0784 18.75 19.75 19.4216 19.75 20.25C19.75 21.0784 19.0784 21.75 18.25 21.75C17.4215 21.75 16.75 21.0784 16.75 20.25Z" fill="black"/>
<path opacity="0.4" d="M4.12989 2.30859C3.89758 2.27829 3.63812 2.26392 3.35743 2.25684L2.45704 2.25H2.25C1.69772 2.25 1.25 2.69772 1.25 3.25C1.25 3.80228 1.69772 4.25 2.25 4.25H2.45704L3.30762 4.25586C3.53701 4.26134 3.71835 4.27207 3.8711 4.29199C4.148 4.32814 4.19013 4.37987 4.19434 4.38379C4.19868 4.38779 4.2529 4.42614 4.3086 4.69922C4.37012 5.001 4.40206 5.41976 4.45118 6.10742L4.70313 9.62598C4.82225 11.2842 4.94216 12.5012 5.26172 13.3584C6.0048 15.3511 7.64401 16.8772 9.68457 17.4766C10.6415 17.7575 11.7786 17.75 13.7314 17.75C15.7816 17.75 16.9741 17.7577 17.959 17.459C20.1162 16.8046 21.8046 15.1163 22.459 12.959C22.7577 11.9741 22.75 10.7885 22.75 8.75C22.75 8.107 22.7573 7.61925 22.6308 7.20215C22.3643 6.32335 21.6766 5.63475 20.7978 5.36816C20.3808 5.2418 19.8927 5.25 19.25 5.25H6.39063C6.36047 4.8994 6.32542 4.57871 6.26856 4.2998C6.16916 3.81228 5.98438 3.31819 5.55664 2.91992C5.12898 2.5219 4.62313 2.37298 4.12989 2.30859Z" fill="black"/>
<path d="M10.25 13V10C10.25 9.58579 10.5857 9.25 11 9.25C11.4142 9.25 11.75 9.58579 11.75 10V13C11.75 13.4142 11.4142 13.75 11 13.75C10.5857 13.75 10.25 13.4142 10.25 13ZM15.25 13V10C15.25 9.58579 15.5857 9.25 16 9.25C16.4142 9.25 16.75 9.58579 16.75 10V13C16.75 13.4142 16.4142 13.75 16 13.75C15.5857 13.75 15.25 13.4142 15.25 13Z" fill="black"/>
</svg>
