<svg width="32" height="32" viewBox="0 0 32 32" fill="none" xmlns="http://www.w3.org/2000/svg">
<path opacity="0.4" d="M29.3333 11.6666C29.3333 14.4577 29.3333 15.8533 28.9888 16.9889C28.2133 19.5457 26.2124 21.5465 23.6556 22.3221C22.52 22.6667 21.1164 22.6667 18.3089 22.6667C15.6356 22.6667 14.2988 22.6667 13.1953 22.3427C10.7764 21.6325 8.83375 19.8236 7.95303 17.4615C7.55125 16.3839 7.45655 15.0581 7.26715 12.4066L6.95239 8H25.6667C26.5971 8 27.0623 8 27.4408 8.11483C28.2931 8.37336 28.96 9.04031 29.2185 9.89257C29.3333 10.2711 29.3333 10.7363 29.3333 11.6666Z" fill="black"/>
<path d="M14 27C14 27.5523 13.5523 28 13 28C12.4477 28 12 27.5523 12 27C12 26.4477 12.4477 26 13 26C13.5523 26 14 26.4477 14 27Z" stroke="black" stroke-width="2" stroke-linecap="round" stroke-linejoin="round"/>
<path d="M25.3334 27C25.3334 27.5523 24.8856 28 24.3334 28C23.7811 28 23.3334 27.5523 23.3334 27C23.3334 26.4477 23.7811 26 24.3334 26C24.8856 26 25.3334 26.4477 25.3334 27Z" stroke="black" stroke-width="2" stroke-linecap="round" stroke-linejoin="round"/>
<path d="M2.66663 4H2.94215C4.70828 4 5.59135 4 6.16729 4.53628C6.74324 5.07255 6.80615 5.95337 6.93199 7.71501L7.26709 12.4066C7.45649 15.0581 7.55119 16.3839 7.95297 17.4615C8.83371 19.8236 10.7763 21.6325 13.1953 22.3427C14.2988 22.6667 15.6356 22.6667 18.3089 22.6667C21.1164 22.6667 22.52 22.6667 23.6556 22.3221C26.2124 21.5465 28.2132 19.5457 28.9888 16.9889C29.3333 15.8533 29.3333 14.4577 29.3333 11.6667C29.3333 10.7363 29.3333 10.2711 29.2185 9.89257C28.96 9.04031 28.293 8.37336 27.4408 8.11483C27.0622 8 26.597 8 25.6666 8H7.33329" stroke="black" stroke-width="2" stroke-linecap="round" stroke-linejoin="round"/>
<path d="M21.3333 13.3333V17.3333M14.6666 13.3333V17.3333" stroke="black" stroke-width="2" stroke-linecap="round" stroke-linejoin="round"/>
</svg>
