<svg width="28" height="28" viewBox="0 0 28 28" fill="none" xmlns="http://www.w3.org/2000/svg">
<path d="M9.625 23.625C9.625 22.6585 10.4085 21.875 11.375 21.875C12.3415 21.875 13.125 22.6585 13.125 23.625C13.125 24.5915 12.3415 25.375 11.375 25.375C10.4085 25.375 9.625 24.5915 9.625 23.625Z" fill="black"/>
<path d="M19.5416 23.625C19.5416 22.6585 20.325 21.875 21.2916 21.875C22.2581 21.875 23.0416 22.6585 23.0416 23.625C23.0416 24.5915 22.2581 25.375 21.2916 25.375C20.325 25.375 19.5416 24.5915 19.5416 23.625Z" fill="black"/>
<path d="M2.86645 2.625L3.91691 2.63298C4.24439 2.64124 4.5471 2.658 4.81811 2.69335C5.39356 2.76848 5.98372 2.94222 6.48267 3.40657C6.98168 3.87122 7.19727 4.44766 7.31323 5.01643C7.37956 5.34183 7.42047 5.71597 7.45564 6.125H22.4583C23.2081 6.125 23.7776 6.11543 24.2641 6.26285C25.2893 6.57387 26.0915 7.37724 26.4026 8.40251C26.5501 8.88912 26.5416 9.45817 26.5416 10.2083C26.5416 12.5866 26.5505 13.9698 26.2021 15.1188C25.4385 17.6357 23.4689 19.6054 20.9521 20.3688C19.803 20.7173 18.4118 20.7083 16.0199 20.7083C13.7417 20.7083 12.415 20.7171 11.2986 20.3894C8.91793 19.6901 7.00552 17.9096 6.13859 15.5848C5.76577 14.5847 5.62588 13.1649 5.48689 11.2303L5.19295 7.12532C5.13564 6.32305 5.09839 5.8345 5.02661 5.48242C4.96164 5.16383 4.89837 5.11909 4.89332 5.11442C4.88839 5.10985 4.83924 5.0495 4.51619 5.00732C4.33799 4.98408 4.12643 4.97156 3.85881 4.96517L2.86645 4.95833H2.62492C1.98058 4.95833 1.45825 4.43599 1.45825 3.79167C1.45825 3.14734 1.98058 2.625 2.62492 2.625H2.86645ZM12.8333 10.7917C12.3501 10.7917 11.9583 11.1834 11.9583 11.6667V15.1667C11.9583 15.6499 12.3501 16.0417 12.8333 16.0417C13.3165 16.0417 13.7083 15.6499 13.7083 15.1667V11.6667C13.7083 11.1834 13.3165 10.7917 12.8333 10.7917ZM18.6666 10.7917C18.1834 10.7917 17.7916 11.1834 17.7916 11.6667V15.1667C17.7916 15.6499 18.1834 16.0417 18.6666 16.0417C19.1499 16.0417 19.5416 15.6499 19.5416 15.1667V11.6667C19.5416 11.1834 19.1499 10.7917 18.6666 10.7917Z" fill="black"/>
</svg>
