<svg width="16" height="16" viewBox="0 0 16 16" fill="none" xmlns="http://www.w3.org/2000/svg">
<path d="M5.5 13.5C5.5 12.9477 5.94771 12.5 6.5 12.5C7.05229 12.5 7.50002 12.9477 7.50002 13.5C7.50002 14.0523 7.05229 14.5 6.5 14.5C5.94771 14.5 5.5 14.0523 5.5 13.5Z" fill="black"/>
<path d="M11.1666 13.5C11.1666 12.9477 11.6143 12.5 12.1666 12.5C12.7189 12.5 13.1666 12.9477 13.1666 13.5C13.1666 14.0523 12.7189 14.5 12.1666 14.5C11.6143 14.5 11.1666 14.0523 11.1666 13.5Z" fill="black"/>
<path d="M1.63794 1.5L2.2382 1.50456C2.42533 1.50928 2.59831 1.51886 2.75317 1.53906C3.082 1.58199 3.41923 1.68127 3.70435 1.94661C3.9895 2.21213 4.11269 2.54152 4.17895 2.86653C4.21686 3.05247 4.24023 3.26627 4.26033 3.5H12.8333C13.2617 3.5 13.5871 3.49453 13.8651 3.57877C14.451 3.7565 14.9094 4.21557 15.0871 4.80143C15.1715 5.0795 15.1666 5.40467 15.1666 5.83333C15.1666 7.19233 15.1717 7.98273 14.9726 8.63933C14.5363 10.0775 13.4107 11.2031 11.9726 11.6393C11.3159 11.8385 10.521 11.8333 9.1542 11.8333C7.85234 11.8333 7.09427 11.8383 6.4563 11.6511C5.09593 11.2515 4.00312 10.2341 3.50773 8.9056C3.29469 8.33413 3.21475 7.5228 3.13533 6.41732L2.96737 4.07161C2.93462 3.61317 2.91333 3.334 2.87231 3.13281C2.83519 2.95076 2.79903 2.92519 2.79615 2.92253C2.79333 2.91991 2.76525 2.88543 2.58065 2.86133C2.47882 2.84805 2.35793 2.84089 2.205 2.83724L1.63794 2.83333H1.49992C1.13173 2.83333 0.833252 2.53485 0.833252 2.16667C0.833252 1.79848 1.13173 1.5 1.49992 1.5H1.63794ZM7.33327 6.16667C7.05714 6.16667 6.83327 6.39053 6.83327 6.66667V8.66667C6.83327 8.9428 7.05714 9.16667 7.33327 9.16667C7.60941 9.16667 7.83327 8.9428 7.83327 8.66667V6.66667C7.83327 6.39053 7.60941 6.16667 7.33327 6.16667ZM10.6666 6.16667C10.3905 6.16667 10.1666 6.39053 10.1666 6.66667V8.66667C10.1666 8.9428 10.3905 9.16667 10.6666 9.16667C10.9427 9.16667 11.1666 8.9428 11.1666 8.66667V6.66667C11.1666 6.39053 10.9427 6.16667 10.6666 6.16667Z" fill="black"/>
</svg>
