<svg width="20" height="20" viewBox="0 0 20 20" fill="none" xmlns="http://www.w3.org/2000/svg">
<path d="M6.875 16.875C6.875 16.1847 7.43465 15.625 8.125 15.625C8.81537 15.625 9.37504 16.1847 9.37504 16.875C9.37504 17.5653 8.81537 18.125 8.125 18.125C7.43465 18.125 6.875 17.5653 6.875 16.875Z" fill="black"/>
<path d="M13.9584 16.875C13.9584 16.1847 14.518 15.625 15.2084 15.625C15.8987 15.625 16.4584 16.1847 16.4584 16.875C16.4584 17.5653 15.8987 18.125 15.2084 18.125C14.518 18.125 13.9584 17.5653 13.9584 16.875Z" fill="black"/>
<path opacity="0.4" d="M3.44153 1.92382C3.24794 1.89857 3.03173 1.8866 2.79782 1.8807L2.04749 1.875H1.87496C1.41473 1.875 1.04163 2.2481 1.04163 2.70833C1.04163 3.16857 1.41473 3.54167 1.87496 3.54167H2.04749L2.75631 3.54655C2.94747 3.55112 3.09858 3.56006 3.22588 3.57666C3.45663 3.60678 3.49173 3.64989 3.49524 3.65316C3.49886 3.65649 3.54404 3.68845 3.59046 3.91602C3.64173 4.1675 3.66834 4.51647 3.70928 5.08952L3.91923 8.02165C4.0185 9.4035 4.11843 10.4177 4.38473 11.132C5.00396 12.7926 6.36997 14.0643 8.07043 14.5638C8.86792 14.7979 9.8155 14.7917 11.4428 14.7917C13.1513 14.7917 14.145 14.7981 14.9658 14.5492C16.7635 14.0038 18.1704 12.5969 18.7157 10.7992C18.9647 9.97842 18.9583 8.99042 18.9583 7.29167C18.9583 6.75583 18.9644 6.34937 18.859 6.00179C18.6368 5.26946 18.0638 4.69562 17.3315 4.47347C16.984 4.36817 16.5773 4.375 16.0417 4.375H5.32548C5.30035 4.08283 5.27114 3.81559 5.22376 3.58317C5.14093 3.1769 4.98694 2.76516 4.63049 2.43327C4.27411 2.10158 3.85257 1.97748 3.44153 1.92382Z" fill="black"/>
<path d="M8.54163 10.8333V8.33334C8.54163 7.98817 8.82138 7.70834 9.16663 7.70834C9.51179 7.70834 9.79163 7.98817 9.79163 8.33334V10.8333C9.79163 11.1785 9.51179 11.4583 9.16663 11.4583C8.82138 11.4583 8.54163 11.1785 8.54163 10.8333ZM12.7083 10.8333V8.33334C12.7083 7.98817 12.988 7.70834 13.3333 7.70834C13.6785 7.70834 13.9583 7.98817 13.9583 8.33334V10.8333C13.9583 11.1785 13.6785 11.4583 13.3333 11.4583C12.988 11.4583 12.7083 11.1785 12.7083 10.8333Z" fill="black"/>
</svg>
