<svg width="20" height="20" viewBox="0 0 20 20" fill="none" xmlns="http://www.w3.org/2000/svg">
<path d="M8.75 16.875C8.75 17.2202 8.47017 17.5 8.125 17.5C7.77983 17.5 7.5 17.2202 7.5 16.875C7.5 16.5298 7.77983 16.25 8.125 16.25C8.47017 16.25 8.75 16.5298 8.75 16.875Z" stroke="black" stroke-width="1.25" stroke-linecap="round" stroke-linejoin="round"/>
<path d="M15.8334 16.875C15.8334 17.2202 15.5535 17.5 15.2084 17.5C14.8632 17.5 14.5834 17.2202 14.5834 16.875C14.5834 16.5298 14.8632 16.25 15.2084 16.25C15.5535 16.25 15.8334 16.5298 15.8334 16.875Z" stroke="black" stroke-width="1.25" stroke-linecap="round" stroke-linejoin="round"/>
<path d="M1.66663 2.5H1.83883C2.94266 2.5 3.49458 2.5 3.85454 2.83518C4.21451 3.17034 4.25383 3.72086 4.33248 4.82188L4.54192 7.75413C4.66029 9.41133 4.71948 10.2399 4.97059 10.9134C5.52105 12.3898 6.7352 13.5203 8.24703 13.9642C8.93671 14.1667 9.77221 14.1667 11.443 14.1667C13.1977 14.1667 14.075 14.1667 14.7847 13.9513C16.3827 13.4666 17.6332 12.2161 18.118 10.6181C18.3333 9.90833 18.3333 9.03608 18.3333 7.29167C18.3333 6.71018 18.3333 6.41944 18.2615 6.18286C18.1 5.65019 17.6831 5.23335 17.1505 5.07177C16.9139 5 16.6231 5 16.0416 5H4.58329" stroke="black" stroke-width="1.25" stroke-linecap="round" stroke-linejoin="round"/>
<path opacity="0.4" d="M13.3333 8.33334V10.8333M9.16663 8.33334V10.8333" stroke="black" stroke-width="1.25" stroke-linecap="round" stroke-linejoin="round"/>
</svg>
