<svg width="16" height="16" viewBox="0 0 16 16" fill="none" xmlns="http://www.w3.org/2000/svg">
<path d="M7 13.5C7 13.7761 6.77613 14 6.5 14C6.22386 14 6 13.7761 6 13.5C6 13.2239 6.22386 13 6.5 13C6.77613 13 7 13.2239 7 13.5Z" stroke="black" stroke-linecap="round" stroke-linejoin="round"/>
<path d="M12.6666 13.5C12.6666 13.7761 12.4428 14 12.1666 14C11.8905 14 11.6666 13.7761 11.6666 13.5C11.6666 13.2239 11.8905 13 12.1666 13C12.4428 13 12.6666 13.2239 12.6666 13.5Z" stroke="black" stroke-linecap="round" stroke-linejoin="round"/>
<path d="M1.33337 2H1.47113C2.3542 2 2.79573 2 3.08371 2.26814C3.37168 2.53627 3.40313 2.97669 3.46605 3.85751L3.63361 6.20331C3.72831 7.52907 3.77565 8.19193 3.97655 8.73073C4.41691 9.9118 5.38823 10.8163 6.59769 11.1713C7.14944 11.3333 7.81784 11.3333 9.15451 11.3333C10.5582 11.3333 11.26 11.3333 11.8278 11.1611C13.1062 10.7733 14.1066 9.77287 14.4944 8.49447C14.6667 7.92667 14.6667 7.22887 14.6667 5.83333C14.6667 5.36815 14.6667 5.13555 14.6093 4.94629C14.48 4.52015 14.1466 4.18668 13.7204 4.05741C13.5312 4 13.2986 4 12.8334 4H3.66671" stroke="black" stroke-linecap="round" stroke-linejoin="round"/>
<path opacity="0.4" d="M10.6667 6.66666V8.66666M7.33337 6.66666V8.66666" stroke="black" stroke-linecap="round" stroke-linejoin="round"/>
</svg>
