<svg width="28" height="28" viewBox="0 0 28 28" fill="none" xmlns="http://www.w3.org/2000/svg">
<path d="M9.625 23.625C9.625 22.6585 10.4085 21.875 11.375 21.875C12.3415 21.875 13.1251 22.6585 13.1251 23.625C13.1251 24.5915 12.3415 25.375 11.375 25.375C10.4085 25.375 9.625 24.5915 9.625 23.625Z" fill="black"/>
<path d="M19.5416 23.625C19.5416 22.6585 20.325 21.875 21.2916 21.875C22.2581 21.875 23.0416 22.6585 23.0416 23.625C23.0416 24.5915 22.2581 25.375 21.2916 25.375C20.325 25.375 19.5416 24.5915 19.5416 23.625Z" fill="black"/>
<path opacity="0.4" d="M4.81812 2.69335C4.5471 2.658 4.24439 2.64124 3.91692 2.63298L2.86647 2.625H2.62492C1.98059 2.625 1.45825 3.14734 1.45825 3.79167C1.45825 4.43599 1.98059 4.95833 2.62492 4.95833H2.86647L3.85881 4.96517C4.12643 4.97156 4.33799 4.98408 4.5162 5.00732C4.83925 5.0495 4.8884 5.10985 4.89332 5.11442C4.89838 5.11909 4.96164 5.16383 5.02662 5.48242C5.09839 5.8345 5.13566 6.32305 5.19296 7.12532L5.4869 11.2303C5.62588 13.1649 5.76577 14.5847 6.13859 15.5848C7.00552 17.9096 8.91793 19.6901 11.2986 20.3894C12.4151 20.7171 13.7417 20.7083 16.0199 20.7083C18.4118 20.7083 19.803 20.7173 20.952 20.3688C23.4689 19.6054 25.4386 17.6357 26.202 15.1188C26.5505 13.9698 26.5416 12.5866 26.5416 10.2083C26.5416 9.45817 26.5502 8.88912 26.4026 8.40251C26.0915 7.37724 25.2893 6.57387 24.2641 6.26285C23.7776 6.11543 23.2081 6.125 22.4583 6.125H7.45565C7.42047 5.71597 7.37957 5.34183 7.31324 5.01643C7.19727 4.44766 6.9817 3.87122 6.48267 3.40657C5.98373 2.94222 5.39357 2.76848 4.81812 2.69335Z" fill="black"/>
<path d="M11.9584 15.1667V11.6667C11.9584 11.1834 12.35 10.7917 12.8334 10.7917C13.3166 10.7917 13.7084 11.1834 13.7084 11.6667V15.1667C13.7084 15.6499 13.3166 16.0417 12.8334 16.0417C12.35 16.0417 11.9584 15.6499 11.9584 15.1667ZM17.7917 15.1667V11.6667C17.7917 11.1834 18.1834 10.7917 18.6667 10.7917C19.1499 10.7917 19.5417 11.1834 19.5417 11.6667V15.1667C19.5417 15.6499 19.1499 16.0417 18.6667 16.0417C18.1834 16.0417 17.7917 15.6499 17.7917 15.1667Z" fill="black"/>
</svg>
