<svg width="20" height="20" viewBox="0 0 20 20" fill="none" xmlns="http://www.w3.org/2000/svg">
<path opacity="0.4" d="M18.7842 8.87754C19.0455 8.54679 19.0085 8.07601 18.7117 7.78915L16.25 5.84619V3.32346C16.25 2.73826 16.25 2.44567 16.1096 2.23547C16.0487 2.14448 15.9707 2.06636 15.8797 2.00557C15.6694 1.86512 15.3768 1.86512 14.7917 1.86512C14.2065 1.86512 13.9139 1.86512 13.7037 2.00557C13.6127 2.06636 13.5346 2.14448 13.4737 2.23547C13.3333 2.44567 13.3333 2.73826 13.3333 3.32345V3.5442L11.2321 1.88577C10.8813 1.60918 10.4478 1.45837 10.001 1.45837C9.61008 1.45837 9.22908 1.57332 8.90508 1.78727L8.76983 1.88577L1.35222 7.73434C0.999316 8.01276 0.939149 8.52496 1.21782 8.87754C1.49653 9.23004 2.00927 9.29012 2.36223 9.01179L2.6716 8.76712V12.8937C2.67158 14.0001 2.67157 14.912 2.76862 15.6333C2.87022 16.3881 3.09162 17.0546 3.62595 17.5884L3.72774 17.6853C4.24404 18.1496 4.8749 18.3497 5.58315 18.4448C6.30522 18.5417 7.21809 18.5417 8.3257 18.5417H11.6762C12.7838 18.5417 13.6967 18.5417 14.4188 18.4448C15.1744 18.3433 15.8417 18.1221 16.376 17.5884L16.473 17.4867C16.9378 16.971 17.1381 16.3408 17.2333 15.6333C17.3304 14.912 17.3303 14.0001 17.3303 12.8937V8.76712L17.7081 9.05946C18.0562 9.28096 18.5228 9.20804 18.7842 8.87754Z" fill="black"/>
<path d="M12.059 12.2103C12.4168 11.9858 12.8934 12.0643 13.1585 12.4048C13.4236 12.7454 13.3827 13.2271 13.0771 13.5189L13.0128 13.5742C12.1976 14.2088 11.1415 14.5833 10.0009 14.5833C8.9315 14.5833 7.93646 14.2539 7.14447 13.6897L6.98904 13.5742L6.92475 13.5189C6.61906 13.2271 6.57824 12.7454 6.84336 12.4048C7.1084 12.0643 7.58501 11.9858 7.94281 12.2103L8.0128 12.259L8.21462 12.4031C8.70475 12.7217 9.32141 12.9166 10.0009 12.9166C10.7774 12.9166 11.4717 12.6618 11.989 12.259L12.059 12.2103Z" fill="black"/>
</svg>
