<svg width="16" height="16" viewBox="0 0 16 16" fill="none" xmlns="http://www.w3.org/2000/svg">
<path opacity="0.4" d="M15.0273 7.10196C15.2364 6.83736 15.2068 6.46073 14.9694 6.23125L13 4.67688V2.65869C13 2.19053 13 1.95646 12.8877 1.78831C12.839 1.71551 12.7765 1.65301 12.7037 1.60438C12.5355 1.49203 12.3015 1.49203 11.8333 1.49203C11.3652 1.49203 11.1311 1.49203 10.9629 1.60438C10.8901 1.65301 10.8277 1.71551 10.779 1.78831C10.6667 1.95646 10.6667 2.19053 10.6667 2.65869V2.83529L8.98567 1.50855C8.70507 1.28727 8.35827 1.16663 8.0008 1.16663C7.68807 1.16663 7.38327 1.25858 7.12407 1.42974L7.01587 1.50855L1.08178 6.1874C0.799457 6.41013 0.751324 6.81989 0.974257 7.10196C1.19723 7.38396 1.60742 7.43203 1.88979 7.20936L2.13728 7.01363V10.3149C2.13727 11.2 2.13726 11.9296 2.2149 12.5066C2.29618 13.1104 2.4733 13.6436 2.90076 14.0706L2.9822 14.1482C3.39524 14.5196 3.89992 14.6797 4.46652 14.7558C5.04418 14.8333 5.77448 14.8333 6.66056 14.8333H9.341C10.2271 14.8333 10.9574 14.8333 11.5351 14.7558C12.1395 14.6746 12.6733 14.4976 13.1008 14.0706L13.1784 13.9893C13.5503 13.5767 13.7105 13.0726 13.7867 12.5066C13.8643 11.9296 13.8643 11.2 13.8643 10.3149V7.01363L14.1665 7.24749C14.445 7.42469 14.8183 7.36636 15.0273 7.10196Z" fill="black"/>
<path d="M9.6472 9.76816C9.93347 9.58856 10.3147 9.65136 10.5268 9.92376C10.7389 10.1962 10.7062 10.5816 10.4617 10.815L10.4103 10.8593C9.75807 11.367 8.9132 11.6666 8.00073 11.6666C7.1452 11.6666 6.34917 11.403 5.71558 10.9517L5.59123 10.8593L5.5398 10.815C5.29525 10.5816 5.26259 10.1962 5.47469 9.92376C5.68672 9.65136 6.06801 9.58856 6.35425 9.76816L6.41024 9.80716L6.5717 9.92243C6.9638 10.1773 7.45713 10.3332 8.00073 10.3332C8.62193 10.3332 9.1774 10.1294 9.5912 9.80716L9.6472 9.76816Z" fill="black"/>
</svg>
