<svg width="32" height="32" viewBox="0 0 32 32" fill="none" xmlns="http://www.w3.org/2000/svg">
<path d="M2.66667 13.3334L14.8101 3.74647C15.1489 3.47891 15.5681 3.33337 16 3.33337C16.4319 3.33337 16.8511 3.47891 17.1899 3.74647L22 7.54389V5.33337C22 4.597 22.5969 4.00004 23.3333 4.00004H24.6667C25.4031 4.00004 26 4.59699 26 5.33337V10.7018L29.3333 13.3334" stroke="black" stroke-width="2" stroke-linecap="round" stroke-linejoin="round"/>
<path d="M26.6667 15.3334V20.6667C26.6667 24.4379 26.6667 26.3235 25.4951 27.4951C24.3235 28.6667 22.4379 28.6667 18.6667 28.6667H13.3333C9.56209 28.6667 7.67648 28.6667 6.5049 27.4951C5.33333 26.3235 5.33333 24.4379 5.33333 20.6667V15.3334" stroke="black" stroke-width="2" stroke-linecap="round" stroke-linejoin="round"/>
<path d="M20.0015 20.6666C18.9355 21.4965 17.5351 22 16.0015 22C14.4679 22 13.0675 21.4965 12.0015 20.6666" stroke="black" stroke-width="2" stroke-linecap="round" stroke-linejoin="round"/>
</svg>
