<svg width="16" height="16" viewBox="0 0 16 16" fill="none" xmlns="http://www.w3.org/2000/svg">
<path d="M8.001 1.16663C8.35826 1.16667 8.70486 1.28732 8.98533 1.50843L10.667 2.83525V2.65881C10.667 2.19073 10.6667 1.95651 10.779 1.78837C10.8276 1.71558 10.8904 1.65277 10.9632 1.60413C11.1313 1.49197 11.3658 1.49215 11.8337 1.49215C12.3013 1.49215 12.5353 1.492 12.7035 1.60413C12.7763 1.65277 12.8391 1.71558 12.8877 1.78837C13 1.95651 13.0003 2.19071 13.0003 2.65881V4.67704L14.9697 6.23108C15.2071 6.46057 15.2361 6.83763 15.027 7.10216C14.8179 7.36636 14.4447 7.42456 14.1663 7.24736L13.8643 7.01363V10.3151C13.8643 11.2 13.8644 11.9295 13.7868 12.5065C13.7106 13.0724 13.5505 13.577 13.1787 13.9896L13.1006 14.0709C12.6732 14.4978 12.1392 14.6746 11.5348 14.7558C10.9572 14.8334 10.2268 14.8333 9.3408 14.8333H6.66048C5.77443 14.8333 5.0441 14.8334 4.46646 14.7558C3.89991 14.6797 3.3951 14.5198 2.98209 14.1484L2.90071 14.0709C2.47326 13.644 2.29643 13.1103 2.21516 12.5065C2.13753 11.9295 2.13702 11.2001 2.13704 10.3151V7.01363L1.88964 7.20963C1.60732 7.43203 1.19722 7.38396 0.974277 7.10216C0.75137 6.82016 0.79945 6.41021 1.0817 6.18746L7.01593 1.50843L7.124 1.42965C7.38326 1.25849 7.68826 1.16663 8.001 1.16663ZM10.527 9.92376C10.315 9.65149 9.93366 9.58876 9.64746 9.76816L9.59146 9.80723C9.17766 10.1294 8.62206 10.3332 8.001 10.3333C7.45746 10.3333 6.964 10.1773 6.57194 9.92249L6.41048 9.80723L6.35448 9.76816C6.06827 9.58863 5.68697 9.65149 5.47493 9.92376C5.26282 10.1963 5.29548 10.5816 5.54003 10.8151L5.59146 10.8594L5.71582 10.9518C6.34937 11.403 7.14546 11.6666 8.001 11.6666C8.91333 11.6666 9.75833 11.367 10.4105 10.8594L10.4619 10.8151C10.7063 10.5817 10.7389 10.1962 10.527 9.92376Z" fill="black"/>
</svg>
