<svg width="32" height="32" viewBox="0 0 32 32" fill="none" xmlns="http://www.w3.org/2000/svg">
<path d="M16.002 2.33337C16.7165 2.33345 17.4097 2.57476 17.9707 3.01697L21.334 5.67061V5.31775C21.334 4.38157 21.3333 3.91315 21.558 3.57687C21.6552 3.43128 21.7808 3.30565 21.9264 3.20837C22.2627 2.98405 22.7316 2.98441 23.6673 2.98441C24.6027 2.98441 25.0707 2.98412 25.4069 3.20837C25.5525 3.30565 25.6781 3.43128 25.7753 3.57687C26 3.91315 26.0007 4.38155 26.0007 5.31775V9.3542L29.9395 12.4623C30.4141 12.9213 30.4721 13.6754 30.054 14.2044C29.6359 14.7328 28.8895 14.8492 28.3327 14.4948L27.7285 14.0274V20.6303C27.7285 22.4002 27.7288 23.8591 27.5736 25.0131C27.4212 26.145 27.1011 27.154 26.3575 27.9792L26.2012 28.1419C25.3464 28.9956 24.2784 29.3494 23.0696 29.5118C21.9144 29.6668 20.4536 29.6667 18.6816 29.6667H13.321C11.5489 29.6667 10.0882 29.6668 8.93293 29.5118C7.79982 29.3595 6.79021 29.0396 5.96418 28.297L5.80142 28.1419C4.94651 27.288 4.59286 26.2207 4.43033 25.0131C4.27506 23.8591 4.27405 22.4003 4.27407 20.6303V14.0274L3.77929 14.4194C3.21465 14.8642 2.39445 14.768 1.94855 14.2044C1.50274 13.6404 1.5989 12.8205 2.16339 12.375L14.0319 3.01697L14.248 2.85941C14.7665 2.51711 15.3765 2.33337 16.002 2.33337ZM21.054 19.8476C20.63 19.3031 19.8673 19.1776 19.2949 19.5364L19.1829 19.6146C18.3553 20.2588 17.2441 20.6666 16.002 20.6667C14.9149 20.6667 13.928 20.3547 13.1439 19.8451L12.821 19.6146L12.709 19.5364C12.1365 19.1774 11.3739 19.3031 10.9499 19.8476C10.5256 20.3927 10.591 21.1634 11.0801 21.6303L11.1829 21.7188L11.4316 21.9036C12.6987 22.8062 14.2909 23.3334 16.002 23.3334C17.8267 23.3332 19.5167 22.734 20.8209 21.7188L20.9239 21.6303C21.4127 21.1635 21.4779 20.3926 21.054 19.8476Z" fill="black"/>
</svg>
