<svg width="20" height="20" viewBox="0 0 20 20" fill="none" xmlns="http://www.w3.org/2000/svg">
<path d="M1.66666 8.33331L9.25633 2.3415C9.46808 2.17427 9.73008 2.08331 10 2.08331C10.2699 2.08331 10.5319 2.17427 10.7437 2.3415L13.75 4.71489V3.33331C13.75 2.87308 14.1231 2.49998 14.5833 2.49998H15.4167C15.8769 2.49998 16.25 2.87307 16.25 3.33331V6.68858L18.3333 8.33331" stroke="black" stroke-width="1.25" stroke-linecap="round" stroke-linejoin="round"/>
<path d="M16.6667 9.58337V12.9167C16.6667 15.2737 16.6667 16.4522 15.9344 17.1845C15.2022 17.9167 14.0237 17.9167 11.6667 17.9167H8.33334C5.97631 17.9167 4.7978 17.9167 4.06557 17.1845C3.33334 16.4522 3.33334 15.2737 3.33334 12.9167V9.58337" stroke="black" stroke-width="1.25" stroke-linecap="round" stroke-linejoin="round"/>
<path opacity="0.4" d="M12.5009 12.9166C11.8347 13.4353 10.9594 13.75 10.0009 13.75C9.04242 13.75 8.16718 13.4353 7.50092 12.9166" stroke="black" stroke-width="1.25" stroke-linecap="round" stroke-linejoin="round"/>
</svg>
