<svg width="28" height="28" viewBox="0 0 28 28" fill="none" xmlns="http://www.w3.org/2000/svg">
<path d="M2.33333 11.6667L12.9589 3.27814C13.2553 3.04403 13.6221 2.91669 14 2.91669C14.3779 2.91669 14.7447 3.04403 15.0411 3.27814L19.25 6.60089V4.66669C19.25 4.02236 19.7723 3.50002 20.4167 3.50002H21.5833C22.2277 3.50002 22.75 4.02235 22.75 4.66669V9.36406L25.6667 11.6667" stroke="black" stroke-width="1.75" stroke-linecap="round" stroke-linejoin="round"/>
<path d="M23.3333 13.4166V18.0833C23.3333 21.3831 23.3333 23.033 22.3082 24.0581C21.283 25.0833 19.6331 25.0833 16.3333 25.0833H11.6667C8.36684 25.0833 6.71693 25.0833 5.6918 24.0581C4.66667 23.033 4.66667 21.3831 4.66667 18.0833V13.4166" stroke="black" stroke-width="1.75" stroke-linecap="round" stroke-linejoin="round"/>
<path opacity="0.4" d="M17.5013 18.0834C16.5685 18.8095 15.3432 19.25 14.0013 19.25C12.6594 19.25 11.4341 18.8095 10.5013 18.0834" stroke="black" stroke-width="1.75" stroke-linecap="round" stroke-linejoin="round"/>
</svg>
