<svg width="16" height="16" viewBox="0 0 16 16" fill="none" xmlns="http://www.w3.org/2000/svg">
<path d="M1.33334 6.66663L7.40507 1.87317C7.57447 1.73939 7.78407 1.66663 8 1.66663C8.21594 1.66663 8.42554 1.73939 8.59494 1.87317L11 3.77189V2.66663C11 2.29844 11.2985 1.99996 11.6667 1.99996H12.3333C12.7015 1.99996 13 2.29843 13 2.66663V5.35084L14.6667 6.66663" stroke="black" stroke-linecap="round" stroke-linejoin="round"/>
<path d="M13.3333 7.66663V10.3333C13.3333 12.2189 13.3333 13.1617 12.7475 13.7475C12.1617 14.3333 11.2189 14.3333 9.33333 14.3333H6.66666C4.78104 14.3333 3.83824 14.3333 3.25245 13.7475C2.66666 13.1617 2.66666 12.2189 2.66666 10.3333V7.66663" stroke="black" stroke-linecap="round" stroke-linejoin="round"/>
<path d="M10.0007 10.3334C9.46773 10.7483 8.76753 11 8.00073 11C7.23393 11 6.53375 10.7483 6.00073 10.3334" stroke="black" stroke-linecap="round" stroke-linejoin="round"/>
</svg>
