<svg width="28" height="28" viewBox="0 0 28 28" fill="none" xmlns="http://www.w3.org/2000/svg">
<path opacity="0.4" d="M26.2978 12.4285C26.6637 11.9654 26.6119 11.3063 26.1964 10.9047L22.75 8.18457V4.65274C22.75 3.83346 22.75 3.42383 22.5534 3.12957C22.4682 3.00218 22.3589 2.8928 22.2315 2.80769C21.9372 2.61108 21.5276 2.61108 20.7083 2.61108C19.8891 2.61108 19.4795 2.61108 19.1851 2.80769C19.0577 2.8928 18.9484 3.00218 18.8632 3.12957C18.6667 3.42383 18.6667 3.83346 18.6667 4.65273V4.96178L15.7249 2.63999C15.2339 2.25276 14.627 2.04163 14.0014 2.04163C13.4541 2.04163 12.9207 2.20254 12.4671 2.50207L12.2778 2.63999L1.8931 10.828C1.39904 11.2178 1.31481 11.9348 1.70494 12.4285C2.09514 12.922 2.81297 13.0061 3.30712 12.6164L3.74024 12.2739V18.0511C3.74021 19.6001 3.74019 20.8768 3.87607 21.8865C4.0183 22.9433 4.32827 23.8764 5.07633 24.6236L5.21884 24.7593C5.94166 25.4094 6.82486 25.6895 7.81641 25.8226C8.8273 25.9583 10.1053 25.9583 11.656 25.9583H16.3467C17.8974 25.9583 19.1754 25.9583 20.1864 25.8226C21.2442 25.6805 22.1783 25.3709 22.9264 24.6236L23.0622 24.4813C23.713 23.7592 23.9933 22.877 24.1267 21.8865C24.2626 20.8768 24.2625 19.6001 24.2625 18.0511V12.2739L24.7913 12.6831C25.2787 12.9932 25.932 12.8912 26.2978 12.4285Z" fill="black"/>
<path d="M16.8826 17.0943C17.3836 16.78 18.0508 16.8899 18.4219 17.3666C18.793 17.8434 18.7358 18.5179 18.3079 18.9263L18.218 19.0038C17.0766 19.8922 15.5981 20.4165 14.0013 20.4165C12.5041 20.4165 11.111 19.9553 10.0023 19.1655L9.78466 19.0038L9.69465 18.9263C9.26669 18.5179 9.20954 17.8434 9.58071 17.3666C9.95176 16.8899 10.619 16.78 11.1199 17.0943L11.2179 17.1626L11.5005 17.3643C12.1866 17.8103 13.05 18.0832 14.0013 18.0832C15.0884 18.0832 16.0604 17.7264 16.7846 17.1626L16.8826 17.0943Z" fill="black"/>
</svg>
