<svg width="28" height="28" viewBox="0 0 28 28" fill="none" xmlns="http://www.w3.org/2000/svg">
<path d="M2.33333 11.6666L12.9589 3.27808C13.2553 3.04397 13.6221 2.91663 14 2.91663C14.3779 2.91663 14.7447 3.04397 15.0411 3.27808L19.25 6.60083V4.66663C19.25 4.0223 19.7723 3.49996 20.4167 3.49996H21.5833C22.2277 3.49996 22.75 4.02229 22.75 4.66663V9.364L25.6667 11.6666" stroke="black" stroke-width="1.75" stroke-linecap="round" stroke-linejoin="round"/>
<path d="M23.3333 13.4166V18.0833C23.3333 21.3831 23.3333 23.033 22.3082 24.0581C21.283 25.0833 19.6331 25.0833 16.3333 25.0833H11.6667C8.36684 25.0833 6.71693 25.0833 5.6918 24.0581C4.66667 23.033 4.66667 21.3831 4.66667 18.0833V13.4166" stroke="black" stroke-width="1.75" stroke-linecap="round" stroke-linejoin="round"/>
<path d="M17.5013 18.0834C16.5685 18.8095 15.3432 19.25 14.0013 19.25C12.6594 19.25 11.4341 18.8095 10.5013 18.0834" stroke="black" stroke-width="1.75" stroke-linecap="round" stroke-linejoin="round"/>
</svg>
