<svg width="28" height="28" viewBox="0 0 28 28" fill="none" xmlns="http://www.w3.org/2000/svg">
<path d="M14.0018 2.04163C14.627 2.0417 15.2335 2.25284 15.7243 2.63978L18.6673 4.96171V4.65295C18.6673 3.8338 18.6667 3.42393 18.8633 3.12968C18.9483 3.00229 19.0582 2.89237 19.1856 2.80725C19.4798 2.61097 19.8902 2.61129 20.7089 2.61129C21.5273 2.61129 21.9368 2.61103 22.2311 2.80725C22.3585 2.89237 22.4684 3.00229 22.5534 3.12968C22.75 3.42393 22.7506 3.83378 22.7506 4.65295V8.18485L26.197 10.9044C26.6124 11.306 26.6631 11.9659 26.2973 12.4288C25.9314 12.8912 25.2783 12.993 24.7911 12.6829L24.2625 12.2739V18.0514C24.2625 19.6001 24.2627 20.8766 24.1269 21.8864C23.9936 22.8768 23.7134 23.7597 23.0628 24.4818L22.9261 24.6241C22.1781 25.3711 21.2436 25.6806 20.1859 25.8227C19.1751 25.9584 17.8969 25.9583 16.3464 25.9583H11.6558C10.1053 25.9583 8.82718 25.9584 7.81632 25.8227C6.82485 25.6895 5.94144 25.4096 5.21867 24.7598L5.07625 24.6241C4.32821 23.877 4.01876 22.943 3.87655 21.8864C3.74069 20.8766 3.7398 19.6002 3.73982 18.0514V12.2739L3.30689 12.6169C2.81283 13.0061 2.09515 12.922 1.70499 12.4288C1.31491 11.9353 1.39905 11.2179 1.89298 10.8281L12.2779 2.63978L12.467 2.50191C12.9207 2.20239 13.4545 2.04163 14.0018 2.04163ZM18.4223 17.3666C18.0513 16.8901 17.3839 16.7804 16.8831 17.0943L16.7851 17.1627C16.0609 17.7264 15.0886 18.0832 14.0018 18.0833C13.0506 18.0833 12.187 17.8103 11.5009 17.3644L11.2183 17.1627L11.1204 17.0943C10.6195 16.7801 9.95221 16.8901 9.58114 17.3666C9.20995 17.8435 9.26711 18.5179 9.69506 18.9264L9.78507 19.0039L10.0027 19.1656C11.1114 19.9553 12.5046 20.4166 14.0018 20.4166C15.5983 20.4165 17.0771 19.8922 18.2183 19.0039L18.3084 18.9264C18.7361 18.518 18.7931 17.8434 18.4223 17.3666Z" fill="black"/>
</svg>
