<svg width="32" height="32" viewBox="0 0 32 32" fill="none" xmlns="http://www.w3.org/2000/svg">
<path opacity="0.4" d="M30.0547 14.204C30.4728 13.6748 30.4136 12.9216 29.9388 12.4626L26 9.35388V5.31751C26 4.38119 26 3.91304 25.7753 3.57673C25.678 3.43115 25.5531 3.30615 25.4075 3.20888C25.0711 2.98417 24.6029 2.98417 23.6667 2.98417C22.7304 2.98417 22.2623 2.98417 21.9259 3.20888C21.7803 3.30615 21.6553 3.43115 21.558 3.57673C21.3333 3.91304 21.3333 4.38119 21.3333 5.31749V5.67069L17.9713 3.01721C17.4101 2.57467 16.7165 2.33337 16.0016 2.33337C15.3761 2.33337 14.7665 2.51728 14.2481 2.8596L14.0317 3.01721L2.16355 12.3749C1.59891 12.8204 1.50265 13.6399 1.94851 14.204C2.39446 14.768 3.21483 14.8642 3.77958 14.4188L4.27457 14.0274V20.6299C4.27454 22.4002 4.27451 23.8592 4.42981 25.0132C4.59235 26.221 4.94661 27.2874 5.80153 28.1414L5.96439 28.2964C6.79047 29.0394 7.79985 29.3595 8.93305 29.5116C10.0884 29.6667 11.549 29.6667 13.3211 29.6667H18.682C20.4541 29.6667 21.9148 29.6667 23.0701 29.5116C24.2791 29.3492 25.3467 28.9954 26.2016 28.1414L26.3568 27.9787C27.1005 27.1535 27.4209 26.1452 27.5733 25.0132C27.7287 23.8592 27.7285 22.4002 27.7285 20.6299V14.0274L28.3329 14.4951C28.89 14.8495 29.6365 14.7328 30.0547 14.204Z" fill="black"/>
<path d="M19.2944 19.5364C19.8669 19.1772 20.6295 19.3028 21.0536 19.8476C21.4777 20.3926 21.4124 21.1634 20.9233 21.6302L20.8205 21.7187C19.5161 22.734 17.8264 23.3332 16.0015 23.3332C14.2904 23.3332 12.6983 22.8062 11.4312 21.9035L11.1825 21.7187L11.0796 21.6302C10.5905 21.1634 10.5252 20.3926 10.9494 19.8476C11.3734 19.3028 12.136 19.1772 12.7085 19.5364L12.8205 19.6144L13.1434 19.845C13.9276 20.3547 14.9143 20.6666 16.0015 20.6666C17.2439 20.6666 18.3548 20.2588 19.1824 19.6144L19.2944 19.5364Z" fill="black"/>
</svg>
