<svg width="20" height="20" viewBox="0 0 20 20" fill="none" xmlns="http://www.w3.org/2000/svg">
<path d="M10.0013 1.45837C10.4478 1.45842 10.8811 1.60924 11.2317 1.88562L13.3338 3.54415V3.32361C13.3338 2.7385 13.3333 2.44573 13.4738 2.23556C13.5345 2.14457 13.613 2.06605 13.704 2.00525C13.9142 1.86505 14.2073 1.86527 14.7921 1.86527C15.3767 1.86527 15.6692 1.86509 15.8793 2.00525C15.9703 2.06605 16.0488 2.14457 16.1096 2.23556C16.25 2.44573 16.2504 2.73848 16.2504 3.32361V5.84639L18.7122 7.78894C19.0088 8.0758 19.0451 8.54712 18.7838 8.87779C18.5224 9.20804 18.0559 9.28079 17.7079 9.05929L17.3303 8.76712V12.894C17.3303 14.0001 17.3305 14.912 17.2335 15.6332C17.1383 16.3406 16.9382 16.9713 16.4734 17.487L16.3758 17.5887C15.8415 18.1223 15.174 18.3434 14.4185 18.4449C13.6965 18.5418 12.7835 18.5417 11.676 18.5417H8.3256C7.21804 18.5417 6.30513 18.5418 5.58309 18.4449C4.87489 18.3497 4.24389 18.1498 3.72762 17.6856L3.62589 17.5887C3.09158 17.055 2.87054 16.388 2.76896 15.6332C2.67192 14.912 2.67129 14.0002 2.6713 12.894V8.76712L2.36206 9.01212C2.00916 9.29012 1.49654 9.23004 1.21785 8.87779C0.939219 8.52529 0.999319 8.01285 1.35213 7.73442L8.76992 1.88562L8.905 1.78715C9.22908 1.57321 9.61034 1.45837 10.0013 1.45837ZM13.1588 12.4048C12.8938 12.0645 12.4171 11.986 12.0593 12.2103L11.9893 12.2591C11.4721 12.6618 10.7776 12.9166 10.0013 12.9167C9.32184 12.9167 8.705 12.7217 8.21493 12.4032L8.0131 12.2591L7.94311 12.2103C7.58534 11.9859 7.10872 12.0645 6.84367 12.4048C6.57854 12.7455 6.61936 13.2271 6.92504 13.519L6.98934 13.5743L7.14478 13.6898C7.93672 14.2539 8.93184 14.5834 10.0013 14.5834C11.1417 14.5833 12.1979 14.2088 13.0131 13.5743L13.0774 13.519C13.3829 13.2272 13.4237 12.7454 13.1588 12.4048Z" fill="black"/>
</svg>
