<svg width="28" height="28" viewBox="0 0 28 28" fill="none" xmlns="http://www.w3.org/2000/svg">
<path d="M14 7.87504C15.772 7.87504 17.2084 6.43862 17.2084 4.66671C17.2084 2.8948 15.772 1.45837 14 1.45837C12.2281 1.45837 10.7917 2.8948 10.7917 4.66671C10.7917 6.43862 12.2281 7.87504 14 7.87504ZM14 21.5834C17.0607 21.5834 19.5417 19.1023 19.5417 16.0417C19.5417 12.9811 17.0607 10.5 14 10.5C10.9395 10.5 8.45837 12.9811 8.45837 16.0417C8.45837 19.1023 10.9395 21.5834 14 21.5834ZM4.66671 26.5417C6.43862 26.5417 7.87504 25.1053 7.87504 23.3334C7.87504 21.5614 6.43862 20.125 4.66671 20.125C2.8948 20.125 1.45837 21.5614 1.45837 23.3334C1.45837 25.1053 2.8948 26.5417 4.66671 26.5417ZM23.3334 26.5417C25.1053 26.5417 26.5417 25.1053 26.5417 23.3334C26.5417 21.5614 25.1053 20.125 23.3334 20.125C21.5614 20.125 20.125 21.5614 20.125 23.3334C20.125 25.1053 21.5614 26.5417 23.3334 26.5417Z" fill="black"/>
<path opacity="0.4" d="M15.1678 7.65625C14.8063 7.79743 14.4126 7.875 14.0012 7.875C13.5897 7.87498 13.1959 7.79742 12.8345 7.65625V10.623C13.2105 10.5425 13.601 10.5 14.0012 10.5C14.4012 10.5 14.7917 10.5425 15.1678 10.623V7.65625ZM10.3485 20.2094C9.76135 19.6943 9.28417 19.0569 8.95622 18.3375L6.0293 20.427C6.7623 20.7709 7.34425 21.3843 7.64714 22.1394L10.3485 20.2094ZM20.3562 22.1394C20.6592 21.3844 21.2401 20.7709 21.973 20.427L19.0472 18.3375C18.7192 19.0572 18.2411 19.6942 17.6538 20.2094L20.3562 22.1394Z" fill="black"/>
</svg>
