<svg width="16" height="16" viewBox="0 0 16 16" fill="none" xmlns="http://www.w3.org/2000/svg">
<path d="M7.99998 11.3333C9.47274 11.3333 10.6666 10.1394 10.6666 8.66667C10.6666 7.19391 9.47274 6 7.99998 6C6.52722 6 5.33331 7.19391 5.33331 8.66667C5.33331 10.1394 6.52722 11.3333 7.99998 11.3333Z" stroke="black" stroke-linecap="round" stroke-linejoin="round"/>
<path d="M8.00002 4.00004C8.7364 4.00004 9.33335 3.40309 9.33335 2.66671C9.33335 1.93033 8.7364 1.33337 8.00002 1.33337C7.26364 1.33337 6.66669 1.93033 6.66669 2.66671C6.66669 3.40309 7.26364 4.00004 8.00002 4.00004Z" stroke="black" stroke-linecap="round" stroke-linejoin="round"/>
<path d="M2.66665 14.6667C3.40303 14.6667 3.99998 14.0697 3.99998 13.3333C3.99998 12.597 3.40303 12 2.66665 12C1.93027 12 1.33331 12.597 1.33331 13.3333C1.33331 14.0697 1.93027 14.6667 2.66665 14.6667Z" stroke="black" stroke-linecap="round" stroke-linejoin="round"/>
<path d="M13.3333 14.6667C14.0697 14.6667 14.6667 14.0697 14.6667 13.3333C14.6667 12.597 14.0697 12 13.3333 12C12.597 12 12 12.597 12 13.3333C12 14.0697 12.597 14.6667 13.3333 14.6667Z" stroke="black" stroke-linecap="round" stroke-linejoin="round"/>
<path opacity="0.4" d="M8.00002 6V4M12.3334 12.3333L10 10.6667M3.66669 12.3333L6.00002 10.6667" stroke="black" stroke-linecap="round" stroke-linejoin="round"/>
</svg>
