<svg width="16" height="16" viewBox="0 0 16 16" fill="none" xmlns="http://www.w3.org/2000/svg">
<path d="M4.83331 8.66667C4.83331 6.91773 6.25108 5.5 7.99998 5.5C9.74891 5.5 11.1666 6.91773 11.1666 8.66667C11.1666 10.4156 9.74891 11.8333 7.99998 11.8333C6.25108 11.8333 4.83331 10.4156 4.83331 8.66667Z" fill="black"/>
<path fill-rule="evenodd" clip-rule="evenodd" d="M6.16669 2.66665C6.16669 1.65413 6.98749 0.833313 8.00002 0.833313C9.01255 0.833313 9.83335 1.65413 9.83335 2.66665C9.83335 3.67917 9.01255 4.49998 8.00002 4.49998C6.98749 4.49998 6.16669 3.67917 6.16669 2.66665Z" fill="black"/>
<path fill-rule="evenodd" clip-rule="evenodd" d="M0.833313 13.3333C0.833313 12.3208 1.65413 11.5 2.66665 11.5C3.67917 11.5 4.49998 12.3208 4.49998 13.3333C4.49998 14.3459 3.67917 15.1667 2.66665 15.1667C1.65413 15.1667 0.833313 14.3459 0.833313 13.3333Z" fill="black"/>
<path fill-rule="evenodd" clip-rule="evenodd" d="M11.5 13.3333C11.5 12.3208 12.3208 11.5 13.3333 11.5C14.3459 11.5 15.1667 12.3208 15.1667 13.3333C15.1667 14.3459 14.3459 15.1667 13.3333 15.1667C12.3208 15.1667 11.5 14.3459 11.5 13.3333Z" fill="black"/>
<path fill-rule="evenodd" clip-rule="evenodd" d="M8.66611 4V6H7.33278V4H8.66611ZM6.38695 11.2091L4.05361 12.8758L3.27863 11.7909L5.61196 10.1242L6.38695 11.2091ZM10.3869 10.1242L12.7202 11.7909L11.9453 12.8758L9.61198 11.2091L10.3869 10.1242Z" fill="black"/>
</svg>
