<svg width="28" height="28" viewBox="0 0 28 28" fill="none" xmlns="http://www.w3.org/2000/svg">
<path d="M14 19.8333C16.5774 19.8333 18.6667 17.744 18.6667 15.1667C18.6667 12.5893 16.5774 10.5 14 10.5C11.4227 10.5 9.33337 12.5893 9.33337 15.1667C9.33337 17.744 11.4227 19.8333 14 19.8333Z" stroke="black" stroke-width="1.75" stroke-linecap="round" stroke-linejoin="round"/>
<path d="M14 7.00004C15.2886 7.00004 16.3333 5.95537 16.3333 4.66671C16.3333 3.37804 15.2886 2.33337 14 2.33337C12.7113 2.33337 11.6666 3.37804 11.6666 4.66671C11.6666 5.95537 12.7113 7.00004 14 7.00004Z" stroke="black" stroke-width="1.75" stroke-linecap="round" stroke-linejoin="round"/>
<path d="M4.66671 25.6667C5.95537 25.6667 7.00004 24.622 7.00004 23.3333C7.00004 22.0447 5.95537 21 4.66671 21C3.37804 21 2.33337 22.0447 2.33337 23.3333C2.33337 24.622 3.37804 25.6667 4.66671 25.6667Z" stroke="black" stroke-width="1.75" stroke-linecap="round" stroke-linejoin="round"/>
<path d="M23.3333 25.6667C24.622 25.6667 25.6667 24.622 25.6667 23.3333C25.6667 22.0447 24.622 21 23.3333 21C22.0447 21 21 22.0447 21 23.3333C21 24.622 22.0447 25.6667 23.3333 25.6667Z" stroke="black" stroke-width="1.75" stroke-linecap="round" stroke-linejoin="round"/>
<path opacity="0.4" d="M14 10.5V7M21.5833 21.5833L17.5 18.6667M6.41663 21.5833L10.5 18.6667" stroke="black" stroke-width="1.75" stroke-linecap="round" stroke-linejoin="round"/>
</svg>
