<svg width="20" height="20" viewBox="0 0 20 20" fill="none" xmlns="http://www.w3.org/2000/svg">
<path d="M10 14.1667C11.841 14.1667 13.3334 12.6743 13.3334 10.8333C13.3334 8.99238 11.841 7.5 10 7.5C8.15907 7.5 6.66669 8.99238 6.66669 10.8333C6.66669 12.6743 8.15907 14.1667 10 14.1667Z" stroke="black" stroke-width="1.25" stroke-linejoin="round"/>
<path d="M9.99998 4.99996C10.9205 4.99996 11.6666 4.25377 11.6666 3.33329C11.6666 2.41282 10.9205 1.66663 9.99998 1.66663C9.07951 1.66663 8.33331 2.41282 8.33331 3.33329C8.33331 4.25377 9.07951 4.99996 9.99998 4.99996Z" stroke="black" stroke-width="1.25" stroke-linejoin="round"/>
<path d="M3.33335 18.3333C4.25383 18.3333 5.00002 17.5871 5.00002 16.6667C5.00002 15.7462 4.25383 15 3.33335 15C2.41288 15 1.66669 15.7462 1.66669 16.6667C1.66669 17.5871 2.41288 18.3333 3.33335 18.3333Z" stroke="black" stroke-width="1.25" stroke-linejoin="round"/>
<path d="M16.6667 18.3333C17.5871 18.3333 18.3333 17.5871 18.3333 16.6667C18.3333 15.7462 17.5871 15 16.6667 15C15.7462 15 15 15.7462 15 16.6667C15 17.5871 15.7462 18.3333 16.6667 18.3333Z" stroke="black" stroke-width="1.25" stroke-linejoin="round"/>
<path d="M9.99998 7.5V5M15.4166 15.4167L12.5 13.3333M4.58331 15.4167L7.49998 13.3333" stroke="black" stroke-width="1.25" stroke-linejoin="round"/>
</svg>
