<svg width="16" height="16" viewBox="0 0 16 16" fill="none" xmlns="http://www.w3.org/2000/svg">
<path d="M7.99998 4.50004C9.01251 4.50004 9.83331 3.67923 9.83331 2.66671C9.83331 1.65419 9.01251 0.833374 7.99998 0.833374C6.98745 0.833374 6.16665 1.65419 6.16665 2.66671C6.16665 3.67923 6.98745 4.50004 7.99998 4.50004ZM7.99998 12.3334C9.74891 12.3334 11.1666 10.9156 11.1666 9.16671C11.1666 7.41777 9.74891 6.00004 7.99998 6.00004C6.25108 6.00004 4.83331 7.41777 4.83331 9.16671C4.83331 10.9156 6.25108 12.3334 7.99998 12.3334ZM2.66665 15.1667C3.67917 15.1667 4.49998 14.3459 4.49998 13.3334C4.49998 12.3208 3.67917 11.5 2.66665 11.5C1.65413 11.5 0.833313 12.3208 0.833313 13.3334C0.833313 14.3459 1.65413 15.1667 2.66665 15.1667ZM13.3333 15.1667C14.3458 15.1667 15.1666 14.3459 15.1666 13.3334C15.1666 12.3208 14.3458 11.5 13.3333 11.5C12.3208 11.5 11.5 12.3208 11.5 13.3334C11.5 14.3459 12.3208 15.1667 13.3333 15.1667Z" fill="black"/>
<path opacity="0.4" d="M8.66733 4.375C8.46073 4.45567 8.2358 4.5 8.00067 4.5C7.76553 4.49999 7.54053 4.45567 7.334 4.375V6.07031C7.54887 6.02427 7.772 6.00001 8.00067 6C8.22927 6 8.4524 6.02428 8.66733 6.07031V4.375ZM5.91341 11.5482C5.57791 11.2539 5.30524 10.8897 5.11784 10.4785L3.44531 11.6725C3.86417 11.8691 4.19671 12.2196 4.36979 12.6511L5.91341 11.5482ZM11.6321 12.6511C11.8053 12.2197 12.1372 11.8691 12.556 11.6725L10.8841 10.4785C10.6967 10.8898 10.4235 11.2538 10.0879 11.5482L11.6321 12.6511Z" fill="black"/>
</svg>
