<svg width="20" height="20" viewBox="0 0 20 20" fill="none" xmlns="http://www.w3.org/2000/svg">
<path d="M10 5.62496C11.2657 5.62496 12.2917 4.59894 12.2917 3.33329C12.2917 2.06764 11.2657 1.04163 10 1.04163C8.73435 1.04163 7.70835 2.06764 7.70835 3.33329C7.70835 4.59894 8.73435 5.62496 10 5.62496ZM10 15.4166C12.1862 15.4166 13.9584 13.6445 13.9584 11.4583C13.9584 9.27213 12.1862 7.49996 10 7.49996C7.8139 7.49996 6.04169 9.27213 6.04169 11.4583C6.04169 13.6445 7.8139 15.4166 10 15.4166ZM3.33335 18.9583C4.599 18.9583 5.62502 17.9323 5.62502 16.6666C5.62502 15.401 4.599 14.375 3.33335 14.375C2.0677 14.375 1.04169 15.401 1.04169 16.6666C1.04169 17.9323 2.0677 18.9583 3.33335 18.9583ZM16.6667 18.9583C17.9324 18.9583 18.9584 17.9323 18.9584 16.6666C18.9584 15.401 17.9324 14.375 16.6667 14.375C15.401 14.375 14.375 15.401 14.375 16.6666C14.375 17.9323 15.401 18.9583 16.6667 18.9583Z" fill="black"/>
<path opacity="0.4" d="M10.8342 5.46875C10.5759 5.56959 10.2947 5.625 10.0008 5.625C9.70692 5.62498 9.42567 5.56958 9.1675 5.46875V7.58789C9.43608 7.53033 9.715 7.50002 10.0008 7.5C10.2866 7.5 10.5655 7.53035 10.8342 7.58789V5.46875ZM7.39177 14.4353C6.97239 14.0673 6.63155 13.6121 6.3973 13.0982L4.30664 14.5907C4.83022 14.8364 5.24589 15.2745 5.46224 15.8139L7.39177 14.4353ZM14.5402 15.8139C14.7566 15.2746 15.1715 14.8364 15.695 14.5907L13.6052 13.0982C13.3708 13.6123 13.0293 14.0673 12.6098 14.4353L14.5402 15.8139Z" fill="black"/>
</svg>
