<svg width="32" height="32" viewBox="0 0 32 32" fill="none" xmlns="http://www.w3.org/2000/svg">
<path d="M9.66663 17.3333C9.66663 13.8355 12.5022 11 16 11C19.4978 11 22.3333 13.8355 22.3333 17.3333C22.3333 20.8312 19.4978 23.6667 16 23.6667C12.5022 23.6667 9.66663 20.8312 9.66663 17.3333Z" fill="black"/>
<path fill-rule="evenodd" clip-rule="evenodd" d="M12.3334 5.33335C12.3334 3.30831 13.975 1.66669 16 1.66669C18.0251 1.66669 19.6667 3.30831 19.6667 5.33335C19.6667 7.35839 18.0251 9.00002 16 9.00002C13.975 9.00002 12.3334 7.35839 12.3334 5.33335Z" fill="black"/>
<path fill-rule="evenodd" clip-rule="evenodd" d="M1.66663 26.6667C1.66663 24.6416 3.30825 23 5.33329 23C7.35833 23 8.99996 24.6416 8.99996 26.6667C8.99996 28.6917 7.35833 30.3333 5.33329 30.3333C3.30825 30.3333 1.66663 28.6917 1.66663 26.6667Z" fill="black"/>
<path fill-rule="evenodd" clip-rule="evenodd" d="M23 26.6667C23 24.6416 24.6416 23 26.6667 23C28.6917 23 30.3333 24.6416 30.3333 26.6667C30.3333 28.6917 28.6917 30.3333 26.6667 30.3333C24.6416 30.3333 23 28.6917 23 26.6667Z" fill="black"/>
<path fill-rule="evenodd" clip-rule="evenodd" d="M17.3322 8V12H14.6656V8H17.3322ZM12.7739 22.4183L8.10722 25.7516L6.55725 23.5817L11.2239 20.2484L12.7739 22.4183ZM20.7738 20.2484L25.4405 23.5817L23.8906 25.7516L19.224 22.4183L20.7738 20.2484Z" fill="black"/>
</svg>
