<svg width="32" height="32" viewBox="0 0 32 32" fill="none" xmlns="http://www.w3.org/2000/svg">
<path d="M16 22.6667C18.9455 22.6667 21.3333 20.2789 21.3333 17.3333C21.3333 14.3878 18.9455 12 16 12C13.0544 12 10.6666 14.3878 10.6666 17.3333C10.6666 20.2789 13.0544 22.6667 16 22.6667Z" stroke="black" stroke-width="2" stroke-linecap="round" stroke-linejoin="round"/>
<path d="M16 7.99996C17.4728 7.99996 18.6667 6.80605 18.6667 5.33329C18.6667 3.86053 17.4728 2.66663 16 2.66663C14.5273 2.66663 13.3334 3.86053 13.3334 5.33329C13.3334 6.80605 14.5273 7.99996 16 7.99996Z" stroke="black" stroke-width="2" stroke-linecap="round" stroke-linejoin="round"/>
<path d="M5.33329 29.3333C6.80605 29.3333 7.99996 28.1394 7.99996 26.6667C7.99996 25.1939 6.80605 24 5.33329 24C3.86053 24 2.66663 25.1939 2.66663 26.6667C2.66663 28.1394 3.86053 29.3333 5.33329 29.3333Z" stroke="black" stroke-width="2" stroke-linecap="round" stroke-linejoin="round"/>
<path d="M26.6667 29.3333C28.1394 29.3333 29.3333 28.1394 29.3333 26.6667C29.3333 25.1939 28.1394 24 26.6667 24C25.1939 24 24 25.1939 24 26.6667C24 28.1394 25.1939 29.3333 26.6667 29.3333Z" stroke="black" stroke-width="2" stroke-linecap="round" stroke-linejoin="round"/>
<path opacity="0.4" d="M16 12V8M24.6667 24.6667L20 21.3333M7.33337 24.6667L12 21.3333" stroke="black" stroke-width="2" stroke-linecap="round" stroke-linejoin="round"/>
</svg>
