<svg width="28" height="28" viewBox="0 0 28 28" fill="none" xmlns="http://www.w3.org/2000/svg">
<path d="M8.45837 15.1667C8.45837 12.106 10.9395 9.625 14 9.625C17.0607 9.625 19.5417 12.106 19.5417 15.1667C19.5417 18.2273 17.0607 20.7083 14 20.7083C10.9395 20.7083 8.45837 18.2273 8.45837 15.1667Z" fill="black"/>
<path fill-rule="evenodd" clip-rule="evenodd" d="M10.7916 4.66665C10.7916 2.89474 12.228 1.45831 14 1.45831C15.7719 1.45831 17.2083 2.89474 17.2083 4.66665C17.2083 6.43856 15.7719 7.87498 14 7.87498C12.228 7.87498 10.7916 6.43856 10.7916 4.66665Z" fill="black"/>
<path fill-rule="evenodd" clip-rule="evenodd" d="M1.45837 23.3333C1.45837 21.5614 2.8948 20.125 4.66671 20.125C6.43862 20.125 7.87504 21.5614 7.87504 23.3333C7.87504 25.1053 6.43862 26.5417 4.66671 26.5417C2.8948 26.5417 1.45837 25.1053 1.45837 23.3333Z" fill="black"/>
<path fill-rule="evenodd" clip-rule="evenodd" d="M20.125 23.3333C20.125 21.5614 21.5614 20.125 23.3333 20.125C25.1053 20.125 26.5417 21.5614 26.5417 23.3333C26.5417 25.1053 25.1053 26.5417 23.3333 26.5417C21.5614 26.5417 20.125 25.1053 20.125 23.3333Z" fill="black"/>
<path fill-rule="evenodd" clip-rule="evenodd" d="M15.1658 7V10.5H12.8324V7H15.1658ZM11.1772 19.616L7.0939 22.5327L5.73767 20.634L9.821 17.7174L11.1772 19.616ZM18.1772 17.7174L22.2605 20.634L20.9044 22.5327L16.821 19.616L18.1772 17.7174Z" fill="black"/>
</svg>
