<svg width="32" height="32" viewBox="0 0 32 32" fill="none" xmlns="http://www.w3.org/2000/svg">
<path d="M16 8.99996C18.025 8.99996 19.6666 7.35833 19.6666 5.33329C19.6666 3.30825 18.025 1.66663 16 1.66663C13.9749 1.66663 12.3333 3.30825 12.3333 5.33329C12.3333 7.35833 13.9749 8.99996 16 8.99996ZM16 24.6666C19.4978 24.6666 22.3333 21.8312 22.3333 18.3333C22.3333 14.8354 19.4978 12 16 12C12.5022 12 9.66663 14.8354 9.66663 18.3333C9.66663 21.8312 12.5022 24.6666 16 24.6666ZM5.33329 30.3333C7.35833 30.3333 8.99996 28.6917 8.99996 26.6666C8.99996 24.6416 7.35833 23 5.33329 23C3.30825 23 1.66663 24.6416 1.66663 26.6666C1.66663 28.6917 3.30825 30.3333 5.33329 30.3333ZM26.6666 30.3333C28.6917 30.3333 30.3333 28.6917 30.3333 26.6666C30.3333 24.6416 28.6917 23 26.6666 23C24.6416 23 23 24.6416 23 26.6666C23 28.6917 24.6416 30.3333 26.6666 30.3333Z" fill="black"/>
<path opacity="0.4" d="M17.3347 8.75C16.9215 8.91135 16.4716 9 16.0013 9C15.5311 8.99997 15.0811 8.91133 14.668 8.75V12.1406C15.0977 12.0485 15.544 12 16.0013 12C16.4585 12 16.9048 12.0486 17.3347 12.1406V8.75ZM11.8268 23.0964C11.1558 22.5078 10.6105 21.7794 10.2357 20.9571L6.89062 23.3451C7.72835 23.7382 8.39342 24.4392 8.73958 25.3022L11.8268 23.0964ZM23.2643 25.3022C23.6105 24.4394 24.2744 23.7382 25.112 23.3451L21.7683 20.9571C21.3933 21.7796 20.8469 22.5076 20.1757 23.0964L23.2643 25.3022Z" fill="black"/>
</svg>
