<svg width="20" height="20" viewBox="0 0 20 20" fill="none" xmlns="http://www.w3.org/2000/svg">
<path d="M6.04169 10.8333C6.04169 8.64717 7.8139 6.875 10 6.875C12.1862 6.875 13.9584 8.64717 13.9584 10.8333C13.9584 13.0195 12.1862 14.7917 10 14.7917C7.8139 14.7917 6.04169 13.0195 6.04169 10.8333Z" fill="black"/>
<path fill-rule="evenodd" clip-rule="evenodd" d="M7.70831 3.33335C7.70831 2.0677 8.73431 1.04169 9.99998 1.04169C11.2656 1.04169 12.2916 2.0677 12.2916 3.33335C12.2916 4.599 11.2656 5.62502 9.99998 5.62502C8.73431 5.62502 7.70831 4.599 7.70831 3.33335Z" fill="black"/>
<path fill-rule="evenodd" clip-rule="evenodd" d="M1.04169 16.6667C1.04169 15.401 2.0677 14.375 3.33335 14.375C4.599 14.375 5.62502 15.401 5.62502 16.6667C5.62502 17.9323 4.599 18.9583 3.33335 18.9583C2.0677 18.9583 1.04169 17.9323 1.04169 16.6667Z" fill="black"/>
<path fill-rule="evenodd" clip-rule="evenodd" d="M14.375 16.6667C14.375 15.401 15.401 14.375 16.6667 14.375C17.9323 14.375 18.9583 15.401 18.9583 16.6667C18.9583 17.9323 17.9323 18.9583 16.6667 18.9583C15.401 18.9583 14.375 17.9323 14.375 16.6667Z" fill="black"/>
<path fill-rule="evenodd" clip-rule="evenodd" d="M10.8327 5V7.5H9.16602V5H10.8327ZM7.98373 14.0114L5.06706 16.0947L4.09833 14.7386L7.01499 12.6553L7.98373 14.0114ZM12.9837 12.6553L15.9004 14.7386L14.9317 16.0947L12.015 14.0114L12.9837 12.6553Z" fill="black"/>
</svg>
