<svg width="24" height="24" viewBox="0 0 24 24" fill="none" xmlns="http://www.w3.org/2000/svg">
<path d="M12 6.75C13.5188 6.75 14.75 5.51878 14.75 4C14.75 2.48122 13.5188 1.25 12 1.25C10.4812 1.25 9.25 2.48122 9.25 4C9.25 5.51878 10.4812 6.75 12 6.75ZM12 18.5C14.6234 18.5 16.75 16.3734 16.75 13.75C16.75 11.1266 14.6234 9 12 9C9.37665 9 7.25 11.1266 7.25 13.75C7.25 16.3734 9.37665 18.5 12 18.5ZM4 22.75C5.51878 22.75 6.75 21.5188 6.75 20C6.75 18.4812 5.51878 17.25 4 17.25C2.48122 17.25 1.25 18.4812 1.25 20C1.25 21.5188 2.48122 22.75 4 22.75ZM20 22.75C21.5188 22.75 22.75 21.5188 22.75 20C22.75 18.4812 21.5188 17.25 20 17.25C18.4812 17.25 17.25 18.4812 17.25 20C17.25 21.5188 18.4812 22.75 20 22.75Z" fill="black"/>
<path opacity="0.4" d="M13.001 6.5625C12.6911 6.68351 12.3537 6.75 12.001 6.75C11.6483 6.74998 11.3108 6.6835 11.001 6.5625V9.10547C11.3233 9.0364 11.658 9.00002 12.001 9C12.3439 9 12.6786 9.03642 13.001 9.10547V6.5625ZM8.87012 17.3223C8.36687 16.8808 7.95786 16.3345 7.67676 15.7178L5.16797 17.5088C5.79626 17.8036 6.29507 18.3294 6.55469 18.9766L8.87012 17.3223ZM17.4482 18.9766C17.7079 18.3295 18.2058 17.8036 18.834 17.5088L16.3262 15.7178C16.045 16.3347 15.6352 16.8807 15.1318 17.3223L17.4482 18.9766Z" fill="black"/>
</svg>
