<svg width="28" height="28" viewBox="0 0 28 28" fill="none" xmlns="http://www.w3.org/2000/svg">
<path opacity="0.4" d="M4.08304 22.1497V23.9169H5.8502C7.28084 23.9169 7.99614 23.9169 8.63935 23.6505C9.28255 23.3841 9.78834 22.8783 10.8 21.8667L20.4167 12.25L15.75 7.58331L6.13329 17.2C5.12168 18.2116 4.61588 18.7174 4.34946 19.3606C4.08304 20.0038 4.08304 20.7192 4.08304 22.1497Z" fill="black"/>
<path d="M4.08307 22.1495V23.9166H5.85024C7.28087 23.9166 7.99619 23.9166 8.63938 23.6502C9.28259 23.3838 9.78838 22.878 10.8 21.8663L22.308 10.3584C23.3377 9.32879 23.8524 8.81395 23.9093 8.18211C23.9188 8.07766 23.9188 7.97256 23.9093 7.86811C23.8524 7.23627 23.3377 6.72143 22.308 5.69178C21.2783 4.66212 20.7634 4.14728 20.1317 4.09037C20.0271 4.08096 19.9221 4.08096 19.8176 4.09037C19.1857 4.14728 18.671 4.66212 17.6413 5.69178L6.13332 17.1997C5.12172 18.2113 4.61592 18.7172 4.34949 19.3603C4.08307 20.0035 4.08307 20.7188 4.08307 22.1495Z" stroke="black" stroke-width="1.75" stroke-linecap="round" stroke-linejoin="round"/>
<path d="M15.75 7.58331L20.4167 12.25" stroke="black" stroke-width="1.75" stroke-linecap="round" stroke-linejoin="round"/>
</svg>
