<svg width="32" height="32" viewBox="0 0 32 32" fill="none" xmlns="http://www.w3.org/2000/svg">
<path fill-rule="evenodd" clip-rule="evenodd" d="M23.0972 3.67878C22.9181 3.66266 22.738 3.66266 22.559 3.67878C21.9271 3.7357 21.4176 4.02494 20.9573 4.38687C20.5256 4.7264 20.0485 5.20347 19.4952 5.7569L17.9996 7.25252L24.7471 14L26.2427 12.5045C26.7961 11.9511 27.2732 11.4741 27.6128 11.0423C27.9747 10.582 28.264 10.0726 28.3209 9.44072C28.337 9.26167 28.337 9.08151 28.3208 8.90244C28.264 8.27058 27.9747 7.76116 27.6128 7.3009C27.2732 6.86911 26.7961 6.39208 26.2427 5.8387C25.6893 5.28526 25.1305 4.72642 24.6988 4.38687C24.2385 4.02494 23.7291 3.7357 23.0972 3.67878ZM23.3329 15.4143L16.5853 8.66674L6.16786 19.0841C5.1418 20.1092 4.42875 20.8216 4.04691 21.7435C3.66508 22.6653 3.66556 23.6732 3.66626 25.1236L3.66631 27.3333C3.66631 27.8856 4.11403 28.3333 4.66631 28.3333H6.87607C8.32644 28.3342 9.33438 28.3346 10.2562 27.9527C11.178 27.5709 11.8904 26.8579 12.9155 25.8318L23.3329 15.4143Z" fill="black"/>
</svg>
