<svg width="32" height="32" viewBox="0 0 32 32" fill="none" xmlns="http://www.w3.org/2000/svg">
<path opacity="0.4" d="M18 8.66669L23.3333 14" stroke="black" stroke-width="2" stroke-linecap="round" stroke-linejoin="round"/>
<path d="M4.66638 25.3138V27.3334H6.68601C8.32101 27.3334 9.13851 27.3334 9.87359 27.0288C10.6087 26.7244 11.1867 26.1463 12.3429 24.9902L25.4948 11.8383C26.6716 10.6615 27.2599 10.0731 27.325 9.35102C27.3358 9.23165 27.3358 9.11154 27.325 8.99217C27.2599 8.27006 26.6716 7.68168 25.4948 6.50493C24.318 5.32818 23.7296 4.7398 23.0076 4.67476C22.8882 4.664 22.7682 4.664 22.6487 4.67476C21.9266 4.7398 21.3383 5.32818 20.1615 6.50493L7.00953 19.6568C5.85341 20.813 5.27536 21.3911 4.97086 22.1262C4.66638 22.8612 4.66638 23.6787 4.66638 25.3138Z" stroke="black" stroke-width="2" stroke-linecap="round" stroke-linejoin="round"/>
</svg>
