<svg width="20" height="20" viewBox="0 0 20 20" fill="none" xmlns="http://www.w3.org/2000/svg">
<path fill-rule="evenodd" clip-rule="evenodd" d="M14.4357 2.29924C14.3238 2.28917 14.2112 2.28917 14.0993 2.29924C13.7044 2.33482 13.386 2.51559 13.0983 2.7418C12.8285 2.95401 12.5303 3.25218 12.1845 3.59807L11.2497 4.53284L15.4669 8.75002L16.4017 7.81531C16.7476 7.46944 17.0457 7.1713 17.258 6.90144C17.4842 6.61377 17.665 6.29538 17.7006 5.90046C17.7106 5.78855 17.7106 5.67595 17.7005 5.56403C17.665 5.16912 17.4842 4.85073 17.258 4.56307C17.0457 4.2932 16.7476 3.99506 16.4017 3.64919C16.0558 3.30329 15.7066 2.95402 15.4367 2.7418C15.1491 2.51559 14.8307 2.33482 14.4357 2.29924ZM14.5831 9.63394L10.3658 5.41672L3.85489 11.9276C3.2136 12.5683 2.76795 13.0135 2.5293 13.5897C2.29065 14.1659 2.29095 14.7958 2.29139 15.7023L2.29142 17.0834C2.29142 17.4285 2.57125 17.7084 2.91642 17.7084H4.29752C5.204 17.7089 5.83396 17.7091 6.4101 17.4704C6.98625 17.2319 7.43149 16.7862 8.07215 16.1449L14.5831 9.63394Z" fill="black"/>
</svg>
