<svg width="16" height="16" viewBox="0 0 16 16" fill="none" xmlns="http://www.w3.org/2000/svg">
<path fill-rule="evenodd" clip-rule="evenodd" d="M11.5486 1.83936C11.4591 1.8313 11.369 1.8313 11.2795 1.83936C10.9635 1.86782 10.7088 2.01244 10.4787 2.1934C10.2628 2.36317 10.0243 2.6017 9.74761 2.87842L8.99981 3.62623L12.3735 6.99998L13.1213 6.25221C13.3981 5.97551 13.6366 5.737 13.8064 5.52111C13.9873 5.29098 14.132 5.03626 14.1605 4.72033C14.1685 4.6308 14.1685 4.54072 14.1604 4.45119C14.132 4.13526 13.9873 3.88055 13.8064 3.65042C13.6366 3.43452 13.3981 3.19601 13.1213 2.91932C12.8447 2.6426 12.5653 2.36318 12.3494 2.1934C12.1193 2.01244 11.8645 1.86782 11.5486 1.83936ZM11.6665 7.70711L8.29267 4.33334L3.08393 9.54204C2.5709 10.0546 2.21437 10.4108 2.02346 10.8717C1.83254 11.3326 1.83278 11.8366 1.83313 12.5618L1.83316 13.6666C1.83316 13.9428 2.05702 14.1666 2.33315 14.1666H3.43803C4.16322 14.167 4.66719 14.1672 5.1281 13.9763C5.58902 13.7854 5.94521 13.4289 6.45774 12.9158L11.6665 7.70711Z" fill="black"/>
</svg>
