<svg width="24" height="24" viewBox="0 0 24 24" fill="none" xmlns="http://www.w3.org/2000/svg">
<path opacity="0.4" d="M17.4991 11.5613L9.68571 19.3748C8.91729 20.1439 8.38272 20.6783 7.69157 20.9646C7.00025 21.2508 6.24408 21.2513 5.15641 21.2508H3.49919C3.08529 21.2506 2.74954 20.9146 2.74919 20.5008V18.8435C2.74867 17.7562 2.74829 16.9996 3.03434 16.3084C3.32069 15.6171 3.85577 15.0819 4.62516 14.3133L12.4386 6.50075L17.4991 11.5613ZM17.3224 2.75954C17.7963 2.80223 18.1784 3.01934 18.5236 3.29079C18.8473 3.54546 19.2668 3.96466 19.6818 4.37966C20.0967 4.79458 20.4545 5.15259 20.7091 5.47634C20.9805 5.82146 21.1977 6.20376 21.2404 6.67751C21.2524 6.81153 21.2523 6.94682 21.2404 7.08083C21.1976 7.55447 20.9804 7.93694 20.7091 8.282C20.4545 8.60572 20.0966 8.96384 19.6818 9.37868L18.5597 10.5008L13.4991 5.44021L14.6212 4.31814C15.0361 3.90324 15.3942 3.54539 15.7179 3.29079C16.0631 3.01942 16.4452 2.80225 16.9191 2.75954C17.0533 2.74747 17.1882 2.74747 17.3224 2.75954Z" fill="black"/>
<path d="M17.3224 2.75906C17.7962 2.80175 18.1784 3.01795 18.5236 3.28933C18.8473 3.54398 19.2668 3.96319 19.6818 4.3782C20.0967 4.79309 20.4545 5.15112 20.7091 5.47488C20.9804 5.81993 21.1976 6.2024 21.2404 6.67605C21.2524 6.8102 21.2524 6.9462 21.2404 7.08034C21.1975 7.55393 20.9804 7.93649 20.7091 8.28152C20.4545 8.60524 20.0966 8.96334 19.6818 9.3782L18.5597 10.4993L13.4991 5.43874L14.6212 4.31765C15.0362 3.90268 15.3942 3.54397 15.7179 3.28933C16.063 3.01807 16.4454 2.80176 16.9191 2.75906C17.0533 2.74699 17.1882 2.74697 17.3224 2.75906Z" fill="black"/>
</svg>
