<svg width="24" height="24" viewBox="0 0 24 24" fill="none" xmlns="http://www.w3.org/2000/svg">
<path d="M3.49976 18.9853V20.5H5.01448C6.24073 20.5 6.85386 20.5 7.40517 20.2716C7.95649 20.0433 8.39003 19.6097 9.25712 18.7426L19.1211 8.87868C20.0037 7.99612 20.4449 7.55483 20.4937 7.01325C20.5018 6.92372 20.5018 6.83364 20.4937 6.74411C20.4449 6.20253 20.0037 5.76124 19.1211 4.87868C18.2385 3.99612 17.7972 3.55483 17.2557 3.50605C17.1661 3.49798 17.0761 3.49798 16.9865 3.50605C16.4449 3.55483 16.0037 3.99612 15.1211 4.87868L5.25712 14.7426C4.39003 15.6097 3.95649 16.0433 3.72812 16.5946C3.49976 17.1459 3.49976 17.759 3.49976 18.9853Z" stroke="black" stroke-width="1.5" stroke-linecap="round" stroke-linejoin="round"/>
<path d="M13.5 6.5L17.5 10.5" stroke="black" stroke-width="1.5" stroke-linecap="round" stroke-linejoin="round"/>
</svg>
