<svg width="20" height="20" viewBox="0 0 20 20" fill="none" xmlns="http://www.w3.org/2000/svg">
<path opacity="0.4" d="M14.5826 9.6344L8.07142 16.1456C7.43107 16.7866 6.9856 17.2319 6.40964 17.4705C5.83354 17.709 5.2034 17.7094 4.29701 17.709H2.91599C2.57107 17.7088 2.29128 17.4288 2.29099 17.084V15.7029C2.29056 14.7968 2.29024 14.1663 2.52862 13.5903C2.76724 13.0142 3.21314 12.5682 3.8543 11.9277L10.3655 5.41727L14.5826 9.6344ZM14.4353 2.2996C14.8302 2.33517 15.1487 2.5161 15.4363 2.74231C15.7061 2.95453 16.0557 3.30386 16.4015 3.6497C16.7472 3.99546 17.0454 4.29381 17.2576 4.5636C17.4837 4.8512 17.6647 5.16978 17.7003 5.56457C17.7103 5.67626 17.7102 5.789 17.7003 5.90067C17.6647 6.29537 17.4837 6.6141 17.2576 6.90165C17.0454 7.17141 16.7472 7.46985 16.4015 7.81555L15.4664 8.75065L11.2492 4.53349L12.1843 3.59843C12.5301 3.25268 12.8285 2.95447 13.0982 2.74231C13.3859 2.51616 13.7043 2.33519 14.0992 2.2996C14.2111 2.28954 14.3235 2.28954 14.4353 2.2996Z" fill="black"/>
<path d="M14.4353 2.29924C14.8302 2.33481 15.1487 2.51498 15.4363 2.74113C15.7061 2.95334 16.0557 3.30268 16.4015 3.64852C16.7472 3.99426 17.0454 4.29262 17.2576 4.56242C17.4837 4.84996 17.6647 5.16869 17.7003 5.5634C17.7103 5.67519 17.7103 5.78852 17.7003 5.9003C17.6646 6.29496 17.4837 6.61376 17.2576 6.90129C17.0454 7.17105 16.7472 7.46947 16.4015 7.81519L15.4664 8.74944L11.2492 4.5323L12.1843 3.59806C12.5302 3.25225 12.8285 2.95333 13.0982 2.74113C13.3858 2.51508 13.7045 2.33482 14.0992 2.29924C14.2111 2.28918 14.3235 2.28916 14.4353 2.29924Z" fill="black"/>
</svg>
