<svg width="20" height="20" viewBox="0 0 20 20" fill="none" xmlns="http://www.w3.org/2000/svg">
<path d="M2.91647 15.8211V17.0834H4.17874C5.20062 17.0834 5.71156 17.0834 6.17098 16.893C6.63042 16.7028 6.9917 16.3414 7.71427 15.6189L15.9342 7.39892C16.6697 6.66346 17.0374 6.29571 17.0781 5.8444C17.0848 5.76979 17.0848 5.69472 17.0781 5.62011C17.0374 5.1688 16.6697 4.80106 15.9342 4.06559C15.1987 3.33012 14.831 2.96238 14.3797 2.92173C14.3051 2.91501 14.2301 2.91501 14.1554 2.92173C13.7041 2.96238 13.3364 3.33012 12.6009 4.06559L4.38094 12.2855C3.65837 13.0081 3.29708 13.3694 3.10677 13.8289C2.91647 14.2883 2.91647 14.7992 2.91647 15.8211Z" stroke="black" stroke-width="1.25" stroke-linecap="round" stroke-linejoin="round"/>
<path d="M11.25 5.41669L14.5833 8.75002" stroke="black" stroke-width="1.25" stroke-linecap="round" stroke-linejoin="round"/>
</svg>
