<svg width="28" height="28" viewBox="0 0 28 28" fill="none" xmlns="http://www.w3.org/2000/svg">
<path opacity="0.4" d="M20.4156 13.4882L11.3 22.604C10.4035 23.5012 9.77984 24.1247 8.9735 24.4587C8.16696 24.7926 7.28476 24.7932 6.01581 24.7926H4.08239C3.5995 24.7924 3.2078 24.4004 3.20739 23.9176V21.9841C3.20678 20.7156 3.20634 19.8329 3.54006 19.0265C3.87414 18.22 4.4984 17.5956 5.39602 16.6989L14.5117 7.58423L20.4156 13.4882ZM20.2095 3.21948C20.7623 3.26929 21.2081 3.52258 21.6109 3.83928C21.9885 4.13639 22.4779 4.62546 22.9621 5.10962C23.4461 5.5937 23.8636 6.01138 24.1606 6.38908C24.4772 6.79172 24.7306 7.23774 24.7805 7.79045C24.7945 7.94681 24.7943 8.10464 24.7805 8.26099C24.7305 8.81357 24.4771 9.25978 24.1606 9.66235C23.8636 10.04 23.446 10.4578 22.9621 10.9418L21.653 12.251L15.7489 6.34693L17.0581 5.03785C17.5421 4.5538 17.9599 4.13631 18.3375 3.83928C18.7403 3.52268 19.1861 3.26931 19.7389 3.21948C19.8955 3.2054 20.0529 3.2054 20.2095 3.21948Z" fill="black"/>
<path d="M20.2095 3.21888C20.7622 3.26869 21.2081 3.52092 21.6109 3.83753C21.9885 4.13462 22.4779 4.6237 22.9621 5.10788C23.4462 5.59192 23.8636 6.00962 24.1606 6.38734C24.4771 6.7899 24.7305 7.23611 24.7805 7.7887C24.7945 7.94521 24.7945 8.10388 24.7805 8.26038C24.7304 8.8129 24.4771 9.25922 24.1606 9.66175C23.8636 10.0394 23.446 10.4572 22.9621 10.9412L21.653 12.2492L15.749 6.34518L17.0581 5.03724C17.5422 4.55311 17.9599 4.13461 18.3376 3.83753C18.7402 3.52106 19.1863 3.2687 19.739 3.21888C19.8955 3.2048 20.0529 3.20478 20.2095 3.21888Z" fill="black"/>
</svg>
