<svg width="32" height="32" viewBox="0 0 32 32" fill="none" xmlns="http://www.w3.org/2000/svg">
<path opacity="0.4" d="M23.3321 15.415L12.9143 25.833C11.8897 26.8585 11.177 27.571 10.2554 27.9528C9.33367 28.3344 8.32544 28.335 6.87521 28.3344H4.66559C4.11372 28.3341 3.66605 27.8861 3.66559 27.3344V25.1246C3.66489 23.6749 3.66439 22.6661 4.04579 21.7445C4.42759 20.8228 5.14103 20.1092 6.16688 19.0844L16.5848 8.66765L23.3321 15.415ZM23.0965 3.67937C23.7284 3.73629 24.2379 4.02577 24.6981 4.3877C25.1297 4.72726 25.6891 5.28619 26.2424 5.83953C26.7956 6.39275 27.2727 6.8701 27.6121 7.30177C27.974 7.76193 28.2636 8.27166 28.3205 8.90333C28.3365 9.08202 28.3364 9.26241 28.3205 9.44109C28.2635 10.0726 27.9739 10.5826 27.6121 11.0426C27.2727 11.4743 26.7955 11.9518 26.2424 12.5049L24.7463 14.001L17.9988 7.25359L19.4949 5.7575C20.0481 5.2043 20.5256 4.72717 20.9572 4.3877C21.4175 4.02587 21.9269 3.73631 22.5588 3.67937C22.7377 3.66327 22.9176 3.66327 23.0965 3.67937Z" fill="black"/>
<path d="M23.0965 3.67877C23.7282 3.73569 24.2378 4.02395 24.6981 4.38579C25.1297 4.72533 25.689 5.28427 26.2424 5.83762C26.7956 6.39081 27.2726 6.86818 27.6121 7.29986C27.9738 7.75993 28.2634 8.26989 28.3205 8.90142C28.3365 9.08029 28.3365 9.26162 28.3205 9.44047C28.2633 10.0719 27.9738 10.582 27.6121 11.042C27.2726 11.4737 26.7954 11.9511 26.2424 12.5043L24.7462 13.9991L17.9988 7.25167L19.4949 5.75689C20.0482 5.20359 20.5256 4.72531 20.9572 4.38579C21.4173 4.02411 21.9272 3.7357 22.5588 3.67877C22.7377 3.66267 22.9176 3.66265 23.0965 3.67877Z" fill="black"/>
</svg>
