<svg width="16" height="16" viewBox="0 0 16 16" fill="none" xmlns="http://www.w3.org/2000/svg">
<path opacity="0.4" d="M2.33316 12.657V13.6668H3.34297C4.16047 13.6668 4.56922 13.6668 4.93677 13.5146C5.30431 13.3623 5.59333 13.0733 6.1714 12.4952L11.6667 6.99998L8.99999 4.33331L3.50473 9.82858C2.92667 10.4066 2.63764 10.6956 2.4854 11.0632C2.33316 11.4307 2.33316 11.8395 2.33316 12.657Z" fill="black"/>
<path d="M2.33319 12.6568V13.6666H3.343C4.1605 13.6666 4.56926 13.6666 4.9368 13.5144C5.30434 13.3622 5.59337 13.0731 6.17143 12.495L12.7474 5.9191C13.3358 5.33073 13.6299 5.03653 13.6625 4.67548C13.6679 4.61579 13.6679 4.55574 13.6625 4.49605C13.6299 4.135 13.3358 3.84081 12.7474 3.25243C12.159 2.66406 11.8648 2.36987 11.5038 2.33735C11.4441 2.33197 11.3841 2.33197 11.3243 2.33735C10.9633 2.36987 10.6691 2.66406 10.0807 3.25243L3.50476 9.82838C2.9267 10.4064 2.63768 10.6955 2.48543 11.063C2.33319 11.4306 2.33319 11.8393 2.33319 12.6568Z" stroke="black" stroke-linecap="round" stroke-linejoin="round"/>
<path d="M9 4.33331L11.6667 6.99998" stroke="black" stroke-linecap="round" stroke-linejoin="round"/>
</svg>
