<svg width="28" height="28" viewBox="0 0 28 28" fill="none" xmlns="http://www.w3.org/2000/svg">
<path fill-rule="evenodd" clip-rule="evenodd" d="M20.2101 3.21889C20.0534 3.20479 19.8958 3.20479 19.7391 3.21889C19.1862 3.2687 18.7404 3.52178 18.3377 3.83847C17.9599 4.13556 17.5425 4.553 17.0583 5.03725L15.7497 6.34592L21.6537 12.25L22.9623 10.9414C23.4466 10.4572 23.8641 10.0398 24.1612 9.66196C24.4778 9.25923 24.731 8.81348 24.7808 8.2606C24.7948 8.10392 24.7948 7.94628 24.7807 7.7896C24.731 7.23672 24.4778 6.79098 24.1612 6.38825C23.8641 6.01043 23.4466 5.59304 22.9623 5.10882C22.4782 4.62456 21.9892 4.13558 21.6115 3.83847C21.2087 3.52178 20.7629 3.2687 20.2101 3.21889ZM20.4163 13.4875L14.5122 7.58336L5.39687 16.6986C4.49907 17.5955 3.87515 18.2189 3.54104 19.0255C3.20694 19.8321 3.20736 20.714 3.20797 21.9831L3.20801 23.9166C3.20801 24.3999 3.59977 24.7916 4.08301 24.7916H6.01655C7.28563 24.7923 8.16757 24.7927 8.97417 24.4586C9.78078 24.1245 10.4041 23.5006 11.301 22.6027L20.4163 13.4875Z" fill="black"/>
</svg>
