<svg width="16" height="16" viewBox="0 0 16 16" fill="none" xmlns="http://www.w3.org/2000/svg">
<path opacity="0.4" d="M11.6661 7.70755L6.45714 12.9166C5.94486 13.4293 5.58848 13.7856 5.12771 13.9764C4.66683 14.1672 4.16272 14.1676 3.43761 14.1672H2.33279C2.05686 14.1671 1.83303 13.9431 1.83279 13.6672V12.5624C1.83245 11.8375 1.83219 11.3331 2.02289 10.8723C2.21379 10.4114 2.57051 10.0546 3.08344 9.54222L8.2924 4.33385L11.6661 7.70755ZM11.5483 1.83971C11.8642 1.86817 12.1189 2.01291 12.3491 2.19388C12.5649 2.36366 12.8445 2.64313 13.1212 2.91979C13.3978 3.19641 13.6363 3.43508 13.8061 3.65091C13.987 3.88099 14.1318 4.13586 14.1603 4.45169C14.1683 4.54104 14.1682 4.63123 14.1603 4.72057C14.1317 5.03633 13.9869 5.29131 13.8061 5.52135C13.6363 5.73717 13.3977 5.97591 13.1212 6.25247L12.3731 7.00055L8.9994 3.62683L9.74747 2.87878C10.0241 2.60218 10.2628 2.36361 10.4786 2.19388C10.7087 2.01297 10.9635 1.86819 11.2794 1.83971C11.3689 1.83167 11.4588 1.83167 11.5483 1.83971Z" fill="black"/>
<path d="M11.5483 1.83935C11.8641 1.86781 12.1189 2.01195 12.3491 2.19287C12.5649 2.36263 12.8445 2.64211 13.1212 2.91878C13.3978 3.19537 13.6363 3.43406 13.8061 3.6499C13.9869 3.87993 14.1317 4.13491 14.1603 4.45068C14.1683 4.54011 14.1683 4.63078 14.1603 4.72021C14.1317 5.03593 13.9869 5.29097 13.8061 5.52099C13.6363 5.73681 13.3977 5.97554 13.1212 6.25211L12.3731 6.99951L8.99939 3.62581L9.74746 2.87841C10.0241 2.60177 10.2628 2.36263 10.4786 2.19287C10.7087 2.01203 10.9636 1.86782 11.2794 1.83935C11.3689 1.83131 11.4588 1.83129 11.5483 1.83935Z" fill="black"/>
</svg>
