<svg width="16" height="16" viewBox="0 0 16 16" fill="none" xmlns="http://www.w3.org/2000/svg">
<path d="M15.168 7.99999C15.168 11.9581 11.9593 15.1667 8.00133 15.1667C4.04326 15.1667 0.834633 11.9581 0.834633 7.99999C0.834633 4.04195 4.04326 0.833328 8.00133 0.833328C11.9593 0.833328 15.168 4.04195 15.168 7.99999ZM8.00133 3.33319C7.63313 3.33319 7.33467 3.63167 7.33467 3.99986V7.99986C7.33467 8.23913 7.46287 8.45993 7.6706 8.57866L10.0039 9.91199C10.3236 10.0947 10.7307 9.98359 10.9134 9.66393C11.0961 9.34426 10.9851 8.93713 10.6653 8.75439L8.668 7.61246V3.99986C8.668 3.63167 8.36947 3.33319 8.00133 3.33319Z" fill="black"/>
</svg>
