<svg width="20" height="20" viewBox="0 0 20 20" fill="none" xmlns="http://www.w3.org/2000/svg">
<path d="M18.96 10C18.96 14.9476 14.9492 18.9583 10.0017 18.9583C5.05408 18.9583 1.0433 14.9476 1.0433 10C1.0433 5.05245 5.05408 1.04167 10.0017 1.04167C14.9492 1.04167 18.96 5.05245 18.96 10ZM10.0017 4.16651C9.54142 4.16651 9.16834 4.53961 9.16834 4.99984V9.99984C9.16834 10.2989 9.32859 10.5749 9.58826 10.7233L12.5049 12.39C12.9045 12.6183 13.4134 12.4795 13.6418 12.0799C13.8701 11.6803 13.7313 11.1714 13.3317 10.943L10.835 9.51559V4.99984C10.835 4.53961 10.4618 4.16651 10.0017 4.16651Z" fill="black"/>
</svg>
