<svg width="28" height="28" viewBox="0 0 28 28" fill="none" xmlns="http://www.w3.org/2000/svg">
<path d="M26.544 14C26.544 20.9266 20.9288 26.5417 14.0023 26.5417C7.07571 26.5417 1.46062 20.9266 1.46062 14C1.46062 7.07343 7.07571 1.45833 14.0023 1.45833C20.9288 1.45833 26.544 7.07343 26.544 14ZM14.0023 5.8331C13.358 5.8331 12.8357 6.35544 12.8357 6.99976V13.9998C12.8357 14.4185 13.06 14.8049 13.4236 15.0127L17.5069 17.346C18.0663 17.6657 18.7788 17.4713 19.0985 16.9119C19.4181 16.3525 19.2239 15.64 18.6643 15.3202L15.169 13.3218V6.99976C15.169 6.35544 14.6466 5.8331 14.0023 5.8331Z" fill="black"/>
</svg>
