<svg width="32" height="32" viewBox="0 0 32 32" fill="none" xmlns="http://www.w3.org/2000/svg">
<path d="M30.336 16C30.336 23.9161 23.9187 30.3333 16.0027 30.3333C8.08652 30.3333 1.66927 23.9161 1.66927 16C1.66927 8.08392 8.08652 1.66667 16.0027 1.66667C23.9187 1.66667 30.336 8.08392 30.336 16ZM16.0027 6.66641C15.2663 6.66641 14.6693 7.26336 14.6693 7.99974V15.9997C14.6693 16.4783 14.9257 16.9199 15.3412 17.1573L20.0079 19.824C20.6472 20.1893 21.4615 19.9672 21.8268 19.3279C22.1921 18.6885 21.9701 17.8743 21.3307 17.5088L17.336 15.2249V7.99974C17.336 7.26336 16.7389 6.66641 16.0027 6.66641Z" fill="black"/>
</svg>
