<svg width="24" height="24" viewBox="0 0 24 24" fill="none" xmlns="http://www.w3.org/2000/svg">
<path d="M22.752 12C22.752 17.9371 17.939 22.75 12.002 22.75C6.06489 22.75 1.25195 17.9371 1.25195 12C1.25195 6.06294 6.06489 1.25 12.002 1.25C17.939 1.25 22.752 6.06294 22.752 12ZM12.002 4.9998C11.4497 4.9998 11.002 5.44752 11.002 5.9998V11.9998C11.002 12.3587 11.1943 12.6899 11.5059 12.868L15.0059 14.868C15.4854 15.142 16.0961 14.9754 16.3701 14.4959C16.6441 14.0164 16.4776 13.4057 15.998 13.1316L13.002 11.4187V5.9998C13.002 5.44752 12.5542 4.9998 12.002 4.9998Z" fill="black"/>
</svg>
