<svg width="20" height="20" viewBox="0 0 20 20" fill="none" xmlns="http://www.w3.org/2000/svg">
<path opacity="0.4" d="M17.5 4.16663C17.9602 4.16663 18.3333 4.53973 18.3333 4.99996C18.3333 5.46019 17.9602 5.83329 17.5 5.83329H2.49996C2.03973 5.83329 1.66663 5.46019 1.66663 4.99996C1.66663 4.53973 2.03973 4.16663 2.49996 4.16663H17.5Z" fill="black"/>
<path d="M15 9.16663C15.4602 9.16663 15.8333 9.53971 15.8333 9.99996C15.8333 10.4602 15.4602 10.8333 15 10.8333H4.99996C4.53973 10.8333 4.16663 10.4602 4.16663 9.99996C4.16663 9.53971 4.53973 9.16663 4.99996 9.16663H15Z" fill="black"/>
<path opacity="0.4" d="M12.5 14.1666C12.9602 14.1666 13.3333 14.5397 13.3333 15C13.3333 15.4602 12.9602 15.8333 12.5 15.8333H7.49996C7.03973 15.8333 6.66663 15.4602 6.66663 15C6.66663 14.5397 7.03973 14.1666 7.49996 14.1666H12.5Z" fill="black"/>
</svg>
