<svg width="16" height="16" viewBox="0 0 16 16" fill="none" xmlns="http://www.w3.org/2000/svg">
<path d="M14 3.33331C14.3682 3.33331 14.6667 3.63179 14.6667 3.99998C14.6667 4.36817 14.3682 4.66665 14 4.66665H2.00004C1.63185 4.66665 1.33337 4.36817 1.33337 3.99998C1.33337 3.63179 1.63185 3.33331 2.00004 3.33331H14Z" fill="black"/>
<path d="M12 7.33331C12.3682 7.33331 12.6667 7.63178 12.6667 7.99998C12.6667 8.36818 12.3682 8.66665 12 8.66665H4.00004C3.63185 8.66665 3.33337 8.36818 3.33337 7.99998C3.33337 7.63178 3.63185 7.33331 4.00004 7.33331H12Z" fill="black"/>
<path d="M10 11.3333C10.3682 11.3333 10.6667 11.6318 10.6667 12C10.6667 12.3682 10.3682 12.6666 10 12.6666H6.00004C5.63185 12.6666 5.33337 12.3682 5.33337 12C5.33337 11.6318 5.63185 11.3333 6.00004 11.3333H10Z" fill="black"/>
</svg>
