<svg width="28" height="28" viewBox="0 0 28 28" fill="none" xmlns="http://www.w3.org/2000/svg">
<path d="M24.5 5.83331C25.1444 5.83331 25.6667 6.35565 25.6667 6.99998C25.6667 7.64431 25.1444 8.16665 24.5 8.16665H3.50004C2.85571 8.16665 2.33337 7.64431 2.33337 6.99998C2.33337 6.35565 2.85571 5.83331 3.50004 5.83331H24.5Z" fill="black"/>
<path d="M21 12.8333C21.6444 12.8333 22.1667 13.3556 22.1667 14C22.1667 14.6443 21.6444 15.1666 21 15.1666H7.00004C6.35571 15.1666 5.83337 14.6443 5.83337 14C5.83337 13.3556 6.35571 12.8333 7.00004 12.8333H21Z" fill="black"/>
<path d="M17.5 19.8333C18.1444 19.8333 18.6667 20.3556 18.6667 21C18.6667 21.6443 18.1444 22.1666 17.5 22.1666H10.5C9.85571 22.1666 9.33337 21.6443 9.33337 21C9.33337 20.3556 9.85571 19.8333 10.5 19.8333H17.5Z" fill="black"/>
</svg>
