<svg width="16" height="16" viewBox="0 0 16 16" fill="none" xmlns="http://www.w3.org/2000/svg">
<path d="M14 3.33337C14.3682 3.33337 14.6667 3.63185 14.6667 4.00004C14.6667 4.36823 14.3682 4.66671 14 4.66671H2.00004C1.63185 4.66671 1.33337 4.36823 1.33337 4.00004C1.33337 3.63185 1.63185 3.33337 2.00004 3.33337H14Z" fill="black"/>
<path d="M12 7.33337C12.3682 7.33337 12.6667 7.63184 12.6667 8.00004C12.6667 8.36824 12.3682 8.66671 12 8.66671H4.00004C3.63185 8.66671 3.33337 8.36824 3.33337 8.00004C3.33337 7.63184 3.63185 7.33337 4.00004 7.33337H12Z" fill="black"/>
<path d="M10 11.3334C10.3682 11.3334 10.6667 11.6318 10.6667 12C10.6667 12.3682 10.3682 12.6667 10 12.6667H6.00004C5.63185 12.6667 5.33337 12.3682 5.33337 12C5.33337 11.6318 5.63185 11.3334 6.00004 11.3334H10Z" fill="black"/>
</svg>
