<svg width="20" height="20" viewBox="0 0 20 20" fill="none" xmlns="http://www.w3.org/2000/svg">
<path d="M17.5 4.16669C17.9602 4.16669 18.3333 4.53979 18.3333 5.00002C18.3333 5.46025 17.9602 5.83335 17.5 5.83335H2.49996C2.03973 5.83335 1.66663 5.46025 1.66663 5.00002C1.66663 4.53979 2.03973 4.16669 2.49996 4.16669H17.5Z" fill="black"/>
<path d="M15 9.16669C15.4602 9.16669 15.8333 9.53977 15.8333 10C15.8333 10.4603 15.4602 10.8334 15 10.8334H4.99996C4.53973 10.8334 4.16663 10.4603 4.16663 10C4.16663 9.53977 4.53973 9.16669 4.99996 9.16669H15Z" fill="black"/>
<path d="M12.5 14.1667C12.9602 14.1667 13.3333 14.5398 13.3333 15C13.3333 15.4603 12.9602 15.8334 12.5 15.8334H7.49996C7.03973 15.8334 6.66663 15.4603 6.66663 15C6.66663 14.5398 7.03973 14.1667 7.49996 14.1667H12.5Z" fill="black"/>
</svg>
