<svg width="32" height="32" viewBox="0 0 32 32" fill="none" xmlns="http://www.w3.org/2000/svg">
<path opacity="0.4" d="M28 6.66663C28.7364 6.66663 29.3333 7.26359 29.3333 7.99996C29.3333 8.73633 28.7364 9.33329 28 9.33329H3.99996C3.26359 9.33329 2.66663 8.73633 2.66663 7.99996C2.66663 7.26359 3.26359 6.66663 3.99996 6.66663H28Z" fill="black"/>
<path d="M24 14.6666C24.7364 14.6666 25.3333 15.2636 25.3333 16C25.3333 16.7364 24.7364 17.3333 24 17.3333H7.99996C7.26359 17.3333 6.66663 16.7364 6.66663 16C6.66663 15.2636 7.26359 14.6666 7.99996 14.6666H24Z" fill="black"/>
<path opacity="0.4" d="M20 22.6666C20.7364 22.6666 21.3333 23.2636 21.3333 24C21.3333 24.7364 20.7364 25.3333 20 25.3333H12C11.2636 25.3333 10.6666 24.7364 10.6666 24C10.6666 23.2636 11.2636 22.6666 12 22.6666H20Z" fill="black"/>
</svg>
