<svg width="28" height="28" viewBox="0 0 28 28" fill="none" xmlns="http://www.w3.org/2000/svg">
<path d="M24.5 5.83337C25.1444 5.83337 25.6667 6.35571 25.6667 7.00004C25.6667 7.64437 25.1444 8.16671 24.5 8.16671H3.50004C2.85571 8.16671 2.33337 7.64437 2.33337 7.00004C2.33337 6.35571 2.85571 5.83337 3.50004 5.83337H24.5Z" fill="black"/>
<path d="M21 12.8334C21.6444 12.8334 22.1667 13.3557 22.1667 14C22.1667 14.6444 21.6444 15.1667 21 15.1667H7.00004C6.35571 15.1667 5.83337 14.6444 5.83337 14C5.83337 13.3557 6.35571 12.8334 7.00004 12.8334H21Z" fill="black"/>
<path d="M17.5 19.8334C18.1444 19.8334 18.6667 20.3557 18.6667 21C18.6667 21.6444 18.1444 22.1667 17.5 22.1667H10.5C9.85571 22.1667 9.33337 21.6444 9.33337 21C9.33337 20.3557 9.85571 19.8334 10.5 19.8334H17.5Z" fill="black"/>
</svg>
