<svg width="32" height="32" viewBox="0 0 32 32" fill="none" xmlns="http://www.w3.org/2000/svg">
<path d="M28 6.66669C28.7364 6.66669 29.3333 7.26365 29.3333 8.00002C29.3333 8.73639 28.7364 9.33335 28 9.33335H3.99996C3.26359 9.33335 2.66663 8.73639 2.66663 8.00002C2.66663 7.26365 3.26359 6.66669 3.99996 6.66669H28Z" fill="black"/>
<path d="M24 14.6667C24.7364 14.6667 25.3333 15.2636 25.3333 16C25.3333 16.7364 24.7364 17.3334 24 17.3334H7.99996C7.26359 17.3334 6.66663 16.7364 6.66663 16C6.66663 15.2636 7.26359 14.6667 7.99996 14.6667H24Z" fill="black"/>
<path d="M20 22.6667C20.7364 22.6667 21.3333 23.2636 21.3333 24C21.3333 24.7364 20.7364 25.3334 20 25.3334H12C11.2636 25.3334 10.6666 24.7364 10.6666 24C10.6666 23.2636 11.2636 22.6667 12 22.6667H20Z" fill="black"/>
</svg>
