<svg width="28" height="28" viewBox="0 0 28 28" fill="none" xmlns="http://www.w3.org/2000/svg">
<path d="M11.6498 7C11.8333 5.35961 10.5052 3.5 7.66655 3.5C4.72109 3.5 2.33331 6.37283 2.33331 9.91667C2.33331 13.4605 4.12867 16.3333 7.07413 16.3333C8.95993 16.3333 9.95809 14.8702 9.7484 13.602" stroke="black" stroke-width="1.75" stroke-linecap="round"/>
<path d="M16.3501 7C16.1667 5.35961 17.4947 3.5 20.3335 3.5C23.2788 3.5 25.6667 6.37283 25.6667 9.91667C25.6667 13.4605 23.8713 16.3333 20.9258 16.3333C18.9474 16.3333 17.9459 14.7229 18.2913 13.4167" stroke="black" stroke-width="1.75" stroke-linecap="round"/>
<path opacity="0.4" d="M8.16667 9.33333C9.91674 9.33287 12.2499 9.91165 12.2499 13.58C12.2499 18.4333 9.91599 20.2533 11.6672 24.5M19.8333 9.33333C18.0832 9.33287 15.7501 9.91165 15.7501 13.58C15.7501 18.4333 18.084 20.2533 16.3328 24.5M7.71208 7C7.94974 7.66667 8.35378 9.26667 8.06857 10.3333C7.94975 10.7778 7.56967 11.6667 7 11.6667M20.288 7C20.0502 7.66667 19.6462 9.26667 19.9315 10.3333C20.0502 10.7778 20.4303 11.6667 21 11.6667" stroke="black" stroke-width="1.75" stroke-linecap="round"/>
</svg>
