<svg width="20" height="20" viewBox="0 0 20 20" fill="none" xmlns="http://www.w3.org/2000/svg">
<path d="M8.32133 5C8.45236 3.82829 7.50377 2.5 5.47615 2.5C3.37225 2.5 1.66669 4.55203 1.66669 7.08333C1.66669 9.61467 2.94909 11.6667 5.05299 11.6667C6.39999 11.6667 7.11295 10.6216 6.96318 9.71575" stroke="black" stroke-width="1.25" stroke-linecap="round"/>
<path d="M5.83331 6.66663C7.08336 6.66629 8.7499 7.07971 8.7499 9.69996C8.7499 13.1666 7.08283 14.4666 8.33373 17.5M14.1666 6.66663C12.9166 6.66629 11.2501 7.07971 11.2501 9.69996C11.2501 13.1666 12.9171 14.4666 11.6662 17.5" stroke="black" stroke-width="1.25" stroke-linecap="round"/>
<path d="M5.50863 5C5.67838 5.47619 5.96698 6.61905 5.76327 7.38095C5.67839 7.69842 5.40691 8.33333 5 8.33333" stroke="black" stroke-width="1.25" stroke-linecap="round"/>
<path d="M11.6787 5C11.5477 3.82829 12.4963 2.5 14.5239 2.5C16.6278 2.5 18.3333 4.55203 18.3333 7.08333C18.3333 9.61467 17.0509 11.6667 14.947 11.6667C13.5338 11.6667 12.8185 10.5163 13.0653 9.58333" stroke="black" stroke-width="1.25" stroke-linecap="round"/>
<path d="M14.4914 5C14.3216 5.47619 14.033 6.61905 14.2368 7.38095C14.3216 7.69842 14.5931 8.33333 15 8.33333" stroke="black" stroke-width="1.25" stroke-linecap="round"/>
</svg>
