<svg width="32" height="32" viewBox="0 0 32 32" fill="none" xmlns="http://www.w3.org/2000/svg">
<path fill-rule="evenodd" clip-rule="evenodd" d="M12.1508 12.6177V11.694C12.5882 11.5035 12.9387 11.2001 13.2122 10.8705C14.3314 11.8095 15.0077 13.3171 15.0077 15.5203C15.0077 17.8644 14.5478 19.6662 14.1624 21.1763C14.0674 21.5486 13.9769 21.903 13.8989 22.2435C13.5114 23.936 13.3692 25.4439 14.2662 27.6191C14.4768 28.1296 14.2336 28.7143 13.7229 28.9248C13.2124 29.1354 12.6278 28.8922 12.4172 28.3815C11.3128 25.7034 11.5036 23.7447 11.9494 21.7971C12.0423 21.3915 12.1432 20.994 12.2446 20.5947C12.6227 19.1059 13.0077 17.59 13.0077 15.5203C13.0077 13.9952 12.6208 13.1307 12.1508 12.6177Z" fill="black"/>
<path fill-rule="evenodd" clip-rule="evenodd" d="M8.76115 3C12.497 3 14.5943 5.54448 14.3072 8.11115L14.3055 8.12608C14.2325 8.69968 14.0203 9.56083 13.5891 10.3104C13.4829 10.4947 13.3548 10.686 13.2029 10.8691C13.1425 10.8185 13.0807 10.7694 13.0177 10.722C12.1528 10.0716 11.1492 9.80685 10.2493 9.71256C10.2431 9.66824 10.2366 9.62445 10.2299 9.58124C10.1109 8.8094 9.91114 8.1004 9.75574 7.66447C9.57027 7.14425 8.99822 6.87288 8.478 7.05833C7.95779 7.2438 7.6864 7.81585 7.87187 8.33607C7.98807 8.66204 8.15496 9.24829 8.25327 9.88597C8.35475 10.5442 8.36452 11.1425 8.25516 11.5515C8.2064 11.7339 8.10031 12.0102 7.96611 12.2161C7.92674 12.2765 7.89398 12.3167 7.87072 12.3419C7.37951 12.4053 7 12.8251 7 13.3336C7 13.8859 7.44771 14.3336 8 14.3336C8.86746 14.3336 9.39954 13.6795 9.64155 13.3083C9.92126 12.8792 10.1002 12.3937 10.1873 12.0681C10.217 11.9571 10.2415 11.8439 10.2614 11.7293C10.8424 11.8142 11.3819 11.9943 11.8156 12.3205C11.9257 12.4033 12.0351 12.5002 12.1404 12.6148V15.4703C12.426 17.5336 10.7856 19.6667 8.0841 19.6667C6.0322 19.6667 4.3895 18.65 3.29487 17.0943C2.21648 15.5616 1.66602 13.5139 1.66602 11.3333C1.66602 6.91205 4.67746 3 8.76115 3Z" fill="black"/>
<path fill-rule="evenodd" clip-rule="evenodd" d="M19.8567 12.6177V11.694C19.4194 11.5035 19.0688 11.2001 18.7952 10.8705C17.6762 11.8095 16.9998 13.3171 16.9998 15.5203C16.9998 17.8644 17.4596 19.6662 17.8451 21.1763C17.9402 21.5486 18.0306 21.903 18.1086 22.2435C18.496 23.936 18.6383 25.4439 17.7414 27.6191C17.5307 28.1296 17.774 28.7143 18.2846 28.9248C18.7951 29.1354 19.3798 28.8922 19.5903 28.3815C20.6947 25.7034 20.5039 23.7447 20.058 21.7971C19.9652 21.3915 19.8643 20.994 19.7628 20.5947C19.3848 19.1059 18.9998 17.59 18.9998 15.5203C18.9998 13.9952 19.3867 13.1307 19.8567 12.6177Z" fill="black"/>
<path fill-rule="evenodd" clip-rule="evenodd" d="M23.2415 3C19.5056 3 17.4083 5.54448 17.6953 8.11115L17.6972 8.12608C17.77 8.69968 17.9823 9.56083 18.4136 10.3104C18.5196 10.4947 18.6477 10.686 18.7997 10.8691C18.8601 10.8185 18.9219 10.7694 18.9849 10.722C19.8497 10.0716 20.8533 9.80685 21.7533 9.71256C21.7596 9.66824 21.766 9.62445 21.7727 9.58124C21.8917 8.8094 22.0915 8.1004 22.2469 7.66447C22.4323 7.14425 23.0044 6.87288 23.5247 7.05833C24.0448 7.2438 24.3161 7.81585 24.1308 8.33607C24.0145 8.66204 23.8476 9.24829 23.7493 9.88597C23.6479 10.5442 23.6381 11.1425 23.7475 11.5515C23.7963 11.7339 23.9023 12.0102 24.0365 12.2161C24.0759 12.2765 24.1087 12.3167 24.1319 12.3419C24.6231 12.4053 25.0027 12.8251 25.0027 13.3336C25.0027 13.8859 24.5549 14.3336 24.0027 14.3336C23.1352 14.3336 22.6031 13.6795 22.3611 13.3083C22.0813 12.8792 21.9024 12.3937 21.8153 12.0681C21.7856 11.9571 21.7611 11.8439 21.7412 11.7293C21.1603 11.8142 20.6207 11.9943 20.1869 12.3205C20.0769 12.4033 19.9675 12.5002 19.8623 12.6148V15.4703C19.5765 17.5336 21.2169 19.6667 23.9185 19.6667C25.9704 19.6667 27.6131 18.65 28.7077 17.0943C29.7861 15.5616 30.3365 13.5139 30.3365 11.3333C30.3365 6.91205 27.3252 3 23.2415 3Z" fill="black"/>
</svg>
