<svg width="20" height="20" viewBox="0 0 20 20" fill="none" xmlns="http://www.w3.org/2000/svg">
<path fill-rule="evenodd" clip-rule="evenodd" d="M7.59426 7.88605V7.30878C7.86762 7.18973 8.08668 7.00009 8.25768 6.79407C8.95718 7.38093 9.37984 8.32322 9.37984 9.70021C9.37984 11.1653 9.09243 12.2914 8.85151 13.2352C8.79218 13.4679 8.73559 13.6894 8.68684 13.9022C8.44468 14.96 8.35576 15.9025 8.91643 17.262C9.04801 17.581 8.89601 17.9465 8.57684 18.078C8.25775 18.2096 7.89238 18.0576 7.76079 17.7385C7.07053 16.0646 7.18974 14.8405 7.4684 13.6232C7.52644 13.3697 7.58953 13.1213 7.65292 12.8717C7.88921 11.9412 8.12983 10.9938 8.12983 9.70021C8.12983 8.74704 7.888 8.20668 7.59426 7.88605Z" fill="black"/>
<path fill-rule="evenodd" clip-rule="evenodd" d="M5.47572 1.875C7.81064 1.875 9.12142 3.4653 8.942 5.06947L8.94092 5.0788C8.89533 5.4373 8.76267 5.97552 8.49317 6.44397C8.42684 6.55922 8.34675 6.67873 8.25183 6.79321C8.21404 6.76153 8.17544 6.73089 8.13606 6.70127C7.59551 6.29476 6.96826 6.12928 6.40581 6.07035C6.40191 6.04265 6.39787 6.01528 6.3937 5.98828C6.31933 5.50587 6.19446 5.06275 6.09733 4.79029C5.98142 4.46516 5.62388 4.29555 5.29875 4.41146C4.97362 4.52737 4.804 4.88491 4.91992 5.21004C4.99254 5.41378 5.09685 5.78018 5.15829 6.17873C5.22172 6.59014 5.22783 6.96406 5.15948 7.21968C5.129 7.33366 5.06269 7.50639 4.97882 7.63505C4.95421 7.67279 4.93373 7.69797 4.9192 7.71368C4.61219 7.75331 4.375 8.01571 4.375 8.3335C4.375 8.67867 4.65482 8.9585 5 8.9585C5.54216 8.9585 5.87471 8.54967 6.02597 8.31768C6.20079 8.04951 6.31265 7.74605 6.36706 7.54256C6.38561 7.47318 6.40094 7.40244 6.41338 7.33081C6.77647 7.38388 7.1137 7.49645 7.38476 7.70029C7.45358 7.75206 7.52196 7.81264 7.58775 7.88423V9.66892C7.76627 10.9585 6.74103 12.2917 5.05256 12.2917C3.77013 12.2917 2.74343 11.6562 2.05929 10.6839C1.3853 9.726 1.04126 8.44617 1.04126 7.08333C1.04126 4.32003 2.92341 1.875 5.47572 1.875Z" fill="black"/>
<path fill-rule="evenodd" clip-rule="evenodd" d="M12.4104 7.88605V7.30878C12.1371 7.18973 11.918 7.00009 11.747 6.79407C11.0476 7.38093 10.6248 8.32322 10.6248 9.70021C10.6248 11.1653 10.9122 12.2914 11.1532 13.2352C11.2126 13.4679 11.2691 13.6894 11.3178 13.9022C11.56 14.96 11.6489 15.9025 11.0883 17.262C10.9567 17.581 11.1087 17.9465 11.4278 18.078C11.7469 18.2096 12.1123 18.0576 12.2439 17.7385C12.9342 16.0646 12.8149 14.8405 12.5362 13.6232C12.4782 13.3697 12.4152 13.1213 12.3517 12.8717C12.1155 11.9412 11.8748 10.9938 11.8748 9.70021C11.8748 8.74704 12.1167 8.20668 12.4104 7.88605Z" fill="black"/>
<path fill-rule="evenodd" clip-rule="evenodd" d="M14.5259 1.875C12.191 1.875 10.8802 3.4653 11.0596 5.06947L11.0607 5.0788C11.1062 5.4373 11.2389 5.97552 11.5085 6.44397C11.5747 6.55922 11.6548 6.67873 11.7498 6.79321C11.7876 6.76153 11.8262 6.73089 11.8656 6.70127C12.4061 6.29476 13.0333 6.12928 13.5958 6.07035C13.5997 6.04265 13.6037 6.01528 13.6079 5.98828C13.6823 5.50587 13.8072 5.06275 13.9043 4.79029C14.0202 4.46516 14.3777 4.29555 14.7029 4.41146C15.028 4.52737 15.1976 4.88491 15.0817 5.21004C15.0091 5.41378 14.9047 5.78018 14.8433 6.17873C14.7799 6.59014 14.7738 6.96406 14.8422 7.21968C14.8727 7.33366 14.9389 7.50639 15.0228 7.63505C15.0474 7.67279 15.0679 7.69797 15.0824 7.71368C15.3894 7.75331 15.6267 8.01571 15.6267 8.3335C15.6267 8.67867 15.3468 8.9585 15.0017 8.9585C14.4595 8.9585 14.1269 8.54967 13.9757 8.31768C13.8008 8.04951 13.689 7.74605 13.6346 7.54256C13.616 7.47318 13.6007 7.40244 13.5882 7.33081C13.2252 7.38388 12.8879 7.49645 12.6168 7.70029C12.5481 7.75206 12.4797 7.81264 12.4139 7.88423V9.66892C12.2353 10.9585 13.2606 12.2917 14.9491 12.2917C16.2315 12.2917 17.2582 11.6562 17.9423 10.6839C18.6163 9.726 18.9603 8.44617 18.9603 7.08333C18.9603 4.32003 17.0782 1.875 14.5259 1.875Z" fill="black"/>
</svg>
