<svg width="32" height="32" viewBox="0 0 32 32" fill="none" xmlns="http://www.w3.org/2000/svg">
<path d="M13.3141 8C13.5237 6.12527 12.006 4 8.76176 4C5.39552 4 2.66663 7.28324 2.66663 11.3333C2.66663 15.3835 4.71847 18.6667 8.08471 18.6667C10.2399 18.6667 11.3807 16.9945 11.141 15.5452" stroke="black" stroke-width="2" stroke-linecap="round"/>
<path d="M18.6859 8C18.4763 6.12527 19.994 4 23.2383 4C26.6044 4 29.3334 7.28324 29.3334 11.3333C29.3334 15.3835 27.2815 18.6667 23.9152 18.6667C21.6542 18.6667 20.5096 16.8261 20.9044 15.3333" stroke="black" stroke-width="2" stroke-linecap="round"/>
<path opacity="0.4" d="M9.33333 10.6667C11.3334 10.6661 13.9999 11.3276 13.9999 15.52C13.9999 21.0667 11.3326 23.1467 13.334 28M22.6667 10.6667C20.6665 10.6661 18.0001 11.3276 18.0001 15.52C18.0001 21.0667 20.6675 23.1467 18.666 28M8.8138 8C9.08541 8.76191 9.54717 10.5905 9.22123 11.8095C9.08543 12.3175 8.65105 13.3333 8 13.3333M23.1863 8C22.9145 8.76191 22.4528 10.5905 22.7788 11.8095C22.9145 12.3175 23.3489 13.3333 24 13.3333" stroke="black" stroke-width="2" stroke-linecap="round"/>
</svg>
