<svg width="20" height="20" viewBox="0 0 20 20" fill="none" xmlns="http://www.w3.org/2000/svg">
<path opacity="0.4" d="M8.942 5.06947C9.12142 3.4653 7.81064 1.875 5.47572 1.875C2.92341 1.875 1.04126 4.32003 1.04126 7.08333C1.04126 8.44617 1.38531 9.726 2.05929 10.6839C2.74344 11.6562 3.77013 12.2917 5.05256 12.2917C6.74103 12.2917 7.76628 10.9585 7.58775 9.66892V7.30873C8.01333 7.12338 8.30733 6.76693 8.49317 6.44397C8.76267 5.97552 8.89533 5.4373 8.94092 5.0788L8.942 5.06947Z" fill="black"/>
<path opacity="0.4" d="M11.058 5.06947C10.8786 3.4653 12.1893 1.875 14.5242 1.875C17.0766 1.875 18.9587 4.32003 18.9587 7.08333C18.9587 8.44617 18.6147 9.726 17.9407 10.6839C17.2566 11.6562 16.2298 12.2917 14.9474 12.2917C13.259 12.2917 12.2337 10.9585 12.4122 9.66892V7.30873C11.9867 7.12338 11.6927 6.76693 11.5068 6.44397C11.2373 5.97552 11.1047 5.4373 11.0591 5.0788L11.058 5.06947Z" fill="black"/>
<path fill-rule="evenodd" clip-rule="evenodd" d="M5.29875 4.41146C5.62388 4.29555 5.98143 4.46516 6.09733 4.79029C6.19447 5.06275 6.31933 5.50588 6.3937 5.98828C6.39787 6.01529 6.40191 6.04265 6.40581 6.07035C6.96827 6.12929 7.59551 6.29476 8.13607 6.70128C8.905 7.27952 9.37492 8.24817 9.37492 9.70017C9.37492 11.1652 9.0875 12.2913 8.84667 13.2352C8.78725 13.4678 8.73075 13.6893 8.682 13.9022C8.43983 14.96 8.35092 15.9024 8.9115 17.2619C9.04308 17.581 8.89108 17.9464 8.572 18.078C8.25287 18.2096 7.88751 18.0576 7.75592 17.7384C7.06566 16.0646 7.18486 14.8404 7.46352 13.6232C7.52157 13.3697 7.58465 13.1213 7.64804 12.8717C7.88434 11.9412 8.12495 10.9938 8.12495 9.70017C8.12495 8.53192 7.76165 7.98374 7.38476 7.70029C7.1137 7.49645 6.77647 7.38388 6.41338 7.33081C6.40093 7.40244 6.38561 7.47318 6.36706 7.54256C6.31265 7.74605 6.20078 8.04951 6.02597 8.31768C5.87472 8.54967 5.54216 8.9585 5 8.9585C4.65483 8.9585 4.375 8.67867 4.375 8.3335C4.375 8.01571 4.61219 7.75331 4.9192 7.71368C4.93373 7.69797 4.95422 7.67279 4.97882 7.63505C5.06269 7.50639 5.129 7.33367 5.15947 7.21969C5.22782 6.96407 5.22172 6.59014 5.1583 6.17874C5.09686 5.78019 4.99255 5.41378 4.91992 5.21004C4.80401 4.88491 4.97362 4.52738 5.29875 4.41146Z" fill="black"/>
<path fill-rule="evenodd" clip-rule="evenodd" d="M14.7012 4.41146C14.3761 4.29555 14.0186 4.46516 13.9026 4.79029C13.8055 5.06275 13.6806 5.50588 13.6063 5.98828C13.6021 6.01529 13.5981 6.04265 13.5941 6.07035C13.0317 6.12929 12.4045 6.29476 11.8639 6.70128C11.095 7.27952 10.6251 8.24817 10.6251 9.70017C10.6251 11.1652 10.9125 12.2913 11.1533 13.2352C11.2127 13.4678 11.2692 13.6893 11.318 13.9022C11.5601 14.96 11.6491 15.9024 11.0885 17.2619C10.9569 17.581 11.1089 17.9464 11.428 18.078C11.7471 18.2096 12.1125 18.0576 12.2441 17.7384C12.9343 16.0646 12.8151 14.8404 12.5365 13.6232C12.4784 13.3697 12.4153 13.1213 12.3519 12.8717C12.1156 11.9412 11.8751 10.9938 11.8751 9.70017C11.8751 8.53192 12.2383 7.98374 12.6152 7.70029C12.8863 7.49645 13.2235 7.38388 13.5866 7.33081C13.5991 7.40244 13.6144 7.47318 13.6329 7.54256C13.6873 7.74605 13.7992 8.04951 13.974 8.31768C14.1252 8.54967 14.4578 8.9585 15 8.9585C15.3451 8.9585 15.625 8.67867 15.625 8.3335C15.625 8.01571 15.3878 7.75331 15.0808 7.71368C15.0662 7.69797 15.0457 7.67279 15.0211 7.63505C14.9373 7.50639 14.871 7.33367 14.8405 7.21969C14.7721 6.96407 14.7782 6.59014 14.8416 6.17874C14.9031 5.78019 15.0074 5.41378 15.0801 5.21004C15.196 4.88491 15.0264 4.52738 14.7012 4.41146Z" fill="black"/>
</svg>
