<svg width="32" height="32" viewBox="0 0 32 32" fill="none" xmlns="http://www.w3.org/2000/svg">
<path opacity="0.4" d="M14.3072 8.11115C14.5943 5.54448 12.497 3 8.76115 3C4.67746 3 1.66602 6.91205 1.66602 11.3333C1.66602 13.5139 2.2165 15.5616 3.29487 17.0943C4.38951 18.65 6.0322 19.6667 8.0841 19.6667C10.7857 19.6667 12.426 17.5336 12.1404 15.4703V11.694C12.8213 11.3974 13.2917 10.8271 13.5891 10.3104C14.0203 9.56083 14.2325 8.69968 14.3055 8.12608L14.3072 8.11115Z" fill="black"/>
<path opacity="0.4" d="M17.6928 8.11115C17.4057 5.54448 19.5029 3 23.2388 3C27.3225 3 30.334 6.91205 30.334 11.3333C30.334 13.5139 29.7834 15.5616 28.705 17.0943C27.6105 18.65 25.9677 19.6667 23.9158 19.6667C21.2144 19.6667 19.574 17.5336 19.8596 15.4703V11.694C19.1786 11.3974 18.7082 10.8271 18.4109 10.3104C17.9797 9.56083 17.7674 8.69968 17.6945 8.12608L17.6928 8.11115Z" fill="black"/>
<path fill-rule="evenodd" clip-rule="evenodd" d="M8.478 7.05834C8.99821 6.87288 9.57028 7.14426 9.75573 7.66447C9.91115 8.1004 10.1109 8.8094 10.2299 9.58124C10.2366 9.62446 10.2431 9.66824 10.2493 9.71256C11.1492 9.80686 12.1528 10.0716 13.0177 10.722C14.248 11.6472 14.9999 13.1971 14.9999 15.5203C14.9999 17.8643 14.54 19.666 14.1547 21.1763C14.0596 21.5485 13.9692 21.9029 13.8912 22.2435C13.5037 23.936 13.3615 25.4439 14.2584 27.6191C14.4689 28.1296 14.2257 28.7143 13.7152 28.9248C13.2046 29.1353 12.62 28.8921 12.4095 28.3815C11.3051 25.7033 11.4958 23.7447 11.9416 21.7971C12.0345 21.3915 12.1354 20.994 12.2369 20.5947C12.6149 19.1059 12.9999 17.59 12.9999 15.5203C12.9999 13.6511 12.4186 12.774 11.8156 12.3205C11.3819 11.9943 10.8423 11.8142 10.2614 11.7293C10.2415 11.8439 10.217 11.9571 10.1873 12.0681C10.1002 12.3937 9.92125 12.8792 9.64155 13.3083C9.39955 13.6795 8.86745 14.3336 8 14.3336C7.44772 14.3336 7 13.8859 7 13.3336C7 12.8251 7.37951 12.4053 7.87072 12.3419C7.89397 12.3168 7.92675 12.2765 7.96612 12.2161C8.10031 12.0102 8.2064 11.7339 8.25516 11.5515C8.36452 11.1425 8.35475 10.5442 8.25328 9.88598C8.15497 9.2483 7.98808 8.66204 7.87187 8.33607C7.68641 7.81586 7.95779 7.2438 8.478 7.05834Z" fill="black"/>
<path fill-rule="evenodd" clip-rule="evenodd" d="M23.522 7.05834C23.0017 6.87288 22.4297 7.14426 22.2443 7.66447C22.0888 8.1004 21.8891 8.8094 21.7701 9.58124C21.7635 9.62446 21.7569 9.66824 21.7507 9.71256C20.8508 9.80686 19.8472 10.0716 18.9823 10.722C17.752 11.6472 17.0001 13.1971 17.0001 15.5203C17.0001 17.8643 17.46 19.666 17.8453 21.1763C17.9404 21.5485 18.0308 21.9029 18.1088 22.2435C18.4963 23.936 18.6385 25.4439 17.7416 27.6191C17.5311 28.1296 17.7743 28.7143 18.2848 28.9248C18.7955 29.1353 19.38 28.8921 19.5905 28.3815C20.6949 25.7033 20.5043 23.7447 20.0584 21.7971C19.9655 21.3915 19.8645 20.994 19.7631 20.5947C19.3851 19.1059 19.0001 17.59 19.0001 15.5203C19.0001 13.6511 19.5813 12.774 20.1844 12.3205C20.6181 11.9943 21.1576 11.8142 21.7385 11.7293C21.7585 11.8439 21.7831 11.9571 21.8127 12.0681C21.8997 12.3937 22.0788 12.8792 22.3584 13.3083C22.6004 13.6795 23.1325 14.3336 24 14.3336C24.5523 14.3336 25 13.8859 25 13.3336C25 12.8251 24.6205 12.4053 24.1293 12.3419C24.106 12.3168 24.0732 12.2765 24.0339 12.2161C23.8997 12.0102 23.7936 11.7339 23.7448 11.5515C23.6355 11.1425 23.6452 10.5442 23.7467 9.88598C23.8451 9.2483 24.0119 8.66204 24.1281 8.33607C24.3136 7.81586 24.0423 7.2438 23.522 7.05834Z" fill="black"/>
</svg>
