<svg width="28" height="28" viewBox="0 0 28 28" fill="none" xmlns="http://www.w3.org/2000/svg">
<path opacity="0.4" d="M7.07444 16.3333C4.12897 16.3333 2.33362 13.4605 2.33362 9.91667C2.33362 6.37283 4.72139 3.5 7.66686 3.5C10.5055 3.5 11.8336 5.35961 11.6501 7L9.70897 13.4167C10.0544 14.7229 9.05294 16.3333 7.07444 16.3333Z" fill="black"/>
<path opacity="0.4" d="M20.9258 16.3333C23.8713 16.3333 25.6667 13.4605 25.6667 9.91667C25.6667 6.37283 23.2788 3.5 20.3335 3.5C17.4947 3.5 16.1667 5.35961 16.3501 7L18.2913 13.4167C17.9459 14.7229 18.9474 16.3333 20.9258 16.3333Z" fill="black"/>
<path d="M11.6498 7C11.8333 5.35961 10.5052 3.5 7.66655 3.5C4.72109 3.5 2.33331 6.37283 2.33331 9.91667C2.33331 13.4605 4.12867 16.3333 7.07413 16.3333C8.95993 16.3333 9.95809 14.8702 9.7484 13.602" stroke="black" stroke-width="1.75" stroke-linecap="round"/>
<path d="M8.16669 9.33337C9.91676 9.33291 12.2499 9.91169 12.2499 13.58C12.2499 18.4334 9.91601 20.2534 11.6673 24.5M19.8334 9.33337C18.0832 9.33291 15.7501 9.91169 15.7501 13.58C15.7501 18.4334 18.0841 20.2534 16.3328 24.5" stroke="black" stroke-width="1.75" stroke-linecap="round"/>
<path d="M7.71208 7C7.94974 7.66667 8.35378 9.26667 8.06857 10.3333C7.94975 10.7778 7.56967 11.6667 7 11.6667" stroke="black" stroke-width="1.75" stroke-linecap="round"/>
<path d="M16.35 7C16.1666 5.35961 17.4946 3.5 20.3332 3.5C23.2787 3.5 25.6665 6.37283 25.6665 9.91667C25.6665 13.4605 23.8712 16.3333 20.9257 16.3333C18.9472 16.3333 17.9458 14.7229 18.2911 13.4167" stroke="black" stroke-width="1.75" stroke-linecap="round"/>
<path d="M20.288 7C20.0502 7.66667 19.6462 9.26667 19.9314 10.3333C20.0502 10.7778 20.4303 11.6667 21 11.6667" stroke="black" stroke-width="1.75" stroke-linecap="round"/>
</svg>
