<svg width="28" height="28" viewBox="0 0 28 28" fill="none" xmlns="http://www.w3.org/2000/svg">
<path opacity="0.4" d="M12.5188 7.09725C12.77 4.85142 10.9349 2.625 7.66601 2.625C4.09277 2.625 1.45776 6.04805 1.45776 9.91667C1.45776 11.8246 1.93943 13.6164 2.88301 14.9575C3.84082 16.3187 5.27818 17.2083 7.07358 17.2083C9.43745 17.2083 10.8728 15.3419 10.6229 13.5365V10.2322C11.2187 9.97274 11.6303 9.47371 11.8904 9.02156C12.2677 8.36572 12.4535 7.61222 12.5173 7.11032L12.5188 7.09725Z" fill="black"/>
<path opacity="0.4" d="M15.4812 7.09725C15.23 4.85142 17.0651 2.625 20.334 2.625C23.9072 2.625 26.5423 6.04805 26.5423 9.91667C26.5423 11.8246 26.0605 13.6164 25.1169 14.9575C24.1592 16.3187 22.7218 17.2083 20.9264 17.2083C18.5626 17.2083 17.1273 15.3419 17.3772 13.5365V10.2322C16.7813 9.97274 16.3697 9.47371 16.1096 9.02156C15.7323 8.36572 15.5465 7.61222 15.4827 7.11032L15.4812 7.09725Z" fill="black"/>
<path fill-rule="evenodd" clip-rule="evenodd" d="M7.41825 6.17605C7.87344 6.01377 8.374 6.25123 8.53627 6.70641C8.67225 7.08785 8.84707 7.70823 8.95118 8.38359C8.95701 8.4214 8.96267 8.45971 8.96813 8.49849C9.75557 8.581 10.6337 8.81266 11.3905 9.38179C12.467 10.1913 13.1249 11.5474 13.1249 13.5802C13.1249 15.6312 12.7225 17.2078 12.3853 18.5292C12.3021 18.855 12.223 19.1651 12.1548 19.463C11.8158 20.944 11.6913 22.2634 12.4761 24.1667C12.6603 24.6134 12.4475 25.125 12.0008 25.3092C11.554 25.4934 11.0425 25.2806 10.8583 24.8338C9.89192 22.4904 10.0588 20.7766 10.4489 19.0724C10.5302 18.7175 10.6185 18.3698 10.7073 18.0203C11.0381 16.7176 11.3749 15.3913 11.3749 13.5802C11.3749 11.9447 10.8663 11.1772 10.3387 10.7804C9.95918 10.495 9.48705 10.3374 8.97874 10.2631C8.96131 10.3634 8.93985 10.4624 8.91388 10.5596C8.83771 10.8445 8.6811 11.2693 8.43635 11.6447C8.2246 11.9695 7.75902 12.5419 7 12.5419C6.51675 12.5419 6.125 12.1501 6.125 11.6669C6.125 11.222 6.45707 10.8546 6.88688 10.7991C6.90723 10.7772 6.9359 10.7419 6.97035 10.6891C7.08777 10.509 7.1806 10.2671 7.22326 10.1076C7.31895 9.7497 7.3104 9.2262 7.22162 8.65023C7.1356 8.09226 6.98957 7.57929 6.88788 7.29406C6.72561 6.83888 6.96306 6.33833 7.41825 6.17605Z" fill="black"/>
<path fill-rule="evenodd" clip-rule="evenodd" d="M20.5818 6.17605C20.1265 6.01377 19.626 6.25123 19.4637 6.70641C19.3277 7.08785 19.1529 7.70823 19.0489 8.38359C19.043 8.4214 19.0373 8.45971 19.0318 8.49849C18.2445 8.581 17.3663 8.81266 16.6095 9.38179C15.533 10.1913 14.8751 11.5474 14.8751 13.5802C14.8751 15.6312 15.2775 17.2078 15.6147 18.5292C15.6979 18.855 15.777 19.1651 15.8452 19.463C16.1842 20.944 16.3087 22.2634 15.5239 24.1667C15.3397 24.6134 15.5525 25.125 15.9992 25.3092C16.446 25.4934 16.9575 25.2806 17.1417 24.8338C18.1081 22.4904 17.9412 20.7766 17.5511 19.0724C17.4698 18.7175 17.3815 18.3698 17.2927 18.0203C16.9619 16.7176 16.6251 15.3913 16.6251 13.5802C16.6251 11.9447 17.1337 11.1772 17.6614 10.7804C18.0409 10.495 18.5129 10.3374 19.0212 10.2631C19.0387 10.3634 19.0602 10.4624 19.0861 10.5596C19.1623 10.8445 19.319 11.2693 19.5636 11.6447C19.7754 11.9695 20.241 12.5419 21 12.5419C21.4832 12.5419 21.875 12.1501 21.875 11.6669C21.875 11.222 21.543 10.8546 21.1132 10.7991C21.0928 10.7772 21.0641 10.7419 21.0296 10.6891C20.9123 10.509 20.8194 10.2671 20.7767 10.1076C20.681 9.7497 20.6896 9.2262 20.7783 8.65023C20.8644 8.09226 21.0104 7.57929 21.1121 7.29406C21.2744 6.83888 21.037 6.33833 20.5818 6.17605Z" fill="black"/>
</svg>
