<svg width="20" height="20" viewBox="0 0 20 20" fill="none" xmlns="http://www.w3.org/2000/svg">
<path d="M8.32127 5C8.4523 3.82829 7.50371 2.5 5.47608 2.5C3.37218 2.5 1.66663 4.55203 1.66663 7.08333C1.66663 9.61467 2.94903 11.6667 5.05293 11.6667C6.39993 11.6667 7.11289 10.6216 6.96312 9.71575" stroke="black" stroke-width="1.25" stroke-linecap="round"/>
<path d="M11.6787 5C11.5477 3.82829 12.4963 2.5 14.5239 2.5C16.6278 2.5 18.3333 4.55203 18.3333 7.08333C18.3333 9.61467 17.0509 11.6667 14.947 11.6667C13.5338 11.6667 12.8185 10.5163 13.0653 9.58333" stroke="black" stroke-width="1.25" stroke-linecap="round"/>
<path opacity="0.4" d="M5.83333 6.66667C7.08338 6.66633 8.74992 7.07975 8.74992 9.7C8.74992 13.1667 7.08285 14.4667 8.33375 17.5M14.1667 6.66667C12.9166 6.66633 11.2501 7.07975 11.2501 9.7C11.2501 13.1667 12.9172 14.4667 11.6663 17.5M5.50863 5C5.67838 5.47619 5.96698 6.61905 5.76327 7.38095C5.67839 7.69842 5.40691 8.33333 5 8.33333M14.4914 5C14.3216 5.47619 14.033 6.61905 14.2368 7.38095C14.3216 7.69842 14.5931 8.33333 15 8.33333" stroke="black" stroke-width="1.25" stroke-linecap="round"/>
</svg>
