<svg width="16" height="16" viewBox="0 0 16 16" fill="none" xmlns="http://www.w3.org/2000/svg">
<path opacity="0.4" d="M4.04254 9.33333C2.35941 9.33333 1.3335 7.69173 1.3335 5.66667C1.3335 3.64162 2.69794 2 4.38106 2C6.00316 2 6.76207 3.06263 6.65721 4L5.54798 7.66667C5.74536 8.41307 5.17311 9.33333 4.04254 9.33333Z" fill="black"/>
<path opacity="0.4" d="M11.9576 9.33333C13.6407 9.33333 14.6666 7.69173 14.6666 5.66667C14.6666 3.64162 13.3022 2 11.6191 2C9.99698 2 9.23811 3.06263 9.34291 4L10.4522 7.66667C10.2548 8.41307 10.827 9.33333 11.9576 9.33333Z" fill="black"/>
<path d="M6.65703 4C6.76185 3.06263 6.00298 2 4.38088 2C2.69776 2 1.33331 3.64162 1.33331 5.66667C1.33331 7.69173 2.35923 9.33333 4.04235 9.33333C5.11995 9.33333 5.69033 8.49727 5.57051 7.7726" stroke="black" stroke-linecap="round"/>
<path d="M4.66669 5.33337C5.66673 5.33311 6.99995 5.66384 6.99995 7.76004C6.99995 10.5334 5.6663 11.5734 6.66702 14M11.3334 5.33337C10.3333 5.33311 9.00009 5.66384 9.00009 7.76004C9.00009 10.5334 10.3338 11.5734 9.33302 14" stroke="black" stroke-linecap="round"/>
<path d="M4.4069 4C4.54271 4.38095 4.77359 5.29524 4.61061 5.90476C4.54271 6.15873 4.32553 6.66667 4 6.66667" stroke="black" stroke-linecap="round"/>
<path d="M9.34285 4C9.23805 3.06263 9.99692 2 11.619 2C13.3021 2 14.6666 3.64162 14.6666 5.66667C14.6666 7.69173 13.6407 9.33333 11.9575 9.33333C10.827 9.33333 10.2547 8.41307 10.4521 7.66667" stroke="black" stroke-linecap="round"/>
<path d="M11.5931 4C11.4572 4.38095 11.2264 5.29524 11.3894 5.90476C11.4572 6.15873 11.6744 6.66667 12 6.66667" stroke="black" stroke-linecap="round"/>
</svg>
