<svg width="16" height="16" viewBox="0 0 16 16" fill="none" xmlns="http://www.w3.org/2000/svg">
<path d="M6.65703 4C6.76185 3.06263 6.00298 2 4.38088 2C2.69776 2 1.33331 3.64162 1.33331 5.66667C1.33331 7.69173 2.35923 9.33333 4.04235 9.33333C5.11995 9.33333 5.69033 8.49727 5.57051 7.7726" stroke="black" stroke-linecap="round"/>
<path d="M9.34291 4C9.23811 3.06263 9.99698 2 11.6191 2C13.3022 2 14.6666 3.64162 14.6666 5.66667C14.6666 7.69173 13.6407 9.33333 11.9576 9.33333C10.827 9.33333 10.2548 8.41307 10.4522 7.66667" stroke="black" stroke-linecap="round"/>
<path opacity="0.4" d="M4.66667 5.33333C5.66671 5.33307 6.99993 5.6638 6.99993 7.76C6.99993 10.5333 5.66628 11.5733 6.667 14M11.3333 5.33333C10.3333 5.33307 9.00007 5.6638 9.00007 7.76C9.00007 10.5333 10.3337 11.5733 9.333 14M4.4069 4C4.54271 4.38095 4.77359 5.29524 4.61061 5.90476C4.54271 6.15873 4.32553 6.66667 4 6.66667M11.5931 4C11.4573 4.38095 11.2264 5.29524 11.3894 5.90476C11.4573 6.15873 11.6745 6.66667 12 6.66667" stroke="black" stroke-linecap="round"/>
</svg>
