<svg width="16" height="16" viewBox="0 0 16 16" fill="none" xmlns="http://www.w3.org/2000/svg">
<path opacity="0.4" d="M7.1536 4.05557C7.29713 2.77224 6.24851 1.5 4.38057 1.5C2.33873 1.5 0.833008 3.45603 0.833008 5.66667C0.833008 6.75693 1.10825 7.7808 1.64743 8.54713C2.19475 9.325 3.0161 9.83333 4.04205 9.83333C5.39283 9.83333 6.21302 8.7668 6.0702 7.73513V5.84699C6.41066 5.69871 6.64587 5.41355 6.79453 5.15518C7.01013 4.78041 7.11627 4.34984 7.15273 4.06304L7.1536 4.05557Z" fill="black"/>
<path opacity="0.4" d="M8.84642 4.05557C8.70288 2.77224 9.75148 1.5 11.6194 1.5C13.6613 1.5 15.167 3.45603 15.167 5.66667C15.167 6.75693 14.8918 7.7808 14.3526 8.54713C13.8053 9.325 12.9839 9.83333 11.958 9.83333C10.6072 9.83333 9.78702 8.7668 9.92982 7.73513V5.84699C9.58935 5.69871 9.35415 5.41355 9.20548 5.15518C8.98988 4.78041 8.88375 4.34984 8.84728 4.06304L8.84642 4.05557Z" fill="black"/>
<path fill-rule="evenodd" clip-rule="evenodd" d="M4.239 3.52917C4.49911 3.43644 4.78514 3.57213 4.87787 3.83224C4.95557 4.0502 5.05547 4.4047 5.11496 4.79062C5.11829 4.81223 5.12153 4.83412 5.12465 4.85628C5.57461 4.90343 6.07641 5.03581 6.50885 5.36102C7.124 5.82362 7.49993 6.59854 7.49993 7.76014C7.49993 8.93214 7.27 9.833 7.07733 10.5881C7.0298 10.7743 6.9846 10.9515 6.9456 11.1217C6.75187 11.968 6.68073 12.7219 7.1292 13.8095C7.23447 14.0648 7.11287 14.3571 6.8576 14.4624C6.6023 14.5677 6.31001 14.4461 6.20473 14.1907C5.65253 12.8517 5.74789 11.8723 5.97081 10.8985C6.01725 10.6957 6.06772 10.497 6.11843 10.2973C6.30747 9.55294 6.49996 8.795 6.49996 7.76014C6.49996 6.82554 6.20932 6.38699 5.90781 6.16024C5.69096 5.99716 5.42117 5.9071 5.13071 5.86465C5.12075 5.92196 5.10849 5.97854 5.09365 6.03405C5.05012 6.19684 4.96063 6.43961 4.82077 6.65414C4.69977 6.83974 4.43373 7.1668 4 7.1668C3.72386 7.1668 3.5 6.94294 3.5 6.6668C3.5 6.41257 3.68975 6.20265 3.93536 6.17094C3.94699 6.15838 3.96337 6.13824 3.98306 6.10804C4.05015 6.00512 4.1032 5.86694 4.12758 5.77576C4.18226 5.57126 4.17737 5.27212 4.12664 4.94299C4.07749 4.62415 3.99404 4.33102 3.93593 4.16804C3.84321 3.90793 3.97889 3.6219 4.239 3.52917Z" fill="black"/>
<path fill-rule="evenodd" clip-rule="evenodd" d="M11.761 3.52917C11.5009 3.43644 11.2149 3.57213 11.1221 3.83224C11.0444 4.0502 10.9445 4.4047 10.8851 4.79062C10.8817 4.81223 10.8785 4.83412 10.8753 4.85628C10.4254 4.90343 9.92359 5.03581 9.49113 5.36102C8.87599 5.82362 8.50006 6.59854 8.50006 7.76014C8.50006 8.93214 8.72999 9.833 8.92266 10.5881C8.97019 10.7743 9.01539 10.9515 9.05439 11.1217C9.24813 11.968 9.31926 12.7219 8.87079 13.8095C8.76553 14.0648 8.88713 14.3571 9.14239 14.4624C9.39773 14.5677 9.68999 14.4461 9.79526 14.1907C10.3475 12.8517 10.2521 11.8723 10.0292 10.8985C9.98273 10.6957 9.93226 10.497 9.88153 10.2973C9.69253 9.55294 9.50006 8.795 9.50006 7.76014C9.50006 6.82554 9.79066 6.38699 10.0922 6.16024C10.3091 5.99716 10.5788 5.9071 10.8693 5.86465C10.8793 5.92196 10.8915 5.97854 10.9063 6.03405C10.9499 6.19684 11.0394 6.43961 11.1792 6.65414C11.3002 6.83974 11.5663 7.1668 12 7.1668C12.2761 7.1668 12.5 6.94294 12.5 6.6668C12.5 6.41257 12.3103 6.20265 12.0647 6.17094C12.053 6.15838 12.0366 6.13824 12.0169 6.10804C11.9499 6.00512 11.8968 5.86694 11.8724 5.77576C11.8177 5.57126 11.8226 5.27212 11.8733 4.94299C11.9225 4.62415 12.0059 4.33102 12.0641 4.16804C12.1568 3.90793 12.0211 3.6219 11.761 3.52917Z" fill="black"/>
</svg>
