<svg width="28" height="28" viewBox="0 0 28 28" fill="none" xmlns="http://www.w3.org/2000/svg">
<path fill-rule="evenodd" clip-rule="evenodd" d="M10.6319 11.0404V10.2322C11.0146 10.0655 11.3213 9.80003 11.5607 9.5116C12.54 10.3332 13.1318 11.6524 13.1318 13.5802C13.1318 15.6313 12.7294 17.2078 12.3921 18.5292C12.309 18.8549 12.2298 19.165 12.1616 19.463C11.8225 20.944 11.698 22.2633 12.483 24.1666C12.6672 24.6134 12.4544 25.1249 12.0076 25.3092C11.5608 25.4934 11.0493 25.2806 10.8651 24.8337C9.89872 22.4904 10.0656 20.7765 10.4557 19.0724C10.537 18.7175 10.6253 18.3697 10.7141 18.0203C11.0449 16.7176 11.3817 15.3912 11.3817 13.5802C11.3817 12.2458 11.0432 11.4892 10.6319 11.0404Z" fill="black"/>
<path fill-rule="evenodd" clip-rule="evenodd" d="M7.66601 2.625C10.9349 2.625 12.77 4.85142 12.5188 7.09725L12.5173 7.11032C12.4535 7.61222 12.2677 8.36572 11.8904 9.02156C11.7976 9.1829 11.6855 9.35023 11.5526 9.51049C11.4997 9.46615 11.4456 9.42325 11.3905 9.38178C10.6337 8.81266 9.75556 8.581 8.96813 8.49849C8.96267 8.45971 8.95702 8.4214 8.95118 8.38358C8.84707 7.70822 8.67224 7.08785 8.53627 6.70641C8.37399 6.25122 7.87344 6.01377 7.41825 6.17604C6.96306 6.33832 6.7256 6.83887 6.88789 7.29406C6.98956 7.57928 7.13559 8.09226 7.22161 8.65023C7.31041 9.2262 7.31896 9.74968 7.22327 10.1076C7.1806 10.2671 7.08777 10.5089 6.97035 10.6891C6.93589 10.7419 6.90723 10.7772 6.88688 10.7991C6.45707 10.8546 6.125 11.222 6.125 11.6669C6.125 12.1501 6.51675 12.5419 7 12.5419C7.75902 12.5419 8.22459 11.9695 8.43636 11.6447C8.6811 11.2693 8.83771 10.8445 8.91388 10.5596C8.93985 10.4624 8.96131 10.3634 8.97874 10.2631C9.48706 10.3374 9.95918 10.495 10.3387 10.7804C10.435 10.8529 10.5307 10.9377 10.6229 11.0379V13.5365C10.8728 15.3419 9.43744 17.2083 7.07358 17.2083C5.27818 17.2083 3.84081 16.3187 2.88301 14.9575C1.93942 13.6164 1.45776 11.8246 1.45776 9.91667C1.45776 6.04805 4.09277 2.625 7.66601 2.625Z" fill="black"/>
<path fill-rule="evenodd" clip-rule="evenodd" d="M17.3746 11.0404V10.2322C16.9919 10.0655 16.6852 9.80003 16.4458 9.5116C15.4666 10.3332 14.8748 11.6524 14.8748 13.5802C14.8748 15.6313 15.2771 17.2078 15.6144 18.5292C15.6976 18.8549 15.7767 19.165 15.845 19.463C16.184 20.944 16.3085 22.2633 15.5237 24.1666C15.3393 24.6134 15.5522 25.1249 15.999 25.3092C16.4457 25.4934 16.9573 25.2806 17.1415 24.8337C18.1078 22.4904 17.9409 20.7765 17.5507 19.0724C17.4695 18.7175 17.3812 18.3697 17.2924 18.0203C16.9617 16.7176 16.6248 15.3912 16.6248 13.5802C16.6248 12.2458 16.9633 11.4892 17.3746 11.0404Z" fill="black"/>
<path fill-rule="evenodd" clip-rule="evenodd" d="M20.3363 2.625C17.0674 2.625 15.2322 4.85142 15.4834 7.09725L15.485 7.11032C15.5487 7.61222 15.7345 8.36572 16.1119 9.02156C16.2046 9.1829 16.3167 9.35023 16.4497 9.51049C16.5026 9.46615 16.5566 9.42325 16.6118 9.38178C17.3685 8.81266 18.2466 8.581 19.0341 8.49849C19.0396 8.45971 19.0452 8.4214 19.0511 8.38358C19.1552 7.70822 19.33 7.08785 19.466 6.70641C19.6282 6.25122 20.1288 6.01377 20.5841 6.17604C21.0392 6.33832 21.2766 6.83887 21.1144 7.29406C21.0127 7.57928 20.8666 8.09226 20.7806 8.65023C20.6919 9.2262 20.6833 9.74968 20.779 10.1076C20.8217 10.2671 20.9145 10.5089 21.0319 10.6891C21.0664 10.7419 21.0951 10.7772 21.1154 10.7991C21.5452 10.8546 21.8773 11.222 21.8773 11.6669C21.8773 12.1501 21.4855 12.5419 21.0023 12.5419C20.2433 12.5419 19.7777 11.9695 19.5659 11.6447C19.3211 11.2693 19.1646 10.8445 19.0884 10.5596C19.0624 10.4624 19.0409 10.3634 19.0235 10.2631C18.5152 10.3374 18.0431 10.495 17.6635 10.7804C17.5673 10.8529 17.4715 10.9377 17.3795 11.0379V13.5365C17.1294 15.3419 18.5648 17.2083 20.9287 17.2083C22.7241 17.2083 24.1614 16.3187 25.1192 14.9575C26.0628 13.6164 26.5444 11.8246 26.5444 9.91667C26.5444 6.04805 23.9095 2.625 20.3363 2.625Z" fill="black"/>
</svg>
