<svg width="16" height="16" viewBox="0 0 16 16" fill="none" xmlns="http://www.w3.org/2000/svg">
<path fill-rule="evenodd" clip-rule="evenodd" d="M6.07542 6.30877V5.84695C6.29411 5.75171 6.46936 5.6 6.60615 5.43518C7.16575 5.90467 7.50389 6.6585 7.50389 7.76009C7.50389 8.93216 7.27395 9.83303 7.08122 10.5881C7.03375 10.7742 6.98849 10.9514 6.94949 11.1217C6.75575 11.968 6.68462 12.7219 7.13315 13.8095C7.23842 14.0648 7.11682 14.3571 6.86149 14.4624C6.60621 14.5676 6.31392 14.446 6.20865 14.1907C5.65644 12.8516 5.75181 11.8723 5.97473 10.8985C6.02117 10.6957 6.07163 10.497 6.12235 10.2973C6.31138 9.55289 6.50388 8.79496 6.50388 7.76009C6.50388 6.99756 6.31041 6.56527 6.07542 6.30877Z" fill="black"/>
<path fill-rule="evenodd" clip-rule="evenodd" d="M4.38057 1.5C6.24851 1.5 7.29713 2.77224 7.1536 4.05557L7.15273 4.06304C7.11627 4.34984 7.01013 4.78041 6.79453 5.15518C6.74147 5.24737 6.6774 5.34299 6.60147 5.43457C6.57123 5.40923 6.54036 5.38471 6.50885 5.36102C6.07641 5.03581 5.57461 4.90343 5.12465 4.85628C5.12153 4.83412 5.11829 4.81223 5.11496 4.79062C5.05547 4.4047 4.95557 4.0502 4.87787 3.83223C4.78513 3.57213 4.49911 3.43644 4.239 3.52917C3.97889 3.6219 3.8432 3.90793 3.93593 4.16803C3.99403 4.33102 4.07748 4.62415 4.12663 4.94299C4.17737 5.27211 4.18226 5.57125 4.12758 5.77575C4.1032 5.86693 4.05015 6.00511 3.98305 6.10804C3.96337 6.13823 3.94699 6.15837 3.93536 6.17094C3.68975 6.20265 3.5 6.41257 3.5 6.6668C3.5 6.94293 3.72385 7.1668 4 7.1668C4.43373 7.1668 4.69977 6.83973 4.82077 6.65414C4.96063 6.43961 5.05012 6.19684 5.09365 6.03405C5.10849 5.97854 5.12075 5.92195 5.13071 5.86465C5.42118 5.9071 5.69096 5.99716 5.90781 6.16023C5.96287 6.20165 6.01757 6.25011 6.0702 6.30738V7.73513C6.21301 8.7668 5.39282 9.83333 4.04205 9.83333C3.0161 9.83333 2.19475 9.325 1.64743 8.54713C1.10824 7.7808 0.833008 6.75693 0.833008 5.66667C0.833008 3.45603 2.33873 1.5 4.38057 1.5Z" fill="black"/>
<path fill-rule="evenodd" clip-rule="evenodd" d="M9.92834 6.30877V5.84695C9.70968 5.75171 9.53441 5.6 9.39761 5.43518C8.83808 5.90467 8.49988 6.6585 8.49988 7.76009C8.49988 8.93216 8.72981 9.83303 8.92254 10.5881C8.97008 10.7742 9.01528 10.9514 9.05428 11.1217C9.24801 11.968 9.31914 12.7219 8.87068 13.8095C8.76534 14.0648 8.88701 14.3571 9.14228 14.4624C9.39754 14.5676 9.68988 14.446 9.79514 14.1907C10.3473 12.8516 10.2519 11.8723 10.029 10.8985C9.98261 10.6957 9.93214 10.497 9.88141 10.2973C9.69241 9.55289 9.49988 8.79496 9.49988 7.76009C9.49988 6.99756 9.69334 6.56527 9.92834 6.30877Z" fill="black"/>
<path fill-rule="evenodd" clip-rule="evenodd" d="M11.6207 1.5C9.75277 1.5 8.7041 2.77224 8.84764 4.05557L8.84857 4.06304C8.88497 4.34984 8.9911 4.78041 9.20677 5.15518C9.25977 5.24737 9.32384 5.34299 9.39984 5.43457C9.43004 5.40923 9.4609 5.38471 9.49244 5.36102C9.92484 5.03581 10.4266 4.90343 10.8766 4.85628C10.8798 4.83412 10.883 4.81223 10.8863 4.79062C10.9458 4.4047 11.0457 4.0502 11.1234 3.83223C11.2161 3.57213 11.5022 3.43644 11.7623 3.52917C12.0224 3.6219 12.158 3.90793 12.0654 4.16803C12.0072 4.33102 11.9238 4.62415 11.8746 4.94299C11.8239 5.27211 11.819 5.57125 11.8737 5.77575C11.8981 5.86693 11.9511 6.00511 12.0182 6.10804C12.0379 6.13823 12.0543 6.15837 12.0659 6.17094C12.3115 6.20265 12.5013 6.41257 12.5013 6.6668C12.5013 6.94293 12.2774 7.1668 12.0013 7.1668C11.5676 7.1668 11.3015 6.83973 11.1805 6.65414C11.0406 6.43961 10.9512 6.19684 10.9076 6.03405C10.8928 5.97854 10.8805 5.92195 10.8706 5.86465C10.5801 5.9071 10.3103 5.99716 10.0934 6.16023C10.0384 6.20165 9.9837 6.25011 9.9311 6.30738V7.73513C9.78824 8.7668 10.6084 9.83333 11.9592 9.83333C12.9852 9.83333 13.8065 9.325 14.3538 8.54713C14.893 7.7808 15.1682 6.75693 15.1682 5.66667C15.1682 3.45603 13.6626 1.5 11.6207 1.5Z" fill="black"/>
</svg>
