<svg width="28" height="28" viewBox="0 0 28 28" fill="none" xmlns="http://www.w3.org/2000/svg">
<path d="M13.9999 1.45831C17.0436 1.45831 19.8799 2.13226 22.2166 3.2949C23.2905 3.8292 24.05 4.1903 24.7198 5.27162C25.4004 6.37067 25.3749 7.46739 25.3749 9.03937V13.1102C25.3746 20.2695 19.6542 24.1773 16.5314 25.784L16.4893 25.8056C15.6519 26.2367 15.0593 26.5416 13.9999 26.5416C12.9405 26.5416 12.3489 26.2366 11.5116 25.8056L11.4683 25.784C8.3454 24.1773 2.625 20.2694 2.62485 13.1102V9.03937C2.62485 7.46742 2.59925 6.37065 3.27996 5.27162C3.94973 4.19028 4.70922 3.82918 5.78305 3.2949C8.11982 2.13225 10.9561 1.45834 13.9999 1.45831ZM18.5834 10.6504C18.344 10.0525 17.665 9.76086 17.0669 9.99982C15.332 10.6938 14.0107 12.0446 13.1556 13.1329C13.0499 13.2675 12.9487 13.3998 12.8548 13.5283C12.5908 13.2455 12.3156 13.0199 12.0505 12.8447C11.7129 12.6217 11.3999 12.4824 11.1629 12.397C11.0442 12.3542 10.8713 12.2979 10.7049 12.2682C10.071 12.1551 9.46502 12.5777 9.35141 13.2115C9.23818 13.8456 9.66075 14.4504 10.2948 14.5639C10.4533 14.5923 10.6052 14.6868 10.7642 14.7918C11.0693 14.9934 11.4747 15.3771 11.728 16.1248C11.8792 16.5705 12.2839 16.8821 12.7534 16.9143C13.2231 16.9465 13.6662 16.6917 13.8768 16.2707C13.9231 16.186 14.0553 15.9455 14.1503 15.7887C14.341 15.4736 14.6245 15.0404 14.9899 14.5754C15.7389 13.6222 16.7516 12.6394 17.9328 12.1668C18.5309 11.9275 18.8224 11.2485 18.5834 10.6504Z" fill="black"/>
</svg>
