<svg width="16" height="16" viewBox="0 0 16 16" fill="none" xmlns="http://www.w3.org/2000/svg">
<path opacity="0.4" d="M9.44659 14.7337C11.2311 13.8156 14.4999 11.5826 14.5 7.49154V5.16538C14.5 4.2671 14.5146 3.6404 14.1257 3.01238C13.7429 2.39445 13.3089 2.18814 12.6953 1.88282C11.36 1.21844 9.73925 0.833344 7.99999 0.833344C6.26068 0.833344 4.63998 1.21844 3.30467 1.88282C2.69101 2.18814 2.25707 2.39445 1.87433 3.01238C1.48533 3.6404 1.49997 4.2671 1.49998 5.16538V7.49154C1.50007 11.5826 4.76888 13.8156 6.55336 14.7337L6.57783 14.7463C7.05632 14.9926 7.39459 15.1667 7.99999 15.1667C8.60539 15.1667 8.94359 14.9926 9.42212 14.7463L9.44659 14.7337Z" fill="black"/>
<path d="M10.6191 6.08614C10.4824 5.74435 10.0944 5.57781 9.7526 5.71439C8.76113 6.11096 8.0062 6.88286 7.5176 7.50472C7.45707 7.58172 7.3994 7.65719 7.34567 7.73066C7.1948 7.56899 7.0376 7.44019 6.88607 7.34006C6.69307 7.21252 6.51431 7.13299 6.37889 7.08419C6.31105 7.05972 6.21233 7.02759 6.11718 7.01059C5.75483 6.94592 5.40858 7.18732 5.34374 7.54966C5.27903 7.91199 5.52045 8.25759 5.8828 8.32246C5.97347 8.33866 6.06015 8.39259 6.15103 8.45266C6.32542 8.56792 6.55705 8.78699 6.7018 9.21439C6.7882 9.46906 7.0194 9.64712 7.28773 9.66559C7.55613 9.68392 7.8094 9.53832 7.92967 9.29772C7.95607 9.24946 8.03167 9.11199 8.08593 9.02232C8.19493 8.84219 8.35687 8.59479 8.56573 8.32899C8.99373 7.78426 9.57233 7.22279 10.2474 6.95266C10.5892 6.81599 10.7557 6.42794 10.6191 6.08614Z" fill="black"/>
</svg>
