<svg width="20" height="20" viewBox="0 0 20 20" fill="none" xmlns="http://www.w3.org/2000/svg">
<path d="M15.5907 2.9128C14.0137 2.1282 12.0841 1.66669 10 1.66669C7.91592 1.66669 5.98625 2.1282 4.4093 2.9128C3.63598 3.29757 3.24932 3.48995 2.87467 4.09484C2.5 4.69973 2.5 5.28542 2.5 6.4568V9.36427C2.5 14.1004 6.2853 16.7337 8.4775 17.8615C9.08892 18.1761 9.39458 18.3334 10 18.3334C10.6054 18.3334 10.9111 18.1761 11.5224 17.8615C13.7147 16.7337 17.5 14.1004 17.5 9.36427V6.4568C17.5 5.28543 17.5 4.69974 17.1253 4.09484C16.7507 3.48995 16.364 3.29757 15.5907 2.9128Z" stroke="black" stroke-width="1.25" stroke-linecap="round" stroke-linejoin="round"/>
<path opacity="0.4" d="M7.5 9.58335C7.5 9.58335 8.67325 9.79327 9.16667 11.25C9.16667 11.25 10.4167 8.75002 12.5 7.91669" stroke="black" stroke-width="1.25" stroke-linecap="round" stroke-linejoin="round"/>
</svg>
