<svg width="16" height="16" viewBox="0 0 16 16" fill="none" xmlns="http://www.w3.org/2000/svg">
<path d="M7.99993 0.833313C9.7392 0.833313 11.3599 1.21843 12.6952 1.88279C13.3089 2.18811 13.7429 2.39445 14.1256 3.01235C14.5145 3.64037 14.4999 4.26707 14.4999 5.16535V7.49151C14.4998 11.5826 11.231 13.8156 9.44653 14.7337L9.42247 14.746C8.94393 14.9924 8.60533 15.1666 7.99993 15.1666C7.3946 15.1666 7.05653 14.9923 6.57805 14.746L6.55331 14.7337C4.76881 13.8156 1.50001 11.5825 1.49992 7.49151V5.16535C1.49992 4.26709 1.48529 3.64036 1.87427 3.01235C2.25699 2.39444 2.69099 2.18809 3.30461 1.88279C4.6399 1.21842 6.26065 0.833326 7.99993 0.833313ZM10.6191 6.08592C10.4823 5.74427 10.0943 5.57763 9.75253 5.71417C8.76113 6.11073 8.00613 6.88265 7.51747 7.50451C7.45707 7.58145 7.39927 7.65705 7.3456 7.73045C7.19473 7.56885 7.03747 7.43991 6.886 7.33985C6.69307 7.21238 6.51421 7.13278 6.37883 7.08398C6.31099 7.05951 6.2122 7.02738 6.11711 7.01038C5.75486 6.94578 5.40859 7.18725 5.34367 7.54945C5.27897 7.91178 5.52043 8.25738 5.88273 8.32225C5.97335 8.33845 6.06013 8.39245 6.15096 8.45245C6.32532 8.56765 6.55697 8.78691 6.70173 9.21418C6.78813 9.46885 7.0194 9.64691 7.28767 9.66531C7.55607 9.68371 7.80927 9.53811 7.9296 9.29751C7.95607 9.24911 8.0316 9.11171 8.08587 9.02211C8.19487 8.84205 8.35687 8.59451 8.56567 8.32878C8.99367 7.78411 9.57233 7.22251 10.2473 6.95245C10.5891 6.81571 10.7557 6.42771 10.6191 6.08592Z" fill="black"/>
</svg>
