<svg width="32" height="32" viewBox="0 0 32 32" fill="none" xmlns="http://www.w3.org/2000/svg">
<path d="M15.9999 1.66669C19.4784 1.66669 22.7199 2.43691 25.3904 3.76565C26.6177 4.37627 27.4857 4.78895 28.2512 6.02475C29.0291 7.28081 28.9999 8.53421 28.9999 10.3308V14.9831C28.9996 23.1652 22.462 27.6312 18.8931 29.4675L18.8449 29.4922C17.8879 29.9848 17.2107 30.3334 15.9999 30.3334C14.7892 30.3334 14.1131 29.9847 13.1561 29.4922L13.1066 29.4675C9.53761 27.6312 3.00001 23.1651 2.99984 14.9831V10.3308C2.99984 8.53423 2.97058 7.28078 3.74853 6.02475C4.51398 4.78894 5.38197 4.37625 6.60921 3.76565C9.2798 2.4369 12.5213 1.66671 15.9999 1.66669ZM21.2381 12.1719C20.9645 11.4886 20.1885 11.1553 19.5051 11.4284C17.5223 12.2215 16.0123 13.7654 15.0349 15.0091C14.9141 15.163 14.7985 15.3142 14.6912 15.461C14.3895 15.1378 14.0749 14.8799 13.772 14.6798C13.3861 14.4248 13.0284 14.2656 12.7577 14.168C12.622 14.1191 12.4244 14.0548 12.2342 14.0208C11.5097 13.8916 10.8172 14.3746 10.6873 15.099C10.5579 15.8236 11.0409 16.5148 11.7655 16.6446C11.9467 16.677 12.1203 16.785 12.3019 16.905C12.6506 17.1354 13.1139 17.5739 13.4035 18.4284C13.5763 18.9378 14.0388 19.2939 14.5753 19.3307C15.1121 19.3675 15.6185 19.0763 15.8592 18.5951C15.9121 18.4983 16.0632 18.2235 16.1717 18.0443C16.3897 17.6842 16.7137 17.1891 17.1313 16.6576C17.9873 15.5683 19.1447 14.4451 20.4947 13.905C21.1781 13.6315 21.5113 12.8555 21.2381 12.1719Z" fill="black"/>
</svg>
