<svg width="28" height="28" viewBox="0 0 28 28" fill="none" xmlns="http://www.w3.org/2000/svg">
<path opacity="0.4" d="M16.5315 25.784C19.6544 24.1773 25.3749 20.2696 25.375 13.1102V9.0394C25.375 7.46742 25.4005 6.3707 24.7199 5.27165C24.0501 4.19028 23.2906 3.82924 22.2168 3.29493C19.88 2.13227 17.0437 1.45834 14 1.45834C10.9562 1.45834 8.11998 2.13226 5.78318 3.29493C4.70928 3.82924 3.94988 4.19028 3.28008 5.27165C2.59934 6.3707 2.62496 7.46742 2.62498 9.0394V13.1102C2.62513 20.2696 8.34555 24.1773 11.4684 25.784L11.5112 25.8061C12.3486 26.2371 12.9405 26.5417 14 26.5417C15.0594 26.5417 15.6513 26.2371 16.4887 25.8061L16.5315 25.784Z" fill="black"/>
<path d="M18.5835 10.6507C18.3442 10.0526 17.6652 9.76117 17.067 10.0002C15.332 10.6942 14.0108 12.045 13.1558 13.1333C13.0499 13.268 12.949 13.4001 12.8549 13.5287C12.5909 13.2457 12.3158 13.0203 12.0506 12.8451C11.7129 12.6219 11.4 12.4827 11.1631 12.3973C11.0443 12.3545 10.8716 12.2983 10.7051 12.2685C10.0709 12.1554 9.46501 12.5778 9.35154 13.2119C9.23831 13.846 9.66078 14.4508 10.2949 14.5643C10.4536 14.5927 10.6053 14.687 10.7643 14.7922C11.0695 14.9939 11.4748 15.3772 11.7281 16.1252C11.8793 16.5709 12.2839 16.8825 12.7535 16.9148C13.2232 16.9469 13.6664 16.6921 13.8769 16.271C13.9231 16.1866 14.0554 15.946 14.1504 15.7891C14.3411 15.4738 14.6245 15.0409 14.99 14.5757C15.739 13.6225 16.7516 12.6399 17.933 12.1672C18.5311 11.928 18.8225 11.2489 18.5835 10.6507Z" fill="black"/>
</svg>
