<svg width="24" height="24" viewBox="0 0 24 24" fill="none" xmlns="http://www.w3.org/2000/svg">
<path d="M11.9999 1.25C14.6088 1.25 17.0399 1.82767 19.0428 2.82422C19.9633 3.28219 20.6143 3.5917 21.1884 4.51855C21.7718 5.46059 21.7499 6.40064 21.7499 7.74805V11.2373C21.7497 17.3739 16.8465 20.7234 14.1698 22.1006L14.1337 22.1191C13.4159 22.4886 12.908 22.75 11.9999 22.75C11.0919 22.75 10.5848 22.4885 9.86708 22.1191L9.82997 22.1006C7.15322 20.7234 2.25002 17.3738 2.24989 11.2373V7.74805C2.24989 6.40066 2.22795 5.46057 2.81141 4.51855C3.3855 3.59169 4.03649 3.28217 4.95692 2.82422C6.95986 1.82766 9.39098 1.25002 11.9999 1.25ZM15.9286 9.12891C15.7234 8.61644 15.1414 8.36647 14.6288 8.57129C13.1417 9.16612 12.0092 10.324 11.2762 11.2568C11.1856 11.3722 11.0989 11.4856 11.0184 11.5957C10.7921 11.3533 10.5562 11.1599 10.329 11.0098C10.0396 10.8186 9.77132 10.6992 9.56825 10.626C9.46649 10.5893 9.31831 10.5411 9.17567 10.5156C8.6323 10.4187 8.11289 10.7809 8.01551 11.3242C7.91846 11.8677 8.28066 12.3861 8.82411 12.4834C8.96003 12.5077 9.0902 12.5887 9.22645 12.6787C9.48799 12.8515 9.83547 13.1804 10.0526 13.8213C10.1822 14.2033 10.5291 14.4704 10.9315 14.498C11.3341 14.5256 11.7139 14.3072 11.8944 13.9463C11.9341 13.8737 12.0474 13.6676 12.1288 13.5332C12.2923 13.2631 12.5353 12.8918 12.8485 12.4932C13.4905 11.6762 14.3585 10.8338 15.371 10.4287C15.8836 10.2236 16.1335 9.6416 15.9286 9.12891Z" fill="black"/>
</svg>
