<svg width="20" height="20" viewBox="0 0 20 20" fill="none" xmlns="http://www.w3.org/2000/svg">
<path d="M9.99992 1.04169C12.174 1.04169 14.1999 1.52308 15.869 2.35354C16.6361 2.73518 17.1786 2.9931 17.657 3.76548C18.1432 4.55051 18.1249 5.33389 18.1249 6.45673V9.36444C18.1248 14.4783 14.0388 17.2695 11.8082 18.4172L11.7781 18.4326C11.1799 18.7405 10.7567 18.9584 9.99992 18.9584C9.24326 18.9584 8.82067 18.7404 8.22256 18.4326L8.19164 18.4172C5.96101 17.2695 1.87501 14.4782 1.87491 9.36444V6.45673C1.87491 5.3339 1.85662 4.5505 2.34284 3.76548C2.82125 2.9931 3.36374 2.73516 4.13076 2.35354C5.79988 1.52307 7.82581 1.0417 9.99992 1.04169ZM13.2738 7.60745C13.1028 7.18039 12.6178 6.97208 12.1907 7.14276C10.9514 7.63845 10.0077 8.60335 9.39684 9.38069C9.32134 9.47685 9.24909 9.57135 9.18201 9.6631C8.99342 9.4611 8.79684 9.29994 8.60751 9.17485C8.36634 9.01552 8.14276 8.91602 7.97354 8.85502C7.88874 8.82444 7.76526 8.78427 7.64639 8.76302C7.19358 8.68227 6.76074 8.9841 6.67959 9.43685C6.59871 9.88977 6.90055 10.3218 7.35342 10.4029C7.46669 10.4231 7.57516 10.4906 7.68871 10.5656C7.90666 10.7096 8.19622 10.9837 8.37717 11.5178C8.48517 11.8361 8.77426 12.0587 9.10959 12.0817C9.44509 12.1047 9.76159 11.9227 9.91201 11.6219C9.94509 11.5614 10.0395 11.3897 10.1073 11.2777C10.2436 11.0526 10.4461 10.7432 10.7071 10.411C11.2421 9.73019 11.9654 9.02819 12.8092 8.6906C13.2363 8.51969 13.4446 8.03469 13.2738 7.60745Z" fill="black"/>
</svg>
