<svg width="16" height="16" viewBox="0 0 16 16" fill="none" xmlns="http://www.w3.org/2000/svg">
<path opacity="0.4" d="M12.4725 2.33021C11.211 1.70253 9.66727 1.33331 8 1.33331C6.33273 1.33331 4.789 1.70253 3.52744 2.33021C2.90879 2.63802 2.59946 2.79193 2.29973 3.27583C2 3.75975 2 4.2283 2 5.16541V7.49138C2 11.2803 5.02824 13.3869 6.782 14.2892C7.27113 14.5408 7.51567 14.6666 8 14.6666C8.48433 14.6666 8.72887 14.5408 9.21793 14.2892C10.9717 13.3869 14 11.2803 14 7.49138V5.16541C14 4.22831 14 3.75975 13.7003 3.27583C13.4005 2.79192 13.0912 2.63802 12.4725 2.33021Z" fill="black"/>
<path d="M12.4725 2.33021C11.211 1.70253 9.66727 1.33331 8 1.33331C6.33273 1.33331 4.789 1.70253 3.52744 2.33021C2.90879 2.63802 2.59946 2.79193 2.29973 3.27583C2 3.75975 2 4.2283 2 5.16541V7.49138C2 11.2803 5.02824 13.3869 6.782 14.2892C7.27113 14.5408 7.51567 14.6666 8 14.6666C8.48433 14.6666 8.72887 14.5408 9.21793 14.2892C10.9717 13.3869 14 11.2803 14 7.49138V5.16541C14 4.22831 14 3.75975 13.7003 3.27583C13.4005 2.79192 13.0912 2.63802 12.4725 2.33021Z" stroke="black" stroke-linecap="round" stroke-linejoin="round"/>
<path d="M6 7.66665C6 7.66665 6.9386 7.83458 7.33333 8.99998C7.33333 8.99998 8.33333 6.99998 10 6.33331" stroke="black" stroke-linecap="round" stroke-linejoin="round"/>
</svg>
