<svg width="32" height="32" viewBox="0 0 32 32" fill="none" xmlns="http://www.w3.org/2000/svg">
<path opacity="0.4" d="M18.8932 29.4675C22.4621 27.6312 28.9998 23.1652 29 14.9831V10.3307C29 8.53418 29.0292 7.28078 28.2513 6.02472C27.4858 4.78887 26.6178 4.37626 25.3906 3.76562C22.72 2.43686 19.4785 1.66666 16 1.66666C12.5214 1.66666 9.27996 2.43684 6.60934 3.76562C5.38203 4.37626 4.51414 4.78887 3.74866 6.02472C2.97067 7.28078 2.99995 8.53418 2.99996 10.3307V14.9831C3.00014 23.1652 9.53776 27.6312 13.1067 29.4675L13.1557 29.4927C14.1126 29.9852 14.7892 30.3333 16 30.3333C17.2108 30.3333 17.8872 29.9852 18.8442 29.4927L18.8932 29.4675Z" fill="black"/>
<path d="M21.2383 12.1723C20.9648 11.4887 20.1888 11.1556 19.5052 11.4288C17.5223 12.222 16.0124 13.7657 15.0352 15.0095C14.9141 15.1635 14.7988 15.3144 14.6913 15.4613C14.3896 15.138 14.0752 14.8804 13.7721 14.6801C13.3861 14.4251 13.0286 14.266 12.7578 14.1684C12.6221 14.1195 12.4247 14.0552 12.2344 14.0212C11.5097 13.8919 10.8172 14.3747 10.6875 15.0993C10.5581 15.824 11.0409 16.5152 11.7656 16.6449C11.9469 16.6773 12.1203 16.7852 12.3021 16.9053C12.6508 17.1359 13.1141 17.574 13.4036 18.4288C13.5764 18.9381 14.0388 19.2943 14.5755 19.3312C15.1123 19.3679 15.6188 19.0767 15.8593 18.5955C15.9121 18.4989 16.0633 18.224 16.1719 18.0447C16.3899 17.6844 16.7137 17.1896 17.1315 16.658C17.9875 15.5685 19.1447 14.4456 20.4948 13.9053C21.1784 13.632 21.5115 12.8559 21.2383 12.1723Z" fill="black"/>
</svg>
