<svg width="32" height="32" viewBox="0 0 32 32" fill="none" xmlns="http://www.w3.org/2000/svg">
<path d="M24.9451 4.66047C22.422 3.40511 19.3345 2.66669 16 2.66669C12.6655 2.66669 9.578 3.40511 7.05488 4.66047C5.81757 5.2761 5.19892 5.58391 4.59947 6.55173C4 7.51955 4 8.45666 4 10.3309V14.9828C4 22.5607 10.0565 26.7739 13.564 28.5784C14.5423 29.0818 15.0313 29.3334 16 29.3334C16.9687 29.3334 17.4577 29.0818 18.4359 28.5784C21.9435 26.7739 28 22.5607 28 14.9828V10.3309C28 8.45667 28 7.51957 27.4005 6.55173C26.8011 5.5839 26.1824 5.2761 24.9451 4.66047Z" stroke="black" stroke-width="2" stroke-linecap="round" stroke-linejoin="round"/>
<path opacity="0.4" d="M12 15.3334C12 15.3334 13.8772 15.6692 14.6667 18C14.6667 18 16.6667 14 20 12.6667" stroke="black" stroke-width="2" stroke-linecap="round" stroke-linejoin="round"/>
</svg>
