<svg width="28" height="28" viewBox="0 0 28 28" fill="none" xmlns="http://www.w3.org/2000/svg">
<path d="M21.8269 4.07788C19.6192 2.97944 16.9177 2.33331 14 2.33331C11.0823 2.33331 8.38075 2.97944 6.17302 4.07788C5.09038 4.61655 4.54905 4.88589 4.02453 5.73272C3.5 6.57957 3.5 7.39954 3.5 9.03948V13.1099C3.5 19.7406 8.79942 23.4271 11.8685 25.0061C12.7245 25.4465 13.1524 25.6666 14 25.6666C14.8476 25.6666 15.2755 25.4465 16.1314 25.0061C19.2005 23.4271 24.5 19.7406 24.5 13.1099V9.03948C24.5 7.39955 24.5 6.57958 23.9755 5.73272C23.4509 4.88588 22.9096 4.61655 21.8269 4.07788Z" stroke="black" stroke-width="1.75" stroke-linecap="round" stroke-linejoin="round"/>
<path opacity="0.4" d="M10.5 13.4166C10.5 13.4166 12.1425 13.7105 12.8333 15.75C12.8333 15.75 14.5833 12.25 17.5 11.0833" stroke="black" stroke-width="1.75" stroke-linecap="round" stroke-linejoin="round"/>
</svg>
