<svg width="20" height="20" viewBox="0 0 20 20" fill="none" xmlns="http://www.w3.org/2000/svg">
<path opacity="0.4" d="M11.8083 18.4172C14.0388 17.2695 18.1249 14.4782 18.125 9.36441V6.4567C18.125 5.33386 18.1433 4.55048 17.6571 3.76545C17.1787 2.99304 16.6362 2.73516 15.8692 2.35351C14.2 1.52303 12.1741 1.04166 10 1.04166C7.82587 1.04166 5.8 1.52302 4.13086 2.35351C3.36379 2.73516 2.82136 2.99304 2.34293 3.76545C1.85669 4.55048 1.87499 5.33386 1.875 6.4567V9.36441C1.87511 14.4782 5.96112 17.2695 8.19172 18.4172L8.22231 18.4329C8.82043 18.7407 9.24326 18.9583 10 18.9583C10.7568 18.9583 11.1795 18.7407 11.7777 18.4329L11.8083 18.4172Z" fill="black"/>
<path d="M13.2739 7.60769C13.103 7.18046 12.618 6.97228 12.1908 7.14301C10.9514 7.63873 10.0077 8.60359 9.397 9.38093C9.32133 9.47718 9.24925 9.57151 9.18208 9.66334C8.9935 9.46126 8.797 9.30026 8.60758 9.17509C8.36633 9.01568 8.14289 8.91626 7.97362 8.85526C7.88882 8.82468 7.76542 8.78451 7.64647 8.76326C7.19353 8.68243 6.76072 8.98418 6.67967 9.43709C6.59879 9.89001 6.90056 10.322 7.3535 10.4031C7.46683 10.4233 7.57518 10.4908 7.68879 10.5658C7.90678 10.7099 8.19631 10.9838 8.37725 11.518C8.48525 11.8363 8.77425 12.0589 9.10967 12.082C9.44517 12.1049 9.76175 11.9229 9.91208 11.6222C9.94508 11.5618 10.0396 11.39 10.1074 11.2779C10.2437 11.0528 10.4461 10.7435 10.7072 10.4113C11.2422 9.73034 11.9654 9.02851 12.8093 8.69084C13.2365 8.52001 13.4447 8.03494 13.2739 7.60769Z" fill="black"/>
</svg>
