<svg width="16" height="16" viewBox="0 0 16 16" fill="none" xmlns="http://www.w3.org/2000/svg">
<path d="M8.66665 7.33329C8.66665 5.86053 7.47271 4.66663 5.99998 4.66663C4.52722 4.66663 3.33331 5.86053 3.33331 7.33329C3.33331 8.80603 4.52722 9.99996 5.99998 9.99996C7.47271 9.99996 8.66665 8.80603 8.66665 7.33329Z" stroke="black" stroke-linecap="round" stroke-linejoin="round"/>
<path d="M7.35905 5.03849C7.34205 4.91698 7.33331 4.79285 7.33331 4.66667C7.33331 3.19391 8.52725 2 9.99998 2C11.4727 2 12.6666 3.19391 12.6666 4.66667C12.6666 6.13943 11.4727 7.33333 9.99998 7.33333C9.50358 7.33333 9.03891 7.19773 8.64091 6.96153" stroke="black" stroke-linecap="round" stroke-linejoin="round"/>
<path d="M10 14C10 11.7909 8.20913 10 6 10C3.79086 10 2 11.7909 2 14" stroke="black" stroke-linecap="round" stroke-linejoin="round"/>
<g opacity="0.4">
<path d="M8.65678 7.56451C8.54618 8.85284 7.51952 9.87957 6.23111 9.99017C6.2292 9.99551 6.2273 10.0009 6.2254 10.0063C7.31925 10.067 8.29578 10.5673 8.98145 11.3334H14C14 9.12424 12.2091 7.33337 9.99998 7.33337C9.52878 7.33337 9.07665 7.41484 8.65678 7.56451Z" fill="black"/>
<path d="M8.64098 6.96153C9.03891 7.19773 9.50365 7.33333 9.99998 7.33333C11.4728 7.33333 12.6666 6.13943 12.6666 4.66667C12.6666 3.19391 11.4728 2 9.99998 2C8.52725 2 7.33331 3.19391 7.33331 4.66667C7.33331 4.79285 7.34211 4.91698 7.35905 5.03849C8.04071 5.44307 8.52671 6.14276 8.64098 6.96153Z" fill="black"/>
</g>
<path d="M14 11.3334C14 9.12424 12.2091 7.33337 10 7.33337" stroke="black" stroke-linecap="round" stroke-linejoin="round"/>
</svg>
