<svg width="28" height="28" viewBox="0 0 28 28" fill="none" xmlns="http://www.w3.org/2000/svg">
<path d="M15.1666 12.8333C15.1666 10.256 13.0773 8.16663 10.5 8.16663C7.92265 8.16663 5.83331 10.256 5.83331 12.8333C5.83331 15.4106 7.92265 17.5 10.5 17.5C13.0773 17.5 15.1666 15.4106 15.1666 12.8333Z" stroke="black" stroke-width="1.75" stroke-linecap="round" stroke-linejoin="round"/>
<path d="M12.8783 8.81735C12.8486 8.60472 12.8333 8.38748 12.8333 8.16667C12.8333 5.58934 14.9227 3.5 17.5 3.5C20.0773 3.5 22.1666 5.58934 22.1666 8.16667C22.1666 10.744 20.0773 12.8333 17.5 12.8333C16.6313 12.8333 15.8181 12.596 15.1216 12.1827" stroke="black" stroke-width="1.75" stroke-linecap="round" stroke-linejoin="round"/>
<path d="M17.5 24.5C17.5 20.634 14.366 17.5 10.5 17.5C6.634 17.5 3.5 20.634 3.5 24.5" stroke="black" stroke-width="1.75" stroke-linecap="round" stroke-linejoin="round"/>
<path d="M24.5 19.8334C24.5 15.9674 21.366 12.8334 17.5 12.8334" stroke="black" stroke-width="1.75" stroke-linecap="round" stroke-linejoin="round"/>
</svg>
