<svg width="28" height="28" viewBox="0 0 28 28" fill="none" xmlns="http://www.w3.org/2000/svg">
<path opacity="0.4" d="M8.63733 16.8465C5.18709 17.6832 2.625 20.7924 2.625 24.5C2.625 24.9832 3.01675 25.375 3.5 25.375H17.5C17.9832 25.375 18.375 24.9832 18.375 24.5C18.375 20.7924 15.8129 17.6832 12.3627 16.8465C14.178 16.1102 15.4583 14.3295 15.4583 12.25C15.4583 9.51155 13.2384 7.29163 10.5 7.29163C7.76159 7.29163 5.54167 9.51155 5.54167 12.25C5.54167 14.3295 6.82195 16.1102 8.63733 16.8465Z" fill="black"/>
<path d="M12.8163 5.95226C15.3798 6.89541 17.2083 9.35916 17.2083 12.25C17.2083 13.8317 16.6612 15.2843 15.7468 16.4301C17.3327 17.463 18.5954 18.9505 19.3495 20.7083H24.5C24.9833 20.7083 25.375 20.3166 25.375 19.8333C25.375 16.1258 22.813 13.0166 19.3627 12.1799C21.178 11.4435 22.4583 9.66295 22.4583 7.58333C22.4583 4.84492 20.2385 2.625 17.5 2.625C15.333 2.625 13.4907 4.01513 12.8163 5.95226Z" fill="black"/>
</svg>
