<svg width="20" height="20" viewBox="0 0 20 20" fill="none" xmlns="http://www.w3.org/2000/svg">
<path opacity="0.4" d="M6.16952 12.0333C3.70507 12.631 1.875 14.8518 1.875 17.5C1.875 17.8452 2.15483 18.125 2.5 18.125H12.5C12.8452 18.125 13.125 17.8452 13.125 17.5C13.125 14.8518 11.2949 12.631 8.8305 12.0333C10.1272 11.5074 11.0417 10.2355 11.0417 8.75004C11.0417 6.79403 9.456 5.20837 7.5 5.20837C5.54399 5.20837 3.95833 6.79403 3.95833 8.75004C3.95833 10.2355 4.87282 11.5074 6.16952 12.0333Z" fill="black"/>
<path d="M9.15448 4.25162C10.9856 4.92529 12.2916 6.68512 12.2916 8.75C12.2916 9.87975 11.9008 10.9173 11.2477 11.7358C12.3805 12.4736 13.2824 13.5361 13.8211 14.7917H17.5C17.8452 14.7917 18.125 14.5118 18.125 14.1667C18.125 11.5184 16.295 9.29758 13.8305 8.69992C15.1271 8.17396 16.0416 6.90211 16.0416 5.41667C16.0416 3.46066 14.4561 1.875 12.5 1.875C10.9521 1.875 9.63623 2.86795 9.15448 4.25162Z" fill="black"/>
</svg>
