<svg width="16" height="16" viewBox="0 0 16 16" fill="none" xmlns="http://www.w3.org/2000/svg">
<path opacity="0.4" d="M4.93562 9.62656C2.96405 10.1047 1.5 11.8814 1.5 14C1.5 14.2761 1.72386 14.5 2 14.5H10C10.2761 14.5 10.5 14.2761 10.5 14C10.5 11.8814 9.03593 10.1047 7.0644 9.62656C8.10173 9.20583 8.83333 8.18829 8.83333 6.99996C8.83333 5.43515 7.5648 4.16663 6 4.16663C4.43519 4.16663 3.16667 5.43515 3.16667 6.99996C3.16667 8.18829 3.89826 9.20583 4.93562 9.62656Z" fill="black"/>
<path d="M7.32361 3.40129C8.78847 3.94023 9.83334 5.34809 9.83334 7C9.83334 7.9038 9.52067 8.73387 8.99821 9.3886C9.90441 9.97887 10.6259 10.8289 11.0569 11.8333H14C14.2762 11.8333 14.5 11.6095 14.5 11.3333C14.5 9.21473 13.036 7.43807 11.0644 6.95993C12.1017 6.53917 12.8333 5.52169 12.8333 4.33333C12.8333 2.76853 11.5649 1.5 10 1.5C8.76174 1.5 7.70901 2.29436 7.32361 3.40129Z" fill="black"/>
</svg>
