<svg width="32" height="32" viewBox="0 0 32 32" fill="none" xmlns="http://www.w3.org/2000/svg">
<path d="M9.87124 19.2532C5.92811 20.2095 3 23.7628 3 28C3 28.5523 3.44772 29 4 29H20C20.5523 29 21 28.5523 21 28C21 23.7628 18.0719 20.2095 14.1288 19.2532C16.2035 18.4118 17.6667 16.3767 17.6667 14C17.6667 10.8704 15.1296 8.33337 12 8.33337C8.87039 8.33337 6.33333 10.8704 6.33333 14C6.33333 16.3767 7.79652 18.4118 9.87124 19.2532Z" fill="black"/>
<path d="M14.6472 6.80259C17.5769 7.88047 19.6667 10.6962 19.6667 14C19.6667 15.8076 19.0413 17.4677 17.9964 18.7772C19.8088 19.9577 21.2519 21.6577 22.1137 23.6667H28C28.5524 23.6667 29 23.2189 29 22.6667C29 18.4295 26.072 14.8761 22.1288 13.9199C24.2035 13.0783 25.6667 11.0434 25.6667 8.66667C25.6667 5.53705 23.1297 3 20 3C17.5235 3 15.418 4.58872 14.6472 6.80259Z" fill="black"/>
</svg>
