<svg width="16" height="16" viewBox="0 0 16 16" fill="none" xmlns="http://www.w3.org/2000/svg">
<path d="M8.66665 7.33329C8.66665 5.86053 7.47271 4.66663 5.99998 4.66663C4.52722 4.66663 3.33331 5.86053 3.33331 7.33329C3.33331 8.80603 4.52722 9.99996 5.99998 9.99996C7.47271 9.99996 8.66665 8.80603 8.66665 7.33329Z" stroke="black" stroke-linecap="round" stroke-linejoin="round"/>
<path d="M7.35905 5.03849C7.34205 4.91698 7.33331 4.79285 7.33331 4.66667C7.33331 3.19391 8.52725 2 9.99998 2C11.4727 2 12.6666 3.19391 12.6666 4.66667C12.6666 6.13943 11.4727 7.33333 9.99998 7.33333C9.50358 7.33333 9.03891 7.19773 8.64091 6.96153" stroke="black" stroke-linecap="round" stroke-linejoin="round"/>
<path d="M10 14C10 11.7909 8.20913 10 6 10C3.79086 10 2 11.7909 2 14" stroke="black" stroke-linecap="round" stroke-linejoin="round"/>
<path d="M14 11.3334C14 9.12424 12.2091 7.33337 10 7.33337" stroke="black" stroke-linecap="round" stroke-linejoin="round"/>
</svg>
