<svg width="20" height="20" viewBox="0 0 20 20" fill="none" xmlns="http://www.w3.org/2000/svg">
<path d="M10.8334 9.16671C10.8334 7.32576 9.34094 5.83337 7.50002 5.83337C5.65907 5.83337 4.16669 7.32576 4.16669 9.16671C4.16669 11.0076 5.65907 12.5 7.50002 12.5C9.34094 12.5 10.8334 11.0076 10.8334 9.16671Z" stroke="black" stroke-width="1.25" stroke-linecap="round" stroke-linejoin="round"/>
<path d="M9.19885 6.29811C9.1776 6.14623 9.16669 5.99106 9.16669 5.83333C9.16669 3.99238 10.6591 2.5 12.5 2.5C14.3409 2.5 15.8334 3.99238 15.8334 5.83333C15.8334 7.67428 14.3409 9.16667 12.5 9.16667C11.8795 9.16667 11.2987 8.99717 10.8012 8.70192" stroke="black" stroke-width="1.25" stroke-linecap="round" stroke-linejoin="round"/>
<path d="M12.5 17.5C12.5 14.7386 10.2614 12.5 7.5 12.5C4.73857 12.5 2.5 14.7386 2.5 17.5" stroke="black" stroke-width="1.25" stroke-linecap="round" stroke-linejoin="round"/>
<path d="M17.5 14.1666C17.5 11.4052 15.2614 9.16663 12.5 9.16663" stroke="black" stroke-width="1.25" stroke-linecap="round" stroke-linejoin="round"/>
</svg>
