<svg width="32" height="32" viewBox="0 0 32 32" fill="none" xmlns="http://www.w3.org/2000/svg">
<path d="M17.3334 14.6667C17.3334 11.7212 14.9455 9.33337 12 9.33337C9.0545 9.33337 6.66669 11.7212 6.66669 14.6667C6.66669 17.6122 9.0545 20 12 20C14.9455 20 17.3334 17.6122 17.3334 14.6667Z" stroke="black" stroke-width="2" stroke-linecap="round" stroke-linejoin="round"/>
<path d="M20 28C20 23.5817 16.4183 20 12 20C7.58172 20 4 23.5817 4 28" stroke="black" stroke-width="2" stroke-linecap="round" stroke-linejoin="round"/>
<path opacity="0.4" d="M20 14.6667C22.9455 14.6667 25.3334 12.2789 25.3334 9.33333C25.3334 6.38781 22.9455 4 20 4C17.0546 4 14.6667 6.38781 14.6667 9.33333C14.6667 9.58569 14.6842 9.83396 14.7182 10.077M20 14.6667C19.0072 14.6667 18.0779 14.3955 17.2819 13.9231M20 14.6667C24.4183 14.6667 28 18.2484 28 22.6667" stroke="black" stroke-width="2" stroke-linecap="round" stroke-linejoin="round"/>
</svg>
