<svg width="32" height="32" viewBox="0 0 32 32" fill="none" xmlns="http://www.w3.org/2000/svg">
<path opacity="0.4" d="M26.11 20.8752C26.0077 22.5461 25.9265 23.8721 25.7603 24.9312C25.5896 26.0174 25.3165 26.922 24.7703 27.7132C24.2705 28.437 23.6272 29.048 22.8811 29.507C22.0655 30.0089 21.1548 30.2284 20.0708 30.3333L11.9032 30.3332C10.818 30.228 9.90629 30.0081 9.09013 29.5053C8.34351 29.0454 7.69992 28.4334 7.20037 27.7084C6.65431 26.9158 6.38208 26.01 6.21276 24.9222C6.04765 23.8616 5.96831 22.5337 5.86829 20.8604L5 6.33331H27L26.11 20.8752Z" fill="black"/>
<path fill-rule="evenodd" clip-rule="evenodd" d="M12.6666 23.9531C12.1143 23.9531 11.6666 23.5055 11.6666 22.9531V14.9531C11.6666 14.4008 12.1143 13.9531 12.6666 13.9531C13.2189 13.9531 13.6666 14.4008 13.6666 14.9531V22.9531C13.6666 23.5055 13.2189 23.9531 12.6666 23.9531Z" fill="black"/>
<path fill-rule="evenodd" clip-rule="evenodd" d="M19.3334 13.9531C19.8856 13.9531 20.3334 14.4008 20.3334 14.9531V22.9531C20.3334 23.5055 19.8856 23.9531 19.3334 23.9531C18.7811 23.9531 18.3334 23.5055 18.3334 22.9531V14.9531C18.3334 14.4008 18.7811 13.9531 19.3334 13.9531Z" fill="black"/>
<path fill-rule="evenodd" clip-rule="evenodd" d="M17.7964 1.71038C18.5498 1.77776 19.258 2.0077 19.8661 2.46123C20.3158 2.79666 20.6282 3.20724 20.8952 3.65192C21.1425 4.06399 21.3916 4.57775 21.674 5.16055L22.243 6.33428H28C28.7364 6.33428 29.3333 6.93124 29.3333 7.66762C29.3333 8.404 28.7364 9.00095 28 9.00095C19.9997 9.00095 12.0002 9.00095 3.99996 9.00095C3.26359 9.00095 2.66663 8.404 2.66663 7.66762C2.66663 6.93124 3.26359 6.33428 3.99996 6.33428H9.87964L10.354 5.29356C10.6295 4.6893 10.872 4.15711 11.1156 3.73007C11.3785 3.26944 11.6896 2.84318 12.1448 2.49396C12.7604 2.0217 13.4828 1.78227 14.2532 1.71214C14.8332 1.65934 15.4178 1.6666 16 1.66754C16.681 1.66863 17.2933 1.66538 17.7964 1.71038ZM12.8103 6.33428H19.2796C18.9773 5.7111 18.784 5.31611 18.6088 5.02428C18.3524 4.59718 18.0452 4.40995 17.5588 4.36644C17.213 4.33552 16.7625 4.33428 16.046 4.33428C15.3116 4.33428 14.8493 4.33556 14.4949 4.36782C13.9961 4.41323 13.6852 4.60759 13.4318 5.05156C13.2658 5.34251 13.0851 5.73198 12.8103 6.33428Z" fill="black"/>
</svg>
