<svg width="28" height="28" viewBox="0 0 28 28" fill="none" xmlns="http://www.w3.org/2000/svg">
<path d="M22.75 6.41669L22.027 18.1126C21.8422 21.1008 21.7499 22.595 21.0009 23.6692C20.6305 24.2003 20.1538 24.6485 19.6008 24.9854C18.4824 25.6667 16.9855 25.6667 13.9915 25.6667C10.9936 25.6667 9.49468 25.6667 8.37556 24.9841C7.82227 24.6467 7.34533 24.1976 6.97513 23.6656C6.22636 22.5897 6.13602 21.0935 5.95538 18.1011L5.25 6.41669" stroke="black" stroke-width="1.75" stroke-linecap="round"/>
<path d="M3.5 6.41665H24.5M18.7316 6.41665L17.9353 4.77366C17.4062 3.68228 17.1416 3.13659 16.6853 2.79626C16.5842 2.72076 16.477 2.65361 16.3648 2.59546C15.8596 2.33331 15.2531 2.33331 14.0402 2.33331C12.7969 2.33331 12.1753 2.33331 11.6616 2.60645C11.5478 2.66699 11.4391 2.73686 11.3368 2.81534C10.8752 3.16946 10.6174 3.73512 10.1017 4.86645L9.39507 6.41665" stroke="black" stroke-width="1.75" stroke-linecap="round"/>
<path d="M11.0834 19.25V12.25" stroke="black" stroke-width="1.75" stroke-linecap="round"/>
<path d="M16.9166 19.25V12.25" stroke="black" stroke-width="1.75" stroke-linecap="round"/>
</svg>
