<svg width="16" height="16" viewBox="0 0 16 16" fill="none" xmlns="http://www.w3.org/2000/svg">
<path fill-rule="evenodd" clip-rule="evenodd" d="M13.055 10.4376C13.0039 11.2731 12.9633 11.9361 12.8801 12.4656C12.7948 13.0088 12.6583 13.461 12.3851 13.8566C12.1353 14.2186 11.8136 14.524 11.4405 14.7536C11.0327 15.0045 10.5774 15.1142 10.0354 15.1667L5.95159 15.1666C5.409 15.114 4.95315 15.0041 4.54507 14.7527C4.17175 14.5228 3.84996 14.2168 3.60019 13.8542C3.32715 13.458 3.19104 13.005 3.10638 12.4612C3.02383 11.9308 2.98415 11.2669 2.93415 10.4302L2.5 3.16669H13.5L13.055 10.4376ZM6.33333 11.974C6.05719 11.974 5.83333 11.7502 5.83333 11.474V7.47395C5.83333 7.19782 6.05719 6.97395 6.33333 6.97395C6.60947 6.97395 6.83333 7.19782 6.83333 7.47395V11.474C6.83333 11.7502 6.60947 11.974 6.33333 11.974ZM10.1667 7.47395C10.1667 7.19782 9.9428 6.97395 9.66667 6.97395C9.39053 6.97395 9.16667 7.19782 9.16667 7.47395V11.474C9.16667 11.7502 9.39053 11.974 9.66667 11.974C9.9428 11.974 10.1667 11.7502 10.1667 11.474V7.47395Z" fill="black"/>
<path fill-rule="evenodd" clip-rule="evenodd" d="M8.89818 0.855158C9.27491 0.888851 9.62898 1.00382 9.93305 1.23058C10.1579 1.3983 10.3141 1.60359 10.4476 1.82593C10.5712 2.03196 10.6958 2.28884 10.837 2.58024L11.1215 3.16711H14C14.3682 3.16711 14.6666 3.46559 14.6666 3.83378C14.6666 4.20197 14.3682 4.50044 14 4.50044C9.99985 4.50044 6.00011 4.50044 1.99998 4.50044C1.63179 4.50044 1.33331 4.20197 1.33331 3.83378C1.33331 3.46559 1.63179 3.16711 1.99998 3.16711H4.93982L5.17702 2.64675C5.31473 2.34462 5.436 2.07852 5.55782 1.865C5.68923 1.63469 5.84479 1.42156 6.07239 1.24695C6.38019 1.01082 6.74138 0.891105 7.12658 0.856038C7.41658 0.829638 7.70891 0.833271 7.99998 0.833738C8.34051 0.834285 8.64665 0.832658 8.89818 0.855158ZM6.40515 3.16711H9.63978C9.48865 2.85552 9.39198 2.65802 9.30438 2.51211C9.17618 2.29856 9.02258 2.20494 8.77938 2.18319C8.60651 2.16773 8.38125 2.16711 8.02298 2.16711C7.65578 2.16711 7.42465 2.16775 7.24745 2.18388C6.99805 2.20658 6.84258 2.30376 6.71591 2.52575C6.63292 2.67122 6.54256 2.86596 6.40515 3.16711Z" fill="black"/>
</svg>
