<svg width="28" height="28" viewBox="0 0 28 28" fill="none" xmlns="http://www.w3.org/2000/svg">
<path opacity="0.4" d="M22.8463 18.2658C22.7568 19.7279 22.6857 20.8881 22.5402 21.8148C22.3909 22.7653 22.152 23.5568 21.674 24.2491C21.2367 24.8825 20.6738 25.417 20.0209 25.8187C19.3073 26.2578 18.5104 26.4499 17.5619 26.5417L10.4153 26.5416C9.46575 26.4495 8.66801 26.2571 7.95387 25.8172C7.30057 25.4148 6.73743 24.8793 6.30033 24.2449C5.82252 23.5514 5.58432 22.7588 5.43617 21.807C5.2917 20.8789 5.22227 19.717 5.13476 18.2529L4.375 5.54169H23.625L22.8463 18.2658Z" fill="black"/>
<path fill-rule="evenodd" clip-rule="evenodd" d="M11.0834 20.9589C10.6001 20.9589 10.2084 20.5673 10.2084 20.0839V13.0839C10.2084 12.6007 10.6001 12.2089 11.0834 12.2089C11.5666 12.2089 11.9584 12.6007 11.9584 13.0839V20.0839C11.9584 20.5673 11.5666 20.9589 11.0834 20.9589Z" fill="black"/>
<path fill-rule="evenodd" clip-rule="evenodd" d="M16.9166 12.2089C17.3999 12.2089 17.7916 12.6007 17.7916 13.0839V20.0839C17.7916 20.5673 17.3999 20.9589 16.9166 20.9589C16.4334 20.9589 16.0416 20.5673 16.0416 20.0839V13.0839C16.0416 12.6007 16.4334 12.2089 16.9166 12.2089Z" fill="black"/>
<path fill-rule="evenodd" clip-rule="evenodd" d="M15.5719 1.49654C16.2312 1.55551 16.8508 1.7567 17.3829 2.15354C17.7764 2.44704 18.0498 2.8063 18.2833 3.1954C18.4998 3.55595 18.7177 4.00549 18.9648 4.51544L19.4627 5.54246H24.5C25.1444 5.54246 25.6667 6.0648 25.6667 6.70913C25.6667 7.35347 25.1444 7.87579 24.5 7.87579C17.4998 7.87579 10.5003 7.87579 3.50004 7.87579C2.85571 7.87579 2.33337 7.35347 2.33337 6.70913C2.33337 6.0648 2.85571 5.54246 3.50004 5.54246H8.64476L9.05986 4.63183C9.30085 4.1031 9.51308 3.63743 9.72626 3.26377C9.95622 2.86073 10.2285 2.48774 10.6268 2.18218C11.1654 1.76895 11.7975 1.55945 12.4716 1.49808C12.9791 1.45188 13.4907 1.45824 14 1.45906C14.596 1.46001 15.1317 1.45717 15.5719 1.49654ZM11.2091 5.54246H16.8697C16.6052 4.99717 16.436 4.65156 16.2827 4.39621C16.0584 4.02249 15.7896 3.85867 15.364 3.8206C15.0615 3.79355 14.6673 3.79246 14.0403 3.79246C13.3977 3.79246 12.9932 3.79358 12.6831 3.8218C12.2467 3.86154 11.9746 4.0316 11.7529 4.42008C11.6077 4.67466 11.4496 5.01544 11.2091 5.54246Z" fill="black"/>
</svg>
