<svg width="20" height="20" viewBox="0 0 20 20" fill="none" xmlns="http://www.w3.org/2000/svg">
<path opacity="0.4" d="M16.25 4.58331L15.7336 12.9376C15.6016 15.072 15.5357 16.1392 15.0007 16.9066C14.7361 17.2859 14.3956 17.6061 14.0006 17.8466C13.2017 18.3333 12.1325 18.3333 9.99392 18.3333C7.8526 18.3333 6.78192 18.3333 5.98254 17.8457C5.58733 17.6047 5.24667 17.284 4.98223 16.904C4.4474 16.1355 4.38287 15.0667 4.25384 12.9293L3.75 4.58331H16.25Z" fill="black"/>
<path d="M16.25 4.58331L15.7336 12.9376C15.6016 15.072 15.5357 16.1392 15.0007 16.9066C14.7361 17.2859 14.3956 17.6061 14.0006 17.8466C13.2017 18.3333 12.1325 18.3333 9.99392 18.3333C7.8526 18.3333 6.78192 18.3333 5.98254 17.8457C5.58733 17.6047 5.24667 17.284 4.98223 16.904C4.4474 16.1355 4.38287 15.0667 4.25384 12.9293L3.75 4.58331" stroke="black" stroke-width="1.25" stroke-linecap="round"/>
<path d="M17.5 4.58331H2.5" stroke="black" stroke-width="1.25" stroke-linecap="round"/>
<path d="M13.3812 4.58335L12.8123 3.4098C12.4344 2.63024 12.2455 2.24045 11.9196 1.99736C11.8472 1.94344 11.7707 1.89547 11.6906 1.85394C11.3297 1.66669 10.8966 1.66669 10.0302 1.66669C9.14214 1.66669 8.69806 1.66669 8.33119 1.86179C8.24986 1.90503 8.17227 1.95494 8.09919 2.011C7.76948 2.26394 7.5853 2.66798 7.21695 3.47607L6.71222 4.58335" stroke="black" stroke-width="1.25" stroke-linecap="round"/>
<path d="M7.91669 13.75V8.75" stroke="black" stroke-width="1.25" stroke-linecap="round"/>
<path d="M12.0833 13.75V8.75" stroke="black" stroke-width="1.25" stroke-linecap="round"/>
</svg>
