<svg width="20" height="20" viewBox="0 0 20 20" fill="none" xmlns="http://www.w3.org/2000/svg">
<path fill-rule="evenodd" clip-rule="evenodd" d="M16.3188 13.047C16.2548 14.0913 16.2041 14.9201 16.1002 15.582C15.9935 16.2609 15.8228 16.8262 15.4814 17.3207C15.1691 17.7731 14.767 18.155 14.3007 18.4419C13.7909 18.7556 13.2217 18.8927 12.5442 18.9583L7.43949 18.9582C6.76125 18.8925 6.19143 18.7551 5.68133 18.4408C5.21469 18.1534 4.81245 17.7709 4.50023 17.3177C4.15894 16.8224 3.9888 16.2562 3.88298 15.5764C3.77978 14.9135 3.73019 14.0836 3.66768 13.0377L3.125 3.95831H16.875L16.3188 13.047ZM7.91667 14.9674C7.57149 14.9674 7.29167 14.6876 7.29167 14.3424V9.3424C7.29167 8.99723 7.57149 8.7174 7.91667 8.7174C8.26184 8.7174 8.54167 8.99723 8.54167 9.3424V14.3424C8.54167 14.6876 8.26184 14.9674 7.91667 14.9674ZM12.7083 9.3424C12.7083 8.99723 12.4285 8.7174 12.0833 8.7174C11.7382 8.7174 11.4583 8.99723 11.4583 9.3424V14.3424C11.4583 14.6876 11.7382 14.9674 12.0833 14.9674C12.4285 14.9674 12.7083 14.6876 12.7083 14.3424V9.3424Z" fill="black"/>
<path fill-rule="evenodd" clip-rule="evenodd" d="M11.1228 1.06899C11.5937 1.11111 12.0363 1.25482 12.4164 1.53828C12.6974 1.74792 12.8927 2.00454 13.0595 2.28246C13.2141 2.54 13.3698 2.8611 13.5463 3.22535L13.9019 3.95894H17.5C17.9603 3.95894 18.3334 4.33204 18.3334 4.79227C18.3334 5.25251 17.9603 5.6256 17.5 5.6256C12.4999 5.6256 7.50018 5.6256 2.50002 5.6256C2.03979 5.6256 1.66669 5.25251 1.66669 4.79227C1.66669 4.33204 2.03979 3.95894 2.50002 3.95894H6.17482L6.47132 3.30849C6.64345 2.93082 6.79504 2.5982 6.94732 2.3313C7.11158 2.04341 7.30603 1.77699 7.59053 1.55874C7.97529 1.26357 8.42677 1.11393 8.90827 1.07009C9.27077 1.03709 9.63619 1.04164 10 1.04222C10.4257 1.0429 10.8084 1.04087 11.1228 1.06899ZM8.00649 3.95894H12.0498C11.8609 3.56944 11.74 3.32258 11.6305 3.14019C11.4703 2.87324 11.2783 2.75623 10.9743 2.72904C10.7582 2.70971 10.4766 2.70894 10.0288 2.70894C9.56977 2.70894 9.28085 2.70974 9.05935 2.72989C8.7476 2.75828 8.55327 2.87975 8.39494 3.15724C8.2912 3.33908 8.17825 3.58249 8.00649 3.95894Z" fill="black"/>
</svg>
