<svg width="32" height="32" viewBox="0 0 32 32" fill="none" xmlns="http://www.w3.org/2000/svg">
<path opacity="0.4" d="M26 7.33331L25.1737 20.7001C24.9625 24.1152 24.8571 25.8228 24.0011 27.0505C23.5777 27.6574 23.0329 28.1697 22.4009 28.5546C21.1228 29.3333 19.412 29.3333 15.9903 29.3333C12.5642 29.3333 10.8511 29.3333 9.57207 28.5532C8.93973 28.1676 8.39467 27.6544 7.97157 27.0464C7.11584 25.8168 7.0126 24.1068 6.80615 20.6869L6 7.33331H26Z" fill="black"/>
<path d="M26 7.33331L25.1737 20.7001C24.9625 24.1152 24.8571 25.8228 24.0011 27.0505C23.5777 27.6574 23.0329 28.1697 22.4009 28.5546C21.1228 29.3333 19.412 29.3333 15.9903 29.3333C12.5642 29.3333 10.8511 29.3333 9.57207 28.5532C8.93973 28.1676 8.39467 27.6544 7.97157 27.0464C7.11584 25.8168 7.0126 24.1068 6.80615 20.6869L6 7.33331" stroke="black" stroke-width="2" stroke-linecap="round"/>
<path d="M28 7.33331H4" stroke="black" stroke-width="2" stroke-linecap="round"/>
<path d="M21.41 7.33335L20.4998 5.45566C19.8951 4.20837 19.5928 3.58471 19.0714 3.19577C18.9556 3.10949 18.8332 3.03274 18.7051 2.96629C18.1276 2.66669 17.4346 2.66669 16.0484 2.66669C14.6275 2.66669 13.917 2.66669 13.33 2.97885C13.1999 3.04803 13.0757 3.12789 12.9588 3.21758C12.4312 3.62229 12.1366 4.26875 11.5472 5.5617L10.7396 7.33335" stroke="black" stroke-width="2" stroke-linecap="round"/>
<path d="M12.6666 22V14" stroke="black" stroke-width="2" stroke-linecap="round"/>
<path d="M19.3334 22V14" stroke="black" stroke-width="2" stroke-linecap="round"/>
</svg>
