<svg width="32" height="32" viewBox="0 0 32 32" fill="none" xmlns="http://www.w3.org/2000/svg">
<path d="M26.688 2.66663C25.2035 2.66663 24 6.24835 24 10.6666H26.688C27.9835 10.6666 28.6312 10.6666 29.0321 10.2194C29.4332 9.77208 29.3633 9.18307 29.2237 8.00504C28.8552 4.8952 27.8591 2.66663 26.688 2.66663Z" stroke="black" stroke-width="2"/>
<path d="M24 10.739V24.861C24 26.8766 24 27.8844 23.384 28.281C22.3774 28.9294 20.8214 27.5698 20.0388 27.0764C19.3921 26.6685 19.0689 26.4646 18.71 26.4529C18.3222 26.4401 17.9932 26.6357 17.2945 27.0764L14.7466 28.6832C14.0593 29.1165 13.7157 29.3333 13.3333 29.3333C12.9509 29.3333 12.6072 29.1165 11.92 28.6832L9.37213 27.0764C8.72549 26.6685 8.40217 26.4646 8.04333 26.4529C7.65559 26.4401 7.32653 26.6357 6.62779 27.0764C5.84523 27.5698 4.28912 28.9294 3.28256 28.281C2.66663 27.8844 2.66663 26.8766 2.66663 24.861V10.739C2.66663 6.93363 2.66663 5.03096 3.8382 3.8488C5.00977 2.66663 6.89539 2.66663 10.6666 2.66663H26.6666" stroke="black" stroke-width="2" stroke-linecap="round" stroke-linejoin="round"/>
<path d="M8 8H18.6667" stroke="black" stroke-width="2" stroke-linecap="round" stroke-linejoin="round"/>
<path d="M10.6667 13.3334H8" stroke="black" stroke-width="2" stroke-linecap="round" stroke-linejoin="round"/>
<path d="M16.6666 14.5C15.5621 14.5 14.6666 15.2835 14.6666 16.25C14.6666 17.2166 15.5621 18 16.6666 18C17.7712 18 18.6666 18.7835 18.6666 19.75C18.6666 20.7166 17.7712 21.5 16.6666 21.5M16.6666 14.5C17.5374 14.5 18.2782 14.987 18.5528 15.6667M16.6666 14.5V13.3334M16.6666 21.5C15.7958 21.5 15.055 21.0131 14.7805 20.3334M16.6666 21.5V22.6667" stroke="black" stroke-width="2" stroke-linecap="round"/>
</svg>
