<svg width="28" height="28" viewBox="0 0 28 28" fill="none" xmlns="http://www.w3.org/2000/svg">
<path fill-rule="evenodd" clip-rule="evenodd" d="M11.6667 26.5417C11.3175 26.5417 11.0223 26.438 10.7613 26.3092C10.5275 26.1938 10.2683 26.0304 9.99457 25.8577L7.73393 24.432C7.43656 24.2444 7.26633 24.1383 7.13309 24.0715C7.00973 24.0039 6.92136 24.0372 6.89259 24.0624C6.76064 24.1244 6.58443 24.2312 6.26615 24.432L5.67267 24.8397C5.42678 25.0086 5.13039 25.2039 4.81498 25.3689C4.26421 25.657 3.28345 26.0516 2.39852 25.4817C1.79959 25.0959 1.61182 24.4601 1.53409 23.9015C1.45828 23.3565 1.45833 22.6445 1.45838 21.8176V9.3331C1.45835 7.72228 1.45834 6.4255 1.59419 5.40593C1.73506 4.34862 2.03618 3.45902 2.73701 2.75185C3.43892 2.04359 4.32373 1.73828 5.37531 1.59562C6.38726 1.45834 7.67373 1.45835 9.26878 1.45837H11.6667H23.352C23.9063 1.45837 24.3603 1.72589 24.6969 2.05442C25.0298 2.37941 25.2989 2.80971 25.5176 3.27844C25.9567 4.2192 26.272 5.48625 26.4397 6.90152L26.4465 6.95846C26.5018 7.42436 26.555 7.87245 26.5386 8.251C26.5194 8.69194 26.4046 9.13572 26.0547 9.52608C25.6946 9.92783 25.2427 10.0837 24.8006 10.1498C24.4079 10.2085 23.9265 10.2085 23.4087 10.2084L23.352 10.2084H21.875V21.8176C21.875 22.6445 21.8752 23.3565 21.7993 23.9015C21.7216 24.4601 21.5338 25.0959 20.9348 25.4817C20.0499 26.0516 19.0692 25.657 18.5184 25.3689C18.203 25.2039 17.9066 25.0086 17.6607 24.8397L17.0672 24.432C16.7489 24.2312 16.5728 24.1244 16.4408 24.0624C16.412 24.0372 16.3237 24.0039 16.2003 24.0715C16.067 24.1383 15.8968 24.2444 15.5994 24.432L13.3389 25.8576C13.0652 26.0302 12.806 26.1938 12.5722 26.3092C12.3112 26.438 12.0159 26.5417 11.6667 26.5417ZM23.1217 3.42774C23.2423 3.27599 23.3208 3.2273 23.3526 3.21266C23.3734 3.22263 23.4139 3.24755 23.4745 3.30674C23.6032 3.43242 23.7643 3.65968 23.9319 4.01859C24.2654 4.73311 24.5472 5.80162 24.7019 7.10746C24.7664 7.65192 24.7998 7.95581 24.7902 8.17506C24.7831 8.3388 24.7547 8.35634 24.7512 8.35847C24.7471 8.36308 24.7445 8.366 24.7298 8.37272C24.7072 8.38306 24.6537 8.40234 24.5418 8.41907C24.2942 8.45609 23.9463 8.45837 23.352 8.45837H21.8941C21.8963 8.40835 21.8986 8.35853 21.9012 8.30891C21.9754 6.86698 22.203 5.60076 22.5183 4.66232C22.5306 4.62596 22.5428 4.59026 22.5552 4.55523C22.7405 4.02998 22.9395 3.65709 23.1217 3.42774ZM7.00004 6.12504C6.5168 6.12504 6.12504 6.5168 6.12504 7.00004C6.12504 7.48329 6.5168 7.87504 7.00004 7.87504H16.3334C16.8166 7.87504 17.2084 7.48329 17.2084 7.00004C17.2084 6.5168 16.8166 6.12504 16.3334 6.12504H7.00004ZM10.2084 11.6667C10.2084 12.1499 9.81663 12.5417 9.33338 12.5417H7.00004C6.5168 12.5417 6.12504 12.1499 6.12504 11.6667C6.12504 11.1835 6.5168 10.7917 7.00004 10.7917H9.33338C9.81663 10.7917 10.2084 11.1835 10.2084 11.6667ZM15.4584 11.6667C15.4584 11.1835 15.0666 10.7917 14.5834 10.7917C14.1001 10.7917 13.7084 11.1835 13.7084 11.6667V11.9524C12.7354 12.2699 11.9584 13.1045 11.9584 14.2188C11.9584 15.6538 13.2471 16.625 14.5834 16.625C15.18 16.625 15.4584 17.025 15.4584 17.2813C15.4584 17.5376 15.18 17.9375 14.5834 17.9375C14.1326 17.9375 13.8346 17.6876 13.7443 17.464C13.5632 17.0159 13.0533 16.7995 12.6053 16.9804C12.1572 17.1614 11.9406 17.6713 12.1216 18.1194C12.4022 18.8138 12.9972 19.3204 13.7084 19.5502V19.8334C13.7084 20.3166 14.1001 20.7084 14.5834 20.7084C15.0666 20.7084 15.4584 20.3166 15.4584 19.8334V19.5477C16.4314 19.2302 17.2084 18.3956 17.2084 17.2813C17.2084 15.8463 15.9197 14.875 14.5834 14.875C13.9867 14.875 13.7084 14.4751 13.7084 14.2188C13.7084 13.9625 13.9867 13.5625 14.5834 13.5625C15.0342 13.5625 15.3321 13.8124 15.4224 14.0361C15.6035 14.4842 16.1135 14.7006 16.5616 14.5197C17.0096 14.3387 17.2261 13.8288 17.0452 13.3807C16.7646 12.6863 16.1696 12.1797 15.4584 11.9499V11.6667Z" fill="black"/>
</svg>
