<svg width="20" height="20" viewBox="0 0 20 20" fill="none" xmlns="http://www.w3.org/2000/svg">
<path opacity="0.4" d="M8.33346 18.9583C8.08399 18.9583 7.87309 18.8842 7.68666 18.7922C7.51968 18.7098 7.33454 18.593 7.13902 18.4697L5.52429 17.4514C5.31187 17.3174 5.19029 17.2415 5.09512 17.1939C5.007 17.1455 4.94387 17.1694 4.92333 17.1874C4.82907 17.2316 4.70322 17.308 4.47587 17.4514L4.05195 17.7425C3.87632 17.8632 3.66462 18.0027 3.43932 18.1205C3.04592 18.3264 2.34537 18.6082 1.71328 18.2011C1.28547 17.9255 1.15134 17.4715 1.09583 17.0725C1.04168 16.6831 1.04172 16.1745 1.04175 15.584V6.66643C1.04173 5.51584 1.04172 4.58958 1.13876 3.86131C1.23938 3.10608 1.45446 2.47066 1.95506 1.96553C2.45642 1.45963 3.08843 1.24156 3.83955 1.13966C4.56238 1.0416 5.4813 1.04161 6.62062 1.04163H8.33346H16.6801C17.0253 1.04163 17.3051 1.32145 17.3051 1.66663C17.3051 2.00914 17.0296 2.2873 16.6881 2.29158C16.673 2.29678 16.6138 2.32463 16.5155 2.44832C16.3767 2.62305 16.2243 2.91445 16.0846 3.33016C15.8074 4.15517 15.625 5.33482 15.625 6.66663V15.584C15.6251 16.1745 15.6251 16.6831 15.571 17.0725C15.5155 17.4715 15.3814 17.9255 14.9535 18.2011C14.3215 18.6082 13.6209 18.3264 13.2275 18.1205C13.0022 18.0027 12.7905 17.8632 12.6149 17.7425L12.191 17.4514C11.9636 17.308 11.8377 17.2316 11.7435 17.1874C11.723 17.1694 11.6598 17.1455 11.5717 17.1939C11.4765 17.2415 11.355 17.3174 11.1425 17.4514L9.52779 18.4696C9.33229 18.593 9.14713 18.7098 8.98012 18.7922C8.79371 18.8842 8.58287 18.9583 8.33346 18.9583Z" fill="black"/>
<path fill-rule="evenodd" clip-rule="evenodd" d="M4.375 5C4.375 4.65483 4.65482 4.375 5 4.375H11.6666C12.0119 4.375 12.2916 4.65483 12.2916 5C12.2916 5.34517 12.0119 5.625 11.6666 5.625H5C4.65482 5.625 4.375 5.34517 4.375 5Z" fill="black"/>
<path fill-rule="evenodd" clip-rule="evenodd" d="M7.29167 8.33337C7.29167 8.67854 7.01184 8.95837 6.66667 8.95837H5C4.65482 8.95837 4.375 8.67854 4.375 8.33337C4.375 7.9882 4.65482 7.70837 5 7.70837H6.66667C7.01184 7.70837 7.29167 7.9882 7.29167 8.33337Z" fill="black"/>
<path fill-rule="evenodd" clip-rule="evenodd" d="M10.4166 7.70837C10.7619 7.70837 11.0416 7.9882 11.0416 8.33337V8.53562C11.5496 8.69979 11.9747 9.06162 12.175 9.55762C12.3043 9.87771 12.1497 10.242 11.8296 10.3712C11.5095 10.5005 11.1453 10.3459 11.016 10.0258C10.9515 9.86604 10.7387 9.68754 10.4166 9.68754C9.99046 9.68754 9.79163 9.97321 9.79163 10.1563C9.79163 10.3394 9.99046 10.625 10.4166 10.625C11.3712 10.625 12.2916 11.3188 12.2916 12.3438C12.2916 13.1397 11.7366 13.7359 11.0416 13.9626V14.1667C11.0416 14.5119 10.7619 14.7917 10.4166 14.7917C10.0715 14.7917 9.79163 14.5119 9.79163 14.1667V13.9645C9.28371 13.8003 8.85863 13.4385 8.65829 12.9425C8.52904 12.6224 8.68363 12.2581 9.00371 12.1289C9.32379 11.9996 9.68804 12.1542 9.81729 12.4743C9.88188 12.634 10.0946 12.8125 10.4166 12.8125C10.8429 12.8125 11.0416 12.5269 11.0416 12.3438C11.0416 12.1607 10.8429 11.875 10.4166 11.875C9.46213 11.875 8.54163 11.1813 8.54163 10.1563C8.54163 9.36037 9.09671 8.76421 9.79163 8.53746V8.33337C9.79163 7.9882 10.0715 7.70837 10.4166 7.70837Z" fill="black"/>
<path d="M15.6251 7.29163H16.7206C17.0905 7.29168 17.4343 7.29173 17.7148 7.24981C18.0306 7.20258 18.3534 7.09123 18.6106 6.80427C18.8605 6.52544 18.9425 6.20846 18.9562 5.89349C18.968 5.62308 18.93 5.30307 18.8905 4.97026L18.8856 4.92958C18.7658 3.91868 18.5406 3.01363 18.227 2.34168C18.0707 2.00687 17.8785 1.69951 17.6407 1.46738C17.4005 1.23291 17.0765 1.04195 16.6811 1.04163C17.0259 1.04217 17.3051 1.32178 17.3051 1.66663C17.3051 2.00913 17.0296 2.2873 16.6881 2.29158C16.6863 2.29222 16.6837 2.29321 16.6805 2.29468C16.6954 2.30181 16.7243 2.31961 16.7676 2.36188C16.8595 2.45165 16.9746 2.61398 17.0943 2.87035C17.3325 3.38073 17.5338 4.14394 17.6443 5.07668C17.6904 5.46558 17.7142 5.68265 17.7074 5.83926C17.7023 5.95621 17.682 5.96874 17.6795 5.97026C17.6766 5.97356 17.6747 5.97563 17.6642 5.98044C17.6481 5.98782 17.6099 6.0016 17.53 6.01355C17.353 6.03999 17.1045 6.04163 16.6801 6.04163H15.6387C15.6298 6.24553 15.6251 6.45414 15.6251 6.66663V7.29163Z" fill="black"/>
</svg>
