<svg width="32" height="32" viewBox="0 0 32 32" fill="none" xmlns="http://www.w3.org/2000/svg">
<path opacity="0.4" d="M13.3335 30.3333C12.9343 30.3333 12.5969 30.2148 12.2986 30.0676C12.0314 29.9357 11.7352 29.7489 11.4224 29.5516L8.83882 27.9222C8.49895 27.7078 8.30442 27.5865 8.15214 27.5102C8.01115 27.4329 7.91015 27.471 7.87728 27.4998C7.72647 27.5706 7.5251 27.6928 7.16135 27.9222L6.48307 28.3881C6.20206 28.5812 5.86334 28.8044 5.50287 28.9929C4.87342 29.3222 3.75255 29.7732 2.7412 29.1218C2.0567 28.6809 1.8421 27.9544 1.75328 27.316C1.66664 26.693 1.6667 25.8793 1.66675 24.9344V10.6663C1.66672 8.82537 1.6667 7.34335 1.82196 6.17812C1.98296 4.96976 2.32708 3.95308 3.12804 3.14488C3.93023 2.33544 4.94144 1.98652 6.14323 1.82348C7.29976 1.66659 8.77003 1.6666 10.5929 1.66663H13.3335H26.6882C27.2404 1.66663 27.6882 2.11435 27.6882 2.66663C27.6882 3.21465 27.2473 3.65971 26.7009 3.66655C26.6767 3.67488 26.582 3.71943 26.4248 3.91733C26.2027 4.19691 25.9588 4.66315 25.7353 5.32828C25.2917 6.64829 25 8.53573 25 10.6666V24.9344C25.0002 25.8793 25.0002 26.693 24.9135 27.316C24.8247 27.9544 24.6102 28.6809 23.9256 29.1218C22.9143 29.7732 21.7934 29.3222 21.1639 28.9929C20.8035 28.8044 20.4647 28.5812 20.1838 28.3881L19.5055 27.9222C19.1418 27.6928 18.9403 27.5706 18.7895 27.4998C18.7567 27.471 18.6556 27.4329 18.5147 27.5102C18.3624 27.5865 18.1679 27.7078 17.828 27.9222L15.2444 29.5514C14.9316 29.7488 14.6354 29.9357 14.3682 30.0676C14.0699 30.2148 13.7326 30.3333 13.3335 30.3333Z" fill="black"/>
<path fill-rule="evenodd" clip-rule="evenodd" d="M7 8C7 7.44772 7.44771 7 8 7H18.6666C19.219 7 19.6666 7.44772 19.6666 8C19.6666 8.55228 19.219 9 18.6666 9H8C7.44771 9 7 8.55228 7 8Z" fill="black"/>
<path fill-rule="evenodd" clip-rule="evenodd" d="M11.6667 13.3334C11.6667 13.8856 11.2189 14.3334 10.6667 14.3334H8C7.44771 14.3334 7 13.8856 7 13.3334C7 12.7811 7.44771 12.3334 8 12.3334H10.6667C11.2189 12.3334 11.6667 12.7811 11.6667 13.3334Z" fill="black"/>
<path fill-rule="evenodd" clip-rule="evenodd" d="M16.6666 12.3334C17.219 12.3334 17.6666 12.7811 17.6666 13.3334V13.657C18.4794 13.9196 19.1596 14.4986 19.4801 15.2922C19.6869 15.8043 19.4396 16.3871 18.9274 16.5939C18.4153 16.8007 17.8325 16.5534 17.6257 16.0412C17.5224 15.7856 17.182 15.5 16.6666 15.5C15.9848 15.5 15.6666 15.9571 15.6666 16.25C15.6666 16.543 15.9848 17 16.6666 17C18.194 17 19.6666 18.11 19.6666 19.75C19.6666 21.0235 18.7786 21.9774 17.6666 22.3402V22.6667C17.6666 23.219 17.219 23.6667 16.6666 23.6667C16.1144 23.6667 15.6666 23.219 15.6666 22.6667V22.3431C14.854 22.0804 14.1738 21.5015 13.8533 20.7079C13.6465 20.1958 13.8938 19.613 14.406 19.4062C14.9181 19.1994 15.5009 19.4467 15.7077 19.9588C15.811 20.2144 16.1514 20.5 16.6666 20.5C17.3486 20.5 17.6666 20.043 17.6666 19.75C17.6666 19.4571 17.3486 19 16.6666 19C15.1394 19 13.6666 17.89 13.6666 16.25C13.6666 14.9766 14.5548 14.0227 15.6666 13.6599V13.3334C15.6666 12.7811 16.1144 12.3334 16.6666 12.3334Z" fill="black"/>
<path d="M25.0001 11.6666H26.7529C27.3447 11.6667 27.8948 11.6668 28.3436 11.5997C28.8489 11.5242 29.3653 11.346 29.7769 10.8869C30.1768 10.4407 30.308 9.93356 30.3299 9.42961C30.3487 8.99696 30.2879 8.48493 30.2247 7.95244L30.2169 7.88736C30.0252 6.26991 29.6649 4.82184 29.1631 3.74671C28.9131 3.21101 28.6056 2.71924 28.2251 2.34783C27.8408 1.97268 27.3224 1.66715 26.6897 1.66663C27.2413 1.66749 27.6881 2.11488 27.6881 2.66663C27.6881 3.21464 27.2473 3.65971 26.7009 3.66655C26.698 3.66757 26.6939 3.66916 26.6888 3.67152C26.7125 3.68292 26.7588 3.7114 26.8281 3.77904C26.9752 3.92267 27.1593 4.1824 27.3508 4.59259C27.732 5.40919 28.054 6.63033 28.2308 8.12272C28.3045 8.74496 28.3427 9.09227 28.3317 9.34284C28.3236 9.52996 28.2912 9.55001 28.2872 9.55244C28.2825 9.55772 28.2795 9.56104 28.2627 9.56873C28.2369 9.58053 28.1757 9.60259 28.0479 9.62171C27.7648 9.66401 27.3672 9.66663 26.6881 9.66663H25.0219C25.0076 9.99288 25.0001 10.3267 25.0001 10.6666V11.6666Z" fill="black"/>
</svg>
