<svg width="20" height="20" viewBox="0 0 20 20" fill="none" xmlns="http://www.w3.org/2000/svg">
<path fill-rule="evenodd" clip-rule="evenodd" d="M8.33329 18.9583C8.08388 18.9583 7.87298 18.8842 7.68654 18.7922C7.51956 18.7098 7.33442 18.593 7.13891 18.4697L5.52417 17.4514C5.31176 17.3174 5.19017 17.2415 5.09499 17.1939C5.00688 17.1455 4.94376 17.1694 4.92321 17.1874C4.82896 17.2316 4.70309 17.308 4.47575 17.4514L4.05184 17.7425C3.8762 17.8632 3.66449 18.0027 3.4392 18.1205C3.04579 18.3264 2.34525 18.6082 1.71316 18.2011C1.28535 17.9255 1.15123 17.4715 1.09571 17.0725C1.04156 16.6831 1.04159 16.1745 1.04163 15.584V6.66643C1.04161 5.51584 1.0416 4.58958 1.13864 3.86131C1.23926 3.10608 1.45434 2.47066 1.95494 1.96553C2.4563 1.45963 3.08831 1.24156 3.83944 1.13966C4.56226 1.0416 5.48117 1.04161 6.62049 1.04163H8.33329H16.68C17.0759 1.04163 17.4001 1.23271 17.6405 1.46738C17.8784 1.69951 18.0705 2.00687 18.2268 2.34168C18.5405 3.01364 18.7656 3.91868 18.8855 4.92958L18.8903 4.97026C18.9298 5.30304 18.9678 5.62311 18.956 5.8935C18.9424 6.20846 18.8604 6.52544 18.6105 6.80428C18.3532 7.09123 18.0305 7.20259 17.7146 7.24982C17.4341 7.29173 17.0903 7.29168 16.7205 7.29163L16.68 7.29163H15.625V15.584C15.625 16.1745 15.625 16.6831 15.5709 17.0725C15.5154 17.4715 15.3812 17.9255 14.9534 18.2011C14.3213 18.6082 13.6208 18.3264 13.2274 18.1205C13.002 18.0027 12.7904 17.8632 12.6147 17.7425L12.1908 17.4514C11.9635 17.308 11.8376 17.2316 11.7434 17.1874C11.7228 17.1694 11.6597 17.1455 11.5715 17.1939C11.4764 17.2415 11.3548 17.3174 11.1424 17.4514L9.52771 18.4696C9.33221 18.593 9.14705 18.7098 8.98004 18.7922C8.79363 18.8842 8.58271 18.9583 8.33329 18.9583ZM16.5155 2.44832C16.6015 2.33993 16.6576 2.30514 16.6804 2.29468C16.6952 2.30181 16.7241 2.31961 16.7675 2.36188C16.8594 2.45166 16.9745 2.61398 17.0941 2.87035C17.3324 3.38073 17.5336 4.14394 17.6441 5.07668C17.6902 5.46558 17.714 5.68265 17.7072 5.83926C17.7021 5.95622 17.6819 5.96874 17.6794 5.97027C17.6765 5.97356 17.6745 5.97564 17.664 5.98044C17.648 5.98783 17.6097 6.0016 17.5298 6.01355C17.353 6.03999 17.1045 6.04163 16.68 6.04163H15.6385C15.6401 6.00589 15.6418 5.97031 15.6436 5.93487C15.6966 4.90492 15.8592 4.00048 16.0845 3.33016C16.0932 3.30418 16.102 3.27868 16.1108 3.25367C16.2431 2.87848 16.3853 2.61213 16.5155 2.44832ZM4.99996 4.37496C4.65479 4.37496 4.37496 4.65478 4.37496 4.99996C4.37496 5.34513 4.65479 5.62496 4.99996 5.62496H11.6666C12.0118 5.62496 12.2916 5.34513 12.2916 4.99996C12.2916 4.65478 12.0118 4.37496 11.6666 4.37496H4.99996ZM7.29163 8.33329C7.29163 8.67846 7.01181 8.95829 6.66663 8.95829H4.99996C4.65479 8.95829 4.37496 8.67846 4.37496 8.33329C4.37496 7.98812 4.65479 7.70829 4.99996 7.70829H6.66663C7.01181 7.70829 7.29163 7.98812 7.29163 8.33329ZM11.0416 8.33329C11.0416 7.98812 10.7618 7.70829 10.4166 7.70829C10.0715 7.70829 9.79163 7.98812 9.79163 8.33329V8.53738C9.09663 8.76413 8.54163 9.36029 8.54163 10.1562C8.54163 11.1812 9.46213 11.875 10.4166 11.875C10.8428 11.875 11.0416 12.1606 11.0416 12.3437C11.0416 12.5268 10.8428 12.8125 10.4166 12.8125C10.0946 12.8125 9.88179 12.634 9.81729 12.4742C9.68796 12.1541 9.32371 11.9995 9.00371 12.1288C8.68363 12.258 8.52896 12.6223 8.65821 12.9424C8.85863 13.4384 9.28363 13.8002 9.79163 13.9644V14.1666C9.79163 14.5118 10.0715 14.7916 10.4166 14.7916C10.7618 14.7916 11.0416 14.5118 11.0416 14.1666V13.9625C11.7366 13.7358 12.2916 13.1396 12.2916 12.3437C12.2916 11.3187 11.3711 10.625 10.4166 10.625C9.99046 10.625 9.79163 10.3393 9.79163 10.1562C9.79163 9.97313 9.99046 9.68746 10.4166 9.68746C10.7386 9.68746 10.9515 9.86596 11.016 10.0257C11.1453 10.3458 11.5095 10.5004 11.8296 10.3711C12.1496 10.2419 12.3043 9.87763 12.175 9.55754C11.9746 9.06154 11.5496 8.69971 11.0416 8.53554V8.33329Z" fill="black"/>
</svg>
