<svg width="32" height="32" viewBox="0 0 32 32" fill="none" xmlns="http://www.w3.org/2000/svg">
<path fill-rule="evenodd" clip-rule="evenodd" d="M13.3333 30.3333C12.9342 30.3333 12.5968 30.2148 12.2985 30.0676C12.0313 29.9357 11.7351 29.7489 11.4223 29.5516L8.83869 27.9222C8.49884 27.7078 8.30429 27.5865 8.15201 27.5102C8.01103 27.4329 7.91004 27.471 7.87716 27.4998C7.72636 27.5706 7.52498 27.6928 7.16123 27.9222L6.48296 28.3881C6.20195 28.5812 5.86321 28.8044 5.50275 28.9929C4.8733 29.3222 3.75243 29.7732 2.74108 29.1218C2.05659 28.6809 1.84199 27.9544 1.75316 27.316C1.66652 26.693 1.66658 25.8793 1.66663 24.9344V10.6663C1.6666 8.82537 1.66659 7.34335 1.82184 6.17812C1.98284 4.96976 2.32698 3.95308 3.12792 3.14488C3.93011 2.33544 4.94132 1.98652 6.14312 1.82348C7.29964 1.66659 8.7699 1.6666 10.5928 1.66663H13.3333H26.688C27.3214 1.66663 27.8402 1.97236 28.2249 2.34783C28.6054 2.71924 28.9129 3.21101 29.1629 3.74671C29.6648 4.82185 30.025 6.26991 30.2168 7.88736L30.2245 7.95244C30.2877 8.48489 30.3485 8.997 30.3297 9.42963C30.3078 9.93356 30.1766 10.4407 29.7768 10.8869C29.3652 11.346 28.8488 11.5242 28.3434 11.5997C27.8946 11.6668 27.3445 11.6667 26.7528 11.6666L26.688 11.6666H25V24.9344C25 25.8793 25.0001 26.693 24.9134 27.316C24.8246 27.9544 24.61 28.6809 23.9254 29.1218C22.9141 29.7732 21.7933 29.3222 21.1638 28.9929C20.8033 28.8044 20.4646 28.5812 20.1836 28.3881L19.5053 27.9222C19.1416 27.6928 18.9402 27.5706 18.7894 27.4998C18.7565 27.471 18.6556 27.4329 18.5145 27.5102C18.3622 27.5865 18.1677 27.7078 17.8278 27.9222L15.2444 29.5514C14.9316 29.7488 14.6353 29.9357 14.3681 30.0676C14.0698 30.2148 13.7324 30.3333 13.3333 30.3333ZM26.4248 3.91733C26.5625 3.74391 26.6522 3.68825 26.6886 3.67152C26.7124 3.68292 26.7586 3.7114 26.828 3.77904C26.975 3.92268 27.1592 4.1824 27.3506 4.59259C27.7318 5.40919 28.0538 6.63033 28.2306 8.12272C28.3044 8.74496 28.3425 9.09227 28.3316 9.34284C28.3234 9.52997 28.291 9.55001 28.287 9.55245C28.2824 9.55772 28.2793 9.56105 28.2625 9.56873C28.2368 9.58055 28.1756 9.60259 28.0477 9.62171C27.7648 9.66401 27.3672 9.66663 26.688 9.66663H25.0217C25.0242 9.60945 25.0269 9.55252 25.0298 9.49581C25.1146 7.84789 25.3748 6.40079 25.7352 5.32828C25.7492 5.28672 25.7632 5.24592 25.7773 5.20589C25.989 4.6056 26.2165 4.17944 26.4248 3.91733ZM7.99996 6.99996C7.44768 6.99996 6.99996 7.44768 6.99996 7.99996C6.99996 8.55224 7.44768 8.99996 7.99996 8.99996H18.6666C19.2189 8.99996 19.6666 8.55224 19.6666 7.99996C19.6666 7.44768 19.2189 6.99996 18.6666 6.99996H7.99996ZM11.6666 13.3333C11.6666 13.8856 11.2189 14.3333 10.6666 14.3333H7.99996C7.44768 14.3333 6.99996 13.8856 6.99996 13.3333C6.99996 12.781 7.44768 12.3333 7.99996 12.3333H10.6666C11.2189 12.3333 11.6666 12.781 11.6666 13.3333ZM17.6666 13.3333C17.6666 12.781 17.2189 12.3333 16.6666 12.3333C16.1144 12.3333 15.6666 12.781 15.6666 13.3333V13.6598C14.5546 14.0226 13.6666 14.9765 13.6666 16.25C13.6666 17.89 15.1394 19 16.6666 19C17.3485 19 17.6666 19.457 17.6666 19.75C17.6666 20.0429 17.3485 20.5 16.6666 20.5C16.1514 20.5 15.8109 20.2144 15.7077 19.9588C15.5008 19.4466 14.918 19.1993 14.406 19.4061C13.8938 19.6129 13.6464 20.1957 13.8532 20.7078C14.1738 21.5014 14.8538 22.0804 15.6666 22.343V22.6666C15.6666 23.2189 16.1144 23.6666 16.6666 23.6666C17.2189 23.6666 17.6666 23.2189 17.6666 22.6666V22.3401C18.7786 21.9773 19.6666 21.0234 19.6666 19.75C19.6666 18.11 18.1938 17 16.6666 17C15.9848 17 15.6666 16.5429 15.6666 16.25C15.6666 15.957 15.9848 15.5 16.6666 15.5C17.1818 15.5 17.5224 15.7856 17.6256 16.0412C17.8325 16.5533 18.4153 16.8006 18.9274 16.5938C19.4394 16.387 19.6869 15.8042 19.4801 15.2921C19.1594 14.4985 18.4794 13.9196 17.6666 13.6569V13.3333Z" fill="black"/>
</svg>
