<svg width="16" height="16" viewBox="0 0 16 16" fill="none" xmlns="http://www.w3.org/2000/svg">
<path opacity="0.4" d="M6.66674 15.1667C6.46717 15.1667 6.29845 15.1074 6.1493 15.0338C6.01572 14.9679 5.86761 14.8745 5.71119 14.7758L4.41941 13.9612C4.24948 13.854 4.15221 13.7933 4.07607 13.7552C4.00557 13.7165 3.95508 13.7356 3.93864 13.75C3.86323 13.7854 3.76255 13.8464 3.58067 13.9612L3.24154 14.1941C3.10103 14.2906 2.93167 14.4022 2.75144 14.4965C2.43671 14.6612 1.87628 14.8866 1.3706 14.561C1.02835 14.3405 0.921049 13.9772 0.876642 13.658C0.833322 13.3466 0.833349 12.9397 0.833375 12.4672V5.33321C0.833362 4.41275 0.833349 3.67173 0.910982 3.08912C0.991482 2.48494 1.16354 1.9766 1.56402 1.5725C1.96512 1.16778 2.47072 0.993321 3.07162 0.911801C3.64988 0.833354 4.38501 0.833361 5.29647 0.833374H6.66674H13.3441C13.6202 0.833374 13.8441 1.05723 13.8441 1.33337C13.8441 1.60739 13.6237 1.82991 13.3505 1.83333C13.3383 1.8375 13.291 1.85977 13.2124 1.95873C13.1013 2.09851 12.9794 2.33163 12.8677 2.6642C12.6459 3.32421 12.5 4.26793 12.5 5.33337V12.4672C12.5001 12.9397 12.5001 13.3466 12.4567 13.658C12.4123 13.9772 12.3051 14.3405 11.9628 14.561C11.4571 14.8866 10.8967 14.6612 10.5819 14.4965C10.4017 14.4022 10.2323 14.2906 10.0919 14.1941L9.75274 13.9612C9.57088 13.8464 9.47014 13.7854 9.39474 13.75C9.37834 13.7356 9.32781 13.7165 9.25734 13.7552C9.18121 13.7933 9.08394 13.854 8.91401 13.9612L7.62221 14.7758C7.46581 14.8744 7.31768 14.9679 7.18408 15.0338C7.03494 15.1074 6.86628 15.1667 6.66674 15.1667Z" fill="black"/>
<path fill-rule="evenodd" clip-rule="evenodd" d="M3.5 4C3.5 3.72386 3.72385 3.5 4 3.5H9.3333C9.6095 3.5 9.8333 3.72386 9.8333 4C9.8333 4.27614 9.6095 4.5 9.3333 4.5H4C3.72385 4.5 3.5 4.27614 3.5 4Z" fill="black"/>
<path fill-rule="evenodd" clip-rule="evenodd" d="M5.83333 6.66663C5.83333 6.94276 5.60947 7.16663 5.33333 7.16663H4C3.72385 7.16663 3.5 6.94276 3.5 6.66663C3.5 6.39049 3.72385 6.16663 4 6.16663H5.33333C5.60947 6.16663 5.83333 6.39049 5.83333 6.66663Z" fill="black"/>
<path fill-rule="evenodd" clip-rule="evenodd" d="M8.33337 6.16663C8.60957 6.16663 8.83337 6.39049 8.83337 6.66663V6.82843C9.23977 6.95976 9.57984 7.24923 9.74011 7.64603C9.84351 7.90209 9.71984 8.19349 9.46377 8.29689C9.20771 8.40029 8.91631 8.27663 8.81291 8.02056C8.76124 7.89276 8.59104 7.74996 8.33337 7.74996C7.99244 7.74996 7.83337 7.97849 7.83337 8.12496C7.83337 8.27143 7.99244 8.49996 8.33337 8.49996C9.09704 8.49996 9.83337 9.05496 9.83337 9.87496C9.83337 10.5117 9.38937 10.9886 8.83337 11.17V11.3333C8.83337 11.6094 8.60957 11.8333 8.33337 11.8333C8.05724 11.8333 7.83337 11.6094 7.83337 11.3333V11.1715C7.42704 11.0402 7.08697 10.7507 6.92671 10.3539C6.82331 10.0978 6.94697 9.80643 7.20304 9.70303C7.45911 9.59963 7.75051 9.72329 7.85391 9.97936C7.90557 10.1072 8.07577 10.25 8.33337 10.25C8.67437 10.25 8.83337 10.0214 8.83337 9.87496C8.83337 9.72849 8.67437 9.49996 8.33337 9.49996C7.56977 9.49996 6.83337 8.94496 6.83337 8.12496C6.83337 7.48823 7.27744 7.01129 7.83337 6.82989V6.66663C7.83337 6.39049 8.05724 6.16663 8.33337 6.16663Z" fill="black"/>
<path d="M12.5 5.83337H13.3764C13.6723 5.83342 13.9473 5.83346 14.1717 5.79992C14.4244 5.76214 14.6826 5.67306 14.8884 5.44349C15.0883 5.22043 15.1539 4.96684 15.1649 4.71487C15.1743 4.49854 15.1439 4.24253 15.1123 3.97628L15.1084 3.94374C15.0125 3.13501 14.8324 2.41098 14.5815 1.87341C14.4565 1.60557 14.3027 1.35968 14.1125 1.17397C13.9203 0.986401 13.6611 0.833634 13.3448 0.833374C13.6206 0.833807 13.844 1.0575 13.844 1.33337C13.844 1.60738 13.6236 1.82991 13.3504 1.83333C13.3489 1.83385 13.3469 1.83464 13.3443 1.83582C13.3562 1.84152 13.3793 1.85576 13.414 1.88958C13.4875 1.96139 13.5796 2.09126 13.6753 2.29635C13.8659 2.70465 14.0269 3.31523 14.1153 4.06142C14.1522 4.37254 14.1713 4.54619 14.1658 4.67148C14.1617 4.76504 14.1455 4.77507 14.1435 4.77628C14.1412 4.77892 14.1397 4.78058 14.1313 4.78443C14.1184 4.79033 14.0878 4.80135 14.0239 4.81091C13.8823 4.83207 13.6835 4.83337 13.344 4.83337H12.5109C12.5037 4.9965 12.5 5.16339 12.5 5.33337V5.83337Z" fill="black"/>
</svg>
