<svg width="20" height="20" viewBox="0 0 20 20" fill="none" xmlns="http://www.w3.org/2000/svg">
<path d="M16.68 1.66663C15.7522 1.66663 15 3.9052 15 6.66663H16.68C17.4897 6.66663 17.8945 6.66663 18.1451 6.38708C18.3957 6.10753 18.3521 5.7394 18.2648 5.00313C18.0345 3.05948 17.4119 1.66663 16.68 1.66663Z" stroke="black" stroke-width="1.25"/>
<path d="M15 6.71184V15.5381C15 16.7979 15 17.4277 14.615 17.6756C13.9859 18.0809 13.0134 17.2311 12.5242 16.9227C12.12 16.6678 11.918 16.5404 11.6937 16.533C11.4514 16.525 11.2457 16.6473 10.809 16.9227L9.21663 17.927C8.78704 18.1978 8.57229 18.3333 8.33329 18.3333C8.0943 18.3333 7.87951 18.1978 7.44996 17.927L5.85757 16.9227C5.45342 16.6678 5.25134 16.5404 5.02707 16.533C4.78473 16.525 4.57907 16.6473 4.14235 16.9227C3.65325 17.2311 2.68068 18.0809 2.05158 17.6756C1.66663 17.4277 1.66663 16.7979 1.66663 15.5381V6.71184C1.66663 4.3335 1.66663 3.14433 2.39886 2.40548C3.13109 1.66663 4.3096 1.66663 6.66663 1.66663H16.6666" stroke="black" stroke-width="1.25" stroke-linecap="round" stroke-linejoin="round"/>
<path opacity="0.4" d="M5 5H11.6667" stroke="black" stroke-width="1.25" stroke-linecap="round" stroke-linejoin="round"/>
<path d="M6.66667 8.33337H5" stroke="black" stroke-width="1.25" stroke-linecap="round" stroke-linejoin="round"/>
<path opacity="0.4" d="M10.4166 9.06254C9.72629 9.06254 9.16663 9.55221 9.16663 10.1563C9.16663 10.7604 9.72629 11.25 10.4166 11.25C11.107 11.25 11.6666 11.7397 11.6666 12.3438C11.6666 12.9479 11.107 13.4375 10.4166 13.4375M10.4166 9.06254C10.9609 9.06254 11.4239 9.36687 11.5955 9.79171M10.4166 9.06254V8.33337M10.4166 13.4375C9.87238 13.4375 9.40938 13.1332 9.23779 12.7084M10.4166 13.4375V14.1667" stroke="black" stroke-width="1.25" stroke-linecap="round"/>
</svg>
