<svg width="16" height="16" viewBox="0 0 16 16" fill="none" xmlns="http://www.w3.org/2000/svg">
<path fill-rule="evenodd" clip-rule="evenodd" d="M6.66671 15.1667C6.46718 15.1667 6.29845 15.1074 6.14931 15.0338C6.01572 14.9679 5.86761 14.8745 5.7112 14.7758L4.41941 13.9612C4.24948 13.854 4.15221 13.7933 4.07607 13.7552C4.00557 13.7165 3.95508 13.7356 3.93864 13.75C3.86324 13.7854 3.76255 13.8464 3.58068 13.9612L3.24154 14.1941C3.10104 14.2906 2.93167 14.4022 2.75144 14.4965C2.43671 14.6612 1.87628 14.8866 1.3706 14.561C1.02836 14.3405 0.921055 13.9772 0.876642 13.658C0.833322 13.3466 0.833349 12.9397 0.833375 12.4672V5.33321C0.833362 4.41275 0.833355 3.67173 0.910982 3.08912C0.991482 2.48494 1.16355 1.9766 1.56402 1.5725C1.96512 1.16778 2.47072 0.993321 3.07162 0.911801C3.64988 0.833354 4.38501 0.833361 5.29646 0.833374H6.66671H13.344C13.6608 0.833374 13.9202 0.986241 14.1125 1.17397C14.3028 1.35968 14.4565 1.60557 14.5815 1.87341C14.8324 2.41099 15.0126 3.13501 15.1084 3.94374L15.1123 3.97628C15.1439 4.24251 15.1743 4.49856 15.1649 4.71487C15.154 4.96684 15.0884 5.22043 14.8884 5.44349C14.6826 5.67306 14.4244 5.76215 14.1718 5.79993C13.9474 5.83346 13.6723 5.83342 13.3764 5.83338L13.344 5.83337H12.5V12.4672C12.5 12.9397 12.5001 13.3466 12.4568 13.658C12.4124 13.9772 12.305 14.3405 11.9628 14.561C11.4571 14.8866 10.8967 14.6612 10.582 14.4965C10.4017 14.4022 10.2324 14.2906 10.0918 14.1941L9.75271 13.9612C9.57084 13.8464 9.47017 13.7854 9.39477 13.75C9.37831 13.7356 9.32784 13.7165 9.25731 13.7552C9.18117 13.7933 9.08391 13.854 8.91397 13.9612L7.62224 14.7758C7.46584 14.8744 7.31771 14.9679 7.18411 15.0338C7.03498 15.1074 6.86624 15.1667 6.66671 15.1667ZM13.2124 1.95873C13.2813 1.87201 13.3262 1.84419 13.3444 1.83582C13.3562 1.84152 13.3794 1.85576 13.414 1.88958C13.4876 1.9614 13.5796 2.09126 13.6754 2.29635C13.866 2.70465 14.027 3.31523 14.1154 4.06142C14.1522 4.37254 14.1713 4.54619 14.1658 4.67148C14.1618 4.76505 14.1456 4.77507 14.1436 4.77629C14.1412 4.77892 14.1397 4.78059 14.1313 4.78443C14.1184 4.79033 14.0878 4.80135 14.0239 4.81091C13.8824 4.83207 13.6836 4.83337 13.344 4.83337H12.5109C12.5122 4.80479 12.5135 4.77632 12.515 4.74797C12.5574 3.92401 12.6874 3.20045 12.8676 2.6642C12.8746 2.64342 12.8816 2.62302 12.8887 2.60301C12.9946 2.30286 13.1083 2.08978 13.2124 1.95873ZM4.00004 3.50004C3.7239 3.50004 3.50004 3.7239 3.50004 4.00004C3.50004 4.27618 3.7239 4.50004 4.00004 4.50004H9.33337C9.60951 4.50004 9.83337 4.27618 9.83337 4.00004C9.83337 3.7239 9.60951 3.50004 9.33337 3.50004H4.00004ZM5.83337 6.66671C5.83337 6.94284 5.60952 7.16671 5.33337 7.16671H4.00004C3.7239 7.16671 3.50004 6.94284 3.50004 6.66671C3.50004 6.39057 3.7239 6.16671 4.00004 6.16671H5.33337C5.60952 6.16671 5.83337 6.39057 5.83337 6.66671ZM8.83337 6.66671C8.83337 6.39057 8.60951 6.16671 8.33337 6.16671C8.05724 6.16671 7.83337 6.39057 7.83337 6.66671V6.82997C7.27737 7.01137 6.83337 7.48831 6.83337 8.12504C6.83337 8.94504 7.56977 9.50004 8.33337 9.50004C8.67431 9.50004 8.83337 9.72857 8.83337 9.87504C8.83337 10.0215 8.67431 10.25 8.33337 10.25C8.07577 10.25 7.90551 10.1072 7.85391 9.97944C7.75044 9.72337 7.45904 9.59971 7.20304 9.70311C6.94697 9.80651 6.82324 10.0979 6.92664 10.354C7.08698 10.7508 7.42697 11.0402 7.83337 11.1716V11.3334C7.83337 11.6095 8.05724 11.8334 8.33337 11.8334C8.60951 11.8334 8.83337 11.6095 8.83337 11.3334V11.1701C9.38937 10.9887 9.83337 10.5118 9.83337 9.87504C9.83337 9.05504 9.09697 8.50004 8.33337 8.50004C7.99244 8.50004 7.83337 8.27151 7.83337 8.12504C7.83337 7.97857 7.99244 7.75004 8.33337 7.75004C8.59097 7.75004 8.76124 7.89284 8.81284 8.02064C8.91631 8.27671 9.20771 8.40037 9.46377 8.29697C9.71977 8.19357 9.84351 7.90217 9.74011 7.64611C9.57977 7.24931 9.23977 6.95984 8.83337 6.82851V6.66671Z" fill="black"/>
</svg>
