<svg width="28" height="28" viewBox="0 0 28 28" fill="none" xmlns="http://www.w3.org/2000/svg">
<path opacity="0.4" d="M11.6668 26.5417C11.3175 26.5417 11.0223 26.438 10.7612 26.3092C10.5275 26.1938 10.2683 26.0304 9.99456 25.8577L7.73393 24.432C7.43655 24.2444 7.26634 24.1383 7.13309 24.0715C7.00973 24.0039 6.92135 24.0372 6.89259 24.0624C6.76063 24.1244 6.58443 24.2312 6.26615 24.432L5.67266 24.8397C5.42677 25.0086 5.13039 25.2039 4.81498 25.3689C4.26421 25.657 3.28345 26.0516 2.39852 25.4817C1.79958 25.0959 1.6118 24.4601 1.53409 23.9015C1.45828 23.3565 1.45833 22.6445 1.45838 21.8176V9.3331C1.45835 7.72228 1.45833 6.4255 1.59419 5.40593C1.73506 4.34862 2.03617 3.45902 2.73701 2.75185C3.43892 2.04359 4.32373 1.73828 5.3753 1.59562C6.38726 1.45834 7.67375 1.45835 9.2688 1.45837H11.6668H23.3521C23.8353 1.45837 24.2271 1.85013 24.2271 2.33337C24.2271 2.8129 23.8414 3.20232 23.3633 3.2083C23.3421 3.2156 23.2592 3.25457 23.1217 3.42774C22.9273 3.67237 22.7139 4.08033 22.5184 4.66232C22.1303 5.81733 21.875 7.46884 21.875 9.33337V21.8176C21.8751 22.6445 21.8751 23.3565 21.7993 23.9015C21.7216 24.4601 21.5339 25.0959 20.9349 25.4817C20.05 26.0516 19.0692 25.657 18.5184 25.3689C18.203 25.2039 17.9066 25.0086 17.6608 24.8397L17.0673 24.432C16.749 24.2312 16.5727 24.1244 16.4408 24.0624C16.4121 24.0372 16.3236 24.0039 16.2003 24.0715C16.0671 24.1383 15.8969 24.2444 15.5995 24.432L13.3388 25.8576C13.0651 26.0302 12.8059 26.1938 12.5721 26.3092C12.3111 26.438 12.016 26.5417 11.6668 26.5417Z" fill="black"/>
<path fill-rule="evenodd" clip-rule="evenodd" d="M6.125 7C6.125 6.51675 6.51674 6.125 7 6.125H16.3333C16.8166 6.125 17.2083 6.51675 17.2083 7C17.2083 7.48324 16.8166 7.875 16.3333 7.875H7C6.51674 7.875 6.125 7.48324 6.125 7Z" fill="black"/>
<path fill-rule="evenodd" clip-rule="evenodd" d="M10.2083 11.6666C10.2083 12.1499 9.81658 12.5416 9.33333 12.5416H7C6.51674 12.5416 6.125 12.1499 6.125 11.6666C6.125 11.1834 6.51674 10.7916 7 10.7916H9.33333C9.81658 10.7916 10.2083 11.1834 10.2083 11.6666Z" fill="black"/>
<path fill-rule="evenodd" clip-rule="evenodd" d="M14.5834 10.7916C15.0667 10.7916 15.4584 11.1834 15.4584 11.6666V11.9498C16.1696 12.1796 16.7647 12.6862 17.0452 13.3806C17.2261 13.8287 17.0097 14.3386 16.5616 14.5196C16.1135 14.7005 15.6035 14.4841 15.4226 14.036C15.3321 13.8124 15.0343 13.5625 14.5834 13.5625C13.9867 13.5625 13.7084 13.9624 13.7084 14.2187C13.7084 14.475 13.9867 14.875 14.5834 14.875C15.9198 14.875 17.2084 15.8462 17.2084 17.2812C17.2084 18.3955 16.4314 19.2301 15.4584 19.5476V19.8333C15.4584 20.3165 15.0667 20.7083 14.5834 20.7083C14.1001 20.7083 13.7084 20.3165 13.7084 19.8333V19.5501C12.9973 19.3203 12.4022 18.8137 12.1217 18.1193C11.9408 17.6712 12.1572 17.1613 12.6053 16.9803C13.0534 16.7994 13.5634 17.0158 13.7443 17.4639C13.8347 17.6876 14.1326 17.9375 14.5834 17.9375C15.1801 17.9375 15.4584 17.5375 15.4584 17.2812C15.4584 17.0249 15.1801 16.625 14.5834 16.625C13.2471 16.625 11.9584 15.6537 11.9584 14.2187C11.9584 13.1044 12.7355 12.2698 13.7084 11.9523V11.6666C13.7084 11.1834 14.1001 10.7916 14.5834 10.7916Z" fill="black"/>
<path d="M21.8751 10.2084H23.4088C23.9266 10.2085 24.408 10.2085 24.8007 10.1498C25.2428 10.0837 25.6947 9.92782 26.0548 9.52607C26.4047 9.13572 26.5195 8.69194 26.5386 8.25099C26.5551 7.87242 26.5019 7.42439 26.4466 6.95846L26.4398 6.90152C26.2721 5.48624 25.9568 4.21919 25.5177 3.27844C25.2989 2.80971 25.0299 2.37941 24.6969 2.05442C24.3607 1.72617 23.9071 1.45883 23.3535 1.45837C23.8362 1.45913 24.2271 1.8506 24.2271 2.33337C24.2271 2.81289 23.8414 3.20232 23.3633 3.2083C23.3608 3.2092 23.3571 3.21059 23.3527 3.21266C23.3735 3.22263 23.414 3.24755 23.4746 3.30674C23.6033 3.43241 23.7644 3.65968 23.932 4.01859C24.2655 4.73311 24.5473 5.80162 24.702 7.10746C24.7665 7.65192 24.7998 7.95581 24.7903 8.17506C24.7832 8.33879 24.7548 8.35634 24.7513 8.35846C24.7472 8.36308 24.7445 8.36599 24.7298 8.37272C24.7073 8.38304 24.6538 8.40234 24.5419 8.41907C24.2942 8.45609 23.9463 8.45837 23.3521 8.45837H21.8941C21.8817 8.74385 21.8751 9.0359 21.8751 9.33337V10.2084Z" fill="black"/>
</svg>
