<svg width="16" height="16" viewBox="0 0 16 16" fill="none" xmlns="http://www.w3.org/2000/svg">
<path d="M13.344 1.33337C12.6017 1.33337 12 3.12423 12 5.33337H13.344C13.9917 5.33337 14.3156 5.33337 14.5161 5.10974C14.7166 4.8861 14.6817 4.59159 14.6119 4.00258C14.4276 2.44766 13.9295 1.33337 13.344 1.33337Z" stroke="black"/>
<path d="M12 5.36955V12.4306C12 13.4384 12 13.9422 11.692 14.1406C11.1888 14.4648 10.4108 13.785 10.0194 13.5382C9.69611 13.3343 9.53451 13.2324 9.35504 13.2265C9.16117 13.2201 8.99664 13.3179 8.64731 13.5382L7.37337 14.3416C7.02971 14.5583 6.85791 14.6667 6.66671 14.6667C6.47551 14.6667 6.30368 14.5583 5.96004 14.3416L4.68613 13.5382C4.36281 13.3343 4.20115 13.2324 4.02173 13.2265C3.82785 13.2201 3.66333 13.3179 3.31395 13.5382C2.92267 13.785 2.14462 14.4648 1.64134 14.1406C1.33337 13.9422 1.33337 13.4384 1.33337 12.4306V5.36955C1.33337 3.46687 1.33337 2.51554 1.91916 1.92446C2.50495 1.33337 3.44775 1.33337 5.33337 1.33337H13.3334" stroke="black" stroke-linecap="round" stroke-linejoin="round"/>
<path opacity="0.4" d="M4 4H9.33333" stroke="black" stroke-linecap="round" stroke-linejoin="round"/>
<path d="M5.33333 6.66663H4" stroke="black" stroke-linecap="round" stroke-linejoin="round"/>
<path opacity="0.4" d="M8.33337 7.24996C7.78111 7.24996 7.33337 7.64169 7.33337 8.12496C7.33337 8.60823 7.78111 8.99996 8.33337 8.99996C8.88564 8.99996 9.33337 9.39169 9.33337 9.87496C9.33337 10.3582 8.88564 10.75 8.33337 10.75M8.33337 7.24996C8.76877 7.24996 9.13917 7.49343 9.27644 7.83329M8.33337 7.24996V6.66663M8.33337 10.75C7.89797 10.75 7.52757 10.5065 7.39031 10.1666M8.33337 10.75V11.3333" stroke="black" stroke-linecap="round"/>
</svg>
