<svg width="28" height="28" viewBox="0 0 28 28" fill="none" xmlns="http://www.w3.org/2000/svg">
<path d="M23.352 2.33337C22.053 2.33337 21 5.46738 21 9.33337H23.352C24.4855 9.33337 25.0523 9.33337 25.4031 8.94202C25.754 8.55065 25.6929 8.03526 25.5708 7.00449C25.2483 4.28338 24.3767 2.33337 23.352 2.33337Z" stroke="black" stroke-width="1.75"/>
<path d="M21 9.39668V21.7535C21 23.5171 21 24.3989 20.461 24.746C19.5803 25.3133 18.2188 24.1237 17.534 23.6919C16.9682 23.335 16.6854 23.1566 16.3713 23.1464C16.032 23.1352 15.7441 23.3063 15.1328 23.6919L12.9034 25.0978C12.302 25.477 12.0013 25.6667 11.6667 25.6667C11.3321 25.6667 11.0314 25.477 10.43 25.0978L8.20069 23.6919C7.63488 23.335 7.35198 23.1566 7.03799 23.1464C6.69871 23.1352 6.41079 23.3063 5.79939 23.6919C5.11465 24.1237 3.75306 25.3133 2.87232 24.746C2.33337 24.3989 2.33337 23.5171 2.33337 21.7535V9.39668C2.33337 6.067 2.33337 4.40217 3.3585 3.36778C4.38363 2.33337 6.03354 2.33337 9.33337 2.33337H23.3334" stroke="black" stroke-width="1.75" stroke-linecap="round" stroke-linejoin="round"/>
<path d="M7 7H16.3333" stroke="black" stroke-width="1.75" stroke-linecap="round" stroke-linejoin="round"/>
<path d="M9.33333 11.6666H7" stroke="black" stroke-width="1.75" stroke-linecap="round" stroke-linejoin="round"/>
<path d="M14.5834 12.6875C13.6169 12.6875 12.8334 13.373 12.8334 14.2187C12.8334 15.0644 13.6169 15.75 14.5834 15.75C15.5498 15.75 16.3334 16.4355 16.3334 17.2812C16.3334 18.1269 15.5498 18.8125 14.5834 18.8125M14.5834 12.6875C15.3453 12.6875 15.9935 13.1135 16.2337 13.7083M14.5834 12.6875V11.6666M14.5834 18.8125C13.8214 18.8125 13.1732 18.3864 12.933 17.7916M14.5834 18.8125V19.8333" stroke="black" stroke-width="1.75" stroke-linecap="round"/>
</svg>
