<svg width="20" height="20" viewBox="0 0 20 20" fill="none" xmlns="http://www.w3.org/2000/svg">
<path d="M10.8814 2.5C12.216 2.49998 13.2815 2.49998 14.117 2.61231C14.9806 2.72841 15.6915 2.97498 16.2541 3.5376C16.8167 4.10021 17.0633 4.8111 17.1794 5.67464C17.2917 6.51018 17.2917 7.57566 17.2917 8.91033V13.3333C17.2917 13.4991 17.2258 13.658 17.1086 13.7753L12.1086 18.7753C11.9914 18.8924 11.8325 18.9583 11.6667 18.9583H9.11871C7.78403 18.9583 6.71855 18.9583 5.88302 18.846C5.01947 18.7299 4.30858 18.4833 3.74597 17.9208C3.18337 17.3582 2.93678 16.6473 2.82068 15.7837C2.70834 14.9482 2.70836 13.8827 2.70837 12.548V8.91033C2.70836 7.57565 2.70834 6.51018 2.82068 5.67464C2.93678 4.8111 3.18337 4.10021 3.74597 3.5376C4.30858 2.97499 5.01947 2.72841 5.88302 2.61231C6.71855 2.49997 7.78404 2.49998 9.11871 2.5H10.8814ZM16.0743 12.9167C13.7172 12.9167 12.5381 12.9168 11.8059 13.6491C11.0739 14.3813 11.0743 15.5599 11.0743 17.9167L16.0743 12.9167ZM6.66671 11.0417C6.32153 11.0417 6.04171 11.3215 6.04171 11.6667C6.04171 12.0118 6.32153 12.2917 6.66671 12.2917H9.58337C9.92854 12.2917 10.2084 12.0118 10.2084 11.6667C10.2084 11.3215 9.92854 11.0417 9.58337 11.0417H6.66671ZM6.66671 7.70833C6.32153 7.70833 6.04171 7.98816 6.04171 8.33333C6.04171 8.6785 6.32153 8.95833 6.66671 8.95833H13.3334C13.6785 8.95833 13.9584 8.6785 13.9584 8.33333C13.9584 7.98816 13.6785 7.70833 13.3334 7.70833H6.66671Z" fill="black"/>
<path d="M5.625 1.83708V4.04163C5.625 4.45584 5.98113 4.79163 6.42046 4.79163C6.85977 4.79163 7.21591 4.45584 7.21591 4.04163V1.83708C7.21591 1.39776 6.85977 1.04163 6.42046 1.04163C5.98113 1.04163 5.625 1.39776 5.625 1.83708Z" fill="black"/>
<path d="M9.20459 1.83708V4.04163C9.20459 4.45584 9.56067 4.79163 10 4.79163C10.4393 4.79163 10.7954 4.45584 10.7954 4.04163V1.83708C10.7954 1.39776 10.4393 1.04163 10 1.04163C9.56067 1.04163 9.20459 1.39777 9.20459 1.83708Z" fill="black"/>
<path d="M12.7841 1.83708V4.04163C12.7841 4.45584 13.1402 4.79163 13.5796 4.79163C14.0188 4.79163 14.375 4.45584 14.375 4.04163V1.83708C14.375 1.39776 14.0188 1.04163 13.5796 1.04163C13.1402 1.04163 12.7841 1.39777 12.7841 1.83708Z" fill="black"/>
</svg>
