<svg width="16" height="16" viewBox="0 0 16 16" fill="none" xmlns="http://www.w3.org/2000/svg">
<path opacity="0.4" d="M13.6868 11.0202C13.7806 10.9264 13.8333 10.7993 13.8333 10.6667V7.16667V7.12807C13.8333 6.06035 13.8333 5.20814 13.7434 4.53971C13.6506 3.84888 13.4533 3.28017 13.0032 2.83008C12.5532 2.37999 11.9844 2.18273 11.2936 2.08985C10.6252 1.99997 9.77296 1.99999 8.70523 2H8.66663H7.33329H7.29469C6.22697 1.99999 5.37477 1.99997 4.70634 2.08985C4.01551 2.18273 3.44679 2.37999 2.99671 2.83008C2.54662 3.28017 2.34935 3.84888 2.25647 4.53971C2.1666 5.20814 2.16661 6.06035 2.16663 7.12807V7.16667V10V10.0386C2.16661 11.1063 2.1666 11.9585 2.25647 12.6269C2.34935 13.3178 2.54662 13.8865 2.99671 14.3366C3.44679 14.7867 4.01551 14.9839 4.70634 15.0768C5.37477 15.1667 6.22697 15.1667 7.29469 15.1667H7.33329H9.33329C9.46589 15.1667 9.59303 15.1139 9.68683 15.0202L13.6868 11.0202Z" fill="black"/>
<path d="M13.6869 11.0202C13.7806 10.9264 13.8334 10.7992 13.8334 10.6666H13.3334C11.4478 10.6666 10.505 10.6666 9.91917 11.2524C9.33337 11.8382 9.33337 12.781 9.33337 14.6666V15.1666C9.46597 15.1666 9.59311 15.1139 9.68691 15.0202L13.6869 11.0202Z" fill="black"/>
<path d="M7.66671 8.83329C7.94284 8.83329 8.16671 9.05716 8.16671 9.33329C8.16671 9.60943 7.94284 9.83329 7.66671 9.83329H5.33337C5.05723 9.83329 4.83337 9.60943 4.83337 9.33329C4.83337 9.05716 5.05723 8.83329 5.33337 8.83329H7.66671ZM10.6667 6.16663C10.9428 6.16663 11.1667 6.39049 11.1667 6.66663C11.1667 6.94276 10.9428 7.16663 10.6667 7.16663H5.33337C5.05723 7.16663 4.83337 6.94276 4.83337 6.66663C4.83337 6.39049 5.05723 6.16663 5.33337 6.16663H10.6667Z" fill="black"/>
<path d="M4.5 1.46974V3.23337C4.5 3.56475 4.78491 3.83337 5.13637 3.83337C5.48782 3.83337 5.77273 3.56475 5.77273 3.23337V1.46974C5.77273 1.11828 5.48782 0.833374 5.13637 0.833374C4.78491 0.833374 4.5 1.11828 4.5 1.46974Z" fill="black"/>
<path d="M7.36365 1.46974V3.23337C7.36365 3.56475 7.64851 3.83337 7.99998 3.83337C8.35145 3.83337 8.63631 3.56475 8.63631 3.23337V1.46974C8.63631 1.11828 8.35145 0.833374 7.99998 0.833374C7.64851 0.833374 7.36365 1.11829 7.36365 1.46974Z" fill="black"/>
<path d="M10.2273 1.46974V3.23337C10.2273 3.56475 10.5122 3.83337 10.8637 3.83337C11.2151 3.83337 11.5 3.56475 11.5 3.23337V1.46974C11.5 1.11828 11.2151 0.833374 10.8637 0.833374C10.5122 0.833374 10.2273 1.11829 10.2273 1.46974Z" fill="black"/>
</svg>
