<svg width="20" height="20" viewBox="0 0 20 20" fill="none" xmlns="http://www.w3.org/2000/svg">
<path d="M10.8334 2.91663H9.16671C6.41685 2.91663 5.04192 2.91663 4.18765 3.7709C3.33337 4.62517 3.33337 6.0001 3.33337 8.74996V12.5C3.33337 15.2498 3.33337 16.6247 4.18765 17.479C5.04192 18.3333 6.41685 18.3333 9.16671 18.3333H11.6667L16.6667 13.3333V8.74996C16.6667 6.0001 16.6667 4.62517 15.8125 3.7709C14.9581 2.91663 13.5832 2.91663 10.8334 2.91663Z" stroke="black" stroke-width="1.25" stroke-linecap="round" stroke-linejoin="round"/>
<path d="M6.66663 11.6667H9.58329M6.66663 8.33337H13.3333" stroke="black" stroke-width="1.25" stroke-linecap="round" stroke-linejoin="round"/>
<path d="M16.6666 13.3334C14.3096 13.3334 13.1311 13.3334 12.3989 14.0656C11.6666 14.7979 11.6666 15.9764 11.6666 18.3334" stroke="black" stroke-width="1.25" stroke-linecap="round" stroke-linejoin="round"/>
<path d="M13.75 1.66663V4.16663M6.25 1.66663V4.16663M10 1.66663V4.16663" stroke="black" stroke-width="1.25" stroke-linecap="round" stroke-linejoin="round"/>
</svg>
