<svg width="28" height="28" viewBox="0 0 28 28" fill="none" xmlns="http://www.w3.org/2000/svg">
<path d="M15.1666 4.08337H12.8333C8.98349 4.08337 7.05858 4.08337 5.86261 5.27936C4.66663 6.47533 4.66663 8.40024 4.66663 12.25V17.5C4.66663 21.3498 4.66663 23.2747 5.86261 24.4708C7.05858 25.6667 8.98349 25.6667 12.8333 25.6667H16.3333L23.3333 18.6667V12.25C23.3333 8.40024 23.3333 6.47533 22.1373 5.27936C20.9413 4.08337 19.0164 4.08337 15.1666 4.08337Z" stroke="black" stroke-width="1.75" stroke-linecap="round" stroke-linejoin="round"/>
<path opacity="0.4" d="M9.33337 16.3333H13.4167M9.33337 11.6666H18.6667" stroke="black" stroke-width="1.75" stroke-linecap="round" stroke-linejoin="round"/>
<path opacity="0.4" d="M23.3334 18.6666C20.0336 18.6666 18.3837 18.6666 17.3585 19.6918C16.3334 20.7169 16.3334 22.3668 16.3334 25.6666" stroke="black" stroke-width="1.75" stroke-linecap="round" stroke-linejoin="round"/>
<path d="M19.25 2.33337V5.83337M8.75 2.33337V5.83337M14 2.33337V5.83337" stroke="black" stroke-width="1.75" stroke-linecap="round" stroke-linejoin="round"/>
</svg>
