<svg width="32" height="32" viewBox="0 0 32 32" fill="none" xmlns="http://www.w3.org/2000/svg">
<path d="M17.4102 4C19.5456 3.99997 21.2504 3.99996 22.5872 4.17969C23.969 4.36545 25.1064 4.75997 26.0066 5.66016C26.9067 6.56033 27.3012 7.69776 27.487 9.07943C27.6667 10.4163 27.6667 12.1211 27.6667 14.2565V21.3333C27.6667 21.5985 27.5612 21.8528 27.3738 22.0404L19.3738 30.0404C19.1862 30.2279 18.9319 30.3333 18.6667 30.3333H14.5899C12.4544 30.3333 10.7497 30.3333 9.4128 30.1536C8.03113 29.9679 6.89371 29.5733 5.99353 28.6732C5.09336 27.7731 4.69883 26.6356 4.51307 25.2539C4.33332 23.9171 4.33335 22.2123 4.33337 20.0768V14.2565C4.33335 12.121 4.33332 10.4163 4.51307 9.07943C4.69883 7.69776 5.09336 6.56033 5.99353 5.66016C6.89371 4.75999 8.03113 4.36545 9.4128 4.17969C10.7497 3.99995 12.4544 3.99997 14.5899 4H17.4102ZM25.7188 20.6667C21.9475 20.6667 20.061 20.6669 18.8894 21.8385C17.7182 23.0101 17.7188 24.8959 17.7188 28.6667L25.7188 20.6667ZM10.6667 17.6667C10.1144 17.6667 9.66671 18.1144 9.66671 18.6667C9.66671 19.2189 10.1144 19.6667 10.6667 19.6667H15.3334C15.8856 19.6667 16.3334 19.2189 16.3334 18.6667C16.3334 18.1144 15.8856 17.6667 15.3334 17.6667H10.6667ZM10.6667 12.3333C10.1144 12.3333 9.66671 12.7811 9.66671 13.3333C9.66671 13.8856 10.1144 14.3333 10.6667 14.3333H21.3334C21.8856 14.3333 22.3334 13.8856 22.3334 13.3333C22.3334 12.7811 21.8856 12.3333 21.3334 12.3333H10.6667Z" fill="black"/>
<path d="M9 2.93936V6.46663C9 7.12937 9.56981 7.66663 10.2727 7.66663C10.9756 7.66663 11.5455 7.12937 11.5455 6.46663V2.93936C11.5455 2.23644 10.9756 1.66663 10.2727 1.66663C9.56981 1.66663 9 2.23644 9 2.93936Z" fill="black"/>
<path d="M14.7273 2.93936V6.46663C14.7273 7.12937 15.297 7.66663 16 7.66663C16.7029 7.66663 17.2726 7.12937 17.2726 6.46663V2.93936C17.2726 2.23644 16.7029 1.66663 16 1.66663C15.297 1.66663 14.7273 2.23645 14.7273 2.93936Z" fill="black"/>
<path d="M20.4546 2.93936V6.46663C20.4546 7.12937 21.0245 7.66663 21.7274 7.66663C22.4302 7.66663 23.0001 7.12937 23.0001 6.46663V2.93936C23.0001 2.23644 22.4302 1.66663 21.7274 1.66663C21.0245 1.66663 20.4546 2.23645 20.4546 2.93936Z" fill="black"/>
</svg>
