<svg width="32" height="32" viewBox="0 0 32 32" fill="none" xmlns="http://www.w3.org/2000/svg">
<path opacity="0.4" d="M27.3738 22.0404C27.5612 21.8528 27.6667 21.5985 27.6667 21.3333V14.3333V14.2561C27.6667 12.1207 27.6667 10.4163 27.487 9.07943C27.3012 7.69776 26.9067 6.56033 26.0066 5.66016C25.1064 4.75997 23.969 4.36545 22.5872 4.17969C21.2504 3.99995 19.546 3.99997 17.4106 4H17.3334H14.6667H14.5895C12.4541 3.99997 10.7497 3.99995 9.4128 4.17969C8.03113 4.36545 6.89371 4.75997 5.99353 5.66016C5.09336 6.56033 4.69883 7.69776 4.51307 9.07943C4.33332 10.4163 4.33335 12.1207 4.33337 14.2561V14.3333V20V20.0772C4.33335 22.2127 4.33332 23.9171 4.51307 25.2539C4.69883 26.6356 5.09336 27.7731 5.99353 28.6732C6.89371 29.5733 8.03113 29.9679 9.4128 30.1536C10.7497 30.3333 12.4541 30.3333 14.5895 30.3333H14.6667H18.6667C18.9319 30.3333 19.1862 30.2279 19.3738 30.0404L27.3738 22.0404Z" fill="black"/>
<path d="M27.3737 22.0404C27.5612 21.8528 27.6666 21.5986 27.6666 21.3334H26.6666C22.8954 21.3334 21.0098 21.3334 19.8382 22.505C18.6666 23.6766 18.6666 25.5622 18.6666 29.3334V30.3334C18.9318 30.3334 19.1861 30.2279 19.3737 30.0404L27.3737 22.0404Z" fill="black"/>
<path d="M15.3333 17.6667C15.8856 17.6667 16.3333 18.1144 16.3333 18.6667C16.3333 19.219 15.8856 19.6667 15.3333 19.6667H10.6666C10.1143 19.6667 9.66663 19.219 9.66663 18.6667C9.66663 18.1144 10.1143 17.6667 10.6666 17.6667H15.3333ZM21.3333 12.3334C21.8856 12.3334 22.3333 12.7811 22.3333 13.3334C22.3333 13.8856 21.8856 14.3334 21.3333 14.3334H10.6666C10.1143 14.3334 9.66663 13.8856 9.66663 13.3334C9.66663 12.7811 10.1143 12.3334 10.6666 12.3334H21.3333Z" fill="black"/>
<path d="M9 2.93936V6.46663C9 7.12937 9.56981 7.66663 10.2727 7.66663C10.9756 7.66663 11.5455 7.12937 11.5455 6.46663V2.93936C11.5455 2.23644 10.9756 1.66663 10.2727 1.66663C9.56981 1.66663 9 2.23644 9 2.93936Z" fill="black"/>
<path d="M14.7273 2.93936V6.46663C14.7273 7.12937 15.297 7.66663 16 7.66663C16.7029 7.66663 17.2726 7.12937 17.2726 6.46663V2.93936C17.2726 2.23644 16.7029 1.66663 16 1.66663C15.297 1.66663 14.7273 2.23645 14.7273 2.93936Z" fill="black"/>
<path d="M20.4546 2.93936V6.46663C20.4546 7.12937 21.0245 7.66663 21.7274 7.66663C22.4302 7.66663 23.0001 7.12937 23.0001 6.46663V2.93936C23.0001 2.23644 22.4302 1.66663 21.7274 1.66663C21.0245 1.66663 20.4546 2.23645 20.4546 2.93936Z" fill="black"/>
</svg>
