<svg width="16" height="16" viewBox="0 0 16 16" fill="none" xmlns="http://www.w3.org/2000/svg">
<path d="M8.66663 2.33337H7.33329C5.13341 2.33337 4.03346 2.33337 3.35005 3.01679C2.66663 3.70021 2.66663 4.80015 2.66663 7.00004V10C2.66663 12.1999 2.66663 13.2998 3.35005 13.9833C4.03346 14.6667 5.13341 14.6667 7.33329 14.6667H9.33329L13.3333 10.6667V7.00004C13.3333 4.80015 13.3333 3.70021 12.6499 3.01679C11.9664 2.33337 10.8665 2.33337 8.66663 2.33337Z" stroke="black" stroke-linecap="round" stroke-linejoin="round"/>
<path opacity="0.4" d="M5.33337 9.33329H7.66671M5.33337 6.66663H10.6667" stroke="black" stroke-linecap="round" stroke-linejoin="round"/>
<path opacity="0.4" d="M13.3334 10.6666C11.4478 10.6666 10.505 10.6666 9.91917 11.2524C9.33337 11.8382 9.33337 12.781 9.33337 14.6666" stroke="black" stroke-linecap="round" stroke-linejoin="round"/>
<path d="M11 1.33337V3.33337M5 1.33337V3.33337M8 1.33337V3.33337" stroke="black" stroke-linecap="round" stroke-linejoin="round"/>
</svg>
