<svg width="28" height="28" viewBox="0 0 28 28" fill="none" xmlns="http://www.w3.org/2000/svg">
<path d="M15.2338 3.5C17.1024 3.49998 18.5941 3.49997 19.7638 3.65723C20.9728 3.81977 21.9681 4.16498 22.7557 4.95264C23.5433 5.74029 23.8885 6.73554 24.051 7.9445C24.2083 9.11425 24.2083 10.6059 24.2083 12.4745V18.6667C24.2083 18.8987 24.116 19.1212 23.952 19.2854L16.952 26.2853C16.7878 26.4494 16.5653 26.5417 16.3333 26.5417H12.7661C10.8975 26.5417 9.40587 26.5417 8.23612 26.3844C7.02717 26.2219 6.03192 25.8767 5.24427 25.089C4.45661 24.3014 4.1114 23.3061 3.94886 22.0971C3.79158 20.9274 3.7916 19.4357 3.79163 17.5672V12.4745C3.7916 10.6059 3.79158 9.11425 3.94886 7.9445C4.1114 6.73554 4.45661 5.74029 5.24427 4.95264C6.03192 4.16499 7.02717 3.81977 8.23612 3.65723C9.40587 3.49995 10.8976 3.49998 12.7661 3.5H15.2338ZM22.5039 18.0833C19.204 18.0833 17.5533 18.0836 16.5281 19.1087C15.5033 20.1339 15.5039 21.7839 15.5039 25.0833L22.5039 18.0833ZM9.33329 15.4583C8.85005 15.4583 8.45829 15.8501 8.45829 16.3333C8.45829 16.8166 8.85005 17.2083 9.33329 17.2083H13.4166C13.8999 17.2083 14.2916 16.8166 14.2916 16.3333C14.2916 15.8501 13.8999 15.4583 13.4166 15.4583H9.33329ZM9.33329 10.7917C8.85005 10.7917 8.45829 11.1834 8.45829 11.6667C8.45829 12.1499 8.85005 12.5417 9.33329 12.5417H18.6666C19.1499 12.5417 19.5416 12.1499 19.5416 11.6667C19.5416 11.1834 19.1499 10.7917 18.6666 10.7917H9.33329Z" fill="black"/>
<path d="M7.875 2.57202V5.65837C7.875 6.23828 8.37359 6.70837 8.98864 6.70837C9.60368 6.70837 10.1023 6.23828 10.1023 5.65837V2.57202C10.1023 1.95696 9.60368 1.45837 8.98864 1.45837C8.37359 1.45837 7.875 1.95696 7.875 2.57202Z" fill="black"/>
<path d="M12.8865 2.57202V5.65837C12.8865 6.23828 13.385 6.70837 14.0001 6.70837C14.6151 6.70837 15.1136 6.23828 15.1136 5.65837V2.57202C15.1136 1.95696 14.6151 1.45837 14.0001 1.45837C13.385 1.45837 12.8865 1.95697 12.8865 2.57202Z" fill="black"/>
<path d="M17.8977 2.57202V5.65837C17.8977 6.23828 18.3963 6.70837 19.0114 6.70837C19.6264 6.70837 20.125 6.23828 20.125 5.65837V2.57202C20.125 1.95696 19.6264 1.45837 19.0114 1.45837C18.3963 1.45837 17.8977 1.95697 17.8977 2.57202Z" fill="black"/>
</svg>
