<svg width="16" height="16" viewBox="0 0 16 16" fill="none" xmlns="http://www.w3.org/2000/svg">
<path d="M8.70503 2C9.77276 1.99999 10.6252 1.99998 11.2936 2.08985C11.9844 2.18273 12.5532 2.37999 13.0032 2.83008C13.4533 3.28017 13.6506 3.84888 13.7434 4.53971C13.8333 5.20814 13.8333 6.06053 13.8333 7.12827V10.6667C13.8333 10.7993 13.7806 10.9264 13.6868 11.0202L9.68683 15.0202C9.59303 15.1139 9.46589 15.1667 9.33329 15.1667H7.29489C6.22715 15.1667 5.37477 15.1667 4.70634 15.0768C4.01551 14.9839 3.44679 14.7867 2.99671 14.3366C2.54662 13.8865 2.34935 13.3178 2.25647 12.6269C2.1666 11.9585 2.16661 11.1061 2.16663 10.0384V7.12827C2.16661 6.06052 2.1666 5.20814 2.25647 4.53971C2.34935 3.84888 2.54662 3.28017 2.99671 2.83008C3.44679 2.37999 4.01551 2.18273 4.70634 2.08985C5.37477 1.99997 6.22716 1.99999 7.29489 2H8.70503ZM12.8594 10.3333C10.9737 10.3333 10.0304 10.3335 9.44463 10.9193C8.85903 11.5051 8.85936 12.4479 8.85936 14.3333L12.8594 10.3333ZM5.33329 8.83333C5.05715 8.83333 4.83329 9.0572 4.83329 9.33333C4.83329 9.60947 5.05715 9.83333 5.33329 9.83333H7.66663C7.94276 9.83333 8.16663 9.60947 8.16663 9.33333C8.16663 9.0572 7.94276 8.83333 7.66663 8.83333H5.33329ZM5.33329 6.16667C5.05715 6.16667 4.83329 6.39053 4.83329 6.66667C4.83329 6.9428 5.05715 7.16667 5.33329 7.16667H10.6666C10.9428 7.16667 11.1666 6.9428 11.1666 6.66667C11.1666 6.39053 10.9428 6.16667 10.6666 6.16667H5.33329Z" fill="black"/>
<path d="M4.5 1.46974V3.23337C4.5 3.56475 4.78491 3.83337 5.13637 3.83337C5.48782 3.83337 5.77273 3.56475 5.77273 3.23337V1.46974C5.77273 1.11828 5.48782 0.833374 5.13637 0.833374C4.78491 0.833374 4.5 1.11828 4.5 1.46974Z" fill="black"/>
<path d="M7.36365 1.46974V3.23337C7.36365 3.56475 7.64851 3.83337 7.99998 3.83337C8.35145 3.83337 8.63631 3.56475 8.63631 3.23337V1.46974C8.63631 1.11828 8.35145 0.833374 7.99998 0.833374C7.64851 0.833374 7.36365 1.11829 7.36365 1.46974Z" fill="black"/>
<path d="M10.2273 1.46974V3.23337C10.2273 3.56475 10.5122 3.83337 10.8637 3.83337C11.2151 3.83337 11.5 3.56475 11.5 3.23337V1.46974C11.5 1.11828 11.2151 0.833374 10.8637 0.833374C10.5122 0.833374 10.2273 1.11829 10.2273 1.46974Z" fill="black"/>
</svg>
