<svg width="20" height="20" viewBox="0 0 20 20" fill="none" xmlns="http://www.w3.org/2000/svg">
<path opacity="0.4" d="M17.1086 13.7753C17.2258 13.658 17.2917 13.4991 17.2917 13.3333V8.95833V8.91008C17.2917 7.57543 17.2917 6.51018 17.1794 5.67464C17.0633 4.8111 16.8167 4.10021 16.2541 3.5376C15.6915 2.97498 14.9806 2.72841 14.117 2.61231C13.2815 2.49997 12.2163 2.49998 10.8816 2.5H10.8334H9.16671H9.11846C7.7838 2.49998 6.71855 2.49997 5.88302 2.61231C5.01947 2.72841 4.30858 2.97498 3.74597 3.5376C3.18337 4.10021 2.93678 4.8111 2.82068 5.67464C2.70834 6.51018 2.70836 7.57544 2.70837 8.91008V8.95833V12.5V12.5483C2.70836 13.8829 2.70834 14.9482 2.82068 15.7837C2.93678 16.6473 3.18337 17.3582 3.74597 17.9208C4.30858 18.4833 5.01947 18.7299 5.88302 18.846C6.71855 18.9583 7.78381 18.9583 9.11846 18.9583H9.16671H11.6667C11.8325 18.9583 11.9914 18.8924 12.1086 18.7753L17.1086 13.7753Z" fill="black"/>
<path d="M17.1085 13.7753C17.2257 13.658 17.2916 13.4991 17.2916 13.3334H16.6666C14.3096 13.3334 13.1311 13.3334 12.3989 14.0656C11.6666 14.7979 11.6666 15.9764 11.6666 18.3334V18.9584C11.8324 18.9584 11.9913 18.8925 12.1085 18.7753L17.1085 13.7753Z" fill="black"/>
<path d="M9.58329 11.0417C9.92846 11.0417 10.2083 11.3215 10.2083 11.6667C10.2083 12.0119 9.92846 12.2917 9.58329 12.2917H6.66663C6.32145 12.2917 6.04163 12.0119 6.04163 11.6667C6.04163 11.3215 6.32145 11.0417 6.66663 11.0417H9.58329ZM13.3333 7.70837C13.6785 7.70837 13.9583 7.9882 13.9583 8.33337C13.9583 8.67854 13.6785 8.95837 13.3333 8.95837H6.66663C6.32145 8.95837 6.04163 8.67854 6.04163 8.33337C6.04163 7.9882 6.32145 7.70837 6.66663 7.70837H13.3333Z" fill="black"/>
<path d="M5.625 1.83708V4.04163C5.625 4.45584 5.98113 4.79163 6.42046 4.79163C6.85977 4.79163 7.21591 4.45584 7.21591 4.04163V1.83708C7.21591 1.39776 6.85977 1.04163 6.42046 1.04163C5.98113 1.04163 5.625 1.39776 5.625 1.83708Z" fill="black"/>
<path d="M9.20459 1.83708V4.04163C9.20459 4.45584 9.56067 4.79163 10 4.79163C10.4393 4.79163 10.7954 4.45584 10.7954 4.04163V1.83708C10.7954 1.39776 10.4393 1.04163 10 1.04163C9.56067 1.04163 9.20459 1.39777 9.20459 1.83708Z" fill="black"/>
<path d="M12.7841 1.83708V4.04163C12.7841 4.45584 13.1402 4.79163 13.5796 4.79163C14.0188 4.79163 14.375 4.45584 14.375 4.04163V1.83708C14.375 1.39776 14.0188 1.04163 13.5796 1.04163C13.1402 1.04163 12.7841 1.39777 12.7841 1.83708Z" fill="black"/>
</svg>
