<svg width="32" height="32" viewBox="0 0 32 32" fill="none" xmlns="http://www.w3.org/2000/svg">
<path d="M17.3334 4.66663H14.6667C10.2669 4.66663 8.06704 4.66663 6.70021 6.03347C5.33337 7.40029 5.33337 9.60019 5.33337 14V20C5.33337 24.3997 5.33337 26.5996 6.70021 27.9665C8.06704 29.3333 10.2669 29.3333 14.6667 29.3333H18.6667L26.6667 21.3333V14C26.6667 9.60019 26.6667 7.40029 25.2999 6.03347C23.933 4.66663 21.7331 4.66663 17.3334 4.66663Z" stroke="black" stroke-width="2" stroke-linecap="round" stroke-linejoin="round"/>
<path d="M10.6666 18.6667H15.3333M10.6666 13.3334H21.3333" stroke="black" stroke-width="2" stroke-linecap="round" stroke-linejoin="round"/>
<path d="M26.6666 21.3334C22.8954 21.3334 21.0098 21.3334 19.8382 22.505C18.6666 23.6766 18.6666 25.5622 18.6666 29.3334" stroke="black" stroke-width="2" stroke-linecap="round" stroke-linejoin="round"/>
<path d="M22 2.66663V6.66663M10 2.66663V6.66663M16 2.66663V6.66663" stroke="black" stroke-width="2" stroke-linecap="round" stroke-linejoin="round"/>
</svg>
