<svg width="28" height="28" viewBox="0 0 28 28" fill="none" xmlns="http://www.w3.org/2000/svg">
<path opacity="0.4" d="M23.952 19.2854C24.116 19.1212 24.2083 18.8987 24.2083 18.6667V12.5417V12.4741C24.2083 10.6056 24.2083 9.11425 24.051 7.9445C23.8885 6.73554 23.5433 5.74029 22.7557 4.95264C21.9681 4.16498 20.9728 3.81977 19.7638 3.65723C18.5941 3.49995 17.1027 3.49998 15.2342 3.5H15.1666H12.8333H12.7657C10.8972 3.49998 9.40587 3.49995 8.23612 3.65723C7.02717 3.81977 6.03192 4.16498 5.24427 4.95264C4.45661 5.74029 4.1114 6.73554 3.94886 7.9445C3.79158 9.11425 3.7916 10.6056 3.79163 12.4741V12.5417V17.5V17.5676C3.7916 19.4361 3.79158 20.9274 3.94886 22.0971C4.1114 23.3061 4.45661 24.3014 5.24427 25.089C6.03192 25.8767 7.02717 26.2219 8.23612 26.3844C9.40587 26.5417 10.8972 26.5417 12.7657 26.5417H12.8333H16.3333C16.5653 26.5417 16.7878 26.4494 16.952 26.2853L23.952 19.2854Z" fill="black"/>
<path d="M23.9521 19.2853C24.1161 19.1212 24.2084 18.8987 24.2084 18.6666H23.3334C20.0336 18.6666 18.3837 18.6666 17.3585 19.6918C16.3334 20.7169 16.3334 22.3668 16.3334 25.6666V26.5416C16.5654 26.5416 16.7879 26.4493 16.9521 26.2853L23.9521 19.2853Z" fill="black"/>
<path d="M13.4167 15.4583C13.8999 15.4583 14.2917 15.8501 14.2917 16.3333C14.2917 16.8165 13.8999 17.2083 13.4167 17.2083H9.33337C8.85013 17.2083 8.45837 16.8165 8.45837 16.3333C8.45837 15.8501 8.85013 15.4583 9.33337 15.4583H13.4167ZM18.6667 10.7916C19.1499 10.7916 19.5417 11.1834 19.5417 11.6666C19.5417 12.1499 19.1499 12.5416 18.6667 12.5416H9.33337C8.85013 12.5416 8.45837 12.1499 8.45837 11.6666C8.45837 11.1834 8.85013 10.7916 9.33337 10.7916H18.6667Z" fill="black"/>
<path d="M7.875 2.57202V5.65837C7.875 6.23828 8.37359 6.70837 8.98864 6.70837C9.60368 6.70837 10.1023 6.23828 10.1023 5.65837V2.57202C10.1023 1.95696 9.60368 1.45837 8.98864 1.45837C8.37359 1.45837 7.875 1.95696 7.875 2.57202Z" fill="black"/>
<path d="M12.8865 2.57202V5.65837C12.8865 6.23828 13.385 6.70837 14.0001 6.70837C14.6151 6.70837 15.1136 6.23828 15.1136 5.65837V2.57202C15.1136 1.95696 14.6151 1.45837 14.0001 1.45837C13.385 1.45837 12.8865 1.95697 12.8865 2.57202Z" fill="black"/>
<path d="M17.8977 2.57202V5.65837C17.8977 6.23828 18.3963 6.70837 19.0114 6.70837C19.6264 6.70837 20.125 6.23828 20.125 5.65837V2.57202C20.125 1.95696 19.6264 1.45837 19.0114 1.45837C18.3963 1.45837 17.8977 1.95697 17.8977 2.57202Z" fill="black"/>
</svg>
