<svg width="20" height="20" viewBox="0 0 20 20" fill="none" xmlns="http://www.w3.org/2000/svg">
<path d="M14.5879 1.68229C10.6908 2.36213 10 6.25001 10 6.25001V18.3333C10 18.3333 10.7389 14.2727 15.0003 13.799C15.4578 13.7482 15.8333 13.3813 15.8333 12.9215V2.82758C15.8333 2.13784 15.268 1.56366 14.5879 1.68229Z" stroke="black" stroke-width="1.25" stroke-linecap="round" stroke-linejoin="round"/>
<path d="M4.44446 4.16668C6.49485 4.16381 8.47377 4.90591 10 6.25001V18.3333C8.47377 16.9893 6.49485 16.2472 4.44446 16.25C3.14279 16.25 2.49195 16.25 2.2044 16.066C2.03177 15.9555 1.96124 15.8849 1.85074 15.7123C1.66669 15.4248 1.66669 14.9118 1.66669 13.8858V7.00269C1.66669 5.81286 1.66669 5.21795 2.12397 4.73572C2.58125 4.25349 3.04938 4.2286 3.98562 4.17884C4.13752 4.17076 4.2905 4.16668 4.44446 4.16668Z" stroke="black" stroke-width="1.25" stroke-linecap="round" stroke-linejoin="round"/>
<path d="M10 18.3342C11.5263 16.9901 13.5052 16.248 15.5556 16.2508C16.8573 16.2508 17.5081 16.2508 17.7956 16.0668C17.9682 15.9563 18.0388 15.8858 18.1493 15.7132C18.3333 15.4256 18.3333 14.9126 18.3333 13.8866V7.00354C18.3333 5.81371 18.3333 5.2188 17.8761 4.73657C17.4187 4.25434 16.7696 4.21644 15.8333 4.16667" stroke="black" stroke-width="1.25" stroke-linecap="round" stroke-linejoin="round"/>
</svg>
