<svg width="16" height="16" viewBox="0 0 16 16" fill="none" xmlns="http://www.w3.org/2000/svg">
<path d="M7.49998 4.00718C6.33282 3.25559 4.95124 2.83149 3.55532 2.83335C2.84096 2.83335 1.8609 2.89113 1.33658 3.44402C1.06891 3.7263 0.943103 4.04254 0.885403 4.40366C0.831976 4.73809 0.833316 5.14134 0.833316 5.60158L0.833329 11.3841C0.833329 11.7825 0.833329 12.1113 0.853509 12.3679C0.873283 12.6189 0.916276 12.8833 1.05924 13.1068C1.14192 13.237 1.36288 13.5166 1.58528 13.5931C1.80614 13.7017 2.07414 13.7322 2.32356 13.7481C2.6304 13.7676 3.03742 13.7676 3.54622 13.7676H3.55598C5.00073 13.7656 6.396 14.2634 7.49998 15.1667V4.00718Z" fill="black"/>
<path d="M13.1667 2.26331C13.1667 1.49027 12.5359 0.743819 11.6693 0.842085C10.1672 1.10412 9.11133 1.92011 8.5 2.73662V15.1666C8.59833 14.8856 8.8792 14.1073 9.1374 13.7206C9.6478 12.9562 10.6365 12.1372 12.1641 11.9673C12.7017 11.8593 13.1666 11.4021 13.1667 10.7851V2.26331Z" fill="black"/>
<path d="M13.8334 2.98178C14.1537 3.07207 14.4474 3.21489 14.6634 3.44271C14.9311 3.72499 15.0569 4.04123 15.1146 4.40235C15.168 4.73678 15.1667 5.14003 15.1667 5.60027V11.3828C15.1667 11.7811 15.1667 12.11 15.1465 12.3665C15.1268 12.6176 15.0838 12.882 14.9408 13.1055C14.8581 13.2357 14.6372 13.5153 14.4148 13.5918C14.1939 13.7003 13.9259 13.7309 13.6764 13.7467C13.3696 13.7663 12.9626 13.7663 12.4538 13.7663H12.444C11.3957 13.7648 10.374 14.0275 9.47009 14.5163C9.55016 14.3375 9.62683 14.1867 9.69143 14.0899L9.69209 14.0905C10.1063 13.4702 11.1342 12.7297 12.444 12.584C13.1166 12.5092 13.7462 11.7933 13.8249 10.9655L13.8334 10.7845V2.98178Z" fill="black"/>
</svg>
