<svg width="16" height="16" viewBox="0 0 16 16" fill="none" xmlns="http://www.w3.org/2000/svg">
<path opacity="0.4" d="M12.0003 11.0392C8.59113 11.4181 8 14.6673 8 14.6673C9.221 13.5921 10.8041 12.9984 12.4445 13.0007C13.4858 13.0007 14.0065 13.0007 14.2365 12.8535C14.3746 12.7651 14.431 12.7086 14.5194 12.5705C14.6667 12.3405 14.6667 11.9301 14.6667 11.1093V5.60282C14.6667 4.65096 14.6667 4.17503 14.3009 3.78925C13.935 3.40346 13.4157 3.37314 12.6667 3.33333V10.3372C12.6667 10.7051 12.3662 10.9985 12.0003 11.0392Z" fill="black"/>
<path opacity="0.4" d="M3.55553 3.33333C5.19584 3.33104 6.77898 3.92472 7.99998 4.99999V14.6667C6.77898 13.5914 5.19584 12.9977 3.55553 13C2.51419 13 1.99353 13 1.76349 12.8528C1.62538 12.7644 1.56895 12.7079 1.48055 12.5698C1.33331 12.3398 1.33331 11.9294 1.33331 11.1086V5.60214C1.33331 4.65028 1.33331 4.17435 1.69914 3.78857C2.06497 3.40278 2.43947 3.38287 3.18846 3.34306C3.30998 3.3366 3.43237 3.33333 3.55553 3.33333Z" fill="black"/>
<path d="M11.6703 1.34582C8.5526 1.8897 8 5 8 5V14.6667C8 14.6667 8.59113 11.4181 12.0003 11.0392C12.3662 10.9985 12.6667 10.7051 12.6667 10.3372V2.26206C12.6667 1.71026 12.2144 1.25092 11.6703 1.34582Z" stroke="black" stroke-linecap="round" stroke-linejoin="round"/>
<path d="M3.55553 3.33333C5.19584 3.33104 6.77898 3.92472 7.99998 4.99999V14.6667C6.77898 13.5914 5.19584 12.9977 3.55553 13C2.51419 13 1.99353 13 1.76349 12.8528C1.62538 12.7644 1.56895 12.7079 1.48055 12.5698C1.33331 12.3398 1.33331 11.9294 1.33331 11.1086V5.60214C1.33331 4.65028 1.33331 4.17435 1.69914 3.78857C2.06497 3.40278 2.43947 3.38287 3.18846 3.34306C3.30998 3.3366 3.43237 3.33333 3.55553 3.33333Z" stroke="black" stroke-linecap="round" stroke-linejoin="round"/>
<path d="M8 14.6673C9.221 13.5921 10.8041 12.9984 12.4445 13.0007C13.4858 13.0007 14.0065 13.0007 14.2365 12.8535C14.3746 12.7651 14.431 12.7086 14.5194 12.5705C14.6667 12.3405 14.6667 11.9301 14.6667 11.1093V5.60282C14.6667 4.65096 14.6667 4.17503 14.3009 3.78925C13.935 3.40346 13.4157 3.37314 12.6667 3.33333" stroke="black" stroke-linecap="round" stroke-linejoin="round"/>
</svg>
