<svg width="20" height="20" viewBox="0 0 20 20" fill="none" xmlns="http://www.w3.org/2000/svg">
<path d="M14.5879 1.68228C10.6908 2.36212 10 6.24999 10 6.24999V18.3333C10 18.3333 10.7389 14.2727 15.0003 13.799C15.4578 13.7482 15.8333 13.3813 15.8333 12.9215V2.82757C15.8333 2.13783 15.268 1.56364 14.5879 1.68228Z" stroke="black" stroke-width="1.25" stroke-linecap="round" stroke-linejoin="round"/>
<path opacity="0.4" d="M4.44446 4.16666C6.49485 4.1638 8.47377 4.9059 10 6.24999V18.3333C8.47377 16.9892 6.49485 16.2472 4.44446 16.25C3.14279 16.25 2.49195 16.25 2.2044 16.066C2.03177 15.9555 1.96124 15.8849 1.85074 15.7122C1.66669 15.4247 1.66669 14.9117 1.66669 13.8857V7.00267C1.66669 5.81285 1.66669 5.21794 2.12397 4.73571C2.58125 4.25347 3.04938 4.22859 3.98562 4.17882C4.13752 4.17075 4.2905 4.16666 4.44446 4.16666Z" stroke="black" stroke-width="1.25" stroke-linecap="round" stroke-linejoin="round"/>
<path opacity="0.4" d="M10 18.3342C11.5263 16.9901 13.5052 16.248 15.5556 16.2508C16.8573 16.2508 17.5081 16.2508 17.7956 16.0668C17.9682 15.9563 18.0388 15.8857 18.1493 15.7132C18.3333 15.4256 18.3333 14.9126 18.3333 13.8866V7.00352C18.3333 5.8137 18.3333 5.21879 17.8761 4.73656C17.4187 4.25432 16.7696 4.21642 15.8333 4.16666" stroke="black" stroke-width="1.25" stroke-linecap="round" stroke-linejoin="round"/>
</svg>
