<svg width="20" height="20" viewBox="0 0 20 20" fill="none" xmlns="http://www.w3.org/2000/svg">
<path d="M9.37502 5.00895C7.91607 4.06946 6.1891 3.53934 4.4442 3.54166C3.55124 3.54166 2.32617 3.61389 1.67077 4.30501C1.33618 4.65785 1.17892 5.05316 1.1068 5.50456C1.04002 5.92259 1.04169 6.42665 1.04169 7.00195L1.04171 14.2302C1.04171 14.7281 1.04171 15.1392 1.06693 15.4598C1.09165 15.7737 1.14539 16.1041 1.3241 16.3835C1.42744 16.5462 1.70365 16.8957 1.98165 16.9914C2.25772 17.1271 2.59272 17.1652 2.9045 17.1851C3.28804 17.2095 3.79682 17.2095 4.43282 17.2095H4.44502C6.25096 17.207 7.99504 17.8292 9.37502 18.9583V5.00895Z" fill="black"/>
<path d="M16.4583 2.82912C16.4583 1.86281 15.6699 0.92975 14.5866 1.05258C12.709 1.38013 11.3892 2.40012 10.625 3.42075V18.9582C10.7479 18.607 11.099 17.6341 11.4218 17.1507C12.0598 16.1952 13.2956 15.1715 15.2051 14.9592C15.8771 14.8242 16.4583 14.2526 16.4583 13.4813V2.82912Z" fill="black"/>
<path d="M17.2917 3.7272C17.6921 3.84006 18.0592 4.0186 18.3293 4.30337C18.6638 4.65621 18.8211 5.05152 18.8933 5.50292C18.96 5.92095 18.9583 6.42501 18.9583 7.00031V14.2285C18.9583 14.7264 18.9583 15.1375 18.9331 15.4582C18.9084 15.772 18.8547 16.1025 18.6759 16.3818C18.5726 16.5447 18.2964 16.8942 18.0184 16.9897C17.7423 17.1254 17.4073 17.1636 17.0955 17.1834C16.712 17.2078 16.2033 17.2078 15.5673 17.2078H15.555C14.2446 17.206 12.9674 17.5343 11.8376 18.1453C11.9377 17.9219 12.0335 17.7333 12.1143 17.6123L12.1151 17.6131C12.6328 16.8377 13.9178 15.9121 15.555 15.73C16.3957 15.6365 17.1827 14.7417 17.2811 13.7068L17.2917 13.4807V3.7272Z" fill="black"/>
</svg>
