<svg width="28" height="28" viewBox="0 0 28 28" fill="none" xmlns="http://www.w3.org/2000/svg">
<path opacity="0.4" d="M13.125 7.01255C11.0824 5.69727 8.66469 4.9551 6.22183 4.95835C4.97169 4.95835 3.25659 5.05947 2.33902 6.02703C1.87061 6.52101 1.65045 7.07444 1.54947 7.7064C1.45597 8.29165 1.45832 8.99733 1.45832 9.80275L1.45834 19.9222C1.45834 20.6193 1.45834 21.1948 1.49366 21.6438C1.52826 22.0831 1.6035 22.5457 1.85369 22.9369C1.99837 23.1648 2.38506 23.6541 2.77426 23.788C3.16075 23.9779 3.62976 24.0314 4.06625 24.0591C4.60321 24.0933 5.31549 24.0933 6.20589 24.0933H6.22299C8.75129 24.0898 11.193 24.961 13.125 26.5417V7.01255Z" fill="black"/>
<path opacity="0.4" d="M23.0417 3.96079C23.0417 2.60796 21.9379 1.30168 20.4212 1.47364C17.7926 1.9322 15.9448 3.36019 14.875 4.78907V26.5416C15.0471 26.0498 15.5386 24.6877 15.9905 24.0111C16.8837 22.6734 18.6138 21.2401 21.2871 20.9428C22.2279 20.7538 23.0416 19.9536 23.0417 18.8739V3.96079Z" fill="black"/>
<path d="M24.2083 5.21811C24.7689 5.37611 25.2828 5.62606 25.661 6.02474C26.1294 6.51872 26.3495 7.07215 26.4506 7.70411C26.544 8.28936 26.5417 8.99504 26.5417 9.80046V19.9199C26.5417 20.617 26.5417 21.1925 26.5063 21.6414C26.4718 22.0808 26.3965 22.5435 26.1463 22.9346C26.0016 23.1625 25.615 23.6518 25.2258 23.7857C24.8393 23.9756 24.3703 24.029 23.9337 24.0568C23.3968 24.091 22.6846 24.091 21.7942 24.091H21.777C19.9424 24.0884 18.1544 24.5481 16.5726 25.4035C16.7127 25.0907 16.8469 24.8267 16.96 24.6573L16.9611 24.6583C17.686 23.5729 19.4849 22.2769 21.777 22.022C22.9539 21.8911 24.0557 20.6383 24.1935 19.1896L24.2083 18.8729V5.21811Z" fill="black"/>
</svg>
