<svg width="32" height="32" viewBox="0 0 32 32" fill="none" xmlns="http://www.w3.org/2000/svg">
<path d="M15 8.01432C12.6656 6.51115 9.90249 5.66295 7.11065 5.66667C5.68191 5.66667 3.72181 5.78223 2.67315 6.88802C2.13782 7.45256 1.88621 8.08506 1.77081 8.8073C1.66395 9.47615 1.66663 10.2826 1.66663 11.2031L1.66666 22.7683C1.66666 23.5649 1.66666 24.2227 1.70702 24.7357C1.74657 25.2379 1.83255 25.7665 2.11849 26.2136C2.28383 26.474 2.72577 27.0332 3.17057 27.1863C3.61227 27.4033 4.14829 27.4644 4.64713 27.4961C5.26079 27.5352 6.07483 27.5352 7.09243 27.5352H7.11197C10.0015 27.5312 12.792 28.5268 15 30.3333V8.01432Z" fill="black"/>
<path d="M26.3333 4.52659C26.3333 2.9805 25.0719 1.48761 23.3385 1.68414C20.3344 2.20821 18.2227 3.84019 17 5.47321V30.3332C17.1967 29.7712 17.7584 28.2145 18.2748 27.4412C19.2956 25.9124 21.2729 24.2744 24.3281 23.9347C25.4033 23.7187 26.3332 22.8041 26.3333 21.5701V4.52659Z" fill="black"/>
<path d="M27.6667 5.96356C28.3073 6.14414 28.8947 6.42979 29.3268 6.88543C29.8621 7.44998 30.1137 8.08247 30.2292 8.80471C30.336 9.47356 30.3333 10.2801 30.3333 11.2005V22.7656C30.3333 23.5623 30.3333 24.22 30.2929 24.7331C30.2535 25.2352 30.1675 25.764 29.8815 26.2109C29.7161 26.4715 29.2743 27.0307 28.8295 27.1836C28.3877 27.4007 27.8517 27.4617 27.3528 27.4935C26.7392 27.5325 25.9252 27.5325 24.9076 27.5325H24.888C22.7913 27.5296 20.7479 28.0549 18.9401 29.0325C19.1003 28.6751 19.2536 28.3733 19.3828 28.1797L19.3841 28.1809C20.2125 26.9404 22.2684 25.4593 24.888 25.168C26.2331 25.0184 27.4923 23.5867 27.6497 21.9309L27.6667 21.5691V5.96356Z" fill="black"/>
</svg>
