<svg width="32" height="32" viewBox="0 0 32 32" fill="none" xmlns="http://www.w3.org/2000/svg">
<path d="M23.3407 2.69165C17.1052 3.77939 16 9.99999 16 9.99999V29.3333C16 29.3333 17.1823 22.8363 24.0005 22.0784C24.7324 21.9971 25.3333 21.4101 25.3333 20.6744V4.52411C25.3333 3.42053 24.4288 2.50183 23.3407 2.69165Z" stroke="black" stroke-width="2" stroke-linecap="round" stroke-linejoin="round"/>
<path opacity="0.4" d="M7.11113 6.66667C10.3917 6.66208 13.558 7.84944 16 9.99999V29.3333C13.558 27.1828 10.3917 25.9955 7.11113 26C5.02845 26 3.98711 26 3.52703 25.7056C3.25082 25.5288 3.13797 25.4159 2.96117 25.1396C2.66669 24.6796 2.66669 23.8588 2.66669 22.2172V11.2043C2.66669 9.30056 2.66669 8.34871 3.39834 7.57714C4.12999 6.80556 4.87899 6.76575 6.37698 6.68612C6.62002 6.6732 6.86479 6.66667 7.11113 6.66667Z" stroke="black" stroke-width="2" stroke-linecap="round" stroke-linejoin="round"/>
<path opacity="0.4" d="M16 29.3347C18.442 27.1841 21.6083 25.9968 24.8889 26.0013C26.9716 26.0013 28.0129 26.0013 28.4729 25.7069C28.7492 25.5301 28.862 25.4172 29.0388 25.1411C29.3333 24.6809 29.3333 23.8601 29.3333 22.2185V11.2056C29.3333 9.30192 29.3333 8.35007 28.6017 7.5785C27.87 6.80692 26.8313 6.74628 25.3333 6.66666" stroke="black" stroke-width="2" stroke-linecap="round" stroke-linejoin="round"/>
</svg>
