<svg width="28" height="28" viewBox="0 0 28 28" fill="none" xmlns="http://www.w3.org/2000/svg">
<path d="M20.4231 2.35521C14.9671 3.30699 14 8.75001 14 8.75001V25.6667C14 25.6667 15.0345 19.9817 21.0005 19.3186C21.6409 19.2474 22.1667 18.7339 22.1667 18.0901V3.95862C22.1667 2.99298 21.3752 2.18912 20.4231 2.35521Z" stroke="black" stroke-width="1.75" stroke-linecap="round" stroke-linejoin="round"/>
<path opacity="0.4" d="M6.2222 5.83336C9.09274 5.82934 11.8632 6.86828 14 8.75001V25.6667C11.8632 23.785 9.09274 22.746 6.2222 22.75C4.39985 22.75 3.48869 22.75 3.08612 22.4924C2.84443 22.3377 2.74568 22.2389 2.59098 21.9972C2.33331 21.5947 2.33331 20.8765 2.33331 19.4401V9.80377C2.33331 8.13801 2.33331 7.30514 2.97351 6.63001C3.61371 5.95489 4.26908 5.92005 5.57982 5.85038C5.79248 5.83907 6.00666 5.83336 6.2222 5.83336Z" stroke="black" stroke-width="1.75" stroke-linecap="round" stroke-linejoin="round"/>
<path opacity="0.4" d="M14 25.6678C16.1368 23.7861 18.9072 22.7472 21.7778 22.7512C23.6002 22.7512 24.5113 22.7512 24.9138 22.4936C25.1556 22.3389 25.2543 22.2401 25.409 21.9984C25.6667 21.5958 25.6667 20.8776 25.6667 19.4412V9.80496C25.6667 8.1392 25.6667 7.30633 25.0265 6.6312C24.3863 5.95608 23.4774 5.90302 22.1667 5.83334" stroke="black" stroke-width="1.75" stroke-linecap="round" stroke-linejoin="round"/>
</svg>
