<svg width="28" height="28" viewBox="0 0 28 28" fill="none" xmlns="http://www.w3.org/2000/svg">
<path d="M2.91663 14C2.91663 8.77523 2.91663 6.16286 4.53974 4.53974C6.16286 2.91663 8.77523 2.91663 14 2.91663C19.2246 2.91663 21.837 2.91663 23.4602 4.53974C25.0833 6.16286 25.0833 8.77523 25.0833 14C25.0833 19.2246 25.0833 21.837 23.4602 23.4602C21.837 25.0833 19.2246 25.0833 14 25.0833C8.77523 25.0833 6.16286 25.0833 4.53974 23.4602C2.91663 21.837 2.91663 19.2246 2.91663 14Z" stroke="black" stroke-width="1.75" stroke-linecap="round" stroke-linejoin="round"/>
<path opacity="0.4" d="M14 18.6667V14" stroke="black" stroke-width="1.75" stroke-linecap="round" stroke-linejoin="round"/>
<path opacity="0.4" d="M14.1459 9.62504H14M14.2917 9.62504C14.2917 9.46396 14.1612 9.33337 14 9.33337C13.8389 9.33337 13.7084 9.46396 13.7084 9.62504C13.7084 9.78612 13.8389 9.91671 14 9.91671C14.1612 9.91671 14.2917 9.78612 14.2917 9.62504Z" stroke="black" stroke-width="1.75" stroke-linecap="round" stroke-linejoin="round"/>
</svg>
