<svg width="24" height="24" viewBox="0 0 24 24" fill="none" xmlns="http://www.w3.org/2000/svg">
<path opacity="0.4" d="M22.25 12.0526V12V11.9474C22.25 9.75475 22.25 8.03277 22.0693 6.68848C21.8843 5.31182 21.4969 4.21953 20.6387 3.36133C19.7805 2.50313 18.6882 2.11575 17.3115 1.93066C15.9672 1.74998 14.2452 1.74999 12.0526 1.75H12H11.9474C9.75476 1.74999 8.03277 1.74998 6.68848 1.93066C5.31182 2.11575 4.21953 2.50313 3.36133 3.36133C2.50313 4.21953 2.11575 5.31182 1.93066 6.68848C1.74998 8.03277 1.74999 9.75476 1.75 11.9474V12V12.0526C1.74999 14.2452 1.74998 15.9672 1.93066 17.3115C2.11575 18.6882 2.50313 19.7805 3.36133 20.6387C4.21953 21.4969 5.31182 21.8843 6.68848 22.0693C8.03277 22.25 9.75475 22.25 11.9474 22.25H12H12.0526C14.2452 22.25 15.9672 22.25 17.3115 22.0693C18.6882 21.8843 19.7805 21.4969 20.6387 20.6387C21.4969 19.7805 21.8843 18.6882 22.0693 17.3115C22.25 15.9672 22.25 14.2452 22.25 12.0526Z" fill="black"/>
<path d="M11 16V12C11 11.4477 11.4477 11 12 11C12.5523 11 13 11.4477 13 12V16C13 16.5523 12.5523 17 12 17C11.4477 17 11 16.5523 11 16Z" fill="black"/>
<path d="M12 7.25C12.5523 7.25 13 7.69771 13 8.25C13 8.80228 12.5523 9.25 12 9.25C11.4477 9.25 11 8.80228 11 8.25C11 7.69772 11.4477 7.25 12 7.25Z" fill="black"/>
</svg>
