<svg width="32" height="32" viewBox="0 0 32 32" fill="none" xmlns="http://www.w3.org/2000/svg">
<path d="M16.0703 2.33337C18.9938 2.33336 21.2898 2.33335 23.082 2.57425C24.9176 2.82104 26.374 3.33755 27.5183 4.48181C28.6626 5.62608 29.1791 7.08247 29.4258 8.91801C29.6667 10.7104 29.6667 13.0063 29.6667 15.9298V16.0703C29.6667 18.9938 29.6667 21.2898 29.4258 23.082C29.1791 24.9176 28.6626 26.374 27.5183 27.5183C26.374 28.6626 24.9176 29.1791 23.082 29.4258C21.2898 29.6667 18.9938 29.6667 16.0703 29.6667H15.9298C13.0063 29.6667 10.7104 29.6667 8.91801 29.4258C7.08247 29.1791 5.62608 28.6626 4.48181 27.5183C3.33755 26.374 2.82104 24.9176 2.57425 23.082C2.33335 21.2898 2.33336 18.9938 2.33337 16.0703V15.9298C2.33336 13.0063 2.33335 10.7104 2.57425 8.91801C2.82104 7.08247 3.33755 5.62608 4.48181 4.48181C5.62608 3.33755 7.08247 2.82104 8.91801 2.57425C10.7104 2.33335 13.0063 2.33336 15.9298 2.33337H16.0703ZM16 14.6667C15.2636 14.6667 14.6667 15.2636 14.6667 16V21.3334C14.6667 22.0698 15.2636 22.6667 16 22.6667C16.7364 22.6667 17.3334 22.0698 17.3334 21.3334V16C17.3334 15.2636 16.7364 14.6667 16 14.6667ZM16 9.66671C15.2636 9.66671 14.6667 10.2637 14.6667 11C14.6667 11.7364 15.2636 12.3334 16 12.3334C16.7364 12.3334 17.3334 11.7364 17.3334 11C17.3334 10.2637 16.7364 9.66671 16 9.66671Z" fill="black"/>
</svg>
