<svg width="28" height="28" viewBox="0 0 28 28" fill="none" xmlns="http://www.w3.org/2000/svg">
<path opacity="0.4" d="M25.9583 14.0613V14V13.9386C25.9583 11.3805 25.9583 9.37152 25.7475 7.80319C25.5316 6.19708 25.0797 4.92274 24.0784 3.92151C23.0772 2.92028 21.8029 2.46833 20.1967 2.2524C18.6284 2.0416 16.6194 2.04161 14.0613 2.04163H14H13.9386C11.3805 2.04161 9.37152 2.0416 7.80319 2.2524C6.19708 2.46833 4.92274 2.92028 3.92151 3.92151C2.92028 4.92274 2.46833 6.19708 2.2524 7.80319C2.0416 9.37152 2.04161 11.3805 2.04163 13.9386V14V14.0613C2.04161 16.6194 2.0416 18.6284 2.2524 20.1967C2.46833 21.8029 2.92028 23.0772 3.92151 24.0784C4.92274 25.0797 6.19708 25.5316 7.80319 25.7475C9.37152 25.9583 11.3805 25.9583 13.9386 25.9583H14H14.0613C16.6194 25.9583 18.6284 25.9583 20.1967 25.7475C21.8029 25.5316 23.0772 25.0797 24.0784 24.0784C25.0797 23.0772 25.5316 21.8029 25.7475 20.1967C25.9583 18.6284 25.9583 16.6194 25.9583 14.0613Z" fill="black"/>
<path d="M12.8334 18.6667V14C12.8334 13.3557 13.3557 12.8334 14 12.8334C14.6444 12.8334 15.1667 13.3557 15.1667 14V18.6667C15.1667 19.3111 14.6444 19.8334 14 19.8334C13.3557 19.8334 12.8334 19.3111 12.8334 18.6667Z" fill="black"/>
<path d="M14 8.45837C14.6444 8.45837 15.1667 8.9807 15.1667 9.62504C15.1667 10.2694 14.6444 10.7917 14 10.7917C13.3557 10.7917 12.8334 10.2694 12.8334 9.62504C12.8334 8.98071 13.3557 8.45837 14 8.45837Z" fill="black"/>
</svg>
