<svg width="16" height="16" viewBox="0 0 16 16" fill="none" xmlns="http://www.w3.org/2000/svg">
<path d="M8.03509 1.16663C9.49683 1.16662 10.6448 1.16661 11.541 1.28707C12.4588 1.41046 13.187 1.66871 13.7591 2.24085C14.3312 2.81298 14.5895 3.54117 14.7128 4.45895C14.8333 5.35512 14.8333 6.50308 14.8333 7.96483V8.03509C14.8333 9.49683 14.8333 10.6448 14.7128 11.541C14.5895 12.4588 14.3312 13.187 13.7591 13.7591C13.187 14.3312 12.4588 14.5895 11.541 14.7128C10.6448 14.8333 9.49683 14.8333 8.03509 14.8333H7.96483C6.50308 14.8333 5.35512 14.8333 4.45895 14.7128C3.54117 14.5895 2.81298 14.3312 2.24085 13.7591C1.66871 13.187 1.41046 12.4588 1.28707 11.541C1.16661 10.6448 1.16662 9.49683 1.16663 8.03509V7.96483C1.16662 6.50308 1.16661 5.35512 1.28707 4.45895C1.41046 3.54117 1.66871 2.81298 2.24085 2.24085C2.81298 1.66871 3.54117 1.41046 4.45895 1.28707C5.35512 1.16661 6.50308 1.16662 7.96483 1.16663H8.03509ZM7.99996 7.33329C7.63176 7.33329 7.33329 7.63176 7.33329 7.99996V10.6666C7.33329 11.0348 7.63176 11.3333 7.99996 11.3333C8.36816 11.3333 8.66663 11.0348 8.66663 10.6666V7.99996C8.66663 7.63176 8.36816 7.33329 7.99996 7.33329ZM7.99996 4.83329C7.63176 4.83329 7.33329 5.13177 7.33329 5.49996C7.33329 5.86815 7.63176 6.16663 7.99996 6.16663C8.36816 6.16663 8.66663 5.86815 8.66663 5.49996C8.66663 5.13177 8.36816 4.83329 7.99996 4.83329Z" fill="black"/>
</svg>
