<svg width="20" height="20" viewBox="0 0 20 20" fill="none" xmlns="http://www.w3.org/2000/svg">
<path opacity="0.4" d="M18.5417 10.0439V10V9.95621C18.5417 8.129 18.5417 6.69402 18.3911 5.57377C18.237 4.42656 17.9141 3.51632 17.199 2.80115C16.4838 2.08598 15.5735 1.76317 14.4263 1.60892C13.306 1.45836 11.871 1.45837 10.0439 1.45837H10H9.95621C8.12901 1.45837 6.69402 1.45836 5.57377 1.60892C4.42656 1.76317 3.51632 2.08598 2.80115 2.80115C2.08598 3.51632 1.76317 4.42656 1.60892 5.57377C1.45836 6.69402 1.45837 8.12901 1.45837 9.95621V10V10.0439C1.45837 11.871 1.45836 13.306 1.60892 14.4263C1.76317 15.5735 2.08598 16.4838 2.80115 17.199C3.51632 17.9141 4.42656 18.237 5.57377 18.3911C6.69402 18.5417 8.129 18.5417 9.95621 18.5417H10H10.0439C11.871 18.5417 13.306 18.5417 14.4263 18.3911C15.5735 18.237 16.4838 17.9141 17.199 17.199C17.9141 16.4838 18.237 15.5735 18.3911 14.4263C18.5417 13.306 18.5417 11.871 18.5417 10.0439Z" fill="black"/>
<path d="M9.16663 13.3333V9.99996C9.16663 9.53971 9.53971 9.16663 9.99996 9.16663C10.4602 9.16663 10.8333 9.53971 10.8333 9.99996V13.3333C10.8333 13.7935 10.4602 14.1666 9.99996 14.1666C9.53971 14.1666 9.16663 13.7935 9.16663 13.3333Z" fill="black"/>
<path d="M9.99996 6.04163C10.4602 6.04163 10.8333 6.41472 10.8333 6.87496C10.8333 7.33519 10.4602 7.70829 9.99996 7.70829C9.53971 7.70829 9.16663 7.33519 9.16663 6.87496C9.16663 6.41473 9.53971 6.04163 9.99996 6.04163Z" fill="black"/>
</svg>
