<svg width="24" height="24" viewBox="0 0 24 24" fill="none" xmlns="http://www.w3.org/2000/svg">
<path d="M12.0527 1.75C14.2453 1.74999 15.9673 1.74998 17.3115 1.93066C18.6882 2.11575 19.7805 2.50313 20.6387 3.36133C21.4969 4.21953 21.8843 5.31182 22.0693 6.68848C22.25 8.03274 22.25 9.75468 22.25 11.9473V12.0527C22.25 14.2453 22.25 15.9673 22.0693 17.3115C21.8843 18.6882 21.4969 19.7805 20.6387 20.6387C19.7805 21.4969 18.6882 21.8843 17.3115 22.0693C15.9673 22.25 14.2453 22.25 12.0527 22.25H11.9473C9.75468 22.25 8.03274 22.25 6.68848 22.0693C5.31182 21.8843 4.21953 21.4969 3.36133 20.6387C2.50313 19.7805 2.11575 18.6882 1.93066 17.3115C1.74998 15.9673 1.74999 14.2453 1.75 12.0527V11.9473C1.74999 9.75468 1.74998 8.03274 1.93066 6.68848C2.11575 5.31182 2.50313 4.21953 3.36133 3.36133C4.21953 2.50313 5.31182 2.11575 6.68848 1.93066C8.03274 1.74998 9.75468 1.74999 11.9473 1.75H12.0527ZM12 11C11.4477 11 11 11.4477 11 12V16C11 16.5523 11.4477 17 12 17C12.5523 17 13 16.5523 13 16V12C13 11.4477 12.5523 11 12 11ZM12 7.25C11.4477 7.25 11 7.69772 11 8.25C11 8.80228 11.4477 9.25 12 9.25C12.5523 9.25 13 8.80228 13 8.25C13 7.69771 12.5523 7.25 12 7.25Z" fill="black"/>
</svg>
