<svg width="16" height="16" viewBox="0 0 16 16" fill="none" xmlns="http://www.w3.org/2000/svg">
<path opacity="0.4" d="M14.8333 8.03503V7.99996V7.96489C14.8333 6.50313 14.8333 5.35514 14.7128 4.45895C14.5895 3.54117 14.3312 2.81298 13.7591 2.24085C13.187 1.66871 12.4588 1.41046 11.541 1.28707C10.6448 1.16661 9.49676 1.16662 8.03503 1.16663H7.99996H7.96489C6.50313 1.16662 5.35514 1.16661 4.45895 1.28707C3.54117 1.41046 2.81298 1.66871 2.24085 2.24085C1.66871 2.81298 1.41046 3.54117 1.28707 4.45895C1.16661 5.35514 1.16662 6.50313 1.16663 7.96489V7.99996V8.03503C1.16662 9.49676 1.16661 10.6448 1.28707 11.541C1.41046 12.4588 1.66871 13.187 2.24085 13.7591C2.81298 14.3312 3.54117 14.5895 4.45895 14.7128C5.35514 14.8333 6.50313 14.8333 7.96489 14.8333H7.99996H8.03503C9.49676 14.8333 10.6448 14.8333 11.541 14.7128C12.4588 14.5895 13.187 14.3312 13.7591 13.7591C14.3312 13.187 14.5895 12.4588 14.7128 11.541C14.8333 10.6448 14.8333 9.49676 14.8333 8.03503Z" fill="black"/>
<path d="M7.33337 10.6667V8.00004C7.33337 7.63184 7.63184 7.33337 8.00004 7.33337C8.36824 7.33337 8.66671 7.63184 8.66671 8.00004V10.6667C8.66671 11.0349 8.36824 11.3334 8.00004 11.3334C7.63184 11.3334 7.33337 11.0349 7.33337 10.6667Z" fill="black"/>
<path d="M8.00004 4.83337C8.36824 4.83337 8.66671 5.13185 8.66671 5.50004C8.66671 5.86823 8.36824 6.16671 8.00004 6.16671C7.63184 6.16671 7.33337 5.86823 7.33337 5.50004C7.33337 5.13185 7.63184 4.83337 8.00004 4.83337Z" fill="black"/>
</svg>
