<svg width="28" height="28" viewBox="0 0 28 28" fill="none" xmlns="http://www.w3.org/2000/svg">
<path d="M14.0614 2.04163C16.6195 2.04161 18.6285 2.0416 20.1967 2.2524C21.8029 2.46833 23.0772 2.92028 24.0784 3.92151C25.0797 4.92274 25.5316 6.19708 25.7475 7.80319C25.9583 9.37149 25.9583 11.3804 25.9583 13.9385V14.0614C25.9583 16.6195 25.9583 18.6285 25.7475 20.1967C25.5316 21.8029 25.0797 23.0772 24.0784 24.0784C23.0772 25.0797 21.8029 25.5316 20.1967 25.7475C18.6285 25.9583 16.6195 25.9583 14.0614 25.9583H13.9385C11.3804 25.9583 9.37149 25.9583 7.80319 25.7475C6.19708 25.5316 4.92274 25.0797 3.92151 24.0784C2.92028 23.0772 2.46833 21.8029 2.2524 20.1967C2.0416 18.6285 2.04161 16.6195 2.04163 14.0614V13.9385C2.04161 11.3804 2.0416 9.37149 2.2524 7.80319C2.46833 6.19708 2.92028 4.92274 3.92151 3.92151C4.92274 2.92028 6.19708 2.46833 7.80319 2.2524C9.37149 2.0416 11.3804 2.04161 13.9385 2.04163H14.0614ZM14 12.8333C13.3556 12.8333 12.8333 13.3556 12.8333 14V18.6666C12.8333 19.311 13.3556 19.8333 14 19.8333C14.6443 19.8333 15.1666 19.311 15.1666 18.6666V14C15.1666 13.3556 14.6443 12.8333 14 12.8333ZM14 8.45829C13.3556 8.45829 12.8333 8.98063 12.8333 9.62496C12.8333 10.2693 13.3556 10.7916 14 10.7916C14.6443 10.7916 15.1666 10.2693 15.1666 9.62496C15.1666 8.98062 14.6443 8.45829 14 8.45829Z" fill="black"/>
</svg>
