<svg width="32" height="32" viewBox="0 0 32 32" fill="none" xmlns="http://www.w3.org/2000/svg">
<path opacity="0.4" d="M29.6667 16.0702V16V15.9299C29.6667 13.0064 29.6667 10.7104 29.4258 8.91801C29.1791 7.08247 28.6626 5.62608 27.5183 4.48181C26.374 3.33755 24.9176 2.82104 23.082 2.57425C21.2896 2.33335 18.9936 2.33336 16.0702 2.33337H16H15.9299C13.0064 2.33336 10.7104 2.33335 8.91801 2.57425C7.08247 2.82104 5.62608 3.33755 4.48181 4.48181C3.33755 5.62608 2.82104 7.08247 2.57425 8.91801C2.33335 10.7104 2.33336 13.0064 2.33337 15.9299V16V16.0702C2.33336 18.9936 2.33335 21.2896 2.57425 23.082C2.82104 24.9176 3.33755 26.374 4.48181 27.5183C5.62608 28.6626 7.08247 29.1791 8.91801 29.4258C10.7104 29.6667 13.0064 29.6667 15.9299 29.6667H16H16.0702C18.9936 29.6667 21.2896 29.6667 23.082 29.4258C24.9176 29.1791 26.374 28.6626 27.5183 27.5183C28.6626 26.374 29.1791 24.9176 29.4258 23.082C29.6667 21.2896 29.6667 18.9936 29.6667 16.0702Z" fill="black"/>
<path d="M14.6666 21.3333V16C14.6666 15.2636 15.2636 14.6666 16 14.6666C16.7364 14.6666 17.3333 15.2636 17.3333 16V21.3333C17.3333 22.0697 16.7364 22.6666 16 22.6666C15.2636 22.6666 14.6666 22.0697 14.6666 21.3333Z" fill="black"/>
<path d="M16 9.66663C16.7364 9.66663 17.3333 10.2636 17.3333 11C17.3333 11.7363 16.7364 12.3333 16 12.3333C15.2636 12.3333 14.6666 11.7363 14.6666 11C14.6666 10.2636 15.2636 9.66663 16 9.66663Z" fill="black"/>
</svg>
