<svg width="32" height="32" viewBox="0 0 32 32" fill="none" xmlns="http://www.w3.org/2000/svg">
<path opacity="0.4" d="M3.33337 16C3.33337 10.0289 3.33337 7.04336 5.18836 5.18836C7.04336 3.33337 10.0289 3.33337 16 3.33337C21.9711 3.33337 24.9567 3.33337 26.8118 5.18836C28.6667 7.04336 28.6667 10.0289 28.6667 16C28.6667 21.9711 28.6667 24.9567 26.8118 26.8118C24.9567 28.6667 21.9711 28.6667 16 28.6667C10.0289 28.6667 7.04336 28.6667 5.18836 26.8118C3.33337 24.9567 3.33337 21.9711 3.33337 16Z" fill="black"/>
<path d="M3.33337 16C3.33337 10.0289 3.33337 7.04336 5.18836 5.18836C7.04336 3.33337 10.0289 3.33337 16 3.33337C21.9711 3.33337 24.9567 3.33337 26.8118 5.18836C28.6667 7.04336 28.6667 10.0289 28.6667 16C28.6667 21.9711 28.6667 24.9567 26.8118 26.8118C24.9567 28.6667 21.9711 28.6667 16 28.6667C10.0289 28.6667 7.04336 28.6667 5.18836 26.8118C3.33337 24.9567 3.33337 21.9711 3.33337 16Z" stroke="black" stroke-width="2" stroke-linecap="round" stroke-linejoin="round"/>
<path d="M16 21.3333V16" stroke="black" stroke-width="2" stroke-linecap="round" stroke-linejoin="round"/>
<path d="M16.1666 11H16M16.3333 11C16.3333 10.8159 16.1841 10.6666 16 10.6666C15.8158 10.6666 15.6666 10.8159 15.6666 11C15.6666 11.1841 15.8158 11.3333 16 11.3333C16.1841 11.3333 16.3333 11.1841 16.3333 11Z" stroke="black" stroke-width="2" stroke-linecap="round" stroke-linejoin="round"/>
</svg>
