<svg width="20" height="20" viewBox="0 0 20 20" fill="none" xmlns="http://www.w3.org/2000/svg">
<path d="M10.044 1.45837C11.8711 1.45837 13.3061 1.45836 14.4263 1.60892C15.5735 1.76317 16.4838 2.08598 17.199 2.80115C17.9141 3.51632 18.237 4.42656 18.3911 5.57377C18.5417 6.69399 18.5417 8.12894 18.5417 9.95612V10.044C18.5417 11.8711 18.5417 13.3061 18.3911 14.4263C18.237 15.5735 17.9141 16.4838 17.199 17.199C16.4838 17.9141 15.5735 18.237 14.4263 18.3911C13.3061 18.5417 11.8711 18.5417 10.044 18.5417H9.95612C8.12894 18.5417 6.69399 18.5417 5.57377 18.3911C4.42656 18.237 3.51632 17.9141 2.80115 17.199C2.08598 16.4838 1.76317 15.5735 1.60892 14.4263C1.45836 13.3061 1.45837 11.8711 1.45837 10.044V9.95612C1.45837 8.12894 1.45836 6.69399 1.60892 5.57377C1.76317 4.42656 2.08598 3.51632 2.80115 2.80115C3.51632 2.08598 4.42656 1.76317 5.57377 1.60892C6.69399 1.45836 8.12894 1.45837 9.95612 1.45837H10.044ZM10 9.16671C9.53979 9.16671 9.16671 9.53979 9.16671 10V13.3334C9.16671 13.7936 9.53979 14.1667 10 14.1667C10.4603 14.1667 10.8334 13.7936 10.8334 13.3334V10C10.8334 9.53979 10.4603 9.16671 10 9.16671ZM10 6.04171C9.53979 6.04171 9.16671 6.41481 9.16671 6.87504C9.16671 7.33527 9.53979 7.70837 10 7.70837C10.4603 7.70837 10.8334 7.33527 10.8334 6.87504C10.8334 6.4148 10.4603 6.04171 10 6.04171Z" fill="black"/>
</svg>
