<svg width="20" height="20" viewBox="0 0 20 20" fill="none" xmlns="http://www.w3.org/2000/svg">
<path opacity="0.4" d="M2.08337 10C2.08337 6.26809 2.08337 4.40212 3.24274 3.24274C4.40212 2.08337 6.26809 2.08337 10 2.08337C13.732 2.08337 15.598 2.08337 16.7574 3.24274C17.9167 4.40212 17.9167 6.26809 17.9167 10C17.9167 13.732 17.9167 15.598 16.7574 16.7574C15.598 17.9167 13.732 17.9167 10 17.9167C6.26809 17.9167 4.40212 17.9167 3.24274 16.7574C2.08337 15.598 2.08337 13.732 2.08337 10Z" fill="black"/>
<path d="M2.08337 10C2.08337 6.26809 2.08337 4.40212 3.24274 3.24274C4.40212 2.08337 6.26809 2.08337 10 2.08337C13.732 2.08337 15.598 2.08337 16.7574 3.24274C17.9167 4.40212 17.9167 6.26809 17.9167 10C17.9167 13.732 17.9167 15.598 16.7574 16.7574C15.598 17.9167 13.732 17.9167 10 17.9167C6.26809 17.9167 4.40212 17.9167 3.24274 16.7574C2.08337 15.598 2.08337 13.732 2.08337 10Z" stroke="black" stroke-width="1.25" stroke-linecap="round" stroke-linejoin="round"/>
<path d="M10 13.3333V10" stroke="black" stroke-width="1.25" stroke-linecap="round" stroke-linejoin="round"/>
<path d="M10.1041 6.87496H9.99996M10.2083 6.87496C10.2083 6.7599 10.115 6.66663 9.99996 6.66663C9.88488 6.66663 9.79163 6.7599 9.79163 6.87496C9.79163 6.99002 9.88488 7.08329 9.99996 7.08329C10.115 7.08329 10.2083 6.99002 10.2083 6.87496Z" stroke="black" stroke-width="1.25" stroke-linecap="round" stroke-linejoin="round"/>
</svg>
