<svg width="20" height="20" viewBox="0 0 20 20" fill="none" xmlns="http://www.w3.org/2000/svg">
<path d="M15.2318 5.25622C15.5503 4.92423 16.0781 4.91341 16.4103 5.23181C16.7423 5.55031 16.7531 6.07803 16.4347 6.41019L9.27975 13.8736C9.0185 14.1461 8.76567 14.413 8.52942 14.6011C8.27539 14.8033 7.93903 14.9999 7.49993 14.9999C7.06084 14.9998 6.72447 14.8032 6.47047 14.6011C6.23415 14.413 5.98134 14.1461 5.72014 13.8736L3.56519 11.6258C3.24675 11.2937 3.25746 10.766 3.58961 10.4475C3.92185 10.129 4.44952 10.1405 4.76799 10.4727L6.92294 12.7204C7.21028 13.0202 7.37353 13.1869 7.49993 13.2892C7.62633 13.1869 7.78954 13.0202 8.07692 12.7204L15.2318 5.25622Z" fill="black"/>
</svg>
