<svg width="28" height="28" viewBox="0 0 28 28" fill="none" xmlns="http://www.w3.org/2000/svg">
<path d="M21.3248 7.35874C21.7707 6.89395 22.5095 6.87879 22.9745 7.32455C23.4393 7.77047 23.4545 8.50927 23.0087 8.97429L12.9918 19.423C12.6261 19.8045 12.2721 20.1782 11.9414 20.4415C11.5857 20.7247 11.1148 20.9999 10.5001 20.9999C9.88538 20.9998 9.41445 20.7246 9.05885 20.4415C8.72801 20.1782 8.37408 19.8045 8.0084 19.423L4.99147 16.2762C4.54565 15.8111 4.56064 15.0724 5.02565 14.6265C5.49079 14.1806 6.22952 14.1967 6.67539 14.6617L9.69232 17.8086C10.0946 18.2282 10.3231 18.4617 10.5001 18.605C10.6771 18.4617 10.9056 18.2284 11.3079 17.8086L21.3248 7.35874Z" fill="black"/>
</svg>
