<svg width="32" height="32" viewBox="0 0 32 32" fill="none" xmlns="http://www.w3.org/2000/svg">
<path d="M24.371 8.40996C24.8806 7.87878 25.725 7.86146 26.2565 8.3709C26.7877 8.88051 26.805 9.72486 26.2955 10.2563L14.8477 22.1977C14.4297 22.6337 14.0251 23.0608 13.6471 23.3617C13.2407 23.6853 12.7025 23.9999 11.9999 23.9999C11.2974 23.9997 10.7592 23.6852 10.3528 23.3617C9.97469 23.0608 9.5702 22.6337 9.15228 22.1977L5.70436 18.6013C5.19485 18.0699 5.21198 17.2256 5.74342 16.716C6.27501 16.2064 7.11928 16.2248 7.62884 16.7563L11.0768 20.3527C11.5365 20.8323 11.7977 21.0991 11.9999 21.2628C12.2022 21.0991 12.4633 20.8324 12.9231 20.3527L24.371 8.40996Z" fill="black"/>
</svg>
