<svg width="32" height="32" viewBox="0 0 32 32" fill="none" xmlns="http://www.w3.org/2000/svg">
<path opacity="0.4" d="M5.74331 16.7173C6.27476 16.2079 7.11911 16.2252 7.62872 16.7564L11.0766 20.354C11.5475 20.8452 11.8098 21.1133 12.0141 21.276C12.0539 21.3076 12.0837 21.326 12.1027 21.3384C12.791 21.3909 13.3331 21.9661 13.3331 22.6679C13.3329 23.404 12.736 24.0012 11.9998 24.0012C11.2973 24.0012 10.7591 23.6867 10.3527 23.3632C9.97459 23.0623 9.57007 22.635 9.15216 22.199L5.70424 18.6028C5.1948 18.0713 5.21212 17.2269 5.74331 16.7173Z" fill="black"/>
<path d="M24.3712 8.40995C24.8808 7.87879 25.7252 7.86146 26.2565 8.37088C26.7877 8.8805 26.8051 9.72486 26.2956 10.2563L14.8477 22.1977C14.4299 22.6337 14.0253 23.0608 13.6472 23.3617C13.2408 23.6852 12.7026 23.9999 12.0001 23.9999C11.2637 23.9999 10.6667 23.4028 10.6667 22.6665C10.6667 21.9643 11.2096 21.3889 11.8985 21.3371C11.9174 21.3245 11.947 21.3067 11.9858 21.2759C12.1901 21.1132 12.4524 20.8439 12.9233 20.3527L24.3712 8.40995Z" fill="black"/>
</svg>
