<svg width="24" height="24" viewBox="0 0 24 24" fill="none" xmlns="http://www.w3.org/2000/svg">
<path opacity="0.4" d="M4.30754 12.538C4.70613 12.1559 5.33939 12.1689 5.7216 12.5673L8.30754 15.2655C8.66066 15.6339 8.85742 15.835 9.01066 15.957C9.04045 15.9807 9.06284 15.9945 9.07707 16.0038C9.59331 16.0432 9.99992 16.4746 9.99992 17.0009C9.99971 17.553 9.55207 18.0009 8.99992 18.0009C8.47302 18.0009 8.06936 17.765 7.76457 17.5224C7.481 17.2967 7.17761 16.9763 6.86418 16.6493L4.27824 13.9521C3.89616 13.5535 3.90915 12.9202 4.30754 12.538Z" fill="black"/>
<path d="M18.2783 6.30747C18.6605 5.9091 19.2938 5.8961 19.6923 6.27817C20.0907 6.66038 20.1037 7.29365 19.7216 7.69223L11.1357 16.6483C10.8223 16.9753 10.5189 17.2956 10.2353 17.5213C9.93055 17.7639 9.52692 17.9999 9 17.9999C8.44772 17.9999 8 17.5521 8 16.9999C8 16.4732 8.40713 16.0417 8.92383 16.0028C8.93801 15.9934 8.96021 15.98 8.98926 15.9569C9.14252 15.8349 9.33922 15.6329 9.69238 15.2645L18.2783 6.30747Z" fill="black"/>
</svg>
