<svg width="20" height="20" viewBox="0 0 20 20" fill="none" xmlns="http://www.w3.org/2000/svg">
<path opacity="0.4" d="M3.58954 10.4483C3.92169 10.1299 4.44941 10.1408 4.76792 10.4728L6.92287 12.7213C7.21714 13.0283 7.3811 13.1958 7.5088 13.2975C7.53363 13.3173 7.55229 13.3288 7.56414 13.3365C7.99434 13.3693 8.33319 13.7288 8.33319 14.1674C8.33301 14.6275 7.95998 15.0008 7.49985 15.0008C7.06077 15.0008 6.72439 14.8042 6.47039 14.602C6.23409 14.4139 5.98126 14.1469 5.72007 13.8744L3.56512 11.6268C3.24672 11.2946 3.25754 10.7668 3.58954 10.4483Z" fill="black"/>
<path d="M15.232 5.25621C15.5505 4.92424 16.0783 4.91341 16.4104 5.2318C16.7424 5.55031 16.7532 6.07803 16.4348 6.41018L9.27987 13.8736C9.0187 14.1461 8.76586 14.413 8.52953 14.6011C8.27554 14.8032 7.93918 14.9999 7.50008 14.9999C7.03985 14.9999 6.66675 14.6267 6.66675 14.1666C6.66675 13.7277 7.00602 13.3681 7.43661 13.3357C7.44842 13.3278 7.46692 13.3167 7.49113 13.2974C7.61885 13.1957 7.78276 13.0274 8.07706 12.7204L15.232 5.25621Z" fill="black"/>
</svg>
