<svg width="16" height="16" viewBox="0 0 16 16" fill="none" xmlns="http://www.w3.org/2000/svg">
<path d="M12.1856 4.205C12.4404 3.9394 12.8626 3.93074 13.1283 4.18546C13.3939 4.44027 13.4026 4.86244 13.1479 5.12817L7.42395 11.0989C7.21495 11.3169 7.01268 11.5304 6.82368 11.6809C6.62045 11.8427 6.35137 11.9999 6.00009 11.9999C5.64882 11.9999 5.37972 11.8426 5.17652 11.6809C4.98747 11.5304 4.78522 11.3169 4.57626 11.0989L2.8523 9.30068C2.59755 9.03494 2.60611 8.61281 2.87183 8.35801C3.13763 8.10321 3.55976 8.11241 3.81454 8.37814L5.5385 10.1763C5.76837 10.4161 5.89897 10.5495 6.00009 10.6314C6.10121 10.5495 6.23178 10.4162 6.46168 10.1763L12.1856 4.205Z" fill="black"/>
</svg>
