<svg width="24" height="24" viewBox="0 0 24 24" fill="none" xmlns="http://www.w3.org/2000/svg">
<path d="M18.2783 6.30748C18.6605 5.90909 19.2938 5.8961 19.6924 6.27818C20.0908 6.66039 20.1038 7.29365 19.7217 7.69224L11.1358 16.6483C10.8223 16.9753 10.5189 17.2956 10.2354 17.5213C9.93056 17.764 9.52694 17.9999 9.00001 17.9999C8.47311 17.9998 8.06946 17.7639 7.76466 17.5213C7.48108 17.2956 7.17771 16.9753 6.86427 16.6483L4.27833 13.951C3.8962 13.5524 3.90905 12.9192 4.30763 12.537C4.70632 12.1548 5.33952 12.1686 5.72169 12.5672L8.30763 15.2645C8.65244 15.6242 8.84834 15.8243 9.00001 15.9471C9.1517 15.8243 9.34755 15.6243 9.6924 15.2645L18.2783 6.30748Z" fill="black"/>
</svg>
