<svg width="28" height="28" viewBox="0 0 28 28" fill="none" xmlns="http://www.w3.org/2000/svg">
<path opacity="0.4" d="M5.02555 14.6277C5.49057 14.1819 6.22937 14.1971 6.67528 14.6619L9.69221 17.8098C10.1042 18.2396 10.3337 18.4742 10.5125 18.6165C10.5473 18.6442 10.5734 18.6603 10.59 18.6711C11.1923 18.7171 11.6667 19.2204 11.6667 19.8344C11.6664 20.4785 11.1442 21.0011 10.5 21.0011C9.88527 21.0011 9.41434 20.7258 9.05875 20.4428C8.72792 20.1795 8.37396 19.8057 8.00829 19.4242L4.99136 16.2775C4.5456 15.8124 4.56076 15.0736 5.02555 14.6277Z" fill="black"/>
<path d="M21.3249 7.35872C21.7708 6.89396 22.5096 6.87879 22.9746 7.32454C23.4394 7.77045 23.4545 8.50927 23.0087 8.97428L12.9919 19.423C12.6262 19.8045 12.2723 20.1782 11.9414 20.4415C11.5858 20.7246 11.1149 20.9999 10.5002 20.9999C9.85584 20.9999 9.3335 20.4775 9.3335 19.8332C9.3335 19.2187 9.80848 18.7153 10.4113 18.6699C10.4278 18.659 10.4537 18.6433 10.4876 18.6164C10.6664 18.4741 10.8959 18.2384 11.3079 17.8086L21.3249 7.35872Z" fill="black"/>
</svg>
