<svg width="16" height="16" viewBox="0 0 16 16" fill="none" xmlns="http://www.w3.org/2000/svg">
<path opacity="0.4" d="M2.87178 8.35866C3.1375 8.10393 3.55968 8.11259 3.81448 8.37819L5.53844 10.177C5.77386 10.4226 5.90503 10.5567 6.00719 10.638C6.02705 10.6538 6.04198 10.663 6.05146 10.6692C6.39562 10.6955 6.6667 10.9831 6.6667 11.3339C6.66656 11.702 6.36813 12.0006 6.00003 12.0006C5.64876 12.0006 5.37966 11.8433 5.17646 11.6816C4.98742 11.5311 4.78516 11.3175 4.5762 11.0995L2.85224 9.30139C2.59752 9.03566 2.60618 8.61346 2.87178 8.35866Z" fill="black"/>
<path d="M12.1857 4.20499C12.4405 3.93941 12.8627 3.93074 13.1284 4.18546C13.394 4.44026 13.4027 4.86244 13.1479 5.12816L7.42399 11.0989C7.21506 11.3169 7.01279 11.5304 6.82372 11.6809C6.62053 11.8426 6.35144 11.9999 6.00016 11.9999C5.63198 11.9999 5.3335 11.7014 5.3335 11.3333C5.3335 10.9821 5.60492 10.6945 5.94938 10.6685C5.95884 10.6623 5.97364 10.6533 5.993 10.6379C6.09518 10.5566 6.22631 10.4219 6.46175 10.1763L12.1857 4.20499Z" fill="black"/>
</svg>
