<svg width="16" height="16" viewBox="0 0 16 16" fill="none" xmlns="http://www.w3.org/2000/svg">
<path d="M10.6695 1.66663C11.9983 1.74228 12.8384 1.95583 13.4413 2.5587C14.0441 3.16158 14.2577 4.00175 14.3333 5.33061M5.33054 1.66663C4.00173 1.74228 3.1616 1.95583 2.55874 2.5587C1.95586 3.16158 1.7423 4.00175 1.66666 5.33061M14.3333 10.6693C14.2577 11.9982 14.0441 12.8384 13.4413 13.4412C12.8384 14.0441 11.9982 14.2576 10.6693 14.3333M1.66666 10.6693C1.7423 11.9982 1.95586 12.8384 2.55874 13.4412C3.16162 14.0441 4.00178 14.2576 5.33064 14.3333" stroke="black" stroke-linecap="round" stroke-linejoin="round"/>
<path opacity="0.4" d="M3.33334 8H12.6667" stroke="black" stroke-linecap="round" stroke-linejoin="round"/>
</svg>
