<svg width="20" height="20" viewBox="0 0 20 20" fill="none" xmlns="http://www.w3.org/2000/svg">
<path d="M13.3368 2.08337C14.9978 2.17794 16.048 2.44488 16.8016 3.19847C17.5552 3.95207 17.8221 5.00227 17.9167 6.66336M6.66319 2.08337C5.00219 2.17794 3.95202 2.44488 3.19844 3.19847C2.44484 3.95207 2.1779 5.00227 2.08334 6.66336M17.9167 13.3367C17.8221 14.9978 17.5552 16.048 16.8016 16.8016C16.048 17.5552 14.9978 17.8221 13.3367 17.9167M2.08334 13.3367C2.1779 14.9978 2.44484 16.048 3.19844 16.8016C3.95204 17.5552 5.00224 17.8221 6.66332 17.9167" stroke="black" stroke-width="1.25" stroke-linecap="round" stroke-linejoin="round"/>
<path opacity="0.4" d="M4.16666 10H15.8333" stroke="black" stroke-width="1.25" stroke-linecap="round" stroke-linejoin="round"/>
</svg>
