<svg width="32" height="32" viewBox="0 0 32 32" fill="none" xmlns="http://www.w3.org/2000/svg">
<path opacity="0.4" d="M26.8825 5.11752C25.6768 3.91179 23.9965 3.48468 21.3389 3.33337H10.6611C8.00346 3.48468 6.32319 3.91179 5.11747 5.11752C3.91171 6.32328 3.48461 8.00361 3.33331 10.6613V21.3387C3.48461 23.9964 3.91171 25.6768 5.11747 26.8826C6.32323 28.0883 8.00355 28.5154 10.6613 28.6667H21.3386C23.9964 28.5154 25.6768 28.0883 26.8825 26.8826C28.0882 25.6768 28.5153 23.9964 28.6666 21.3387V10.6613C28.5153 8.00361 28.0882 6.32328 26.8825 5.11752Z" fill="black"/>
<path d="M21.3389 3.33337C23.9965 3.48468 25.6768 3.91179 26.8825 5.11752C28.0882 6.32328 28.5153 8.00361 28.6666 10.6613M10.6611 3.33337C8.00346 3.48468 6.32319 3.91179 5.11747 5.11752C3.91171 6.32328 3.48461 8.00361 3.33331 10.6613M28.6666 21.3387C28.5153 23.9964 28.0882 25.6768 26.8825 26.8826C25.6768 28.0883 23.9964 28.5154 21.3386 28.6667M3.33331 21.3387C3.48461 23.9964 3.91171 25.6768 5.11747 26.8826C6.32323 28.0883 8.00355 28.5154 10.6613 28.6667" stroke="black" stroke-width="2" stroke-linecap="round" stroke-linejoin="round"/>
<path d="M6.66669 16H25.3334" stroke="black" stroke-width="2" stroke-linecap="round" stroke-linejoin="round"/>
</svg>
