<svg width="16" height="16" viewBox="0 0 16 16" fill="none" xmlns="http://www.w3.org/2000/svg">
<path fill-rule="evenodd" clip-rule="evenodd" d="M6.16836 1.78522C6.18616 2.1442 5.90956 2.44964 5.55058 2.46743C4.20216 2.53425 3.57422 2.73381 3.15403 3.154C2.73384 3.57419 2.53428 4.20213 2.46746 5.55055C2.44967 5.90954 2.14423 6.18613 1.78525 6.16833C1.42627 6.15055 1.14968 5.84511 1.16747 5.48613C1.23609 4.10159 1.44172 3.02558 2.23367 2.23364C3.02561 1.44169 4.10162 1.23606 5.48616 1.16744C5.84514 1.14965 6.15057 1.42624 6.16836 1.78522ZM9.83159 1.78522C9.84939 1.42624 10.1549 1.14965 10.5139 1.16744C11.8984 1.23606 12.9744 1.44169 13.7663 2.23364C14.5583 3.02558 14.7639 4.10159 14.8325 5.48613C14.8503 5.84511 14.5737 6.15055 14.2147 6.16833C13.8557 6.18613 13.5503 5.90954 13.5325 5.55055C13.4657 4.20213 13.2661 3.57419 12.8459 3.154C12.4258 2.73381 11.7978 2.53425 10.4494 2.46743C10.0904 2.44964 9.81386 2.1442 9.83159 1.78522ZM1.78525 9.83156C2.14423 9.81383 2.44967 10.0904 2.46746 10.4494C2.53428 11.7978 2.73384 12.4258 3.15403 12.8459C3.57422 13.2661 4.20216 13.4657 5.55058 13.5325C5.90956 13.5503 6.18615 13.8557 6.16836 14.2147C6.15057 14.5737 5.84514 14.8503 5.48615 14.8325C4.10161 14.7639 3.02561 14.5582 2.23367 13.7663C1.44172 12.9744 1.23609 11.8984 1.16747 10.5138C1.14968 10.1548 1.42627 9.84936 1.78525 9.83156ZM14.2147 9.83156C14.5737 9.84936 14.8503 10.1548 14.8325 10.5138C14.7639 11.8984 14.5583 12.9744 13.7663 13.7663C12.9744 14.5582 11.8984 14.7639 10.5139 14.8325C10.1549 14.8503 9.84939 14.5737 9.83159 14.2147C9.81386 13.8557 10.0904 13.5503 10.4494 13.5325C11.7978 13.4657 12.4258 13.2661 12.8459 12.8459C13.2661 12.4258 13.4657 11.7978 13.5325 10.4494C13.5503 10.0904 13.8557 9.81383 14.2147 9.83156Z" fill="black"/>
<path d="M12.6667 7.33337L12.735 7.33664C13.0711 7.37084 13.3333 7.65491 13.3333 8.00004C13.3333 8.34517 13.0711 8.62924 12.735 8.66344L12.6667 8.66671H3.33332C2.96514 8.66671 2.66666 8.36824 2.66666 8.00004C2.66666 7.63184 2.96514 7.33337 3.33332 7.33337H12.6667Z" fill="black"/>
</svg>
