<svg width="20" height="20" viewBox="0 0 20 20" fill="none" xmlns="http://www.w3.org/2000/svg">
<path opacity="0.4" fill-rule="evenodd" clip-rule="evenodd" d="M7.71048 2.23161C7.73272 2.68034 7.38698 3.06214 6.93825 3.08437C5.25273 3.16791 4.46779 3.41735 3.94256 3.94259C3.41732 4.46782 3.16788 5.25276 3.08434 6.93828C3.06211 7.38701 2.68031 7.73275 2.23158 7.71051C1.78286 7.68827 1.43712 7.30647 1.45936 6.85775C1.54513 5.12707 1.80218 3.78206 2.79211 2.79214C3.78203 1.80221 5.12704 1.54516 6.85772 1.45939C7.30644 1.43715 7.68823 1.78289 7.71048 2.23161ZM12.2895 2.23161C12.3118 1.78289 12.6936 1.43715 13.1423 1.45939C14.873 1.54516 16.218 1.80221 17.2079 2.79214C18.1978 3.78206 18.4549 5.12707 18.5407 6.85775C18.5629 7.30647 18.2172 7.68827 17.7684 7.71051C17.3197 7.73275 16.9379 7.38701 16.9157 6.93828C16.8322 5.25276 16.5827 4.46782 16.0574 3.94259C15.5323 3.41735 14.7473 3.16791 13.0618 3.08437C12.613 3.06214 12.2673 2.68034 12.2895 2.23161ZM2.23158 12.2895C2.68031 12.2674 3.06211 12.613 3.08434 13.0618C3.16788 14.7473 3.41732 15.5323 3.94256 16.0575C4.46779 16.5827 5.25273 16.8322 6.93824 16.9157C7.38698 16.938 7.73271 17.3197 7.71047 17.7685C7.68823 18.2172 7.30644 18.563 6.85771 18.5407C5.12703 18.455 3.78203 18.1979 2.79211 17.208C1.80218 16.218 1.54513 14.873 1.45936 13.1424C1.43712 12.6936 1.78286 12.3118 2.23158 12.2895ZM17.7684 12.2895C18.2172 12.3118 18.5629 12.6936 18.5407 13.1424C18.4549 14.873 18.1978 16.218 17.2079 17.208C16.218 18.1979 14.873 18.455 13.1423 18.5407C12.6936 18.563 12.3118 18.2172 12.2895 17.7685C12.2673 17.3197 12.613 16.938 13.0618 16.9157C14.7473 16.8322 15.5323 16.5827 16.0574 16.0575C16.5827 15.5323 16.8322 14.7473 16.9157 13.0618C16.9379 12.613 17.3197 12.2674 17.7684 12.2895Z" fill="black"/>
<path d="M15.8333 9.16663L15.9188 9.17071C16.3389 9.21346 16.6667 9.56854 16.6667 9.99996C16.6667 10.4314 16.3389 10.7865 15.9188 10.8292L15.8333 10.8333H4.16668C3.70644 10.8333 3.33334 10.4602 3.33334 9.99996C3.33334 9.53971 3.70644 9.16663 4.16668 9.16663H15.8333Z" fill="black"/>
</svg>
