<svg width="28" height="28" viewBox="0 0 28 28" fill="none" xmlns="http://www.w3.org/2000/svg">
<path opacity="0.4" fill-rule="evenodd" clip-rule="evenodd" d="M10.7946 3.12416C10.8258 3.75238 10.3417 4.2869 9.71353 4.31802C7.35379 4.43497 6.25489 4.78419 5.51956 5.51953C4.78422 6.25485 4.435 7.35376 4.31806 9.7135C4.28693 10.3417 3.75241 10.8257 3.12419 10.7946C2.49598 10.7635 2.01194 10.229 2.04308 9.60075C2.16316 7.1778 2.52302 5.29479 3.90893 3.9089C5.29482 2.52299 7.17784 2.16313 9.60078 2.04305C10.229 2.01191 10.7635 2.49595 10.7946 3.12416ZM17.2053 3.12416C17.2364 2.49595 17.771 2.01191 18.3993 2.04305C20.8222 2.16313 22.7052 2.52299 24.0911 3.9089C25.477 5.29479 25.8369 7.1778 25.9569 9.60075C25.9881 10.229 25.504 10.7635 24.8758 10.7946C24.2475 10.8257 23.7131 10.3417 23.6819 9.7135C23.565 7.35376 23.2157 6.25485 22.4804 5.51953C21.7451 4.78419 20.6461 4.43497 18.2864 4.31802C17.6582 4.2869 17.1743 3.75238 17.2053 3.12416ZM3.12419 17.2053C3.75241 17.1742 4.28693 17.6582 4.31806 18.2864C4.435 20.6461 4.78422 21.7451 5.51956 22.4803C6.25489 23.2157 7.35379 23.565 9.71352 23.6819C10.3417 23.713 10.8258 24.2475 10.7946 24.8757C10.7635 25.504 10.229 25.988 9.60077 25.9569C7.17782 25.8368 5.29482 25.4769 3.90893 24.091C2.52302 22.7052 2.16316 20.8222 2.04308 18.3992C2.01194 17.771 2.49598 17.2364 3.12419 17.2053ZM24.8758 17.2053C25.504 17.2364 25.9881 17.771 25.9569 18.3992C25.8369 20.8222 25.477 22.7052 24.0911 24.091C22.7052 25.4769 20.8222 25.8368 18.3993 25.9569C17.771 25.988 17.2364 25.504 17.2053 24.8757C17.1743 24.2475 17.6582 23.713 18.2864 23.6819C20.6461 23.565 21.7451 23.2157 22.4804 22.4803C23.2157 21.7451 23.565 20.6461 23.6819 18.2864C23.7131 17.6582 24.2475 17.1742 24.8758 17.2053Z" fill="black"/>
<path d="M22.1667 12.8334L22.2862 12.8391C22.8745 12.8989 23.3333 13.3961 23.3333 14C23.3333 14.604 22.8745 15.1011 22.2862 15.161L22.1667 15.1667H5.83332C5.189 15.1667 4.66666 14.6444 4.66666 14C4.66666 13.3557 5.189 12.8334 5.83332 12.8334H22.1667Z" fill="black"/>
</svg>
