<svg width="28" height="28" viewBox="0 0 28 28" fill="none" xmlns="http://www.w3.org/2000/svg">
<path d="M18.6716 2.91663C20.997 3.04902 22.4672 3.42274 23.5222 4.47775C24.5772 5.53279 24.9509 7.00309 25.0833 9.3286M9.32845 2.91663C7.00303 3.04902 5.5328 3.42274 4.4778 4.47775C3.42276 5.53279 3.04904 7.00309 2.91666 9.3286M25.0833 18.6713C24.9509 20.9968 24.5772 22.4672 23.5222 23.5222C22.4672 24.5772 20.9968 24.9509 18.6713 25.0833M2.91666 18.6713C3.04904 20.9968 3.42276 22.4672 4.4778 23.5222C5.53284 24.5772 7.00312 24.9509 9.32862 25.0833" stroke="black" stroke-width="1.75" stroke-linecap="round" stroke-linejoin="round"/>
<path opacity="0.4" d="M5.83334 14H22.1667" stroke="black" stroke-width="1.75" stroke-linecap="round" stroke-linejoin="round"/>
</svg>
