<svg width="32" height="32" viewBox="0 0 32 32" fill="none" xmlns="http://www.w3.org/2000/svg">
<path opacity="0.4" fill-rule="evenodd" clip-rule="evenodd" d="M12.3367 3.57056C12.3723 4.28852 11.8191 4.8994 11.1012 4.93497C8.40432 5.06863 7.14843 5.46773 6.30806 6.30812C5.46767 7.14849 5.06856 8.40439 4.93491 11.1012C4.89934 11.8192 4.28846 12.3724 3.5705 12.3368C2.85254 12.3012 2.29935 11.6903 2.33494 10.9724C2.47218 8.20329 2.88344 6.05128 4.46734 4.4674C6.05122 2.88351 8.20323 2.47224 10.9723 2.335C11.6903 2.29941 12.3011 2.8526 12.3367 3.57056ZM19.6632 3.57056C19.6988 2.8526 20.3097 2.29941 21.0277 2.335C23.7968 2.47224 25.9488 2.88351 27.5326 4.4674C29.1165 6.05128 29.5278 8.20329 29.665 10.9724C29.7006 11.6903 29.1474 12.3012 28.4294 12.3368C27.7114 12.3724 27.1006 11.8192 27.065 11.1012C26.9314 8.40439 26.5322 7.14849 25.6918 6.30812C24.8516 5.46773 23.5956 5.06863 20.8988 4.93497C20.1808 4.8994 19.6277 4.28852 19.6632 3.57056ZM3.5705 19.6632C4.28846 19.6278 4.89934 20.1808 4.93491 20.8988C5.06856 23.5956 5.46767 24.8516 6.30806 25.6919C7.14843 26.5323 8.40433 26.9315 11.1012 27.0651C11.8191 27.1007 12.3723 27.7115 12.3367 28.4295C12.3011 29.1475 11.6903 29.7007 10.9723 29.6651C8.20322 29.5279 6.05122 29.1166 4.46734 27.5327C2.88344 25.9488 2.47218 23.7968 2.33494 21.0278C2.29935 20.3098 2.85254 19.6988 3.5705 19.6632ZM28.4294 19.6632C29.1474 19.6988 29.7006 20.3098 29.665 21.0278C29.5278 23.7968 29.1165 25.9488 27.5326 27.5327C25.9488 29.1166 23.7968 29.5279 21.0277 29.6651C20.3097 29.7007 19.6988 29.1475 19.6632 28.4295C19.6277 27.7115 20.1808 27.1007 20.8988 27.0651C23.5956 26.9315 24.8516 26.5323 25.6918 25.6919C26.5322 24.8516 26.9314 23.5956 27.065 20.8988C27.1006 20.1808 27.7114 19.6278 28.4294 19.6632Z" fill="black"/>
<path d="M25.3333 14.6666L25.47 14.6732C26.1422 14.7416 26.6666 15.3097 26.6666 16C26.6666 16.6902 26.1422 17.2584 25.47 17.3268L25.3333 17.3333H6.66665C5.93027 17.3333 5.33331 16.7364 5.33331 16C5.33331 15.2636 5.93027 14.6666 6.66665 14.6666H25.3333Z" fill="black"/>
</svg>
