<svg width="28" height="28" viewBox="0 0 28 28" fill="none" xmlns="http://www.w3.org/2000/svg">
<path d="M13.9962 14.5833V14M13.9962 7.58329V6.99996M13.9962 21.5833V21M15.1628 14.5833C15.1628 13.9389 14.6405 13.4166 13.9962 13.4166C13.3518 13.4166 12.8295 13.9389 12.8295 14.5833C12.8295 15.2276 13.3518 15.75 13.9962 15.75C14.6405 15.75 15.1628 15.2276 15.1628 14.5833ZM15.1628 7.58329C15.1628 6.93897 14.6405 6.41663 13.9962 6.41663C13.3518 6.41663 12.8295 6.93897 12.8295 7.58329C12.8295 8.22762 13.3518 8.74996 13.9962 8.74996C14.6405 8.74996 15.1628 8.22762 15.1628 7.58329ZM15.1628 21.5833C15.1628 20.9389 14.6405 20.4166 13.9962 20.4166C13.3518 20.4166 12.8295 20.9389 12.8295 21.5833C12.8295 22.2276 13.3518 22.75 13.9962 22.75C14.6405 22.75 15.1628 22.2276 15.1628 21.5833Z" stroke="black" stroke-width="1.75" stroke-linecap="round" stroke-linejoin="round"/>
</svg>
