<svg width="32" height="32" viewBox="0 0 32 32" fill="none" xmlns="http://www.w3.org/2000/svg">
<path d="M13.662 24C13.662 22.7113 14.7067 21.6666 15.9953 21.6666C17.284 21.6666 18.3287 22.7113 18.3287 24C18.3287 25.2886 17.284 26.3333 15.9953 26.3333C14.7067 26.3333 13.662 25.2886 13.662 24ZM13.662 16C13.662 14.7113 14.7067 13.6666 15.9953 13.6666C17.284 13.6666 18.3287 14.7113 18.3287 16C18.3287 17.2886 17.284 18.3333 15.9953 18.3333C14.7067 18.3333 13.662 17.2886 13.662 16ZM13.662 7.99996C13.662 6.71129 14.7067 5.66663 15.9953 5.66663C17.284 5.66663 18.3287 6.71129 18.3287 7.99996C18.3287 9.28863 17.284 10.3333 15.9953 10.3333C14.7067 10.3333 13.662 9.28863 13.662 7.99996Z" fill="black"/>
</svg>
