<svg width="28" height="28" viewBox="0 0 28 28" fill="none" xmlns="http://www.w3.org/2000/svg">
<path opacity="0.4" d="M11.9543 21C11.9543 19.8725 12.8683 18.9584 13.9959 18.9584C15.1235 18.9584 16.0376 19.8725 16.0376 21C16.0376 22.1276 15.1235 23.0417 13.9959 23.0417C12.8683 23.0417 11.9543 22.1276 11.9543 21ZM11.9543 14C11.9543 12.8725 12.8683 11.9584 13.9959 11.9584C15.1235 11.9584 16.0376 12.8725 16.0376 14C16.0376 15.1276 15.1235 16.0417 13.9959 16.0417C12.8683 16.0417 11.9543 15.1276 11.9543 14ZM11.9543 7.00004C11.9543 5.87246 12.8683 4.95837 13.9959 4.95837C15.1235 4.95837 16.0376 5.87246 16.0376 7.00004C16.0376 8.12762 15.1235 9.04171 13.9959 9.04171C12.8683 9.04171 11.9543 8.12762 11.9543 7.00004Z" fill="black"/>
</svg>
