<svg width="16" height="16" viewBox="0 0 16 16" fill="none" xmlns="http://www.w3.org/2000/svg">
<path opacity="0.4" d="M6.83099 12C6.83099 11.3557 7.35333 10.8334 7.99766 10.8334C8.64199 10.8334 9.16433 11.3557 9.16433 12C9.16433 12.6444 8.64199 13.1667 7.99766 13.1667C7.35333 13.1667 6.83099 12.6444 6.83099 12ZM6.83099 8.00004C6.83099 7.35571 7.35333 6.83337 7.99766 6.83337C8.64199 6.83337 9.16433 7.35571 9.16433 8.00004C9.16433 8.64437 8.64199 9.16671 7.99766 9.16671C7.35333 9.16671 6.83099 8.64437 6.83099 8.00004ZM6.83099 4.00004C6.83099 3.35571 7.35333 2.83337 7.99766 2.83337C8.64199 2.83337 9.16433 3.35571 9.16433 4.00004C9.16433 4.64437 8.64199 5.16671 7.99766 5.16671C7.35333 5.16671 6.83099 4.64437 6.83099 4.00004Z" fill="black"/>
</svg>
