<svg width="16" height="16" viewBox="0 0 16 16" fill="none" xmlns="http://www.w3.org/2000/svg">
<path opacity="0.4" d="M7.99781 4.33329V3.99996M7.99781 12.3333V12M8.66448 4.33329C8.66448 3.96511 8.36601 3.66663 7.99781 3.66663C7.62961 3.66663 7.33115 3.96511 7.33115 4.33329C7.33115 4.70148 7.62961 4.99996 7.99781 4.99996C8.36601 4.99996 8.66448 4.70148 8.66448 4.33329ZM8.66448 12.3333C8.66448 11.9651 8.36601 11.6666 7.99781 11.6666C7.62961 11.6666 7.33115 11.9651 7.33115 12.3333C7.33115 12.7015 7.62961 13 7.99781 13C8.36601 13 8.66448 12.7015 8.66448 12.3333Z" stroke="black" stroke-linecap="round" stroke-linejoin="round"/>
<path d="M7.99781 8.33329V7.99996M8.66448 8.33329C8.66448 7.96509 8.36601 7.66663 7.99781 7.66663C7.62961 7.66663 7.33115 7.96509 7.33115 8.33329C7.33115 8.70149 7.62961 8.99996 7.99781 8.99996C8.36601 8.99996 8.66448 8.70149 8.66448 8.33329Z" stroke="black" stroke-linecap="round" stroke-linejoin="round"/>
</svg>
