<svg width="20" height="20" viewBox="0 0 20 20" fill="none" xmlns="http://www.w3.org/2000/svg">
<path d="M9.99724 10.4167V10M9.99724 5.41671V5.00004M9.99724 15.4167V15M10.8306 10.4167C10.8306 9.95646 10.4575 9.58337 9.99724 9.58337C9.53699 9.58337 9.16391 9.95646 9.16391 10.4167C9.16391 10.877 9.53699 11.25 9.99724 11.25C10.4575 11.25 10.8306 10.877 10.8306 10.4167ZM10.8306 5.41671C10.8306 4.95647 10.4575 4.58337 9.99724 4.58337C9.53699 4.58337 9.16391 4.95647 9.16391 5.41671C9.16391 5.87694 9.53699 6.25004 9.99724 6.25004C10.4575 6.25004 10.8306 5.87694 10.8306 5.41671ZM10.8306 15.4167C10.8306 14.9565 10.4575 14.5834 9.99724 14.5834C9.53699 14.5834 9.16391 14.9565 9.16391 15.4167C9.16391 15.877 9.53699 16.25 9.99724 16.25C10.4575 16.25 10.8306 15.877 10.8306 15.4167Z" stroke="black" stroke-width="1.25" stroke-linecap="round" stroke-linejoin="round"/>
</svg>
