<svg width="32" height="32" viewBox="0 0 32 32" fill="none" xmlns="http://www.w3.org/2000/svg">
<path opacity="0.4" d="M15.9956 8.66671V8.00004M15.9956 24.6667V24M17.329 8.66671C17.329 7.93033 16.732 7.33337 15.9956 7.33337C15.2592 7.33337 14.6623 7.93033 14.6623 8.66671C14.6623 9.40308 15.2592 10 15.9956 10C16.732 10 17.329 9.40308 17.329 8.66671ZM17.329 24.6667C17.329 23.9303 16.732 23.3334 15.9956 23.3334C15.2592 23.3334 14.6623 23.9303 14.6623 24.6667C14.6623 25.4031 15.2592 26 15.9956 26C16.732 26 17.329 25.4031 17.329 24.6667Z" stroke="black" stroke-width="2" stroke-linecap="round" stroke-linejoin="round"/>
<path d="M15.9956 16.6667V16M17.329 16.6667C17.329 15.9303 16.732 15.3334 15.9956 15.3334C15.2592 15.3334 14.6623 15.9303 14.6623 16.6667C14.6623 17.4031 15.2592 18 15.9956 18C16.732 18 17.329 17.4031 17.329 16.6667Z" stroke="black" stroke-width="2" stroke-linecap="round" stroke-linejoin="round"/>
</svg>
