<svg width="20" height="20" viewBox="0 0 20 20" fill="none" xmlns="http://www.w3.org/2000/svg">
<path opacity="0.4" d="M8.53876 15C8.53876 14.1945 9.19167 13.5416 9.99709 13.5416C10.8025 13.5416 11.4554 14.1945 11.4554 15C11.4554 15.8054 10.8025 16.4583 9.99709 16.4583C9.19167 16.4583 8.53876 15.8054 8.53876 15ZM8.53876 9.99996C8.53876 9.19454 9.19167 8.54163 9.99709 8.54163C10.8025 8.54163 11.4554 9.19454 11.4554 9.99996C11.4554 10.8054 10.8025 11.4583 9.99709 11.4583C9.19167 11.4583 8.53876 10.8054 8.53876 9.99996ZM8.53876 4.99996C8.53876 4.19454 9.19167 3.54163 9.99709 3.54163C10.8025 3.54163 11.4554 4.19454 11.4554 4.99996C11.4554 5.80538 10.8025 6.45829 9.99709 6.45829C9.19167 6.45829 8.53876 5.80538 8.53876 4.99996Z" fill="black"/>
</svg>
