<svg width="28" height="28" viewBox="0 0 28 28" fill="none" xmlns="http://www.w3.org/2000/svg">
<path opacity="0.4" d="M14 26.5417C7.07343 26.5417 1.45833 20.9266 1.45833 14C1.45833 7.07344 7.07343 1.45834 14 1.45834C20.9266 1.45834 26.5417 7.07344 26.5417 14C26.5417 20.9266 20.9266 26.5417 14 26.5417Z" fill="black"/>
<path fill-rule="evenodd" clip-rule="evenodd" d="M19.5267 11.2883C19.962 10.8134 19.9299 10.0754 19.455 9.63997C18.98 9.20458 18.242 9.23667 17.8066 9.71164L12.2134 15.8134L10.1583 13.7584C9.70268 13.3028 8.964 13.3028 8.50838 13.7584C8.05277 14.2139 8.05277 14.9527 8.50838 15.4083L11.425 18.3249C11.6501 18.55 11.9572 18.6733 12.2753 18.6664C12.5935 18.6594 12.8949 18.5229 13.1101 18.2883L19.5267 11.2883Z" fill="black"/>
</svg>
