<svg width="32" height="32" viewBox="0 0 32 32" fill="none" xmlns="http://www.w3.org/2000/svg">
<path opacity="0.4" d="M16 30.3333C8.08392 30.3333 1.66667 23.9161 1.66667 16C1.66667 8.08391 8.08392 1.66666 16 1.66666C23.9161 1.66666 30.3333 8.08391 30.3333 16C30.3333 23.9161 23.9161 30.3333 16 30.3333Z" fill="black"/>
<path fill-rule="evenodd" clip-rule="evenodd" d="M22.3163 12.901C22.8137 12.3582 22.7771 11.5147 22.2343 11.0172C21.6915 10.5196 20.848 10.5562 20.3504 11.0991L13.9581 18.0726L11.6095 15.7239C11.0888 15.2032 10.2446 15.2032 9.72385 15.7239C9.20315 16.2446 9.20315 17.0888 9.72385 17.6095L13.0572 20.9428C13.3143 21.2 13.6653 21.341 14.0289 21.3331C14.3925 21.3251 14.7371 21.1691 14.9829 20.901L22.3163 12.901Z" fill="black"/>
</svg>
