<svg width="16" height="16" viewBox="0 0 16 16" fill="none" xmlns="http://www.w3.org/2000/svg">
<path opacity="0.4" d="M8 15.1667C4.04196 15.1667 0.833336 11.9581 0.833336 8.00001C0.833336 4.04197 4.04196 0.833344 8 0.833344C11.9581 0.833344 15.1667 4.04197 15.1667 8.00001C15.1667 11.9581 11.9581 15.1667 8 15.1667Z" fill="black"/>
<path fill-rule="evenodd" clip-rule="evenodd" d="M11.1581 6.45047C11.4069 6.17905 11.3885 5.75734 11.1171 5.50855C10.8457 5.25975 10.424 5.27809 10.1752 5.5495L6.97906 9.03625L5.80474 7.86191C5.54438 7.60158 5.12228 7.60158 4.86192 7.86191C4.60158 8.12225 4.60158 8.54438 4.86192 8.80471L6.52859 10.4714C6.65717 10.6 6.83266 10.6704 7.01446 10.6665C7.19626 10.6625 7.36853 10.5845 7.49146 10.4504L11.1581 6.45047Z" fill="black"/>
</svg>
