<svg width="32" height="32" viewBox="0 0 32 32" fill="none" xmlns="http://www.w3.org/2000/svg">
<path fill-rule="evenodd" clip-rule="evenodd" d="M1.66667 16C1.66667 23.9161 8.08392 30.3333 16 30.3333C23.9161 30.3333 30.3333 23.9161 30.3333 16C30.3333 8.08391 23.9161 1.66666 16 1.66666C8.08392 1.66666 1.66667 8.08391 1.66667 16ZM22.2343 11.0171C22.7771 11.5147 22.8137 12.3581 22.3163 12.901L14.9829 20.9009C14.7371 21.1691 14.3925 21.3251 14.0289 21.3331C13.6653 21.3409 13.3144 21.2 13.0572 20.9428L9.72386 17.6095C9.20316 17.0888 9.20316 16.2445 9.72386 15.7239C10.2446 15.2032 11.0888 15.2032 11.6095 15.7239L13.9581 18.0725L20.3504 11.099C20.848 10.5562 21.6915 10.5195 22.2343 11.0171Z" fill="black"/>
</svg>
