<svg width="28" height="28" viewBox="0 0 28 28" fill="none" xmlns="http://www.w3.org/2000/svg">
<path opacity="0.4" d="M25.6667 14C25.6667 7.55669 20.4433 2.33334 14 2.33334C7.55667 2.33334 2.33333 7.55669 2.33333 14C2.33333 20.4433 7.55667 25.6667 14 25.6667C20.4433 25.6667 25.6667 20.4433 25.6667 14Z" fill="black"/>
<path d="M25.6667 14C25.6667 7.55669 20.4433 2.33334 14 2.33334C7.55667 2.33334 2.33333 7.55669 2.33333 14C2.33333 20.4433 7.55667 25.6667 14 25.6667C20.4433 25.6667 25.6667 20.4433 25.6667 14Z" stroke="black" stroke-width="1.75"/>
<path d="M9.33333 14.5833L12.25 17.5L18.6667 10.5" stroke="black" stroke-width="1.75" stroke-linecap="round" stroke-linejoin="round"/>
</svg>
