<svg width="16" height="16" viewBox="0 0 16 16" fill="none" xmlns="http://www.w3.org/2000/svg">
<path fill-rule="evenodd" clip-rule="evenodd" d="M0.833336 8.00001C0.833336 11.9581 4.04196 15.1667 8 15.1667C11.9581 15.1667 15.1667 11.9581 15.1667 8.00001C15.1667 4.04197 11.9581 0.833344 8 0.833344C4.04196 0.833344 0.833336 4.04197 0.833336 8.00001ZM11.1171 5.50858C11.3885 5.75737 11.4069 6.17908 11.1581 6.4505L7.49147 10.4505C7.36854 10.5845 7.19627 10.6625 7.01447 10.6665C6.83267 10.6705 6.65718 10.6 6.5286 10.4714L4.86193 8.80474C4.60158 8.54441 4.60158 8.12228 4.86193 7.86194C5.12228 7.60161 5.54439 7.60161 5.80474 7.86194L6.97907 9.03628L10.1752 5.54953C10.424 5.27812 10.8457 5.25978 11.1171 5.50858Z" fill="black"/>
</svg>
