<svg width="28" height="28" viewBox="0 0 28 28" fill="none" xmlns="http://www.w3.org/2000/svg">
<path fill-rule="evenodd" clip-rule="evenodd" d="M1.45833 14C1.45833 20.9266 7.07343 26.5417 14 26.5417C20.9266 26.5417 26.5417 20.9266 26.5417 14C26.5417 7.07344 20.9266 1.45834 14 1.45834C7.07343 1.45834 1.45833 7.07344 1.45833 14ZM19.455 9.64C19.9299 10.0754 19.962 10.8134 19.5267 11.2884L13.1101 18.2883C12.8949 18.5229 12.5935 18.6594 12.2753 18.6664C11.9572 18.6733 11.65 18.55 11.425 18.325L8.50837 15.4083C8.05276 14.9527 8.05276 14.214 8.50837 13.7584C8.96399 13.3028 9.70267 13.3028 10.1583 13.7584L12.2134 15.8135L17.8066 9.71167C18.242 9.2367 18.98 9.20461 19.455 9.64Z" fill="black"/>
</svg>
