<svg width="20" height="20" viewBox="0 0 20 20" fill="none" xmlns="http://www.w3.org/2000/svg">
<path opacity="0.4" d="M10 18.9583C5.05245 18.9583 1.04166 14.9476 1.04166 9.99999C1.04166 5.05244 5.05245 1.04166 10 1.04166C14.9476 1.04166 18.9583 5.05244 18.9583 9.99999C18.9583 14.9476 14.9476 18.9583 10 18.9583Z" fill="black"/>
<path fill-rule="evenodd" clip-rule="evenodd" d="M13.9477 8.06313C14.2586 7.72386 14.2357 7.19672 13.8964 6.88573C13.5572 6.57474 13.03 6.59765 12.719 6.93692L8.72384 11.2954L7.25593 9.82744C6.93049 9.50202 6.40285 9.50202 6.07741 9.82744C5.75198 10.1529 5.75198 10.6805 6.07741 11.0059L8.16074 13.0893C8.32147 13.25 8.54084 13.3381 8.76809 13.3332C8.99534 13.3282 9.21067 13.2307 9.36434 13.0631L13.9477 8.06313Z" fill="black"/>
</svg>
