<svg width="20" height="20" viewBox="0 0 20 20" fill="none" xmlns="http://www.w3.org/2000/svg">
<path fill-rule="evenodd" clip-rule="evenodd" d="M1.04166 9.99999C1.04166 14.9476 5.05245 18.9583 10 18.9583C14.9476 18.9583 18.9583 14.9476 18.9583 9.99999C18.9583 5.05244 14.9476 1.04166 10 1.04166C5.05245 1.04166 1.04166 5.05244 1.04166 9.99999ZM13.8964 6.8857C14.2357 7.19669 14.2586 7.72383 13.9477 8.0631L9.36433 13.0631C9.21066 13.2307 8.99533 13.3282 8.76808 13.3332C8.54083 13.3381 8.32146 13.25 8.16074 13.0892L6.07741 11.0059C5.75197 10.6805 5.75197 10.1528 6.07741 9.82741C6.40285 9.50199 6.93048 9.50199 7.25592 9.82741L8.72383 11.2953L12.719 6.93689C13.03 6.59762 13.5572 6.57471 13.8964 6.8857Z" fill="black"/>
</svg>
