<svg width="32" height="32" viewBox="0 0 32 32" fill="none" xmlns="http://www.w3.org/2000/svg">
<path opacity="0.4" d="M29.3333 16C29.3333 8.63619 23.3637 2.66666 16 2.66666C8.6362 2.66666 2.66667 8.63619 2.66667 16C2.66667 23.3637 8.6362 29.3333 16 29.3333C23.3637 29.3333 29.3333 23.3637 29.3333 16Z" fill="black"/>
<path d="M29.3333 16C29.3333 8.63619 23.3637 2.66666 16 2.66666C8.6362 2.66666 2.66667 8.63619 2.66667 16C2.66667 23.3637 8.6362 29.3333 16 29.3333C23.3637 29.3333 29.3333 23.3637 29.3333 16Z" stroke="black" stroke-width="2"/>
<path d="M10.6667 16.6667L14 20L21.3333 12" stroke="black" stroke-width="2" stroke-linecap="round" stroke-linejoin="round"/>
</svg>
