<svg width="20" height="20" viewBox="0 0 20 20" fill="none" xmlns="http://www.w3.org/2000/svg">
<path d="M3.55649 15.7039C3.74389 17.0958 4.89675 18.1862 6.2997 18.2507C7.4802 18.305 8.6794 18.3333 9.99998 18.3333C11.3206 18.3333 12.5197 18.305 13.7002 18.2507C15.1032 18.1862 16.2561 17.0958 16.4435 15.7039C16.5658 14.7956 16.6666 13.8647 16.6666 12.9167C16.6666 11.9687 16.5658 11.0378 16.4435 10.1294C16.2561 8.7375 15.1032 7.64707 13.7002 7.58257C12.5197 7.52831 11.3206 7.5 9.99998 7.5C8.6794 7.5 7.4802 7.52831 6.2997 7.58257C4.89675 7.64707 3.74389 8.7375 3.55649 10.1294C3.43419 11.0378 3.33331 11.9687 3.33331 12.9167C3.33331 13.8647 3.43419 14.7956 3.55649 15.7039Z" stroke="black" stroke-width="1.25" stroke-linecap="round" stroke-linejoin="round"/>
<path d="M6.25 7.49996V5.41663C6.25 3.34556 7.92893 1.66663 10 1.66663C12.0711 1.66663 13.75 3.34556 13.75 5.41663V7.49996" stroke="black" stroke-width="1.25" stroke-linecap="round" stroke-linejoin="round"/>
<path d="M10.1042 12.9167H10M10.2084 12.9167C10.2084 13.0318 10.1151 13.125 10 13.125C9.88494 13.125 9.79169 13.0318 9.79169 12.9167C9.79169 12.8016 9.88494 12.7084 10 12.7084C10.1151 12.7084 10.2084 12.8016 10.2084 12.9167Z" stroke="black" stroke-width="1.25" stroke-linecap="round" stroke-linejoin="round"/>
<path d="M6.77081 12.9167H6.66665M6.87498 12.9167C6.87498 13.0318 6.7817 13.125 6.66665 13.125C6.55159 13.125 6.45831 13.0318 6.45831 12.9167C6.45831 12.8016 6.55159 12.7084 6.66665 12.7084C6.7817 12.7084 6.87498 12.8016 6.87498 12.9167Z" stroke="black" stroke-width="1.25" stroke-linecap="round" stroke-linejoin="round"/>
<path d="M13.4375 12.9167H13.3333M13.5417 12.9167C13.5417 13.0318 13.4484 13.125 13.3333 13.125C13.2182 13.125 13.125 13.0318 13.125 12.9167C13.125 12.8016 13.2182 12.7084 13.3333 12.7084C13.4484 12.7084 13.5417 12.8016 13.5417 12.9167Z" stroke="black" stroke-width="1.25" stroke-linecap="round" stroke-linejoin="round"/>
</svg>
