<svg width="32" height="32" viewBox="0 0 32 32" fill="none" xmlns="http://www.w3.org/2000/svg">
<path d="M5.69045 25.1263C5.99029 27.3533 7.83488 29.098 10.0796 29.2012C11.9684 29.288 13.8871 29.3333 16 29.3333C18.113 29.3333 20.0316 29.288 21.9204 29.2012C24.1652 29.098 26.0098 27.3533 26.3096 25.1263C26.5054 23.6729 26.6667 22.1835 26.6667 20.6667C26.6667 19.1499 26.5054 17.6604 26.3096 16.2071C26.0098 13.98 24.1652 12.2353 21.9204 12.1321C20.0316 12.0453 18.113 12 16 12C13.8871 12 11.9684 12.0453 10.0796 12.1321C7.83488 12.2353 5.99029 13.98 5.69045 16.2071C5.49477 17.6604 5.33337 19.1499 5.33337 20.6667C5.33337 22.1835 5.49477 23.6729 5.69045 25.1263Z" stroke="black" stroke-width="2" stroke-linecap="round" stroke-linejoin="round"/>
<path d="M10 12V8.66663C10 5.35292 12.6863 2.66663 16 2.66663C19.3137 2.66663 22 5.35292 22 8.66663V12" stroke="black" stroke-width="2" stroke-linecap="round" stroke-linejoin="round"/>
<path d="M16.1666 20.6667H16M16.3333 20.6667C16.3333 20.8508 16.1841 21 16 21C15.8158 21 15.6666 20.8508 15.6666 20.6667C15.6666 20.4826 15.8158 20.3334 16 20.3334C16.1841 20.3334 16.3333 20.4826 16.3333 20.6667Z" stroke="black" stroke-width="2" stroke-linecap="round" stroke-linejoin="round"/>
<path d="M10.8334 20.6667H10.6667M11 20.6667C11 20.8508 10.8508 21 10.6667 21C10.4826 21 10.3334 20.8508 10.3334 20.6667C10.3334 20.4826 10.4826 20.3334 10.6667 20.3334C10.8508 20.3334 11 20.4826 11 20.6667Z" stroke="black" stroke-width="2" stroke-linecap="round" stroke-linejoin="round"/>
<path d="M21.5 20.6667H21.3333M21.6667 20.6667C21.6667 20.8508 21.5175 21 21.3333 21C21.1492 21 21 20.8508 21 20.6667C21 20.4826 21.1492 20.3334 21.3333 20.3334C21.5175 20.3334 21.6667 20.4826 21.6667 20.6667Z" stroke="black" stroke-width="2" stroke-linecap="round" stroke-linejoin="round"/>
</svg>
