<svg width="16" height="16" viewBox="0 0 16 16" fill="none" xmlns="http://www.w3.org/2000/svg">
<path d="M2.84523 12.5631C2.99515 13.6767 3.91744 14.549 5.03979 14.6006C5.9842 14.644 6.94355 14.6667 8.00002 14.6667C9.05649 14.6667 10.0158 14.644 10.9602 14.6006C12.0826 14.549 13.0049 13.6767 13.1548 12.5631C13.2527 11.8365 13.3334 11.0917 13.3334 10.3333C13.3334 9.57493 13.2527 8.8302 13.1548 8.10353C13.0049 6.99 12.0826 6.11766 10.9602 6.06606C10.0158 6.02265 9.05649 6 8.00002 6C6.94355 6 5.9842 6.02265 5.03979 6.06606C3.91744 6.11766 2.99515 6.99 2.84523 8.10353C2.74739 8.8302 2.66669 9.57493 2.66669 10.3333C2.66669 11.0917 2.74739 11.8365 2.84523 12.5631Z" stroke="black" stroke-linecap="round" stroke-linejoin="round"/>
<path d="M5 6.00004V4.33337C5 2.67652 6.34315 1.33337 8 1.33337C9.65687 1.33337 11 2.67652 11 4.33337V6.00004" stroke="black" stroke-linecap="round" stroke-linejoin="round"/>
<path opacity="0.4" d="M8.08331 10.3333H7.99998M8.16665 10.3333C8.16665 10.4254 8.09205 10.5 7.99998 10.5C7.90791 10.5 7.83331 10.4254 7.83331 10.3333C7.83331 10.2412 7.90791 10.1666 7.99998 10.1666C8.09205 10.1666 8.16665 10.2412 8.16665 10.3333Z" stroke="black" stroke-linecap="round" stroke-linejoin="round"/>
<path opacity="0.4" d="M5.41669 10.3333H5.33335M5.50002 10.3333C5.50002 10.4254 5.4254 10.5 5.33335 10.5C5.24131 10.5 5.16669 10.4254 5.16669 10.3333C5.16669 10.2412 5.24131 10.1666 5.33335 10.1666C5.4254 10.1666 5.50002 10.2412 5.50002 10.3333Z" stroke="black" stroke-linecap="round" stroke-linejoin="round"/>
<path opacity="0.4" d="M10.75 10.3333H10.6667M10.8333 10.3333C10.8333 10.4254 10.7587 10.5 10.6667 10.5C10.5746 10.5 10.5 10.4254 10.5 10.3333C10.5 10.2412 10.5746 10.1666 10.6667 10.1666C10.7587 10.1666 10.8333 10.2412 10.8333 10.3333Z" stroke="black" stroke-linecap="round" stroke-linejoin="round"/>
</svg>
