<svg width="28" height="28" viewBox="0 0 28 28" fill="none" xmlns="http://www.w3.org/2000/svg">
<path opacity="0.4" d="M4.97907 21.9855C5.24143 23.9342 6.85544 25.4608 8.81956 25.5511C10.4723 25.627 12.1511 25.6667 14 25.6667C15.8488 25.6667 17.5276 25.627 19.1803 25.5511C21.1445 25.4608 22.7585 23.9342 23.0209 21.9855C23.1921 20.7138 23.3333 19.4105 23.3333 18.0833C23.3333 16.7561 23.1921 15.4529 23.0209 14.1812C22.7585 12.2325 21.1445 10.7059 19.1803 10.6156C17.5276 10.5396 15.8488 10.5 14 10.5C12.1511 10.5 10.4723 10.5396 8.81956 10.6156C6.85544 10.7059 5.24143 12.2325 4.97907 14.1812C4.80785 15.4529 4.66663 16.7561 4.66663 18.0833C4.66663 19.4105 4.80785 20.7138 4.97907 21.9855Z" fill="black"/>
<path d="M4.97907 21.9855C5.24143 23.9342 6.85544 25.4608 8.81956 25.5511C10.4723 25.627 12.1511 25.6667 14 25.6667C15.8488 25.6667 17.5276 25.627 19.1803 25.5511C21.1445 25.4608 22.7585 23.9342 23.0209 21.9855C23.1921 20.7138 23.3333 19.4105 23.3333 18.0833C23.3333 16.7561 23.1921 15.4529 23.0209 14.1812C22.7585 12.2325 21.1445 10.7059 19.1803 10.6156C17.5276 10.5396 15.8488 10.5 14 10.5C12.1511 10.5 10.4723 10.5396 8.81956 10.6156C6.85544 10.7059 5.24143 12.2325 4.97907 14.1812C4.80785 15.4529 4.66663 16.7561 4.66663 18.0833C4.66663 19.4105 4.80785 20.7138 4.97907 21.9855Z" stroke="black" stroke-width="1.75" stroke-linecap="round" stroke-linejoin="round"/>
<path d="M8.75 10.5V7.58337C8.75 4.68388 11.1005 2.33337 14 2.33337C16.8995 2.33337 19.25 4.68388 19.25 7.58337V10.5" stroke="black" stroke-width="1.75" stroke-linecap="round" stroke-linejoin="round"/>
<path d="M14.1459 18.0833H14M14.2917 18.0833C14.2917 18.2444 14.1612 18.375 14 18.375C13.8389 18.375 13.7084 18.2444 13.7084 18.0833C13.7084 17.9222 13.8389 17.7916 14 17.7916C14.1612 17.7916 14.2917 17.9222 14.2917 18.0833Z" stroke="black" stroke-width="1.75" stroke-linecap="round" stroke-linejoin="round"/>
<path d="M9.47913 18.0833H9.33329M9.62496 18.0833C9.62496 18.2444 9.49437 18.375 9.33329 18.375C9.17221 18.375 9.04163 18.2444 9.04163 18.0833C9.04163 17.9222 9.17221 17.7916 9.33329 17.7916C9.49437 17.7916 9.62496 17.9222 9.62496 18.0833Z" stroke="black" stroke-width="1.75" stroke-linecap="round" stroke-linejoin="round"/>
<path d="M18.8125 18.0833H18.6667M18.9583 18.0833C18.9583 18.2444 18.8278 18.375 18.6667 18.375C18.5055 18.375 18.375 18.2444 18.375 18.0833C18.375 17.9222 18.5055 17.7916 18.6667 17.7916C18.8278 17.7916 18.9583 17.9222 18.9583 18.0833Z" stroke="black" stroke-width="1.75" stroke-linecap="round" stroke-linejoin="round"/>
</svg>
