<svg width="20" height="20" viewBox="0 0 20 20" fill="none" xmlns="http://www.w3.org/2000/svg">
<path opacity="0.4" d="M10.4116 4.40899C11.5913 3.25257 13.4089 3.25257 14.5887 4.40899C15.4705 5.27327 16.5525 6.46609 17.4176 7.8358C18.2786 9.19892 18.9585 10.7902 18.9585 12.4386C18.9585 15.6297 16.5267 18.9583 12.5002 18.9583C8.47358 18.9583 6.04181 15.6297 6.04181 12.4386C6.04181 10.7902 6.72175 9.19892 7.5827 7.8358C8.44783 6.46608 9.52983 5.27327 10.4116 4.40899Z" fill="black"/>
<path fill-rule="evenodd" clip-rule="evenodd" d="M15.4168 12.0833C15.8771 12.0833 16.2502 12.4564 16.2502 12.9167C16.2502 14.0419 15.8584 14.9165 15.1725 15.4943C14.5111 16.0515 13.6747 16.25 12.9168 16.25C12.4566 16.25 12.0835 15.8769 12.0835 15.4167C12.0835 14.9564 12.4566 14.5833 12.9168 14.5833C13.4088 14.5833 13.8225 14.4523 14.0987 14.2197C14.3502 14.0078 14.5835 13.6324 14.5835 12.9167C14.5835 12.4564 14.9566 12.0833 15.4168 12.0833Z" fill="black"/>
<path d="M7.9953 1.79786C7.0139 0.789608 5.48639 0.789608 4.50499 1.79786C3.8083 2.51363 2.95186 3.50297 2.26631 4.64058C1.58433 5.7723 1.04181 7.09961 1.04181 8.47884C1.04181 10.5067 2.17421 12.6407 4.17458 13.5301C4.4745 13.6635 4.62446 13.7302 4.74045 13.6483C4.85644 13.5665 4.84228 13.3818 4.81393 13.0126C4.79923 12.821 4.79181 12.6295 4.79181 12.4386C4.79181 10.4572 5.60294 8.62942 6.52586 7.16828C7.34797 5.86669 8.33941 4.72916 9.19233 3.86024C9.33999 3.70982 9.41383 3.63461 9.41891 3.54036C9.42399 3.44609 9.36099 3.36619 9.23491 3.20639C8.81008 2.66802 8.37849 2.19156 7.9953 1.79786Z" fill="black"/>
</svg>
