<svg width="32" height="32" viewBox="0 0 32 32" fill="none" xmlns="http://www.w3.org/2000/svg">
<path opacity="0.4" d="M7.33335 20.6667C4.38395 19.4888 2.66669 16.5771 2.66669 13.5661C2.66669 9.66093 5.75599 5.80179 7.92437 3.57407C9.10201 2.36419 10.898 2.36419 12.0757 3.57407C12.7317 4.24801 13.2865 5.07129 14 5.99999" stroke="black" stroke-width="2" stroke-linecap="round"/>
<path d="M10.6667 19.1232C10.6667 14.6601 14.5986 10.2497 17.3583 7.7037C18.8571 6.32098 21.143 6.32098 22.6418 7.7037C25.4015 10.2497 29.3334 14.6601 29.3334 19.1232C29.3334 23.4991 25.799 28 20 28C14.2011 28 10.6667 23.4991 10.6667 19.1232Z" stroke="black" stroke-width="2"/>
<path opacity="0.4" d="M24.6667 20.6667C24.6667 23.6121 22.6667 24.6667 20.6667 24.6667" stroke="black" stroke-width="2" stroke-linecap="round" stroke-linejoin="round"/>
</svg>
