<svg width="32" height="32" viewBox="0 0 32 32" fill="none" xmlns="http://www.w3.org/2000/svg">
<path opacity="0.4" d="M10.6667 19.9017C10.6667 15.1597 14.5986 10.4736 17.3583 7.76851C18.8571 6.29937 21.143 6.29937 22.6418 7.76851C25.4015 10.4736 29.3334 15.1597 29.3334 19.9017C29.3334 24.5512 25.799 29.3333 20 29.3333C14.2011 29.3333 10.6667 24.5512 10.6667 19.9017Z" fill="black"/>
<path d="M7.33335 20.6667C4.38395 19.4888 2.66669 16.5771 2.66669 13.5661C2.66669 9.66093 5.75599 5.80179 7.92437 3.57407C9.10201 2.36419 10.898 2.36419 12.0757 3.57407C12.7317 4.24801 13.2865 5.07129 14 5.99999" stroke="black" stroke-width="2" stroke-linecap="round"/>
<path d="M10.6667 19.9017C10.6667 15.1597 14.5986 10.4736 17.3583 7.76851C18.8571 6.29937 21.143 6.29937 22.6418 7.76851C25.4015 10.4736 29.3334 15.1597 29.3334 19.9017C29.3334 24.5512 25.799 29.3333 20 29.3333C14.2011 29.3333 10.6667 24.5512 10.6667 19.9017Z" stroke="black" stroke-width="2"/>
<path d="M24.6667 20.6667C24.6667 23.6121 22.6667 24.6667 20.6667 24.6667" stroke="black" stroke-width="2" stroke-linecap="round" stroke-linejoin="round"/>
</svg>
