<svg width="20" height="20" viewBox="0 0 20 20" fill="none" xmlns="http://www.w3.org/2000/svg">
<path opacity="0.4" d="M6.66666 12.4386C6.66666 9.47482 9.12407 6.546 10.8489 4.85531C11.7857 3.9371 13.2143 3.9371 14.1511 4.85531C15.8759 6.546 18.3333 9.47482 18.3333 12.4386C18.3333 15.3445 16.1243 18.3333 12.5 18.3333C8.87566 18.3333 6.66666 15.3445 6.66666 12.4386Z" fill="black"/>
<path d="M4.58332 12.9167C2.73995 12.1805 1.66666 10.3607 1.66666 8.47882C1.66666 6.03808 3.59747 3.62611 4.95271 2.23379C5.68873 1.47761 6.81125 1.47761 7.54727 2.23379C7.95727 2.655 8.30403 3.16955 8.74999 3.74999" stroke="black" stroke-width="1.25" stroke-linecap="round"/>
<path d="M6.66666 12.4386C6.66666 9.47482 9.12407 6.546 10.8489 4.85531C11.7857 3.9371 13.2143 3.9371 14.1511 4.85531C15.8759 6.546 18.3333 9.47482 18.3333 12.4386C18.3333 15.3445 16.1243 18.3333 12.5 18.3333C8.87566 18.3333 6.66666 15.3445 6.66666 12.4386Z" stroke="black" stroke-width="1.25"/>
<path d="M15.4167 12.9167C15.4167 14.7576 14.1667 15.4167 12.9167 15.4167" stroke="black" stroke-width="1.25" stroke-linecap="round" stroke-linejoin="round"/>
</svg>
