<svg width="28" height="28" viewBox="0 0 28 28" fill="none" xmlns="http://www.w3.org/2000/svg">
<path opacity="0.4" d="M6.41668 18.0833C3.83595 17.0527 2.33334 14.5049 2.33334 11.8704C2.33334 8.45334 5.03649 5.07658 6.93381 3.12733C7.96425 2.06868 9.53577 2.06868 10.5662 3.12733C11.1402 3.71703 11.6257 4.4374 12.25 5.25001" stroke="black" stroke-width="1.75" stroke-linecap="round"/>
<path d="M9.33334 16.7328C9.33334 12.8276 12.7737 8.96848 15.1885 6.74075C16.4999 5.53087 18.5001 5.53087 19.8115 6.74075C22.2263 8.96848 25.6667 12.8276 25.6667 16.7328C25.6667 20.5617 22.5741 24.5 17.5 24.5C12.4259 24.5 9.33334 20.5617 9.33334 16.7328Z" stroke="black" stroke-width="1.75"/>
<path opacity="0.4" d="M21.5833 18.0833C21.5833 20.6606 19.8333 21.5833 18.0833 21.5833" stroke="black" stroke-width="1.75" stroke-linecap="round" stroke-linejoin="round"/>
</svg>
