<svg width="32" height="32" viewBox="0 0 32 32" fill="none" xmlns="http://www.w3.org/2000/svg">
<path d="M7.33335 20.6667C4.38395 19.4888 2.66669 16.5771 2.66669 13.5661C2.66669 9.66096 5.75599 5.80182 7.92437 3.5741C9.10201 2.36422 10.898 2.36422 12.0757 3.5741C12.7317 4.24804 13.2865 5.07132 14 6.00002" stroke="black" stroke-width="2" stroke-linecap="round"/>
<path d="M10.6667 19.9018C10.6667 15.1598 14.5986 10.4736 17.3583 7.76854C18.8571 6.2994 21.143 6.2994 22.6418 7.76854C25.4015 10.4736 29.3334 15.1598 29.3334 19.9018C29.3334 24.5512 25.799 29.3334 20 29.3334C14.2011 29.3334 10.6667 24.5512 10.6667 19.9018Z" stroke="black" stroke-width="2"/>
<path d="M24.6667 20.6667C24.6667 23.6121 22.6667 24.6667 20.6667 24.6667" stroke="black" stroke-width="2" stroke-linecap="round" stroke-linejoin="round"/>
</svg>
