<svg width="28" height="28" viewBox="0 0 28 28" fill="none" xmlns="http://www.w3.org/2000/svg">
<path d="M6.41668 18.0833C3.83595 17.0527 2.33334 14.5049 2.33334 11.8704C2.33334 8.45334 5.03649 5.07658 6.93381 3.12733C7.96425 2.06868 9.53577 2.06868 10.5662 3.12733C11.1402 3.71703 11.6257 4.4374 12.25 5.25001" stroke="black" stroke-width="1.75" stroke-linecap="round"/>
<path d="M9.33334 17.414C9.33334 13.2648 12.7737 9.16442 15.1885 6.79746C16.4999 5.51197 18.5001 5.51197 19.8115 6.79746C22.2263 9.16442 25.6667 13.2648 25.6667 17.414C25.6667 21.4823 22.5741 25.6667 17.5 25.6667C12.4259 25.6667 9.33334 21.4823 9.33334 17.414Z" stroke="black" stroke-width="1.75"/>
<path d="M21.5833 18.0833C21.5833 20.6606 19.8333 21.5833 18.0833 21.5833" stroke="black" stroke-width="1.75" stroke-linecap="round" stroke-linejoin="round"/>
</svg>
