<svg width="16" height="16" viewBox="0 0 16 16" fill="none" xmlns="http://www.w3.org/2000/svg">
<path opacity="0.4" d="M3.66668 10.3333C2.19198 9.74441 1.33334 8.28854 1.33334 6.78307C1.33334 4.83048 2.878 2.90091 3.96218 1.78705C4.551 1.18211 5.44902 1.18211 6.03784 1.78705C6.36584 2.12402 6.64324 2.53566 7.00001 3.00001" stroke="black" stroke-linecap="round"/>
<path d="M5.33334 9.56161C5.33334 7.33008 7.29928 5.12485 8.67914 3.85186C9.42854 3.1605 10.5715 3.1605 11.3209 3.85186C12.7007 5.12485 14.6667 7.33008 14.6667 9.56161C14.6667 11.7495 12.8995 14 10 14C7.10054 14 5.33334 11.7495 5.33334 9.56161Z" stroke="black"/>
<path opacity="0.4" d="M12.3333 10.3333C12.3333 11.8061 11.3333 12.3333 10.3333 12.3333" stroke="black" stroke-linecap="round" stroke-linejoin="round"/>
</svg>
