<svg width="20" height="20" viewBox="0 0 20 20" fill="none" xmlns="http://www.w3.org/2000/svg">
<path opacity="0.4" d="M4.58332 12.9167C2.73995 12.1805 1.66666 10.3607 1.66666 8.47882C1.66666 6.03808 3.59747 3.62611 4.95271 2.23379C5.68873 1.47761 6.81125 1.47761 7.54727 2.23379C7.95727 2.655 8.30403 3.16955 8.74999 3.74999" stroke="black" stroke-width="1.25" stroke-linecap="round"/>
<path d="M6.66666 11.952C6.66666 9.16257 9.12407 6.40604 10.8489 4.81481C11.7857 3.95061 13.2143 3.95061 14.1511 4.81481C15.8759 6.40604 18.3333 9.16257 18.3333 11.952C18.3333 14.6869 16.1243 17.5 12.5 17.5C8.87566 17.5 6.66666 14.6869 6.66666 11.952Z" stroke="black" stroke-width="1.25"/>
<path opacity="0.4" d="M15.4167 12.9167C15.4167 14.7576 14.1667 15.4167 12.9167 15.4167" stroke="black" stroke-width="1.25" stroke-linecap="round" stroke-linejoin="round"/>
</svg>
