<svg width="16" height="16" viewBox="0 0 16 16" fill="none" xmlns="http://www.w3.org/2000/svg">
<path opacity="0.4" d="M5.33334 9.95088C5.33334 7.57988 7.29928 5.23682 8.67914 3.88427C9.42854 3.1497 10.5715 3.1497 11.3209 3.88427C12.7007 5.23682 14.6667 7.57988 14.6667 9.95088C14.6667 12.2756 12.8995 14.6667 10 14.6667C7.10054 14.6667 5.33334 12.2756 5.33334 9.95088Z" fill="black"/>
<path d="M3.66668 10.3333C2.19198 9.74441 1.33334 8.28854 1.33334 6.78307C1.33334 4.83048 2.878 2.90091 3.96218 1.78705C4.551 1.18211 5.44902 1.18211 6.03784 1.78705C6.36584 2.12402 6.64324 2.53566 7.00001 3.00001" stroke="black" stroke-linecap="round"/>
<path d="M5.33334 9.95088C5.33334 7.57988 7.29928 5.23682 8.67914 3.88427C9.42854 3.1497 10.5715 3.1497 11.3209 3.88427C12.7007 5.23682 14.6667 7.57988 14.6667 9.95088C14.6667 12.2756 12.8995 14.6667 10 14.6667C7.10054 14.6667 5.33334 12.2756 5.33334 9.95088Z" stroke="black"/>
<path d="M12.3333 10.3333C12.3333 11.8061 11.3333 12.3333 10.3333 12.3333" stroke="black" stroke-linecap="round" stroke-linejoin="round"/>
</svg>
