<svg width="32" height="32" viewBox="0 0 32 32" fill="none" xmlns="http://www.w3.org/2000/svg">
<path fill-rule="evenodd" clip-rule="evenodd" d="M23.342 7.05437C21.4543 5.20409 18.5462 5.20409 16.6586 7.05437C15.2478 8.43722 13.5166 10.3457 12.1324 12.5373C10.7548 14.7183 9.66693 17.2643 9.66693 19.9017C9.66693 25.0075 13.5578 30.3333 20.0003 30.3333C26.4428 30.3333 30.3336 25.0075 30.3336 19.9017C30.3336 17.2643 29.2458 14.7183 27.8682 12.5373C26.484 10.3457 24.7528 8.43722 23.342 7.05437ZM26.0003 20.6667C26.0003 19.9303 25.4034 19.3333 24.667 19.3333C23.9306 19.3333 23.3336 19.9303 23.3336 20.6667C23.3336 21.8119 22.9604 22.4125 22.5579 22.7515C22.116 23.1237 21.4542 23.3333 20.667 23.3333C19.9306 23.3333 19.3336 23.9303 19.3336 24.6667C19.3336 25.4031 19.9306 26 20.667 26C21.8796 26 23.2178 25.6824 24.276 24.7909C25.3735 23.8664 26.0003 22.4671 26.0003 20.6667Z" fill="black"/>
<path d="M12.7925 2.87656C11.2223 1.26335 8.77826 1.26335 7.20802 2.87656C6.09332 4.02179 4.72301 5.60474 3.62613 7.42491C2.53496 9.23566 1.66693 11.3594 1.66693 13.5661C1.66693 16.8107 3.47877 20.2251 6.67936 21.6481C7.15924 21.8616 7.39917 21.9683 7.58476 21.8373C7.77034 21.7064 7.74768 21.4109 7.70233 20.8201C7.6788 20.5136 7.66693 20.2072 7.66693 19.9017C7.66693 16.7315 8.96475 13.8071 10.4414 11.4692C11.7568 9.38668 13.3431 7.56663 14.7078 6.17636C14.944 5.9357 15.0622 5.81536 15.0703 5.66455C15.0784 5.51372 14.9776 5.38588 14.7759 5.1302C14.0962 4.26882 13.4056 3.50648 12.7925 2.87656Z" fill="black"/>
</svg>
