<svg width="28" height="28" viewBox="0 0 28 28" fill="none" xmlns="http://www.w3.org/2000/svg">
<path opacity="0.4" d="M14.5762 6.17257C16.2279 4.55358 18.7725 4.55358 20.4243 6.17257C21.6587 7.38257 23.1735 9.05251 24.3846 10.9701C25.59 12.8785 26.5419 15.1062 26.5419 17.414C26.5419 21.8815 23.1375 26.5417 17.5002 26.5417C11.863 26.5417 8.45856 21.8815 8.45856 17.414C8.45856 15.1062 9.41048 12.8785 10.6158 10.9701C11.827 9.0525 13.3418 7.38257 14.5762 6.17257Z" fill="black"/>
<path fill-rule="evenodd" clip-rule="evenodd" d="M21.5836 16.9167C22.2279 16.9167 22.7502 17.439 22.7502 18.0833C22.7502 19.6587 22.2018 20.8831 21.2415 21.6921C20.3155 22.4721 19.1447 22.75 18.0836 22.75C17.4392 22.75 16.9169 22.2277 16.9169 21.5833C16.9169 20.939 17.4392 20.4167 18.0836 20.4167C18.7724 20.4167 19.3515 20.2333 19.7381 19.9075C20.0904 19.611 20.4169 19.0854 20.4169 18.0833C20.4169 17.439 20.9392 16.9167 21.5836 16.9167Z" fill="black"/>
<path d="M11.1934 2.517C9.81948 1.10544 7.68097 1.10544 6.30701 2.517C5.33165 3.51907 4.13263 4.90415 3.17286 6.4968C2.21808 8.0812 1.45856 9.93945 1.45856 11.8704C1.45856 14.7093 3.04392 17.6969 5.84443 18.9421C6.26433 19.1289 6.47427 19.2222 6.63665 19.1077C6.79904 18.9931 6.77921 18.7346 6.73953 18.2176C6.71894 17.9494 6.70856 17.6813 6.70856 17.414C6.70856 14.64 7.84414 12.0812 9.13623 10.0356C10.2872 8.21335 11.6752 6.62081 12.8693 5.40432C13.076 5.19374 13.1794 5.08845 13.1865 4.95649C13.1936 4.82451 13.1054 4.71265 12.9289 4.48893C12.3341 3.73522 11.7299 3.06818 11.1934 2.517Z" fill="black"/>
</svg>
