<svg width="16" height="16" viewBox="0 0 16 16" fill="none" xmlns="http://www.w3.org/2000/svg">
<path fill-rule="evenodd" clip-rule="evenodd" d="M11.671 3.52718C10.7271 2.60204 9.27308 2.60204 8.32928 3.52718C7.62388 4.21861 6.75828 5.17286 6.06618 6.26863C5.37742 7.35913 4.83347 8.63213 4.83347 9.95086C4.83347 12.5037 6.77888 15.1667 10.0001 15.1667C13.2214 15.1667 15.1668 12.5037 15.1668 9.95086C15.1668 8.63213 14.6229 7.35913 13.9341 6.26863C13.242 5.17286 12.3764 4.21861 11.671 3.52718ZM13.0001 10.3333C13.0001 9.96513 12.7017 9.66666 12.3335 9.66666C11.9653 9.66666 11.6668 9.96513 11.6668 10.3333C11.6668 10.9059 11.4802 11.2063 11.2789 11.3757C11.058 11.5619 10.7271 11.6667 10.3335 11.6667C9.96528 11.6667 9.66681 11.9651 9.66681 12.3333C9.66681 12.7015 9.96528 13 10.3335 13C10.9398 13 11.6089 12.8412 12.138 12.3955C12.6867 11.9332 13.0001 11.2335 13.0001 10.3333Z" fill="black"/>
<path d="M6.39626 1.43828C5.61114 0.631677 4.38913 0.631677 3.60401 1.43828C3.04666 2.0109 2.36151 2.80237 1.81307 3.71246C1.26748 4.61783 0.833466 5.67968 0.833466 6.78306C0.833466 8.40533 1.73939 10.1125 3.33968 10.8241C3.57962 10.9308 3.69959 10.9841 3.79238 10.9187C3.88517 10.8532 3.87384 10.7055 3.85117 10.4101C3.8394 10.2568 3.83347 10.1036 3.83347 9.95086C3.83347 8.36573 4.48237 6.90353 5.22071 5.73462C5.87839 4.69334 6.67155 3.78332 7.35388 3.08818C7.47201 2.96785 7.53108 2.90768 7.53515 2.83228C7.53921 2.75686 7.48881 2.69294 7.38795 2.5651C7.04808 2.13441 6.70281 1.75324 6.39626 1.43828Z" fill="black"/>
</svg>
