<svg width="16" height="16" viewBox="0 0 16 16" fill="none" xmlns="http://www.w3.org/2000/svg">
<path fill-rule="evenodd" clip-rule="evenodd" d="M9.03174 2.16669C10.2577 2.16668 11.2205 2.16667 11.9796 2.25242C12.7544 2.33994 13.3827 2.52243 13.9049 2.93487C14.0613 3.05835 14.2062 3.19472 14.338 3.34255C14.7821 3.84069 14.9805 4.44448 15.0749 5.18525C15.0858 5.27049 15.0912 5.31311 15.0815 5.35054C15.0658 5.41037 15.0199 5.46252 14.9625 5.48559C14.9267 5.50002 14.8817 5.50002 14.7919 5.50002H1.20816C1.11832 5.50002 1.07338 5.50002 1.03748 5.48559C0.980103 5.46252 0.934189 5.41037 0.918563 5.35054C0.908789 5.31311 0.914223 5.27049 0.925096 5.18525C1.01956 4.44448 1.21788 3.84069 1.662 3.34255C1.7938 3.19472 1.93875 3.05835 2.0951 2.93487C2.61735 2.52243 3.24562 2.33994 4.0204 2.25242C4.77946 2.16667 5.74232 2.16668 6.96834 2.16669H9.03174ZM15.1667 8.03515C15.1667 9.18455 15.1667 10.0952 15.0749 10.8148C14.9805 11.5556 14.7821 12.1594 14.338 12.6575C14.2062 12.8053 14.0613 12.9417 13.9049 13.0652C13.3827 13.4776 12.7544 13.6601 11.9796 13.7476C11.2205 13.8334 10.2577 13.8334 9.03167 13.8334H6.96834C5.7423 13.8334 4.77945 13.8334 4.02039 13.7476C3.24562 13.6601 2.61734 13.4776 2.09509 13.0652C1.93874 12.9417 1.79379 12.8053 1.66199 12.6575C1.21788 12.1594 1.01955 11.5556 0.925089 10.8148C0.833323 10.0952 0.833329 9.18449 0.833336 8.03515V7.96489C0.833336 7.58102 0.833329 7.22382 0.836749 6.89142C0.838636 6.70762 0.839583 6.61573 0.898029 6.55787C0.956483 6.50002 1.04908 6.50002 1.23426 6.50002H14.7657C14.9509 6.50002 15.0435 6.50002 15.102 6.55787C15.1604 6.61573 15.1614 6.70762 15.1633 6.89142C15.1667 7.22369 15.1667 7.58082 15.1667 7.96449V8.03515ZM6.83334 10.6667C6.83334 10.3906 7.0572 10.1667 7.33334 10.1667H8.33334C8.60947 10.1667 8.83334 10.3906 8.83334 10.6667C8.83334 10.9428 8.60947 11.1667 8.33334 11.1667H7.33334C7.0572 11.1667 6.83334 10.9428 6.83334 10.6667ZM10.3333 10.1667C10.0572 10.1667 9.83333 10.3906 9.83333 10.6667C9.83333 10.9428 10.0572 11.1667 10.3333 11.1667H12.6667C12.9428 11.1667 13.1667 10.9428 13.1667 10.6667C13.1667 10.3906 12.9428 10.1667 12.6667 10.1667H10.3333Z" fill="black"/>
</svg>
