<svg width="32" height="32" viewBox="0 0 32 32" fill="none" xmlns="http://www.w3.org/2000/svg">
<path fill-rule="evenodd" clip-rule="evenodd" d="M18.0635 4.33331C20.5155 4.3333 22.4411 4.33329 23.9592 4.50478C25.5088 4.67982 26.7653 5.04481 27.8099 5.86969C28.1225 6.11663 28.4124 6.38938 28.676 6.68505C29.5643 7.68133 29.9609 8.8889 30.1499 10.3704C30.1716 10.5409 30.1824 10.6262 30.1629 10.701C30.1316 10.8207 30.0399 10.925 29.9251 10.9711C29.8533 11 29.7635 11 29.5837 11H2.41633C2.23663 11 2.14677 11 2.07497 10.9711C1.96021 10.925 1.86838 10.8207 1.83713 10.701C1.81758 10.6262 1.82845 10.5409 1.85019 10.3704C2.03911 8.8889 2.43577 7.68133 3.32399 6.68505C3.58759 6.38938 3.8775 6.11663 4.19019 5.86969C5.2347 5.04481 6.49124 4.67982 8.04079 4.50478C9.55891 4.33329 11.4846 4.3333 13.9367 4.33331H18.0635ZM30.3333 16.0702C30.3333 18.369 30.3333 20.1902 30.1499 21.6296C29.9609 23.111 29.5643 24.3186 28.676 25.3149C28.4124 25.6105 28.1225 25.8833 27.8099 26.1302C26.7653 26.9552 25.5088 27.3201 23.9592 27.4952C22.4411 27.6666 20.5155 27.6666 18.0633 27.6666H13.9367C11.4846 27.6666 9.5589 27.6666 8.04078 27.4952C6.49123 27.3201 5.23467 26.9552 4.19018 26.1302C3.87749 25.8833 3.58758 25.6105 3.32398 25.3149C2.43575 24.3186 2.0391 23.111 1.85018 21.6296C1.66665 20.1902 1.66666 18.3689 1.66667 16.0702V15.9297C1.66667 15.162 1.66666 14.4476 1.6735 13.7828C1.67727 13.4152 1.67917 13.2314 1.79606 13.1157C1.91297 13 2.09815 13 2.46853 13H29.5315C29.9019 13 30.0871 13 30.204 13.1157C30.3208 13.2314 30.3228 13.4152 30.3265 13.7828C30.3333 14.4473 30.3333 15.1616 30.3333 15.9289V16.0702ZM13.6667 21.3333C13.6667 20.781 14.1144 20.3333 14.6667 20.3333H16.6667C17.2189 20.3333 17.6667 20.781 17.6667 21.3333C17.6667 21.8856 17.2189 22.3333 16.6667 22.3333H14.6667C14.1144 22.3333 13.6667 21.8856 13.6667 21.3333ZM20.6667 20.3333C20.1144 20.3333 19.6667 20.781 19.6667 21.3333C19.6667 21.8856 20.1144 22.3333 20.6667 22.3333H25.3333C25.8856 22.3333 26.3333 21.8856 26.3333 21.3333C26.3333 20.781 25.8856 20.3333 25.3333 20.3333H20.6667Z" fill="black"/>
</svg>
