<svg width="28" height="28" viewBox="0 0 28 28" fill="none" xmlns="http://www.w3.org/2000/svg">
<path opacity="0.4" d="M26.5417 14.0616C26.5417 16.0729 26.5417 17.6665 26.3811 18.9259C26.2158 20.2222 25.8687 21.2788 25.0915 22.1506C24.8608 22.4093 24.6072 22.6479 24.3336 22.864C23.4197 23.5858 22.3202 23.9051 20.9643 24.0583C19.6359 24.2083 17.951 24.2083 15.8054 24.2083H12.1946C10.049 24.2083 8.36403 24.2083 7.03567 24.0583C5.67982 23.9051 4.58033 23.5858 3.6664 22.864C3.39279 22.6479 3.13912 22.4092 2.90847 22.1506C2.13127 21.2788 1.7842 20.2222 1.6189 18.9259C1.45831 17.6665 1.45832 16.0728 1.45833 14.0615V13.9385C1.45833 13.2667 1.45832 12.6416 1.4643 12.0599C1.4676 11.7383 1.46926 11.5775 1.57154 11.4762C1.67384 11.375 1.83587 11.375 2.15995 11.375H25.84C26.1641 11.375 26.3262 11.375 26.4285 11.4762C26.5307 11.5775 26.5324 11.7383 26.5357 12.0599C26.5417 12.6415 26.5417 13.2667 26.5417 13.9385V14.0616Z" fill="black"/>
<path d="M15.8066 3.79169C17.9521 3.79168 19.637 3.79166 20.9654 3.94172C22.3213 4.09488 23.4207 4.41424 24.3347 5.13603C24.6083 5.35209 24.8619 5.59075 25.0926 5.84945C25.8698 6.7212 26.2169 7.77783 26.3822 9.07418C26.4012 9.22334 26.4107 9.29792 26.3936 9.36344C26.3662 9.46814 26.2859 9.5594 26.1855 9.59976C26.1227 9.62502 26.0441 9.62502 25.8868 9.62502H2.11533C1.95809 9.62502 1.87947 9.62502 1.81664 9.59976C1.71623 9.5594 1.63588 9.46815 1.60853 9.36344C1.59143 9.29792 1.60094 9.22334 1.61997 9.07418C1.78527 7.77783 2.13234 6.7212 2.90954 5.84945C3.14019 5.59075 3.39386 5.35209 3.66747 5.13603C4.58141 4.41424 5.68089 4.09488 7.03674 3.94172C8.3651 3.79166 10.0501 3.79168 12.1956 3.79169H15.8066Z" fill="black"/>
<path fill-rule="evenodd" clip-rule="evenodd" d="M11.9583 18.6667C11.9583 18.1835 12.3501 17.7917 12.8333 17.7917H14.5833C15.0666 17.7917 15.4583 18.1835 15.4583 18.6667C15.4583 19.1499 15.0666 19.5417 14.5833 19.5417H12.8333C12.3501 19.5417 11.9583 19.1499 11.9583 18.6667Z" fill="black"/>
<path fill-rule="evenodd" clip-rule="evenodd" d="M17.2083 18.6667C17.2083 18.1835 17.6001 17.7917 18.0833 17.7917H22.1667C22.6499 17.7917 23.0417 18.1835 23.0417 18.6667C23.0417 19.1499 22.6499 19.5417 22.1667 19.5417H18.0833C17.6001 19.5417 17.2083 19.1499 17.2083 18.6667Z" fill="black"/>
</svg>
