<svg width="28" height="28" viewBox="0 0 28 28" fill="none" xmlns="http://www.w3.org/2000/svg">
<path opacity="0.4" d="M12.25 23.3333H15.75C20.135 23.3333 22.3275 23.3333 23.7912 22.1773C24.0254 21.9924 24.2419 21.7887 24.4384 21.5683C25.6667 20.1906 25.6667 18.1271 25.6667 14C25.6667 12.6197 25.6667 11.4702 25.6207 10.5H2.37928C2.33333 11.4702 2.33333 12.6197 2.33333 14C2.33333 18.1271 2.33333 20.1906 3.56159 21.5683C3.75805 21.7887 3.97457 21.9924 4.2087 22.1773C5.67248 23.3333 7.86499 23.3333 12.25 23.3333Z" fill="black"/>
<path d="M2.33333 14C2.33333 9.87296 2.33333 7.80942 3.56159 6.43174C3.75805 6.21139 3.97457 6.0076 4.2087 5.8227C5.67248 4.66669 7.86499 4.66669 12.25 4.66669H15.75C20.135 4.66669 22.3275 4.66669 23.7912 5.8227C24.0254 6.0076 24.2419 6.21139 24.4384 6.43174C25.6667 7.80942 25.6667 9.87296 25.6667 14C25.6667 18.1271 25.6667 20.1906 24.4384 21.5683C24.2419 21.7887 24.0254 21.9924 23.7912 22.1773C22.3275 23.3334 20.135 23.3334 15.75 23.3334H12.25C7.86499 23.3334 5.67248 23.3334 4.2087 22.1773C3.97457 21.9924 3.75805 21.7887 3.56159 21.5683C2.33333 20.1906 2.33333 18.1271 2.33333 14Z" stroke="black" stroke-width="1.75" stroke-linecap="round" stroke-linejoin="round"/>
<path d="M11.6667 18.6667H13.4167" stroke="black" stroke-width="1.75" stroke-miterlimit="10" stroke-linecap="round" stroke-linejoin="round"/>
<path d="M16.9167 18.6667H21" stroke="black" stroke-width="1.75" stroke-miterlimit="10" stroke-linecap="round" stroke-linejoin="round"/>
<path d="M2.33333 10.5H25.6667" stroke="black" stroke-width="1.75" stroke-linejoin="round"/>
</svg>
