<svg width="16" height="16" viewBox="0 0 16 16" fill="none" xmlns="http://www.w3.org/2000/svg">
<path d="M1.33334 8.00002C1.33334 5.6417 1.33334 4.46253 2.0352 3.67529C2.14746 3.54937 2.27119 3.43292 2.40498 3.32727C3.24142 2.66669 4.49428 2.66669 7 2.66669H9C11.5057 2.66669 12.7586 2.66669 13.595 3.32727C13.7288 3.43292 13.8525 3.54937 13.9648 3.67529C14.6667 4.46253 14.6667 5.6417 14.6667 8.00002C14.6667 10.3584 14.6667 11.5375 13.9648 12.3248C13.8525 12.4507 13.7288 12.5671 13.595 12.6728C12.7586 13.3334 11.5057 13.3334 9 13.3334H7C4.49428 13.3334 3.24142 13.3334 2.40498 12.6728C2.27119 12.5671 2.14746 12.4507 2.0352 12.3248C1.33334 11.5375 1.33334 10.3584 1.33334 8.00002Z" stroke="black" stroke-linecap="round" stroke-linejoin="round"/>
<path d="M6.66666 10.6667H7.66666" stroke="black" stroke-miterlimit="10" stroke-linecap="round" stroke-linejoin="round"/>
<path d="M9.66666 10.6667H12" stroke="black" stroke-miterlimit="10" stroke-linecap="round" stroke-linejoin="round"/>
<path d="M1.33334 6H14.6667" stroke="black" stroke-linejoin="round"/>
</svg>
