<svg width="28" height="28" viewBox="0 0 28 28" fill="none" xmlns="http://www.w3.org/2000/svg">
<path fill-rule="evenodd" clip-rule="evenodd" d="M15.8055 3.79169C17.951 3.79168 19.6359 3.79166 20.9643 3.94172C22.3202 4.09488 23.4197 4.41424 24.3336 5.13601C24.6072 5.35209 24.8608 5.59075 25.0915 5.84945C25.8687 6.7212 26.2158 7.77783 26.3811 9.07418C26.4001 9.22334 26.4096 9.29792 26.3926 9.36343C26.3651 9.46814 26.2849 9.55939 26.1844 9.59976C26.1217 9.62502 26.043 9.62502 25.8858 9.62502H2.11428C1.95704 9.62502 1.87841 9.62502 1.81559 9.59976C1.71517 9.55939 1.63482 9.46814 1.60748 9.36343C1.59037 9.29792 1.59988 9.22334 1.61891 9.07418C1.78421 7.77783 2.13129 6.7212 2.90848 5.84945C3.13913 5.59075 3.3928 5.35209 3.66641 5.13601C4.58035 4.41424 5.67983 4.09488 7.03568 3.94172C8.36404 3.79166 10.049 3.79168 12.1946 3.79169H15.8055ZM26.5417 14.0615C26.5417 16.073 26.5417 17.6665 26.3811 18.9259C26.2158 20.2222 25.8687 21.2789 25.0915 22.1506C24.8608 22.4092 24.6072 22.6479 24.3336 22.864C23.4197 23.5858 22.3202 23.9051 20.9643 24.0583C19.6359 24.2084 17.951 24.2084 15.8054 24.2084H12.1946C10.049 24.2084 8.36403 24.2084 7.03567 24.0583C5.67982 23.9051 4.58033 23.5858 3.6664 22.864C3.39279 22.6479 3.13912 22.4092 2.90847 22.1506C2.13127 21.2789 1.7842 20.2222 1.6189 18.9259C1.45831 17.6665 1.45832 16.0728 1.45833 14.0615V13.9385C1.45833 13.2668 1.45832 12.6417 1.4643 12.06C1.4676 11.7383 1.46926 11.5775 1.57154 11.4763C1.67384 11.375 1.83587 11.375 2.15995 11.375H25.84C26.1641 11.375 26.3262 11.375 26.4285 11.4763C26.5307 11.5775 26.5324 11.7383 26.5357 12.06C26.5417 12.6414 26.5417 13.2664 26.5417 13.9378V14.0615ZM11.9583 18.6667C11.9583 18.1835 12.3501 17.7917 12.8333 17.7917H14.5833C15.0666 17.7917 15.4583 18.1835 15.4583 18.6667C15.4583 19.1499 15.0666 19.5417 14.5833 19.5417H12.8333C12.3501 19.5417 11.9583 19.1499 11.9583 18.6667ZM18.0833 17.7917C17.6001 17.7917 17.2083 18.1835 17.2083 18.6667C17.2083 19.1499 17.6001 19.5417 18.0833 19.5417H22.1667C22.6499 19.5417 23.0417 19.1499 23.0417 18.6667C23.0417 18.1835 22.6499 17.7917 22.1667 17.7917H18.0833Z" fill="black"/>
</svg>
