<svg width="32" height="32" viewBox="0 0 32 32" fill="none" xmlns="http://www.w3.org/2000/svg">
<path opacity="0.4" d="M30.3333 16.0704C30.3333 18.3691 30.3333 20.1903 30.1499 21.6296C29.9609 23.1111 29.5643 24.3187 28.676 25.3149C28.4124 25.6107 28.1225 25.8833 27.8099 26.1303C26.7653 26.9552 25.5088 27.3201 23.9592 27.4952C22.4411 27.6667 20.5155 27.6667 18.0633 27.6667H13.9367C11.4846 27.6667 9.5589 27.6667 8.04078 27.4952C6.49123 27.3201 5.23467 26.9552 4.19018 26.1303C3.87749 25.8833 3.58758 25.6105 3.32398 25.3149C2.43575 24.3187 2.0391 23.1111 1.85018 21.6296C1.66665 20.1903 1.66666 18.3689 1.66667 16.0703V15.9297C1.66667 15.162 1.66666 14.4476 1.6735 13.7828C1.67727 13.4152 1.67917 13.2314 1.79606 13.1157C1.91297 13 2.09815 13 2.46853 13H29.5315C29.9019 13 30.0871 13 30.204 13.1157C30.3208 13.2314 30.3228 13.4152 30.3265 13.7828C30.3333 14.4475 30.3333 15.162 30.3333 15.9297V16.0704Z" fill="black"/>
<path d="M18.0647 4.33331C20.5167 4.3333 22.4423 4.33329 23.9604 4.50478C25.51 4.67982 26.7665 5.04481 27.8111 5.8697C28.1237 6.11663 28.4136 6.38938 28.6772 6.68505C29.5655 7.68133 29.9621 8.8889 30.1511 10.3704C30.1728 10.5409 30.1836 10.6262 30.1641 10.701C30.1328 10.8207 30.0411 10.925 29.9263 10.9711C29.8545 11 29.7647 11 29.5849 11H2.41752C2.23782 11 2.14796 11 2.07616 10.9711C1.9614 10.925 1.86958 10.8207 1.83832 10.701C1.81878 10.6262 1.82964 10.5409 1.85139 10.3704C2.04031 8.8889 2.43696 7.68133 3.32519 6.68505C3.58879 6.38938 3.8787 6.11663 4.19139 5.8697C5.2359 5.04481 6.49244 4.67982 8.04199 4.50478C9.56011 4.33329 11.4858 4.3333 13.9379 4.33331H18.0647Z" fill="black"/>
<path fill-rule="evenodd" clip-rule="evenodd" d="M13.6667 21.3333C13.6667 20.781 14.1144 20.3333 14.6667 20.3333H16.6667C17.2189 20.3333 17.6667 20.781 17.6667 21.3333C17.6667 21.8856 17.2189 22.3333 16.6667 22.3333H14.6667C14.1144 22.3333 13.6667 21.8856 13.6667 21.3333Z" fill="black"/>
<path fill-rule="evenodd" clip-rule="evenodd" d="M19.6667 21.3333C19.6667 20.781 20.1144 20.3333 20.6667 20.3333H25.3333C25.8856 20.3333 26.3333 20.781 26.3333 21.3333C26.3333 21.8856 25.8856 22.3333 25.3333 22.3333H20.6667C20.1144 22.3333 19.6667 21.8856 19.6667 21.3333Z" fill="black"/>
</svg>
