<svg width="20" height="20" viewBox="0 0 20 20" fill="none" xmlns="http://www.w3.org/2000/svg">
<path d="M1.66666 9.99998C1.66666 7.05208 1.66666 5.57812 2.544 4.59406C2.68432 4.43667 2.83898 4.2911 3.00621 4.15904C4.05177 3.33331 5.61785 3.33331 8.75 3.33331H11.25C14.3822 3.33331 15.9482 3.33331 16.9937 4.15904C17.161 4.2911 17.3157 4.43667 17.456 4.59406C18.3333 5.57812 18.3333 7.05208 18.3333 9.99998C18.3333 12.9479 18.3333 14.4218 17.456 15.4059C17.3157 15.5633 17.161 15.7088 16.9937 15.8409C15.9482 16.6666 14.3822 16.6666 11.25 16.6666H8.75C5.61785 16.6666 4.05177 16.6666 3.00621 15.8409C2.83898 15.7088 2.68432 15.5633 2.544 15.4059C1.66666 14.4218 1.66666 12.9479 1.66666 9.99998Z" stroke="black" stroke-width="1.25" stroke-linecap="round" stroke-linejoin="round"/>
<path d="M8.33334 13.3333H9.58334" stroke="black" stroke-width="1.25" stroke-miterlimit="10" stroke-linecap="round" stroke-linejoin="round"/>
<path d="M12.0833 13.3333H15" stroke="black" stroke-width="1.25" stroke-miterlimit="10" stroke-linecap="round" stroke-linejoin="round"/>
<path d="M1.66666 7.5H18.3333" stroke="black" stroke-width="1.25" stroke-linejoin="round"/>
</svg>
