<svg width="20" height="20" viewBox="0 0 20 20" fill="none" xmlns="http://www.w3.org/2000/svg">
<path fill-rule="evenodd" clip-rule="evenodd" d="M11.2897 2.70831C12.8222 2.7083 14.0257 2.7083 14.9745 2.81548C15.943 2.92488 16.7283 3.153 17.3812 3.66855C17.5766 3.82289 17.7577 3.99335 17.9225 4.17815C18.4777 4.80082 18.7256 5.55555 18.8437 6.48152C18.8572 6.58806 18.864 6.64134 18.8518 6.68813C18.8322 6.76292 18.7749 6.8281 18.7032 6.85694C18.6583 6.87498 18.6022 6.87498 18.4898 6.87498H1.5102C1.39789 6.87498 1.34172 6.87498 1.29685 6.85694C1.22512 6.8281 1.16773 6.76292 1.1482 6.68813C1.13598 6.64134 1.14277 6.58806 1.15636 6.48152C1.27444 5.55555 1.52235 4.80082 2.07749 4.17815C2.24224 3.99335 2.42343 3.82289 2.61886 3.66855C3.27168 3.153 4.05702 2.92488 5.02549 2.81548C5.97431 2.7083 7.17789 2.7083 8.71041 2.70831H11.2897ZM18.9583 10.0439C18.9583 11.4806 18.9583 12.6189 18.8437 13.5185C18.7256 14.4444 18.4777 15.1991 17.9225 15.8218C17.7577 16.0066 17.5766 16.1771 17.3812 16.3314C16.7283 16.847 15.943 17.0751 14.9745 17.1845C14.0257 17.2916 12.8222 17.2916 11.2896 17.2916H8.71041C7.17787 17.2916 5.97431 17.2916 5.02548 17.1845C4.05701 17.0751 3.27166 16.847 2.61886 16.3314C2.42342 16.1771 2.24223 16.0066 2.07748 15.8218C1.52234 15.1991 1.27443 14.4444 1.15636 13.5185C1.04165 12.6189 1.04166 11.4806 1.04166 10.0439V9.95606C1.04166 9.47623 1.04166 9.02973 1.04593 8.61423C1.04829 8.38448 1.04947 8.26961 1.12253 8.1973C1.1956 8.12498 1.31134 8.12498 1.54282 8.12498H18.4572C18.6887 8.12498 18.8044 8.12498 18.8775 8.1973C18.9505 8.26961 18.9517 8.38448 18.9541 8.61423C18.9583 9.02956 18.9583 9.47598 18.9583 9.95556V10.0439ZM8.54166 13.3333C8.54166 12.9881 8.8215 12.7083 9.16666 12.7083H10.4167C10.7618 12.7083 11.0417 12.9881 11.0417 13.3333C11.0417 13.6785 10.7618 13.9583 10.4167 13.9583H9.16666C8.8215 13.9583 8.54166 13.6785 8.54166 13.3333ZM12.9167 12.7083C12.5715 12.7083 12.2917 12.9881 12.2917 13.3333C12.2917 13.6785 12.5715 13.9583 12.9167 13.9583H15.8333C16.1785 13.9583 16.4583 13.6785 16.4583 13.3333C16.4583 12.9881 16.1785 12.7083 15.8333 12.7083H12.9167Z" fill="black"/>
</svg>
