<svg width="20" height="20" viewBox="0 0 20 20" fill="none" xmlns="http://www.w3.org/2000/svg">
<path opacity="0.4" d="M18.9583 10.044C18.9583 11.4807 18.9583 12.6189 18.8437 13.5185C18.7256 14.4444 18.4777 15.1992 17.9225 15.8218C17.7577 16.0067 17.5766 16.1771 17.3812 16.3314C16.7283 16.847 15.943 17.0751 14.9745 17.1845C14.0257 17.2917 12.8222 17.2917 11.2896 17.2917H8.71041C7.17787 17.2917 5.97431 17.2917 5.02548 17.1845C4.05701 17.0751 3.27166 16.847 2.61886 16.3314C2.42342 16.1771 2.24223 16.0066 2.07748 15.8218C1.52234 15.1992 1.27443 14.4444 1.15636 13.5185C1.04165 12.6189 1.04166 11.4806 1.04166 10.0439V9.95608C1.04166 9.47625 1.04166 9.02975 1.04593 8.61425C1.04829 8.3845 1.04947 8.26963 1.12253 8.19732C1.1956 8.125 1.31134 8.125 1.54282 8.125H18.4572C18.6887 8.125 18.8044 8.125 18.8775 8.19732C18.9505 8.26963 18.9517 8.3845 18.9541 8.61425C18.9583 9.02967 18.9583 9.47625 18.9583 9.95608V10.044Z" fill="black"/>
<path d="M11.2904 2.70831C12.8229 2.7083 14.0264 2.7083 14.9753 2.81548C15.9438 2.92488 16.7291 3.153 17.3819 3.66855C17.5773 3.82289 17.7585 3.99335 17.9233 4.17815C18.4784 4.80082 18.7263 5.55555 18.8444 6.48152C18.858 6.58806 18.8648 6.64134 18.8526 6.68814C18.833 6.76292 18.7757 6.8281 18.7039 6.85694C18.6591 6.87498 18.6029 6.87498 18.4906 6.87498H1.51095C1.39864 6.87498 1.34248 6.87498 1.2976 6.85694C1.22588 6.8281 1.16849 6.76293 1.14895 6.68814C1.13674 6.64134 1.14353 6.58806 1.15712 6.48152C1.27519 5.55555 1.5231 4.80082 2.07824 4.17815C2.24299 3.99335 2.42419 3.82289 2.61962 3.66855C3.27244 3.153 4.05778 2.92488 5.02624 2.81548C5.97507 2.7083 7.17864 2.7083 8.71117 2.70831H11.2904Z" fill="black"/>
<path fill-rule="evenodd" clip-rule="evenodd" d="M8.54166 13.3333C8.54166 12.9881 8.8215 12.7083 9.16666 12.7083H10.4167C10.7618 12.7083 11.0417 12.9881 11.0417 13.3333C11.0417 13.6785 10.7618 13.9583 10.4167 13.9583H9.16666C8.8215 13.9583 8.54166 13.6785 8.54166 13.3333Z" fill="black"/>
<path fill-rule="evenodd" clip-rule="evenodd" d="M12.2917 13.3333C12.2917 12.9881 12.5715 12.7083 12.9167 12.7083H15.8333C16.1785 12.7083 16.4583 12.9881 16.4583 13.3333C16.4583 13.6785 16.1785 13.9583 15.8333 13.9583H12.9167C12.5715 13.9583 12.2917 13.6785 12.2917 13.3333Z" fill="black"/>
</svg>
