<svg width="16" height="16" viewBox="0 0 16 16" fill="none" xmlns="http://www.w3.org/2000/svg">
<path opacity="0.4" d="M15.1667 8.0352C15.1667 9.18453 15.1667 10.0951 15.0749 10.8148C14.9805 11.5555 14.7821 12.1593 14.338 12.6575C14.2062 12.8053 14.0613 12.9417 13.9049 13.0651C13.3827 13.4776 12.7544 13.6601 11.9796 13.7476C11.2205 13.8333 10.2577 13.8333 9.03167 13.8333H6.96834C5.7423 13.8333 4.77945 13.8333 4.02039 13.7476C3.24562 13.6601 2.61734 13.4776 2.09509 13.0651C1.93874 12.9417 1.79379 12.8053 1.66199 12.6575C1.21788 12.1593 1.01955 11.5555 0.925089 10.8148C0.833323 10.0951 0.833329 9.18447 0.833336 8.03513V7.96487C0.833336 7.581 0.833329 7.2238 0.836749 6.8914C0.838636 6.7076 0.839583 6.61571 0.898029 6.55785C0.956483 6.5 1.04908 6.5 1.23426 6.5H14.7657C14.9509 6.5 15.0435 6.5 15.102 6.55785C15.1604 6.61571 15.1614 6.7076 15.1633 6.8914C15.1667 7.22373 15.1667 7.581 15.1667 7.96487V8.0352Z" fill="black"/>
<path d="M9.03233 2.16669C10.2583 2.16668 11.2211 2.16667 11.9802 2.25242C12.755 2.33994 13.3833 2.52243 13.9055 2.93488C14.0619 3.05835 14.2068 3.19472 14.3386 3.34255C14.7827 3.84069 14.9811 4.44448 15.0755 5.18525C15.0864 5.27049 15.0918 5.31311 15.0821 5.35055C15.0664 5.41037 15.0205 5.46252 14.9631 5.48559C14.9273 5.50002 14.8823 5.50002 14.7925 5.50002H1.20876C1.11891 5.50002 1.07398 5.50002 1.03808 5.48559C0.980702 5.46252 0.934788 5.41038 0.919162 5.35055C0.909388 5.31311 0.914822 5.27049 0.925695 5.18525C1.02015 4.44448 1.21848 3.84069 1.66259 3.34255C1.79439 3.19472 1.93935 3.05835 2.09569 2.93488C2.61795 2.52243 3.24622 2.33994 4.02099 2.25242C4.78005 2.16667 5.74291 2.16668 6.96893 2.16669H9.03233Z" fill="black"/>
<path fill-rule="evenodd" clip-rule="evenodd" d="M6.83334 10.6667C6.83334 10.3906 7.0572 10.1667 7.33334 10.1667H8.33334C8.60947 10.1667 8.83334 10.3906 8.83334 10.6667C8.83334 10.9428 8.60947 11.1667 8.33334 11.1667H7.33334C7.0572 11.1667 6.83334 10.9428 6.83334 10.6667Z" fill="black"/>
<path fill-rule="evenodd" clip-rule="evenodd" d="M9.83334 10.6667C9.83334 10.3906 10.0572 10.1667 10.3333 10.1667H12.6667C12.9428 10.1667 13.1667 10.3906 13.1667 10.6667C13.1667 10.9428 12.9428 11.1667 12.6667 11.1667H10.3333C10.0572 11.1667 9.83334 10.9428 9.83334 10.6667Z" fill="black"/>
</svg>
