<svg width="16" height="16" viewBox="0 0 16 16" fill="none" xmlns="http://www.w3.org/2000/svg">
<path opacity="0.4" d="M12.946 10.4402C14.1266 9.08271 15.1667 7.43537 15.1667 5.79627C15.1666 3.63472 13.5656 1.83337 11.3334 1.83337C10.2722 1.83337 9.24417 2.17516 8.00004 3.30993C6.75591 2.17516 5.72793 1.83337 4.66671 1.83337C2.43441 1.83337 0.833407 3.63472 0.833374 5.79627C0.833374 7.43537 1.87344 9.08271 3.05407 10.4402C4.25307 11.8186 5.68611 12.998 6.64131 13.7123L6.79624 13.819C7.58751 14.3161 8.59904 14.2803 9.35877 13.7123L9.73831 13.4232C10.6688 12.7 11.8969 11.6463 12.946 10.4402Z" fill="black"/>
</svg>
