<svg width="28" height="28" viewBox="0 0 28 28" fill="none" xmlns="http://www.w3.org/2000/svg">
<path opacity="0.4" d="M12.1459 23.2957C8.85436 20.8344 2.33337 15.2073 2.33337 10.1436C2.33337 6.79661 4.78951 4.08337 8.16671 4.08337C9.91671 4.08337 11.6667 4.66671 14 7.00004C16.3334 4.66671 18.0834 4.08337 19.8334 4.08337C23.2105 4.08337 25.6667 6.79661 25.6667 10.1436C25.6667 15.2073 19.1457 20.8344 15.8542 23.2957C14.7466 24.1239 13.2535 24.1239 12.1459 23.2957Z" fill="black"/>
<path d="M12.1459 23.2957C8.85436 20.8344 2.33337 15.2073 2.33337 10.1436C2.33337 6.79661 4.78951 4.08337 8.16671 4.08337C9.91671 4.08337 11.6667 4.66671 14 7.00004C16.3334 4.66671 18.0834 4.08337 19.8334 4.08337C23.2105 4.08337 25.6667 6.79661 25.6667 10.1436C25.6667 15.2073 19.1457 20.8344 15.8542 23.2957C14.7466 24.1239 13.2535 24.1239 12.1459 23.2957Z" stroke="black" stroke-width="1.75" stroke-linecap="round" stroke-linejoin="round"/>
</svg>
