<svg width="20" height="20" viewBox="0 0 20 20" fill="none" xmlns="http://www.w3.org/2000/svg">
<path d="M16.1824 13.0501C17.6582 11.3533 18.9583 9.29413 18.9583 7.24524C18.9582 4.54331 16.957 2.29163 14.1666 2.29163C12.8401 2.29163 11.5551 2.71886 9.99996 4.13733C8.44479 2.71886 7.15983 2.29163 5.83329 2.29163C3.04293 2.29163 1.04167 4.54331 1.04163 7.24524C1.04163 9.29413 2.34171 11.3533 3.8175 13.0501C5.31624 14.7732 7.10754 16.2474 8.30155 17.1403L8.49521 17.2737C9.48429 17.895 10.7487 17.8503 11.6984 17.1403L12.1728 16.779C13.336 15.875 14.871 14.5578 16.1824 13.0501Z" fill="black"/>
</svg>
