<svg width="32" height="32" viewBox="0 0 32 32" fill="none" xmlns="http://www.w3.org/2000/svg">
<path opacity="0.4" d="M13.8809 26.6236C10.1192 23.8106 2.66663 17.3797 2.66663 11.5925C2.66663 7.76747 5.47364 4.66663 9.33329 4.66663C11.3333 4.66663 13.3333 5.33329 16 7.99996C18.6666 5.33329 20.6666 4.66663 22.6666 4.66663C26.5262 4.66663 29.3333 7.76747 29.3333 11.5925C29.3333 17.3797 21.8808 23.8106 18.119 26.6236C16.8532 27.5701 15.1468 27.5701 13.8809 26.6236Z" fill="black"/>
<path d="M13.8809 26.6236C10.1192 23.8106 2.66663 17.3797 2.66663 11.5925C2.66663 7.76747 5.47364 4.66663 9.33329 4.66663C11.3333 4.66663 13.3333 5.33329 16 7.99996C18.6666 5.33329 20.6666 4.66663 22.6666 4.66663C26.5262 4.66663 29.3333 7.76747 29.3333 11.5925C29.3333 17.3797 21.8808 23.8106 18.119 26.6236C16.8532 27.5701 15.1468 27.5701 13.8809 26.6236Z" stroke="black" stroke-width="2" stroke-linecap="round" stroke-linejoin="round"/>
</svg>
