<svg width="20" height="20" viewBox="0 0 20 20" fill="none" xmlns="http://www.w3.org/2000/svg">
<path opacity="0.4" d="M8.67554 16.6397C6.32448 14.8816 1.66663 10.8623 1.66663 7.24533C1.66663 4.85465 3.42101 2.91663 5.83329 2.91663C7.08329 2.91663 8.33329 3.33329 9.99996 4.99996C11.6666 3.33329 12.9166 2.91663 14.1666 2.91663C16.5789 2.91663 18.3333 4.85465 18.3333 7.24533C18.3333 10.8623 13.6755 14.8816 11.3244 16.6397C10.5332 17.2313 9.46671 17.2313 8.67554 16.6397Z" stroke="black" stroke-width="1.25" stroke-linecap="round" stroke-linejoin="round"/>
<path d="M9.99996 4.99996C8.33329 3.33329 7.08329 2.91663 5.83329 2.91663C3.42101 2.91663 1.66663 4.85465 1.66663 7.24533C1.66663 10.8623 6.32448 14.8816 8.67554 16.6397C9.07113 16.9355 9.53554 17.0834 9.99996 17.0834" stroke="black" stroke-width="1.25" stroke-linecap="round" stroke-linejoin="round"/>
</svg>
