<svg width="16" height="16" viewBox="0 0 16 16" fill="none" xmlns="http://www.w3.org/2000/svg">
<path opacity="0.4" d="M6.94051 13.3118C5.05965 11.9054 1.33337 8.68991 1.33337 5.79633C1.33337 3.88379 2.73688 2.33337 4.66671 2.33337C5.66671 2.33337 6.66671 2.66671 8.00004 4.00004C9.33337 2.66671 10.3334 2.33337 11.3334 2.33337C13.2632 2.33337 14.6667 3.88379 14.6667 5.79633C14.6667 8.68991 10.9404 11.9054 9.05957 13.3118C8.42664 13.7851 7.57344 13.7851 6.94051 13.3118Z" fill="black"/>
<path d="M6.94051 13.3118C5.05965 11.9054 1.33337 8.68991 1.33337 5.79633C1.33337 3.88379 2.73688 2.33337 4.66671 2.33337C5.66671 2.33337 6.66671 2.66671 8.00004 4.00004C9.33337 2.66671 10.3334 2.33337 11.3334 2.33337C13.2632 2.33337 14.6667 3.88379 14.6667 5.79633C14.6667 8.68991 10.9404 11.9054 9.05957 13.3118C8.42664 13.7851 7.57344 13.7851 6.94051 13.3118Z" stroke="black" stroke-linecap="round" stroke-linejoin="round"/>
</svg>
