<svg width="28" height="28" viewBox="0 0 28 28" fill="none" xmlns="http://www.w3.org/2000/svg">
<path d="M22.6554 18.2703C24.7216 15.8947 26.5417 13.0119 26.5417 10.1434C26.5416 6.36073 23.7398 3.20837 19.8334 3.20837C17.9763 3.20837 16.1773 3.8065 14 5.79235C11.8228 3.8065 10.0239 3.20837 8.16671 3.20837C4.26019 3.20837 1.45843 6.36073 1.45837 10.1434C1.45837 13.0119 3.27849 15.8947 5.3446 18.2703C7.44284 20.6826 9.95066 22.7464 11.6223 23.9965L11.8934 24.1833C13.2781 25.0532 15.0483 24.9905 16.3778 23.9965L17.042 23.4906C18.6704 22.225 20.8196 20.381 22.6554 18.2703Z" fill="black"/>
</svg>
