<svg width="32" height="32" viewBox="0 0 32 32" fill="none" xmlns="http://www.w3.org/2000/svg">
<path d="M25.8918 20.8802C28.2532 18.1653 30.3333 14.8706 30.3333 11.5924C30.3332 7.26932 27.1312 3.66663 22.6666 3.66663C20.5442 3.66663 18.4882 4.3502 16 6.61975C13.5117 4.3502 11.4557 3.66663 9.33329 3.66663C4.86871 3.66663 1.66669 7.26932 1.66663 11.5924C1.66663 14.8706 3.74676 18.1653 6.10803 20.8802C8.50601 23.6372 11.3721 25.9958 13.2825 27.4245L13.5924 27.638C15.1749 28.6321 17.198 28.5605 18.7174 27.4245L19.4765 26.8464C21.3376 25.4 23.7937 23.2925 25.8918 20.8802Z" fill="black"/>
</svg>
