<svg width="28" height="28" viewBox="0 0 28 28" fill="none" xmlns="http://www.w3.org/2000/svg">
<path fill-rule="evenodd" clip-rule="evenodd" d="M16.3334 17.5C16.3334 20.7216 13.7217 23.3333 10.5001 23.3333C7.27845 23.3333 4.66675 20.7216 4.66675 17.5C4.66675 14.2783 7.27845 11.6666 10.5001 11.6666C13.7217 11.6666 16.3334 14.2783 16.3334 17.5ZM10.5001 25.6666C15.0104 25.6666 18.6667 22.0103 18.6667 17.5C18.6667 15.6656 18.0619 13.9724 17.0409 12.6091L23.3085 6.34149C23.3323 6.80746 23.3334 7.39383 23.3334 8.16663V10.5C23.3334 11.1443 23.8557 11.6666 24.5001 11.6666C25.1444 11.6666 25.6667 11.1443 25.6667 10.5V8.16663V8.08986C25.6668 7.05561 25.6669 6.16451 25.5709 5.45086C25.4681 4.68611 25.2362 3.95298 24.6416 3.35844C24.047 2.76379 23.3139 2.53198 22.5492 2.42908C21.8356 2.33318 20.9444 2.33318 19.9102 2.33329H17.5001C16.8557 2.33329 16.3334 2.85561 16.3334 3.49996C16.3334 4.14431 16.8557 4.66663 17.5001 4.66663H19.8334C20.6062 4.66663 21.1926 4.66779 21.6586 4.69159L15.391 10.9592C14.0276 9.93809 12.3344 9.33329 10.5001 9.33329C5.98975 9.33329 2.33341 12.9896 2.33341 17.5C2.33341 22.0103 5.98975 25.6666 10.5001 25.6666Z" fill="black"/>
</svg>
