<svg width="24" height="24" viewBox="0 0 24 24" fill="none" xmlns="http://www.w3.org/2000/svg">
<path opacity="0.4" fill-rule="evenodd" clip-rule="evenodd" d="M12.7929 11.2071C12.4024 10.8166 12.4024 10.1834 12.7929 9.79293L18.5644 4.02143C18.165 4.00103 17.6624 4.00003 17 4.00003H15C14.4477 4.00003 14 3.55232 14 3.00002C14 2.44773 14.4477 2.00002 15 2.00002H17.0658C17.9523 1.99992 18.7161 1.99992 19.3278 2.08212C19.9833 2.17032 20.6116 2.36903 21.1213 2.87873C21.631 3.38832 21.8297 4.01672 21.9178 4.67222C22.0001 5.28392 22 6.04773 22 6.93423C22 6.95603 22 6.97803 22 7.00003V9.00003C22 9.55233 21.5523 10 21 10C20.4477 10 20 9.55233 20 9.00003V7.00003C20 6.33763 19.999 5.83503 19.9786 5.43563L14.2071 11.2071C13.8166 11.5976 13.1834 11.5976 12.7929 11.2071Z" fill="black"/>
<path fill-rule="evenodd" clip-rule="evenodd" d="M9 20C11.7614 20 14 17.7614 14 15C14 12.2386 11.7614 10 9 10C6.2386 10 4 12.2386 4 15C4 17.7614 6.2386 20 9 20ZM16 15C16 18.866 12.866 22 9 22C5.134 22 2 18.866 2 15C2 11.134 5.134 8 9 8C12.866 8 16 11.134 16 15Z" fill="black"/>
</svg>
