<svg width="28" height="28" viewBox="0 0 28 28" fill="none" xmlns="http://www.w3.org/2000/svg">
<path opacity="0.4" fill-rule="evenodd" clip-rule="evenodd" d="M14.9251 13.0749C14.4695 12.6194 14.4695 11.8806 14.9251 11.425L21.6586 4.69162C21.1926 4.66782 20.6062 4.66666 19.8334 4.66666H17.5001C16.8557 4.66666 16.3334 4.14434 16.3334 3.49999C16.3334 2.85564 16.8557 2.33332 17.5001 2.33332H19.9102C20.9444 2.33321 21.8356 2.33321 22.5492 2.4291C23.3139 2.53201 24.047 2.76382 24.6416 3.35847C25.2362 3.95301 25.4681 4.68614 25.5709 5.45089C25.6669 6.16454 25.6668 7.05564 25.6667 8.08989C25.6667 8.11532 25.6667 8.14099 25.6667 8.16666V10.5C25.6667 11.1443 25.1444 11.6667 24.5001 11.6667C23.8557 11.6667 23.3334 11.1443 23.3334 10.5V8.16666C23.3334 7.39386 23.3323 6.80749 23.3085 6.34152L16.575 13.0749C16.1194 13.5305 15.3807 13.5305 14.9251 13.0749Z" fill="black"/>
<path fill-rule="evenodd" clip-rule="evenodd" d="M10.5001 23.3333C13.7217 23.3333 16.3334 20.7216 16.3334 17.5C16.3334 14.2783 13.7217 11.6666 10.5001 11.6666C7.27845 11.6666 4.66675 14.2783 4.66675 17.5C4.66675 20.7216 7.27845 23.3333 10.5001 23.3333ZM18.6667 17.5C18.6667 22.0103 15.0104 25.6666 10.5001 25.6666C5.98975 25.6666 2.33341 22.0103 2.33341 17.5C2.33341 12.9896 5.98975 9.33329 10.5001 9.33329C15.0104 9.33329 18.6667 12.9896 18.6667 17.5Z" fill="black"/>
</svg>
