<svg width="16" height="16" viewBox="0 0 16 16" fill="none" xmlns="http://www.w3.org/2000/svg">
<path opacity="0.4" fill-rule="evenodd" clip-rule="evenodd" d="M8.52868 7.47138C8.26835 7.21104 8.26835 6.78891 8.52868 6.52858L12.3764 2.68091C12.1101 2.66731 11.775 2.66664 11.3334 2.66664H10.0001C9.63189 2.66664 9.33341 2.36818 9.33341 1.99998C9.33341 1.63178 9.63189 1.33331 10.0001 1.33331H11.3773C11.9683 1.33324 12.4775 1.33324 12.8853 1.38804C13.3223 1.44684 13.7412 1.57931 14.081 1.91911C14.4207 2.25884 14.5532 2.67778 14.612 3.11478C14.6668 3.52258 14.6668 4.03178 14.6667 4.62278C14.6667 4.63731 14.6667 4.65198 14.6667 4.66664V5.99998C14.6667 6.36818 14.3683 6.66664 14.0001 6.66664C13.6319 6.66664 13.3334 6.36818 13.3334 5.99998V4.66664C13.3334 4.22504 13.3328 3.88998 13.3192 3.62371L9.47148 7.47138C9.21115 7.73171 8.78901 7.73171 8.52868 7.47138Z" fill="black"/>
<path fill-rule="evenodd" clip-rule="evenodd" d="M6.00008 13.3333C7.84101 13.3333 9.33341 11.8409 9.33341 9.99996C9.33341 8.15903 7.84101 6.66663 6.00008 6.66663C4.15915 6.66663 2.66675 8.15903 2.66675 9.99996C2.66675 11.8409 4.15915 13.3333 6.00008 13.3333ZM10.6667 9.99996C10.6667 12.5773 8.57741 14.6666 6.00008 14.6666C3.42275 14.6666 1.33342 12.5773 1.33342 9.99996C1.33342 7.42263 3.42275 5.33329 6.00008 5.33329C8.57741 5.33329 10.6667 7.42263 10.6667 9.99996Z" fill="black"/>
</svg>
