<svg width="20" height="20" viewBox="0 0 20 20" fill="none" xmlns="http://www.w3.org/2000/svg">
<path fill-rule="evenodd" clip-rule="evenodd" d="M11.6666 12.5C11.6666 14.8012 9.80108 16.6667 7.49992 16.6667C5.19875 16.6667 3.33325 14.8012 3.33325 12.5C3.33325 10.1989 5.19875 8.33337 7.49992 8.33337C9.80108 8.33337 11.6666 10.1989 11.6666 12.5ZM7.49992 18.3334C10.7216 18.3334 13.3333 15.7217 13.3333 12.5C13.3333 11.1898 12.9013 9.98037 12.1719 9.00654L16.6488 4.52971C16.6658 4.86254 16.6666 5.28137 16.6666 5.83337V7.50004C16.6666 7.96029 17.0397 8.33337 17.4999 8.33337C17.9601 8.33337 18.3332 7.96029 18.3332 7.50004V5.83337V5.77854C18.3333 5.03979 18.3333 4.40329 18.2648 3.89354C18.1913 3.34729 18.0257 2.82362 17.601 2.39896C17.1763 1.97421 16.6527 1.80862 16.1064 1.73512C15.5967 1.66662 14.9602 1.66662 14.2214 1.66671H12.4999C12.0397 1.66671 11.6666 2.03979 11.6666 2.50004C11.6666 2.96029 12.0397 3.33337 12.4999 3.33337H14.1666C14.7186 3.33337 15.1374 3.33421 15.4703 3.35121L10.9934 7.82804C10.0196 7.09871 8.81017 6.66671 7.49992 6.66671C4.27825 6.66671 1.66658 9.27837 1.66658 12.5C1.66658 15.7217 4.27825 18.3334 7.49992 18.3334Z" fill="black"/>
</svg>
