<svg width="32" height="32" viewBox="0 0 32 32" fill="none" xmlns="http://www.w3.org/2000/svg">
<path opacity="0.4" d="M4 20C4 15.5817 7.58173 12 12 12C16.4183 12 20 15.5817 20 20C20 24.4183 16.4183 28 12 28C7.58173 28 4 24.4183 4 20Z" fill="black"/>
<path d="M4 20C4 15.5817 7.58173 12 12 12C16.4183 12 20 15.5817 20 20C20 24.4183 16.4183 28 12 28C7.58173 28 4 24.4183 4 20Z" stroke="black" stroke-width="2" stroke-linecap="round" stroke-linejoin="round"/>
<path d="M28 12V9.33333C28 6.8192 28 5.56213 27.2189 4.78107C26.4379 4 25.1808 4 22.6667 4H20M26.6667 5.33333L18 14" stroke="black" stroke-width="2" stroke-linecap="round" stroke-linejoin="round"/>
</svg>
