<svg width="16" height="16" viewBox="0 0 16 16" fill="none" xmlns="http://www.w3.org/2000/svg">
<path fill-rule="evenodd" clip-rule="evenodd" d="M9.33341 9.99996C9.33341 11.8409 7.84101 13.3333 6.00008 13.3333C4.15915 13.3333 2.66675 11.8409 2.66675 9.99996C2.66675 8.15903 4.15915 6.66663 6.00008 6.66663C7.84101 6.66663 9.33341 8.15903 9.33341 9.99996ZM6.00008 14.6666C8.57741 14.6666 10.6667 12.5773 10.6667 9.99996C10.6667 8.95176 10.3211 7.98423 9.73767 7.20516L13.3192 3.62369C13.3328 3.88996 13.3334 4.22503 13.3334 4.66663V5.99996C13.3334 6.36816 13.6319 6.66663 14.0001 6.66663C14.3683 6.66663 14.6667 6.36816 14.6667 5.99996V4.66663V4.62276C14.6668 4.03176 14.6668 3.52256 14.612 3.11476C14.5532 2.67776 14.4207 2.25883 14.081 1.91909C13.7412 1.57929 13.3223 1.44683 12.8853 1.38803C12.4775 1.33323 11.9683 1.33323 11.3773 1.33329H10.0001C9.63189 1.33329 9.33341 1.63176 9.33341 1.99996C9.33341 2.36816 9.63189 2.66663 10.0001 2.66663H11.3334C11.775 2.66663 12.1101 2.66729 12.3764 2.68089L8.79488 6.26236C8.01581 5.67889 7.04828 5.33329 6.00008 5.33329C3.42275 5.33329 1.33341 7.42263 1.33341 9.99996C1.33341 12.5773 3.42275 14.6666 6.00008 14.6666Z" fill="black"/>
</svg>
