<svg width="20" height="20" viewBox="0 0 20 20" fill="none" xmlns="http://www.w3.org/2000/svg">
<path opacity="0.4" d="M2.5 12.5C2.5 9.73858 4.73858 7.5 7.5 7.5C10.2614 7.5 12.5 9.73858 12.5 12.5C12.5 15.2614 10.2614 17.5 7.5 17.5C4.73858 17.5 2.5 15.2614 2.5 12.5Z" fill="black"/>
<path d="M2.5 12.5C2.5 9.73858 4.73858 7.5 7.5 7.5C10.2614 7.5 12.5 9.73858 12.5 12.5C12.5 15.2614 10.2614 17.5 7.5 17.5C4.73858 17.5 2.5 15.2614 2.5 12.5Z" stroke="black" stroke-width="1.25" stroke-linecap="round" stroke-linejoin="round"/>
<path d="M17.5 7.5V5.83333C17.5 4.262 17.5 3.47633 17.0118 2.98817C16.5237 2.5 15.738 2.5 14.1667 2.5H12.5M16.6667 3.33333L11.25 8.75" stroke="black" stroke-width="1.25" stroke-linecap="round" stroke-linejoin="round"/>
</svg>
