<svg width="24" height="24" viewBox="0 0 24 24" fill="none" xmlns="http://www.w3.org/2000/svg">
<path opacity="0.4" d="M3 15C3 11.6863 5.6863 9 9 9C12.3137 9 15 11.6863 15 15C15 18.3137 12.3137 21 9 21C5.6863 21 3 18.3137 3 15Z" fill="black"/>
<path d="M3 15C3 11.6863 5.6863 9 9 9C12.3137 9 15 11.6863 15 15C15 18.3137 12.3137 21 9 21C5.6863 21 3 18.3137 3 15Z" stroke="black" stroke-width="1.5" stroke-linecap="round" stroke-linejoin="round"/>
<path d="M21 9V7C21 5.1144 21 4.1716 20.4142 3.5858C19.8284 3 18.8856 3 17 3H15M20 4L13.5 10.5" stroke="black" stroke-width="1.5" stroke-linecap="round" stroke-linejoin="round"/>
</svg>
