<svg width="32" height="32" viewBox="0 0 32 32" fill="none" xmlns="http://www.w3.org/2000/svg">
<path opacity="0.4" fill-rule="evenodd" clip-rule="evenodd" d="M17.0571 14.9428C16.5364 14.4221 16.5364 13.5778 17.0571 13.0572L24.7525 5.36182C24.2199 5.33462 23.5498 5.33329 22.6666 5.33329H19.9999C19.2635 5.33329 18.6666 4.73635 18.6666 3.99995C18.6666 3.26355 19.2635 2.66662 19.9999 2.66662H22.7544C23.9363 2.66649 24.9548 2.66649 25.7703 2.77609C26.6443 2.89369 27.4821 3.15862 28.1617 3.83822C28.8412 4.51769 29.1062 5.35555 29.2237 6.22955C29.3334 7.04515 29.3333 8.06355 29.3332 9.24555C29.3332 9.27462 29.3332 9.30395 29.3332 9.33329V12C29.3332 12.7364 28.7363 13.3333 27.9999 13.3333C27.2635 13.3333 26.6666 12.7364 26.6666 12V9.33329C26.6666 8.45009 26.6653 7.77995 26.6381 7.24742L18.9427 14.9428C18.422 15.4634 17.5778 15.4634 17.0571 14.9428Z" fill="black"/>
<path fill-rule="evenodd" clip-rule="evenodd" d="M11.9999 26.6667C15.6818 26.6667 18.6666 23.6819 18.6666 20C18.6666 16.3182 15.6818 13.3334 11.9999 13.3334C8.31805 13.3334 5.33325 16.3182 5.33325 20C5.33325 23.6819 8.31805 26.6667 11.9999 26.6667ZM21.3333 20C21.3333 25.1547 17.1546 29.3334 11.9999 29.3334C6.84525 29.3334 2.66659 25.1547 2.66659 20C2.66659 14.8454 6.84525 10.6667 11.9999 10.6667C17.1546 10.6667 21.3333 14.8454 21.3333 20Z" fill="black"/>
</svg>
