<svg width="24" height="24" viewBox="0 0 24 24" fill="none" xmlns="http://www.w3.org/2000/svg">
<path fill-rule="evenodd" clip-rule="evenodd" d="M14 15C14 17.7614 11.7614 20 9 20C6.2386 20 4 17.7614 4 15C4 12.2386 6.2386 10 9 10C11.7614 10 14 12.2386 14 15ZM9 22C12.866 22 16 18.866 16 15C16 13.4277 15.4816 11.9764 14.6064 10.8078L19.9786 5.4356C19.999 5.835 20 6.3376 20 7V9C20 9.5523 20.4477 10 21 10C21.5523 10 22 9.5523 22 9V7V6.9342C22 6.0477 22.0001 5.2839 21.9178 4.6722C21.8297 4.0167 21.631 3.3883 21.1213 2.8787C20.6116 2.369 19.9833 2.1703 19.3278 2.0821C18.7161 1.9999 17.9523 1.9999 17.0658 2H15C14.4477 2 14 2.4477 14 3C14 3.5523 14.4477 4 15 4H17C17.6624 4 18.165 4.001 18.5644 4.0214L13.1922 9.3936C12.0236 8.5184 10.5723 8 9 8C5.134 8 2 11.134 2 15C2 18.866 5.134 22 9 22Z" fill="black"/>
</svg>
