<svg width="20" height="20" viewBox="0 0 20 20" fill="none" xmlns="http://www.w3.org/2000/svg">
<path opacity="0.4" fill-rule="evenodd" clip-rule="evenodd" d="M10.6607 9.33931C10.3352 9.01389 10.3352 8.48623 10.6607 8.16081L15.4703 3.35123C15.1374 3.33423 14.7186 3.3334 14.1666 3.3334H12.4999C12.0397 3.3334 11.6666 2.96031 11.6666 2.50006C11.6666 2.03981 12.0397 1.66673 12.4999 1.66673H14.2214C14.9602 1.66664 15.5967 1.66664 16.1064 1.73514C16.6527 1.80864 17.1763 1.97423 17.601 2.39898C18.0257 2.82364 18.1913 3.34731 18.2648 3.89356C18.3333 4.40331 18.3333 5.03981 18.3332 5.77856C18.3332 5.79673 18.3332 5.81506 18.3332 5.8334V7.50006C18.3332 7.96031 17.9601 8.33339 17.4999 8.33339C17.0397 8.33339 16.6666 7.96031 16.6666 7.50006V5.8334C16.6666 5.28139 16.6658 4.86256 16.6488 4.52973L11.8392 9.33931C11.5138 9.66473 10.9861 9.66473 10.6607 9.33931Z" fill="black"/>
<path fill-rule="evenodd" clip-rule="evenodd" d="M7.49992 16.6667C9.80108 16.6667 11.6666 14.8012 11.6666 12.5C11.6666 10.1989 9.80108 8.33337 7.49992 8.33337C5.19875 8.33337 3.33325 10.1989 3.33325 12.5C3.33325 14.8012 5.19875 16.6667 7.49992 16.6667ZM13.3333 12.5C13.3333 15.7217 10.7216 18.3334 7.49992 18.3334C4.27825 18.3334 1.66658 15.7217 1.66658 12.5C1.66658 9.27837 4.27825 6.66671 7.49992 6.66671C10.7216 6.66671 13.3333 9.27837 13.3333 12.5Z" fill="black"/>
</svg>
