<svg width="32" height="32" viewBox="0 0 32 32" fill="none" xmlns="http://www.w3.org/2000/svg">
<path fill-rule="evenodd" clip-rule="evenodd" d="M18.6666 20C18.6666 23.6819 15.6818 26.6667 11.9999 26.6667C8.31805 26.6667 5.33325 23.6819 5.33325 20C5.33325 16.3182 8.31805 13.3334 11.9999 13.3334C15.6818 13.3334 18.6666 16.3182 18.6666 20ZM11.9999 29.3334C17.1546 29.3334 21.3332 25.1547 21.3332 20C21.3332 17.9036 20.642 15.9686 19.4751 14.4104L26.6381 7.24751C26.6653 7.78004 26.6666 8.45017 26.6666 9.33338V12C26.6666 12.7364 27.2635 13.3334 27.9999 13.3334C28.7363 13.3334 29.3332 12.7364 29.3332 12V9.33338V9.24564C29.3333 8.06364 29.3334 7.04524 29.2237 6.22964C29.1062 5.35564 28.8412 4.51778 28.1617 3.83831C27.4821 3.15871 26.6443 2.89378 25.7703 2.77617C24.9548 2.66658 23.9363 2.66658 22.7544 2.66671H19.9999C19.2635 2.66671 18.6666 3.26364 18.6666 4.00004C18.6666 4.73644 19.2635 5.33338 19.9999 5.33338H22.6666C23.5498 5.33338 24.2199 5.33471 24.7525 5.36191L17.5895 12.5248C16.0314 11.3579 14.0963 10.6667 11.9999 10.6667C6.84525 10.6667 2.66658 14.8454 2.66658 20C2.66658 25.1547 6.84525 29.3334 11.9999 29.3334Z" fill="black"/>
</svg>
