<svg width="28" height="28" viewBox="0 0 28 28" fill="none" xmlns="http://www.w3.org/2000/svg">
<path opacity="0.4" d="M3.5 17.5C3.5 13.634 6.63402 10.5 10.5 10.5C14.366 10.5 17.5 13.634 17.5 17.5C17.5 21.366 14.366 24.5 10.5 24.5C6.63402 24.5 3.5 21.366 3.5 17.5Z" fill="black"/>
<path d="M3.5 17.5C3.5 13.634 6.63402 10.5 10.5 10.5C14.366 10.5 17.5 13.634 17.5 17.5C17.5 21.366 14.366 24.5 10.5 24.5C6.63402 24.5 3.5 21.366 3.5 17.5Z" stroke="black" stroke-width="1.75" stroke-linecap="round" stroke-linejoin="round"/>
<path d="M24.5 10.5V8.16667C24.5 5.9668 24.5 4.86687 23.8166 4.18343C23.1332 3.5 22.0332 3.5 19.8333 3.5H17.5M23.3333 4.66667L15.75 12.25" stroke="black" stroke-width="1.75" stroke-linecap="round" stroke-linejoin="round"/>
</svg>
