<svg preserveAspectRatio="none" width="100%" height="100%" overflow="visible" style="display: block;" viewBox="0 0 24 24" fill="none" xmlns="http://www.w3.org/2000/svg">
<g id="icon">
<path id="Vector" d="M11.1034 6.10343C11.2165 6.22905 11.3548 6.32948 11.5093 6.39823C11.6637 6.46698 11.8309 6.5025 12 6.5025C12.1691 6.5025 12.3363 6.46698 12.4907 6.39823C12.6452 6.32948 12.7835 6.22905 12.8966 6.10343L13.48 5.46333C13.6472 5.2783 13.8676 5.14954 14.1108 5.09473C14.3541 5.03992 14.6084 5.06174 14.8388 5.15721C15.0692 5.25267 15.2644 5.4171 15.3976 5.62792C15.5308 5.83874 15.5955 6.08562 15.5828 6.33468L15.539 7.19802C15.5306 7.36643 15.5575 7.53475 15.618 7.69214C15.6786 7.84953 15.7714 7.99249 15.8906 8.11181C16.0097 8.23114 16.1525 8.32418 16.3098 8.38495C16.4671 8.44572 16.6354 8.47287 16.8038 8.46465L17.6672 8.42087C17.9161 8.4086 18.1627 8.4736 18.3732 8.60697C18.5837 8.74034 18.7478 8.93555 18.843 9.16584C18.9383 9.39613 18.9599 9.65024 18.9051 9.89333C18.8502 10.1364 18.7215 10.3566 18.5367 10.5237L17.8941 11.1034C17.7686 11.2167 17.6684 11.3551 17.5997 11.5096C17.5311 11.6641 17.4956 11.8312 17.4956 12.0003C17.4956 12.1694 17.5311 12.3366 17.5997 12.491C17.6684 12.6455 17.7686 12.7839 17.8941 12.8972L18.5367 13.4769C18.7217 13.6441 18.8505 13.8645 18.9053 14.1078C18.9601 14.351 18.9383 14.6053 18.8428 14.8357C18.7473 15.0661 18.5829 15.2613 18.3721 15.3945C18.1613 15.5277 17.9144 15.5924 17.6653 15.5798L16.802 15.536C16.6332 15.5273 16.4645 15.5541 16.3067 15.6148C16.1489 15.6754 16.0057 15.7685 15.8862 15.888C15.7667 16.0075 15.6736 16.1508 15.6129 16.3086C15.5523 16.4663 15.5254 16.635 15.5341 16.8038L15.5779 17.6672C15.5889 17.915 15.5234 18.1602 15.3903 18.3695C15.2571 18.5787 15.0627 18.742 14.8336 18.8369C14.6044 18.9319 14.3516 18.954 14.1094 18.9003C13.8673 18.8466 13.6475 18.7196 13.48 18.5367L12.8997 17.8947C12.7865 17.7693 12.6481 17.669 12.4937 17.6004C12.3392 17.5317 12.1721 17.4963 12.0031 17.4963C11.8341 17.4963 11.6669 17.5317 11.5125 17.6004C11.358 17.669 11.2197 17.7693 11.1065 17.8947L10.5237 18.5367C10.3565 18.7205 10.1366 18.8483 9.89411 18.9026C9.65161 18.9569 9.39826 18.9351 9.1686 18.8401C8.93894 18.7452 8.74415 18.5817 8.61078 18.3721C8.47741 18.1624 8.41195 17.9166 8.42333 17.6684L8.46773 16.8051C8.47642 16.6363 8.44957 16.4675 8.38892 16.3098C8.32828 16.152 8.23519 16.0088 8.11568 15.8893C7.99617 15.7697 7.8529 15.6767 7.69514 15.616C7.53739 15.5554 7.36866 15.5285 7.19987 15.5372L6.33653 15.581C6.08758 15.594 5.8407 15.5296 5.6298 15.3967C5.41889 15.2637 5.2543 15.0688 5.15863 14.8386C5.06295 14.6084 5.04088 14.3542 5.09543 14.111C5.14999 13.8677 5.2785 13.6473 5.46333 13.48L6.10528 12.9003C6.23074 12.787 6.33103 12.6486 6.39967 12.4941C6.46832 12.3396 6.50378 12.1725 6.50378 12.0034C6.50378 11.8343 6.46832 11.6671 6.39967 11.5127C6.33103 11.3582 6.23074 11.2198 6.10528 11.1065L5.46333 10.5237C5.2791 10.3566 5.15098 10.1366 5.09648 9.89396C5.04198 9.65127 5.06376 9.39767 5.15884 9.16783C5.25392 8.93799 5.41766 8.74312 5.62769 8.60986C5.83771 8.4766 6.08377 8.41146 6.33222 8.42333L7.19555 8.46712C7.36466 8.47601 7.53374 8.44923 7.69183 8.38852C7.84991 8.3278 7.99346 8.23452 8.11314 8.11472C8.23283 7.99492 8.32597 7.85128 8.38653 7.69314C8.44709 7.535 8.47371 7.36588 8.46465 7.19678L8.42333 6.33283C8.41168 6.08448 8.47694 5.83858 8.61021 5.62869C8.74348 5.41879 8.93826 5.25513 9.16798 5.16003C9.3977 5.06494 9.65117 5.04303 9.8938 5.09731C10.1364 5.15159 10.3564 5.27941 10.5237 5.46333L11.1034 6.10343Z" stroke="var(--stroke-0, #6B7388)" stroke-width="1.2" stroke-linecap="round" stroke-linejoin="round"/>
<path id="Vector_2" d="M9.225 12.0006C9.225 12.365 9.29678 12.7259 9.43623 13.0626C9.57569 13.3992 9.7801 13.7052 10.0378 13.9628C10.2955 14.2205 10.6014 14.4249 10.9381 14.5644C11.2747 14.7038 11.6356 14.7756 12 14.7756C12.3644 14.7756 12.7253 14.7038 13.0619 14.5644C13.3986 14.4249 13.7045 14.2205 13.9622 13.9628C14.2199 13.7052 14.4243 13.3992 14.5638 13.0626C14.7032 12.7259 14.775 12.365 14.775 12.0006C14.775 11.2646 14.4826 10.5588 13.9622 10.0384C13.4418 9.51798 12.736 9.22562 12 9.22562C11.264 9.22562 10.5582 9.51798 10.0378 10.0384C9.51737 10.5588 9.225 11.2646 9.225 12.0006Z" stroke="var(--stroke-0, #6B7388)" stroke-width="1.2" stroke-linecap="round" stroke-linejoin="round"/>
</g>
</svg>
