<svg preserveAspectRatio="none" width="100%" height="100%" overflow="visible" style="display: block;" viewBox="0 0 16 16" fill="none" xmlns="http://www.w3.org/2000/svg">
<g id="icon">
<path id="Vector" d="M2.00033 3.66634H14.0003C14.1843 3.66652 14.3333 3.81634 14.3333 4.00033C14.3332 4.18416 14.1842 4.33316 14.0003 4.33333H2.00033C1.81634 4.33333 1.66652 4.18427 1.66634 4.00033C1.66634 3.81623 1.81623 3.66634 2.00033 3.66634Z" fill="var(--fill-0, black)" stroke="var(--stroke-0, #475066)" stroke-width="0.666667"/>
<path id="Vector_2" d="M4.00033 7.66634H12.0003C12.1843 7.66652 12.3333 7.81633 12.3333 8.00033C12.3332 8.18417 12.1842 8.33316 12.0003 8.33333H4.00033C3.81634 8.33333 3.66652 8.18428 3.66634 8.00033C3.66634 7.81622 3.81623 7.66634 4.00033 7.66634Z" fill="var(--fill-0, black)" stroke="var(--stroke-0, #475066)" stroke-width="0.666667"/>
<path id="Vector_3" d="M10 11.3333C10.3682 11.3333 10.6667 11.6318 10.6667 12C10.6667 12.3682 10.3682 12.6667 10 12.6667H6C5.63181 12.6667 5.33333 12.3682 5.33333 12C5.33333 11.6318 5.63181 11.3333 6 11.3333H10Z" fill="var(--fill-0, black)"/>
</g>
</svg>
