<svg preserveAspectRatio="none" width="100%" height="100%" overflow="visible" style="display: block;" viewBox="0 0 16 16" fill="none" xmlns="http://www.w3.org/2000/svg">
<g id="icon">
<path id="Vector" d="M8.53979 4.00203C8.48647 3.90554 8.40828 3.82511 8.31335 3.7691C8.21842 3.71308 8.11022 3.68354 8 3.68354C7.88974 3.68354 7.78154 3.71308 7.68661 3.7691C7.59169 3.82511 7.51349 3.90554 7.46021 4.00203L3.45187 11.402C3.40003 11.4959 3.37358 11.6017 3.37511 11.7089C3.37665 11.8161 3.40613 11.9211 3.46063 12.0135C3.51513 12.1058 3.59277 12.1824 3.6859 12.2356C3.77903 12.2888 3.88441 12.3167 3.99165 12.3167H12.0083C12.1156 12.3167 12.221 12.2888 12.3141 12.2356C12.4072 12.1824 12.4849 12.1058 12.5394 12.0135C12.5938 11.9211 12.6233 11.8161 12.6249 11.7089C12.6264 11.6017 12.5999 11.4959 12.5481 11.402L8.53979 4.00203Z" stroke="var(--stroke-0, #D97706)" stroke-width="0.8" stroke-linecap="round" stroke-linejoin="round"/>
<path id="Vector_2" d="M8 9.23333V6.45833" stroke="var(--stroke-0, #D97706)" stroke-width="0.8" stroke-linecap="round" stroke-linejoin="round"/>
<path id="Vector_3" d="M8 10.775C7.91486 10.775 7.84584 10.706 7.84584 10.6208C7.84584 10.5357 7.91486 10.4667 8 10.4667" stroke="var(--stroke-0, #D97706)" stroke-width="0.8"/>
<path id="Vector_4" d="M8 10.775C8.08514 10.775 8.15417 10.706 8.15417 10.6208C8.15417 10.5357 8.08514 10.4667 8 10.4667" stroke="var(--stroke-0, #D97706)" stroke-width="0.8"/>
</g>
</svg>
