<svg preserveAspectRatio="none" width="100%" height="100%" overflow="visible" style="display: block;" viewBox="0 0 16 16" fill="none" xmlns="http://www.w3.org/2000/svg">
<g id="icon">
<path id="Vector" d="M12.3787 5.26899C12.211 4.94085 11.9683 4.65689 11.6702 4.44018C11.3721 4.22348 11.0271 4.08012 10.6633 4.02177C10.2994 3.96341 9.92688 3.9917 9.576 4.10433C9.22511 4.21696 8.90573 4.41077 8.6438 4.67L8 5.25748L7.3562 4.67C7.09419 4.41081 6.77473 4.21708 6.42379 4.10454C6.07284 3.992 5.70029 3.96382 5.33641 4.0223C4.97253 4.08078 4.62757 4.22426 4.32956 4.44109C4.03154 4.65792 3.78887 4.94199 3.62126 5.27022C3.40246 5.70371 3.32689 6.19546 3.40542 6.67464C3.48396 7.15382 3.71254 7.59572 4.05827 7.93669L8 12.0083L11.9417 7.93545C12.2875 7.59449 12.516 7.15259 12.5946 6.67341C12.6731 6.19422 12.5975 5.70248 12.3787 5.26899Z" stroke="var(--stroke-0, #6B7388)" stroke-width="0.8" stroke-linecap="round" stroke-linejoin="round"/>
<path id="Vector_2" d="M5.225 7.38333H6.36296C6.39161 7.38332 6.41969 7.39128 6.44409 7.4063C6.46848 7.42133 6.48821 7.44284 6.50109 7.46843L7.22999 8.92623C7.24329 8.95275 7.26397 8.97487 7.28953 8.98993C7.31509 9.00499 7.34446 9.01235 7.3741 9.01114C7.40374 9.00992 7.43241 9.00018 7.45665 8.98308C7.4809 8.96597 7.49969 8.94224 7.51078 8.91472L8.48922 6.46861C8.50031 6.44109 8.51911 6.41736 8.54335 6.40026C8.56759 6.38316 8.59626 6.37341 8.6259 6.3722C8.65554 6.37098 8.68491 6.37835 8.71047 6.39341C8.73603 6.40847 8.75671 6.43058 8.77001 6.4571L9.19222 7.29823C9.2051 7.32383 9.22484 7.34534 9.24923 7.36036C9.27362 7.37539 9.30171 7.38334 9.33036 7.38333H10.775" stroke="var(--stroke-0, #6B7388)" stroke-width="0.8" stroke-linecap="round" stroke-linejoin="round"/>
</g>
</svg>
