<svg preserveAspectRatio="none" width="100%" height="100%" overflow="visible" style="display: block;" viewBox="0 0 16 4.33333" fill="none" xmlns="http://www.w3.org/2000/svg">
<g id="Group">
<path id="Vector" d="M2.16699 0.5C2.60883 0.500086 3.03226 0.675899 3.34473 0.988281C3.65729 1.30084 3.83301 1.72496 3.83301 2.16699C3.83292 2.6089 3.65721 3.03224 3.34473 3.34473C3.03224 3.65721 2.6089 3.83292 2.16699 3.83301C1.72497 3.83301 1.30084 3.65729 0.988281 3.34473C0.675899 3.03226 0.500086 2.60883 0.5 2.16699C0.5 1.72496 0.675721 1.30084 0.988281 0.988281C1.30084 0.675721 1.72496 0.5 2.16699 0.5Z" fill="var(--fill-0, #6B7388)" stroke="var(--stroke-0, #6B7388)"/>
<path id="Vector_2" d="M8.00033 0.5C8.44216 0.500086 8.86559 0.675899 9.17806 0.988281C9.49062 1.30084 9.66634 1.72496 9.66634 2.16699C9.66626 2.6089 9.49054 3.03224 9.17806 3.34473C8.86558 3.65721 8.44224 3.83292 8.00033 3.83301C7.5583 3.83301 7.13418 3.65729 6.82161 3.34473C6.50923 3.03226 6.33342 2.60883 6.33333 2.16699C6.33333 1.72496 6.50905 1.30084 6.82161 0.988281C7.13418 0.675721 7.5583 0.5 8.00033 0.5Z" fill="var(--fill-0, #6B7388)" stroke="var(--stroke-0, #6B7388)"/>
<path id="Vector_3" d="M11.6667 2.16667C11.6667 2.7413 11.8949 3.2924 12.3013 3.69873C12.7076 4.10506 13.2587 4.33333 13.8333 4.33333C14.408 4.33333 14.9591 4.10506 15.3654 3.69873C15.7717 3.2924 16 2.7413 16 2.16667C16 1.59203 15.7717 1.04093 15.3654 0.634602C14.9591 0.228273 14.408 0 13.8333 0C13.2587 0 12.7076 0.228273 12.3013 0.634602C11.8949 1.04093 11.6667 1.59203 11.6667 2.16667Z" fill="var(--fill-0, #6B7388)"/>
</g>
</svg>
