<svg preserveAspectRatio="none" width="100%" height="100%" overflow="visible" style="display: block;" viewBox="0 0 16 16" fill="none" xmlns="http://www.w3.org/2000/svg">
<g id="icon">
<path id="Vector" d="M11.6703 1.34583C8.5526 1.8897 8 5 8 5V14.6667C8 14.6667 8.59113 11.4181 12.0003 11.0392C12.3662 10.9985 12.6667 10.7051 12.6667 10.3372V2.26206C12.6667 1.71027 12.2144 1.25092 11.6703 1.34583Z" stroke="var(--stroke-0, #6B7388)" stroke-linecap="round" stroke-linejoin="round"/>
<path id="Vector_2" d="M3.55555 3.33334C5.19586 3.33105 6.779 3.92473 8 5V14.6667C6.779 13.5914 5.19586 12.9977 3.55555 13C2.51421 13 1.99355 13 1.76351 12.8528C1.6254 12.7644 1.56897 12.7079 1.48057 12.5698C1.33333 12.3398 1.33333 11.9294 1.33333 11.1086V5.60215C1.33333 4.65029 1.33333 4.17436 1.69916 3.78857C2.06499 3.40279 2.43949 3.38288 3.18848 3.34307C3.31 3.33661 3.43239 3.33334 3.55555 3.33334Z" stroke="var(--stroke-0, #6B7388)" stroke-linecap="round" stroke-linejoin="round"/>
<path id="Vector_3" d="M8 14.6673C9.221 13.5921 10.8041 12.9984 12.4445 13.0007C13.4858 13.0007 14.0065 13.0007 14.2365 12.8535C14.3746 12.7651 14.431 12.7086 14.5194 12.5705C14.6667 12.3405 14.6667 11.9301 14.6667 11.1093V5.60283C14.6667 4.65097 14.6667 4.17504 14.3009 3.78925C13.935 3.40347 13.4157 3.37315 12.6667 3.33333" stroke="var(--stroke-0, #6B7388)" stroke-linecap="round" stroke-linejoin="round"/>
</g>
</svg>
