<svg preserveAspectRatio="none" width="100%" height="100%" overflow="visible" style="display: block;" viewBox="0 0 16 16" fill="none" xmlns="http://www.w3.org/2000/svg">
<g id="icon">
<path id="Vector" d="M10.6667 1.33333V4M5.33333 1.33333V4" stroke="var(--stroke-0, #6B7388)" stroke-linecap="round" stroke-linejoin="round"/>
<path id="Vector_2" d="M8.66667 2.66667H7.33333C4.81917 2.66667 3.5621 2.66667 2.78105 3.44771C2 4.22877 2 5.48584 2 8V9.33333C2 11.8475 2 13.1046 2.78105 13.8856C3.5621 14.6667 4.81917 14.6667 7.33333 14.6667H8.66667C11.1808 14.6667 12.4379 14.6667 13.2189 13.8856C14 13.1046 14 11.8475 14 9.33333V8C14 5.48584 14 4.22877 13.2189 3.44771C12.4379 2.66667 11.1808 2.66667 8.66667 2.66667Z" stroke="var(--stroke-0, #6B7388)" stroke-linecap="round" stroke-linejoin="round"/>
<path id="Vector_3" d="M2 6.66667H14" stroke="var(--stroke-0, #6B7388)" stroke-linecap="round" stroke-linejoin="round"/>
<path id="Vector_4" d="M8.08387 9.33333H8.00053M8.08387 12H8.00053M5.08333 9.33333H5M5.08333 12H5M11.0833 9.33333H11M8.1672 9.33333C8.1672 9.4254 8.0926 9.5 8.00053 9.5C7.90853 9.5 7.83387 9.4254 7.83387 9.33333C7.83387 9.24127 7.90853 9.16667 8.00053 9.16667C8.0926 9.16667 8.1672 9.24127 8.1672 9.33333ZM8.1672 12C8.1672 12.0921 8.0926 12.1667 8.00053 12.1667C7.90853 12.1667 7.83387 12.0921 7.83387 12C7.83387 11.9079 7.90853 11.8333 8.00053 11.8333C8.0926 11.8333 8.1672 11.9079 8.1672 12ZM5.16667 9.33333C5.16667 9.4254 5.09205 9.5 5 9.5C4.90795 9.5 4.83333 9.4254 4.83333 9.33333C4.83333 9.24127 4.90795 9.16667 5 9.16667C5.09205 9.16667 5.16667 9.24127 5.16667 9.33333ZM5.16667 12C5.16667 12.0921 5.09205 12.1667 5 12.1667C4.90795 12.1667 4.83333 12.0921 4.83333 12C4.83333 11.9079 4.90795 11.8333 5 11.8333C5.09205 11.8333 5.16667 11.9079 5.16667 12ZM11.1667 9.33333C11.1667 9.4254 11.0921 9.5 11 9.5C10.9079 9.5 10.8333 9.4254 10.8333 9.33333C10.8333 9.24127 10.9079 9.16667 11 9.16667C11.0921 9.16667 11.1667 9.24127 11.1667 9.33333Z" stroke="var(--stroke-0, black)" stroke-linecap="round" stroke-linejoin="round"/>
</g>
</svg>
