<svg preserveAspectRatio="none" width="100%" height="100%" overflow="visible" style="display: block;" viewBox="0 0 12 12" fill="none" xmlns="http://www.w3.org/2000/svg">
<g id="icon">
<path id="Vector" d="M9.13915 3.15374C9.33025 2.95454 9.6469 2.94805 9.8462 3.13909C10.0454 3.3302 10.0519 3.64683 9.86085 3.84612L5.5679 8.32415C5.41115 8.48765 5.25945 8.6478 5.1177 8.76065C4.96528 8.882 4.76347 8.99995 4.5 8.99995C4.23655 8.9999 4.03473 8.88195 3.88233 8.76065C3.74054 8.6478 3.58885 8.48765 3.43213 8.32415L2.13916 6.9755C1.9481 6.7762 1.95452 6.4596 2.15381 6.2685C2.35316 6.0774 2.66976 6.0843 2.86084 6.2836L4.15381 7.63225C4.32622 7.8121 4.42417 7.91215 4.5 7.97355C4.57585 7.91215 4.67377 7.81215 4.8462 7.63225L9.13915 3.15374Z" fill="var(--fill-0, white)"/>
</g>
</svg>
