<svg preserveAspectRatio="none" width="100%" height="100%" overflow="visible" style="display: block;" viewBox="0 0 30.8312 11.684" fill="none" xmlns="http://www.w3.org/2000/svg">
<g id="Group 8">
<path id="Vector" d="M7.74261 0H10.4155V11.6619H8.30072C7.99247 11.6619 7.74261 11.412 7.74261 11.1038V9.87327C7.38889 10.4155 6.92464 10.8485 6.34859 11.1743C5.77255 11.5 5.09306 11.6619 4.30887 11.6619C2.95656 11.6619 1.89999 11.2327 1.14041 10.3726C0.379163 9.51246 0 8.33951 0 6.85373V0.00125131H2.67291V6.34317C2.67291 7.22622 2.88356 7.91864 3.30694 8.42252C3.72948 8.9264 4.33223 9.17751 5.11641 9.17751C5.9006 9.17751 6.55215 8.89136 7.02933 8.3174C7.50527 7.74511 7.74386 6.9701 7.74386 5.99487V0H7.74261Z" fill="var(--fill-0, #268CFF)"/>
<path id="Vector_2" d="M18.5903 2.85895C18.4668 2.79722 18.2366 2.76593 17.8991 2.76593C16.916 2.76593 16.143 3.1184 15.5833 3.8225C15.0222 4.52744 14.7419 5.46805 14.7419 6.64433V11.6619H12.6492C12.341 11.6619 12.0911 11.412 12.0911 11.1038V0H14.7186V2.23202C14.9955 1.56629 15.441 1.03571 16.0554 0.641116C16.6699 0.246519 17.346 0.0488032 18.0835 0.0488032C18.3755 0.0488032 18.5444 0.0721622 18.5907 0.118463V2.85979H18.5895V2.85853L18.5903 2.85895Z" fill="var(--fill-0, #268CFF)"/>
<path id="Vector_3" d="M30.8312 0.292415V11.684H28.8227C28.5145 11.684 28.2646 11.4342 28.2646 11.1259V9.8007C27.8588 10.3759 27.3269 10.8327 26.6666 11.1739C26.0063 11.5138 25.2935 11.684 24.5285 11.684C23.7635 11.684 23.0544 11.533 22.4007 11.2306C21.7483 10.9282 21.1811 10.5156 20.7014 9.99383C20.2204 9.47201 19.8421 8.85592 19.5647 8.14431C19.2873 7.43395 19.1488 6.66895 19.1488 5.85265C19.1488 5.03634 19.2873 4.27259 19.5647 3.56098C19.8421 2.85062 20.2204 2.23328 20.7014 1.71146C21.1811 1.18964 21.7483 0.77711 22.4007 0.474697C23.0531 0.172284 23.7622 0.0212862 24.5285 0.0212862C25.2947 0.0212862 26.0063 0.176872 26.6666 0.486377C27.3269 0.796715 27.86 1.23886 28.2646 1.81407V0.294501L30.8312 0.292415ZM21.76 5.85181C21.76 6.33609 21.8464 6.78616 22.0191 7.20203C22.1917 7.6179 22.4249 7.98164 22.7169 8.29114C23.0097 8.60148 23.358 8.84675 23.7635 9.02903C24.1693 9.21089 24.6035 9.30182 25.0695 9.30182C25.5354 9.30182 25.97 9.21089 26.3759 9.02903C26.7817 8.84716 27.1292 8.60148 27.4224 8.29114C27.7144 7.9808 27.9476 7.61832 28.1203 7.20203C28.293 6.78616 28.3793 6.33609 28.3793 5.85181C28.3793 5.36753 28.293 4.91746 28.1203 4.50159C27.9476 4.08572 27.7144 3.72282 27.4224 3.41249C27.1292 3.10215 26.7813 2.85646 26.3759 2.6746C25.9713 2.49273 25.5346 2.4018 25.0695 2.4018C24.6044 2.4018 24.1693 2.49273 23.7635 2.6746C23.3588 2.85646 23.0097 3.10215 22.7169 3.41249C22.4249 3.72282 22.1917 4.0853 22.0191 4.50159C21.8464 4.91746 21.76 5.36753 21.76 5.85181Z" fill="var(--fill-0, #268CFF)"/>
</g>
</svg>
