<svg preserveAspectRatio="none" width="100%" height="100%" overflow="visible" style="display: block;" viewBox="0 0 20.157 16.81" fill="none" xmlns="http://www.w3.org/2000/svg">
<g id="Group 7">
<path id="Vector" d="M10.0539 10.1073V16.2515C10.0539 16.5597 9.80363 16.81 9.49537 16.81H7.26127C6.95302 16.81 6.70274 16.5597 6.70274 16.2515V10.1073H10.0539Z" fill="var(--fill-0, #10069F)"/>
<path id="Vector_2" d="M19.5968 16.81H16.7562L10.0535 10.1073H14.2426L19.9922 15.8569C20.3439 16.2085 20.0948 16.8096 19.5976 16.8096H19.5964L19.5968 16.81Z" fill="var(--fill-0, #268CFF)"/>
<path id="Vector_3" d="M19.9914 0.953123L14.2418 6.70273H10.0526L16.7566 0H19.5972C20.0953 0 20.3443 0.601489 19.9918 0.953123H19.9914Z" fill="var(--fill-0, #268CFF)"/>
<path id="Vector_4" d="M10.0539 0.558526V6.70273L6.70273 10.0539H0.558526C0.250273 10.0539 0 9.80361 0 9.49536V7.26125C0 6.953 0.250273 6.70273 0.558526 6.70273H6.70273V0.558526C6.70273 0.250273 6.953 0 7.26125 0H9.49536C9.80361 0 10.0539 0.250273 10.0539 0.558526Z" fill="var(--fill-0, #60CDFF)"/>
</g>
</svg>
