<svg width="16" height="16" viewBox="0 0 16 16" fill="none" xmlns="http://www.w3.org/2000/svg">
<path d="M10.3333 7.99996C10.3333 9.28863 9.28863 10.3333 7.99996 10.3333C6.71129 10.3333 5.66663 9.28863 5.66663 7.99996C5.66663 6.71129 6.71129 5.66663 7.99996 5.66663C9.28863 5.66663 10.3333 6.71129 10.3333 7.99996Z" stroke="black"/>
<path d="M14.0074 9.39763C14.3553 9.30383 14.5293 9.2569 14.598 9.16716C14.6667 9.0775 14.6667 8.93316 14.6667 8.64456V7.35543C14.6667 7.06683 14.6667 6.9225 14.598 6.83283C14.5292 6.7431 14.3553 6.69616 14.0074 6.60235C12.7071 6.25169 11.8933 4.8923 12.2289 3.60054C12.3212 3.24529 12.3673 3.06767 12.3232 2.96349C12.2792 2.85931 12.1528 2.78752 11.8998 2.64394L10.75 1.99112C10.5019 1.85022 10.3778 1.77978 10.2665 1.79478C10.1551 1.80978 10.0295 1.93512 9.77817 2.18578C8.80537 3.15628 7.19577 3.15624 6.22293 2.18572C5.97166 1.93505 5.84603 1.80972 5.73466 1.79471C5.6233 1.77971 5.49922 1.85016 5.25106 1.99105L4.10127 2.64388C3.84839 2.78745 3.72195 2.85924 3.67789 2.9634C3.63383 3.06756 3.67995 3.24521 3.77221 3.6005C4.10762 4.8923 3.29319 6.25172 1.99272 6.60236C1.64479 6.69616 1.47082 6.7431 1.40209 6.83276C1.33337 6.9225 1.33337 7.06683 1.33337 7.35543V8.64456C1.33337 8.93316 1.33337 9.0775 1.40209 9.16716C1.47081 9.2569 1.64478 9.30383 1.99272 9.39763C3.29297 9.7483 4.10676 11.1077 3.77119 12.3994C3.6789 12.7547 3.63275 12.9323 3.67681 13.0365C3.72088 13.1407 3.84732 13.2125 4.10021 13.356L5.25001 14.0089C5.49818 14.1498 5.62227 14.2202 5.73364 14.2052C5.84501 14.1902 5.97063 14.0648 6.22185 13.8142C7.19517 12.8429 8.80591 12.8428 9.77931 13.8141C10.0305 14.0648 10.1561 14.1902 10.2675 14.2052C10.3788 14.2202 10.503 14.1497 10.7511 14.0088L11.9009 13.356C12.1538 13.2124 12.2803 13.1406 12.3243 13.0364C12.3684 12.9322 12.3222 12.7546 12.2299 12.3994C11.8942 11.1077 12.7073 9.74836 14.0074 9.39763Z" stroke="black" stroke-linecap="round"/>
</svg>
