<svg width="32" height="32" viewBox="0 0 32 32" fill="none" xmlns="http://www.w3.org/2000/svg">
<path opacity="0.4" d="M10.6862 2.83349C10.9039 2.73852 11.2235 2.62883 11.6027 2.6796C12.015 2.7348 12.3205 2.97007 12.4962 3.11696C12.6828 3.27292 13.152 3.73828 13.152 3.73828C13.9294 4.50915 14.9646 4.89473 16 4.89501C17.0353 4.89473 18.0705 4.50915 18.848 3.73828C18.848 3.73828 19.3172 3.27292 19.5037 3.11696C19.6794 2.97007 19.985 2.7348 20.3972 2.6796C20.7764 2.62883 21.0961 2.73852 21.3137 2.83349C21.5138 2.9208 21.7394 3.04824 21.9585 3.17188L24.9573 4.88988C25.1517 5.02741 25.4145 5.24636 25.5653 5.60065C25.7298 5.98744 25.6768 6.37728 25.6377 6.60277C25.5953 6.84676 25.5076 7.18269 25.4236 7.50417C24.8952 9.52659 26.1857 11.7022 28.2749 12.2621L28.3117 12.272C28.6278 12.3566 28.924 12.436 29.1556 12.5195C29.3724 12.5976 29.7345 12.7443 29.9897 13.0754C30.2242 13.3796 30.2864 13.7132 30.3109 13.9492C30.3334 14.167 30.3333 14.4274 30.3333 14.6807V17.3196C30.3333 17.573 30.3334 17.8334 30.3109 18.0511C30.2864 18.2871 30.2242 18.6206 29.9897 18.9248C29.7345 19.2559 29.3724 19.4026 29.1557 19.4807C28.9241 19.5643 28.275 19.7382 28.275 19.7382C26.1866 20.298 24.8969 22.4732 25.4256 24.4959C25.4256 24.4959 25.5974 25.1532 25.6397 25.3972C25.6789 25.6227 25.732 26.0126 25.5674 26.3994C25.4166 26.7538 25.154 26.9727 24.9594 27.1103L21.9606 28.8283C21.7417 28.9519 21.5158 29.0794 21.3158 29.1667C21.0981 29.2616 20.7784 29.3714 20.3992 29.3206C19.9869 29.2654 19.6814 29.03 19.5057 28.8831C19.3192 28.7271 18.85 28.2618 18.85 28.2618C18.0721 27.4902 17.0361 27.1042 16 27.1039C14.9638 27.1042 13.9278 27.4902 13.15 28.2618C13.15 28.2618 12.6808 28.7271 12.4943 28.8831C12.3186 29.03 12.013 29.2654 11.6008 29.3206C11.2215 29.3714 10.9018 29.2616 10.6842 29.1667C10.4841 29.0794 10.2584 28.9519 10.0395 28.8283L7.04043 27.1103C6.846 26.9727 6.58328 26.7538 6.43251 26.3994C6.26792 26.0126 6.32106 25.6227 6.36019 25.3972C6.40252 25.1532 6.57439 24.4959 6.57439 24.4959C7.10304 22.4732 5.81334 20.298 3.72495 19.7382C3.72495 19.7382 3.07588 19.5643 2.84426 19.4807C2.62758 19.4026 2.26542 19.2559 2.01023 18.9248C1.77571 18.6206 1.71355 18.2871 1.68908 18.0511C1.66652 17.8334 1.66658 17.573 1.66663 17.3196V14.6807C1.66658 14.4274 1.66652 14.167 1.68908 13.9492C1.71355 13.7132 1.77572 13.3796 2.01026 13.0754C2.26546 12.7443 2.62762 12.5976 2.84432 12.5195C3.07595 12.436 3.37212 12.3566 3.6882 12.272L3.725 12.2621C5.81416 11.7022 7.10472 9.52659 6.5764 7.50417C6.49239 7.18269 6.4046 6.84676 6.36228 6.60277C6.32318 6.37728 6.27007 5.98744 6.43468 5.60065C6.58547 5.24636 6.84818 5.02741 7.04259 4.88988L10.0415 3.17188C10.2604 3.04824 10.4862 2.9208 10.6862 2.83349Z" fill="black"/>
<path d="M20.6667 16C20.6667 18.5773 18.5774 20.6666 16 20.6666C13.4227 20.6666 11.3334 18.5773 11.3334 16C11.3334 13.4226 13.4227 11.3334 16 11.3334C18.5774 11.3334 20.6667 13.4226 20.6667 16Z" fill="black"/>
</svg>
