<svg width="28" height="28" viewBox="0 0 28 28" fill="none" xmlns="http://www.w3.org/2000/svg">
<path opacity="0.4" d="M9.35052 2.47928C9.54095 2.39617 9.82067 2.30019 10.1525 2.34462C10.5132 2.39292 10.7805 2.59878 10.9343 2.72731C11.0975 2.86377 11.5081 3.27096 11.5081 3.27096C12.1883 3.94547 13.0941 4.28286 14 4.28311C14.906 4.28286 15.8118 3.94547 16.492 3.27096C16.492 3.27096 16.9026 2.86377 17.0658 2.72731C17.2196 2.59878 17.487 2.39292 17.8476 2.34462C18.1794 2.30019 18.4592 2.39617 18.6496 2.47928C18.8247 2.55567 19.0221 2.66718 19.2138 2.77536L21.8377 4.27861C22.0078 4.39896 22.2378 4.59053 22.3697 4.90054C22.5137 5.23898 22.4672 5.58009 22.4331 5.7774C22.396 5.99088 22.3192 6.28483 22.2457 6.56612C21.7833 8.33573 22.9126 10.2394 24.7406 10.7293L24.7728 10.7379C25.0494 10.812 25.3085 10.8815 25.5112 10.9545C25.7009 11.0229 26.0178 11.1512 26.2411 11.4409C26.4463 11.7071 26.5006 11.999 26.5221 12.2055C26.5418 12.3961 26.5417 12.6239 26.5417 12.8456V15.1546C26.5417 15.3763 26.5418 15.6042 26.5221 15.7947C26.5006 16.0012 26.4463 16.293 26.2411 16.5592C26.0178 16.8489 25.7009 16.9772 25.5113 17.0456C25.3087 17.1187 24.7407 17.2709 24.7407 17.2709C22.9134 17.7607 21.7849 19.664 22.2474 21.4339C22.2474 21.4339 22.3978 22.009 22.4348 22.2225C22.4691 22.4198 22.5155 22.761 22.3716 23.0994C22.2396 23.4095 22.0098 23.6011 21.8396 23.7215L19.2156 25.2247C19.0241 25.3329 18.8264 25.4444 18.6514 25.5208C18.4609 25.6039 18.1811 25.6999 17.8493 25.6555C17.4886 25.6072 17.2213 25.4012 17.0676 25.2727C16.9043 25.1362 16.4938 24.729 16.4938 24.729C15.8132 24.0539 14.9067 23.7161 14 23.7159C13.0934 23.7161 12.1869 24.0539 11.5063 24.729C11.5063 24.729 11.0958 25.1362 10.9326 25.2727C10.7788 25.4012 10.5114 25.6072 10.1507 25.6555C9.81892 25.6999 9.53917 25.6039 9.34872 25.5208C9.17369 25.4444 8.97615 25.3329 8.7846 25.2247L6.16045 23.7215C5.99033 23.6011 5.76045 23.4095 5.62852 23.0994C5.48451 22.761 5.531 22.4198 5.56524 22.2225C5.60229 22.009 5.75267 21.4339 5.75267 21.4339C6.21524 19.664 5.08675 17.7607 3.25941 17.2709C3.25941 17.2709 2.69148 17.1187 2.4888 17.0456C2.29921 16.9772 1.98232 16.8489 1.75903 16.5592C1.55382 16.293 1.49943 16.0012 1.47803 15.7947C1.45829 15.6042 1.45833 15.3763 1.45838 15.1546V12.8456C1.45833 12.6239 1.45829 12.3961 1.47803 12.2055C1.49943 11.999 1.55384 11.7071 1.75905 11.4409C1.98235 11.1512 2.29924 11.0229 2.48886 10.9545C2.69153 10.8815 2.95069 10.812 3.22726 10.7379L3.25946 10.7293C5.08747 10.2394 6.21671 8.33573 5.75443 6.56612C5.68092 6.28483 5.6041 5.99088 5.56707 5.7774C5.53286 5.58009 5.48639 5.23898 5.63042 4.90054C5.76236 4.59053 5.99223 4.39896 6.16234 4.27861L8.78636 2.77536C8.97795 2.66718 9.17546 2.55567 9.35052 2.47928Z" fill="black"/>
<path d="M18.0833 14C18.0833 16.2552 16.2551 18.0834 14 18.0834C11.7448 18.0834 9.91663 16.2552 9.91663 14C9.91663 11.7449 11.7448 9.91675 14 9.91675C16.2551 9.91675 18.0833 11.7449 18.0833 14Z" fill="black"/>
</svg>
