<svg width="28" height="28" viewBox="0 0 28 28" fill="none" xmlns="http://www.w3.org/2000/svg">
<path opacity="0.4" fill-rule="evenodd" clip-rule="evenodd" d="M25.5464 16.043C25.4263 16.2 25.1218 16.2821 24.5129 16.4463C22.2378 17.0601 20.8148 19.4389 21.4023 21.6994C21.5639 22.321 21.6446 22.6318 21.5675 22.8142C21.4905 22.9965 21.2692 23.1222 20.8266 23.3733L18.8144 24.5159C18.3802 24.7624 18.1629 24.8857 17.9681 24.8594C17.7732 24.8332 17.5534 24.6139 17.1138 24.1751C15.4103 22.4754 12.5915 22.4755 10.8882 24.1752C10.4486 24.614 10.2287 24.8333 10.0338 24.8596C9.83894 24.8858 9.62179 24.7625 9.18748 24.516L7.17533 23.3735C6.73278 23.1223 6.51151 22.9966 6.43439 22.8143C6.35729 22.6319 6.43805 22.3211 6.59955 21.6994C7.1868 19.4389 5.76266 17.0599 3.48723 16.4463C2.87834 16.2821 2.57388 16.2 2.45363 16.043C2.33337 15.886 2.33337 15.6335 2.33337 15.1284V12.8724C2.33337 12.3674 2.33337 12.1148 2.45363 11.9578C2.57391 11.8008 2.87835 11.7187 3.48723 11.5546C5.76305 10.9409 7.18831 8.56193 6.60133 6.3013C6.43989 5.67954 6.35917 5.36866 6.43628 5.18637C6.51339 5.00409 6.73466 4.87846 7.17719 4.6272L9.18933 3.48476C9.62361 3.2382 9.84075 3.11492 10.0356 3.14117C10.2305 3.16743 10.4504 3.38676 10.8901 3.82544C12.5926 5.52385 15.4094 5.52392 17.1118 3.82555C17.5516 3.38688 17.7714 3.16754 17.9664 3.14129C18.1612 3.11504 18.3783 3.23832 18.8125 3.48488L20.8247 4.62732C21.2673 4.87858 21.4885 5.00422 21.5656 5.18653C21.6428 5.36884 21.562 5.67968 21.4006 6.30138C20.8133 8.56196 22.2374 10.9409 24.5129 11.5545C25.1218 11.7187 25.4261 11.8008 25.5464 11.9579C25.6667 12.1148 25.6667 12.3674 25.6667 12.8724V15.1284C25.6667 15.6335 25.6667 15.886 25.5464 16.043ZM14 18.0837C16.2552 18.0837 18.0834 16.2555 18.0834 14.0004C18.0834 11.7452 16.2552 9.91703 14 9.91703C11.7449 9.91703 9.91671 11.7452 9.91671 14.0004C9.91671 16.2555 11.7449 18.0837 14 18.0837Z" fill="black"/>
<path d="M24.5129 16.4459C25.1218 16.2818 25.4263 16.1996 25.5464 16.0426C25.6667 15.8857 25.6667 15.6331 25.6667 15.128V12.8721C25.6667 12.367 25.6667 12.1144 25.5464 11.9575C25.4261 11.8005 25.1218 11.7183 24.5129 11.5542C22.2374 10.9405 20.8133 8.56159 21.4006 6.30101C21.562 5.67932 21.6428 5.36848 21.5656 5.18617C21.4885 5.00385 21.2673 4.87823 20.8247 4.62695L18.8125 3.48451C18.3783 3.23795 18.1612 3.11467 17.9664 3.14092C17.7714 3.16717 17.5516 3.38651 17.1118 3.82518C15.4094 5.52356 12.5926 5.52349 10.8901 3.82508C10.4504 3.3864 10.2305 3.16706 10.0356 3.1408C9.84075 3.11455 9.62361 3.23783 9.18933 3.4844L7.17719 4.62684C6.73466 4.8781 6.51339 5.00372 6.43628 5.186C6.35917 5.3683 6.43989 5.67918 6.60133 6.30093C7.18831 8.56158 5.76305 10.9406 3.48723 11.5542C2.87835 11.7183 2.57391 11.8005 2.45363 11.9574C2.33337 12.1144 2.33337 12.367 2.33337 12.8721V15.128C2.33337 15.6331 2.33337 15.8857 2.45363 16.0426C2.57388 16.1996 2.87834 16.2818 3.48723 16.4459C5.76267 17.0596 7.1868 19.4385 6.59955 21.6991C6.43805 22.3208 6.35729 22.6316 6.43439 22.8139C6.51151 22.9963 6.73278 23.1219 7.17533 23.3731L9.18748 24.5156C9.62179 24.7621 9.83894 24.8855 10.0338 24.8592C10.2287 24.833 10.4486 24.6135 10.8882 24.1748C12.5915 22.4751 15.4103 22.475 17.1138 24.1747C17.5534 24.6135 17.7732 24.8328 17.9681 24.8591C18.1629 24.8853 18.3802 24.762 18.8144 24.5155L20.8266 23.373C21.2692 23.1218 21.4905 22.9962 21.5675 22.8138C21.6446 22.6315 21.5639 22.3207 21.4023 21.6989C20.8148 19.4385 22.2378 17.0597 24.5129 16.4459Z" stroke="black" stroke-width="1.75" stroke-linecap="round"/>
<path d="M18.0833 14C18.0833 16.2551 16.2551 18.0833 14 18.0833C11.7448 18.0833 9.91663 16.2551 9.91663 14C9.91663 11.7448 11.7448 9.91663 14 9.91663C16.2551 9.91663 18.0833 11.7448 18.0833 14Z" stroke="black" stroke-width="1.75"/>
</svg>
