<svg width="20" height="20" viewBox="0 0 20 20" fill="none" xmlns="http://www.w3.org/2000/svg">
<path opacity="0.4" d="M6.67887 1.77096C6.8149 1.71161 7.0147 1.64305 7.2517 1.67478C7.50933 1.70928 7.70032 1.85632 7.81014 1.94813C7.92674 2.04561 8.22 2.33646 8.22 2.33646C8.70588 2.81825 9.35288 3.05924 9.99996 3.05941C10.647 3.05924 11.294 2.81825 11.78 2.33646C11.78 2.33646 12.0732 2.04561 12.1898 1.94813C12.2996 1.85632 12.4906 1.70928 12.7482 1.67478C12.9852 1.64305 13.185 1.71161 13.321 1.77096C13.4461 1.82553 13.5871 1.90518 13.724 1.98246L15.5983 3.05621C15.7198 3.14216 15.884 3.27901 15.9783 3.50044C16.0811 3.74218 16.048 3.98583 16.0235 4.12676C15.997 4.27926 15.9422 4.48921 15.8897 4.69014C15.5595 5.95415 16.366 7.31391 17.6718 7.66385L17.6948 7.67001C17.8924 7.72293 18.0775 7.77252 18.2222 7.82471C18.3577 7.87355 18.584 7.96521 18.7435 8.17215C18.8901 8.3623 18.929 8.5708 18.9443 8.7183C18.9584 8.85438 18.9583 9.01713 18.9583 9.17546V10.8248C18.9583 10.9831 18.9584 11.1459 18.9443 11.282C18.929 11.4295 18.8901 11.6379 18.7435 11.828C18.584 12.035 18.3577 12.1266 18.2223 12.1755C18.0775 12.2277 17.6719 12.3364 17.6719 12.3364C16.3666 12.6863 15.5605 14.0458 15.891 15.31C15.891 15.31 15.9984 15.7208 16.0248 15.8733C16.0493 16.0142 16.0825 16.2579 15.9796 16.4996C15.8854 16.7211 15.7212 16.858 15.5996 16.944L13.7254 18.0177C13.5885 18.095 13.4474 18.1746 13.3224 18.2292C13.1863 18.2885 12.9865 18.3571 12.7495 18.3254C12.4918 18.2909 12.3009 18.1438 12.191 18.052C12.0745 17.9545 11.7812 17.6636 11.7812 17.6636C11.295 17.1814 10.6475 16.9401 9.99996 16.94C9.35238 16.9401 8.70488 17.1814 8.2187 17.6636C8.2187 17.6636 7.9255 17.9545 7.8089 18.052C7.69908 18.1438 7.5081 18.2909 7.25045 18.3254C7.01345 18.3571 6.81362 18.2885 6.67759 18.2292C6.55256 18.1746 6.41146 18.095 6.27465 18.0177L4.40025 16.944C4.27874 16.858 4.11454 16.7211 4.0203 16.4996C3.91744 16.2579 3.95065 16.0142 3.9751 15.8733C4.00156 15.7208 4.10898 15.31 4.10898 15.31C4.43939 14.0458 3.63332 12.6863 2.32808 12.3364C2.32808 12.3364 1.92241 12.2277 1.77765 12.1755C1.64222 12.1266 1.41587 12.035 1.25638 11.828C1.1098 11.6379 1.07095 11.4295 1.05566 11.282C1.04156 11.1459 1.0416 10.9831 1.04163 10.8248V9.17546C1.0416 9.01713 1.04156 8.85438 1.05566 8.7183C1.07095 8.5708 1.10981 8.3623 1.2564 8.17215C1.4159 7.96521 1.64225 7.87355 1.77769 7.82471C1.92245 7.77252 2.10756 7.72293 2.30511 7.67001L2.32811 7.66385C3.63384 7.31391 4.44044 5.95415 4.11024 4.69014C4.05773 4.48921 4.00286 4.27926 3.97641 4.12676C3.95197 3.98583 3.91878 3.74218 4.02166 3.50044C4.1159 3.27901 4.2801 3.14216 4.4016 3.05621L6.2759 1.98246C6.41275 1.90518 6.55383 1.82553 6.67887 1.77096Z" fill="black"/>
<path d="M12.9167 10C12.9167 11.6108 11.6109 12.9167 10 12.9167C8.38921 12.9167 7.08337 11.6108 7.08337 10C7.08337 8.38917 8.38921 7.08337 10 7.08337C11.6109 7.08337 12.9167 8.38917 12.9167 10Z" fill="black"/>
</svg>
