<svg width="28" height="28" viewBox="0 0 28 28" fill="none" xmlns="http://www.w3.org/2000/svg">
<path fill-rule="evenodd" clip-rule="evenodd" d="M10.1525 2.34462C9.82067 2.30019 9.54095 2.39617 9.35052 2.47928C9.17546 2.55567 8.97795 2.66718 8.78636 2.77536L6.16234 4.27861C5.99223 4.39896 5.76236 4.59053 5.63042 4.90054C5.48639 5.23898 5.53286 5.58009 5.56707 5.7774C5.6041 5.99088 5.68092 6.28483 5.75443 6.56612C6.21671 8.33573 5.08747 10.2394 3.25946 10.7293L3.22726 10.7379C2.95069 10.812 2.69153 10.8815 2.48886 10.9545C2.29924 11.0229 1.98235 11.1512 1.75905 11.4409C1.55384 11.7071 1.49943 11.999 1.47803 12.2055C1.45829 12.3961 1.45833 12.6239 1.45838 12.8456V15.1546C1.45833 15.3763 1.45829 15.6042 1.47803 15.7947C1.49943 16.0012 1.55382 16.293 1.75903 16.5592C1.98232 16.8489 2.29921 16.9772 2.4888 17.0456C2.69148 17.1187 3.25941 17.2709 3.25941 17.2709C5.08675 17.7607 6.21524 19.664 5.75267 21.4339C5.75267 21.4339 5.60229 22.009 5.56524 22.2225C5.531 22.4198 5.48451 22.761 5.62852 23.0994C5.76045 23.4095 5.99033 23.6011 6.16045 23.7215L8.78448 25.2247C8.97603 25.3329 9.17369 25.4444 9.34872 25.5208C9.53917 25.6039 9.81892 25.6999 10.1507 25.6555C10.5114 25.6072 10.7788 25.4012 10.9326 25.2727C11.0958 25.1362 11.5063 24.729 11.5063 24.729C12.1869 24.0539 13.0934 23.7161 14 23.7159C14.9067 23.7161 15.8132 24.0539 16.4938 24.729C16.4938 24.729 16.9043 25.1362 17.0676 25.2727C17.2213 25.4012 17.4886 25.6072 17.8493 25.6555C18.1811 25.6999 18.4609 25.6039 18.6514 25.5208C18.8264 25.4444 19.0239 25.3329 19.2155 25.2247L21.8396 23.7215C22.0098 23.6011 22.2396 23.4095 22.3716 23.0994C22.5155 22.761 22.4691 22.4198 22.4348 22.2225C22.3978 22.009 22.2474 21.4339 22.2474 21.4339C21.7849 19.664 22.9134 17.7607 24.7407 17.2709C24.7407 17.2709 25.3087 17.1187 25.5113 17.0456C25.7009 16.9772 26.0178 16.8489 26.2411 16.5592C26.4463 16.293 26.5006 16.0012 26.5221 15.7947C26.5418 15.6042 26.5417 15.3763 26.5417 15.1546V12.8456C26.5417 12.6239 26.5418 12.3961 26.5221 12.2055C26.5006 11.999 26.4463 11.7071 26.2411 11.4409C26.0178 11.1512 25.7009 11.0229 25.5112 10.9545C25.3085 10.8815 25.0494 10.812 24.7728 10.7379L24.7406 10.7293C22.9126 10.2394 21.7833 8.33573 22.2457 6.56612C22.3192 6.28483 22.396 5.99088 22.4331 5.7774C22.4672 5.58009 22.5137 5.23898 22.3697 4.90054C22.2378 4.59053 22.0078 4.39896 21.8377 4.27861L19.2138 2.77536C19.0221 2.66718 18.8247 2.55567 18.6496 2.47928C18.4592 2.39617 18.1794 2.30019 17.8476 2.34462C17.487 2.39292 17.2196 2.59878 17.0658 2.72731C16.9026 2.86377 16.492 3.27096 16.492 3.27096C15.8118 3.94547 14.906 4.28286 14 4.28311C13.0941 4.28286 12.1883 3.94547 11.5081 3.27096C11.5081 3.27096 11.0975 2.86377 10.9343 2.72731C10.7805 2.59878 10.5132 2.39292 10.1525 2.34462ZM14 18.0833C16.2552 18.0833 18.0834 16.2552 18.0834 14C18.0834 11.7448 16.2552 9.91671 14 9.91671C11.7449 9.91671 9.91671 11.7448 9.91671 14C9.91671 16.2552 11.7449 18.0833 14 18.0833Z" fill="black"/>
</svg>
