<svg width="32" height="32" viewBox="0 0 32 32" fill="none" xmlns="http://www.w3.org/2000/svg">
<path d="M20.6667 16C20.6667 18.5774 18.5774 20.6667 16 20.6667C13.4227 20.6667 11.3334 18.5774 11.3334 16C11.3334 13.4227 13.4227 11.3334 16 11.3334C18.5774 11.3334 20.6667 13.4227 20.6667 16Z" stroke="black" stroke-width="2"/>
<path d="M28.0146 18.7954C28.7105 18.6078 29.0585 18.5139 29.1958 18.3344C29.3333 18.1551 29.3333 17.8664 29.3333 17.2892V14.711C29.3333 14.1338 29.3333 13.8451 29.1958 13.6658C29.0584 13.4863 28.7105 13.3924 28.0146 13.2048C25.4141 12.5035 23.7865 9.78473 24.4577 7.20121C24.6422 6.4907 24.7345 6.13546 24.6464 5.9271C24.5582 5.71874 24.3054 5.57517 23.7996 5.28799L21.5 3.98236C21.0037 3.70057 20.7556 3.55967 20.5329 3.58967C20.3101 3.61967 20.0589 3.87035 19.5562 4.37169C17.6106 6.31269 14.3914 6.31261 12.4457 4.37157C11.9432 3.87022 11.6919 3.61955 11.4692 3.58954C11.2465 3.55954 10.9983 3.70043 10.502 3.98222L8.20241 5.28787C7.69667 5.57502 7.44379 5.71859 7.35567 5.92691C7.26753 6.13525 7.35979 6.49054 7.54429 7.20112C8.21512 9.78472 6.58625 12.5036 3.98532 13.2048C3.28945 13.3924 2.94152 13.4863 2.80407 13.6656C2.66663 13.8451 2.66663 14.1338 2.66663 14.711V17.2892C2.66663 17.8664 2.66663 18.1551 2.80407 18.3344C2.94149 18.5139 3.28944 18.6078 3.98532 18.7954C6.58583 19.4967 8.2134 22.2155 7.54225 24.799C7.35768 25.5095 7.26539 25.8647 7.35351 26.0731C7.44164 26.2815 7.69452 26.4251 8.20029 26.7122L10.4999 28.0179C10.9962 28.2996 11.2444 28.4406 11.4672 28.4106C11.6899 28.3806 11.9411 28.1298 12.4436 27.6284C14.3902 25.6859 17.6117 25.6858 19.5585 27.6283C20.0609 28.1298 20.3121 28.3804 20.5349 28.4104C20.7576 28.4404 21.0058 28.2995 21.5021 28.0178L23.8017 26.712C24.3076 26.425 24.5605 26.2814 24.6485 26.073C24.7366 25.8646 24.6444 25.5094 24.4597 24.7988C23.7882 22.2155 25.4145 19.4968 28.0146 18.7954Z" stroke="black" stroke-width="2" stroke-linecap="round"/>
</svg>
