<svg width="16" height="16" viewBox="0 0 16 16" fill="none" xmlns="http://www.w3.org/2000/svg">
<path opacity="0.4" d="M5.34317 1.41675C5.45199 1.36926 5.61183 1.31441 5.80143 1.3398C6.00754 1.3674 6.16033 1.48503 6.24818 1.55848C6.34146 1.63646 6.57608 1.86914 6.57608 1.86914C6.96478 2.25457 7.48238 2.44737 8.00004 2.44751C8.51771 2.44737 9.03531 2.25457 9.42404 1.86914C9.42404 1.86914 9.65864 1.63646 9.75191 1.55848C9.83978 1.48503 9.99258 1.3674 10.1986 1.3398C10.3882 1.31441 10.5481 1.36926 10.6569 1.41675C10.757 1.4604 10.8698 1.52412 10.9793 1.58594L12.4787 2.44494C12.5759 2.51371 12.7073 2.62318 12.7827 2.80033C12.865 2.99372 12.8384 3.18864 12.8189 3.30139C12.7977 3.42338 12.7538 3.59135 12.7118 3.75209C12.4476 4.76329 13.0929 5.85111 14.1375 6.13105L14.1559 6.13598C14.314 6.17832 14.462 6.21799 14.5778 6.25975C14.6862 6.29881 14.8673 6.37214 14.9949 6.53769C15.1122 6.68981 15.1432 6.85661 15.1555 6.97461C15.1668 7.08348 15.1667 7.21368 15.1667 7.34035V8.65981C15.1667 8.78648 15.1668 8.91668 15.1555 9.02555C15.1432 9.14355 15.1122 9.31028 14.9949 9.46241C14.8673 9.62795 14.6862 9.70128 14.5779 9.74035C14.4621 9.78215 14.1376 9.86908 14.1376 9.86908C13.0934 10.149 12.4485 11.2366 12.7128 12.2479C12.7128 12.2479 12.7988 12.5766 12.8199 12.6986C12.8395 12.8113 12.866 13.0063 12.7838 13.1997C12.7084 13.3769 12.577 13.4863 12.4798 13.5551L10.9804 14.4141C10.8709 14.4759 10.758 14.5397 10.658 14.5833C10.5491 14.6308 10.3892 14.6857 10.1996 14.6603C9.99351 14.6327 9.84078 14.515 9.75291 14.4415C9.65964 14.3635 9.42504 14.1309 9.42504 14.1309C9.03611 13.7451 8.51811 13.5521 8.00004 13.5519C7.48198 13.5521 6.96398 13.7451 6.57504 14.1309C6.57504 14.1309 6.34048 14.3635 6.24719 14.4415C6.15934 14.515 6.00656 14.6327 5.80044 14.6603C5.61083 14.6857 5.45097 14.6308 5.34214 14.5833C5.24212 14.5397 5.12924 14.4759 5.01979 14.4141L3.52028 13.5551C3.42306 13.4863 3.2917 13.3769 3.21632 13.1997C3.13402 13.0063 3.16059 12.8113 3.18016 12.6986C3.20132 12.5766 3.28726 12.2479 3.28726 12.2479C3.55158 11.2366 2.90673 10.149 1.86254 9.86908C1.86254 9.86908 1.538 9.78215 1.42219 9.74035C1.31385 9.70128 1.13277 9.62795 1.00518 9.46241C0.887917 9.31028 0.856837 9.14355 0.844603 9.02555C0.833323 8.91668 0.83335 8.78648 0.833377 8.65981V7.34035C0.83335 7.21368 0.833323 7.08348 0.844603 6.97461C0.856837 6.85661 0.887923 6.68981 1.00519 6.53769C1.13279 6.37214 1.31387 6.29881 1.42222 6.25975C1.53804 6.21799 1.68612 6.17832 1.84416 6.13598L1.86256 6.13105C2.90714 5.85111 3.55242 4.76329 3.28826 3.75209C3.24626 3.59135 3.20236 3.42338 3.1812 3.30139C3.16165 3.18864 3.1351 2.99372 3.2174 2.80033C3.2928 2.62318 3.42415 2.51371 3.52136 2.44494L5.0208 1.58594C5.13028 1.52412 5.24314 1.4604 5.34317 1.41675Z" fill="black"/>
<path d="M10.3333 8.00005C10.3333 9.28872 9.28863 10.3334 7.99996 10.3334C6.71129 10.3334 5.66663 9.28872 5.66663 8.00005C5.66663 6.71138 6.71129 5.66675 7.99996 5.66675C9.28863 5.66675 10.3333 6.71138 10.3333 8.00005Z" fill="black"/>
</svg>
