<svg width="32" height="32" viewBox="0 0 32 32" fill="none" xmlns="http://www.w3.org/2000/svg">
<path opacity="0.4" fill-rule="evenodd" clip-rule="evenodd" d="M8.44465 17.6615C9.19318 17.6615 9.93856 17.7452 10.6774 17.8892C12.7795 18.2988 14.8285 19.1955 16.746 20.0346L16.8457 20.0782C19.4013 21.1963 21.7369 22.2031 24.0191 22.3174C24.1611 22.3244 24.3029 22.3282 24.4447 22.3282C25.4507 22.3282 26.2953 22.244 27.0056 22.1059C27.3972 22.7635 27.7447 23.3687 28.0333 23.9247C28.2113 24.2678 28.3671 24.592 28.4968 24.8984C29.0001 26.0876 29.2764 27.377 28.5971 28.6068C27.9143 29.8423 26.6727 30.2858 25.4004 30.4766C24.1659 30.6616 22.5223 30.6616 20.5373 30.6615H20.4069H11.5944H11.4639C9.47902 30.6616 7.83536 30.6616 6.6009 30.4766C5.32856 30.2858 4.08709 29.8423 3.40429 28.6068C2.72493 27.377 3.00117 26.0876 3.50456 24.8984C3.99553 23.7387 4.8576 22.3224 5.9017 20.6071L5.96289 20.5066L6.44393 19.716L7.68592 17.675C7.93472 17.666 8.18754 17.6615 8.44465 17.6615Z" fill="black"/>
<path d="M20.6298 3.99479H21.3329C22.0693 3.99479 22.6662 3.39784 22.6662 2.66145C22.6662 1.92508 22.0693 1.32812 21.3329 1.32812H19.2965H12.7027H10.6662C9.92984 1.32812 9.33288 1.92508 9.33288 2.66145C9.33288 3.39784 9.92984 3.99479 10.6662 3.99479H11.3693V10.4857C11.3693 11.3069 11.3575 11.4675 11.3186 11.6068C11.2797 11.7455 11.2066 11.8876 10.7808 12.5872L7.68481 17.6749C7.93363 17.666 8.18644 17.6615 8.44356 17.6615C9.19208 17.6615 9.93747 17.7452 10.6763 17.8892L13.0594 13.974L13.125 13.8665C13.4499 13.3339 13.7371 12.8632 13.8875 12.3255C14.0078 11.8957 14.0317 11.4567 14.0361 10.9779V3.99479H17.9631V10.9779C17.9674 11.4567 17.9913 11.8957 18.1115 12.3255C18.2621 12.8632 18.5493 13.3339 18.8742 13.8664L18.9397 13.974L23.7599 21.8932L24.0179 22.3173C24.1601 22.3244 24.3019 22.3281 24.4435 22.3281C25.4495 22.3281 26.2942 22.244 27.0046 22.1059C26.7234 21.6337 26.4197 21.1345 26.0986 20.6072L26.0373 20.5065L21.2183 12.5872C20.7925 11.8876 20.7194 11.7455 20.6806 11.6068C20.6415 11.4675 20.6298 11.3069 20.6298 10.4857V3.99479Z" fill="black"/>
</svg>
