<svg width="16" height="16" viewBox="0 0 16 16" fill="none" xmlns="http://www.w3.org/2000/svg">
<path opacity="0.4" d="M5.79672 14.6667H10.2034C12.2925 14.6667 13.337 14.6667 13.7145 13.9838C14.0433 13.3888 13.6701 12.6295 12.8447 11.2544C12.5347 11.3046 12.1814 11.3334 11.7779 11.3334C10.6112 11.3334 9.44455 10.8334 8.27788 10.3334C7.11122 9.83337 5.94453 9.33337 4.77786 9.33337C4.61994 9.33337 4.46602 9.33751 4.3157 9.34531L3.55058 10.6024C2.4557 12.4014 1.90826 13.3008 2.28569 13.9838C2.66312 14.6667 3.70766 14.6667 5.79672 14.6667Z" fill="black"/>
<path d="M9.64842 1.33331V5.2452C9.64842 5.62017 9.64842 5.80765 9.69828 5.98571C9.74815 6.16378 9.84535 6.32345 10.0397 6.64279L12.4496 10.6024C13.5445 12.4013 14.0919 13.3008 13.7145 13.9837C13.337 14.6666 12.2925 14.6666 10.2034 14.6666H5.79672C3.70766 14.6666 2.66312 14.6666 2.28569 13.9837C1.90826 13.3008 2.4557 12.4013 3.55058 10.6024L5.96049 6.64279C6.15485 6.32345 6.25203 6.16378 6.30188 5.98571C6.35172 5.80765 6.35172 5.62017 6.35172 5.2452V1.33331" stroke="black" stroke-linecap="round" stroke-linejoin="round"/>
<path d="M5.33325 1.33331H10.6666" stroke="black" stroke-linecap="round" stroke-linejoin="round"/>
<path d="M12.6667 11.1488C12.313 11.2626 11.8763 11.3334 11.3334 11.3334C9.33341 11.3334 7.33341 9.33337 5.33341 9.33337C5.10171 9.33337 4.88007 9.34544 4.66675 9.36751" stroke="black" stroke-linecap="round" stroke-linejoin="round"/>
</svg>
