<svg width="20" height="20" viewBox="0 0 20 20" fill="none" xmlns="http://www.w3.org/2000/svg">
<path d="M6.66707 2.49674H7.10652V6.55355C7.10652 7.06683 7.09916 7.16718 7.07478 7.25423C7.05051 7.34092 7.00483 7.42973 6.73868 7.86702L3.72681 12.8166L3.68856 12.8794C3.036 13.9515 2.49721 14.8367 2.19035 15.5615C1.87573 16.3048 1.70308 17.1106 2.12768 17.8792C2.55443 18.6514 3.33035 18.9286 4.12556 19.0478C4.8971 19.1635 5.92439 19.1635 7.16495 19.1634H7.2465H12.7543H12.8358C14.0764 19.1635 15.1037 19.1635 15.8752 19.0478C16.6704 18.9286 17.4464 18.6514 17.8732 17.8792C18.2977 17.1106 18.1251 16.3048 17.8105 15.5615C17.5036 14.8367 16.9648 13.9515 16.3122 12.8794L16.274 12.8166L13.2621 7.86702C12.996 7.42974 12.9503 7.34091 12.926 7.25423C12.9017 7.16718 12.8942 7.06683 12.8942 6.55355V2.49674H13.3337C13.794 2.49674 14.1671 2.12365 14.1671 1.66341C14.1671 1.20317 13.794 0.830078 13.3337 0.830078H12.0609H7.93986H6.66707C6.20683 0.830078 5.83374 1.20317 5.83374 1.66341C5.83374 2.12365 6.20683 2.49674 6.66707 2.49674ZM11.838 8.73375L14.7467 13.5126C14.5688 13.5293 14.376 13.5384 14.1671 13.5384C13.0933 13.5384 11.9825 12.9975 10.6962 12.3543L10.6255 12.319C9.45508 11.7335 8.12554 11.0684 6.75942 11.0394L8.16284 8.73375L8.20379 8.66658C8.40683 8.33367 8.58633 8.03948 8.68042 7.70345C8.75558 7.43484 8.7705 7.16043 8.77316 6.86117V2.49674H11.2276V6.86117C11.2303 7.16043 11.2452 7.43484 11.3204 7.70345C11.4145 8.03948 11.5939 8.33367 11.797 8.6665L11.838 8.73375Z" fill="black"/>
</svg>
