<svg width="32" height="32" viewBox="0 0 32 32" fill="none" xmlns="http://www.w3.org/2000/svg">
<path d="M19.2966 2.66663V10.4904C19.2966 11.2403 19.2966 11.6153 19.3963 11.9714C19.4961 12.3276 19.6905 12.6469 20.0791 13.2856L24.899 21.2048C27.0887 24.8026 28.1835 26.6016 27.4287 27.9674C26.6738 29.3333 24.5847 29.3333 20.4066 29.3333H11.5932C7.41507 29.3333 5.32599 29.3333 4.57114 27.9674C3.81628 26.6016 4.91116 24.8026 7.10092 21.2048L11.9207 13.2856C12.3095 12.6469 12.5038 12.3276 12.6035 11.9714C12.7032 11.6153 12.7032 11.2403 12.7032 10.4904V2.66663" stroke="black" stroke-width="2" stroke-linecap="round" stroke-linejoin="round"/>
<path d="M10.6667 2.66663H21.3334" stroke="black" stroke-width="2" stroke-linecap="round" stroke-linejoin="round"/>
<path opacity="0.4" d="M25.3333 22.2976C24.6258 22.5252 23.7523 22.6666 22.6666 22.6666C18.6666 22.6666 14.6666 18.6666 10.6666 18.6666C10.2032 18.6666 9.75989 18.6908 9.33325 18.7349" stroke="black" stroke-width="2" stroke-linecap="round" stroke-linejoin="round"/>
</svg>
