<svg width="20" height="20" viewBox="0 0 20 20" fill="none" xmlns="http://www.w3.org/2000/svg">
<path opacity="0.4" fill-rule="evenodd" clip-rule="evenodd" d="M5.27791 11.0385C5.74574 11.0385 6.2116 11.0908 6.67337 11.1808C7.9872 11.4368 9.26783 11.9972 10.4662 12.5216L10.5286 12.5489C12.1258 13.2477 13.5856 13.877 15.0119 13.9484C15.1007 13.9528 15.1893 13.9551 15.2779 13.9551C15.9067 13.9551 16.4346 13.9025 16.8785 13.8162C17.1232 14.2272 17.3404 14.6055 17.5208 14.953C17.6321 15.1674 17.7294 15.37 17.8105 15.5615C18.1251 16.3048 18.2977 17.1106 17.8732 17.8793C17.4464 18.6515 16.6704 18.9286 15.8752 19.0479C15.1037 19.1635 14.0764 19.1635 12.8358 19.1635H12.7543H7.2465H7.16495C5.92439 19.1635 4.8971 19.1635 4.12556 19.0479C3.33035 18.9286 2.55443 18.6515 2.12768 17.8793C1.70308 17.1106 1.87573 16.3048 2.19035 15.5615C2.49721 14.8367 3.036 13.9515 3.68856 12.8795L3.72681 12.8166L4.02746 12.3225L4.8037 11.0469C4.9592 11.0413 5.11721 11.0385 5.27791 11.0385Z" fill="black"/>
<path d="M12.8936 2.49674H13.333C13.7933 2.49674 14.1663 2.12365 14.1663 1.66341C14.1663 1.20317 13.7933 0.830078 13.333 0.830078H12.0603H7.93914H6.66635C6.20612 0.830078 5.83302 1.20317 5.83302 1.66341C5.83302 2.12365 6.20612 2.49674 6.66635 2.49674H7.1058V6.55355C7.1058 7.06683 7.09844 7.16717 7.07407 7.25423C7.0498 7.34092 7.00411 7.42973 6.73797 7.86702L4.80298 11.0468C4.95849 11.0412 5.1165 11.0384 5.2772 11.0384C5.74502 11.0384 6.21089 11.0907 6.67265 11.1807L8.16212 8.73375L8.20307 8.66658C8.40617 8.33367 8.58567 8.03948 8.67967 7.70345C8.75484 7.43484 8.76975 7.16043 8.7725 6.86117V2.49674H11.2269V6.86117C11.2296 7.16043 11.2445 7.43484 11.3197 7.70345C11.4138 8.03948 11.5933 8.33367 11.7963 8.6665L11.8373 8.73375L14.8499 13.6833L15.0112 13.9483C15.1 13.9528 15.1887 13.9551 15.2772 13.9551C15.9059 13.9551 16.4338 13.9025 16.8778 13.8162C16.7021 13.5211 16.5123 13.2091 16.3116 12.8795L16.2733 12.8166L13.2614 7.86702C12.9953 7.42974 12.9496 7.34091 12.9253 7.25423C12.9009 7.16717 12.8936 7.06683 12.8936 6.55355V2.49674Z" fill="black"/>
</svg>
