<svg width="20" height="20" viewBox="0 0 20 20" fill="none" xmlns="http://www.w3.org/2000/svg">
<path d="M12.0603 1.66663V6.55648C12.0603 7.02519 12.0603 7.25955 12.1227 7.48213C12.185 7.70471 12.3065 7.9043 12.5494 8.30348L15.5618 13.253C16.9304 15.5016 17.6147 16.626 17.1429 17.4796C16.6711 18.3333 15.3654 18.3333 12.7541 18.3333H7.24572C4.63439 18.3333 3.32871 18.3333 2.85693 17.4796C2.38515 16.626 3.06945 15.5016 4.43805 13.253L7.45043 8.30348C7.69338 7.9043 7.81486 7.70471 7.87716 7.48213C7.93947 7.25955 7.93947 7.02519 7.93947 6.55648V1.66663" stroke="black" stroke-width="1.25" stroke-linecap="round" stroke-linejoin="round"/>
<path d="M6.66675 1.66663H13.3334" stroke="black" stroke-width="1.25" stroke-linecap="round" stroke-linejoin="round"/>
<path opacity="0.4" d="M15.8333 13.936C15.3911 14.0782 14.8452 14.1666 14.1666 14.1666C11.6666 14.1666 9.16659 11.6666 6.66659 11.6666C6.37695 11.6666 6.0999 11.6817 5.83325 11.7093" stroke="black" stroke-width="1.25" stroke-linecap="round" stroke-linejoin="round"/>
</svg>
