<svg width="32" height="32" viewBox="0 0 32 32" fill="none" xmlns="http://www.w3.org/2000/svg">
<path opacity="0.4" d="M11.5932 29.3333H20.4066C24.5847 29.3333 26.6738 29.3333 27.4287 27.9674C28.0863 26.7776 27.3401 25.2589 25.6891 22.5086C25.0691 22.6092 24.3626 22.6666 23.5555 22.6666C21.2222 22.6666 18.8889 21.6666 16.5555 20.6666C14.2222 19.6666 11.8888 18.6666 9.55548 18.6666C9.23963 18.6666 8.93179 18.6749 8.63115 18.6905L7.10092 21.2048C4.91116 24.8026 3.81628 26.6016 4.57114 27.9674C5.32599 29.3333 7.41507 29.3333 11.5932 29.3333Z" fill="black"/>
<path d="M19.2966 2.66669V10.4905C19.2966 11.2404 19.2966 11.6154 19.3963 11.9715C19.4961 12.3276 19.6905 12.647 20.0791 13.2856L24.899 21.2048C27.0887 24.8027 28.1835 26.6016 27.4287 27.9675C26.6738 29.3334 24.5847 29.3334 20.4066 29.3334H11.5932C7.41507 29.3334 5.32599 29.3334 4.57114 27.9675C3.81628 26.6016 4.91116 24.8027 7.10092 21.2048L11.9207 13.2856C12.3095 12.647 12.5038 12.3276 12.6035 11.9715C12.7032 11.6154 12.7032 11.2404 12.7032 10.4905V2.66669" stroke="black" stroke-width="2" stroke-linecap="round" stroke-linejoin="round"/>
<path d="M10.6667 2.66669H21.3334" stroke="black" stroke-width="2" stroke-linecap="round" stroke-linejoin="round"/>
<path d="M25.3333 22.2976C24.6258 22.5252 23.7523 22.6666 22.6666 22.6666C18.6666 22.6666 14.6666 18.6666 10.6666 18.6666C10.2032 18.6666 9.75989 18.6908 9.33325 18.7349" stroke="black" stroke-width="2" stroke-linecap="round" stroke-linejoin="round"/>
</svg>
