<svg width="32" height="32" viewBox="0 0 32 32" fill="none" xmlns="http://www.w3.org/2000/svg">
<path d="M10.6673 3.99479H11.3704V10.4857C11.3704 11.3069 11.3587 11.4675 11.3197 11.6068C11.2808 11.7455 11.2077 11.8876 10.7819 12.5872L5.96289 20.5065L5.9017 20.6071C4.8576 22.3224 3.99553 23.7387 3.50456 24.8984C3.00117 26.0876 2.72493 27.3769 3.40429 28.6068C4.08709 29.8423 5.32856 30.2857 6.6009 30.4765C7.83536 30.6616 9.47902 30.6616 11.4639 30.6615H11.5944H20.4069H20.5373C22.5223 30.6616 24.1659 30.6616 25.4004 30.4765C26.6727 30.2857 27.9143 29.8423 28.5971 28.6068C29.2764 27.3769 29.0001 26.0876 28.4968 24.8984C28.0057 23.7387 27.1437 22.3224 26.0996 20.6071L26.0384 20.5065L21.2193 12.5872C20.7936 11.8876 20.7205 11.7455 20.6816 11.6068C20.6427 11.4675 20.6308 11.3069 20.6308 10.4857V3.99479H21.334C22.0704 3.99479 22.6673 3.39784 22.6673 2.66145C22.6673 1.92508 22.0704 1.32812 21.334 1.32812H19.2975H12.7038H10.6673C9.93093 1.32812 9.33398 1.92508 9.33398 2.66145C9.33398 3.39784 9.93093 3.99479 10.6673 3.99479ZM18.9408 13.974L23.5948 21.6201C23.3101 21.6468 23.0016 21.6615 22.6673 21.6615C20.9493 21.6615 19.172 20.796 17.1139 19.7669L17.0008 19.7104C15.1281 18.7736 13.0009 17.7095 10.8151 17.6631L13.0605 13.974L13.1261 13.8665C13.4509 13.3339 13.7381 12.8632 13.8887 12.3255C14.0089 11.8957 14.0328 11.4567 14.0371 10.9779V3.99479H17.9641V10.9779C17.9685 11.4567 17.9924 11.8957 18.1127 12.3255C18.2632 12.8632 18.5503 13.3339 18.8752 13.8664L18.9408 13.974Z" fill="black"/>
</svg>
