<svg width="28" height="28" viewBox="0 0 28 28" fill="none" xmlns="http://www.w3.org/2000/svg">
<path d="M9.3339 3.49544H9.94913V9.17497C9.94913 9.89357 9.93882 10.034 9.90469 10.1559C9.87071 10.2773 9.80676 10.4016 9.43415 11.0138L5.21753 17.9432L5.16399 18.0312C4.2504 19.5321 3.49609 20.7713 3.06649 21.7861C2.62602 22.8266 2.38431 23.9548 2.97875 25.0309C3.5762 26.112 4.66249 26.5 5.77579 26.667C6.85594 26.8289 8.29415 26.8289 10.0309 26.8288H10.1451H17.8561H17.9702C19.707 26.8289 21.1451 26.8289 22.2253 26.667C23.3386 26.5 24.425 26.112 25.0224 25.0309C25.6168 23.9548 25.3751 22.8266 24.9347 21.7861C24.505 20.7713 23.7508 19.5321 22.8371 18.0312L22.7836 17.9432L18.5669 11.0138C18.1944 10.4016 18.1305 10.2773 18.0964 10.1559C18.0623 10.034 18.0519 9.89357 18.0519 9.17497V3.49544H18.6672C19.3116 3.49544 19.8339 2.97311 19.8339 2.32877C19.8339 1.68444 19.3116 1.16211 18.6672 1.16211H16.8853H11.1158H9.3339C8.68956 1.16211 8.16724 1.68444 8.16724 2.32877C8.16724 2.97311 8.68956 3.49544 9.3339 3.49544ZM16.5732 12.2273L20.6454 18.9176C20.3964 18.9409 20.1264 18.9538 19.8339 18.9538C18.3307 18.9538 16.7755 18.1965 14.9746 17.2961L14.8757 17.2466C13.2371 16.4269 11.3758 15.4958 9.46318 15.4552L11.428 12.2273L11.4853 12.1332C11.7696 11.6671 12.0209 11.2553 12.1526 10.7848C12.2578 10.4088 12.2787 10.0246 12.2824 9.60563V3.49544H15.7186V9.60563C15.7225 10.0246 15.7433 10.4088 15.8486 10.7848C15.9803 11.2553 16.2315 11.6671 16.5158 12.1331L16.5732 12.2273Z" fill="black"/>
</svg>
