<svg width="16" height="16" viewBox="0 0 16 16" fill="none" xmlns="http://www.w3.org/2000/svg">
<path d="M5.33366 1.99739H5.68522V5.24284C5.68522 5.65347 5.67933 5.73374 5.65983 5.80339C5.64041 5.87273 5.60387 5.94379 5.39095 6.29362L2.98145 10.2533L2.95085 10.3035C2.4288 11.1612 1.99777 11.8693 1.75228 12.4492C1.50059 13.0438 1.36247 13.6885 1.70215 14.3034C2.04355 14.9211 2.66428 15.1429 3.30045 15.2383C3.91768 15.3308 4.73951 15.3308 5.73196 15.3307H5.7972H10.2035H10.2687C11.2611 15.3308 12.0829 15.3308 12.7002 15.2383C13.3363 15.1429 13.9571 14.9211 14.2985 14.3034C14.6382 13.6885 14.5001 13.0438 14.2484 12.4492C14.0029 11.8693 13.5719 11.1612 13.0498 10.3035L13.0192 10.2533L10.6097 6.29362C10.3968 5.94379 10.3603 5.87273 10.3408 5.80339C10.3213 5.73374 10.3154 5.65347 10.3154 5.24284V1.99739H10.667C11.0352 1.99739 11.3337 1.69892 11.3337 1.33073C11.3337 0.96254 11.0352 0.664062 10.667 0.664062H9.64873H6.35189H5.33366C4.96547 0.664062 4.66699 0.96254 4.66699 1.33073C4.66699 1.69892 4.96547 1.99739 5.33366 1.99739ZM9.4704 6.987L11.7974 10.8101C11.6551 10.8234 11.5008 10.8307 11.3337 10.8307C10.4747 10.8307 9.586 10.398 8.55693 9.88347L8.5004 9.8552C7.56407 9.3868 6.50043 8.85473 5.40753 8.83153L6.53027 6.987L6.56303 6.93327C6.72547 6.66693 6.86907 6.43159 6.94433 6.16276C7.00447 5.94787 7.0164 5.72834 7.01853 5.48893V1.99739H8.98207V5.48893C8.98427 5.72834 8.9962 5.94787 9.05633 6.16276C9.1316 6.43159 9.27513 6.66693 9.4376 6.9332L9.4704 6.987Z" fill="black"/>
</svg>
