<svg width="16" height="16" viewBox="0 0 16 16" fill="none" xmlns="http://www.w3.org/2000/svg">
<path opacity="0.4" fill-rule="evenodd" clip-rule="evenodd" d="M4.22233 8.83069C4.59659 8.83069 4.96928 8.87255 5.33869 8.94455C6.38976 9.14935 7.41427 9.59769 8.373 10.0172L8.42287 10.039C9.70067 10.5981 10.8685 11.1015 12.0095 11.1586C12.0805 11.1622 12.1515 11.164 12.2223 11.164C12.7253 11.164 13.1477 11.122 13.5028 11.0529C13.6986 11.3817 13.8723 11.6843 14.0167 11.9623C14.1057 12.1338 14.1835 12.296 14.2484 12.4492C14.5001 13.0438 14.6382 13.6884 14.2985 14.3034C13.9571 14.9211 13.3363 15.1428 12.7002 15.2382C12.0829 15.3308 11.2611 15.3308 10.2687 15.3307H10.2035H5.7972H5.73196C4.73951 15.3308 3.91768 15.3308 3.30045 15.2382C2.66428 15.1428 2.04355 14.9211 1.70215 14.3034C1.36247 13.6884 1.50059 13.0438 1.75228 12.4492C1.99777 11.8693 2.4288 11.1612 2.95085 10.3035L2.98145 10.2532L3.22197 9.85795L3.84296 8.83742C3.96736 8.83295 4.09377 8.83069 4.22233 8.83069Z" fill="black"/>
<path d="M10.315 1.99739H10.6665C11.0347 1.99739 11.3332 1.69892 11.3332 1.33073C11.3332 0.96254 11.0347 0.664062 10.6665 0.664062H9.64835H6.35146H5.33323C4.96504 0.664062 4.66656 0.96254 4.66656 1.33073C4.66656 1.69892 4.96504 1.99739 5.33323 1.99739H5.68479V5.24284C5.68479 5.65347 5.6789 5.73374 5.6594 5.80339C5.63998 5.87273 5.60344 5.94379 5.39052 6.29362L3.84253 8.83747C3.96694 8.833 4.09334 8.83073 4.2219 8.83073C4.59616 8.83073 4.96886 8.8726 5.33827 8.9446L6.52984 6.987L6.5626 6.93327C6.72508 6.66693 6.86868 6.43159 6.94388 6.16276C7.00402 5.94787 7.01595 5.72834 7.01815 5.48893V1.99739H8.98168V5.48893C8.98382 5.72834 8.99575 5.94787 9.05588 6.16276C9.13115 6.43159 9.27475 6.66693 9.43722 6.9332L9.46995 6.987L11.8801 10.9466L12.0091 11.1587C12.0801 11.1622 12.1511 11.1641 12.2219 11.1641C12.7249 11.1641 13.1472 11.122 13.5024 11.0529C13.3618 10.8169 13.2099 10.5673 13.0494 10.3036L13.0187 10.2533L10.6093 6.29362C10.3963 5.94379 10.3598 5.87273 10.3404 5.80339C10.3209 5.73374 10.315 5.65347 10.315 5.24284V1.99739Z" fill="black"/>
</svg>
