<svg width="28" height="28" viewBox="0 0 28 28" fill="none" xmlns="http://www.w3.org/2000/svg">
<path opacity="0.4" d="M10.1442 25.6667H17.8559C21.5118 25.6667 23.3397 25.6667 24.0003 24.4716C24.5757 23.4304 23.9227 22.1016 22.4781 19.6951C21.9356 19.7831 21.3174 19.8334 20.6112 19.8334C18.5696 19.8334 16.5279 18.9584 14.4862 18.0834C12.4446 17.2084 10.4029 16.3334 8.3612 16.3334C8.08483 16.3334 7.81547 16.3406 7.55241 16.3543L6.21346 18.5542C4.29742 21.7024 3.3394 23.2764 3.9999 24.4716C4.66039 25.6667 6.48834 25.6667 10.1442 25.6667Z" fill="black"/>
<path d="M16.8847 2.33331V9.17911C16.8847 9.83531 16.8847 10.1634 16.9719 10.475C17.0592 10.7866 17.2293 11.0661 17.5694 11.6249L21.7868 18.5542C23.7028 21.7023 24.6607 23.2764 24.0003 24.4715C23.3397 25.6666 21.5118 25.6666 17.8559 25.6666H10.1442C6.48834 25.6666 4.66039 25.6666 3.9999 24.4715C3.3394 23.2764 4.29742 21.7023 6.21346 18.5542L10.4308 11.6249C10.7709 11.0661 10.941 10.7866 11.0282 10.475C11.1155 10.1634 11.1155 9.83531 11.1155 9.17911V2.33331" stroke="black" stroke-width="1.75" stroke-linecap="round" stroke-linejoin="round"/>
<path d="M9.33325 2.33331H18.6666" stroke="black" stroke-width="1.75" stroke-linecap="round" stroke-linejoin="round"/>
<path d="M22.1667 19.5104C21.5477 19.7096 20.7834 19.8334 19.8334 19.8334C16.3334 19.8334 12.8334 16.3334 9.33341 16.3334C8.92793 16.3334 8.54006 16.3545 8.16675 16.3931" stroke="black" stroke-width="1.75" stroke-linecap="round" stroke-linejoin="round"/>
</svg>
