<svg width="28" height="28" viewBox="0 0 28 28" fill="none" xmlns="http://www.w3.org/2000/svg">
<path d="M16.8847 2.33331V9.17911C16.8847 9.83531 16.8847 10.1634 16.9719 10.475C17.0592 10.7866 17.2293 11.0661 17.5694 11.6249L21.7868 18.5542C23.7028 21.7023 24.6607 23.2764 24.0003 24.4715C23.3397 25.6666 21.5118 25.6666 17.8559 25.6666H10.1442C6.48834 25.6666 4.66039 25.6666 3.9999 24.4715C3.3394 23.2764 4.29742 21.7023 6.21346 18.5542L10.4308 11.6249C10.7709 11.0661 10.941 10.7866 11.0282 10.475C11.1155 10.1634 11.1155 9.83531 11.1155 9.17911V2.33331" stroke="black" stroke-width="1.75" stroke-linecap="round" stroke-linejoin="round"/>
<path d="M9.33325 2.33331H18.6666" stroke="black" stroke-width="1.75" stroke-linecap="round" stroke-linejoin="round"/>
<path d="M22.1667 19.5104C21.5477 19.7095 20.7834 19.8333 19.8334 19.8333C16.3334 19.8333 12.8334 16.3333 9.33341 16.3333C8.92793 16.3333 8.54006 16.3544 8.16675 16.393" stroke="black" stroke-width="1.75" stroke-linecap="round" stroke-linejoin="round"/>
</svg>
