<svg width="20" height="20" viewBox="0 0 20 20" fill="none" xmlns="http://www.w3.org/2000/svg">
<path d="M12.0603 1.66669V6.55655C12.0603 7.02525 12.0603 7.25961 12.1227 7.48219C12.185 7.70477 12.3065 7.90436 12.5494 8.30354L15.5618 13.253C16.9304 15.5017 17.6147 16.626 17.1429 17.4797C16.6711 18.3334 15.3654 18.3334 12.7541 18.3334H7.24572C4.63439 18.3334 3.32871 18.3334 2.85693 17.4797C2.38515 16.626 3.06945 15.5017 4.43805 13.253L7.45043 8.30354C7.69338 7.90436 7.81486 7.70477 7.87716 7.48219C7.93947 7.25961 7.93947 7.02525 7.93947 6.55655V1.66669" stroke="black" stroke-width="1.25" stroke-linecap="round" stroke-linejoin="round"/>
<path d="M6.66675 1.66669H13.3334" stroke="black" stroke-width="1.25" stroke-linecap="round" stroke-linejoin="round"/>
<path d="M15.8333 13.936C15.3911 14.0783 14.8452 14.1667 14.1666 14.1667C11.6666 14.1667 9.16659 11.6667 6.66659 11.6667C6.37695 11.6667 6.0999 11.6818 5.83325 11.7094" stroke="black" stroke-width="1.25" stroke-linecap="round" stroke-linejoin="round"/>
</svg>
