<svg width="28" height="28" viewBox="0 0 28 28" fill="none" xmlns="http://www.w3.org/2000/svg">
<path opacity="0.4" fill-rule="evenodd" clip-rule="evenodd" d="M7.38907 15.4537C8.04404 15.4537 8.69624 15.527 9.34271 15.653C11.1821 16.0114 12.975 16.796 14.6527 17.5302L14.74 17.5683C16.9762 18.5467 19.0198 19.4276 21.0167 19.5276C21.1409 19.5338 21.2651 19.5371 21.3891 19.5371C22.2693 19.5371 23.0084 19.4635 23.6299 19.3426C23.9725 19.918 24.2766 20.4475 24.5292 20.934C24.6849 21.2342 24.8212 21.518 24.9347 21.7861C25.3751 22.8266 25.6168 23.9548 25.0224 25.0309C24.425 26.1119 23.3386 26.5 22.2253 26.6669C21.1451 26.8289 19.707 26.8289 17.9702 26.8287H17.8561H10.1451H10.0309C8.29415 26.8289 6.85594 26.8289 5.77579 26.6669C4.66249 26.5 3.5762 26.1119 2.97875 25.0309C2.38431 23.9548 2.62602 22.8266 3.06649 21.7861C3.49609 20.7713 4.2504 19.5321 5.16399 18.0311L5.21753 17.9432L5.63844 17.2515L6.72518 15.4655C6.94288 15.4577 7.1641 15.4537 7.38907 15.4537Z" fill="black"/>
<path d="M18.0512 3.49544H18.6664C19.3108 3.49544 19.8331 2.97311 19.8331 2.32877C19.8331 1.68444 19.3108 1.16211 18.6664 1.16211H16.8846H11.115H9.33309C8.68876 1.16211 8.16642 1.68444 8.16642 2.32877C8.16642 2.97311 8.68876 3.49544 9.33309 3.49544H9.94832V9.17497C9.94832 9.89357 9.93801 10.034 9.90389 10.1559C9.86991 10.2773 9.80595 10.4016 9.43335 11.0138L6.72437 15.4656C6.94208 15.4578 7.16329 15.4538 7.38827 15.4538C8.04322 15.4538 8.69544 15.5271 9.34191 15.6531L11.4272 12.2273L11.4845 12.1332C11.7688 11.6671 12.0201 11.2553 12.1517 10.7848C12.257 10.4088 12.2779 10.0246 12.2817 9.60563V3.49544H15.7179V9.60563C15.7216 10.0246 15.7425 10.4088 15.8477 10.7848C15.9795 11.2553 16.2308 11.6671 16.5151 12.1331L16.5724 12.2273L20.7901 19.1566L21.0158 19.5277C21.1402 19.5339 21.2643 19.5371 21.3882 19.5371C22.2685 19.5371 23.0076 19.4635 23.6292 19.3426C23.3831 18.9295 23.1174 18.4927 22.8364 18.0313L22.7828 17.9432L18.5662 11.0138C18.1936 10.4016 18.1296 10.2773 18.0957 10.1559C18.0615 10.034 18.0512 9.89357 18.0512 9.17497V3.49544Z" fill="black"/>
</svg>
