<svg width="28" height="28" viewBox="0 0 28 28" fill="none" xmlns="http://www.w3.org/2000/svg">
<path d="M16.8847 2.33337V9.17918C16.8847 9.83537 16.8847 10.1635 16.9719 10.4751C17.0592 10.7867 17.2293 11.0661 17.5694 11.625L21.7868 18.5542C23.7028 21.7024 24.6607 23.2764 24.0003 24.4716C23.3397 25.6667 21.5118 25.6667 17.8559 25.6667H10.1442C6.48834 25.6667 4.66039 25.6667 3.9999 24.4716C3.3394 23.2764 4.29742 21.7024 6.21346 18.5542L10.4308 11.625C10.7709 11.0661 10.941 10.7867 11.0282 10.4751C11.1155 10.1635 11.1155 9.83537 11.1155 9.17918V2.33337" stroke="black" stroke-width="1.75" stroke-linecap="round" stroke-linejoin="round"/>
<path d="M9.33325 2.33337H18.6666" stroke="black" stroke-width="1.75" stroke-linecap="round" stroke-linejoin="round"/>
<path opacity="0.4" d="M22.1667 19.5104C21.5477 19.7096 20.7834 19.8334 19.8334 19.8334C16.3334 19.8334 12.8334 16.3334 9.33341 16.3334C8.92793 16.3334 8.54006 16.3545 8.16675 16.3931" stroke="black" stroke-width="1.75" stroke-linecap="round" stroke-linejoin="round"/>
</svg>
