<svg width="24" height="24" viewBox="0 0 24 24" fill="none" xmlns="http://www.w3.org/2000/svg">
<path d="M8.00049 2.99609H8.52783V7.86426C8.52783 8.4802 8.51899 8.60061 8.48974 8.70508C8.46061 8.8091 8.4058 8.91568 8.08642 9.44043L4.47217 15.3799L4.42628 15.4553C3.6432 16.7418 2.99665 17.804 2.62842 18.6738C2.25088 19.5657 2.0437 20.5327 2.55322 21.4551C3.06532 22.3817 3.99642 22.7143 4.95068 22.8574C5.87652 22.9962 7.10927 22.9962 8.59794 22.9961H8.6958H15.3052H15.403C16.8917 22.9962 18.1244 22.9962 19.0503 22.8574C20.0045 22.7143 20.9357 22.3817 21.4478 21.4551C21.9573 20.5327 21.7501 19.5657 21.3726 18.6738C21.0043 17.804 20.3578 16.7418 19.5747 15.4553L19.5288 15.3799L15.9145 9.44043C15.5952 8.91569 15.5404 8.80909 15.5112 8.70508C15.482 8.60061 15.4731 8.4802 15.4731 7.86426V2.99609H16.0005C16.5528 2.99609 17.0005 2.54838 17.0005 1.99609C17.0005 1.44381 16.5528 0.996094 16.0005 0.996094H14.4731H9.52783H8.00049C7.4482 0.996094 7.00049 1.44381 7.00049 1.99609C7.00049 2.54838 7.4482 2.99609 8.00049 2.99609ZM14.2056 10.4805L17.6961 16.2151C17.4826 16.2351 17.2512 16.2461 17.0005 16.2461C15.712 16.2461 14.379 15.597 12.8354 14.8252L12.7506 14.7828C11.3461 14.0802 9.75065 13.2821 8.1113 13.2473L9.79541 10.4805L9.84455 10.3999C10.0882 10.0004 10.3036 9.64738 10.4165 9.24414C10.5067 8.92181 10.5246 8.59251 10.5278 8.2334V2.99609H13.4731V8.2334C13.4764 8.59251 13.4943 8.92181 13.5845 9.24414C13.6974 9.64738 13.9127 10.0004 14.1564 10.3998L14.2056 10.4805Z" fill="black"/>
</svg>
