<svg width="20" height="20" viewBox="0 0 20 20" fill="none" xmlns="http://www.w3.org/2000/svg">
<path opacity="0.4" d="M7.24572 18.3333H12.7541C15.3654 18.3333 16.6711 18.3333 17.1429 17.4796C17.5539 16.736 17.0875 15.7868 16.0557 14.0679C15.6682 14.1307 15.2266 14.1666 14.7222 14.1666C13.2638 14.1666 11.8055 13.5416 10.3472 12.9166C8.88884 12.2916 7.43048 11.6666 5.97215 11.6666C5.77474 11.6666 5.58234 11.6718 5.39444 11.6815L4.43805 13.253C3.06945 15.5016 2.38515 16.626 2.85693 17.4796C3.32871 18.3333 4.63439 18.3333 7.24572 18.3333Z" fill="black"/>
<path d="M12.0603 1.66669V6.55655C12.0603 7.02525 12.0603 7.25961 12.1227 7.48219C12.185 7.70477 12.3065 7.90436 12.5494 8.30354L15.5618 13.253C16.9304 15.5017 17.6147 16.626 17.1429 17.4797C16.6711 18.3334 15.3654 18.3334 12.7541 18.3334H7.24572C4.63439 18.3334 3.32871 18.3334 2.85693 17.4797C2.38515 16.626 3.06945 15.5017 4.43805 13.253L7.45043 8.30354C7.69338 7.90436 7.81486 7.70477 7.87716 7.48219C7.93947 7.25961 7.93947 7.02525 7.93947 6.55655V1.66669" stroke="black" stroke-width="1.25" stroke-linecap="round" stroke-linejoin="round"/>
<path d="M6.66675 1.66669H13.3334" stroke="black" stroke-width="1.25" stroke-linecap="round" stroke-linejoin="round"/>
<path d="M15.8333 13.936C15.3911 14.0782 14.8452 14.1666 14.1666 14.1666C11.6666 14.1666 9.16659 11.6666 6.66659 11.6666C6.37695 11.6666 6.0999 11.6817 5.83325 11.7093" stroke="black" stroke-width="1.25" stroke-linecap="round" stroke-linejoin="round"/>
</svg>
