<svg width="24" height="24" viewBox="0 0 24 24" fill="none" xmlns="http://www.w3.org/2000/svg">
<path opacity="0.4" fill-rule="evenodd" clip-rule="evenodd" d="M6.33349 13.2461C6.89489 13.2461 7.45392 13.3089 8.00804 13.4169C9.58464 13.7241 11.1214 14.3966 12.5595 15.0259L12.6343 15.0586C14.551 15.8972 16.3027 16.6523 18.0143 16.738C18.1208 16.7433 18.2272 16.7461 18.3335 16.7461C19.088 16.7461 19.7215 16.683 20.2542 16.5794C20.5479 17.0726 20.8085 17.5265 21.025 17.9435C21.1585 18.2008 21.2753 18.444 21.3726 18.6738C21.7501 19.5657 21.9573 20.5327 21.4478 21.4551C20.9357 22.3817 20.0045 22.7143 19.0503 22.8574C18.1244 22.9962 16.8917 22.9962 15.403 22.9961H15.3052H8.6958H8.59794C7.10927 22.9962 5.87652 22.9962 4.95068 22.8574C3.99642 22.7143 3.06532 22.3817 2.55322 21.4551C2.0437 20.5327 2.25088 19.5657 2.62842 18.6738C2.99665 17.804 3.6432 16.7418 4.42628 15.4553L4.47217 15.3799L4.83295 14.787L5.76444 13.2562C5.95104 13.2495 6.14066 13.2461 6.33349 13.2461Z" fill="black"/>
<path d="M15.4724 2.99609H15.9997C16.552 2.99609 16.9997 2.54838 16.9997 1.99609C16.9997 1.44381 16.552 0.996094 15.9997 0.996094H14.4724H9.52706H7.99972C7.44744 0.996094 6.99972 1.44381 6.99972 1.99609C6.99972 2.54838 7.44744 2.99609 7.99972 2.99609H8.52706V7.86426C8.52706 8.4802 8.51822 8.60061 8.48898 8.70508C8.45985 8.8091 8.40503 8.91568 8.08566 9.44043L5.76367 13.2562C5.95028 13.2495 6.13989 13.2461 6.33273 13.2461C6.89412 13.2461 7.45316 13.3089 8.00728 13.4169L9.79464 10.4805L9.84378 10.3999C10.0875 10.0004 10.3029 9.64738 10.4157 9.24414C10.5059 8.92181 10.5238 8.59251 10.5271 8.2334V2.99609H13.4724V8.2334C13.4756 8.59251 13.4935 8.92181 13.5837 9.24414C13.6966 9.64738 13.912 10.0004 14.1557 10.3998L14.2048 10.4805L17.82 16.4199L18.0135 16.738C18.1201 16.7433 18.2265 16.7461 18.3327 16.7461C19.0872 16.7461 19.7207 16.683 20.2535 16.5794C20.0426 16.2253 19.8148 15.8509 19.574 15.4554L19.528 15.3799L15.9138 9.44043C15.5944 8.91569 15.5396 8.80909 15.5105 8.70508C15.4812 8.60061 15.4724 8.4802 15.4724 7.86426V2.99609Z" fill="black"/>
</svg>
