<svg width="28" height="28" viewBox="0 0 28 28" fill="none" xmlns="http://www.w3.org/2000/svg">
<path fill-rule="evenodd" clip-rule="evenodd" d="M12.8334 2.33337C7.03439 2.33337 2.33337 7.03439 2.33337 12.8334C2.33337 18.6324 7.03439 23.3334 12.8334 23.3334C15.3125 23.3334 17.591 22.4741 19.3874 21.0373L23.6751 25.325C24.1307 25.7806 24.8694 25.7806 25.325 25.325C25.7806 24.8694 25.7806 24.1307 25.325 23.6751L21.0373 19.3874C22.4741 17.591 23.3334 15.3125 23.3334 12.8334C23.3334 7.03439 18.6324 2.33337 12.8334 2.33337ZM4.66671 12.8334C4.66671 8.32305 8.32305 4.66671 12.8334 4.66671C17.3437 4.66671 21 8.32305 21 12.8334C21 17.3437 17.3437 21 12.8334 21C8.32305 21 4.66671 17.3437 4.66671 12.8334Z" fill="black"/>
</svg>
