<svg width="16" height="16" viewBox="0 0 16 16" fill="none" xmlns="http://www.w3.org/2000/svg">
<path opacity="0.4" fill-rule="evenodd" clip-rule="evenodd" d="M1.33337 7.33352C1.33337 4.01979 4.01967 1.3335 7.33337 1.3335C10.6471 1.3335 13.3334 4.01979 13.3334 7.33352C13.3334 10.6472 10.6471 13.3335 7.33337 13.3335C4.01967 13.3335 1.33337 10.6472 1.33337 7.33352ZM7.33337 2.66683C4.75605 2.66683 2.66671 4.75617 2.66671 7.33352C2.66671 9.91086 4.75605 12.0002 7.33337 12.0002C9.91071 12.0002 12 9.91086 12 7.33352C12 4.75617 9.91071 2.66683 7.33337 2.66683Z" fill="black"/>
<path d="M12.0213 11.0782C11.7429 11.4263 11.4265 11.7426 11.0785 12.0211L13.5286 14.4712C13.789 14.7316 14.2111 14.7316 14.4714 14.4712C14.7318 14.2108 14.7318 13.7888 14.4714 13.5284L12.0213 11.0782Z" fill="black"/>
</svg>
