<svg width="28" height="28" viewBox="0 0 28 28" fill="none" xmlns="http://www.w3.org/2000/svg">
<path opacity="0.4" fill-rule="evenodd" clip-rule="evenodd" d="M2.33337 12.8337C2.33337 7.03463 7.03439 2.33362 12.8334 2.33362C18.6324 2.33362 23.3334 7.03463 23.3334 12.8337C23.3334 18.6326 18.6324 23.3337 12.8334 23.3337C7.03439 23.3337 2.33337 18.6326 2.33337 12.8337ZM12.8334 4.66695C8.32305 4.66695 4.66671 8.3233 4.66671 12.8337C4.66671 17.344 8.32305 21.0003 12.8334 21.0003C17.3437 21.0003 21 17.344 21 12.8337C21 8.3233 17.3437 4.66695 12.8334 4.66695Z" fill="black"/>
<path d="M21.0372 19.387C20.55 19.9961 19.9963 20.5497 19.3873 21.037L23.6751 25.3247C24.1306 25.7803 24.8694 25.7803 25.325 25.3247C25.7805 24.869 25.7805 24.1304 25.325 23.6747L21.0372 19.387Z" fill="black"/>
</svg>
