<svg width="32" height="32" viewBox="0 0 32 32" fill="none" xmlns="http://www.w3.org/2000/svg">
<path fill-rule="evenodd" clip-rule="evenodd" d="M14.6666 2.66663C8.03921 2.66663 2.66663 8.03921 2.66663 14.6666C2.66663 21.2941 8.03921 26.6666 14.6666 26.6666C17.5 26.6666 20.104 25.6846 22.1569 24.0425L27.0572 28.9428C27.5778 29.4634 28.4221 29.4634 28.9428 28.9428C29.4634 28.4221 29.4634 27.5778 28.9428 27.0572L24.0425 22.1569C25.6846 20.104 26.6666 17.5 26.6666 14.6666C26.6666 8.03921 21.2941 2.66663 14.6666 2.66663ZM5.33329 14.6666C5.33329 9.51197 9.51197 5.33329 14.6666 5.33329C19.8213 5.33329 24 9.51197 24 14.6666C24 19.8213 19.8213 24 14.6666 24C9.51197 24 5.33329 19.8213 5.33329 14.6666Z" fill="black"/>
</svg>
