<svg width="20" height="20" viewBox="0 0 20 20" fill="none" xmlns="http://www.w3.org/2000/svg">
<path opacity="0.4" fill-rule="evenodd" clip-rule="evenodd" d="M1.66663 9.1669C1.66663 5.02474 5.02449 1.66687 9.16663 1.66687C13.3088 1.66687 16.6666 5.02474 16.6666 9.1669C16.6666 13.309 13.3088 16.6669 9.16663 16.6669C5.02449 16.6669 1.66663 13.309 1.66663 9.1669ZM9.16663 3.33354C5.94497 3.33354 3.33329 5.94521 3.33329 9.1669C3.33329 12.3886 5.94497 15.0002 9.16663 15.0002C12.3883 15.0002 15 12.3886 15 9.1669C15 5.94521 12.3883 3.33354 9.16663 3.33354Z" fill="black"/>
<path d="M15.0266 13.8478C14.6786 14.2829 14.2831 14.6783 13.8481 15.0264L16.9108 18.089C17.2362 18.4144 17.7639 18.4144 18.0893 18.089C18.4147 17.7635 18.4147 17.2359 18.0893 16.9104L15.0266 13.8478Z" fill="black"/>
</svg>
