<svg width="32" height="32" viewBox="0 0 32 32" fill="none" xmlns="http://www.w3.org/2000/svg">
<path opacity="0.4" fill-rule="evenodd" clip-rule="evenodd" d="M2.66663 14.667C2.66663 8.03958 8.03921 2.66699 14.6666 2.66699C21.2941 2.66699 26.6666 8.03958 26.6666 14.667C26.6666 21.2944 21.2941 26.667 14.6666 26.667C8.03921 26.667 2.66663 21.2944 2.66663 14.667ZM14.6666 5.33366C9.51197 5.33366 5.33329 9.51234 5.33329 14.667C5.33329 19.8217 9.51197 24.0004 14.6666 24.0004C19.8213 24.0004 24 19.8217 24 14.667C24 9.51234 19.8213 5.33366 14.6666 5.33366Z" fill="black"/>
<path d="M24.0426 22.1565C23.4858 22.8526 22.853 23.4853 22.157 24.0422L27.0572 28.9425C27.5779 29.4632 28.4222 29.4632 28.9428 28.9425C29.4635 28.4217 29.4635 27.5776 28.9428 27.0568L24.0426 22.1565Z" fill="black"/>
</svg>
