<svg width="16" height="16" viewBox="0 0 16 16" fill="none" xmlns="http://www.w3.org/2000/svg">
<path d="M8.00004 14.6666V3.99998C8.00004 2.7429 8.00004 2.11436 7.60951 1.72384C7.21897 1.33331 6.59045 1.33331 5.33337 1.33331H4.00004C2.74296 1.33331 2.11442 1.33331 1.7239 1.72384C1.33337 2.11436 1.33337 2.7429 1.33337 3.99998V12C1.33337 13.257 1.33337 13.8856 1.7239 14.2761C2.11442 14.6666 2.74296 14.6666 4.00004 14.6666H8.00004Z" stroke="black"/>
<path d="M8 14.6666H12C13.2571 14.6666 13.8856 14.6666 14.2761 14.2761C14.6667 13.8856 14.6667 13.257 14.6667 12V7.99998C14.6667 6.74291 14.6667 6.11436 14.2761 5.72384C13.8856 5.33331 13.2571 5.33331 12 5.33331H8" stroke="black"/>
<path d="M12.3334 10.6667H10.3334M12.3334 8H10.3334" stroke="black" stroke-linecap="round"/>
<path d="M5.66663 9.33333H3.66663M5.66663 6.66667H3.66663M5.66663 4H3.66663" stroke="black" stroke-linecap="round"/>
</svg>
