<svg width="28" height="28" viewBox="0 0 28 28" fill="none" xmlns="http://www.w3.org/2000/svg">
<path fill-rule="evenodd" clip-rule="evenodd" d="M6.97505 1.45832H9.35837C10.3495 1.45826 11.2035 1.45821 11.8873 1.55198C12.6202 1.65246 13.3228 1.87906 13.8926 2.46014C14.4625 3.04124 14.6846 3.75765 14.7832 4.50504C14.8752 5.20243 14.875 6.07329 14.875 7.08402V26.5416H6.97508C5.98392 26.5416 5.12993 26.5418 4.44606 26.448C3.71316 26.3475 3.01063 26.1209 2.44079 25.5398C1.87097 24.9587 1.64875 24.2423 1.55022 23.4949C1.45827 22.7976 1.45832 21.9267 1.45838 20.916V7.15908C1.45838 7.13397 1.45838 7.10895 1.45838 7.08402C1.45832 6.07329 1.45827 5.20243 1.55022 4.50504C1.64875 3.75765 1.87097 3.04124 2.44079 2.46014C3.01063 1.87906 3.71316 1.65246 4.44606 1.55198C5.12992 1.45821 5.98391 1.45826 6.97505 1.45832ZM4.74401 3.81194C4.25906 3.87843 4.10707 3.98577 4.02196 4.07257C3.93686 4.15936 3.83159 4.31436 3.76639 4.80889C3.69687 5.33621 3.69449 6.0519 3.69449 7.15908V20.8408C3.69449 21.948 3.69687 22.6638 3.76639 23.1911C3.83159 23.6856 3.93686 23.8406 4.02196 23.9274C4.10707 24.0142 4.25906 24.1215 4.74401 24.188C5.26113 24.2589 5.96293 24.2614 7.04866 24.2614H12.6389V7.15908C12.6389 6.0519 12.6366 5.33621 12.567 4.80889C12.5018 4.31436 12.3966 4.15936 12.3114 4.07257C12.2264 3.98577 12.0743 3.87843 11.5894 3.81194C11.0723 3.74104 10.3705 3.73862 9.28476 3.73862H7.04866C5.96293 3.73862 5.26113 3.74104 4.74401 3.81194Z" fill="black"/>
<path opacity="0.4" d="M23.6769 8.55154C24.4094 8.65002 25.0706 8.86664 25.6019 9.39802C26.1333 9.9294 26.35 10.5907 26.4485 11.3231C26.5418 12.017 26.5417 12.8911 26.5417 13.9393V21.0606C26.5417 22.1089 26.5418 22.983 26.4485 23.6769C26.35 24.4093 26.1333 25.0706 25.6019 25.6019C25.0706 26.1333 24.4094 26.35 23.6769 26.4484C22.983 26.5418 22.1089 26.5416 21.0607 26.5416H13.125V8.45831H21.0607C22.1089 8.45828 22.983 8.45826 23.6769 8.55154Z" fill="black"/>
<path fill-rule="evenodd" clip-rule="evenodd" d="M17.2084 14C17.2084 13.5168 17.6001 13.125 18.0834 13.125H21.5834C22.0666 13.125 22.4584 13.5168 22.4584 14C22.4584 14.4832 22.0666 14.875 21.5834 14.875H18.0834C17.6001 14.875 17.2084 14.4832 17.2084 14ZM17.2084 18.6667C17.2084 18.1834 17.6001 17.7917 18.0834 17.7917H21.5834C22.0666 17.7917 22.4584 18.1834 22.4584 18.6667C22.4584 19.1499 22.0666 19.5417 21.5834 19.5417H18.0834C17.6001 19.5417 17.2084 19.1499 17.2084 18.6667Z" fill="black"/>
<path opacity="0.4" fill-rule="evenodd" clip-rule="evenodd" d="M5.25 6.99998C5.25 6.35565 5.77234 5.83331 6.41667 5.83331H9.91667C10.561 5.83331 11.0833 6.35565 11.0833 6.99998C11.0833 7.64431 10.561 8.16665 9.91667 8.16665H6.41667C5.77234 8.16665 5.25 7.64431 5.25 6.99998ZM5.25 11.6666C5.25 11.0223 5.77234 10.5 6.41667 10.5H9.91667C10.561 10.5 11.0833 11.0223 11.0833 11.6666C11.0833 12.311 10.561 12.8333 9.91667 12.8333H6.41667C5.77234 12.8333 5.25 12.311 5.25 11.6666ZM5.25 16.3333C5.25 15.689 5.77234 15.1666 6.41667 15.1666H9.91667C10.561 15.1666 11.0833 15.689 11.0833 16.3333C11.0833 16.9777 10.561 17.5 9.91667 17.5H6.41667C5.77234 17.5 5.25 16.9777 5.25 16.3333Z" fill="black"/>
</svg>
