<svg width="20" height="20" viewBox="0 0 20 20" fill="none" xmlns="http://www.w3.org/2000/svg">
<path opacity="0.4" d="M9.99996 18.3334V5.00002C9.99996 3.42867 9.99996 2.643 9.51179 2.15485C9.02363 1.66669 8.23798 1.66669 6.66663 1.66669H4.99996C3.42861 1.66669 2.64293 1.66669 2.15478 2.15485C1.66663 2.643 1.66663 3.42867 1.66663 5.00002V15C1.66663 16.5714 1.66663 17.357 2.15478 17.8452C2.64293 18.3334 3.42861 18.3334 4.99996 18.3334H9.99996Z" fill="black"/>
<path d="M9.99996 18.3334V5.00002C9.99996 3.42867 9.99996 2.643 9.51179 2.15485C9.02363 1.66669 8.23798 1.66669 6.66663 1.66669H4.99996C3.42861 1.66669 2.64293 1.66669 2.15478 2.15485C1.66663 2.643 1.66663 3.42867 1.66663 5.00002V15C1.66663 16.5714 1.66663 17.357 2.15478 17.8452C2.64293 18.3334 3.42861 18.3334 4.99996 18.3334H9.99996Z" stroke="black" stroke-width="1.25"/>
<path d="M10 18.3334H15C16.5713 18.3334 17.357 18.3334 17.8452 17.8452C18.3333 17.357 18.3333 16.5714 18.3333 15V10C18.3333 8.42869 18.3333 7.643 17.8452 7.15485C17.357 6.66669 16.5713 6.66669 15 6.66669H10" stroke="black" stroke-width="1.25"/>
<path d="M15.4166 13.3333H12.9166M15.4166 10H12.9166" stroke="black" stroke-width="1.25" stroke-linecap="round"/>
<path d="M7.08337 11.6667H4.58337M7.08337 8.33333H4.58337M7.08337 5H4.58337" stroke="black" stroke-width="1.25" stroke-linecap="round"/>
</svg>
