<svg width="16" height="16" viewBox="0 0 16 16" fill="none" xmlns="http://www.w3.org/2000/svg">
<path fill-rule="evenodd" clip-rule="evenodd" d="M3.98576 0.833315H5.34765C5.91402 0.833281 6.40202 0.833255 6.79278 0.886835C7.21158 0.944255 7.61304 1.07374 7.93864 1.40579C8.26431 1.73784 8.39124 2.14722 8.44758 2.5743C8.50011 2.97281 8.50004 3.47044 8.50004 4.048V15.1666H3.98578C3.4194 15.1666 2.93141 15.1667 2.54062 15.1131C2.12182 15.0557 1.72038 14.9262 1.39476 14.5942C1.06914 14.2621 0.942162 13.8527 0.885856 13.4256C0.833316 13.0272 0.833342 12.5295 0.833376 11.952V4.09089C0.833376 4.07655 0.833376 4.06225 0.833376 4.048C0.833342 3.47044 0.833316 2.97281 0.885856 2.5743C0.942162 2.14722 1.06914 1.73784 1.39476 1.40579C1.72038 1.07374 2.12182 0.944255 2.54062 0.886835C2.9314 0.833255 3.4194 0.833281 3.98576 0.833315ZM2.71088 2.17824C2.43377 2.21623 2.34692 2.27757 2.29828 2.32717C2.24965 2.37677 2.1895 2.46534 2.15224 2.74793C2.11252 3.04925 2.11116 3.45822 2.11116 4.09089V11.909C2.11116 12.5417 2.11252 12.9507 2.15224 13.252C2.1895 13.5346 2.24965 13.6232 2.29828 13.6728C2.34692 13.7224 2.43377 13.7837 2.71088 13.8217C3.00638 13.8622 3.40741 13.8636 4.02782 13.8636H7.22224V4.09089C7.22224 3.45822 7.22091 3.04925 7.18118 2.74793C7.14391 2.46534 7.08378 2.37677 7.03511 2.32717C6.98651 2.27757 6.89964 2.21623 6.62254 2.17824C6.32705 2.13773 5.92601 2.13635 5.3056 2.13635H4.02782C3.40741 2.13635 3.00638 2.13773 2.71088 2.17824Z" fill="black"/>
<path opacity="0.4" d="M13.5297 4.88659C13.9482 4.94286 14.3261 5.06664 14.6297 5.37029C14.9333 5.67393 15.0571 6.0518 15.1134 6.47033C15.1667 6.86685 15.1667 7.36631 15.1667 7.96531V12.0346C15.1667 12.6336 15.1667 13.1331 15.1134 13.5296C15.0571 13.9482 14.9333 14.326 14.6297 14.6296C14.3261 14.9333 13.9482 15.0571 13.5297 15.1134C13.1331 15.1667 12.6337 15.1666 12.0347 15.1666H7.5V4.83331H12.0347C12.6337 4.83329 13.1331 4.83328 13.5297 4.88659Z" fill="black"/>
<path fill-rule="evenodd" clip-rule="evenodd" d="M9.83337 8C9.83337 7.72387 10.0572 7.5 10.3334 7.5H12.3334C12.6095 7.5 12.8334 7.72387 12.8334 8C12.8334 8.27613 12.6095 8.5 12.3334 8.5H10.3334C10.0572 8.5 9.83337 8.27613 9.83337 8ZM9.83337 10.6667C9.83337 10.3905 10.0572 10.1667 10.3334 10.1667H12.3334C12.6095 10.1667 12.8334 10.3905 12.8334 10.6667C12.8334 10.9428 12.6095 11.1667 12.3334 11.1667H10.3334C10.0572 11.1667 9.83337 10.9428 9.83337 10.6667Z" fill="black"/>
<path opacity="0.4" fill-rule="evenodd" clip-rule="evenodd" d="M3 3.99998C3 3.63179 3.29848 3.33331 3.66667 3.33331H5.66667C6.03485 3.33331 6.33333 3.63179 6.33333 3.99998C6.33333 4.36817 6.03485 4.66665 5.66667 4.66665H3.66667C3.29848 4.66665 3 4.36817 3 3.99998ZM3 6.66665C3 6.29846 3.29848 5.99998 3.66667 5.99998H5.66667C6.03485 5.99998 6.33333 6.29846 6.33333 6.66665C6.33333 7.03485 6.03485 7.33331 5.66667 7.33331H3.66667C3.29848 7.33331 3 7.03485 3 6.66665ZM3 9.33331C3 8.96511 3.29848 8.66665 3.66667 8.66665H5.66667C6.03485 8.66665 6.33333 8.96511 6.33333 9.33331C6.33333 9.70151 6.03485 9.99998 5.66667 9.99998H3.66667C3.29848 9.99998 3 9.70151 3 9.33331Z" fill="black"/>
</svg>
