<svg width="32" height="32" viewBox="0 0 32 32" fill="none" xmlns="http://www.w3.org/2000/svg">
<path fill-rule="evenodd" clip-rule="evenodd" d="M7.9714 1.66669H10.6952C11.8279 1.66662 12.8039 1.66657 13.5854 1.77373C14.423 1.88857 15.226 2.14754 15.8772 2.81164C16.5285 3.47574 16.7824 4.2945 16.895 5.14866C17.0001 5.94568 17 6.94094 17 8.09606V30.3334H7.97143C6.83868 30.3334 5.8627 30.3335 5.08112 30.2263C4.24352 30.1115 3.44063 29.8526 2.78939 29.1884C2.13816 28.5243 1.8842 27.7055 1.77159 26.8514C1.66651 26.0544 1.66656 25.0591 1.66663 23.904V8.18185C1.66663 8.15316 1.66663 8.12456 1.66663 8.09606C1.66656 6.94094 1.66651 5.94568 1.77159 5.14866C1.8842 4.2945 2.13816 3.47574 2.78939 2.81164C3.44063 2.14754 4.24352 1.88857 5.08112 1.77373C5.86268 1.66657 6.83867 1.66662 7.9714 1.66669ZM5.42164 4.35654C4.86742 4.43253 4.69371 4.55521 4.59644 4.65441C4.49918 4.7536 4.37887 4.93074 4.30436 5.49592C4.22491 6.09857 4.22219 6.9165 4.22219 8.18185V23.8182C4.22219 25.0835 4.22491 25.9015 4.30436 26.5042C4.37887 27.0694 4.49918 27.2464 4.59644 27.3456C4.69371 27.4448 4.86742 27.5675 5.42164 27.6435C6.01263 27.7246 6.8147 27.7274 8.05552 27.7274H14.4444V8.18185C14.4444 6.9165 14.4417 6.09857 14.3622 5.49592C14.2877 4.93074 14.1674 4.7536 14.0701 4.65441C13.9729 4.55521 13.7992 4.43253 13.2449 4.35654C12.654 4.27552 11.8519 4.27276 10.6111 4.27276H8.05552C6.8147 4.27276 6.01263 4.27552 5.42164 4.35654Z" fill="black"/>
<path opacity="0.4" d="M27.0593 9.77323C27.8964 9.88578 28.6521 10.1333 29.2593 10.7406C29.8667 11.3479 30.1143 12.1037 30.2268 12.9407C30.3335 13.7338 30.3333 14.7327 30.3333 15.9307V24.0694C30.3333 25.2674 30.3335 26.2663 30.2268 27.0594C30.1143 27.8964 29.8667 28.6522 29.2593 29.2594C28.6521 29.8667 27.8964 30.1143 27.0593 30.2268C26.2663 30.3335 25.2673 30.3334 24.0693 30.3334H15V9.66669H24.0693C25.2673 9.66665 26.2663 9.66662 27.0593 9.77323Z" fill="black"/>
<path fill-rule="evenodd" clip-rule="evenodd" d="M19.6666 16C19.6666 15.4477 20.1144 15 20.6666 15H24.6666C25.2189 15 25.6666 15.4477 25.6666 16C25.6666 16.5523 25.2189 17 24.6666 17H20.6666C20.1144 17 19.6666 16.5523 19.6666 16ZM19.6666 21.3333C19.6666 20.7811 20.1144 20.3333 20.6666 20.3333H24.6666C25.2189 20.3333 25.6666 20.7811 25.6666 21.3333C25.6666 21.8856 25.2189 22.3333 24.6666 22.3333H20.6666C20.1144 22.3333 19.6666 21.8856 19.6666 21.3333Z" fill="black"/>
<path opacity="0.4" fill-rule="evenodd" clip-rule="evenodd" d="M6 8.00002C6 7.26365 6.59696 6.66669 7.33333 6.66669H11.3333C12.0697 6.66669 12.6667 7.26365 12.6667 8.00002C12.6667 8.73639 12.0697 9.33335 11.3333 9.33335H7.33333C6.59696 9.33335 6 8.73639 6 8.00002ZM6 13.3334C6 12.597 6.59696 12 7.33333 12H11.3333C12.0697 12 12.6667 12.597 12.6667 13.3334C12.6667 14.0698 12.0697 14.6667 11.3333 14.6667H7.33333C6.59696 14.6667 6 14.0698 6 13.3334ZM6 18.6667C6 17.9303 6.59696 17.3334 7.33333 17.3334H11.3333C12.0697 17.3334 12.6667 17.9303 12.6667 18.6667C12.6667 19.4031 12.0697 20 11.3333 20H7.33333C6.59696 20 6 19.4031 6 18.6667Z" fill="black"/>
</svg>
