<svg width="32" height="32" viewBox="0 0 32 32" fill="none" xmlns="http://www.w3.org/2000/svg">
<path d="M16 29.3334V8.00002C16 5.48586 16 4.22878 15.2189 3.44774C14.4378 2.66669 13.1808 2.66669 10.6666 2.66669H7.99996C5.4858 2.66669 4.22872 2.66669 3.44768 3.44774C2.66663 4.22878 2.66663 5.48586 2.66663 8.00002V24C2.66663 26.5142 2.66663 27.7712 3.44768 28.5523C4.22872 29.3334 5.4858 29.3334 7.99996 29.3334H16Z" stroke="black" stroke-width="2"/>
<path d="M16 29.3334H24C26.5141 29.3334 27.7712 29.3334 28.5523 28.5523C29.3333 27.7712 29.3333 26.5142 29.3333 24V16C29.3333 13.4859 29.3333 12.2288 28.5523 11.4477C27.7712 10.6667 26.5141 10.6667 24 10.6667H16" stroke="black" stroke-width="2"/>
<path d="M24.6666 21.3333H20.6666M24.6666 16H20.6666" stroke="black" stroke-width="2" stroke-linecap="round"/>
<path d="M11.3334 18.6667H7.33337M11.3334 13.3333H7.33337M11.3334 8H7.33337" stroke="black" stroke-width="2" stroke-linecap="round"/>
</svg>
