<svg width="28" height="28" viewBox="0 0 28 28" fill="none" xmlns="http://www.w3.org/2000/svg">
<path opacity="0.4" d="M14 25.6666V6.99998C14 4.80009 14 3.70014 13.3166 3.01673C12.6332 2.33331 11.5333 2.33331 9.33337 2.33331H7.00004C4.80015 2.33331 3.70021 2.33331 3.0168 3.01673C2.33337 3.70014 2.33337 4.80009 2.33337 6.99998V21C2.33337 23.1998 2.33337 24.2998 3.0168 24.9832C3.70021 25.6666 4.80015 25.6666 7.00004 25.6666H14Z" fill="black"/>
<path d="M14 25.6666V6.99998C14 4.80009 14 3.70014 13.3166 3.01673C12.6332 2.33331 11.5333 2.33331 9.33337 2.33331H7.00004C4.80015 2.33331 3.70021 2.33331 3.0168 3.01673C2.33337 3.70014 2.33337 4.80009 2.33337 6.99998V21C2.33337 23.1998 2.33337 24.2998 3.0168 24.9832C3.70021 25.6666 4.80015 25.6666 7.00004 25.6666H14Z" stroke="black" stroke-width="1.75"/>
<path d="M14 25.6666H21C23.1999 25.6666 24.2998 25.6666 24.9832 24.9832C25.6667 24.2998 25.6667 23.1998 25.6667 21V14C25.6667 11.8001 25.6667 10.7001 24.9832 10.0167C24.2998 9.33331 23.1999 9.33331 21 9.33331H14" stroke="black" stroke-width="1.75"/>
<path d="M21.5834 18.6667H18.0834M21.5834 14H18.0834" stroke="black" stroke-width="1.75" stroke-linecap="round"/>
<path d="M9.91663 16.3333H6.41663M9.91663 11.6667H6.41663M9.91663 7H6.41663" stroke="black" stroke-width="1.75" stroke-linecap="round"/>
</svg>
