<svg width="20" height="20" viewBox="0 0 20 20" fill="none" xmlns="http://www.w3.org/2000/svg">
<path fill-rule="evenodd" clip-rule="evenodd" d="M4.98211 1.04169H6.68448C7.39244 1.04165 8.00243 1.04161 8.49088 1.10859C9.01438 1.18036 9.51621 1.34222 9.92321 1.75728C10.3303 2.17235 10.489 2.68407 10.5594 3.21792C10.625 3.71606 10.625 4.3381 10.625 5.06005V18.9584H4.98213C4.27416 18.9584 3.66417 18.9584 3.17569 18.8914C2.65219 18.8197 2.15038 18.6579 1.74335 18.2428C1.33634 17.8277 1.17761 17.3159 1.10723 16.7821C1.04155 16.284 1.04159 15.6619 1.04163 14.94V5.11366C1.04163 5.09573 1.04163 5.07786 1.04163 5.06005C1.04159 4.3381 1.04155 3.71606 1.10723 3.21792C1.17761 2.68407 1.33634 2.17235 1.74335 1.75728C2.15038 1.34222 2.65219 1.18036 3.17569 1.10859C3.66416 1.04161 4.27415 1.04165 4.98211 1.04169ZM3.38851 2.72285C3.04212 2.77034 2.93355 2.84701 2.87276 2.90901C2.81197 2.97101 2.73678 3.08172 2.69021 3.43496C2.64055 3.81161 2.63885 4.32282 2.63885 5.11366V14.8864C2.63885 15.6772 2.64055 16.1884 2.69021 16.5651C2.73678 16.9184 2.81197 17.029 2.87276 17.091C2.93355 17.153 3.04212 17.2297 3.38851 17.2772C3.75788 17.3279 4.25917 17.3296 5.03469 17.3296H9.02771V5.11366C9.02771 4.32282 9.02605 3.81161 8.97638 3.43496C8.9298 3.08172 8.85463 2.97101 8.7938 2.90901C8.73305 2.84701 8.62446 2.77034 8.27808 2.72285C7.90872 2.67221 7.40742 2.67048 6.6319 2.67048H5.03469C4.25917 2.67048 3.75788 2.67221 3.38851 2.72285Z" fill="black"/>
<path fill-rule="evenodd" clip-rule="evenodd" d="M18.2871 6.7129C17.9076 6.33335 17.4353 6.17862 16.9121 6.10829C16.4164 6.04165 15.7921 6.04166 15.0434 6.04169H9.375V18.9584H15.0433C15.7921 18.9584 16.4164 18.9584 16.9121 18.8918C17.4353 18.8214 17.9076 18.6667 18.2871 18.2871C18.6667 17.9076 18.8214 17.4353 18.8917 16.9121C18.9584 16.4164 18.9583 15.7921 18.9583 15.0434V9.95669C18.9583 9.20794 18.9584 8.5836 18.8917 8.08795C18.8214 7.5648 18.6667 7.09246 18.2871 6.7129ZM12.9167 9.37502C12.5715 9.37502 12.2917 9.65485 12.2917 10C12.2917 10.3452 12.5715 10.625 12.9167 10.625H15.4167C15.7618 10.625 16.0417 10.3452 16.0417 10C16.0417 9.65485 15.7618 9.37502 15.4167 9.37502H12.9167ZM12.9167 12.7084C12.5715 12.7084 12.2917 12.9882 12.2917 13.3334C12.2917 13.6785 12.5715 13.9584 12.9167 13.9584H15.4167C15.7618 13.9584 16.0417 13.6785 16.0417 13.3334C16.0417 12.9882 15.7618 12.7084 15.4167 12.7084H12.9167Z" fill="black"/>
<path fill-rule="evenodd" clip-rule="evenodd" d="M3.75 5.00002C3.75 4.53979 4.1231 4.16669 4.58333 4.16669H7.08333C7.54357 4.16669 7.91667 4.53979 7.91667 5.00002C7.91667 5.46025 7.54357 5.83335 7.08333 5.83335H4.58333C4.1231 5.83335 3.75 5.46025 3.75 5.00002ZM3.75 8.33335C3.75 7.87312 4.1231 7.50002 4.58333 7.50002H7.08333C7.54357 7.50002 7.91667 7.87312 7.91667 8.33335C7.91667 8.7936 7.54357 9.16669 7.08333 9.16669H4.58333C4.1231 9.16669 3.75 8.7936 3.75 8.33335ZM3.75 11.6667C3.75 11.2064 4.1231 10.8334 4.58333 10.8334H7.08333C7.54357 10.8334 7.91667 11.2064 7.91667 11.6667C7.91667 12.1269 7.54357 12.5 7.08333 12.5H4.58333C4.1231 12.5 3.75 12.1269 3.75 11.6667Z" fill="black"/>
</svg>
