<svg width="24" height="24" viewBox="0 0 24 24" fill="none" xmlns="http://www.w3.org/2000/svg">
<path fill-rule="evenodd" clip-rule="evenodd" d="M12.002 22.75C17.939 22.75 22.752 17.9371 22.752 12C22.752 9.88592 22.1417 7.91438 21.0877 6.25191L12.1914 14.7246C11.7983 15.0986 11.1786 15.0907 10.7949 14.707L7.29492 11.207C6.9044 10.8165 6.9044 10.1835 7.29492 9.79297C7.68545 9.40244 8.31846 9.40244 8.70898 9.79297L11.5186 12.6025L19.8573 4.66125C17.8954 2.56211 15.1019 1.25 12.002 1.25C6.06489 1.25 1.25195 6.06294 1.25195 12C1.25195 17.9371 6.06489 22.75 12.002 22.75Z" fill="black"/>
</svg>
