<svg width="28" height="28" viewBox="0 0 28 28" fill="none" xmlns="http://www.w3.org/2000/svg">
<path fill-rule="evenodd" clip-rule="evenodd" d="M14.0023 26.5416C20.9288 26.5416 26.544 20.9266 26.544 14C26.544 11.5336 25.8319 9.23342 24.6023 7.29388L14.2233 17.1787C13.7646 17.615 13.0417 17.6058 12.594 17.1581L8.5107 13.0748C8.0551 12.6192 8.0551 11.8807 8.5107 11.4251C8.96632 10.9695 9.70483 10.9695 10.1604 11.4251L13.4383 14.7029L23.1668 5.43811C20.8779 2.98911 17.6188 1.45831 14.0023 1.45831C7.07567 1.45831 1.46057 7.07341 1.46057 14C1.46057 20.9266 7.07567 26.5416 14.0023 26.5416Z" fill="black"/>
</svg>
