<svg width="20" height="20" viewBox="0 0 20 20" fill="none" xmlns="http://www.w3.org/2000/svg">
<path opacity="0.4" d="M18.8543 9.99999C18.8543 14.9476 14.8434 18.9583 9.89593 18.9583C4.94834 18.9583 0.937561 14.9476 0.937561 9.99999C0.937561 5.05244 4.94834 1.04166 9.89593 1.04166C14.8434 1.04166 18.8543 5.05244 18.8543 9.99999Z" fill="black"/>
<path d="M17.6546 2.72948C17.9879 2.41235 18.5157 2.42559 18.8331 2.75878C19.1501 3.09207 19.1369 3.61984 18.8037 3.93716L10.0537 12.2705C9.72615 12.5822 9.20973 12.5756 8.88998 12.2558L5.97333 9.33917C5.64789 9.01375 5.64789 8.48625 5.97333 8.16079C6.29876 7.83536 6.82627 7.83536 7.15171 8.16079L9.49298 10.5021L17.6546 2.72948Z" fill="black"/>
</svg>
