<svg width="32" height="32" viewBox="0 0 32 32" fill="none" xmlns="http://www.w3.org/2000/svg">
<path fill-rule="evenodd" clip-rule="evenodd" d="M16.0027 30.3334C23.9187 30.3334 30.336 23.9162 30.336 16C30.336 13.1812 29.5223 10.5525 28.117 8.3359L16.2552 19.6328C15.7311 20.1315 14.9048 20.121 14.3932 19.6094L9.7266 14.9427C9.20591 14.422 9.20591 13.578 9.7266 13.0573C10.2473 12.5366 11.0913 12.5366 11.612 13.0573L15.3582 16.8034L26.4764 6.21502C23.8606 3.41617 20.1359 1.66669 16.0027 1.66669C8.08656 1.66669 1.66931 8.08394 1.66931 16C1.66931 23.9162 8.08656 30.3334 16.0027 30.3334Z" fill="black"/>
</svg>
