<svg width="28" height="28" viewBox="0 0 28 28" fill="none" xmlns="http://www.w3.org/2000/svg">
<path opacity="0.4" d="M26.396 14C26.396 20.9266 20.7808 26.5417 13.8543 26.5417C6.92772 26.5417 1.31262 20.9266 1.31262 14C1.31262 7.07344 6.92772 1.45834 13.8543 1.45834C20.7808 1.45834 26.396 7.07344 26.396 14Z" fill="black"/>
<path d="M24.7166 3.82127C25.1831 3.37729 25.9221 3.39583 26.3663 3.86229C26.8103 4.3289 26.7917 5.06778 26.3253 5.51202L14.0753 17.1787C13.6167 17.615 12.8937 17.6058 12.446 17.1582L8.36271 13.0748C7.90709 12.6193 7.90709 11.8808 8.36271 11.4251C8.81832 10.9695 9.55683 10.9695 10.0124 11.4251L13.2902 14.7029L24.7166 3.82127Z" fill="black"/>
</svg>
