<svg width="16" height="16" viewBox="0 0 16 16" fill="none" xmlns="http://www.w3.org/2000/svg">
<path opacity="0.4" d="M15.0834 8.00001C15.0834 11.9581 11.8748 15.1667 7.91675 15.1667C3.95869 15.1667 0.750061 11.9581 0.750061 8.00001C0.750061 4.04197 3.95869 0.833344 7.91675 0.833344C11.8748 0.833344 15.0834 4.04197 15.0834 8.00001Z" fill="black"/>
<path d="M14.1238 2.18358C14.3904 1.92988 14.8126 1.94047 15.0665 2.20702C15.3202 2.47365 15.3096 2.89587 15.043 3.14973L8.04302 9.8164C7.78095 10.0657 7.36782 10.0605 7.11202 9.80467L4.7787 7.47133C4.51835 7.211 4.51835 6.789 4.7787 6.52863C5.03905 6.26829 5.46105 6.26829 5.72141 6.52863L7.59442 8.40167L14.1238 2.18358Z" fill="black"/>
</svg>
