<svg width="20" height="20" viewBox="0 0 20 20" fill="none" xmlns="http://www.w3.org/2000/svg">
<path fill-rule="evenodd" clip-rule="evenodd" d="M10.0016 18.9584C14.9491 18.9584 18.96 14.9476 18.96 10C18.96 8.23829 18.4514 6.59534 17.5731 5.20995L10.1595 12.2705C9.8319 12.5822 9.31548 12.5756 8.99573 12.2559L6.07908 9.33919C5.75365 9.01377 5.75365 8.48627 6.07908 8.16083C6.40452 7.83539 6.93203 7.83539 7.25747 8.16083L9.59882 10.5021L16.5477 3.8844C14.9128 2.13511 12.5849 1.04169 10.0016 1.04169C5.05406 1.04169 1.04327 5.05247 1.04327 10C1.04327 14.9476 5.05406 18.9584 10.0016 18.9584Z" fill="black"/>
</svg>
