<svg width="24" height="24" viewBox="0 0 24 24" fill="none" xmlns="http://www.w3.org/2000/svg">
<path opacity="0.4" d="M22.6251 12C22.6251 17.9371 17.8121 22.75 11.8751 22.75C5.938 22.75 1.12506 17.9371 1.12506 12C1.12506 6.06294 5.938 1.25 11.8751 1.25C17.8121 1.25 22.6251 6.06294 22.6251 12Z" fill="black"/>
<path d="M21.1856 3.27537C21.5855 2.89482 22.2189 2.91071 22.5997 3.31053C22.9802 3.71048 22.9643 4.34381 22.5645 4.72459L12.0645 14.7246C11.6714 15.0986 11.0517 15.0907 10.668 14.707L7.16802 11.207C6.77749 10.8165 6.77749 10.1835 7.16802 9.79295C7.55854 9.40243 8.19155 9.40243 8.58208 9.79295L11.3916 12.6025L21.1856 3.27537Z" fill="black"/>
</svg>
