<svg width="16" height="16" viewBox="0 0 16 16" fill="none" xmlns="http://www.w3.org/2000/svg">
<path fill-rule="evenodd" clip-rule="evenodd" d="M8.00136 15.1666C11.9594 15.1666 15.168 11.958 15.168 7.99998C15.168 6.59059 14.7612 5.27623 14.0585 4.16792L8.12762 9.81638C7.86555 10.0657 7.45242 10.0604 7.19662 9.80465L4.8633 7.47131C4.60296 7.21098 4.60296 6.78898 4.8633 6.52863C5.12366 6.26827 5.54566 6.26827 5.80601 6.52863L7.67909 8.40165L13.2382 3.10748C11.9303 1.70805 10.068 0.833313 8.00136 0.833313C4.04328 0.833313 0.834656 4.04194 0.834656 7.99998C0.834656 11.958 4.04328 15.1666 8.00136 15.1666Z" fill="black"/>
</svg>
