<svg width="32" height="32" viewBox="0 0 32 32" fill="none" xmlns="http://www.w3.org/2000/svg">
<path opacity="0.4" d="M30.1668 16C30.1668 23.9161 23.7495 30.3333 15.8335 30.3333C7.91738 30.3333 1.50012 23.9161 1.50012 16C1.50012 8.08391 7.91738 1.66666 15.8335 1.66666C23.7495 1.66666 30.1668 8.08391 30.1668 16Z" fill="black"/>
<path d="M28.2475 4.36716C28.7807 3.85976 29.6252 3.88095 30.133 4.41404C30.6403 4.94731 30.6191 5.79175 30.086 6.29946L16.086 19.6328C15.5619 20.1315 14.7356 20.1209 14.224 19.6093L9.5574 14.9427C9.03669 14.422 9.03669 13.578 9.5574 13.0573C10.0781 12.5366 10.9221 12.5366 11.4428 13.0573L15.1888 16.8033L28.2475 4.36716Z" fill="black"/>
</svg>
