<svg width="28" height="28" viewBox="0 0 28 28" fill="none" xmlns="http://www.w3.org/2000/svg">
<path opacity="0.4" d="M22.4363 21H5.56368C4.42394 21 3.5 20.076 3.5 18.9363C3.5 18.389 3.71742 17.8641 4.10444 17.477L4.80821 16.7733C5.46458 16.1169 5.83333 15.2266 5.83333 14.2984V11.0833C5.83333 6.57302 9.48968 2.91667 14 2.91667C18.5103 2.91667 22.1667 6.57301 22.1667 11.0833V14.2984C22.1667 15.2266 22.5354 16.1169 23.1918 16.7733L23.8955 17.477C24.2825 17.8641 24.5 18.389 24.5 18.9363C24.5 20.076 23.576 21 22.4363 21Z" fill="black"/>
<path d="M18.0834 21C18.0834 23.2552 16.2552 25.0833 14.0001 25.0833C11.7449 25.0833 9.91675 23.2552 9.91675 21" stroke="black" stroke-width="1.75" stroke-linecap="round" stroke-linejoin="round"/>
<path d="M22.4363 21H5.56368C4.42394 21 3.5 20.076 3.5 18.9363C3.5 18.389 3.71742 17.8641 4.10444 17.477L4.80821 16.7733C5.46458 16.1169 5.83333 15.2266 5.83333 14.2984V11.0833C5.83333 6.57302 9.48968 2.91667 14 2.91667C18.5103 2.91667 22.1667 6.57301 22.1667 11.0833V14.2984C22.1667 15.2266 22.5354 16.1169 23.1918 16.7733L23.8955 17.477C24.2825 17.8641 24.5 18.389 24.5 18.9363C24.5 20.076 23.576 21 22.4363 21Z" stroke="black" stroke-width="1.75" stroke-linecap="round" stroke-linejoin="round"/>
</svg>
