<svg width="16" height="16" viewBox="0 0 16 16" fill="none" xmlns="http://www.w3.org/2000/svg">
<path d="M10.3334 12C10.3334 13.2887 9.28875 14.3333 8.00008 14.3333C6.71141 14.3333 5.66675 13.2887 5.66675 12" stroke="black" stroke-linecap="round" stroke-linejoin="round"/>
<path d="M12.8207 12H3.17925C2.52797 12 2 11.472 2 10.8207C2 10.508 2.12424 10.2081 2.34539 9.98686L2.74755 9.58473C3.12262 9.20966 3.33333 8.70093 3.33333 8.17053V6.33333C3.33333 3.756 5.42267 1.66666 8 1.66666C10.5773 1.66666 12.6667 3.756 12.6667 6.33333V8.17053C12.6667 8.70093 12.8774 9.20966 13.2525 9.58473L13.6546 9.98686C13.8757 10.2081 14 10.508 14 10.8207C14 11.472 13.472 12 12.8207 12Z" stroke="black" stroke-linecap="round" stroke-linejoin="round"/>
</svg>
