<svg width="32" height="32" viewBox="0 0 32 32" fill="none" xmlns="http://www.w3.org/2000/svg">
<path d="M20.6666 24C20.6666 26.5773 18.5773 28.6667 15.9999 28.6667C13.4226 28.6667 11.3333 26.5773 11.3333 24" stroke="black" stroke-width="2" stroke-linecap="round" stroke-linejoin="round"/>
<path d="M25.6415 24H6.35849C5.05593 24 4 22.944 4 21.6415C4 21.016 4.24848 20.4161 4.69079 19.9737L5.49509 19.1695C6.24524 18.4193 6.66667 17.4019 6.66667 16.3411V12.6667C6.66667 7.51202 10.8453 3.33334 16 3.33334C21.1547 3.33334 25.3333 7.512 25.3333 12.6667V16.3411C25.3333 17.4019 25.7548 18.4193 26.5049 19.1695L27.3092 19.9737C27.7515 20.4161 28 21.016 28 21.6415C28 22.944 26.944 24 25.6415 24Z" stroke="black" stroke-width="2" stroke-linecap="round" stroke-linejoin="round"/>
</svg>
