<svg width="20" height="20" viewBox="0 0 20 20" fill="none" xmlns="http://www.w3.org/2000/svg">
<path d="M12.9166 15C12.9166 16.6108 11.6108 17.9167 9.99992 17.9167C8.38909 17.9167 7.08325 16.6108 7.08325 15" stroke="black" stroke-width="1.25" stroke-linecap="round" stroke-linejoin="round"/>
<path d="M16.0259 15H3.97406C3.15996 15 2.5 14.34 2.5 13.5259C2.5 13.135 2.6553 12.7601 2.93174 12.4836L3.43443 11.9809C3.90327 11.5121 4.16667 10.8762 4.16667 10.2132V7.91667C4.16667 4.69501 6.77834 2.08334 10 2.08334C13.2217 2.08334 15.8333 4.695 15.8333 7.91667V10.2132C15.8333 10.8762 16.0967 11.5121 16.5656 11.9809L17.0682 12.4836C17.3447 12.7601 17.5 13.135 17.5 13.5259C17.5 14.34 16.84 15 16.0259 15Z" stroke="black" stroke-width="1.25" stroke-linecap="round" stroke-linejoin="round"/>
</svg>
