<svg width="28" height="28" viewBox="0 0 28 28" fill="none" xmlns="http://www.w3.org/2000/svg">
<path fill-rule="evenodd" clip-rule="evenodd" d="M13.9999 3.20837C14.8054 3.20837 15.4583 3.86129 15.4583 4.66671V12.5417H23.3333C24.1387 12.5417 24.7916 13.1946 24.7916 14C24.7916 14.8055 24.1387 15.4584 23.3333 15.4584H15.4583V23.3334C15.4583 24.1388 14.8054 24.7917 13.9999 24.7917C13.1945 24.7917 12.5416 24.1388 12.5416 23.3334V15.4584H4.66659C3.86117 15.4584 3.20825 14.8055 3.20825 14C3.20825 13.1946 3.86117 12.5417 4.66659 12.5417H12.5416V4.66671C12.5416 3.86129 13.1945 3.20837 13.9999 3.20837Z" fill="black"/>
</svg>
