<svg width="32" height="32" viewBox="0 0 32 32" fill="none" xmlns="http://www.w3.org/2000/svg">
<path fill-rule="evenodd" clip-rule="evenodd" d="M16.0001 3.66663C16.9206 3.66663 17.6667 4.41281 17.6667 5.33329V14.3333H26.6667C27.5873 14.3333 28.3334 15.0794 28.3334 16C28.3334 16.9205 27.5873 17.6666 26.6667 17.6666H17.6667V26.6666C17.6667 27.5872 16.9206 28.3333 16.0001 28.3333C15.0795 28.3333 14.3334 27.5872 14.3334 26.6666V17.6666H5.33341C4.41293 17.6666 3.66675 16.9205 3.66675 16C3.66675 15.0794 4.41293 14.3333 5.33341 14.3333H14.3334V5.33329C14.3334 4.41281 15.0795 3.66663 16.0001 3.66663Z" fill="black"/>
</svg>
