<svg width="20" height="20" viewBox="0 0 20 20" fill="none" xmlns="http://www.w3.org/2000/svg">
<path fill-rule="evenodd" clip-rule="evenodd" d="M10.0001 2.29163C10.5754 2.29163 11.0417 2.75799 11.0417 3.33329V8.95829H16.6667C17.2421 8.95829 17.7084 9.42463 17.7084 9.99996C17.7084 10.5753 17.2421 11.0416 16.6667 11.0416H11.0417V16.6666C11.0417 17.242 10.5754 17.7083 10.0001 17.7083C9.42475 17.7083 8.95842 17.242 8.95842 16.6666V11.0416H3.33341C2.75811 11.0416 2.29175 10.5753 2.29175 9.99996C2.29175 9.42463 2.75811 8.95829 3.33341 8.95829H8.95842V3.33329C8.95842 2.75799 9.42475 2.29163 10.0001 2.29163Z" fill="black"/>
</svg>
