<svg width="16" height="16" viewBox="0 0 16 16" fill="none" xmlns="http://www.w3.org/2000/svg">
<path fill-rule="evenodd" clip-rule="evenodd" d="M7.99992 1.83337C8.46019 1.83337 8.83325 2.20647 8.83325 2.66671V7.16671H13.3333C13.7935 7.16671 14.1666 7.53977 14.1666 8.00004C14.1666 8.46031 13.7935 8.83337 13.3333 8.83337H8.83325V13.3334C8.83325 13.7936 8.46019 14.1667 7.99992 14.1667C7.53965 14.1667 7.16658 13.7936 7.16658 13.3334V8.83337H2.66659C2.20635 8.83337 1.83325 8.46031 1.83325 8.00004C1.83325 7.53977 2.20635 7.16671 2.66659 7.16671H7.16658V2.66671C7.16658 2.20647 7.53965 1.83337 7.99992 1.83337Z" fill="black"/>
</svg>
