<svg width="28" height="28" viewBox="0 0 28 28" fill="none" xmlns="http://www.w3.org/2000/svg">
<path opacity="0.4" d="M24.5 7.58337C24.5 9.51637 22.933 11.0834 21 11.0834C19.0669 11.0834 17.5 9.51637 17.5 7.58337C17.5 5.65038 19.0669 4.08337 21 4.08337C22.933 4.08337 24.5 5.65038 24.5 7.58337Z" fill="black"/>
<path opacity="0.4" d="M10.5 14C10.5 15.933 8.93299 17.5 7 17.5C5.06701 17.5 3.5 15.933 3.5 14C3.5 12.0669 5.06701 10.5 7 10.5C8.93299 10.5 10.5 12.0669 10.5 14Z" fill="black"/>
<path opacity="0.4" d="M24.5 20.4166C24.5 22.3497 22.933 23.9166 21 23.9166C19.0669 23.9166 17.5 22.3497 17.5 20.4166C17.5 18.4836 19.0669 16.9166 21 16.9166C22.933 16.9166 24.5 18.4836 24.5 20.4166Z" fill="black"/>
<path d="M24.5 7.58337C24.5 9.51637 22.933 11.0834 21 11.0834C19.0669 11.0834 17.5 9.51637 17.5 7.58337C17.5 5.65038 19.0669 4.08337 21 4.08337C22.933 4.08337 24.5 5.65038 24.5 7.58337Z" stroke="black" stroke-width="1.75"/>
<path d="M10.5 14C10.5 15.933 8.93299 17.5 7 17.5C5.06701 17.5 3.5 15.933 3.5 14C3.5 12.0669 5.06701 10.5 7 10.5C8.93299 10.5 10.5 12.0669 10.5 14Z" stroke="black" stroke-width="1.75"/>
<path d="M24.5 20.4166C24.5 22.3497 22.933 23.9166 21 23.9166C19.0669 23.9166 17.5 22.3497 17.5 20.4166C17.5 18.4836 19.0669 16.9166 21 16.9166C22.933 16.9166 24.5 18.4836 24.5 20.4166Z" stroke="black" stroke-width="1.75"/>
<path d="M10.1833 12.541L17.7666 9.04163M10.1833 15.4583L17.7666 18.9577" stroke="black" stroke-width="1.75"/>
</svg>
