<svg width="16" height="16" viewBox="0 0 16 16" fill="none" xmlns="http://www.w3.org/2000/svg">
<path fill-rule="evenodd" clip-rule="evenodd" d="M9.5 4.33337C9.5 2.95266 10.6193 1.83337 12 1.83337C13.3807 1.83337 14.5 2.95266 14.5 4.33337C14.5 5.71409 13.3807 6.83337 12 6.83337C10.6193 6.83337 9.5 5.71409 9.5 4.33337Z" fill="black"/>
<path fill-rule="evenodd" clip-rule="evenodd" d="M1.5 8C1.5 6.61929 2.61929 5.5 4 5.5C5.38071 5.5 6.5 6.61929 6.5 8C6.5 9.38073 5.38071 10.5 4 10.5C2.61929 10.5 1.5 9.38073 1.5 8Z" fill="black"/>
<path fill-rule="evenodd" clip-rule="evenodd" d="M9.5 11.6666C9.5 10.2859 10.6193 9.16663 12 9.16663C13.3807 9.16663 14.5 10.2859 14.5 11.6666C14.5 13.0474 13.3807 14.1666 12 14.1666C10.6193 14.1666 9.5 13.0474 9.5 11.6666Z" fill="black"/>
<path fill-rule="evenodd" clip-rule="evenodd" d="M10.4311 5.77315L6.09773 7.7728L5.53906 6.56214L9.8724 4.5625L10.4311 5.77315ZM6.09773 8.22913L10.4311 10.2288L9.8724 11.4395L5.53906 9.4398L6.09773 8.22913Z" fill="black"/>
</svg>
