<svg width="16" height="16" viewBox="0 0 16 16" fill="none" xmlns="http://www.w3.org/2000/svg">
<path opacity="0.4" d="M14 4.33337C14 5.43794 13.1046 6.33337 12 6.33337C10.8954 6.33337 10 5.43794 10 4.33337C10 3.22881 10.8954 2.33337 12 2.33337C13.1046 2.33337 14 3.22881 14 4.33337Z" fill="black"/>
<path opacity="0.4" d="M6 8C6 9.1046 5.10457 10 4 10C2.89543 10 2 9.1046 2 8C2 6.8954 2.89543 6 4 6C5.10457 6 6 6.8954 6 8Z" fill="black"/>
<path opacity="0.4" d="M14 11.6666C14 12.7712 13.1046 13.6666 12 13.6666C10.8954 13.6666 10 12.7712 10 11.6666C10 10.562 10.8954 9.66663 12 9.66663C13.1046 9.66663 14 10.562 14 11.6666Z" fill="black"/>
<path d="M14 4.33337C14 5.43794 13.1046 6.33337 12 6.33337C10.8954 6.33337 10 5.43794 10 4.33337C10 3.22881 10.8954 2.33337 12 2.33337C13.1046 2.33337 14 3.22881 14 4.33337Z" stroke="black"/>
<path d="M6 8C6 9.1046 5.10457 10 4 10C2.89543 10 2 9.1046 2 8C2 6.8954 2.89543 6 4 6C5.10457 6 6 6.8954 6 8Z" stroke="black"/>
<path d="M14 11.6666C14 12.7712 13.1046 13.6666 12 13.6666C10.8954 13.6666 10 12.7712 10 11.6666C10 10.562 10.8954 9.66663 12 9.66663C13.1046 9.66663 14 10.562 14 11.6666Z" stroke="black"/>
<path d="M5.81903 7.16629L10.1524 5.16663M5.81903 8.83329L10.1524 10.833" stroke="black"/>
</svg>
