<svg width="20" height="20" viewBox="0 0 20 20" fill="none" xmlns="http://www.w3.org/2000/svg">
<path d="M17.5 5.41663C17.5 6.79733 16.3807 7.91663 15 7.91663C13.6192 7.91663 12.5 6.79733 12.5 5.41663C12.5 4.03592 13.6192 2.91663 15 2.91663C16.3807 2.91663 17.5 4.03592 17.5 5.41663Z" stroke="black" stroke-width="1.25"/>
<path d="M7.5 10C7.5 11.3807 6.38071 12.5 5 12.5C3.61929 12.5 2.5 11.3807 2.5 10C2.5 8.61925 3.61929 7.5 5 7.5C6.38071 7.5 7.5 8.61925 7.5 10Z" stroke="black" stroke-width="1.25"/>
<path d="M17.5 14.5834C17.5 15.9641 16.3807 17.0834 15 17.0834C13.6192 17.0834 12.5 15.9641 12.5 14.5834C12.5 13.2026 13.6192 12.0834 15 12.0834C16.3807 12.0834 17.5 13.2026 17.5 14.5834Z" stroke="black" stroke-width="1.25"/>
<path opacity="0.4" d="M7.27374 8.95796L12.6904 6.45837M7.27374 11.0417L12.6904 13.5413" stroke="black" stroke-width="1.25"/>
</svg>
