<svg width="20" height="20" viewBox="0 0 20 20" fill="none" xmlns="http://www.w3.org/2000/svg">
<path fill-rule="evenodd" clip-rule="evenodd" d="M11.875 5.41663C11.875 3.69073 13.2741 2.29163 15 2.29163C16.7259 2.29163 18.125 3.69073 18.125 5.41663C18.125 7.14252 16.7259 8.54163 15 8.54163C13.2741 8.54163 11.875 7.14252 11.875 5.41663Z" fill="black"/>
<path fill-rule="evenodd" clip-rule="evenodd" d="M1.875 10C1.875 8.27411 3.27411 6.875 5 6.875C6.72589 6.875 8.125 8.27411 8.125 10C8.125 11.7259 6.72589 13.125 5 13.125C3.27411 13.125 1.875 11.7259 1.875 10Z" fill="black"/>
<path fill-rule="evenodd" clip-rule="evenodd" d="M11.875 14.5834C11.875 12.8575 13.2741 11.4584 15 11.4584C16.7259 11.4584 18.125 12.8575 18.125 14.5834C18.125 16.3093 16.7259 17.7084 15 17.7084C13.2741 17.7084 11.875 16.3093 11.875 14.5834Z" fill="black"/>
<path fill-rule="evenodd" clip-rule="evenodd" d="M13.0388 7.21644L7.62216 9.716L6.92383 8.20268L12.3405 5.70312L13.0388 7.21644ZM7.62216 10.2864L13.0388 12.786L12.3405 14.2993L6.92383 11.7998L7.62216 10.2864Z" fill="black"/>
</svg>
