<svg width="28" height="28" viewBox="0 0 28 28" fill="none" xmlns="http://www.w3.org/2000/svg">
<path fill-rule="evenodd" clip-rule="evenodd" d="M16.625 7.58337C16.625 5.16713 18.5837 3.20837 21 3.20837C23.4163 3.20837 25.375 5.16713 25.375 7.58337C25.375 9.99962 23.4163 11.9584 21 11.9584C18.5837 11.9584 16.625 9.99962 16.625 7.58337Z" fill="black"/>
<path fill-rule="evenodd" clip-rule="evenodd" d="M2.625 14C2.625 11.5838 4.58375 9.625 7 9.625C9.41625 9.625 11.375 11.5838 11.375 14C11.375 16.4163 9.41625 18.375 7 18.375C4.58375 18.375 2.625 16.4163 2.625 14Z" fill="black"/>
<path fill-rule="evenodd" clip-rule="evenodd" d="M16.625 20.4166C16.625 18.0003 18.5837 16.0416 21 16.0416C23.4163 16.0416 25.375 18.0003 25.375 20.4166C25.375 22.8329 23.4163 24.7916 21 24.7916C18.5837 24.7916 16.625 22.8329 16.625 20.4166Z" fill="black"/>
<path opacity="0.4" fill-rule="evenodd" clip-rule="evenodd" d="M18.2544 10.103L10.671 13.6024L9.69336 11.4837L17.2767 7.98438L18.2544 10.103ZM10.671 14.401L18.2544 17.9004L17.2767 20.0191L9.69336 16.5197L10.671 14.401Z" fill="black"/>
</svg>
