<svg width="32" height="32" viewBox="0 0 32 32" fill="none" xmlns="http://www.w3.org/2000/svg">
<path fill-rule="evenodd" clip-rule="evenodd" d="M19 8.66663C19 5.9052 21.2385 3.66663 24 3.66663C26.7615 3.66663 29 5.9052 29 8.66663C29 11.4281 26.7615 13.6666 24 13.6666C21.2385 13.6666 19 11.4281 19 8.66663Z" fill="black"/>
<path fill-rule="evenodd" clip-rule="evenodd" d="M3 16C3 13.2386 5.23857 11 8 11C10.7614 11 13 13.2386 13 16C13 18.7615 10.7614 21 8 21C5.23857 21 3 18.7615 3 16Z" fill="black"/>
<path fill-rule="evenodd" clip-rule="evenodd" d="M19 23.3334C19 20.5719 21.2385 18.3334 24 18.3334C26.7615 18.3334 29 20.5719 29 23.3334C29 26.0948 26.7615 28.3334 24 28.3334C21.2385 28.3334 19 26.0948 19 23.3334Z" fill="black"/>
<path fill-rule="evenodd" clip-rule="evenodd" d="M20.8621 11.5463L12.1955 15.5456L11.0781 13.1243L19.7448 9.125L20.8621 11.5463ZM12.1955 16.4583L20.8621 20.4576L19.7448 22.8789L11.0781 18.8796L12.1955 16.4583Z" fill="black"/>
</svg>
