<svg width="16" height="16" viewBox="0 0 16 16" fill="none" xmlns="http://www.w3.org/2000/svg">
<path d="M9.07847 14.2447C8.7894 14.5154 8.40293 14.6667 8.00073 14.6667C7.59853 14.6667 7.21213 14.5154 6.923 14.2447C4.27535 11.7507 0.727174 8.96464 2.45751 4.91981C3.39309 2.73281 5.63889 1.33337 8.00073 1.33337C10.3626 1.33337 12.6084 2.73281 13.544 4.91981C15.2721 8.95957 11.7327 11.7593 9.07847 14.2447Z" stroke="black"/>
<path opacity="0.4" d="M10.3333 7.33333C10.3333 8.622 9.28863 9.66667 7.99996 9.66667C6.71129 9.66667 5.66663 8.622 5.66663 7.33333C5.66663 6.04467 6.71129 5 7.99996 5C9.28863 5 10.3333 6.04467 10.3333 7.33333Z" stroke="black"/>
</svg>
