<svg width="28" height="28" viewBox="0 0 28 28" fill="none" xmlns="http://www.w3.org/2000/svg">
<path d="M15.8873 24.9282C15.3815 25.4019 14.7051 25.6667 14.0013 25.6667C13.2974 25.6667 12.6212 25.4019 12.1153 24.9282C7.48186 20.5637 1.27255 15.6881 4.30065 8.60964C5.9379 4.78239 9.86806 2.33337 14.0013 2.33337C18.1346 2.33337 22.0647 4.78239 23.702 8.60964C26.7262 15.6792 20.5322 20.5788 15.8873 24.9282Z" stroke="black" stroke-width="1.75"/>
<path opacity="0.4" d="M18.0833 12.8333C18.0833 15.0885 16.2551 16.9167 14 16.9167C11.7448 16.9167 9.91663 15.0885 9.91663 12.8333C9.91663 10.5782 11.7448 8.75 14 8.75C16.2551 8.75 18.0833 10.5782 18.0833 12.8333Z" stroke="black" stroke-width="1.75"/>
</svg>
