<svg width="28" height="28" viewBox="0 0 28 28" fill="none" xmlns="http://www.w3.org/2000/svg">
<path d="M15.8873 24.9282C15.3815 25.4019 14.7051 25.6667 14.0013 25.6667C13.2974 25.6667 12.6212 25.4019 12.1153 24.9282C7.48186 20.5637 1.27255 15.6881 4.30065 8.60964C5.9379 4.78239 9.86806 2.33337 14.0013 2.33337C18.1346 2.33337 22.0647 4.78239 23.702 8.60964C26.7262 15.6792 20.5322 20.5788 15.8873 24.9282Z" stroke="black" stroke-width="1.75"/>
<path opacity="0.4" fill-rule="evenodd" clip-rule="evenodd" d="M14.0013 25.6667C14.7051 25.6667 15.3815 25.4019 15.8873 24.9282C16.2407 24.5973 16.603 24.2633 16.9694 23.9255C21.4211 19.8209 26.4962 15.1415 23.702 8.60964C22.0647 4.78239 18.1346 2.33337 14.0013 2.33337C9.86806 2.33337 5.9379 4.78239 4.30065 8.60964C1.51775 15.1149 6.53683 19.7596 10.9644 23.857C11.3545 24.2179 11.74 24.5747 12.1152 24.9282C12.6212 25.4019 13.2974 25.6667 14.0013 25.6667ZM14 16.9167C16.2552 16.9167 18.0833 15.0885 18.0833 12.8334C18.0833 10.5782 16.2552 8.75004 14 8.75004C11.7448 8.75004 9.91667 10.5782 9.91667 12.8334C9.91667 15.0885 11.7448 16.9167 14 16.9167Z" fill="black"/>
<path d="M18.0833 12.8333C18.0833 15.0885 16.2551 16.9167 14 16.9167C11.7448 16.9167 9.91663 15.0885 9.91663 12.8333C9.91663 10.5782 11.7448 8.75 14 8.75C16.2551 8.75 18.0833 10.5782 18.0833 12.8333Z" stroke="black" stroke-width="1.75"/>
</svg>
