<svg width="20" height="20" viewBox="0 0 20 20" fill="none" xmlns="http://www.w3.org/2000/svg">
<path fill-rule="evenodd" clip-rule="evenodd" d="M10.0013 1.04163C6.81282 1.04163 3.77087 2.92748 2.49762 5.90386C1.31265 8.67379 1.95413 11.031 3.28976 13.0495C4.38481 14.7045 5.98196 16.1815 7.42285 17.514L7.42353 17.5145C7.69807 17.7685 7.96692 18.0171 8.22555 18.2607L8.22692 18.262C8.70608 18.7106 9.34267 18.9583 10.0013 18.9583C10.6599 18.9583 11.2965 18.7106 11.7757 18.262C12.0203 18.033 12.2738 17.7993 12.5325 17.561C13.9891 16.2189 15.6087 14.7266 16.7152 13.0507C18.0492 11.0301 18.6884 8.67038 17.5049 5.90386C16.2317 2.92748 13.1897 1.04163 10.0013 1.04163ZM10 5.83329C8.15905 5.83329 6.66667 7.32568 6.66667 9.16663C6.66667 11.0075 8.15905 12.5 10 12.5C11.8409 12.5 13.3333 11.0075 13.3333 9.16663C13.3333 7.32568 11.8409 5.83329 10 5.83329Z" fill="black"/>
</svg>
