<svg width="32" height="32" viewBox="0 0 32 32" fill="none" xmlns="http://www.w3.org/2000/svg">
<path d="M18.1569 28.4893C17.5788 29.0306 16.8059 29.3333 16.0015 29.3333C15.1971 29.3333 14.4243 29.0306 13.846 28.4893C8.55069 23.5013 1.45435 17.9292 4.91503 9.83951C6.78617 5.46551 11.2778 2.66663 16.0015 2.66663C20.7252 2.66663 25.2168 5.46551 27.088 9.83951C30.5443 17.919 23.4653 23.5185 18.1569 28.4893Z" stroke="black" stroke-width="2"/>
<path opacity="0.4" fill-rule="evenodd" clip-rule="evenodd" d="M16.0015 29.3333C16.8059 29.3333 17.5788 29.0306 18.1569 28.4893C18.5608 28.1112 18.9748 27.7294 19.3936 27.3433C24.4812 22.6524 30.2813 17.3045 27.088 9.83951C25.2168 5.46551 20.7252 2.66663 16.0015 2.66663C11.2778 2.66663 6.78617 5.46551 4.91503 9.83951C1.73457 17.2741 7.47067 22.5824 12.5308 27.265C12.9766 27.6776 13.4172 28.0853 13.846 28.4893C14.4243 29.0306 15.1971 29.3333 16.0015 29.3333ZM16 19.3333C18.5773 19.3333 20.6667 17.244 20.6667 14.6666C20.6667 12.0893 18.5773 9.99996 16 9.99996C13.4227 9.99996 11.3333 12.0893 11.3333 14.6666C11.3333 17.244 13.4227 19.3333 16 19.3333Z" fill="black"/>
<path d="M20.6667 14.6667C20.6667 17.244 18.5774 19.3333 16 19.3333C13.4227 19.3333 11.3334 17.244 11.3334 14.6667C11.3334 12.0893 13.4227 10 16 10C18.5774 10 20.6667 12.0893 20.6667 14.6667Z" stroke="black" stroke-width="2"/>
</svg>
