<svg width="32" height="32" viewBox="0 0 32 32" fill="none" xmlns="http://www.w3.org/2000/svg">
<path fill-rule="evenodd" clip-rule="evenodd" d="M16.002 1.66663C10.9005 1.66663 6.0334 4.684 3.99619 9.4462C2.10024 13.8781 3.12661 17.6497 5.26361 20.8793C7.01569 23.5272 9.57113 25.8904 11.8766 28.0224L11.8777 28.0233C12.3169 28.4296 12.7471 28.8274 13.1609 29.2172L13.1631 29.2193C13.9297 29.937 14.9483 30.3333 16.002 30.3333C17.0559 30.3333 18.0744 29.937 18.8411 29.2192C19.2324 28.8528 19.6381 28.4789 20.052 28.0976C22.3825 25.9502 24.9739 23.5626 26.7443 20.8812C28.8788 17.6482 29.9015 13.8726 28.0079 9.4462C25.9707 4.684 21.1036 1.66663 16.002 1.66663ZM16 9.33329C13.0545 9.33329 10.6667 11.7211 10.6667 14.6666C10.6667 17.6121 13.0545 20 16 20C18.9455 20 21.3333 17.6121 21.3333 14.6666C21.3333 11.7211 18.9455 9.33329 16 9.33329Z" fill="black"/>
</svg>
