<svg width="16" height="16" viewBox="0 0 16 16" fill="none" xmlns="http://www.w3.org/2000/svg">
<path d="M9.07847 14.2447C8.7894 14.5154 8.40293 14.6667 8.00073 14.6667C7.59853 14.6667 7.21213 14.5154 6.923 14.2447C4.27535 11.7507 0.727174 8.96464 2.45751 4.91981C3.39309 2.73281 5.63889 1.33337 8.00073 1.33337C10.3626 1.33337 12.6084 2.73281 13.544 4.91981C15.2721 8.95957 11.7327 11.7593 9.07847 14.2447Z" stroke="black"/>
<path opacity="0.4" fill-rule="evenodd" clip-rule="evenodd" d="M8.00073 14.6667C8.40293 14.6667 8.7894 14.5154 9.07847 14.2447C9.2804 14.0556 9.4874 13.8648 9.6968 13.6717C12.2406 11.3262 15.1407 8.65231 13.544 4.91981C12.6084 2.73281 10.3626 1.33337 8.00073 1.33337C5.63889 1.33337 3.39309 2.73281 2.45751 4.91981C0.867287 8.63711 3.73533 11.2912 6.26539 13.6326C6.48831 13.8388 6.7086 14.0427 6.923 14.2447C7.21213 14.5154 7.59853 14.6667 8.00073 14.6667ZM8 9.66671C9.28867 9.66671 10.3333 8.62204 10.3333 7.33337C10.3333 6.04471 9.28867 5.00004 8 5.00004C6.71133 5.00004 5.66667 6.04471 5.66667 7.33337C5.66667 8.62204 6.71133 9.66671 8 9.66671Z" fill="black"/>
<path d="M10.3333 7.33333C10.3333 8.622 9.28863 9.66667 7.99996 9.66667C6.71129 9.66667 5.66663 8.622 5.66663 7.33333C5.66663 6.04467 6.71129 5 7.99996 5C9.28863 5 10.3333 6.04467 10.3333 7.33333Z" stroke="black"/>
</svg>
