<svg width="20" height="20" viewBox="0 0 20 20" fill="none" xmlns="http://www.w3.org/2000/svg">
<path d="M11.3481 17.8058C10.9867 18.1441 10.5037 18.3333 10.0009 18.3333C9.49817 18.3333 9.01517 18.1441 8.65375 17.8058C5.34418 14.6883 0.908967 11.2057 3.07189 6.14968C4.24136 3.41593 7.04862 1.66663 10.0009 1.66663C12.9532 1.66663 15.7605 3.41593 16.93 6.14968C19.0902 11.1994 14.6658 14.699 11.3481 17.8058Z" stroke="black" stroke-width="1.25"/>
<path opacity="0.4" fill-rule="evenodd" clip-rule="evenodd" d="M10.0009 18.3333C10.5037 18.3333 10.9868 18.1441 11.3481 17.8058C11.6005 17.5695 11.8593 17.3309 12.121 17.0895C15.3008 14.1577 18.9258 10.8153 16.93 6.14968C15.7605 3.41593 12.9533 1.66663 10.0009 1.66663C7.04862 1.66663 4.24136 3.41593 3.07189 6.14968C1.08411 10.7963 4.66917 14.114 7.83173 17.0406C8.11038 17.2985 8.38575 17.5533 8.65375 17.8058C9.01517 18.1441 9.49817 18.3333 10.0009 18.3333ZM10 12.0833C11.6108 12.0833 12.9167 10.7775 12.9167 9.16663C12.9167 7.55579 11.6108 6.24996 10 6.24996C8.38917 6.24996 7.08333 7.55579 7.08333 9.16663C7.08333 10.7775 8.38917 12.0833 10 12.0833Z" fill="black"/>
<path d="M12.9167 9.16667C12.9167 10.7775 11.6109 12.0833 10 12.0833C8.38921 12.0833 7.08337 10.7775 7.08337 9.16667C7.08337 7.55583 8.38921 6.25 10 6.25C11.6109 6.25 12.9167 7.55583 12.9167 9.16667Z" stroke="black" stroke-width="1.25"/>
</svg>
