<svg width="16" height="16" viewBox="0 0 16 16" fill="none" xmlns="http://www.w3.org/2000/svg">
<path fill-rule="evenodd" clip-rule="evenodd" d="M8.001 0.833374C5.45025 0.833374 3.0167 2.34206 1.99809 4.72316C1.05012 6.93911 1.56331 8.82491 2.63181 10.4397C3.50785 11.7636 4.78557 12.9452 5.93828 14.0112L5.93883 14.0117C6.15845 14.2148 6.37354 14.4138 6.58044 14.6086L6.58154 14.6097C6.96487 14.9686 7.47413 15.1667 8.001 15.1667C8.52793 15.1667 9.0372 14.9686 9.42053 14.6096C9.6162 14.4264 9.81907 14.2395 10.026 14.0488C11.1913 12.9752 12.4869 11.7814 13.3721 10.4406C14.4394 8.82417 14.9507 6.93637 14.0039 4.72316C12.9853 2.34206 10.5518 0.833374 8.001 0.833374ZM8 4.66671C6.52724 4.66671 5.33333 5.86061 5.33333 7.33337C5.33333 8.80611 6.52724 10 8 10C9.47273 10 10.6667 8.80611 10.6667 7.33337C10.6667 5.86061 9.47273 4.66671 8 4.66671Z" fill="black"/>
</svg>
