<svg width="28" height="28" viewBox="0 0 28 28" fill="none" xmlns="http://www.w3.org/2000/svg">
<path fill-rule="evenodd" clip-rule="evenodd" d="M14.0018 1.45837C9.53794 1.45837 5.27922 4.09858 3.49666 8.2655C1.83771 12.1434 2.73579 15.4436 4.60566 18.2695C6.13873 20.5863 8.37474 22.6541 10.392 24.5196L10.3929 24.5205C10.7773 24.8759 11.1537 25.2241 11.5158 25.5651L11.5177 25.567C12.1885 26.195 13.0797 26.5417 14.0018 26.5417C14.9239 26.5417 15.8151 26.195 16.4859 25.5668C16.8284 25.2462 17.1834 24.9191 17.5455 24.5854C19.5847 22.7065 21.8521 20.6174 23.4012 18.2711C25.269 15.4423 26.1638 12.1386 24.5069 8.2655C22.7243 4.09858 18.4657 1.45837 14.0018 1.45837ZM14 8.16671C11.4227 8.16671 9.33333 10.256 9.33333 12.8334C9.33333 15.4107 11.4227 17.5 14 17.5C16.5773 17.5 18.6667 15.4107 18.6667 12.8334C18.6667 10.256 16.5773 8.16671 14 8.16671Z" fill="black"/>
</svg>
