<svg width="16" height="16" viewBox="0 0 16 16" fill="none" xmlns="http://www.w3.org/2000/svg">
<path d="M9.2832 14H6.7168C3.62984 14 2.08636 14 1.51757 12.9959C0.948778 11.9919 1.73824 10.6609 3.31716 7.999L4.60038 5.83555C6.11706 3.27852 6.8754 2 8 2C9.1246 2 9.88293 3.27851 11.3996 5.83555L12.6829 7.999C14.2617 10.6609 15.0512 11.9919 14.4824 12.9959C13.9136 14 12.3701 14 9.2832 14Z" stroke="black" stroke-linecap="round" stroke-linejoin="round"/>
<path d="M8 11.3333V8.66663" stroke="black" stroke-linecap="round" stroke-linejoin="round"/>
<path d="M8 6.16667H8.08334M8.16667 6.16667C8.16667 6.07462 8.09207 6 8 6C7.90794 6 7.83334 6.07462 7.83334 6.16667C7.83334 6.25871 7.90794 6.33333 8 6.33333C8.09207 6.33333 8.16667 6.25871 8.16667 6.16667Z" stroke="black" stroke-linecap="round" stroke-linejoin="round"/>
</svg>
