<svg width="20" height="20" viewBox="0 0 20 20" fill="none" xmlns="http://www.w3.org/2000/svg">
<path opacity="0.4" d="M11.604 17.5H8.396C4.5373 17.5 2.60796 17.5 1.89697 16.2449C1.18598 14.9899 2.1728 13.3262 4.14645 9.99875L5.75048 7.29444C7.64633 4.09815 8.59425 2.5 10 2.5C11.4058 2.5 12.3537 4.09814 14.2495 7.29443L15.8536 9.99875C17.8272 13.3262 18.814 14.9899 18.103 16.2449C17.392 17.5 15.4627 17.5 11.604 17.5Z" fill="black"/>
<path d="M11.604 17.5H8.396C4.5373 17.5 2.60796 17.5 1.89697 16.2449C1.18598 14.9899 2.1728 13.3262 4.14645 9.99875L5.75048 7.29444C7.64633 4.09815 8.59425 2.5 10 2.5C11.4058 2.5 12.3537 4.09814 14.2495 7.29443L15.8536 9.99875C17.8272 13.3262 18.814 14.9899 18.103 16.2449C17.392 17.5 15.4627 17.5 11.604 17.5Z" stroke="black" stroke-width="1.25" stroke-linecap="round" stroke-linejoin="round"/>
<path d="M10 14.1667V10.8334" stroke="black" stroke-width="1.25" stroke-linecap="round" stroke-linejoin="round"/>
<path d="M10 7.70833H10.1042M10.2083 7.70833C10.2083 7.59327 10.1151 7.5 10 7.5C9.88491 7.5 9.79166 7.59327 9.79166 7.70833C9.79166 7.82339 9.88491 7.91667 10 7.91667C10.1151 7.91667 10.2083 7.82339 10.2083 7.70833Z" stroke="black" stroke-width="1.25" stroke-linecap="round" stroke-linejoin="round"/>
</svg>
