<svg width="28" height="28" viewBox="0 0 28 28" fill="none" xmlns="http://www.w3.org/2000/svg">
<path fill-rule="evenodd" clip-rule="evenodd" d="M16.3311 25.375C18.9618 25.375 21.0386 25.375 22.5769 25.146C24.1387 24.9133 25.4058 24.4086 26.1053 23.1738C26.8042 21.9401 26.5883 20.5916 25.9891 19.1269C25.4004 17.6883 24.3431 15.9049 23.0029 13.6457L22.9472 13.5522L20.7016 9.76627L20.648 9.67513C19.3615 7.5061 18.3434 5.79049 17.3964 4.62565C16.4301 3.43717 15.3819 2.625 14 2.625C12.6182 2.62505 11.57 3.43717 10.6037 4.62565C9.6567 5.79043 8.6396 7.50629 7.35323 9.67513L7.29853 9.76627L5.05293 13.5522L4.99711 13.6457C3.65701 15.9049 2.59959 17.6883 2.01094 19.1269C1.41174 20.5914 1.19595 21.9401 1.89473 23.1738C2.59424 24.4086 3.86139 24.9133 5.42321 25.146C6.9614 25.375 9.03818 25.375 11.669 25.375H16.3311ZM14 11.9583C13.3557 11.9583 12.8333 11.436 12.8333 10.7917C12.8333 10.1473 13.3557 9.625 14 9.625C14.6444 9.625 15.1667 10.1473 15.1667 10.7917C15.1667 11.436 14.6444 11.9583 14 11.9583ZM14 21C13.3557 21 12.8333 20.4777 12.8333 19.8333V15.1667C12.8333 14.5223 13.3557 14 14 14C14.6444 14 15.1667 14.5223 15.1667 15.1667V19.8333C15.1667 20.4777 14.6444 21 14 21Z" fill="black"/>
</svg>
