<svg width="20" height="20" viewBox="0 0 20 20" fill="none" xmlns="http://www.w3.org/2000/svg">
<path opacity="0.4" d="M12.426 3.30403C11.7358 2.4551 10.9871 1.875 10 1.875C9.013 1.875 8.26435 2.4551 7.5741 3.30403C6.89763 4.13606 6.17076 5.36156 5.25185 6.91084L5.21326 6.97591L3.60925 9.68017L3.56958 9.74708C2.61237 11.3608 1.85687 12.6345 1.4364 13.6621C1.00839 14.7083 0.854238 15.6715 1.3534 16.5527C1.85306 17.4347 2.75811 17.7952 3.87374 17.9614C4.97247 18.125 6.45584 18.125 8.335 18.125H8.396H11.6041H11.6651C13.5443 18.125 15.0276 18.125 16.1263 17.9614C17.242 17.7952 18.147 17.4347 18.6467 16.5527C19.1458 15.6715 18.9917 14.7083 18.5637 13.6621C18.1433 12.6345 17.3877 11.3607 16.4305 9.747L16.3908 9.68017L14.7868 6.97591L14.7483 6.91088C13.8293 5.36158 13.1025 4.13607 12.426 3.30403Z" fill="black"/>
<path d="M9.16658 14.1667V10.8333C9.16658 10.3731 9.53975 10 9.99991 10C10.4602 10 10.8332 10.3731 10.8332 10.8333V14.1667C10.8332 14.6269 10.4602 15 9.99991 15C9.53975 15 9.16658 14.6269 9.16658 14.1667Z" fill="black"/>
<path d="M9.99991 6.875C10.4602 6.875 10.8332 7.24809 10.8332 7.70833C10.8332 8.16857 10.4602 8.54167 9.99991 8.54167C9.53975 8.54167 9.16658 8.16857 9.16658 7.70833C9.16658 7.2481 9.53975 6.875 9.99991 6.875Z" fill="black"/>
</svg>
