<svg width="28" height="28" viewBox="0 0 28 28" fill="none" xmlns="http://www.w3.org/2000/svg">
<path opacity="0.4" d="M17.3964 4.62565C16.4301 3.43714 15.3819 2.625 14 2.625C12.6182 2.625 11.5701 3.43714 10.6037 4.62565C9.65668 5.79048 8.63907 7.50618 7.3526 9.67518L7.29857 9.76627L5.05296 13.5522L4.99741 13.6459C3.65732 15.9052 2.59962 17.6883 2.01097 19.1269C1.41174 20.5916 1.19593 21.9401 1.89476 23.1738C2.59429 24.4086 3.86136 24.9133 5.42323 25.146C6.96146 25.375 9.03817 25.375 11.669 25.375H11.7544H16.2457H16.3311C18.962 25.375 21.0386 25.375 22.5769 25.146C24.1388 24.9133 25.4058 24.4086 26.1053 23.1738C26.8042 21.9401 26.5883 20.5916 25.9891 19.1269C25.4006 17.6883 24.3427 15.905 23.0027 13.6458L22.9472 13.5522L20.7016 9.76627L20.6476 9.67524C19.3611 7.50621 18.3435 5.79049 17.3964 4.62565Z" fill="black"/>
<path d="M12.8332 19.8333V15.1667C12.8332 14.5223 13.3556 14 13.9999 14C14.6442 14 15.1665 14.5223 15.1665 15.1667V19.8333C15.1665 20.4777 14.6442 21 13.9999 21C13.3556 21 12.8332 20.4777 12.8332 19.8333Z" fill="black"/>
<path d="M13.9999 9.625C14.6442 9.625 15.1665 10.1473 15.1665 10.7917C15.1665 11.436 14.6442 11.9583 13.9999 11.9583C13.3556 11.9583 12.8332 11.436 12.8332 10.7917C12.8332 10.1473 13.3556 9.625 13.9999 9.625Z" fill="black"/>
</svg>
