<svg width="16" height="16" viewBox="0 0 16 16" fill="none" xmlns="http://www.w3.org/2000/svg">
<path opacity="0.4" d="M9.9408 2.64323C9.3886 1.96408 8.78967 1.5 8 1.5C7.2104 1.5 6.61148 1.96408 6.05927 2.64323C5.5181 3.30885 4.93661 4.28925 4.20148 5.52867L4.17061 5.58073L2.8874 7.74413L2.85566 7.79767C2.08989 9.08867 1.48549 10.1076 1.14912 10.9297C0.806706 11.7666 0.683386 12.5372 1.08271 13.2422C1.48245 13.9478 2.20649 14.2362 3.09899 14.3691C3.97797 14.5 5.16467 14.5 6.668 14.5H6.7168H9.28327H9.33207C10.8354 14.5 12.0221 14.5 12.9011 14.3691C13.7936 14.2362 14.5176 13.9478 14.9173 13.2422C15.3167 12.5372 15.1933 11.7666 14.8509 10.9297C14.5146 10.1076 13.9101 9.0886 13.1444 7.7976L13.1127 7.74413L11.8295 5.58073L11.7986 5.52871C11.0635 4.28926 10.482 3.30885 9.9408 2.64323Z" fill="black"/>
<path d="M7.33326 11.3333V8.66667C7.33326 8.29847 7.63179 8 7.99993 8C8.36813 8 8.66659 8.29847 8.66659 8.66667V11.3333C8.66659 11.7015 8.36813 12 7.99993 12C7.63179 12 7.33326 11.7015 7.33326 11.3333Z" fill="black"/>
<path d="M7.99993 5.5C8.36813 5.5 8.66659 5.79847 8.66659 6.16667C8.66659 6.53485 8.36813 6.83333 7.99993 6.83333C7.63179 6.83333 7.33326 6.53485 7.33326 6.16667C7.33326 5.79848 7.63179 5.5 7.99993 5.5Z" fill="black"/>
</svg>
