<svg width="16" height="16" viewBox="0 0 16 16" fill="none" xmlns="http://www.w3.org/2000/svg">
<path fill-rule="evenodd" clip-rule="evenodd" d="M9.33206 14.5C10.8353 14.5 12.0221 14.5 12.9011 14.3691C13.7935 14.2362 14.5176 13.9478 14.9173 13.2422C15.3167 12.5372 15.1933 11.7666 14.8509 10.9297C14.5145 10.1076 13.9103 9.08853 13.1445 7.79753L13.1127 7.74413L11.8295 5.58073L11.7989 5.52865C11.0637 4.2892 10.4819 3.30885 9.9408 2.64323C9.3886 1.9641 8.78966 1.5 8 1.5C7.2104 1.50003 6.61144 1.9641 6.05926 2.64323C5.51811 3.30882 4.93691 4.28931 4.20184 5.52865L4.17058 5.58073L2.88738 7.74413L2.85548 7.79753C2.08972 9.08853 1.48548 10.1076 1.1491 10.9297C0.806704 11.7665 0.683397 12.5372 1.0827 13.2422C1.48242 13.9478 2.2065 14.2362 3.09897 14.3691C3.97794 14.5 5.16467 14.5 6.668 14.5H9.33206ZM8 6.83333C7.6318 6.83333 7.33333 6.53485 7.33333 6.16667C7.33333 5.79847 7.6318 5.5 8 5.5C8.3682 5.5 8.66666 5.79847 8.66666 6.16667C8.66666 6.53485 8.3682 6.83333 8 6.83333ZM8 12C7.6318 12 7.33333 11.7015 7.33333 11.3333V8.66667C7.33333 8.29847 7.6318 8 8 8C8.3682 8 8.66666 8.29847 8.66666 8.66667V11.3333C8.66666 11.7015 8.3682 12 8 12Z" fill="black"/>
</svg>
