<svg width="28" height="28" viewBox="0 0 28 28" fill="none" xmlns="http://www.w3.org/2000/svg">
<path opacity="0.4" d="M16.2456 24.5H11.7544C6.35222 24.5 3.65114 24.5 2.65575 22.7429C1.66036 20.9859 3.04192 18.6566 5.80503 13.9982L8.05066 10.2122C10.7049 5.73741 12.0319 3.5 14 3.5C15.968 3.5 17.2951 5.7374 19.9493 10.2122L22.195 13.9982C24.958 18.6566 26.3396 20.9859 25.3442 22.7429C24.3488 24.5 21.6477 24.5 16.2456 24.5Z" fill="black"/>
<path d="M16.2456 24.5H11.7544C6.35222 24.5 3.65114 24.5 2.65575 22.7429C1.66036 20.9859 3.04192 18.6566 5.80503 13.9982L8.05066 10.2122C10.7049 5.73741 12.0319 3.5 14 3.5C15.968 3.5 17.2951 5.7374 19.9493 10.2122L22.195 13.9982C24.958 18.6566 26.3396 20.9859 25.3442 22.7429C24.3488 24.5 21.6477 24.5 16.2456 24.5Z" stroke="black" stroke-width="1.75" stroke-linecap="round" stroke-linejoin="round"/>
<path d="M14 19.8333V15.1666" stroke="black" stroke-width="1.75" stroke-linecap="round" stroke-linejoin="round"/>
<path d="M14 10.7917H14.1458M14.2917 10.7917C14.2917 10.6306 14.1611 10.5 14 10.5C13.8389 10.5 13.7083 10.6306 13.7083 10.7917C13.7083 10.9527 13.8389 11.0833 14 11.0833C14.1611 11.0833 14.2917 10.9527 14.2917 10.7917Z" stroke="black" stroke-width="1.75" stroke-linecap="round" stroke-linejoin="round"/>
</svg>
