<svg width="32" height="32" viewBox="0 0 32 32" fill="none" xmlns="http://www.w3.org/2000/svg">
<path fill-rule="evenodd" clip-rule="evenodd" d="M18.6641 29C21.6707 29 24.0441 29 25.8021 28.7383C27.5871 28.4724 29.0352 27.8956 29.8347 26.4844C30.6333 25.0744 30.3867 23.5332 29.7019 21.8593C29.0291 20.2152 27.8207 18.1771 26.2891 15.5951L26.2253 15.4883L23.6589 11.1615L23.5977 11.0573C22.1275 8.5784 20.9639 6.61771 19.8816 5.28645C18.7772 3.9282 17.5793 3 16 3C14.4208 3.00005 13.2229 3.9282 12.1185 5.28645C11.0362 6.61764 9.87382 8.57861 8.40367 11.0573L8.34117 11.1615L5.77477 15.4883L5.71097 15.5951C4.17943 18.1771 2.97095 20.2152 2.29821 21.8593C1.61341 23.5331 1.36679 25.0744 2.16539 26.4844C2.96483 27.8956 4.41301 28.4724 6.19794 28.7383C7.95587 29 10.3293 29 13.336 29H18.6641ZM16 13.6667C15.2636 13.6667 14.6667 13.0697 14.6667 12.3333C14.6667 11.5969 15.2636 11 16 11C16.7364 11 17.3333 11.5969 17.3333 12.3333C17.3333 13.0697 16.7364 13.6667 16 13.6667ZM16 24C15.2636 24 14.6667 23.4031 14.6667 22.6667V17.3333C14.6667 16.5969 15.2636 16 16 16C16.7364 16 17.3333 16.5969 17.3333 17.3333V22.6667C17.3333 23.4031 16.7364 24 16 24Z" fill="black"/>
</svg>
