<svg width="32" height="32" viewBox="0 0 32 32" fill="none" xmlns="http://www.w3.org/2000/svg">
<path d="M18.5664 28H13.4336C7.25967 28 4.17273 28 3.03514 25.9919C1.89756 23.9839 3.47648 21.3219 6.63432 15.998L9.20076 11.6711C12.2341 6.55704 13.7508 4 16 4C18.2492 4 19.7659 6.55703 22.7992 11.6711L25.3657 15.998C28.5235 21.3219 30.1024 23.9839 28.9648 25.9919C27.8272 28 24.7403 28 18.5664 28Z" stroke="black" stroke-width="2" stroke-linecap="round" stroke-linejoin="round"/>
<path opacity="0.4" d="M16 22.6667V17.3334" stroke="black" stroke-width="2" stroke-linecap="round" stroke-linejoin="round"/>
<path opacity="0.4" d="M16 12.3333H16.1667M16.3333 12.3333C16.3333 12.1492 16.1841 12 16 12C15.8159 12 15.6667 12.1492 15.6667 12.3333C15.6667 12.5174 15.8159 12.6667 16 12.6667C16.1841 12.6667 16.3333 12.5174 16.3333 12.3333Z" stroke="black" stroke-width="2" stroke-linecap="round" stroke-linejoin="round"/>
</svg>
