<svg width="20" height="20" viewBox="0 0 20 20" fill="none" xmlns="http://www.w3.org/2000/svg">
<path fill-rule="evenodd" clip-rule="evenodd" d="M11.6651 18.125C13.5442 18.125 15.0276 18.125 16.1263 17.9614C17.2419 17.7952 18.147 17.4347 18.6467 16.5527C19.1458 15.6715 18.9917 14.7083 18.5637 13.6621C18.1432 12.6345 17.3879 11.3607 16.4307 9.74692L16.3908 9.68017L14.7868 6.97591L14.7486 6.91081C13.8297 5.3615 13.1024 4.13607 12.426 3.30403C11.7358 2.45512 10.9871 1.875 10 1.875C9.013 1.87503 8.26431 2.45512 7.57408 3.30403C6.89764 4.13602 6.17114 5.36163 5.2523 6.91081L5.21324 6.97591L3.60924 9.68017L3.56936 9.74692C2.61215 11.3607 1.85685 12.6345 1.43639 13.6621C1.00839 14.7082 0.854252 15.6715 1.35338 16.5527C1.85303 17.4347 2.75814 17.7952 3.87372 17.9614C4.97243 18.125 6.45584 18.125 8.335 18.125H11.6651ZM10 8.54167C9.53975 8.54167 9.16667 8.16857 9.16667 7.70833C9.16667 7.24809 9.53975 6.875 10 6.875C10.4603 6.875 10.8333 7.24809 10.8333 7.70833C10.8333 8.16857 10.4603 8.54167 10 8.54167ZM10 15C9.53975 15 9.16667 14.6269 9.16667 14.1667V10.8333C9.16667 10.3731 9.53975 10 10 10C10.4603 10 10.8333 10.3731 10.8333 10.8333V14.1667C10.8333 14.6269 10.4603 15 10 15Z" fill="black"/>
</svg>
