<svg width="32" height="32" viewBox="0 0 32 32" fill="none" xmlns="http://www.w3.org/2000/svg">
<path opacity="0.4" d="M19.8816 5.28645C18.7772 3.92816 17.5793 3 16 3C14.4208 3 13.223 3.92816 12.1185 5.28645C11.0362 6.61769 9.87321 8.57849 8.40296 11.0573L8.34121 11.1615L5.7748 15.4883L5.71132 15.5953C4.17979 18.1773 2.97099 20.2152 2.29824 21.8593C1.61341 23.5332 1.36677 25.0744 2.16543 26.4844C2.96489 27.8956 4.41297 28.4724 6.19797 28.7383C7.95595 29 10.3293 29 13.336 29H13.4336H18.5665H18.6641C21.6708 29 24.0441 29 25.8021 28.7383C27.5872 28.4724 29.0352 27.8956 29.8347 26.4844C30.6333 25.0744 30.3867 23.5332 29.7019 21.8593C29.0292 20.2152 27.8203 18.1772 26.2888 15.5952L26.2253 15.4883L23.6589 11.1615L23.5972 11.0574C22.1269 8.57852 20.964 6.61771 19.8816 5.28645Z" fill="black"/>
<path d="M14.6665 22.6667V17.3333C14.6665 16.5969 15.2636 16 15.9999 16C16.7363 16 17.3332 16.5969 17.3332 17.3333V22.6667C17.3332 23.4031 16.7363 24 15.9999 24C15.2636 24 14.6665 23.4031 14.6665 22.6667Z" fill="black"/>
<path d="M15.9999 11C16.7363 11 17.3332 11.5969 17.3332 12.3333C17.3332 13.0697 16.7363 13.6667 15.9999 13.6667C15.2636 13.6667 14.6665 13.0697 14.6665 12.3333C14.6665 11.597 15.2636 11 15.9999 11Z" fill="black"/>
</svg>
