<svg width="24" height="24" viewBox="0 0 24 24" fill="none" xmlns="http://www.w3.org/2000/svg">
<path fill-rule="evenodd" clip-rule="evenodd" d="M13.9981 21.75C16.253 21.75 18.0331 21.75 19.3516 21.5537C20.6903 21.3543 21.7764 20.9217 22.376 19.8633C22.975 18.8058 22.79 17.6499 22.2764 16.3945C21.7718 15.1614 20.8655 13.6328 19.7168 11.6963L19.669 11.6162L17.7442 8.37109L17.6983 8.29297C16.5956 6.4338 15.7229 4.96328 14.9112 3.96484C14.0829 2.94615 13.1845 2.25 12 2.25C10.8156 2.25004 9.91717 2.94615 9.08889 3.96484C8.27717 4.96323 7.40537 6.43396 6.30276 8.29297L6.25588 8.37109L4.33108 11.6162L4.28323 11.6963C3.13458 13.6328 2.22822 15.1614 1.72366 16.3945C1.21006 17.6498 1.0251 18.8058 1.62405 19.8633C2.22363 20.9217 3.30976 21.3543 4.64846 21.5537C5.96691 21.75 7.74701 21.75 10.002 21.75H13.9981ZM12 10.25C11.4477 10.25 11 9.80228 11 9.25C11 8.69771 11.4477 8.25 12 8.25C12.5523 8.25 13 8.69771 13 9.25C13 9.80228 12.5523 10.25 12 10.25ZM12 18C11.4477 18 11 17.5523 11 17V13C11 12.4477 11.4477 12 12 12C12.5523 12 13 12.4477 13 13V17C13 17.5523 12.5523 18 12 18Z" fill="black"/>
</svg>
