<svg width="20" height="20" viewBox="0 0 20 20" fill="none" xmlns="http://www.w3.org/2000/svg">
<path opacity="0.4" d="M3.70812 10.4586C2.93457 11.2321 2.5 12.2813 2.5 13.3753C2.5 15.6533 4.34673 17.5 6.62479 17.5C7.71875 17.5 8.76792 17.0655 9.54142 16.292L12.9167 12.9167L7.08333 7.08337L3.70812 10.4586Z" fill="black"/>
<path d="M9.54142 16.2919L16.2919 9.54142C17.0654 8.76792 17.5 7.71875 17.5 6.62479C17.5 4.34673 15.6533 2.5 13.3753 2.5C12.2813 2.5 11.2321 2.93457 10.4586 3.70812L3.70812 10.4586C2.93457 11.2321 2.5 12.2813 2.5 13.3753C2.5 15.6533 4.34673 17.5 6.62479 17.5C7.71875 17.5 8.76792 17.0654 9.54142 16.2919Z" stroke="black" stroke-width="1.25" stroke-linecap="round" stroke-linejoin="round"/>
<path d="M7.08331 7.08337L12.9166 12.9167" stroke="black" stroke-width="1.25" stroke-linecap="round" stroke-linejoin="round"/>
</svg>
