<svg width="16" height="16" viewBox="0 0 16 16" fill="none" xmlns="http://www.w3.org/2000/svg">
<path opacity="0.4" d="M2.9665 8.36683C2.34766 8.98563 2 9.82496 2 10.7002C2 12.5226 3.47739 14 5.29983 14C6.175 14 7.01433 13.6523 7.63313 13.0335L10.3333 10.3333L5.66667 5.66663L2.9665 8.36683Z" fill="black"/>
<path d="M7.63313 13.0335L13.0335 7.63313C13.6523 7.01433 14 6.175 14 5.29983C14 3.47739 12.5226 2 10.7002 2C9.825 2 8.98567 2.34766 8.36687 2.9665L2.9665 8.36687C2.34766 8.98567 2 9.825 2 10.7002C2 12.5226 3.47739 14 5.29983 14C6.175 14 7.01433 13.6523 7.63313 13.0335Z" stroke="black" stroke-linecap="round" stroke-linejoin="round"/>
<path d="M5.66669 5.66663L10.3334 10.3333" stroke="black" stroke-linecap="round" stroke-linejoin="round"/>
</svg>
