<svg width="16" height="16" viewBox="0 0 16 16" fill="none" xmlns="http://www.w3.org/2000/svg">
<path opacity="0.4" fill-rule="evenodd" clip-rule="evenodd" d="M6.66658 1.33337H9.33325C11.5194 1.33337 12.6125 1.33337 13.3873 1.87592C13.674 2.07664 13.9233 2.32598 14.1241 2.61265C14.6666 3.38748 14.6666 4.48055 14.6666 6.66671C14.6666 8.85284 14.6666 9.94591 14.1241 10.7208C13.9233 11.0074 13.674 11.2568 13.3873 11.4575C12.6125 12 11.5194 12 9.33325 12H6.66658C4.48043 12 3.38736 12 2.61253 11.4575C2.32586 11.2568 2.07652 11.0074 1.8758 10.7208C1.33325 9.94591 1.33325 8.85284 1.33325 6.66671C1.33325 4.48055 1.33325 3.38748 1.8758 2.61265C2.07652 2.32598 2.32586 2.07664 2.61253 1.87592C3.38736 1.33337 4.48043 1.33337 6.66658 1.33337ZM7.99992 6.66671C8.73632 6.66671 9.33325 6.06975 9.33325 5.33337C9.33325 4.59699 8.73632 4.00004 7.99992 4.00004C7.26352 4.00004 6.66658 4.59699 6.66658 5.33337C6.66658 6.06975 7.26352 6.66671 7.99992 6.66671Z" fill="black"/>
<path d="M9.33325 1.33337H6.66658C4.48043 1.33337 3.38736 1.33337 2.61253 1.87592C2.32586 2.07664 2.07652 2.32598 1.8758 2.61265C1.33325 3.38748 1.33325 4.48055 1.33325 6.66671C1.33325 8.85284 1.33325 9.94591 1.8758 10.7208C2.07652 11.0074 2.32586 11.2568 2.61253 11.4575C3.38736 12 4.48043 12 6.66658 12H9.33325C11.5194 12 12.6125 12 13.3873 11.4575C13.674 11.2568 13.9233 11.0074 14.1241 10.7208C14.6666 9.94591 14.6666 8.85284 14.6666 6.66671C14.6666 4.48055 14.6666 3.38748 14.1241 2.61265C13.9233 2.32598 13.674 2.07664 13.3873 1.87592C12.6125 1.33337 11.5194 1.33337 9.33325 1.33337Z" stroke="black" stroke-linecap="round"/>
<path d="M9.66659 14.6667L9.45625 14.3874C8.98212 13.7579 8.86452 12.7963 9.16445 12M6.33325 14.6667L6.54359 14.3874C7.01772 13.7579 7.13532 12.7963 6.83538 12" stroke="black" stroke-linecap="round"/>
<path d="M4.66675 14.6666H11.3334" stroke="black" stroke-linecap="round"/>
<path d="M5.33325 9.33333C6.55889 7.60307 9.41245 7.50867 10.6666 9.33333M9.33325 5.33333C9.33325 6.06971 8.73632 6.66667 7.99992 6.66667C7.26352 6.66667 6.66659 6.06971 6.66659 5.33333C6.66659 4.59695 7.26352 4 7.99992 4C8.73632 4 9.33325 4.59695 9.33325 5.33333Z" stroke="black" stroke-linecap="round"/>
</svg>
