<svg width="16" height="16" viewBox="0 0 16 16" fill="none" xmlns="http://www.w3.org/2000/svg">
<path fill-rule="evenodd" clip-rule="evenodd" d="M9.37121 0.666626H6.62893C5.56794 0.666616 4.719 0.666609 4.04059 0.738121C3.34227 0.811728 2.74826 0.967061 2.2303 1.32973C1.87993 1.57507 1.57519 1.87981 1.32985 2.23018C0.967182 2.74814 0.811848 3.34215 0.738242 4.04047C0.666731 4.71887 0.666739 5.56782 0.666748 6.62881V6.70444C0.666739 7.76544 0.666731 8.61437 0.738242 9.29277C0.811848 9.99111 0.967182 10.5851 1.32985 11.103C1.57519 11.4534 1.87993 11.7582 2.2303 12.0035C2.74826 12.3662 3.34227 12.5215 4.04059 12.5951C4.68812 12.6634 5.49101 12.6665 6.48535 12.6666C6.51124 12.8888 6.50286 13.1136 6.46348 13.3266C6.41848 13.5699 6.39597 13.6916 6.21065 13.8458C6.02533 14 5.84317 14 5.47884 14H4.66675C4.29856 14 4.00008 14.2984 4.00008 14.6666C4.00008 15.0348 4.29856 15.3333 4.66675 15.3333H11.3334C11.7016 15.3333 12.0001 15.0348 12.0001 14.6666C12.0001 14.2984 11.7016 14 11.3334 14H10.5213C10.1569 14 9.97482 14 9.78948 13.8458C9.60415 13.6916 9.58168 13.5699 9.53668 13.3266C9.49728 13.1136 9.48888 12.8888 9.51475 12.6666C10.5091 12.6665 11.312 12.6634 11.9595 12.5951C12.6579 12.5215 13.2519 12.3662 13.7699 12.0035C14.1202 11.7582 14.4249 11.4534 14.6703 11.103C15.033 10.5851 15.1883 9.99111 15.2619 9.29277C15.3334 8.61437 15.3334 7.76544 15.3334 6.70444V6.62881C15.3334 5.56781 15.3334 4.71887 15.2619 4.04047C15.1883 3.34215 15.033 2.74814 14.6703 2.23018C14.4249 1.87981 14.1202 1.57507 13.7699 1.32973C13.2519 0.967061 12.6579 0.811728 11.9595 0.738121C11.2811 0.666609 10.4322 0.666616 9.37121 0.666626ZM2.99507 2.42194C3.25195 2.24207 3.5919 2.12613 4.18036 2.06411C4.78069 2.00083 5.55925 1.99996 6.66675 1.99996H9.33342C10.4409 1.99996 11.2195 2.00083 11.8198 2.06411C12.4083 2.12613 12.7482 2.24207 13.0051 2.42194C13.2281 2.57806 13.422 2.77199 13.5781 2.99495C13.7579 3.25182 13.8739 3.59177 13.9359 4.18023C13.9992 4.78057 14.0001 5.55913 14.0001 6.66663C14.0001 7.77411 13.9992 8.55271 13.9359 9.15304C13.8739 9.74151 13.7579 10.0814 13.5781 10.3383C13.422 10.5612 13.2281 10.7552 13.0051 10.9113C12.7482 11.0912 12.4083 11.2071 11.8198 11.2692C11.2195 11.3324 10.4409 11.3333 9.33342 11.3333H6.66675C5.55925 11.3333 4.78069 11.3324 4.18036 11.2692C3.5919 11.2071 3.25195 11.0912 2.99507 10.9113C2.77211 10.7552 2.57818 10.5612 2.42206 10.3383C2.2422 10.0814 2.12625 9.74151 2.06423 9.15304C2.00095 8.55271 2.00008 7.77411 2.00008 6.66663C2.00008 5.55913 2.00095 4.78057 2.06423 4.18023C2.12625 3.59177 2.2422 3.25182 2.42206 2.99495C2.57818 2.77199 2.77211 2.57806 2.99507 2.42194Z" fill="black"/>
<path d="M9.5 4.81473C9.5 5.63293 8.8284 6.29621 8 6.29621C7.1716 6.29621 6.5 5.63293 6.5 4.81473C6.5 3.99653 7.1716 3.33325 8 3.33325C8.8284 3.33325 9.5 3.99653 9.5 4.81473Z" fill="black"/>
<path d="M6.19253 7.58569C5.72093 7.89769 4.48445 8.53482 5.23755 9.33202C5.60543 9.72142 6.01517 9.99995 6.53029 9.99995H9.46973C9.98487 9.99995 10.3945 9.72142 10.7625 9.33202C11.5155 8.53482 10.2791 7.89769 9.80747 7.58569C8.7016 6.85409 7.2984 6.85409 6.19253 7.58569Z" fill="black"/>
</svg>
