<svg width="32" height="32" viewBox="0 0 32 32" fill="none" xmlns="http://www.w3.org/2000/svg">
<path fill-rule="evenodd" clip-rule="evenodd" d="M18.7422 1.33313H13.2576C11.1356 1.33311 9.43776 1.3331 8.08093 1.47612C6.68429 1.62333 5.49628 1.934 4.46036 2.65935C3.75963 3.15001 3.15013 3.75949 2.65947 4.46024C1.93412 5.49616 1.62345 6.68417 1.47624 8.08081C1.33322 9.43763 1.33323 11.1355 1.33325 13.2575V13.4088C1.33323 15.5308 1.33322 17.2286 1.47624 18.5854C1.62345 19.9821 1.93412 21.1701 2.65947 22.206C3.15013 22.9068 3.75963 23.5162 4.46036 24.0069C5.49628 24.7322 6.68429 25.0429 8.08093 25.1901C9.37599 25.3266 10.9818 25.3329 12.9705 25.3332C13.0222 25.7776 13.0055 26.2272 12.9267 26.653C12.8367 27.1397 12.7917 27.383 12.4211 27.6914C12.0504 27.9998 11.6861 27.9998 10.9574 27.9998H9.33325C8.59688 27.9998 7.99992 28.5968 7.99992 29.3332C7.99992 30.0696 8.59688 30.6665 9.33325 30.6665H22.6666C23.403 30.6665 23.9999 30.0696 23.9999 29.3332C23.9999 28.5968 23.403 27.9998 22.6666 27.9998H21.0423C20.3137 27.9998 19.9494 27.9998 19.5787 27.6914C19.2081 27.383 19.1631 27.1397 19.0731 26.653C18.9943 26.2272 18.9775 25.7776 19.0293 25.3332C21.0181 25.3329 22.6238 25.3266 23.9189 25.1901C25.3155 25.0429 26.5035 24.7322 27.5395 24.0069C28.2402 23.5162 28.8497 22.9068 29.3403 22.206C30.0658 21.1701 30.3765 19.9821 30.5237 18.5854C30.6666 17.2286 30.6666 15.5308 30.6666 13.4088V13.2575C30.6666 11.1355 30.6666 9.43763 30.5237 8.08081C30.3765 6.68417 30.0658 5.49616 29.3403 4.46024C28.8497 3.75949 28.2402 3.15001 27.5395 2.65935C26.5035 1.934 25.3155 1.62333 23.9189 1.47612C22.5621 1.3331 20.8642 1.33311 18.7422 1.33313ZM5.98989 4.84376C6.50365 4.48403 7.18355 4.25215 8.36047 4.12809C9.56113 4.00153 11.1183 3.9998 13.3333 3.9998H18.6666C20.8815 3.9998 22.4387 4.00153 23.6394 4.12809C24.8163 4.25215 25.4962 4.48403 26.0099 4.84376C26.4559 5.156 26.8438 5.54385 27.1559 5.98977C27.5157 6.50352 27.7475 7.18341 27.8717 8.36035C27.9982 9.56101 27.9999 11.1181 27.9999 13.3331C27.9999 15.5481 27.9982 17.1053 27.8717 18.306C27.7475 19.4829 27.5157 20.1628 27.1559 20.6765C26.8438 21.1224 26.4559 21.5102 26.0099 21.8225C25.4962 22.1822 24.8163 22.4141 23.6394 22.5382C22.4387 22.6648 20.8815 22.6665 18.6666 22.6665H13.3333C11.1183 22.6665 9.56113 22.6648 8.36047 22.5382C7.18355 22.4141 6.50365 22.1822 5.98989 21.8225C5.54397 21.5102 5.15612 21.1224 4.84388 20.6765C4.48415 20.1628 4.25227 19.4829 4.12821 18.306C4.00165 17.1053 3.99992 15.5481 3.99992 13.3331C3.99992 11.1181 4.00165 9.56101 4.12821 8.36035C4.25227 7.18341 4.48415 6.50352 4.84388 5.98977C5.15612 5.54385 5.54397 5.156 5.98989 4.84376Z" fill="black"/>
<path d="M19 9.62946C19 11.2659 17.6568 12.5924 16 12.5924C14.3432 12.5924 13 11.2659 13 9.62946C13 7.99306 14.3432 6.6665 16 6.6665C17.6568 6.6665 19 7.99306 19 9.62946Z" fill="black"/>
<path d="M12.3851 15.1714C11.4419 15.7954 8.96891 17.0696 10.4751 18.664C11.2109 19.4428 12.0303 19.9999 13.0606 19.9999H18.9395C19.9697 19.9999 20.7891 19.4428 21.5249 18.664C23.0311 17.0696 20.5581 15.7954 19.6149 15.1714C17.4032 13.7082 14.5968 13.7082 12.3851 15.1714Z" fill="black"/>
</svg>
