<svg width="20" height="20" viewBox="0 0 20 20" fill="none" xmlns="http://www.w3.org/2000/svg">
<path fill-rule="evenodd" clip-rule="evenodd" d="M8.28599 0.833252H11.7138C13.0401 0.83324 14.1013 0.83323 14.9493 0.922612C15.8222 1.01463 16.5647 1.2088 17.2122 1.66214C17.6501 1.9688 18.031 2.34973 18.3377 2.7877C18.7911 3.43514 18.9853 4.17765 19.0773 5.05055C19.1666 5.89856 19.1666 6.95974 19.1666 8.28598V8.38052C19.1666 9.70677 19.1666 10.7679 19.0773 11.6159C18.9853 12.4889 18.7911 13.2314 18.3377 13.8788C18.031 14.3168 17.6501 14.6977 17.2122 15.0044C16.5647 15.4577 15.8222 15.6519 14.9493 15.7439C14.1013 15.8333 13.0401 15.8333 11.7138 15.8333H8.28598C6.95974 15.8333 5.89856 15.8333 5.05055 15.7439C4.17765 15.6519 3.43514 15.4577 2.78769 15.0044C2.34974 14.6977 1.9688 14.3168 1.66214 13.8788C1.20879 13.2314 1.01463 12.4889 0.922619 11.6159C0.83323 10.7679 0.83324 9.70677 0.833252 8.38052V8.28599C0.83324 6.95975 0.83323 5.89856 0.922619 5.05055C1.01463 4.17765 1.20879 3.43515 1.66214 2.7877C1.9688 2.34973 2.34974 1.9688 2.78769 1.66214C3.43514 1.2088 4.17765 1.01463 5.05055 0.922612C5.89857 0.83323 6.95974 0.83324 8.28599 0.833252ZM5.22526 2.5801C4.48969 2.65764 4.06475 2.80256 3.74365 3.0274C3.46495 3.22255 3.22254 3.46495 3.02739 3.74365C2.80256 4.06475 2.65764 4.48968 2.5801 5.22526C2.501 5.97568 2.49992 6.94889 2.49992 8.33325C2.49992 9.7176 2.501 10.6909 2.5801 11.4413C2.65764 12.1769 2.80256 12.6018 3.02739 12.9229C3.22254 13.2015 3.46495 13.4439 3.74365 13.6391C4.06475 13.8639 4.48969 14.0089 5.22526 14.0864C5.97568 14.1655 6.94889 14.1666 8.33325 14.1666H11.6666C13.0509 14.1666 14.0242 14.1655 14.7746 14.0864C15.5102 14.0089 15.9351 13.8639 16.2562 13.6391C16.5349 13.4439 16.7773 13.2015 16.9724 12.9229C17.1973 12.6018 17.3422 12.1769 17.4198 11.4413C17.4988 10.6909 17.4999 9.7176 17.4999 8.33325C17.4999 6.94889 17.4988 5.97568 17.4198 5.22526C17.3422 4.48968 17.1973 4.06475 16.9724 3.74365C16.7773 3.46495 16.5349 3.22255 16.2562 3.0274C15.9351 2.80256 15.5102 2.65764 14.7746 2.5801C14.0242 2.501 13.0509 2.49992 11.6666 2.49992H8.33325C6.94889 2.49992 5.97568 2.501 5.22526 2.5801Z" fill="black"/>
<path opacity="0.4" d="M12.3588 14.3749H7.6411L7.95944 15.2201C8.13285 15.6805 8.16543 16.192 8.07924 16.6581C8.02299 16.9623 7.99487 17.1144 7.76322 17.3071C7.53157 17.4999 7.30387 17.4999 6.84845 17.4999H5.83333C5.3731 17.4999 5 17.873 5 18.3332C5 18.7935 5.3731 19.1665 5.83333 19.1665H14.1667C14.6269 19.1665 15 18.7935 15 18.3332C15 17.873 14.6269 17.4999 14.1667 17.4999H13.1515C12.6961 17.4999 12.4684 17.4999 12.2368 17.3071C12.0051 17.1144 11.977 16.9623 11.9208 16.6581C11.8345 16.192 11.8671 15.6805 12.0405 15.2201L12.3588 14.3749Z" fill="black"/>
<g opacity="0.4">
<path d="M11.875 6.01848C11.875 7.04123 11.0355 7.87033 10 7.87033C8.9645 7.87033 8.125 7.04123 8.125 6.01848C8.125 4.99573 8.9645 4.16663 10 4.16663C11.0355 4.16663 11.875 4.99573 11.875 6.01848Z" fill="black"/>
<path d="M7.74066 9.48214C7.15117 9.87214 5.60557 10.6686 6.54694 11.6651C7.00679 12.1518 7.51896 12.5 8.16286 12.5H11.8372C12.4811 12.5 12.9932 12.1518 13.4531 11.6651C14.3944 10.6686 12.8488 9.87214 12.2593 9.48214C10.877 8.56764 9.123 8.56764 7.74066 9.48214Z" fill="black"/>
</g>
</svg>
