<svg width="32" height="32" viewBox="0 0 32 32" fill="none" xmlns="http://www.w3.org/2000/svg">
<path fill-rule="evenodd" clip-rule="evenodd" d="M13.2576 1.33313H18.7422C20.8642 1.33311 22.5621 1.33309 23.9189 1.47611C25.3155 1.62333 26.5035 1.934 27.5395 2.65935C28.2402 3.15001 28.8497 3.75949 29.3403 4.46024C30.0658 5.49615 30.3765 6.68417 30.5237 8.08081C30.6666 9.43763 30.6666 11.1355 30.6666 13.2575V13.4088C30.6666 15.5308 30.6666 17.2286 30.5237 18.5854C30.3765 19.9821 30.0658 21.1701 29.3403 22.206C28.8497 22.9068 28.2402 23.5162 27.5395 24.0069C26.5035 24.7322 25.3155 25.0429 23.9189 25.1901C22.5621 25.3332 20.8642 25.3332 18.7422 25.3332H13.2576C11.1356 25.3332 9.43775 25.3332 8.08093 25.1901C6.68429 25.0429 5.49628 24.7322 4.46036 24.0069C3.75963 23.5162 3.15013 22.9068 2.65947 22.206C1.93412 21.1701 1.62345 19.9821 1.47624 18.5854C1.33322 17.2286 1.33323 15.5308 1.33325 13.4088V13.2575C1.33323 11.1355 1.33322 9.43763 1.47624 8.08081C1.62345 6.68417 1.93412 5.49616 2.65947 4.46024C3.15013 3.75949 3.75963 3.15001 4.46036 2.65935C5.49628 1.934 6.68429 1.62333 8.08093 1.47611C9.43776 1.33309 11.1356 1.33311 13.2576 1.33313ZM8.36047 4.12809C7.18355 4.25215 6.50365 4.48403 5.98989 4.84376C5.54397 5.156 5.15612 5.54385 4.84388 5.98977C4.48415 6.50352 4.25227 7.18341 4.12821 8.36035C4.00165 9.56101 3.99992 11.1181 3.99992 13.3331C3.99992 15.5481 4.00165 17.1053 4.12821 18.306C4.25227 19.4829 4.48415 20.1628 4.84388 20.6765C5.15612 21.1224 5.54397 21.5102 5.98989 21.8225C6.50365 22.1822 7.18355 22.4141 8.36047 22.5382C9.56113 22.6648 11.1183 22.6665 13.3333 22.6665H18.6666C20.8815 22.6665 22.4387 22.6648 23.6394 22.5382C24.8163 22.4141 25.4962 22.1822 26.0099 21.8225C26.4559 21.5102 26.8438 21.1224 27.1559 20.6765C27.5157 20.1628 27.7475 19.4829 27.8717 18.306C27.9982 17.1053 27.9999 15.5481 27.9999 13.3331C27.9999 11.1181 27.9982 9.56101 27.8717 8.36035C27.7475 7.18341 27.5157 6.50352 27.1559 5.98977C26.8438 5.54385 26.4559 5.156 26.0099 4.84376C25.4962 4.48403 24.8163 4.25215 23.6394 4.12809C22.4387 4.00153 20.8815 3.9998 18.6666 3.9998H13.3333C11.1183 3.9998 9.56113 4.00153 8.36047 4.12809Z" fill="black"/>
<path opacity="0.4" d="M19.7741 22.9999H12.2258L12.7351 24.3523C13.0126 25.0889 13.0647 25.9073 12.9268 26.6531C12.8368 27.1397 12.7918 27.3831 12.4211 27.6915C12.0505 27.9999 11.6862 27.9999 10.9575 27.9999H9.33333C8.59696 27.9999 8 28.5968 8 29.3332C8 30.0696 8.59696 30.6665 9.33333 30.6665H22.6667C23.4031 30.6665 24 30.0696 24 29.3332C24 28.5968 23.4031 27.9999 22.6667 27.9999H21.0424C20.3137 27.9999 19.9495 27.9999 19.5788 27.6915C19.2081 27.3831 19.1632 27.1397 19.0732 26.6531C18.9352 25.9073 18.9873 25.0889 19.2648 24.3523L19.7741 22.9999Z" fill="black"/>
<g opacity="0.4">
<path d="M19 9.62946C19 11.2659 17.6568 12.5924 16 12.5924C14.3432 12.5924 13 11.2659 13 9.62946C13 7.99306 14.3432 6.6665 16 6.6665C17.6568 6.6665 19 7.99306 19 9.62946Z" fill="black"/>
<path d="M12.3851 15.1714C11.4419 15.7954 8.96891 17.0696 10.4751 18.664C11.2109 19.4428 12.0303 19.9999 13.0606 19.9999H18.9395C19.9697 19.9999 20.7891 19.4428 21.5249 18.664C23.0311 17.0696 20.5581 15.7954 19.6149 15.1714C17.4032 13.7082 14.5968 13.7082 12.3851 15.1714Z" fill="black"/>
</g>
</svg>
