<svg width="20" height="20" viewBox="0 0 20 20" fill="none" xmlns="http://www.w3.org/2000/svg">
<path fill-rule="evenodd" clip-rule="evenodd" d="M11.7138 0.833252H8.28599C6.95974 0.83324 5.89857 0.833231 5.05055 0.922621C4.17765 1.01463 3.43514 1.2088 2.78769 1.66214C2.34974 1.9688 1.9688 2.34973 1.66214 2.7877C1.20879 3.43515 1.01463 4.17765 0.922619 5.05055C0.833231 5.89856 0.833241 6.95975 0.833252 8.28599V8.38052C0.833241 9.70677 0.833231 10.7679 0.922619 11.6159C1.01463 12.4889 1.20879 13.2314 1.66214 13.8788C1.9688 14.3168 2.34974 14.6977 2.78769 15.0044C3.43514 15.4577 4.17765 15.6519 5.05055 15.7439C5.85996 15.8292 6.86358 15.8331 8.10651 15.8333C8.13887 16.111 8.12839 16.392 8.07916 16.6582C8.02291 16.9624 7.99479 17.1144 7.76314 17.3072C7.53149 17.4999 7.30379 17.4999 6.84837 17.4999H5.83325C5.37302 17.4999 4.99992 17.873 4.99992 18.3333C4.99992 18.7935 5.37302 19.1666 5.83325 19.1666H14.1666C14.6268 19.1666 14.9999 18.7935 14.9999 18.3333C14.9999 17.873 14.6268 17.4999 14.1666 17.4999H13.1514C12.696 17.4999 12.4683 17.4999 12.2367 17.3072C12.005 17.1144 11.9769 16.9624 11.9207 16.6582C11.8714 16.392 11.8609 16.111 11.8933 15.8333C13.1363 15.8331 14.1398 15.8292 14.9493 15.7439C15.8222 15.6519 16.5647 15.4577 17.2122 15.0044C17.6501 14.6977 18.031 14.3168 18.3377 13.8788C18.7911 13.2314 18.9853 12.4889 19.0773 11.6159C19.1666 10.7679 19.1666 9.70677 19.1666 8.38052V8.28598C19.1666 6.95974 19.1666 5.89856 19.0773 5.05055C18.9853 4.17765 18.7911 3.43515 18.3377 2.7877C18.031 2.34973 17.6501 1.9688 17.2122 1.66214C16.5647 1.2088 15.8222 1.01463 14.9493 0.922621C14.1013 0.833231 13.0401 0.83324 11.7138 0.833252ZM3.74365 3.0274C4.06475 2.80256 4.48969 2.65764 5.22526 2.5801C5.97568 2.501 6.94889 2.49992 8.33325 2.49992H11.6666C13.0509 2.49992 14.0242 2.501 14.7746 2.5801C15.5102 2.65764 15.9351 2.80256 16.2562 3.0274C16.5349 3.22255 16.7773 3.46495 16.9724 3.74365C17.1973 4.06475 17.3422 4.48968 17.4198 5.22526C17.4988 5.97568 17.4999 6.94889 17.4999 8.33325C17.4999 9.7176 17.4988 10.6909 17.4198 11.4413C17.3422 12.1769 17.1973 12.6018 16.9724 12.9229C16.7773 13.2015 16.5349 13.4439 16.2562 13.6391C15.9351 13.8639 15.5102 14.0089 14.7746 14.0864C14.0242 14.1655 13.0509 14.1666 11.6666 14.1666H8.33325C6.94889 14.1666 5.97568 14.1655 5.22526 14.0864C4.48969 14.0089 4.06475 13.8639 3.74365 13.6391C3.46495 13.4439 3.22254 13.2015 3.02739 12.9229C2.80256 12.6018 2.65764 12.1769 2.5801 11.4413C2.501 10.6909 2.49992 9.7176 2.49992 8.33325C2.49992 6.94889 2.501 5.97568 2.5801 5.22526C2.65764 4.48968 2.80256 4.06475 3.02739 3.74365C3.22254 3.46495 3.46495 3.22255 3.74365 3.0274Z" fill="black"/>
<path d="M11.875 6.01848C11.875 7.04123 11.0355 7.87033 10 7.87033C8.9645 7.87033 8.125 7.04123 8.125 6.01848C8.125 4.99573 8.9645 4.16663 10 4.16663C11.0355 4.16663 11.875 4.99573 11.875 6.01848Z" fill="black"/>
<path d="M7.74066 9.48214C7.15117 9.87214 5.60557 10.6686 6.54694 11.6651C7.00679 12.1518 7.51896 12.5 8.16286 12.5H11.8372C12.4811 12.5 12.9932 12.1518 13.4531 11.6651C14.3944 10.6686 12.8488 9.87214 12.2593 9.48214C10.877 8.56764 9.123 8.56764 7.74066 9.48214Z" fill="black"/>
</svg>
