<svg width="32" height="32" viewBox="0 0 32 32" fill="none" xmlns="http://www.w3.org/2000/svg">
<path opacity="0.4" fill-rule="evenodd" clip-rule="evenodd" d="M13.3334 2.66663H18.6667C23.039 2.66663 25.2251 2.66663 26.7749 3.75172C27.3482 4.15316 27.8469 4.65184 28.2483 5.22517C29.3334 6.77484 29.3334 8.96099 29.3334 13.3333C29.3334 17.7056 29.3334 19.8917 28.2483 21.4414C27.8469 22.0148 27.3482 22.5134 26.7749 22.9149C25.2251 24 23.039 24 18.6667 24H13.3334C8.96111 24 6.77496 24 5.22529 22.9149C4.65196 22.5134 4.15328 22.0148 3.75184 21.4414C2.66675 19.8917 2.66675 17.7056 2.66675 13.3333C2.66675 8.96099 2.66675 6.77484 3.75184 5.22517C4.15328 4.65184 4.65196 4.15316 5.22529 3.75172C6.77496 2.66663 8.96111 2.66663 13.3334 2.66663ZM16.0001 13.3333C17.4729 13.3333 18.6667 12.1394 18.6667 10.6666C18.6667 9.19387 17.4729 7.99996 16.0001 7.99996C14.5273 7.99996 13.3334 9.19387 13.3334 10.6666C13.3334 12.1394 14.5273 13.3333 16.0001 13.3333Z" fill="black"/>
<path d="M18.6667 2.66663H13.3334C8.96111 2.66663 6.77496 2.66663 5.22529 3.75172C4.65196 4.15316 4.15328 4.65184 3.75184 5.22517C2.66675 6.77484 2.66675 8.96099 2.66675 13.3333C2.66675 17.7056 2.66675 19.8917 3.75184 21.4414C4.15328 22.0148 4.65196 22.5134 5.22529 22.9149C6.77496 24 8.96111 24 13.3334 24H18.6667C23.039 24 25.2251 24 26.7749 22.9149C27.3482 22.5134 27.8469 22.0148 28.2483 21.4414C29.3334 19.8917 29.3334 17.7056 29.3334 13.3333C29.3334 8.96099 29.3334 6.77484 28.2483 5.22517C27.8469 4.65184 27.3482 4.15316 26.7749 3.75172C25.2251 2.66663 23.039 2.66663 18.6667 2.66663Z" stroke="black" stroke-width="2" stroke-linecap="round"/>
<path d="M19.3334 29.3333L18.9127 28.7748C17.9645 27.5159 17.7293 25.5925 18.3291 24M12.6667 29.3333L13.0874 28.7748C14.0357 27.5159 14.2709 25.5925 13.671 24" stroke="black" stroke-width="2" stroke-linecap="round"/>
<path d="M9.33325 29.3334H22.6666" stroke="black" stroke-width="2" stroke-linecap="round"/>
<path d="M10.6667 18.6667C13.118 15.2061 18.8251 15.0173 21.3334 18.6667M18.6667 10.6667C18.6667 12.1394 17.4729 13.3333 16.0001 13.3333C14.5273 13.3333 13.3334 12.1394 13.3334 10.6667C13.3334 9.19391 14.5273 8 16.0001 8C17.4729 8 18.6667 9.19391 18.6667 10.6667Z" stroke="black" stroke-width="2" stroke-linecap="round"/>
</svg>
