<svg width="16" height="16" viewBox="0 0 16 16" fill="none" xmlns="http://www.w3.org/2000/svg">
<path fill-rule="evenodd" clip-rule="evenodd" d="M6.62893 0.666626H9.37121C10.4322 0.666616 11.2811 0.666608 11.9595 0.738114C12.6579 0.811728 13.2519 0.967061 13.7699 1.32973C14.1202 1.57507 14.4249 1.87981 14.6703 2.23018C15.033 2.74813 15.1883 3.34215 15.2619 4.04047C15.3334 4.71887 15.3334 5.56781 15.3334 6.62881V6.70444C15.3334 7.76544 15.3334 8.61437 15.2619 9.29277C15.1883 9.99111 15.033 10.5851 14.6703 11.103C14.4249 11.4534 14.1202 11.7582 13.7699 12.0035C13.2519 12.3662 12.6579 12.5215 11.9595 12.5951C11.2811 12.6666 10.4322 12.6666 9.37121 12.6666H6.62893C5.56793 12.6666 4.719 12.6666 4.04059 12.5951C3.34227 12.5215 2.74826 12.3662 2.2303 12.0035C1.87993 11.7582 1.57519 11.4534 1.32985 11.103C0.967182 10.5851 0.811848 9.99111 0.738242 9.29277C0.66673 8.61437 0.666738 7.76544 0.666748 6.70444V6.62881C0.666738 5.56782 0.66673 4.71887 0.738242 4.04047C0.811848 3.34215 0.967182 2.74814 1.32985 2.23018C1.57519 1.87981 1.87993 1.57507 2.2303 1.32973C2.74826 0.967061 3.34227 0.811728 4.04059 0.738114C4.719 0.666608 5.56794 0.666616 6.62893 0.666626ZM4.18036 2.06411C3.5919 2.12613 3.25195 2.24207 2.99507 2.42194C2.77211 2.57806 2.57818 2.77199 2.42206 2.99495C2.2422 3.25182 2.12625 3.59177 2.06423 4.18023C2.00095 4.78057 2.00008 5.55913 2.00008 6.66663C2.00008 7.77411 2.00095 8.55271 2.06423 9.15304C2.12625 9.74151 2.2422 10.0814 2.42206 10.3383C2.57818 10.5612 2.77211 10.7552 2.99507 10.9113C3.25195 11.0912 3.5919 11.2071 4.18036 11.2692C4.78069 11.3324 5.55925 11.3333 6.66675 11.3333H9.33342C10.4409 11.3333 11.2195 11.3324 11.8198 11.2692C12.4083 11.2071 12.7482 11.0912 13.0051 10.9113C13.2281 10.7552 13.422 10.5612 13.5781 10.3383C13.7579 10.0814 13.8739 9.74151 13.9359 9.15304C13.9992 8.55271 14.0001 7.77411 14.0001 6.66663C14.0001 5.55913 13.9992 4.78057 13.9359 4.18023C13.8739 3.59177 13.7579 3.25182 13.5781 2.99495C13.422 2.77199 13.2281 2.57806 13.0051 2.42194C12.7482 2.24207 12.4083 2.12613 11.8198 2.06411C11.2195 2.00083 10.4409 1.99996 9.33342 1.99996H6.66675C5.55925 1.99996 4.78069 2.00083 4.18036 2.06411Z" fill="black"/>
<path opacity="0.4" d="M9.88707 11.4999H6.11288L6.36755 12.1761C6.50628 12.5444 6.53235 12.9536 6.46339 13.3265C6.41839 13.5698 6.39589 13.6915 6.21057 13.8457C6.02525 13.9999 5.84309 13.9999 5.47876 13.9999H4.66667C4.29848 13.9999 4 14.2983 4 14.6665C4 15.0347 4.29848 15.3332 4.66667 15.3332H11.3333C11.7015 15.3332 12 15.0347 12 14.6665C12 14.2983 11.7015 13.9999 11.3333 13.9999H10.5212C10.1569 13.9999 9.97473 13.9999 9.7894 13.8457C9.60407 13.6915 9.5816 13.5698 9.5366 13.3265C9.4676 12.9536 9.49367 12.5444 9.6324 12.1761L9.88707 11.4999Z" fill="black"/>
<g opacity="0.4">
<path d="M9.5 4.81473C9.5 5.63293 8.8284 6.29621 8 6.29621C7.1716 6.29621 6.5 5.63293 6.5 4.81473C6.5 3.99653 7.1716 3.33325 8 3.33325C8.8284 3.33325 9.5 3.99653 9.5 4.81473Z" fill="black"/>
<path d="M6.19253 7.58569C5.72093 7.89769 4.48445 8.53482 5.23755 9.33202C5.60543 9.72142 6.01517 9.99995 6.53029 9.99995H9.46973C9.98487 9.99995 10.3945 9.72142 10.7625 9.33202C11.5155 8.53482 10.2791 7.89769 9.80747 7.58569C8.7016 6.85409 7.2984 6.85409 6.19253 7.58569Z" fill="black"/>
</g>
</svg>
