<svg width="28" height="28" viewBox="0 0 28 28" fill="none" xmlns="http://www.w3.org/2000/svg">
<path fill-rule="evenodd" clip-rule="evenodd" d="M16.3996 1.1665H11.6006C9.74384 1.16649 8.25819 1.16647 7.07097 1.29162C5.84891 1.42043 4.8094 1.69226 3.90297 2.32694C3.28982 2.75628 2.75652 3.28957 2.32719 3.90272C1.69251 4.80915 1.42067 5.84867 1.29186 7.07073C1.16672 8.25794 1.16673 9.74359 1.16675 11.6003V11.7327C1.16673 13.5894 1.16672 15.0751 1.29186 16.2623C1.42067 17.4843 1.69251 18.5238 2.32719 19.4302C2.75652 20.0434 3.28982 20.5767 3.90297 21.006C4.8094 21.6407 5.84891 21.9125 7.07097 22.0413C8.20414 22.1608 9.6092 22.1663 11.3493 22.1665C11.3946 22.5554 11.3799 22.9488 11.311 23.3214C11.2323 23.7472 11.1929 23.9602 10.8686 24.23C10.5443 24.4999 10.2255 24.4999 9.58791 24.4999H8.16675C7.52242 24.4999 7.00008 25.0222 7.00008 25.6665C7.00008 26.3109 7.52242 26.8332 8.16675 26.8332H19.8334C20.4778 26.8332 21.0001 26.3109 21.0001 25.6665C21.0001 25.0222 20.4778 24.4999 19.8334 24.4999H18.4122C17.7746 24.4999 17.4559 24.4999 17.1315 24.23C16.8072 23.9602 16.7679 23.7472 16.6891 23.3214C16.6202 22.9488 16.6055 22.5554 16.6507 22.1665C18.3909 22.1663 19.796 22.1608 20.9291 22.0413C22.1512 21.9125 23.1907 21.6407 24.0972 21.006C24.7103 20.5767 25.2436 20.0434 25.6729 19.4302C26.3077 18.5238 26.5795 17.4843 26.7083 16.2623C26.8334 15.0751 26.8334 13.5894 26.8334 11.7327V11.6003C26.8334 9.74358 26.8334 8.25794 26.7083 7.07073C26.5795 5.84867 26.3077 4.80915 25.6729 3.90272C25.2436 3.28957 24.7103 2.75628 24.0972 2.32694C23.1907 1.69226 22.1512 1.42043 20.9291 1.29162C19.7419 1.16647 18.2563 1.16649 16.3996 1.1665ZM5.24131 4.2383C5.69085 3.92354 6.28576 3.72064 7.31556 3.6121C8.36614 3.50136 9.72863 3.49984 11.6667 3.49984H16.3334C18.2715 3.49984 19.634 3.50136 20.6846 3.6121C21.7144 3.72064 22.3093 3.92354 22.7588 4.2383C23.1491 4.51151 23.4885 4.85089 23.7616 5.24107C24.0763 5.69059 24.2792 6.2855 24.3878 7.31532C24.4986 8.3659 24.5001 9.72839 24.5001 11.6665C24.5001 13.6046 24.4986 14.9671 24.3878 16.0177C24.2792 17.0475 24.0763 17.6424 23.7616 18.0919C23.4885 18.4821 23.1491 18.8215 22.7588 19.0947C22.3093 19.4095 21.7144 19.6123 20.6846 19.721C19.634 19.8317 18.2715 19.8332 16.3334 19.8332H11.6667C9.72863 19.8332 8.36614 19.8317 7.31556 19.721C6.28576 19.6123 5.69085 19.4095 5.24131 19.0947C4.85113 18.8215 4.51176 18.4821 4.23855 18.0919C3.92378 17.6424 3.72089 17.0475 3.61234 16.0177C3.5016 14.9671 3.50008 13.6046 3.50008 11.6665C3.50008 9.72839 3.5016 8.3659 3.61234 7.31532C3.72089 6.2855 3.92378 5.69059 4.23855 5.24107C4.51176 4.85089 4.85113 4.51151 5.24131 4.2383Z" fill="black"/>
<path d="M16.625 8.42584C16.625 9.85769 15.4497 11.0184 14 11.0184C12.5503 11.0184 11.375 9.85769 11.375 8.42584C11.375 6.99399 12.5503 5.83325 14 5.83325C15.4497 5.83325 16.625 6.99399 16.625 8.42584Z" fill="black"/>
<path d="M10.8369 13.2749C10.0116 13.8209 7.8478 14.9359 9.16572 16.331C9.80951 17.0125 10.5265 17.4999 11.428 17.4999H16.572C17.4735 17.4999 18.1904 17.0125 18.8343 16.331C20.1522 14.9359 17.9884 13.8209 17.1631 13.2749C15.2278 11.9946 12.7722 11.9946 10.8369 13.2749Z" fill="black"/>
</svg>
