<svg width="28" height="28" viewBox="0 0 28 28" fill="none" xmlns="http://www.w3.org/2000/svg">
<path fill-rule="evenodd" clip-rule="evenodd" d="M11.6006 1.1665H16.3996C18.2563 1.16649 19.7419 1.16647 20.9291 1.29161C22.1512 1.42043 23.1907 1.69226 24.0972 2.32694C24.7103 2.75628 25.2436 3.28957 25.6729 3.90272C26.3077 4.80914 26.5795 5.84867 26.7083 7.07073C26.8334 8.25794 26.8334 9.74358 26.8334 11.6003V11.7327C26.8334 13.5894 26.8334 15.0751 26.7083 16.2623C26.5795 17.4843 26.3077 18.5238 25.6729 19.4302C25.2436 20.0434 24.7103 20.5767 24.0972 21.006C23.1907 21.6407 22.1512 21.9125 20.9291 22.0413C19.7419 22.1665 18.2563 22.1665 16.3996 22.1665H11.6006C9.74382 22.1665 8.25818 22.1665 7.07097 22.0413C5.84891 21.9125 4.8094 21.6407 3.90297 21.006C3.28982 20.5767 2.75652 20.0434 2.32719 19.4302C1.69251 18.5238 1.42067 17.4843 1.29186 16.2623C1.16672 15.0751 1.16673 13.5894 1.16675 11.7327V11.6003C1.16673 9.74359 1.16672 8.25794 1.29186 7.07073C1.42067 5.84867 1.69251 4.80915 2.32719 3.90272C2.75652 3.28957 3.28982 2.75628 3.90297 2.32694C4.8094 1.69226 5.84891 1.42043 7.07097 1.29161C8.25819 1.16647 9.74384 1.16649 11.6006 1.1665ZM7.31556 3.6121C6.28576 3.72064 5.69085 3.92354 5.24131 4.2383C4.85113 4.51151 4.51176 4.85089 4.23855 5.24107C3.92378 5.69059 3.72089 6.2855 3.61234 7.31532C3.5016 8.3659 3.50008 9.72839 3.50008 11.6665C3.50008 13.6046 3.5016 14.9671 3.61234 16.0177C3.72089 17.0475 3.92378 17.6424 4.23855 18.0919C4.51176 18.4821 4.85113 18.8215 5.24131 19.0947C5.69085 19.4095 6.28576 19.6123 7.31556 19.721C8.36614 19.8317 9.72863 19.8332 11.6667 19.8332H16.3334C18.2715 19.8332 19.634 19.8317 20.6846 19.721C21.7144 19.6123 22.3093 19.4095 22.7588 19.0947C23.1491 18.8215 23.4885 18.4821 23.7616 18.0919C24.0763 17.6424 24.2792 17.0475 24.3878 16.0177C24.4986 14.9671 24.5001 13.6046 24.5001 11.6665C24.5001 9.72839 24.4986 8.3659 24.3878 7.31532C24.2792 6.2855 24.0763 5.69059 23.7616 5.24107C23.4885 4.85089 23.1491 4.51151 22.7588 4.2383C22.3093 3.92354 21.7144 3.72064 20.6846 3.6121C19.634 3.50136 18.2715 3.49984 16.3334 3.49984H11.6667C9.72863 3.49984 8.36614 3.50136 7.31556 3.6121Z" fill="black"/>
<path opacity="0.4" d="M17.3024 20.1249H10.6975L11.1432 21.3082C11.386 21.9528 11.4316 22.6689 11.3109 23.3214C11.2322 23.7473 11.1928 23.9602 10.8685 24.23C10.5442 24.4999 10.2254 24.4999 9.58783 24.4999H8.16667C7.52234 24.4999 7 25.0222 7 25.6665C7 26.3109 7.52234 26.8332 8.16667 26.8332H19.8333C20.4777 26.8332 21 26.3109 21 25.6665C21 25.0222 20.4777 24.4999 19.8333 24.4999H18.4121C17.7745 24.4999 17.4558 24.4999 17.1314 24.23C16.8071 23.9602 16.7678 23.7473 16.689 23.3214C16.5683 22.6689 16.6139 21.9528 16.8567 21.3082L17.3024 20.1249Z" fill="black"/>
<g opacity="0.4">
<path d="M16.625 8.42584C16.625 9.85769 15.4497 11.0184 14 11.0184C12.5503 11.0184 11.375 9.85769 11.375 8.42584C11.375 6.99399 12.5503 5.83325 14 5.83325C15.4497 5.83325 16.625 6.99399 16.625 8.42584Z" fill="black"/>
<path d="M10.8369 13.2749C10.0116 13.8209 7.8478 14.9359 9.16572 16.331C9.80951 17.0125 10.5265 17.4999 11.428 17.4999H16.572C17.4735 17.4999 18.1904 17.0125 18.8343 16.331C20.1522 14.9359 17.9884 13.8209 17.1631 13.2749C15.2278 11.9946 12.7722 11.9946 10.8369 13.2749Z" fill="black"/>
</g>
</svg>
