<svg width="28" height="28" viewBox="0 0 28 28" fill="none" xmlns="http://www.w3.org/2000/svg">
<path opacity="0.4" fill-rule="evenodd" clip-rule="evenodd" d="M11.6666 2.33337H16.3333C20.159 2.33337 22.0719 2.33337 23.4279 3.28283C23.9295 3.63409 24.3659 4.07044 24.7172 4.5721C25.6666 5.92806 25.6666 7.84094 25.6666 11.6667C25.6666 15.4924 25.6666 17.4053 24.7172 18.7613C24.3659 19.263 23.9295 19.6993 23.4279 20.0506C22.0719 21 20.159 21 16.3333 21H11.6666C7.84082 21 5.92794 21 4.57198 20.0506C4.07031 19.6993 3.63397 19.263 3.28271 18.7613C2.33325 17.4053 2.33325 15.4924 2.33325 11.6667C2.33325 7.84094 2.33325 5.92806 3.28271 4.5721C3.63397 4.07044 4.07031 3.63409 4.57198 3.28283C5.92794 2.33337 7.84082 2.33337 11.6666 2.33337ZM13.9999 11.6667C15.2886 11.6667 16.3333 10.622 16.3333 9.33337C16.3333 8.04471 15.2886 7.00004 13.9999 7.00004C12.7112 7.00004 11.6666 8.04471 11.6666 9.33337C11.6666 10.622 12.7112 11.6667 13.9999 11.6667Z" fill="black"/>
<path d="M16.3333 2.33337H11.6666C7.84082 2.33337 5.92794 2.33337 4.57198 3.28283C4.07031 3.63409 3.63397 4.07044 3.28271 4.5721C2.33325 5.92806 2.33325 7.84094 2.33325 11.6667C2.33325 15.4924 2.33325 17.4053 3.28271 18.7613C3.63397 19.263 4.07031 19.6993 4.57198 20.0506C5.92794 21 7.84082 21 11.6666 21H16.3333C20.159 21 22.0719 21 23.4279 20.0506C23.9295 19.6993 24.3659 19.263 24.7172 18.7613C25.6666 17.4053 25.6666 15.4924 25.6666 11.6667C25.6666 7.84094 25.6666 5.92806 24.7172 4.5721C24.3659 4.07044 23.9295 3.63409 23.4279 3.28283C22.0719 2.33337 20.159 2.33337 16.3333 2.33337Z" stroke="black" stroke-width="1.75" stroke-linecap="round"/>
<path d="M16.9166 25.6667L16.5485 25.178C15.7188 24.0764 15.513 22.3935 16.0379 21M11.0833 25.6667L11.4513 25.178C12.2811 24.0764 12.4869 22.3935 11.962 21" stroke="black" stroke-width="1.75" stroke-linecap="round"/>
<path d="M8.16675 25.6666H19.8334" stroke="black" stroke-width="1.75" stroke-linecap="round"/>
<path d="M9.33325 16.3333C11.4781 13.3054 16.4719 13.1402 18.6666 16.3333M16.3333 9.33333C16.3333 10.622 15.2886 11.6667 13.9999 11.6667C12.7112 11.6667 11.6666 10.622 11.6666 9.33333C11.6666 8.04467 12.7112 7 13.9999 7C15.2886 7 16.3333 8.04467 16.3333 9.33333Z" stroke="black" stroke-width="1.75" stroke-linecap="round"/>
</svg>
