<svg width="20" height="20" viewBox="0 0 20 20" fill="none" xmlns="http://www.w3.org/2000/svg">
<path d="M11.6667 1.66663H8.33341C5.60072 1.66663 4.23438 1.66663 3.26584 2.34481C2.90751 2.59571 2.59583 2.90738 2.34493 3.26572C1.66675 4.23426 1.66675 5.6006 1.66675 8.33329C1.66675 11.066 1.66675 12.4323 2.34493 13.4009C2.59583 13.7592 2.90751 14.0709 3.26584 14.3218C4.23438 15 5.60072 15 8.33341 15H11.6667C14.3994 15 15.7657 15 16.7343 14.3218C17.0927 14.0709 17.4043 13.7592 17.6552 13.4009C18.3334 12.4323 18.3334 11.066 18.3334 8.33329C18.3334 5.6006 18.3334 4.23426 17.6552 3.26572C17.4043 2.90738 17.0927 2.59571 16.7343 2.34481C15.7657 1.66663 14.3994 1.66663 11.6667 1.66663Z" stroke="black" stroke-width="1.25" stroke-linecap="round"/>
<path d="M12.0834 18.3333L11.8205 17.9843C11.2278 17.1974 11.0808 15.9953 11.4557 15M7.91675 18.3333L8.17966 17.9843C8.77233 17.1974 8.91933 15.9953 8.54441 15" stroke="black" stroke-width="1.25" stroke-linecap="round"/>
<path d="M5.83325 18.3334H14.1666" stroke="black" stroke-width="1.25" stroke-linecap="round"/>
<path d="M6.66675 11.6667C8.1988 9.50383 11.7657 9.38583 13.3334 11.6667M11.6667 6.66667C11.6667 7.58714 10.9206 8.33333 10.0001 8.33333C9.07958 8.33333 8.33341 7.58714 8.33341 6.66667C8.33341 5.74619 9.07958 5 10.0001 5C10.9206 5 11.6667 5.74619 11.6667 6.66667Z" stroke="black" stroke-width="1.25" stroke-linecap="round"/>
</svg>
