<svg width="32" height="32" viewBox="0 0 32 32" fill="none" xmlns="http://www.w3.org/2000/svg">
<path opacity="0.4" d="M2.66667 16C2.66667 15.5002 2.69365 15.0058 2.74741 14.5194C2.82859 13.7878 3.48833 13.2602 4.22006 13.3412C4.95183 13.4221 5.47934 14.082 5.39844 14.8138C5.35546 15.2028 5.33334 15.5985 5.33334 16C5.33334 21.891 10.109 26.6666 16 26.6666C19.3503 26.6666 22.3392 25.1237 24.2969 22.7044C24.76 22.132 25.5995 22.0434 26.1719 22.5065C26.7443 22.9697 26.8328 23.809 26.3697 24.3814C23.9276 27.3996 20.1891 29.3333 16 29.3333C8.6362 29.3333 2.66667 23.3637 2.66667 16ZM26.6667 16C26.6667 10.1089 21.8911 5.33329 16 5.33329C12.6497 5.33329 9.66079 6.87627 7.70312 9.29553C7.23996 9.86792 6.40056 9.95652 5.82812 9.49345C5.25575 9.03028 5.16717 8.19088 5.63022 7.61845C8.07243 4.60039 11.8109 2.66663 16 2.66663C23.3637 2.66663 29.3333 8.63616 29.3333 16C29.3333 16.4997 29.3064 16.9941 29.2527 17.4805C29.1715 18.2121 28.5117 18.7397 27.78 18.6588C27.0481 18.5778 26.5207 17.918 26.6016 17.1861C26.6445 16.7972 26.6667 16.4014 26.6667 16Z" fill="black"/>
<path d="M4.00002 5.33329V3.99996C4.00002 3.26359 4.59698 2.66663 5.33335 2.66663C6.06974 2.66663 6.66668 3.26359 6.66668 3.99996V5.33329C6.66668 6.3138 6.66938 6.91509 6.72788 7.35023C6.78123 7.74697 6.85814 7.80077 6.862 7.80465C6.86587 7.80852 6.91967 7.88541 7.31643 7.93876C7.75156 7.99727 8.35286 7.99996 9.33335 7.99996H10.6667C11.4031 7.99996 12 8.59692 12 9.33329C12 10.0697 11.4031 10.6666 10.6667 10.6666H9.33335C8.42824 10.6666 7.61508 10.6699 6.96096 10.582C6.26851 10.4889 5.55847 10.2719 4.97658 9.69007C4.3947 9.10817 4.17776 8.39813 4.08466 7.70569C3.99671 7.05156 4.00002 6.23841 4.00002 5.33329Z" fill="black"/>
<path d="M25.3333 28.0001V26.6667C25.3333 25.6862 25.3307 25.085 25.2721 24.6498C25.2188 24.2531 25.1419 24.1993 25.138 24.1954C25.1341 24.1915 25.0804 24.1146 24.6836 24.0613C24.2484 24.0027 23.6472 24.0001 22.6667 24.0001H21.3333C20.5969 24.0001 20 23.4031 20 22.6667C20 21.9303 20.5969 21.3334 21.3333 21.3334H22.6667C23.5717 21.3334 24.3849 21.3301 25.0391 21.4181C25.7315 21.5111 26.4416 21.7281 27.0235 22.3099C27.6053 22.8918 27.8223 23.6019 27.9153 24.2943C28.0033 24.9485 28 25.7617 28 26.6667V28.0001C28 28.7365 27.4031 29.3334 26.6667 29.3334C25.9303 29.3334 25.3333 28.7365 25.3333 28.0001Z" fill="black"/>
</svg>
