<svg width="20" height="20" viewBox="0 0 20 20" fill="none" xmlns="http://www.w3.org/2000/svg">
<path opacity="0.4" d="M1.66666 9.99996C1.66666 9.68763 1.68352 9.37863 1.71712 9.07463C1.76786 8.61738 2.1802 8.28762 2.63753 8.33821C3.09489 8.38879 3.42458 8.80121 3.37402 9.25863C3.34716 9.50171 3.33333 9.74904 3.33333 9.99996C3.33333 13.6819 6.3181 16.6666 10 16.6666C12.0939 16.6666 13.962 15.7023 15.1856 14.1902C15.475 13.8325 15.9997 13.7771 16.3574 14.0665C16.7152 14.356 16.7705 14.8806 16.4811 15.2384C14.9547 17.1247 12.6182 18.3333 10 18.3333C5.39762 18.3333 1.66666 14.6023 1.66666 9.99996ZM16.6667 9.99996C16.6667 6.31806 13.6819 3.33329 10 3.33329C7.90608 3.33329 6.03799 4.29765 4.81445 5.80969C4.52497 6.16743 4.00035 6.22281 3.64257 5.93339C3.28484 5.64391 3.22947 5.11928 3.51888 4.76152C5.04526 2.87523 7.38181 1.66663 10 1.66663C14.6023 1.66663 18.3333 5.39758 18.3333 9.99996C18.3333 10.3123 18.3165 10.6213 18.2829 10.9253C18.2322 11.3825 17.8198 11.7123 17.3625 11.6617C16.9051 11.6111 16.5754 11.1987 16.626 10.7413C16.6528 10.4982 16.6667 10.2509 16.6667 9.99996Z" fill="black"/>
<path d="M2.50001 3.33329V2.49996C2.50001 2.03973 2.87311 1.66663 3.33334 1.66663C3.79359 1.66663 4.16668 2.03973 4.16668 2.49996V3.33329C4.16668 3.94611 4.16836 4.32192 4.20493 4.59388C4.23827 4.84184 4.28634 4.87547 4.28875 4.87789C4.29117 4.88031 4.32479 4.92837 4.57277 4.96171C4.84473 4.99828 5.22053 4.99996 5.83334 4.99996H6.66668C7.12692 4.99996 7.50001 5.37306 7.50001 5.83329C7.50001 6.29353 7.12692 6.66663 6.66668 6.66663H5.83334C5.26765 6.66663 4.75943 6.66869 4.3506 6.61373C3.91782 6.55553 3.47404 6.41995 3.11036 6.05628C2.74669 5.69259 2.6111 5.24882 2.55291 4.81604C2.49794 4.40721 2.50001 3.89899 2.50001 3.33329Z" fill="black"/>
<path d="M15.8333 17.5001V16.6667C15.8333 16.0539 15.8317 15.6781 15.7951 15.4061C15.7617 15.1582 15.7137 15.1246 15.7113 15.1221C15.7088 15.1197 15.6752 15.0716 15.4272 15.0383C15.1552 15.0017 14.7795 15.0001 14.1667 15.0001H13.3333C12.8731 15.0001 12.5 14.627 12.5 14.1667C12.5 13.7065 12.8731 13.3334 13.3333 13.3334H14.1667C14.7323 13.3334 15.2406 13.3313 15.6494 13.3863C16.0822 13.4445 16.526 13.5801 16.8897 13.9437C17.2533 14.3074 17.3889 14.7512 17.4471 15.184C17.5021 15.5928 17.5 16.1011 17.5 16.6667V17.5001C17.5 17.9603 17.1269 18.3334 16.6667 18.3334C16.2064 18.3334 15.8333 17.9603 15.8333 17.5001Z" fill="black"/>
</svg>
