<svg width="16" height="16" viewBox="0 0 16 16" fill="none" xmlns="http://www.w3.org/2000/svg">
<path opacity="0.4" d="M13.9634 8.66667C13.9876 8.4478 14 8.22533 14 8C14 4.68629 11.3137 2 8 2C6.11515 2 4.43331 2.86911 3.33333 4.22845M2.03662 7.33333C2.01242 7.5522 2 7.77467 2 8C2 11.3137 4.68629 14 8 14C9.88487 14 11.5667 13.1309 12.6667 11.7715" stroke="black" stroke-linecap="round" stroke-linejoin="round"/>
<path d="M5.33333 4.66667H4.66666C3.72386 4.66667 3.25245 4.66667 2.95956 4.37377C2.66666 4.08088 2.66666 3.60947 2.66666 2.66667V2" stroke="black" stroke-linecap="round" stroke-linejoin="round"/>
<path d="M10.6667 11.3334H11.3333C12.2761 11.3334 12.7475 11.3334 13.0405 11.6262C13.3333 11.9192 13.3333 12.3906 13.3333 13.3334V14" stroke="black" stroke-linecap="round" stroke-linejoin="round"/>
</svg>
