<svg width="28" height="28" viewBox="0 0 28 28" fill="none" xmlns="http://www.w3.org/2000/svg">
<path opacity="0.4" d="M2.33333 14C2.33333 13.5628 2.35693 13.1302 2.40397 12.7046C2.47501 12.0644 3.05228 11.6028 3.69254 11.6736C4.33284 11.7444 4.79441 12.3218 4.72363 12.9622C4.68602 13.3025 4.66666 13.6488 4.66666 14C4.66666 19.1547 8.84534 23.3334 14 23.3334C16.9315 23.3334 19.5468 21.9833 21.2598 19.8664C21.665 19.3655 22.3995 19.2881 22.9004 19.6933C23.4012 20.0986 23.4787 20.833 23.0735 21.3338C20.9366 23.9747 17.6654 25.6667 14 25.6667C7.55667 25.6667 2.33333 20.4433 2.33333 14ZM23.3333 14C23.3333 8.84538 19.1547 4.66671 14 4.66671C11.0685 4.66671 8.45318 6.01681 6.74023 8.13367C6.33496 8.63451 5.60049 8.71203 5.0996 8.30685C4.59877 7.90157 4.52126 7.1671 4.92643 6.66622C7.06337 4.02541 10.3345 2.33337 14 2.33337C20.4433 2.33337 25.6667 7.55672 25.6667 14C25.6667 14.4373 25.6431 14.8699 25.5961 15.2955C25.525 15.9357 24.9478 16.3973 24.3075 16.3265C23.6671 16.2557 23.2056 15.6783 23.2764 15.0379C23.314 14.6976 23.3333 14.3513 23.3333 14Z" fill="black"/>
<path d="M3.50001 4.66671V3.50004C3.50001 2.85571 4.02235 2.33337 4.66668 2.33337C5.31102 2.33337 5.83335 2.85571 5.83335 3.50004V4.66671C5.83335 5.52465 5.8357 6.05078 5.8869 6.43152C5.93358 6.77868 6.00087 6.82575 6.00425 6.82915C6.00764 6.83253 6.05471 6.89981 6.40188 6.94649C6.78262 6.99768 7.30875 7.00004 8.16668 7.00004H9.33335C9.97768 7.00004 10.5 7.52238 10.5 8.16671C10.5 8.81103 9.97768 9.33337 9.33335 9.33337H8.16668C7.37471 9.33337 6.6632 9.33627 6.09084 9.25931C5.48495 9.17785 4.86366 8.98803 4.3545 8.47888C3.84536 7.96973 3.65554 7.34844 3.57407 6.74256C3.49712 6.17019 3.50001 5.45869 3.50001 4.66671Z" fill="black"/>
<path d="M22.1667 24.5V23.3333C22.1667 22.4753 22.1643 21.9493 22.1131 21.5685C22.0664 21.2214 21.9991 21.1743 21.9958 21.1709C21.9924 21.1675 21.9453 21.1002 21.5981 21.0535C21.2173 21.0023 20.6913 21 19.8333 21H18.6667C18.0223 21 17.5 20.4777 17.5 19.8333C17.5 19.189 18.0223 18.6666 18.6667 18.6666H19.8333C20.6253 18.6666 21.3368 18.6637 21.9092 18.7407C22.515 18.8222 23.1364 19.012 23.6455 19.5211C24.1547 20.0302 24.3445 20.6516 24.4259 21.2575C24.5029 21.8298 24.5 22.5414 24.5 23.3333V24.5C24.5 25.1443 23.9777 25.6666 23.3333 25.6666C22.689 25.6666 22.1667 25.1443 22.1667 24.5Z" fill="black"/>
</svg>
