<svg width="32" height="32" viewBox="0 0 32 32" fill="none" xmlns="http://www.w3.org/2000/svg">
<path d="M4.22006 13.3412C4.95183 13.4221 5.47934 14.082 5.39844 14.8138C5.35546 15.2028 5.33334 15.5985 5.33334 16C5.33334 21.891 10.109 26.6666 16 26.6666C18.7027 26.6666 21.1688 25.6609 23.0495 24.0026C22.9287 24.0024 22.8012 24 22.6667 24H21.3333C20.5969 24 20 23.403 20 22.6666C20 21.9302 20.5969 21.3333 21.3333 21.3333H22.6667C23.5717 21.3333 24.3849 21.33 25.0391 21.418C25.7315 21.511 26.4416 21.728 27.0235 22.3098C27.6053 22.8917 27.8223 23.6018 27.9153 24.2942C28.0033 24.9484 28 25.7616 28 26.6666V28C28 28.7364 27.4031 29.3333 26.6667 29.3333C25.9303 29.3333 25.3333 28.7364 25.3333 28V26.6666C25.3333 26.212 25.3307 25.8389 25.3243 25.526C22.9211 27.8784 19.6309 29.3333 16 29.3333C8.6362 29.3333 2.66667 23.3637 2.66667 16C2.66667 15.5002 2.69365 15.0058 2.74741 14.5194C2.82859 13.7878 3.48833 13.2602 4.22006 13.3412ZM16 2.66663C23.3637 2.66663 29.3333 8.63616 29.3333 16C29.3333 16.4997 29.3064 16.9941 29.2527 17.4805C29.1715 18.2121 28.5117 18.7397 27.78 18.6588C27.0481 18.5778 26.5207 17.918 26.6016 17.1861C26.6445 16.7972 26.6667 16.4014 26.6667 16C26.6667 10.1089 21.8911 5.33329 16 5.33329C13.2973 5.33329 10.8299 6.33773 8.94922 7.99605C9.07044 7.99629 9.19828 7.99996 9.33334 7.99996H10.6667C11.403 7.99996 12 8.59692 12 9.33329C12 10.0697 11.403 10.6666 10.6667 10.6666H9.33334C8.42823 10.6666 7.61506 10.6699 6.96094 10.582C6.26851 10.4889 5.55844 10.2719 4.97656 9.69007C4.39468 9.10819 4.17775 8.39812 4.08464 7.70569C3.9967 7.05156 4.00001 6.23841 4.00001 5.33329V3.99996C4.00001 3.26359 4.59696 2.66664 5.33334 2.66663C6.06971 2.66663 6.66667 3.26359 6.66667 3.99996V5.33329C6.66667 5.78733 6.66806 6.16005 6.67448 6.47261C9.07767 4.12028 12.3691 2.66663 16 2.66663Z" fill="black"/>
</svg>
