<svg width="20" height="20" viewBox="0 0 20 20" fill="none" xmlns="http://www.w3.org/2000/svg">
<path d="M2.63753 8.33821C3.09489 8.38879 3.42458 8.80121 3.37402 9.25863C3.34716 9.50171 3.33333 9.74904 3.33333 9.99996C3.33333 13.6819 6.3181 16.6666 10 16.6666C11.6892 16.6666 13.2305 16.038 14.4059 15.0016C14.3304 15.0015 14.2507 15 14.1667 15H13.3333C12.8731 15 12.5 14.6269 12.5 14.1666C12.5 13.7064 12.8731 13.3333 13.3333 13.3333H14.1667C14.7323 13.3333 15.2406 13.3312 15.6494 13.3862C16.0822 13.4444 16.526 13.58 16.8897 13.9436C17.2533 14.3073 17.3889 14.7511 17.4471 15.1839C17.5021 15.5927 17.5 16.101 17.5 16.6666V17.5C17.5 17.9602 17.1269 18.3333 16.6667 18.3333C16.2064 18.3333 15.8333 17.9602 15.8333 17.5V16.6666C15.8333 16.3825 15.8317 16.1493 15.8277 15.9537C14.3257 17.424 12.2693 18.3333 10 18.3333C5.39762 18.3333 1.66666 14.6023 1.66666 9.99996C1.66666 9.68763 1.68352 9.37863 1.71712 9.07463C1.76786 8.61738 2.1802 8.28762 2.63753 8.33821ZM10 1.66663C14.6023 1.66663 18.3333 5.39758 18.3333 9.99996C18.3333 10.3123 18.3165 10.6213 18.2829 10.9253C18.2322 11.3825 17.8198 11.7123 17.3625 11.6617C16.9051 11.6111 16.5754 11.1987 16.626 10.7413C16.6528 10.4982 16.6667 10.2509 16.6667 9.99996C16.6667 6.31806 13.6819 3.33329 10 3.33329C8.31079 3.33329 6.7687 3.96107 5.59326 4.99752C5.66902 4.99767 5.74892 4.99996 5.83333 4.99996H6.66666C7.1269 4.99996 7.5 5.37306 7.5 5.83329C7.5 6.29353 7.1269 6.66663 6.66666 6.66663H5.83333C5.26764 6.66663 4.75941 6.66869 4.35058 6.61373C3.91781 6.55553 3.47402 6.41995 3.11035 6.05628C2.74667 5.6926 2.61109 5.24881 2.5529 4.81604C2.49793 4.40721 2.5 3.89899 2.5 3.33329V2.49996C2.5 2.03973 2.8731 1.66663 3.33333 1.66663C3.79356 1.66663 4.16666 2.03973 4.16666 2.49996V3.33329C4.16666 3.61707 4.16753 3.85002 4.17155 4.04537C5.67354 2.57516 7.7307 1.66663 10 1.66663Z" fill="black"/>
</svg>
