<svg width="28" height="28" viewBox="0 0 28 28" fill="none" xmlns="http://www.w3.org/2000/svg">
<path d="M24.436 15.1667C24.4783 14.7836 24.5 14.3943 24.5 14C24.5 8.20101 19.799 3.5 14 3.5C10.7015 3.5 7.75829 5.02095 5.83333 7.39978M3.56408 12.8333C3.52173 13.2163 3.5 13.6057 3.5 14C3.5 19.799 8.20101 24.5 14 24.5C17.2985 24.5 20.2417 22.979 22.1667 20.6002" stroke="black" stroke-width="1.75" stroke-linecap="round" stroke-linejoin="round"/>
<path d="M9.33334 8.16667H8.16667C6.51676 8.16667 5.6918 8.16667 5.17924 7.6541C4.66667 7.14154 4.66667 6.31658 4.66667 4.66667V3.5" stroke="black" stroke-width="1.75" stroke-linecap="round" stroke-linejoin="round"/>
<path d="M18.6667 19.8334H19.8333C21.4832 19.8334 22.3082 19.8334 22.8208 20.3459C23.3333 20.8585 23.3333 21.6835 23.3333 23.3334V24.5" stroke="black" stroke-width="1.75" stroke-linecap="round" stroke-linejoin="round"/>
</svg>
