<svg width="28" height="28" viewBox="0 0 28 28" fill="none" xmlns="http://www.w3.org/2000/svg">
<path d="M3.69254 11.6736C4.33284 11.7444 4.79441 12.3218 4.72363 12.9622C4.68602 13.3025 4.66666 13.6488 4.66666 14C4.66666 19.1547 8.84534 23.3334 14 23.3334C16.3648 23.3334 18.5227 22.4534 20.1683 21.0024C20.0626 21.0021 19.951 21 19.8333 21H18.6667C18.0223 21 17.5 20.4777 17.5 19.8334C17.5 19.189 18.0223 18.6667 18.6667 18.6667H19.8333C20.6253 18.6667 21.3368 18.6638 21.9092 18.7408C22.515 18.8222 23.1364 19.012 23.6455 19.5212C24.1547 20.0303 24.3445 20.6517 24.4259 21.2575C24.5029 21.8299 24.5 22.5414 24.5 23.3334V24.5C24.5 25.1444 23.9777 25.6667 23.3333 25.6667C22.689 25.6667 22.1667 25.1444 22.1667 24.5V23.3334C22.1667 22.9355 22.1643 22.6091 22.1587 22.3353C20.0559 24.3936 17.1771 25.6667 14 25.6667C7.55667 25.6667 2.33333 20.4433 2.33333 14C2.33333 13.5628 2.35693 13.1302 2.40397 12.7046C2.47501 12.0644 3.05228 11.6028 3.69254 11.6736ZM14 2.33337C20.4433 2.33337 25.6667 7.55672 25.6667 14C25.6667 14.4373 25.6431 14.8699 25.5961 15.2955C25.525 15.9357 24.9478 16.3973 24.3075 16.3265C23.6671 16.2557 23.2056 15.6783 23.2764 15.0379C23.314 14.6976 23.3333 14.3513 23.3333 14C23.3333 8.84538 19.1547 4.66671 14 4.66671C11.6351 4.66671 9.47618 5.54559 7.83056 6.99662C7.93663 6.99683 8.04849 7.00004 8.16666 7.00004H9.33333C9.97766 7.00004 10.5 7.52238 10.5 8.16671C10.5 8.81103 9.97766 9.33337 9.33333 9.33337H8.16666C7.37469 9.33337 6.66317 9.33627 6.09081 9.25931C5.48494 9.17785 4.86363 8.98803 4.35449 8.47888C3.84534 7.96974 3.65552 7.34843 3.57405 6.74256C3.4971 6.17019 3.49999 5.45869 3.49999 4.66671V3.50004C3.49999 2.85571 4.02234 2.33339 4.66666 2.33337C5.31099 2.33337 5.83333 2.85571 5.83333 3.50004V4.66671C5.83333 5.06399 5.83454 5.39012 5.84016 5.66361C7.94295 3.60532 10.823 2.33337 14 2.33337Z" fill="black"/>
</svg>
