<svg width="16" height="16" viewBox="0 0 16 16" fill="none" xmlns="http://www.w3.org/2000/svg">
<path d="M2.11003 6.67064C2.47592 6.71111 2.73967 7.04104 2.69922 7.40697C2.67773 7.60144 2.66667 7.79931 2.66667 8.00004C2.66667 10.9456 5.05448 13.3334 8 13.3334C9.35134 13.3334 10.5844 12.8305 11.5247 12.0014C11.4643 12.0012 11.4006 12 11.3333 12H10.6667C10.2985 12 10 11.7016 10 11.3334C10 10.9652 10.2985 10.6667 10.6667 10.6667H11.3333C11.7859 10.6667 12.1925 10.665 12.5195 10.709C12.8657 10.7556 13.2208 10.864 13.5117 11.155C13.8027 11.4459 13.9111 11.801 13.9577 12.1472C14.0017 12.4742 14 12.8808 14 13.3334V14C14 14.3682 13.7015 14.6667 13.3333 14.6667C12.9651 14.6667 12.6667 14.3682 12.6667 14V13.3334C12.6667 13.106 12.6653 12.9195 12.6621 12.763C11.4605 13.9392 9.81547 14.6667 8 14.6667C4.3181 14.6667 1.33334 11.6819 1.33334 8.00004C1.33334 7.75017 1.34682 7.50297 1.3737 7.25977C1.4143 6.89397 1.74416 6.63017 2.11003 6.67064ZM8 1.33337C11.6819 1.33337 14.6667 4.31814 14.6667 8.00004C14.6667 8.24991 14.6532 8.49711 14.6263 8.74031C14.5857 9.10611 14.2559 9.36991 13.89 9.32944C13.5241 9.28897 13.2603 8.95904 13.3008 8.59311C13.3223 8.39864 13.3333 8.20077 13.3333 8.00004C13.3333 5.05452 10.9455 2.66671 8 2.66671C6.64864 2.66671 5.41496 3.16893 4.47461 3.99809C4.53522 3.99821 4.59914 4.00004 4.66667 4.00004H5.33334C5.70152 4.00004 6 4.29852 6 4.66671C6 5.03489 5.70152 5.33337 5.33334 5.33337H4.66667C4.21412 5.33337 3.80753 5.33503 3.48047 5.29105C3.13426 5.2445 2.77922 5.13603 2.48828 4.84509C2.19734 4.55415 2.08888 4.19912 2.04232 3.85291C1.99835 3.52584 2 3.11927 2 2.66671V2.00004C2 1.63185 2.29848 1.33338 2.66667 1.33337C3.03486 1.33337 3.33334 1.63185 3.33334 2.00004V2.66671C3.33334 2.89373 3.33403 3.08009 3.33724 3.23637C4.53884 2.0602 6.18456 1.33337 8 1.33337Z" fill="black"/>
</svg>
