<svg width="32" height="32" viewBox="0 0 32 32" fill="none" xmlns="http://www.w3.org/2000/svg">
<path opacity="0.4" d="M16 28C22.6275 28 28 22.6275 28 16C28 9.37259 22.6275 4 16 4C9.37259 4 4 9.37259 4 16C4 22.6275 9.37259 28 16 28Z" fill="black"/>
<path d="M27.9268 17.3333C27.9752 16.8956 28 16.4507 28 16C28 9.37259 22.6275 4 16 4C12.2303 4 8.86661 5.73823 6.66667 8.45689M4.07324 14.6667C4.02484 15.1044 4 15.5493 4 16C4 22.6275 9.37259 28 16 28C19.7697 28 23.1333 26.2617 25.3333 23.5431" stroke="black" stroke-width="2" stroke-linecap="round" stroke-linejoin="round"/>
<path d="M10.6667 9.33333H9.33333C7.44772 9.33333 6.5049 9.33333 5.91912 8.74755C5.33333 8.16176 5.33333 7.21895 5.33333 5.33333V4" stroke="black" stroke-width="2" stroke-linecap="round" stroke-linejoin="round"/>
<path d="M21.3333 22.6666H22.6667C24.5523 22.6666 25.4951 22.6666 26.0809 23.2524C26.6667 23.8382 26.6667 24.781 26.6667 26.6666V28" stroke="black" stroke-width="2" stroke-linecap="round" stroke-linejoin="round"/>
</svg>
