<svg width="16" height="16" viewBox="0 0 16 16" fill="none" xmlns="http://www.w3.org/2000/svg">
<path opacity="0.4" d="M1.33334 8.00004C1.33334 7.75017 1.34682 7.50297 1.3737 7.25977C1.4143 6.89397 1.74416 6.63017 2.11003 6.67064C2.47592 6.71111 2.73967 7.04104 2.69922 7.40697C2.67773 7.60144 2.66667 7.79931 2.66667 8.00004C2.66667 10.9456 5.05448 13.3334 8 13.3334C9.67514 13.3334 11.1696 12.5619 12.1485 11.3522C12.38 11.066 12.7997 11.0218 13.0859 11.2533C13.3721 11.4849 13.4164 11.9046 13.1849 12.1908C11.9638 13.6998 10.0945 14.6667 8 14.6667C4.3181 14.6667 1.33334 11.6819 1.33334 8.00004ZM13.3333 8.00004C13.3333 5.05452 10.9455 2.66671 8 2.66671C6.32487 2.66671 4.8304 3.43819 3.85156 4.64783C3.61998 4.93402 3.20028 4.97832 2.91406 4.74679C2.62788 4.5152 2.58358 4.0955 2.81511 3.80929C4.03622 2.30025 5.90545 1.33337 8 1.33337C11.6819 1.33337 14.6667 4.31814 14.6667 8.00004C14.6667 8.24991 14.6532 8.49711 14.6263 8.74031C14.5857 9.10611 14.2559 9.36991 13.89 9.32944C13.5241 9.28897 13.2603 8.95904 13.3008 8.59311C13.3223 8.39864 13.3333 8.20077 13.3333 8.00004Z" fill="black"/>
<path d="M2.00001 2.66671V2.00004C2.00001 1.63185 2.29849 1.33337 2.66667 1.33337C3.03487 1.33337 3.33334 1.63185 3.33334 2.00004V2.66671C3.33334 3.15696 3.33469 3.45761 3.36394 3.67517C3.39061 3.87355 3.42907 3.90045 3.431 3.90239C3.43293 3.90432 3.45983 3.94277 3.65821 3.96944C3.87578 3.99869 4.17643 4.00004 4.66667 4.00004H5.33334C5.70153 4.00004 6.00001 4.29852 6.00001 4.66671C6.00001 5.03489 5.70153 5.33337 5.33334 5.33337H4.66667C4.21412 5.33337 3.80754 5.33503 3.48048 5.29105C3.13425 5.2445 2.77923 5.13603 2.48829 4.84509C2.19735 4.55415 2.08888 4.19913 2.04233 3.85291C1.99835 3.52584 2.00001 3.11927 2.00001 2.66671Z" fill="black"/>
<path d="M12.6667 14V13.3333C12.6667 12.843 12.6653 12.5424 12.6361 12.3248C12.6094 12.1265 12.5709 12.0996 12.569 12.0976C12.5671 12.0957 12.5402 12.0572 12.3418 12.0306C12.1242 12.0013 11.8236 12 11.3333 12H10.6667C10.2985 12 10 11.7015 10 11.3333C10 10.9651 10.2985 10.6666 10.6667 10.6666H11.3333C11.7859 10.6666 12.1925 10.665 12.5195 10.709C12.8657 10.7555 13.2208 10.864 13.5117 11.1549C13.8027 11.4458 13.9111 11.8009 13.9577 12.1471C14.0017 12.4742 14 12.8808 14 13.3333V14C14 14.3682 13.7015 14.6666 13.3333 14.6666C12.9651 14.6666 12.6667 14.3682 12.6667 14Z" fill="black"/>
</svg>
