<svg width="20" height="20" viewBox="0 0 20 20" fill="none" xmlns="http://www.w3.org/2000/svg">
<path opacity="0.4" d="M17.4543 10.8333C17.4845 10.5597 17.5 10.2817 17.5 10C17.5 5.85787 14.1422 2.5 10 2.5C7.64394 2.5 5.54163 3.58639 4.16667 5.28556M2.54577 9.16667C2.51552 9.44025 2.5 9.71833 2.5 10C2.5 14.1422 5.85787 17.5 10 17.5C12.3561 17.5 14.4583 16.4136 15.8333 14.7144" stroke="black" stroke-width="1.25" stroke-linecap="round" stroke-linejoin="round"/>
<path d="M6.66667 5.83333H5.83334C4.65483 5.83333 4.06557 5.83333 3.69945 5.46722C3.33334 5.1011 3.33334 4.51184 3.33334 3.33333V2.5" stroke="black" stroke-width="1.25" stroke-linecap="round" stroke-linejoin="round"/>
<path d="M13.3333 14.1666H14.1667C15.3452 14.1666 15.9344 14.1666 16.3006 14.5327C16.6667 14.8989 16.6667 15.4881 16.6667 16.6666V17.5" stroke="black" stroke-width="1.25" stroke-linecap="round" stroke-linejoin="round"/>
</svg>
