<svg width="20" height="20" viewBox="0 0 20 20" fill="none" xmlns="http://www.w3.org/2000/svg">
<path opacity="0.4" d="M18.9583 9.63699V9.58332V7.91666V7.86297C18.9583 6.72707 18.9584 5.81109 18.8615 5.09032C18.7606 4.34023 18.5444 3.70878 18.0428 3.20718C17.5412 2.70559 16.9097 2.48935 16.1596 2.3885C15.4389 2.29162 14.5229 2.29163 13.387 2.29166H13.3333H6.66663H6.61297C5.47706 2.29163 4.56107 2.29162 3.84029 2.3885C3.0902 2.48935 2.45875 2.70559 1.95715 3.20718C1.45556 3.70878 1.23932 4.34023 1.13847 5.09032C1.04159 5.8111 1.0416 6.72709 1.04163 7.86301V7.91666V9.58332V9.63699C1.0416 10.7729 1.04159 11.6889 1.13847 12.4097C1.23932 13.1597 1.45556 13.7912 1.95715 14.2928L2.05237 14.3839C2.5378 14.8213 3.13709 15.0169 3.84029 15.1115C4.56105 15.2084 5.47703 15.2083 6.61291 15.2083H6.66663H13.3333H13.387C14.5229 15.2083 15.4389 15.2084 16.1596 15.1115C16.9097 15.0107 17.5412 14.7944 18.0428 14.2928L18.1339 14.1976C18.5713 13.7122 18.7669 13.1128 18.8615 12.4097C18.9584 11.6889 18.9583 10.7729 18.9583 9.63699Z" fill="black"/>
<path d="M12.5 8.75C12.5 10.1307 11.3807 11.25 10 11.25C8.61925 11.25 7.5 10.1307 7.5 8.75C7.5 7.36929 8.61925 6.25 10 6.25C11.3807 6.25 12.5 7.36929 12.5 8.75Z" fill="black"/>
<path d="M18.0428 3.20802C17.5412 2.70642 16.9097 2.49018 16.1596 2.38933C15.8301 2.34504 15.4598 2.321 15.0464 2.30795C15.0464 4.45094 16.7993 6.18816 18.9423 6.18816C18.9291 5.78124 18.9051 5.41633 18.8615 5.09115C18.7606 4.34106 18.5444 3.70961 18.0428 3.20802Z" fill="black"/>
<path d="M1.94118 3.20802C2.44277 2.70642 3.07422 2.49018 3.82431 2.38933C4.15382 2.34504 4.52413 2.321 4.93759 2.30795C4.93759 4.45094 3.18461 6.18816 1.04163 6.18816C1.05479 5.78124 1.07878 5.41633 1.12248 5.09115C1.22333 4.34106 1.43958 3.70961 1.94118 3.20802Z" fill="black"/>
<path d="M18.0428 14.292C17.5411 14.7936 16.9097 15.0098 16.1596 15.1107C15.8301 15.155 15.4598 15.179 15.0464 15.1921C15.0464 13.0491 16.7993 11.3118 18.9423 11.3118C18.9291 11.7187 18.9051 12.0837 18.8615 12.4088C18.7606 13.1589 18.5444 13.7904 18.0428 14.292Z" fill="black"/>
<path d="M1.94117 14.292C2.44277 14.7936 3.07422 15.0098 3.82431 15.1107C4.15382 15.155 4.52412 15.179 4.93758 15.1921C4.93758 13.0491 3.1846 11.3118 1.04163 11.3118C1.05478 11.7187 1.07878 12.0837 1.12248 12.4088C1.22333 13.1589 1.43958 13.7904 1.94117 14.292Z" fill="black"/>
<path d="M15.8333 16.4583C16.1785 16.4583 16.4583 16.7382 16.4583 17.0833C16.4583 17.4285 16.1785 17.7083 15.8333 17.7083H4.16663C3.82145 17.7083 3.54163 17.4285 3.54163 17.0833C3.54163 16.7382 3.82145 16.4583 4.16663 16.4583H15.8333Z" fill="black"/>
</svg>
