<svg width="28" height="28" viewBox="0 0 28 28" fill="none" xmlns="http://www.w3.org/2000/svg">
<path opacity="0.4" d="M2.35327 15.75C4.91944 15.75 6.99973 17.8303 6.99973 20.3965" stroke="black" stroke-width="1.75" stroke-linecap="round" stroke-linejoin="round"/>
<path opacity="0.4" d="M21 20.3965V20.2893C21 17.7823 23.0323 15.75 25.5393 15.75" stroke="black" stroke-width="1.75" stroke-linecap="round" stroke-linejoin="round"/>
<path opacity="0.4" d="M6.99973 4.10156C6.99973 6.66774 4.91944 8.74802 2.35327 8.74802" stroke="black" stroke-width="1.75" stroke-linecap="round" stroke-linejoin="round"/>
<path opacity="0.4" d="M21 4.10156C21 6.64527 23.0638 8.71156 25.5994 8.74754" stroke="black" stroke-width="1.75" stroke-linecap="round" stroke-linejoin="round"/>
<path d="M18.6667 4.08334H9.33337C6.03354 4.08334 4.38363 4.08334 3.3585 5.10847C2.33337 6.1336 2.33337 7.78351 2.33337 11.0833V13.4167C2.33337 16.7165 2.33337 18.3664 3.3585 19.3915C4.38363 20.4167 6.03354 20.4167 9.33337 20.4167H18.6667C21.9665 20.4167 23.6164 20.4167 24.6416 19.3915C25.6667 18.3664 25.6667 16.7165 25.6667 13.4167V11.0833C25.6667 7.78351 25.6667 6.1336 24.6416 5.10847C23.6164 4.08334 21.9665 4.08334 18.6667 4.08334Z" stroke="black" stroke-width="1.75" stroke-linecap="round" stroke-linejoin="round"/>
<path d="M5.83337 23.9167H22.1667" stroke="black" stroke-width="1.75" stroke-linecap="round" stroke-linejoin="round"/>
<path d="M17.5 12.25C17.5 14.183 15.933 15.75 14 15.75C12.0669 15.75 10.5 14.183 10.5 12.25C10.5 10.317 12.0669 8.75 14 8.75C15.933 8.75 17.5 10.317 17.5 12.25Z" stroke="black" stroke-width="1.75" stroke-linecap="round" stroke-linejoin="round"/>
</svg>
