<svg width="20" height="20" viewBox="0 0 20 20" fill="none" xmlns="http://www.w3.org/2000/svg">
<path opacity="0.4" d="M1.68091 11.25C3.51388 11.25 4.99981 12.7359 4.99981 14.5689" stroke="black" stroke-width="1.25" stroke-linecap="round" stroke-linejoin="round"/>
<path opacity="0.4" d="M15 14.5689V14.4923C15 12.7017 16.4517 11.25 18.2423 11.25" stroke="black" stroke-width="1.25" stroke-linecap="round" stroke-linejoin="round"/>
<path opacity="0.4" d="M4.99981 2.92969C4.99981 4.76267 3.51388 6.24859 1.68091 6.24859" stroke="black" stroke-width="1.25" stroke-linecap="round" stroke-linejoin="round"/>
<path opacity="0.4" d="M15 2.92969C15 4.74662 16.4742 6.22255 18.2853 6.24825" stroke="black" stroke-width="1.25" stroke-linecap="round" stroke-linejoin="round"/>
<path d="M13.3333 2.91666H6.66663C4.3096 2.91666 3.13109 2.91666 2.39886 3.64889C1.66663 4.38112 1.66663 5.55963 1.66663 7.91666V9.58332C1.66663 11.9403 1.66663 13.1188 2.39886 13.8511C3.13109 14.5833 4.3096 14.5833 6.66663 14.5833H13.3333C15.6903 14.5833 16.8688 14.5833 17.601 13.8511C18.3333 13.1188 18.3333 11.9403 18.3333 9.58332V7.91666C18.3333 5.55963 18.3333 4.38112 17.601 3.64889C16.8688 2.91666 15.6903 2.91666 13.3333 2.91666Z" stroke="black" stroke-width="1.25" stroke-linecap="round" stroke-linejoin="round"/>
<path d="M4.16663 17.0833H15.8333" stroke="black" stroke-width="1.25" stroke-linecap="round" stroke-linejoin="round"/>
<path d="M12.5 8.75C12.5 10.1307 11.3807 11.25 10 11.25C8.61925 11.25 7.5 10.1307 7.5 8.75C7.5 7.36929 8.61925 6.25 10 6.25C11.3807 6.25 12.5 7.36929 12.5 8.75Z" stroke="black" stroke-width="1.25" stroke-linecap="round" stroke-linejoin="round"/>
</svg>
