<svg width="32" height="32" viewBox="0 0 32 32" fill="none" xmlns="http://www.w3.org/2000/svg">
<g opacity="0.4">
<path d="M20 14.0001C20 16.2093 18.2092 18.0001 16 18.0001C13.7908 18.0001 12 16.2093 12 14.0001C12 11.791 13.7908 10.0002 16 10.0002C18.2092 10.0002 20 11.791 20 14.0001Z" fill="black"/>
<path d="M24 4.66682C24 7.61234 26.3879 10.0002 29.3333 10.0002C29.3333 8.13332 29.3333 7.19989 28.97 6.48686C28.6504 5.85965 28.1405 5.34972 27.5133 5.03014C26.8003 4.66682 25.8668 4.66682 24 4.66682Z" fill="black"/>
<path d="M7.99996 4.66682C7.99996 7.61234 5.61215 10.0002 2.66663 10.0002C2.66663 8.13332 2.66663 7.1999 3.02993 6.48686C3.34952 5.85965 3.85945 5.34972 4.48665 5.03014C5.19969 4.66682 6.13312 4.66682 7.99996 4.66682Z" fill="black"/>
<path d="M24 23.3335C24 20.388 26.3879 18.0001 29.3333 18.0001C29.3333 19.8671 29.3333 20.8004 28.97 21.5135C28.6504 22.1407 28.1405 22.6507 27.5133 22.9701C26.8003 23.3335 25.8668 23.3335 24 23.3335Z" fill="black"/>
<path d="M7.99996 23.3335C7.99996 20.388 5.61215 18.0001 2.66663 18.0001C2.66663 19.8671 2.66663 20.8004 3.02993 21.5135C3.34952 22.1407 3.85945 22.6507 4.48665 22.9701C5.19969 23.3335 6.13312 23.3335 7.99996 23.3335Z" fill="black"/>
</g>
<path d="M2.68945 18C5.62221 18 7.99969 20.3775 7.99969 23.3103" stroke="black" stroke-width="2" stroke-linecap="round" stroke-linejoin="round"/>
<path d="M24 23.3103V23.1877C24 20.3227 26.3227 18 29.1877 18" stroke="black" stroke-width="2" stroke-linecap="round" stroke-linejoin="round"/>
<path d="M7.99969 4.6875C7.99969 7.62027 5.62221 9.99774 2.68945 9.99774" stroke="black" stroke-width="2" stroke-linecap="round" stroke-linejoin="round"/>
<path d="M24 4.6875C24 7.59459 26.3587 9.95607 29.2564 9.99719" stroke="black" stroke-width="2" stroke-linecap="round" stroke-linejoin="round"/>
<path d="M21.3333 4.66667H10.6666C6.89539 4.66667 5.00977 4.66667 3.8382 5.83825C2.66663 7.00982 2.66663 8.89543 2.66663 12.6667V15.3333C2.66663 19.1045 2.66663 20.9901 3.8382 22.1617C5.00977 23.3333 6.89539 23.3333 10.6666 23.3333H21.3333C25.1045 23.3333 26.9901 23.3333 28.1617 22.1617C29.3333 20.9901 29.3333 19.1045 29.3333 15.3333V12.6667C29.3333 8.89543 29.3333 7.00982 28.1617 5.83825C26.9901 4.66667 25.1045 4.66667 21.3333 4.66667Z" stroke="black" stroke-width="2" stroke-linecap="round" stroke-linejoin="round"/>
<path d="M6.66663 27.3333H25.3333" stroke="black" stroke-width="2" stroke-linecap="round" stroke-linejoin="round"/>
<path d="M20 14C20 16.2092 18.2092 18 16 18C13.7908 18 12 16.2092 12 14C12 11.7909 13.7908 10 16 10C18.2092 10 20 11.7909 20 14Z" stroke="black" stroke-width="2" stroke-linecap="round" stroke-linejoin="round"/>
</svg>
