<svg width="32" height="32" viewBox="0 0 32 32" fill="none" xmlns="http://www.w3.org/2000/svg">
<path d="M2.68945 18C5.62221 18 7.99969 20.3775 7.99969 23.3103" stroke="black" stroke-width="2" stroke-linecap="round" stroke-linejoin="round"/>
<path d="M24 23.3103V23.1877C24 20.3227 26.3227 18 29.1877 18" stroke="black" stroke-width="2" stroke-linecap="round" stroke-linejoin="round"/>
<path d="M7.99969 4.6875C7.99969 7.62027 5.62221 9.99774 2.68945 9.99774" stroke="black" stroke-width="2" stroke-linecap="round" stroke-linejoin="round"/>
<path d="M24 4.6875C24 7.59459 26.3587 9.95607 29.2564 9.99719" stroke="black" stroke-width="2" stroke-linecap="round" stroke-linejoin="round"/>
<path d="M21.3333 4.66667H10.6666C6.89539 4.66667 5.00977 4.66667 3.8382 5.83825C2.66663 7.00982 2.66663 8.89543 2.66663 12.6667V15.3333C2.66663 19.1045 2.66663 20.9901 3.8382 22.1617C5.00977 23.3333 6.89539 23.3333 10.6666 23.3333H21.3333C25.1045 23.3333 26.9901 23.3333 28.1617 22.1617C29.3333 20.9901 29.3333 19.1045 29.3333 15.3333V12.6667C29.3333 8.89543 29.3333 7.00982 28.1617 5.83825C26.9901 4.66667 25.1045 4.66667 21.3333 4.66667Z" stroke="black" stroke-width="2" stroke-linecap="round" stroke-linejoin="round"/>
<path d="M6.66663 27.3333H25.3333" stroke="black" stroke-width="2" stroke-linecap="round" stroke-linejoin="round"/>
<path d="M20 14C20 16.2092 18.2092 18 16 18C13.7908 18 12 16.2092 12 14C12 11.7909 13.7908 10 16 10C18.2092 10 20 11.7909 20 14Z" stroke="black" stroke-width="2" stroke-linecap="round" stroke-linejoin="round"/>
</svg>
