<svg width="16" height="16" viewBox="0 0 16 16" fill="none" xmlns="http://www.w3.org/2000/svg">
<path opacity="0.4" d="M15.1667 7.70961V7.66668V6.33334V6.29039C15.1667 5.38168 15.1668 4.64889 15.0892 4.07228C15.0086 3.4722 14.8356 2.96704 14.4343 2.56576C14.033 2.16449 13.5278 1.9915 12.9278 1.91082C12.3512 1.83331 11.6184 1.83332 10.7096 1.83334H10.6667H5.33337H5.29045C4.38172 1.83332 3.64893 1.83331 3.07231 1.91082C2.47223 1.9915 1.96707 2.16449 1.56579 2.56576C1.16452 2.96704 0.991528 3.4722 0.910848 4.07228C0.833341 4.6489 0.833355 5.38169 0.833375 6.29042V6.33334V7.66668V7.70961C0.833355 8.61834 0.833341 9.35114 0.910848 9.92774C0.991528 10.5278 1.16452 11.033 1.56579 11.4343L1.64197 11.5071C2.03031 11.8571 2.50975 12.0135 3.07231 12.0892C3.64891 12.1667 4.38169 12.1667 5.2904 12.1667H5.33337H10.6667H10.7097C11.6184 12.1667 12.3512 12.1667 12.9278 12.0892C13.5278 12.0085 14.033 11.8355 14.4343 11.4343L14.5072 11.3581C14.8571 10.9697 15.0136 10.4903 15.0892 9.92774C15.1668 9.35114 15.1667 8.61834 15.1667 7.70961Z" fill="black"/>
<path d="M10 7C10 8.1046 9.1046 9 8 9C6.8954 9 6 8.1046 6 7C6 5.89543 6.8954 5 8 5C9.1046 5 10 5.89543 10 7Z" fill="black"/>
<path d="M14.4342 2.5664C14.033 2.16512 13.5278 1.99212 12.9277 1.91144C12.6641 1.87601 12.3678 1.85678 12.0371 1.84634C12.0371 3.56073 13.4394 4.95051 15.1538 4.95051C15.1433 4.62498 15.1241 4.33304 15.0892 4.0729C15.0085 3.47283 14.8355 2.96767 14.4342 2.5664Z" fill="black"/>
<path d="M1.55301 2.5664C1.95429 2.16512 2.45945 1.99212 3.05952 1.91144C3.32313 1.87601 3.61937 1.85678 3.95015 1.84634C3.95015 3.56073 2.54776 4.95051 0.833374 4.95051C0.843907 4.62498 0.863094 4.33304 0.898061 4.0729C0.978741 3.47283 1.15173 2.96767 1.55301 2.5664Z" fill="black"/>
<path d="M14.4342 11.4336C14.0329 11.8349 13.5278 12.0079 12.9277 12.0885C12.6641 12.124 12.3678 12.1432 12.0371 12.1537C12.0371 10.4393 13.4394 9.04947 15.1538 9.04947C15.1433 9.375 15.1241 9.66694 15.0892 9.92707C15.0085 10.5271 14.8355 11.0323 14.4342 11.4336Z" fill="black"/>
<path d="M1.55301 11.4336C1.95429 11.8349 2.45945 12.0079 3.05952 12.0885C3.32313 12.124 3.61937 12.1432 3.95014 12.1537C3.95014 10.4393 2.54775 9.04947 0.833374 9.04947C0.843901 9.375 0.863094 9.66694 0.898061 9.92707C0.978734 10.5271 1.15173 11.0323 1.55301 11.4336Z" fill="black"/>
<path d="M12.6667 13.1667C12.9428 13.1667 13.1667 13.3905 13.1667 13.6667C13.1667 13.9428 12.9428 14.1667 12.6667 14.1667H3.33337C3.05723 14.1667 2.83337 13.9428 2.83337 13.6667C2.83337 13.3905 3.05723 13.1667 3.33337 13.1667H12.6667Z" fill="black"/>
</svg>
