<svg width="20" height="20" viewBox="0 0 20 20" fill="none" xmlns="http://www.w3.org/2000/svg">
<g opacity="0.4">
<path d="M12.5 8.75007C12.5 10.1308 11.3807 11.2501 10 11.2501C8.61925 11.2501 7.5 10.1308 7.5 8.75007C7.5 7.36938 8.61925 6.25009 10 6.25009C11.3807 6.25009 12.5 7.36938 12.5 8.75007Z" fill="black"/>
<path d="M15 2.91676C15 4.75771 16.4924 6.2501 18.3333 6.2501C18.3333 5.08332 18.3333 4.49993 18.1063 4.05429C17.9065 3.66228 17.5878 3.34357 17.1958 3.14384C16.7502 2.91676 16.1667 2.91676 15 2.91676Z" fill="black"/>
<path d="M4.99996 2.91676C4.99996 4.75771 3.50758 6.2501 1.66663 6.2501C1.66663 5.08332 1.66663 4.49994 1.89369 4.05429C2.09343 3.66228 2.41214 3.34357 2.80414 3.14384C3.24979 2.91676 3.83318 2.91676 4.99996 2.91676Z" fill="black"/>
<path d="M15 14.5834C15 12.7425 16.4924 11.2501 18.3333 11.2501C18.3333 12.4169 18.3333 13.0002 18.1063 13.4459C17.9065 13.8379 17.5878 14.1567 17.1958 14.3563C16.7502 14.5834 16.1667 14.5834 15 14.5834Z" fill="black"/>
<path d="M4.99996 14.5834C4.99996 12.7425 3.50758 11.2501 1.66663 11.2501C1.66663 12.4169 1.66663 13.0002 1.89369 13.4459C2.09343 13.8379 2.41214 14.1567 2.80414 14.3563C3.24979 14.5834 3.83318 14.5834 4.99996 14.5834Z" fill="black"/>
</g>
<path d="M1.68091 11.25C3.51388 11.25 4.99981 12.7359 4.99981 14.5689" stroke="black" stroke-width="1.25" stroke-linecap="round" stroke-linejoin="round"/>
<path d="M15 14.5689V14.4923C15 12.7017 16.4517 11.25 18.2423 11.25" stroke="black" stroke-width="1.25" stroke-linecap="round" stroke-linejoin="round"/>
<path d="M4.99981 2.92969C4.99981 4.76267 3.51388 6.24859 1.68091 6.24859" stroke="black" stroke-width="1.25" stroke-linecap="round" stroke-linejoin="round"/>
<path d="M15 2.92969C15 4.74662 16.4742 6.22255 18.2853 6.24825" stroke="black" stroke-width="1.25" stroke-linecap="round" stroke-linejoin="round"/>
<path d="M13.3333 2.91667H6.66663C4.3096 2.91667 3.13109 2.91667 2.39886 3.64891C1.66663 4.38114 1.66663 5.55965 1.66663 7.91667V9.58334C1.66663 11.9403 1.66663 13.1188 2.39886 13.8511C3.13109 14.5833 4.3096 14.5833 6.66663 14.5833H13.3333C15.6903 14.5833 16.8688 14.5833 17.601 13.8511C18.3333 13.1188 18.3333 11.9403 18.3333 9.58334V7.91667C18.3333 5.55965 18.3333 4.38114 17.601 3.64891C16.8688 2.91667 15.6903 2.91667 13.3333 2.91667Z" stroke="black" stroke-width="1.25" stroke-linecap="round" stroke-linejoin="round"/>
<path d="M4.16663 17.0833H15.8333" stroke="black" stroke-width="1.25" stroke-linecap="round" stroke-linejoin="round"/>
<path d="M12.5 8.75C12.5 10.1307 11.3807 11.25 10 11.25C8.61925 11.25 7.5 10.1307 7.5 8.75C7.5 7.36929 8.61925 6.25 10 6.25C11.3807 6.25 12.5 7.36929 12.5 8.75Z" stroke="black" stroke-width="1.25" stroke-linecap="round" stroke-linejoin="round"/>
</svg>
