<svg width="28" height="28" viewBox="0 0 28 28" fill="none" xmlns="http://www.w3.org/2000/svg">
<path d="M18.742 3.20834C20.3321 3.20831 21.6145 3.20829 22.6236 3.34392C23.6737 3.48511 24.5578 3.78785 25.26 4.49008C25.9622 5.19232 26.265 6.07635 26.4061 7.12648C26.5418 8.13554 26.5417 9.41792 26.5417 11.0082V13.4919C26.5417 15.0821 26.5418 16.3645 26.4061 17.3735C26.2737 18.358 25.9999 19.197 25.3875 19.8766L25.26 20.01C24.5577 20.7122 23.6737 21.0149 22.6236 21.1561C21.6145 21.2918 20.3321 21.2917 18.742 21.2917H9.25818C7.66795 21.2917 6.38557 21.2918 5.37651 21.1561C4.39203 21.0237 3.55302 20.7499 2.87341 20.1375L2.74011 20.01C2.03788 19.3078 1.73514 18.4237 1.59395 17.3735C1.45832 16.3645 1.45834 15.0821 1.45838 13.4919V11.0082C1.45834 9.41792 1.45832 8.13554 1.59395 7.12648C1.73514 6.07635 2.03788 5.19232 2.74011 4.49008C3.44235 3.78785 4.32638 3.48511 5.37651 3.34392C6.38557 3.20829 7.66795 3.20831 9.25818 3.20834H18.742ZM3.2323 15.832C3.24937 16.3317 3.27846 16.7615 3.32915 17.1388C3.44423 17.9948 3.65458 18.4486 3.97742 18.7714L4.10503 18.8878C4.41981 19.1458 4.8611 19.3191 5.61006 19.4198C5.98739 19.4705 6.41719 19.5007 6.91687 19.5178C6.56071 17.6561 5.09381 16.1884 3.2323 15.832ZM24.769 15.8138C22.8794 16.1369 21.3882 17.6283 21.065 19.5178C21.5723 19.5007 22.0082 19.4711 22.39 19.4198C23.2459 19.3046 23.6998 19.0944 24.0226 18.7714L24.1388 18.6439C24.3969 18.3292 24.5703 17.8876 24.671 17.1388C24.7222 16.7571 24.7519 16.321 24.769 15.8138ZM14 8.75001C12.067 8.75001 10.5 10.317 10.5 12.25C10.5 14.1831 12.067 15.75 14 15.75C15.9331 15.75 17.5 14.1831 17.5 12.25C17.5 10.317 15.9331 8.75001 14 8.75001ZM6.91687 4.98113C6.41723 4.9982 5.98736 5.02728 5.61006 5.07797C4.75425 5.19303 4.30029 5.40352 3.97742 5.72624C3.65458 6.0491 3.44425 6.50308 3.32915 7.3589C3.27843 7.73627 3.24937 8.16707 3.2323 8.66684C5.09385 8.31049 6.5607 6.84274 6.91687 4.98113ZM21.0832 4.98113C21.4414 6.83634 22.9121 8.29956 24.7678 8.66229C24.7506 8.16424 24.7215 7.73524 24.671 7.3589C24.5558 6.50305 24.3455 6.0491 24.0226 5.72624C23.6998 5.40343 23.2459 5.19307 22.39 5.07797C22.0128 5.02729 21.5827 4.99821 21.0832 4.98113Z" fill="black"/>
<path d="M22.1667 23.0417C22.6499 23.0417 23.0417 23.4334 23.0417 23.9167C23.0417 24.3999 22.6499 24.7917 22.1667 24.7917H5.83337C5.35013 24.7917 4.95837 24.3999 4.95837 23.9167C4.95837 23.4334 5.35013 23.0417 5.83337 23.0417H22.1667Z" fill="black"/>
</svg>
