<svg width="32" height="32" viewBox="0 0 32 32" fill="none" xmlns="http://www.w3.org/2000/svg">
<path opacity="0.4" d="M30.3333 15.4192V15.3333V12.6667V12.5808C30.3333 10.7633 30.3334 9.29775 30.1784 8.14452C30.017 6.94438 29.671 5.93406 28.8685 5.1315C28.066 4.32895 27.0556 3.98296 25.8554 3.8216C24.7022 3.66659 23.2366 3.66662 21.4192 3.66666H21.3333H10.6666H10.5808C8.76332 3.66662 7.29773 3.66659 6.14449 3.8216C4.94435 3.98296 3.93403 4.32895 3.13147 5.1315C2.32892 5.93406 1.98293 6.94438 1.82157 8.14452C1.66656 9.29776 1.66659 10.7634 1.66663 12.5808V12.6667V15.3333V15.4192C1.66659 17.2367 1.66656 18.7023 1.82157 19.8555C1.98293 21.0556 2.32892 22.066 3.13147 22.8685L3.28381 23.0143C4.06051 23.7141 5.01937 24.0271 6.14449 24.1784C7.29771 24.3335 8.76327 24.3333 10.5807 24.3333H10.6666H21.3333H21.4193C23.2366 24.3333 24.7022 24.3335 25.8554 24.1784C27.0556 24.0171 28.066 23.6711 28.8685 22.8685L29.0142 22.7161C29.7141 21.9395 30.027 20.9805 30.1784 19.8555C30.3334 18.7023 30.3333 17.2367 30.3333 15.4192Z" fill="black"/>
<path d="M20 14C20 16.2092 18.2092 18 16 18C13.7908 18 12 16.2092 12 14C12 11.7909 13.7908 10 16 10C18.2092 10 20 11.7909 20 14Z" fill="black"/>
<path d="M28.8685 5.13283C28.066 4.33027 27.0556 3.98428 25.8554 3.82292C25.3282 3.75205 24.7357 3.7136 24.0742 3.69272C24.0742 7.12149 26.8789 9.90105 30.3077 9.90105C30.2866 9.24999 30.2482 8.66612 30.1784 8.14584C30.017 6.94569 29.671 5.93537 28.8685 5.13283Z" fill="black"/>
<path d="M3.10591 5.13283C3.90845 4.33027 4.91877 3.98428 6.11892 3.82292C6.64613 3.75205 7.23863 3.7136 7.90017 3.69272C7.90017 7.12149 5.0954 9.90105 1.66663 9.90105C1.68769 9.24999 1.72607 8.66612 1.796 8.14584C1.95736 6.94569 2.30335 5.93537 3.10591 5.13283Z" fill="black"/>
<path d="M28.8685 22.8672C28.0658 23.6697 27.0556 24.0157 25.8554 24.1771C25.3282 24.248 24.7357 24.2864 24.0742 24.3073C24.0742 20.8785 26.8789 18.0989 30.3077 18.0989C30.2866 18.75 30.2482 19.3339 30.1784 19.8541C30.017 21.0543 29.671 22.0647 28.8685 22.8672Z" fill="black"/>
<path d="M3.10589 22.8672C3.90845 23.6697 4.91877 24.0157 6.11892 24.1771C6.64613 24.248 7.23861 24.2864 7.90016 24.3073C7.90016 20.8785 5.09539 18.0989 1.66663 18.0989C1.68768 18.75 1.72607 19.3339 1.796 19.8541C1.95735 21.0543 2.30335 22.0647 3.10589 22.8672Z" fill="black"/>
<path d="M25.3333 26.3333C25.8856 26.3333 26.3333 26.7811 26.3333 27.3333C26.3333 27.8856 25.8856 28.3333 25.3333 28.3333H6.66663C6.11435 28.3333 5.66663 27.8856 5.66663 27.3333C5.66663 26.7811 6.11435 26.3333 6.66663 26.3333H25.3333Z" fill="black"/>
</svg>
