<svg width="32" height="32" viewBox="0 0 32 32" fill="none" xmlns="http://www.w3.org/2000/svg">
<path d="M21.4193 3.66666C23.2366 3.66662 24.7022 3.66659 25.8554 3.8216C27.0556 3.98296 28.066 4.32895 28.8685 5.1315C29.671 5.93406 30.017 6.94438 30.1784 8.14452C30.3334 9.29774 30.3333 10.7633 30.3333 12.5807V15.4193C30.3333 17.2367 30.3334 18.7023 30.1784 19.8555C30.027 20.9805 29.7141 21.9395 29.0142 22.7161L28.8685 22.8685C28.0658 23.6711 27.0556 24.0171 25.8554 24.1784C24.7022 24.3335 23.2366 24.3333 21.4193 24.3333H10.5807C8.76328 24.3333 7.29771 24.3335 6.14449 24.1784C5.01937 24.0271 4.06051 23.7141 3.28381 23.0143L3.13147 22.8685C2.32892 22.066 1.98293 21.0556 1.82157 19.8555C1.66656 18.7023 1.66659 17.2367 1.66663 15.4193V12.5807C1.66659 10.7633 1.66656 9.29774 1.82157 8.14452C1.98293 6.94438 2.32892 5.93406 3.13147 5.1315C3.93403 4.32895 4.94435 3.98296 6.14449 3.8216C7.29771 3.66659 8.76328 3.66662 10.5807 3.66666H21.4193ZM3.69397 18.0937C3.71348 18.6648 3.74672 19.156 3.80465 19.5872C3.93617 20.5655 4.17657 21.0841 4.54553 21.4531L4.69137 21.586C5.05112 21.8809 5.55545 22.0789 6.41141 22.194C6.84264 22.252 7.33384 22.2865 7.90491 22.306C7.49787 20.1784 5.82141 18.5011 3.69397 18.0937ZM28.3073 18.0729C26.1478 18.4421 24.4436 20.1467 24.0742 22.306C24.654 22.2865 25.1521 22.2527 25.5885 22.194C26.5666 22.0624 27.0854 21.8221 27.4544 21.4531L27.5872 21.3073C27.8821 20.9476 28.0802 20.4429 28.1953 19.5872C28.2538 19.1509 28.2878 18.6525 28.3073 18.0729ZM16 9.99999C13.7908 9.99999 12 11.7909 12 14C12 16.2092 13.7908 18 16 18C18.2092 18 20 16.2092 20 14C20 11.7909 18.2092 9.99999 16 9.99999ZM7.90491 5.6927C7.33389 5.7122 6.84261 5.74544 6.41141 5.80338C5.43335 5.93487 4.91453 6.17543 4.54553 6.54426C4.17657 6.91323 3.9362 7.43207 3.80465 8.41015C3.74669 8.84143 3.71348 9.33378 3.69397 9.90494C5.82145 9.49768 7.49785 7.82026 7.90491 5.6927ZM24.095 5.6927C24.5044 7.81294 26.1852 9.48519 28.306 9.89974C28.2864 9.33054 28.253 8.84026 28.1953 8.41015C28.0637 7.43203 27.8233 6.91323 27.4544 6.54426C27.0854 6.17532 26.5666 5.93491 25.5885 5.80338C25.1574 5.74546 24.6658 5.71222 24.095 5.6927Z" fill="black"/>
<path d="M25.3333 26.3333C25.8856 26.3333 26.3333 26.7811 26.3333 27.3333C26.3333 27.8856 25.8856 28.3333 25.3333 28.3333H6.66663C6.11435 28.3333 5.66663 27.8856 5.66663 27.3333C5.66663 26.7811 6.11435 26.3333 6.66663 26.3333H25.3333Z" fill="black"/>
</svg>
