<svg width="16" height="16" viewBox="0 0 16 16" fill="none" xmlns="http://www.w3.org/2000/svg">
<path d="M10.7097 1.83334C11.6184 1.83332 12.3512 1.83331 12.9278 1.91082C13.5278 1.9915 14.033 2.16449 14.4343 2.56576C14.8356 2.96704 15.0086 3.4722 15.0892 4.07228C15.1668 4.64888 15.1667 5.38167 15.1667 6.29038V7.70968C15.1667 8.61834 15.1668 9.35114 15.0892 9.92774C15.0136 10.4903 14.8571 10.9697 14.5072 11.3581L14.4343 11.4343C14.033 11.8355 13.5278 12.0085 12.9278 12.0892C12.3512 12.1667 11.6184 12.1667 10.7097 12.1667H5.29041C4.3817 12.1667 3.64891 12.1667 3.07231 12.0892C2.50975 12.0135 2.03031 11.8571 1.64197 11.5071L1.56579 11.4343C1.16452 11.033 0.991528 10.5278 0.910848 9.92774C0.833341 9.35114 0.833355 8.61834 0.833375 7.70968V6.29038C0.833355 5.38167 0.833341 4.64888 0.910848 4.07228C0.991528 3.4722 1.16452 2.96704 1.56579 2.56576C1.96707 2.16449 2.47223 1.9915 3.07231 1.91082C3.64891 1.83331 4.3817 1.83332 5.29041 1.83334H10.7097ZM1.84705 9.04688C1.8568 9.33241 1.87342 9.57801 1.90239 9.79361C1.96815 10.2827 2.08835 10.5421 2.27283 10.7265L2.34575 10.793C2.52562 10.9405 2.77779 11.0395 3.20577 11.097C3.42138 11.126 3.66698 11.1433 3.95251 11.153C3.74899 10.0892 2.91077 9.25054 1.84705 9.04688ZM14.1537 9.03648C13.074 9.22108 12.2218 10.0733 12.0372 11.153C12.327 11.1433 12.5761 11.1263 12.7943 11.097C13.2834 11.0312 13.5428 10.9111 13.7272 10.7265L13.7936 10.6537C13.9411 10.4738 14.0402 10.2215 14.0977 9.79361C14.127 9.57548 14.144 9.32628 14.1537 9.03648ZM8.00004 5.00001C6.89544 5.00001 6.00004 5.89544 6.00004 7.00001C6.00004 8.10461 6.89544 9.00001 8.00004 9.00001C9.10464 9.00001 10 8.10461 10 7.00001C10 5.89544 9.10464 5.00001 8.00004 5.00001ZM3.95251 2.84636C3.66701 2.85612 3.42137 2.87274 3.20577 2.9017C2.71673 2.96745 2.45733 3.08773 2.27283 3.27214C2.08835 3.45663 1.96816 3.71605 1.90239 4.20509C1.87341 4.42073 1.8568 4.6669 1.84705 4.95248C2.91079 4.74886 3.74899 3.91014 3.95251 2.84636ZM12.0476 2.84636C12.2522 3.90648 13.0926 4.74261 14.153 4.94988C14.1432 4.66528 14.1266 4.42014 14.0977 4.20509C14.0319 3.71603 13.9117 3.45663 13.7272 3.27214C13.5428 3.08768 13.2834 2.96747 12.7943 2.9017C12.5788 2.87274 12.333 2.85612 12.0476 2.84636Z" fill="black"/>
<path d="M12.6667 13.1667C12.9428 13.1667 13.1667 13.3905 13.1667 13.6667C13.1667 13.9428 12.9428 14.1667 12.6667 14.1667H3.33337C3.05723 14.1667 2.83337 13.9428 2.83337 13.6667C2.83337 13.3905 3.05723 13.1667 3.33337 13.1667H12.6667Z" fill="black"/>
</svg>
