<svg width="28" height="28" viewBox="0 0 28 28" fill="none" xmlns="http://www.w3.org/2000/svg">
<path opacity="0.4" d="M26.5417 13.4918V13.4167V11.0833V11.0082C26.5417 9.41793 26.5418 8.13555 26.4061 7.12648C26.265 6.07635 25.9622 5.19232 25.26 4.49008C24.5578 3.78785 23.6737 3.48511 22.6236 3.34392C21.6145 3.20829 20.3321 3.20831 18.7418 3.20834H18.6667H9.33337H9.25825C7.66798 3.20831 6.38559 3.20829 5.37651 3.34392C4.32638 3.48511 3.44235 3.78785 2.74011 4.49008C2.03788 5.19232 1.73514 6.07635 1.59395 7.12648C1.45832 8.13556 1.45834 9.41795 1.45838 11.0082V11.0833V13.4167V13.4918C1.45834 15.0821 1.45832 16.3645 1.59395 17.3735C1.73514 18.4237 2.03788 19.3078 2.74011 20.01L2.87341 20.1375C3.55302 20.7499 4.39203 21.0237 5.37651 21.1561C6.38557 21.2918 7.66794 21.2917 9.25817 21.2917H9.33337H18.6667H18.742C20.3321 21.2917 21.6145 21.2918 22.6236 21.1561C23.6737 21.0149 24.5578 20.7122 25.26 20.01L25.3875 19.8766C25.9999 19.197 26.2737 18.358 26.4061 17.3735C26.5418 16.3645 26.5417 15.0821 26.5417 13.4918Z" fill="black"/>
<path d="M17.5 12.25C17.5 14.183 15.933 15.75 14 15.75C12.0669 15.75 10.5 14.183 10.5 12.25C10.5 10.317 12.0669 8.75 14 8.75C15.933 8.75 17.5 10.317 17.5 12.25Z" fill="black"/>
<path d="M25.2599 4.4912C24.5577 3.78896 23.6736 3.48622 22.6235 3.34503C22.1622 3.28303 21.6437 3.24938 21.0649 3.23111C21.0649 6.23129 23.519 8.6634 26.5192 8.6634C26.5008 8.09372 26.4672 7.58283 26.4061 7.12759C26.2649 6.07746 25.9621 5.19343 25.2599 4.4912Z" fill="black"/>
<path d="M2.71774 4.4912C3.41997 3.78896 4.304 3.48622 5.35413 3.34503C5.81544 3.28303 6.33387 3.24938 6.91273 3.23111C6.91273 6.23129 4.45855 8.6634 1.45837 8.6634C1.47681 8.09372 1.51038 7.58283 1.57158 7.12759C1.71277 6.07746 2.0155 5.19343 2.71774 4.4912Z" fill="black"/>
<path d="M25.2599 20.0088C24.5576 20.711 23.6736 21.0138 22.6235 21.1549C22.1622 21.217 21.6437 21.2506 21.0649 21.2689C21.0649 18.2687 23.519 15.8366 26.5192 15.8366C26.5008 16.4063 26.4672 16.9171 26.4061 17.3724C26.2649 18.4225 25.9621 19.3066 25.2599 20.0088Z" fill="black"/>
<path d="M2.71773 20.0088C3.41997 20.711 4.304 21.0138 5.35413 21.1549C5.81544 21.217 6.33386 21.2506 6.91272 21.2689C6.91272 18.2687 4.45854 15.8366 1.45837 15.8366C1.4768 16.4063 1.51038 16.9171 1.57158 17.3724C1.71275 18.4225 2.0155 19.3066 2.71773 20.0088Z" fill="black"/>
<path d="M22.1667 23.0417C22.6499 23.0417 23.0417 23.4334 23.0417 23.9167C23.0417 24.3999 22.6499 24.7917 22.1667 24.7917H5.83337C5.35013 24.7917 4.95837 24.3999 4.95837 23.9167C4.95837 23.4334 5.35013 23.0417 5.83337 23.0417H22.1667Z" fill="black"/>
</svg>
