<svg width="20" height="20" viewBox="0 0 20 20" fill="none" xmlns="http://www.w3.org/2000/svg">
<path d="M13.387 2.29166C14.5229 2.29163 15.4389 2.29162 16.1596 2.3885C16.9097 2.48935 17.5412 2.70559 18.0428 3.20718C18.5444 3.70878 18.7606 4.34023 18.8615 5.09032C18.9584 5.81108 18.9583 6.72707 18.9583 7.86295V9.63707C18.9583 10.7729 18.9584 11.6889 18.8615 12.4097C18.7669 13.1128 18.5713 13.7122 18.1339 14.1976L18.0428 14.2928C17.5411 14.7944 16.9097 15.0107 16.1596 15.1115C15.4389 15.2084 14.5229 15.2083 13.387 15.2083H6.61292C5.47704 15.2083 4.56105 15.2084 3.84029 15.1115C3.13709 15.0169 2.5378 14.8213 2.05237 14.3839L1.95715 14.2928C1.45556 13.7912 1.23932 13.1597 1.13847 12.4097C1.04159 11.6889 1.0416 10.7729 1.04163 9.63707V7.86295C1.0416 6.72707 1.04159 5.81108 1.13847 5.09032C1.23932 4.34023 1.45556 3.70878 1.95715 3.20718C2.45875 2.70559 3.0902 2.48935 3.84029 2.3885C4.56105 2.29162 5.47704 2.29163 6.61292 2.29166H13.387ZM2.30872 11.3086C2.32091 11.6655 2.34169 11.9725 2.37789 12.242C2.46009 12.8534 2.61034 13.1776 2.84094 13.4082L2.93209 13.4912C3.15693 13.6756 3.47214 13.7993 4.00712 13.8712C4.27663 13.9075 4.58364 13.9291 4.94055 13.9412C4.68615 12.6115 3.63837 11.5632 2.30872 11.3086ZM17.692 11.2956C16.3424 11.5263 15.2772 12.5917 15.0464 13.9412C15.4087 13.9291 15.72 13.9079 15.9928 13.8712C16.6041 13.789 16.9284 13.6388 17.159 13.4082L17.242 13.3171C17.4263 13.0922 17.5501 12.7768 17.622 12.242C17.6586 11.9693 17.6799 11.6578 17.692 11.2956ZM9.99996 6.24999C8.61921 6.24999 7.49996 7.36928 7.49996 8.74999C7.49996 10.1307 8.61921 11.25 9.99996 11.25C11.3807 11.25 12.5 10.1307 12.5 8.74999C12.5 7.36928 11.3807 6.24999 9.99996 6.24999ZM4.94055 3.55793C4.58367 3.57012 4.27662 3.5909 4.00712 3.62711C3.39583 3.70929 3.07157 3.85964 2.84094 4.09016C2.61034 4.32077 2.46011 4.64504 2.37789 5.25634C2.34167 5.52589 2.32091 5.83361 2.30872 6.19058C3.63839 5.93605 4.68614 4.88766 4.94055 3.55793ZM15.0594 3.55793C15.3152 4.88308 16.3657 5.92824 17.6912 6.18733C17.679 5.83158 17.6581 5.52516 17.622 5.25634C17.5398 4.64502 17.3895 4.32077 17.159 4.09016C16.9284 3.85957 16.6041 3.70932 15.9928 3.62711C15.7234 3.59091 15.4161 3.57013 15.0594 3.55793Z" fill="black"/>
<path d="M15.8333 16.4583C16.1785 16.4583 16.4583 16.7382 16.4583 17.0833C16.4583 17.4285 16.1785 17.7083 15.8333 17.7083H4.16663C3.82145 17.7083 3.54163 17.4285 3.54163 17.0833C3.54163 16.7382 3.82145 16.4583 4.16663 16.4583H15.8333Z" fill="black"/>
</svg>
