<svg width="28" height="28" viewBox="0 0 28 28" fill="none" xmlns="http://www.w3.org/2000/svg">
<g opacity="0.4">
<path d="M17.5 12.2501C17.5 14.1832 15.933 15.7501 14 15.7501C12.0669 15.7501 10.5 14.1832 10.5 12.2501C10.5 10.3172 12.0669 8.75015 14 8.75015C15.933 8.75015 17.5 10.3172 17.5 12.2501Z" fill="black"/>
<path d="M21 4.08348C21 6.66081 23.0894 8.75015 25.6667 8.75015C25.6667 7.11666 25.6667 6.29991 25.3488 5.67602C25.0691 5.1272 24.623 4.68101 24.0742 4.40139C23.4502 4.08348 22.6334 4.08348 21 4.08348Z" fill="black"/>
<path d="M7.00004 4.08348C7.00004 6.66081 4.9107 8.75015 2.33337 8.75015C2.33337 7.11666 2.33337 6.29993 2.65127 5.67602C2.93091 5.1272 3.3771 4.68101 3.9259 4.40139C4.54981 4.08348 5.36656 4.08348 7.00004 4.08348Z" fill="black"/>
<path d="M21 20.4168C21 17.8395 23.0894 15.7501 25.6667 15.7501C25.6667 17.3837 25.6667 18.2004 25.3488 18.8243C25.0691 19.3731 24.623 19.8193 24.0742 20.0989C23.4502 20.4168 22.6334 20.4168 21 20.4168Z" fill="black"/>
<path d="M7.00004 20.4168C7.00004 17.8395 4.9107 15.7501 2.33337 15.7501C2.33337 17.3837 2.33337 18.2004 2.65127 18.8243C2.93091 19.3731 3.3771 19.8193 3.9259 20.0989C4.54981 20.4168 5.36656 20.4168 7.00004 20.4168Z" fill="black"/>
</g>
<path d="M2.35327 15.75C4.91944 15.75 6.99973 17.8303 6.99973 20.3965" stroke="black" stroke-width="1.75" stroke-linecap="round" stroke-linejoin="round"/>
<path d="M21 20.3965V20.2893C21 17.7823 23.0323 15.75 25.5393 15.75" stroke="black" stroke-width="1.75" stroke-linecap="round" stroke-linejoin="round"/>
<path d="M6.99973 4.10156C6.99973 6.66774 4.91944 8.74802 2.35327 8.74802" stroke="black" stroke-width="1.75" stroke-linecap="round" stroke-linejoin="round"/>
<path d="M21 4.10156C21 6.64527 23.0638 8.71156 25.5994 8.74754" stroke="black" stroke-width="1.75" stroke-linecap="round" stroke-linejoin="round"/>
<path d="M18.6667 4.08333H9.33337C6.03354 4.08333 4.38363 4.08333 3.3585 5.10846C2.33337 6.13358 2.33337 7.78349 2.33337 11.0833V13.4167C2.33337 16.7165 2.33337 18.3664 3.3585 19.3915C4.38363 20.4167 6.03354 20.4167 9.33337 20.4167H18.6667C21.9665 20.4167 23.6164 20.4167 24.6416 19.3915C25.6667 18.3664 25.6667 16.7165 25.6667 13.4167V11.0833C25.6667 7.78349 25.6667 6.13358 24.6416 5.10846C23.6164 4.08333 21.9665 4.08333 18.6667 4.08333Z" stroke="black" stroke-width="1.75" stroke-linecap="round" stroke-linejoin="round"/>
<path d="M5.83337 23.9167H22.1667" stroke="black" stroke-width="1.75" stroke-linecap="round" stroke-linejoin="round"/>
<path d="M17.5 12.25C17.5 14.183 15.933 15.75 14 15.75C12.0669 15.75 10.5 14.183 10.5 12.25C10.5 10.317 12.0669 8.75 14 8.75C15.933 8.75 17.5 10.317 17.5 12.25Z" stroke="black" stroke-width="1.75" stroke-linecap="round" stroke-linejoin="round"/>
</svg>
