<svg width="16" height="16" viewBox="0 0 16 16" fill="none" xmlns="http://www.w3.org/2000/svg">
<path d="M12.5 5.16663C12.8682 5.16663 13.1667 5.46511 13.1667 5.83329C13.1667 6.20148 12.8682 6.49996 12.5 6.49996H10.5C10.1318 6.49996 9.83334 6.20148 9.83334 5.83329C9.83334 5.46511 10.1318 5.16663 10.5 5.16663H12.5Z" fill="black"/>
<path d="M12.5 7.83337C12.8682 7.83337 13.1667 8.13184 13.1667 8.50004C13.1667 8.86824 12.8682 9.16671 12.5 9.16671H10.5C10.1318 9.16671 9.83334 8.86824 9.83334 8.50004C9.83334 8.13184 10.1318 7.83337 10.5 7.83337H12.5Z" fill="black"/>
<path d="M5.83203 8.23438C6.5647 8.23438 7.27532 8.47564 7.86586 8.91858C8.45579 9.36104 8.89586 9.98158 9.13152 10.6907C9.24759 11.0401 9.05832 11.4177 8.70899 11.5338C8.35959 11.6499 7.98199 11.4607 7.86586 11.1113C7.71299 10.6512 7.43112 10.259 7.06572 9.98498C6.70106 9.71151 6.26996 9.56771 5.83203 9.56771C5.3941 9.56771 4.96302 9.71151 4.5983 9.98498C4.23296 10.259 3.95105 10.6512 3.79818 11.1113C3.68209 11.4607 3.30449 11.6499 2.95508 11.5338C2.60572 11.4177 2.41648 11.0401 2.53255 10.6907C2.76817 9.98158 3.20828 9.36104 3.79818 8.91858C4.38874 8.47564 5.09936 8.23438 5.83203 8.23438Z" fill="black"/>
<path d="M7.63281 6.09896C7.63281 7.11147 6.81201 7.93227 5.79949 7.93227C4.78697 7.93227 3.96616 7.11147 3.96616 6.09896C3.96616 5.08643 4.78697 4.26562 5.79949 4.26562C6.81201 4.26562 7.63281 5.08643 7.63281 6.09896Z" fill="black"/>
<g opacity="0.4">
<path fill-rule="evenodd" clip-rule="evenodd" d="M9.87192 2H9.83332H5.83332H5.79474C5.76138 2 5.72822 2 5.69528 2C5.60781 2.00001 5.52182 2.00003 5.43728 2.00013C5.0442 2.00058 4.68265 2.00255 4.35082 2.01122C3.92074 2.02245 3.54058 2.04491 3.20637 2.08985C2.51554 2.18273 1.94682 2.37999 1.49674 2.83008C1.04665 3.28017 0.849384 3.84888 0.756504 4.53971C0.666634 5.20814 0.666644 6.06035 0.666657 7.12807V7.16667V8.5V8.5386C0.666656 8.57193 0.666656 8.60513 0.666657 8.63807C0.666664 8.72673 0.66669 8.81393 0.66679 8.8996C0.667244 9.29133 0.669237 9.65167 0.677877 9.98253C0.689104 10.4126 0.71157 10.7927 0.756504 11.1269C0.849384 11.8178 1.04665 12.3865 1.49674 12.8366C1.94682 13.2867 2.51554 13.4839 3.20637 13.5768C3.87479 13.6667 4.72698 13.6667 5.79468 13.6667H5.83332H9.83332H9.87192C10.9397 13.6667 11.7919 13.6667 12.4603 13.5768C13.1511 13.4839 13.7199 13.2867 14.1699 12.8366C14.62 12.3865 14.8173 11.8178 14.9101 11.1269" fill="black"/>
<path d="M15 8.5V8.5386C15 9.60633 15 10.4585 14.9101 11.1269C14.8173 11.8178 14.62 12.3865 14.1699 12.8366C13.7199 13.2867 13.1511 13.4839 12.4603 13.5768C11.7919 13.6667 10.9397 13.6667 9.87192 13.6667H9.83332H5.83332H5.79468C4.72698 13.6667 3.87479 13.6667 3.20637 13.5768C2.51554 13.4839 1.94682 13.2867 1.49674 12.8366C1.04665 12.3865 0.849384 11.8178 0.756504 11.1269C0.666634 10.4585 0.666643 9.60633 0.666657 8.5386V8.5V7.16667V7.12807C0.666643 6.06035 0.666634 5.20814 0.756504 4.53971C0.849384 3.84888 1.04665 3.28017 1.49674 2.83008C1.94682 2.37999 2.51554 2.18273 3.20637 2.08985C3.8748 1.99997 4.72701 1.99999 5.79474 2H5.83332H9.83332H9.87192C10.9397 1.99999 11.7919 1.99997 12.4603 2.08985C13.1511 2.18273 13.7199 2.37999 14.1699 2.83008C14.62 3.28017 14.8173 3.84888 14.9101 4.53971C15 5.20813 15 6.06032 15 7.128V7.16667V8.5Z" fill="black"/>
</g>
</svg>
