<svg width="16" height="16" viewBox="0 0 16 16" fill="none" xmlns="http://www.w3.org/2000/svg">
<path d="M10.6667 6.00061H12.6667" stroke="black" stroke-linecap="round" stroke-linejoin="round"/>
<path d="M10.6667 8.66736H12.6667" stroke="black" stroke-linecap="round" stroke-linejoin="round"/>
<path d="M3.33203 11.0685C3.52627 10.4838 3.88713 9.97741 4.36479 9.61915C4.84245 9.26088 5.41336 9.06848 5.9987 9.06848C6.58403 9.06848 7.15492 9.26088 7.63259 9.61915C8.11026 9.97741 8.47112 10.4838 8.66539 11.0685" stroke="black" stroke-linecap="round" stroke-linejoin="round"/>
<path d="M5.96615 7.59964C6.70253 7.59964 7.29947 7.00271 7.29947 6.26632C7.29947 5.52994 6.70253 4.93298 5.96615 4.93298C5.22977 4.93298 4.63281 5.52994 4.63281 6.26632C4.63281 7.00271 5.22977 7.59964 5.96615 7.59964Z" stroke="black" stroke-linecap="round" stroke-linejoin="round"/>
<path d="M10 2.66736H6.00001C3.80012 2.66736 2.70018 2.66736 2.01676 3.35077C1.33334 4.03419 1.33334 5.13413 1.33334 7.33404V8.66737C1.33334 10.8672 1.33334 11.9672 2.01676 12.6506C2.70018 13.334 3.80012 13.334 6.00001 13.334H10C12.1999 13.334 13.2998 13.334 13.9833 12.6506C14.6667 11.9672 14.6667 10.8672 14.6667 8.66737V7.33404C14.6667 5.13413 14.6667 4.03419 13.9833 3.35077C13.2998 2.66736 12.1999 2.66736 10 2.66736Z" stroke="black" stroke-linecap="round" stroke-linejoin="round"/>
</svg>
