<svg width="24" height="24" viewBox="0 0 24 24" fill="none" xmlns="http://www.w3.org/2000/svg">
<path d="M22.5 12.75V12.8079C22.5 14.4095 22.5 15.6878 22.3652 16.6904C22.2259 17.7267 21.93 18.5798 21.2549 19.2549C20.5797 19.93 19.7267 20.2259 18.6904 20.3652C17.6878 20.5 16.4095 20.5 14.808 20.5H14.75H8.75H8.69217C7.09055 20.5 5.81222 20.5 4.80957 20.3652C3.77332 20.2259 2.92025 19.93 2.24512 19.2549C1.56999 18.5797 1.27409 17.7267 1.13477 16.6904C0.999966 15.6878 0.999981 14.4095 1 12.8079V12.75V10.75V10.6921C0.999981 9.09051 0.999966 7.81221 1.13477 6.80957C1.27409 5.77332 1.56999 4.92025 2.24512 4.24512C2.92025 3.56999 3.77332 3.27409 4.80957 3.13477C5.81221 2.99997 7.09051 2.99998 8.6921 3H8.75H14.75H14.8079C16.4095 2.99998 17.6878 2.99997 18.6904 3.13477C19.7267 3.27409 20.5797 3.56999 21.2549 4.24512C21.93 4.92025 22.2259 5.77332 22.3652 6.80957C22.5 7.81219 22.5 9.09048 22.5 10.692V10.75V12.75ZM19.75 12.75C19.75 12.1977 19.3023 11.75 18.75 11.75H15.75C15.1977 11.75 14.75 12.1977 14.75 12.75C14.75 13.3023 15.1977 13.75 15.75 13.75H18.75C19.3023 13.75 19.75 13.3023 19.75 12.75ZM8.69922 11.8984C10.218 11.8984 11.4492 10.6672 11.4492 9.14844C11.4492 7.62966 10.218 6.39844 8.69922 6.39844C7.18044 6.39844 5.94922 7.62966 5.94922 9.14844C5.94922 10.6672 7.18044 11.8984 8.69922 11.8984ZM19.75 8.75C19.75 8.19772 19.3023 7.75 18.75 7.75H15.75C15.1977 7.75 14.75 8.19772 14.75 8.75C14.75 9.30229 15.1977 9.75 15.75 9.75H18.75C19.3023 9.75 19.75 9.30229 19.75 8.75ZM11.7993 13.7764C10.9134 13.112 9.84752 12.75 8.74852 12.75C7.64951 12.75 6.58358 13.112 5.69773 13.7764C4.8129 14.44 4.15273 15.3709 3.7993 16.4346C3.62519 16.9586 3.90906 17.525 4.43309 17.6992C4.9572 17.8733 5.52361 17.5895 5.69773 17.0654C5.92705 16.3752 6.34991 15.787 6.89793 15.376C7.44501 14.9658 8.09161 14.75 8.74852 14.75C9.40542 14.75 10.052 14.9658 10.5991 15.376C11.1471 15.787 11.57 16.3752 11.7993 17.0654C11.9734 17.5895 12.5398 17.8733 13.0639 17.6992C13.588 17.5251 13.8718 16.9586 13.6977 16.4346C13.3443 15.3709 12.6841 14.44 11.7993 13.7764Z" fill="black"/>
</svg>
