<svg width="32" height="32" viewBox="0 0 32 32" fill="none" xmlns="http://www.w3.org/2000/svg">
<path d="M25 10.3334C25.7364 10.3334 26.3334 10.9303 26.3334 11.6667C26.3334 12.4031 25.7364 13 25 13H21C20.2636 13 19.6667 12.4031 19.6667 11.6667C19.6667 10.9303 20.2636 10.3334 21 10.3334H25Z" fill="black"/>
<path d="M25 15.6666C25.7364 15.6666 26.3334 16.2636 26.3334 17C26.3334 17.7364 25.7364 18.3333 25 18.3333H21C20.2636 18.3333 19.6667 17.7364 19.6667 17C19.6667 16.2636 20.2636 15.6666 21 15.6666H25Z" fill="black"/>
<path d="M11.6641 16.4688C13.1294 16.4688 14.5506 16.9513 15.7317 17.8372C16.9116 18.7221 17.7917 19.9632 18.263 21.3814C18.4952 22.0802 18.1166 22.8354 17.418 23.0677C16.7192 23.2998 15.964 22.9214 15.7317 22.2226C15.426 21.3024 14.8622 20.5181 14.1314 19.97C13.4021 19.423 12.5399 19.1354 11.6641 19.1354C10.7882 19.1354 9.92605 19.423 9.19661 19.97C8.46591 20.5181 7.9021 21.3024 7.59635 22.2226C7.36418 22.9214 6.60898 23.2998 5.91015 23.0677C5.21145 22.8354 4.83295 22.0802 5.0651 21.3814C5.53634 19.9632 6.41657 18.7221 7.59635 17.8372C8.77747 16.9513 10.1987 16.4688 11.6641 16.4688Z" fill="black"/>
<path d="M15.2656 12.1979C15.2656 14.2229 13.624 15.8645 11.599 15.8645C9.57394 15.8645 7.93231 14.2229 7.93231 12.1979C7.93231 10.1729 9.57394 8.53125 11.599 8.53125C13.624 8.53125 15.2656 10.1729 15.2656 12.1979Z" fill="black"/>
<g opacity="0.4">
<path fill-rule="evenodd" clip-rule="evenodd" d="M19.7438 4H19.6666H11.6666H11.5895C11.5228 4 11.4564 4 11.3906 4C11.2156 4.00001 11.0436 4.00007 10.8746 4.00025C10.0884 4.00116 9.3653 4.00511 8.70163 4.02244C7.84149 4.04489 7.08117 4.08983 6.41274 4.17969C5.03107 4.36545 3.89365 4.75999 2.99347 5.66016C2.0933 6.56033 1.69877 7.69776 1.51301 9.07943C1.33327 10.4163 1.33329 12.1207 1.33331 14.2561V14.3333V17V17.0772C1.33331 17.1439 1.33331 17.2103 1.33331 17.2761C1.33333 17.4535 1.33338 17.6279 1.33358 17.7992C1.33449 18.5827 1.33847 19.3033 1.35575 19.9651C1.37821 20.8252 1.42314 21.5855 1.51301 22.2539C1.69877 23.6356 2.0933 24.7731 2.99347 25.6732C3.89365 26.5733 5.03107 26.9679 6.41274 27.1536C7.74958 27.3333 9.45395 27.3333 11.5894 27.3333H11.6666H19.6666H19.7438C21.8793 27.3333 23.5837 27.3333 24.9205 27.1536C26.3022 26.9679 27.4397 26.5733 28.3398 25.6732C29.24 24.7731 29.6345 23.6356 29.8202 22.2539" fill="black"/>
<path d="M30 17V17.0772C30 19.2127 30 20.9171 29.8202 22.2539C29.6345 23.6356 29.24 24.7731 28.3398 25.6732C27.4397 26.5733 26.3022 26.9679 24.9205 27.1536C23.5837 27.3333 21.8793 27.3333 19.7438 27.3333H19.6666H11.6666H11.5894C9.45395 27.3333 7.74958 27.3333 6.41274 27.1536C5.03107 26.9679 3.89365 26.5733 2.99347 25.6732C2.0933 24.7731 1.69877 23.6356 1.51301 22.2539C1.33327 20.9171 1.33329 19.2127 1.33331 17.0772V17V14.3333V14.2561C1.33329 12.1207 1.33327 10.4163 1.51301 9.07943C1.69877 7.69776 2.0933 6.56033 2.99347 5.66016C3.89365 4.75999 5.03107 4.36545 6.41274 4.17969C7.74959 3.99995 9.45402 3.99997 11.5895 4H11.6666H19.6666H19.7438C21.8793 3.99997 23.5837 3.99995 24.9205 4.17969C26.3022 4.36545 27.4397 4.75999 28.3398 5.66016C29.24 6.56033 29.6345 7.69776 29.8202 9.07943C30 10.4163 30 12.1206 30 14.256V14.3333V17Z" fill="black"/>
</g>
</svg>
