<svg width="28" height="28" viewBox="0 0 28 28" fill="none" xmlns="http://www.w3.org/2000/svg">
<path d="M21.875 9.04163C22.5194 9.04163 23.0417 9.56397 23.0417 10.2083C23.0417 10.8526 22.5194 11.375 21.875 11.375H18.375C17.7307 11.375 17.2083 10.8526 17.2083 10.2083C17.2083 9.56397 17.7307 9.04163 18.375 9.04163H21.875Z" fill="black"/>
<path d="M21.875 13.7084C22.5194 13.7084 23.0417 14.2307 23.0417 14.875C23.0417 15.5194 22.5194 16.0417 21.875 16.0417H18.375C17.7307 16.0417 17.2083 15.5194 17.2083 14.875C17.2083 14.2307 17.7307 13.7084 18.375 13.7084H21.875Z" fill="black"/>
<path d="M10.2061 14.4102C11.4882 14.4102 12.7318 14.8324 13.7653 15.6075C14.7977 16.3818 15.5678 17.4678 15.9802 18.7087C16.1833 19.3202 15.8521 19.981 15.2408 20.1842C14.6293 20.3873 13.9685 20.0562 13.7653 19.4448C13.4978 18.6396 13.0045 17.9533 12.365 17.4737C11.7269 16.9951 10.9725 16.7435 10.2061 16.7435C9.43969 16.7435 8.68531 16.9951 8.04705 17.4737C7.4077 17.9533 6.91436 18.6396 6.64683 19.4448C6.44368 20.0562 5.78288 20.3873 5.17141 20.1842C4.56004 19.981 4.22886 19.3202 4.43199 18.7087C4.84432 17.4678 5.61452 16.3818 6.64683 15.6075C7.68031 14.8324 8.9239 14.4102 10.2061 14.4102Z" fill="black"/>
<path d="M13.3574 10.6732C13.3574 12.4451 11.921 13.8815 10.1491 13.8815C8.37719 13.8815 6.94077 12.4451 6.94077 10.6732C6.94077 8.90126 8.37719 7.46484 10.1491 7.46484C11.921 7.46484 13.3574 8.90126 13.3574 10.6732Z" fill="black"/>
<g opacity="0.4">
<path fill-rule="evenodd" clip-rule="evenodd" d="M17.2759 3.5H17.2083H10.2083H10.1408C10.0824 3.5 10.0244 3.5 9.96674 3.5C9.81368 3.50001 9.66319 3.50006 9.51525 3.50022C8.82735 3.50102 8.19465 3.50447 7.61394 3.51963C6.86131 3.53928 6.19603 3.5786 5.61116 3.65723C4.4022 3.81977 3.40695 4.16499 2.6193 4.95264C1.83165 5.74029 1.48643 6.73554 1.32389 7.9445C1.16662 9.11424 1.16663 10.6056 1.16666 12.4741V12.5417V14.875V14.9425C1.16666 15.0009 1.16666 15.059 1.16666 15.1166C1.16667 15.2718 1.16672 15.4244 1.16689 15.5743C1.16768 16.2598 1.17117 16.8904 1.18629 17.4694C1.20594 18.222 1.24526 18.8873 1.32389 19.4721C1.48643 20.6811 1.83165 21.6764 2.6193 22.464C3.40695 23.2517 4.4022 23.5969 5.61116 23.7594C6.78089 23.9167 8.27222 23.9167 10.1407 23.9167H10.2083H17.2083H17.2759C19.1444 23.9167 20.6358 23.9167 21.8055 23.7594C23.0145 23.5969 24.0098 23.2517 24.7974 22.464C25.585 21.6764 25.9302 20.6811 26.0927 19.4721" fill="black"/>
<path d="M26.25 14.875V14.9426C26.25 16.8111 26.25 18.3024 26.0927 19.4721C25.9302 20.6812 25.585 21.6764 24.7974 22.464C24.0098 23.2517 23.0145 23.5969 21.8055 23.7594C20.6358 23.9167 19.1444 23.9167 17.2759 23.9167H17.2083H10.2083H10.1407C8.27222 23.9167 6.78089 23.9167 5.61116 23.7594C4.4022 23.5969 3.40695 23.2517 2.6193 22.464C1.83165 21.6764 1.48643 20.6812 1.32389 19.4721C1.16662 18.3024 1.16663 16.8111 1.16666 14.9426V14.875V12.5417V12.4741C1.16663 10.6056 1.16662 9.11425 1.32389 7.9445C1.48643 6.73554 1.83165 5.74029 2.6193 4.95264C3.40695 4.16499 4.4022 3.81977 5.61116 3.65723C6.7809 3.49995 8.27228 3.49998 10.1408 3.5H10.2083H17.2083H17.2759C19.1444 3.49998 20.6358 3.49995 21.8055 3.65723C23.0145 3.81977 24.0098 4.16499 24.7974 4.95264C25.585 5.74029 25.9302 6.73554 26.0927 7.9445C26.25 9.11422 26.25 10.6056 26.25 12.474V12.5417V14.875Z" fill="black"/>
</g>
</svg>
