<svg width="24" height="24" viewBox="0 0 24 24" fill="none" xmlns="http://www.w3.org/2000/svg">
<path d="M18.75 7.75C19.3023 7.75 19.75 8.19772 19.75 8.75C19.75 9.30228 19.3023 9.75 18.75 9.75H15.75C15.1977 9.75 14.75 9.30228 14.75 8.75C14.75 8.19772 15.1977 7.75 15.75 7.75H18.75Z" fill="black"/>
<path d="M18.75 11.75C19.3023 11.75 19.75 12.1977 19.75 12.75C19.75 13.3023 19.3023 13.75 18.75 13.75H15.75C15.1977 13.75 14.75 13.3023 14.75 12.75C14.75 12.1977 15.1977 11.75 15.75 11.75H18.75Z" fill="black"/>
<path d="M8.74806 12.3516C9.84706 12.3516 10.913 12.7135 11.7988 13.3779C12.6837 14.0416 13.3438 14.9724 13.6973 16.0361C13.8714 16.5602 13.5875 17.1266 13.0635 17.3008C12.5394 17.4749 11.973 17.1911 11.7988 16.667C11.5695 15.9768 11.1467 15.3886 10.5986 14.9775C10.0516 14.5673 9.40496 14.3516 8.74806 14.3516C8.09116 14.3516 7.44455 14.5673 6.89747 14.9775C6.34945 15.3886 5.92659 15.9768 5.69728 16.667C5.52315 17.1911 4.95675 17.4749 4.43263 17.3008C3.9086 17.1266 3.62473 16.5602 3.79884 16.0361C4.15227 14.9724 4.81244 14.0416 5.69728 13.3779C6.58312 12.7135 7.64905 12.3516 8.74806 12.3516Z" fill="black"/>
<path d="M11.4492 9.14844C11.4492 10.6672 10.218 11.8984 8.69922 11.8984C7.18044 11.8984 5.94922 10.6672 5.94922 9.14844C5.94922 7.62965 7.18044 6.39844 8.69922 6.39844C10.218 6.39844 11.4492 7.62965 11.4492 9.14844Z" fill="black"/>
<g opacity="0.4">
<path fill-rule="evenodd" clip-rule="evenodd" d="M14.8079 3H14.75H8.75H8.69213C8.64208 3 8.59235 3 8.54293 3C8.41173 3.00001 8.28274 3.00005 8.15594 3.00019C7.56631 3.00087 7.02399 3.00383 6.52624 3.01683C5.88113 3.03367 5.31089 3.06737 4.80957 3.13477C3.77332 3.27409 2.92025 3.56999 2.24512 4.24512C1.56999 4.92025 1.27409 5.77332 1.13477 6.80957C0.999966 7.81221 0.999981 9.09053 1 10.6921V10.75V12.75V12.8079C1 12.8579 1 12.9077 1 12.9571C1.00001 13.0901 1.00005 13.2209 1.0002 13.3494C1.00088 13.937 1.00387 14.4775 1.01683 14.9738C1.03367 15.6189 1.06737 16.1891 1.13477 16.6904C1.27409 17.7267 1.56999 18.5798 2.24512 19.2549C2.92025 19.93 3.77332 20.2259 4.80957 20.3652C5.8122 20.5 7.09048 20.5 8.69204 20.5H8.75H14.75H14.8079C16.4095 20.5 17.6878 20.5 18.6904 20.3652C19.7267 20.2259 20.5798 19.93 21.2549 19.2549C21.93 18.5798 22.2259 17.7267 22.3652 16.6904" fill="black"/>
<path d="M22.5 12.75V12.8079C22.5 14.4095 22.5 15.6878 22.3652 16.6904C22.2259 17.7267 21.93 18.5798 21.2549 19.2549C20.5798 19.93 19.7267 20.2259 18.6904 20.3652C17.6878 20.5 16.4095 20.5 14.8079 20.5H14.75H8.75H8.69204C7.09048 20.5 5.8122 20.5 4.80957 20.3652C3.77332 20.2259 2.92025 19.93 2.24512 19.2549C1.56999 18.5798 1.27409 17.7267 1.13477 16.6904C0.999966 15.6878 0.99998 14.4095 1 12.8079V12.75V10.75V10.6921C0.99998 9.09053 0.999966 7.81221 1.13477 6.80957C1.27409 5.77332 1.56999 4.92025 2.24512 4.24512C2.92025 3.56999 3.77332 3.27409 4.80957 3.13477C5.81221 2.99996 7.09053 2.99998 8.69213 3H8.75H14.75H14.8079C16.4095 2.99998 17.6878 2.99996 18.6904 3.13477C19.7267 3.27409 20.5798 3.56999 21.2549 4.24512C21.93 4.92025 22.2259 5.77332 22.3652 6.80957C22.5 7.81219 22.5 9.09048 22.5 10.692V10.75V12.75Z" fill="black"/>
</g>
</svg>
