<svg width="32" height="32" viewBox="0 0 32 32" fill="none" xmlns="http://www.w3.org/2000/svg">
<path d="M30 17V17.0772C30 19.2127 30 20.9171 29.8202 22.2539C29.6345 23.6356 29.24 24.7731 28.3398 25.6732C27.4396 26.5733 26.3022 26.9679 24.9205 27.1536C23.5837 27.3333 21.8793 27.3333 19.744 27.3333H19.6666H11.6666H11.5895C9.45405 27.3333 7.74961 27.3333 6.41274 27.1536C5.03107 26.9679 3.89365 26.5733 2.99347 25.6732C2.0933 24.7729 1.69877 23.6356 1.51301 22.2539C1.33327 20.9171 1.33329 19.2127 1.33331 17.0772V17V14.3333V14.2561C1.33329 12.1207 1.33327 10.4163 1.51301 9.07943C1.69877 7.69776 2.0933 6.56033 2.99347 5.66016C3.89365 4.75999 5.03107 4.36545 6.41274 4.17969C7.74959 3.99996 9.45399 3.99997 11.5894 4H11.6666H19.6666H19.7438C21.8793 3.99997 23.5837 3.99996 24.9205 4.17969C26.3022 4.36545 27.4396 4.75999 28.3398 5.66016C29.24 6.56033 29.6345 7.69776 29.8202 9.07943C30 10.4163 30 12.1206 30 14.256V14.3333V17ZM26.3333 17C26.3333 16.2636 25.7364 15.6667 25 15.6667H21C20.2636 15.6667 19.6666 16.2636 19.6666 17C19.6666 17.7364 20.2636 18.3333 21 18.3333H25C25.7364 18.3333 26.3333 17.7364 26.3333 17ZM11.5989 15.8645C13.624 15.8645 15.2656 14.2229 15.2656 12.1979C15.2656 10.1729 13.624 8.53125 11.5989 8.53125C9.5739 8.53125 7.93227 10.1729 7.93227 12.1979C7.93227 14.2229 9.5739 15.8645 11.5989 15.8645ZM26.3333 11.6667C26.3333 10.9303 25.7364 10.3333 25 10.3333H21C20.2636 10.3333 19.6666 10.9303 19.6666 11.6667C19.6666 12.4031 20.2636 13 21 13H25C25.7364 13 26.3333 12.4031 26.3333 11.6667ZM15.7324 18.3685C14.5512 17.4827 13.13 17 11.6647 17C10.1993 17 8.77809 17.4827 7.59695 18.3685C6.41718 19.2533 5.53695 20.4945 5.06571 21.9128C4.83357 22.6115 5.21206 23.3667 5.91077 23.5989C6.60958 23.8311 7.36479 23.4527 7.59695 22.7539C7.90271 21.8336 8.46653 21.0493 9.19722 20.5013C9.92666 19.9544 10.7888 19.6667 11.6647 19.6667C12.5405 19.6667 13.4026 19.9544 14.1321 20.5013C14.8628 21.0493 15.4266 21.8336 15.7324 22.7539C15.9645 23.4527 16.7197 23.8311 17.4185 23.5989C18.1173 23.3668 18.4957 22.6115 18.2636 21.9128C17.7924 20.4945 16.9121 19.2533 15.7324 18.3685Z" fill="black"/>
</svg>
