<svg width="20" height="20" viewBox="0 0 20 20" fill="none" xmlns="http://www.w3.org/2000/svg">
<path d="M18.75 10.625V10.6733C18.75 12.0079 18.75 13.0732 18.6377 13.9087C18.5216 14.7723 18.275 15.4832 17.7124 16.0457C17.1498 16.6083 16.4389 16.8549 15.5753 16.971C14.7398 17.0833 13.6746 17.0833 12.34 17.0833H12.2917H7.29168H7.24349C5.9088 17.0833 4.84353 17.0833 4.00799 16.971C3.14444 16.8549 2.43355 16.6083 1.87094 16.0457C1.30834 15.4831 1.06175 14.7723 0.945652 13.9087C0.833316 13.0732 0.833328 12.0079 0.833344 10.6733V10.625V8.95833V8.91008C0.833328 7.57542 0.833316 6.51018 0.945652 5.67464C1.06175 4.8111 1.30834 4.10021 1.87094 3.5376C2.43355 2.97499 3.14444 2.72841 4.00799 2.61231C4.84352 2.49998 5.90877 2.49998 7.24343 2.5H7.29168H12.2917H12.3399C13.6746 2.49998 14.7398 2.49998 15.5753 2.61231C16.4389 2.72841 17.1498 2.97499 17.7124 3.5376C18.275 4.10021 18.5216 4.8111 18.6377 5.67464C18.75 6.51016 18.75 7.5754 18.75 8.91V8.95833V10.625ZM16.4583 10.625C16.4583 10.1648 16.0853 9.79167 15.625 9.79167H13.125C12.6648 9.79167 12.2917 10.1648 12.2917 10.625C12.2917 11.0853 12.6648 11.4583 13.125 11.4583H15.625C16.0853 11.4583 16.4583 11.0853 16.4583 10.625ZM7.24936 9.91533C8.51501 9.91533 9.54101 8.88933 9.54101 7.6237C9.54101 6.35805 8.51501 5.33203 7.24936 5.33203C5.98371 5.33203 4.95769 6.35805 4.95769 7.6237C4.95769 8.88933 5.98371 9.91533 7.24936 9.91533ZM16.4583 7.29167C16.4583 6.83143 16.0853 6.45833 15.625 6.45833H13.125C12.6648 6.45833 12.2917 6.83143 12.2917 7.29167C12.2917 7.75191 12.6648 8.125 13.125 8.125H15.625C16.0853 8.125 16.4583 7.75191 16.4583 7.29167ZM9.83276 11.4803C9.09451 10.9267 8.20628 10.625 7.29044 10.625C6.3746 10.625 5.48633 10.9267 4.74812 11.4803C4.01076 12.0333 3.46062 12.8091 3.16609 13.6955C3.021 14.1322 3.25756 14.6042 3.69425 14.7493C4.13101 14.8944 4.60302 14.6579 4.74812 14.2212C4.93922 13.646 5.2916 13.1558 5.74829 12.8133C6.20419 12.4715 6.74302 12.2917 7.29044 12.2917C7.83786 12.2917 8.37668 12.4715 8.83259 12.8133C9.28926 13.1558 9.64168 13.646 9.83276 14.2212C9.97784 14.6579 10.4498 14.8944 10.8866 14.7493C11.3233 14.6042 11.5598 14.1322 11.4148 13.6955C11.1203 12.8091 10.5701 12.0333 9.83276 11.4803Z" fill="black"/>
</svg>
