<svg width="20" height="20" viewBox="0 0 20 20" fill="none" xmlns="http://www.w3.org/2000/svg">
<path opacity="0.4" d="M13.3333 7.50085H15.8333" stroke="black" stroke-width="1.25" stroke-linecap="round" stroke-linejoin="round"/>
<path opacity="0.4" d="M13.3333 10.8341H15.8333" stroke="black" stroke-width="1.25" stroke-linecap="round" stroke-linejoin="round"/>
<path opacity="0.4" d="M4.16504 13.8356C4.40784 13.1047 4.85891 12.4717 5.45599 12.0239C6.05306 11.5761 6.7667 11.3356 7.49837 11.3356C8.23004 11.3356 8.94366 11.5761 9.54074 12.0239C10.1378 12.4717 10.5889 13.1047 10.8317 13.8356" stroke="black" stroke-width="1.25" stroke-linecap="round" stroke-linejoin="round"/>
<path opacity="0.4" d="M7.45768 9.49946C8.37817 9.49946 9.12433 8.7533 9.12433 7.8328C9.12433 6.91233 8.37817 6.16614 7.45768 6.16614C6.53721 6.16614 5.79102 6.91233 5.79102 7.8328C5.79102 8.7533 6.53721 9.49946 7.45768 9.49946Z" stroke="black" stroke-width="1.25" stroke-linecap="round" stroke-linejoin="round"/>
<path d="M12.5 3.33411H7.49999C4.75013 3.33411 3.3752 3.33411 2.52093 4.18837C1.66666 5.04265 1.66666 6.41757 1.66666 9.16746V10.8341C1.66666 13.584 1.66666 14.9589 2.52093 15.8132C3.3752 16.6675 4.75013 16.6675 7.49999 16.6675H12.5C15.2498 16.6675 16.6247 16.6675 17.4791 15.8132C18.3333 14.9589 18.3333 13.584 18.3333 10.8341V9.16746C18.3333 6.41757 18.3333 5.04265 17.4791 4.18837C16.6247 3.33411 15.2498 3.33411 12.5 3.33411Z" stroke="black" stroke-width="1.25" stroke-linecap="round" stroke-linejoin="round"/>
</svg>
