<svg width="20" height="20" viewBox="0 0 20 20" fill="none" xmlns="http://www.w3.org/2000/svg">
<path d="M15.625 6.45837C16.0852 6.45837 16.4583 6.83147 16.4583 7.29171C16.4583 7.75194 16.0852 8.12504 15.625 8.12504H13.125C12.6647 8.12504 12.2917 7.75194 12.2917 7.29171C12.2917 6.83147 12.6647 6.45837 13.125 6.45837H15.625Z" fill="black"/>
<path d="M15.625 9.79163C16.0852 9.79163 16.4583 10.1647 16.4583 10.625C16.4583 11.0852 16.0852 11.4583 15.625 11.4583H13.125C12.6647 11.4583 12.2917 11.0852 12.2917 10.625C12.2917 10.1647 12.6647 9.79163 13.125 9.79163H15.625Z" fill="black"/>
<path d="M7.29005 10.293C8.20588 10.293 9.09416 10.5946 9.83233 11.1482C10.5697 11.7013 11.1198 12.477 11.4144 13.3634C11.5595 13.8001 11.3229 14.2721 10.8862 14.4173C10.4495 14.5624 9.9775 14.3259 9.83233 13.8891C9.64125 13.314 9.28891 12.8238 8.83216 12.4812C8.37633 12.1394 7.83746 11.9596 7.29005 11.9596C6.74263 11.9596 6.20379 12.1394 5.74789 12.4812C5.2912 12.8238 4.93882 13.314 4.74773 13.8891C4.60262 14.3259 4.13062 14.5624 3.69385 14.4173C3.25716 14.2721 3.0206 13.8001 3.1657 13.3634C3.46022 12.477 4.01036 11.7013 4.74773 11.1482C5.48593 10.5946 6.3742 10.293 7.29005 10.293Z" fill="black"/>
<path d="M9.54099 7.6237C9.54099 8.88933 8.51499 9.91533 7.24934 9.91533C5.98369 9.91533 4.95767 8.88933 4.95767 7.6237C4.95767 6.35804 5.98369 5.33203 7.24934 5.33203C8.51499 5.33203 9.54099 6.35804 9.54099 7.6237Z" fill="black"/>
<g opacity="0.4">
<path fill-rule="evenodd" clip-rule="evenodd" d="M12.3399 2.5H12.2917H7.29168H7.24345C7.20174 2.5 7.1603 2.5 7.11912 2.5C7.00979 2.50001 6.90229 2.50004 6.79663 2.50016C6.30527 2.50073 5.85334 2.50319 5.43854 2.51402C4.90095 2.52806 4.42575 2.55614 4.00799 2.61231C3.14444 2.72841 2.43355 2.97499 1.87094 3.5376C1.30834 4.10021 1.06175 4.8111 0.945652 5.67464C0.833315 6.51017 0.833327 7.57544 0.833344 8.91008V8.95833V10.625V10.6733C0.833343 10.7149 0.833343 10.7564 0.833344 10.7976C0.833352 10.9084 0.833386 11.0174 0.833511 11.1245C0.834077 11.6142 0.836569 12.0646 0.847369 12.4782C0.861402 13.0157 0.889486 13.4909 0.945652 13.9087C1.06175 14.7722 1.30834 15.4832 1.87094 16.0457C2.43355 16.6083 3.14444 16.8549 4.00799 16.971C4.84351 17.0833 5.90874 17.0833 7.24338 17.0833H7.29168H12.2917H12.3399C13.6746 17.0833 14.7398 17.0833 15.5753 16.971C16.4389 16.8549 17.1498 16.6083 17.7124 16.0457C18.275 15.4832 18.5216 14.7722 18.6377 13.9087" fill="black"/>
<path d="M18.75 10.625V10.6733C18.75 12.0079 18.75 13.0732 18.6377 13.9087C18.5216 14.7723 18.275 15.4832 17.7124 16.0457C17.1498 16.6083 16.4389 16.8549 15.5753 16.971C14.7398 17.0833 13.6746 17.0833 12.3399 17.0833H12.2917H7.29168H7.24338C5.90874 17.0833 4.84351 17.0833 4.00799 16.971C3.14444 16.8549 2.43355 16.6083 1.87094 16.0457C1.30834 15.4832 1.06175 14.7723 0.945652 13.9087C0.833315 13.0732 0.833327 12.0079 0.833344 10.6733V10.625V8.95833V8.91008C0.833327 7.57544 0.833315 6.51018 0.945652 5.67464C1.06175 4.8111 1.30834 4.10021 1.87094 3.5376C2.43355 2.97499 3.14444 2.72841 4.00799 2.61231C4.84352 2.49997 5.90879 2.49998 7.24345 2.5H7.29168H12.2917H12.3399C13.6746 2.49998 14.7398 2.49997 15.5753 2.61231C16.4389 2.72841 17.1498 2.97499 17.7124 3.5376C18.275 4.10021 18.5216 4.8111 18.6377 5.67464C18.75 6.51016 18.75 7.5754 18.75 8.91V8.95833V10.625Z" fill="black"/>
</g>
</svg>
