<svg width="28" height="28" viewBox="0 0 28 28" fill="none" xmlns="http://www.w3.org/2000/svg">
<path d="M18.6667 10.5011H22.1667" stroke="black" stroke-width="1.75" stroke-linecap="round" stroke-linejoin="round"/>
<path opacity="0.4" fill-rule="evenodd" clip-rule="evenodd" d="M10.5 4.66785H17.5C21.3498 4.66785 23.2747 4.66785 24.4707 5.86382C25.6667 7.05981 25.6667 8.9847 25.6667 12.8345V15.1679C25.6667 19.0176 25.6667 20.9425 24.4707 22.1386C23.2747 23.3345 21.3498 23.3345 17.5 23.3345H10.5C6.65021 23.3345 4.7253 23.3345 3.52933 22.1386C2.33334 20.9425 2.33334 19.0176 2.33334 15.1679V12.8345C2.33334 8.9847 2.33334 7.05981 3.52933 5.86382C4.7253 4.66785 6.65021 4.66785 10.5 4.66785ZM12.7741 10.966C12.7741 12.2547 11.7294 13.2993 10.4408 13.2993C9.1521 13.2993 8.10743 12.2547 8.10743 10.966C8.10743 9.67735 9.1521 8.63268 10.4408 8.63268C11.7294 8.63268 12.7741 9.67735 12.7741 10.966Z" fill="black"/>
<path d="M18.6667 15.1678H22.1667" stroke="black" stroke-width="1.75" stroke-linecap="round" stroke-linejoin="round"/>
<path d="M5.83109 19.3699C6.17101 18.3467 6.80251 17.4605 7.63842 16.8335C8.47432 16.2066 9.47341 15.8699 10.4978 15.8699C11.5221 15.8699 12.5211 16.2066 13.3571 16.8335C14.193 17.4605 14.8245 18.3467 15.1645 19.3699" stroke="black" stroke-width="1.75" stroke-linecap="round" stroke-linejoin="round"/>
<path d="M10.4408 13.2993C11.7294 13.2993 12.7741 12.2547 12.7741 10.966C12.7741 9.67736 11.7294 8.63269 10.4408 8.63269C9.15209 8.63269 8.10742 9.67736 8.10742 10.966C8.10742 12.2547 9.15209 13.2993 10.4408 13.2993Z" stroke="black" stroke-width="1.75" stroke-linecap="round" stroke-linejoin="round"/>
<path d="M17.5 4.66785H10.5C6.65021 4.66785 4.7253 4.66785 3.52933 5.86382C2.33334 7.05981 2.33334 8.9847 2.33334 12.8345V15.1679C2.33334 19.0176 2.33334 20.9425 3.52933 22.1386C4.7253 23.3345 6.65021 23.3345 10.5 23.3345H17.5C21.3498 23.3345 23.2747 23.3345 24.4707 22.1386C25.6667 20.9425 25.6667 19.0176 25.6667 15.1679V12.8345C25.6667 8.9847 25.6667 7.05981 24.4707 5.86382C23.2747 4.66785 21.3498 4.66785 17.5 4.66785Z" stroke="black" stroke-width="1.75" stroke-linecap="round" stroke-linejoin="round"/>
</svg>
