<svg width="28" height="28" viewBox="0 0 28 28" fill="none" xmlns="http://www.w3.org/2000/svg">
<path d="M26.25 14.875V14.9426C26.25 16.8111 26.25 18.3024 26.0927 19.4721C25.9302 20.6812 25.585 21.6764 24.7974 22.464C24.0096 23.2517 23.0145 23.5969 21.8055 23.7594C20.6358 23.9167 19.1444 23.9167 17.276 23.9167H17.2083H10.2083H10.1409C8.2723 23.9167 6.78091 23.9167 5.61116 23.7594C4.4022 23.5969 3.40695 23.2517 2.6193 22.464C1.83165 21.6763 1.48643 20.6812 1.32389 19.4721C1.16662 18.3024 1.16663 16.8111 1.16666 14.9426V14.875V12.5417V12.4741C1.16663 10.6056 1.16662 9.11425 1.32389 7.9445C1.48643 6.73554 1.83165 5.74029 2.6193 4.95264C3.40695 4.16499 4.4022 3.81977 5.61116 3.65723C6.7809 3.49997 8.27225 3.49998 10.1408 3.5H10.2083H17.2083H17.2759C19.1444 3.49998 20.6358 3.49997 21.8055 3.65723C23.0145 3.81977 24.0096 4.16499 24.7974 4.95264C25.585 5.74029 25.9302 6.73554 26.0927 7.9445C26.25 9.11422 26.25 10.6056 26.25 12.474V12.5417V14.875ZM23.0417 14.875C23.0417 14.2307 22.5193 13.7083 21.875 13.7083H18.375C17.7306 13.7083 17.2083 14.2307 17.2083 14.875C17.2083 15.5194 17.7306 16.0417 18.375 16.0417H21.875C22.5193 16.0417 23.0417 15.5194 23.0417 14.875ZM10.1491 13.8815C11.921 13.8815 13.3574 12.4451 13.3574 10.6732C13.3574 8.90127 11.921 7.46485 10.1491 7.46485C8.37717 7.46485 6.94075 8.90127 6.94075 10.6732C6.94075 12.4451 8.37717 13.8815 10.1491 13.8815ZM23.0417 10.2083C23.0417 9.56401 22.5193 9.04167 21.875 9.04167H18.375C17.7306 9.04167 17.2083 9.56401 17.2083 10.2083C17.2083 10.8527 17.7306 11.375 18.375 11.375H21.875C22.5193 11.375 23.0417 10.8527 23.0417 10.2083ZM13.7658 16.0725C12.7323 15.2973 11.4888 14.875 10.2066 14.875C8.92442 14.875 7.68083 15.2973 6.64734 16.0725C5.61504 16.8467 4.84484 17.9327 4.43251 19.1737C4.22938 19.785 4.56056 20.4458 5.17193 20.6491C5.78339 20.8522 6.4442 20.5211 6.64734 19.9096C6.91488 19.1044 7.40822 18.4182 8.04758 17.9387C8.68584 17.4601 9.4402 17.2083 10.2066 17.2083C10.973 17.2083 11.7273 17.4601 12.3656 17.9387C13.0049 18.4182 13.4983 19.1044 13.7658 19.9096C13.969 20.5211 14.6298 20.8522 15.2412 20.6491C15.8527 20.4459 16.1838 19.785 15.9806 19.1737C15.5683 17.9327 14.7981 16.8467 13.7658 16.0725Z" fill="black"/>
</svg>
