<svg width="24" height="24" viewBox="0 0 24 24" fill="none" xmlns="http://www.w3.org/2000/svg">
<path d="M16 9.00098H19" stroke="black" stroke-width="1.5" stroke-linecap="round" stroke-linejoin="round"/>
<path d="M16 13.001H19" stroke="black" stroke-width="1.5" stroke-linecap="round" stroke-linejoin="round"/>
<path d="M4.99805 16.6027C5.28941 15.7257 5.8307 14.9661 6.54719 14.4287C7.26368 13.8913 8.12004 13.6027 8.99805 13.6027C9.87605 13.6027 10.7324 13.8913 11.4489 14.4287C12.1654 14.9661 12.7067 15.7257 12.9981 16.6027" stroke="black" stroke-width="1.5" stroke-linecap="round" stroke-linejoin="round"/>
<path d="M8.94922 11.3994C10.0538 11.3994 10.9492 10.504 10.9492 9.39941C10.9492 8.29484 10.0538 7.39941 8.94922 7.39941C7.84465 7.39941 6.94922 8.29484 6.94922 9.39941C6.94922 10.504 7.84465 11.3994 8.94922 11.3994Z" stroke="black" stroke-width="1.5" stroke-linecap="round" stroke-linejoin="round"/>
<path d="M15 4.00098H9C5.70017 4.00098 4.05025 4.00098 3.02513 5.0261C2 6.05123 2 7.70114 2 11.001V13.001C2 16.3008 2 17.9507 3.02513 18.9759C4.05025 20.001 5.70017 20.001 9 20.001H15C18.2998 20.001 19.9497 20.001 20.9749 18.9759C22 17.9507 22 16.3008 22 13.001V11.001C22 7.70114 22 6.05123 20.9749 5.0261C19.9497 4.00098 18.2998 4.00098 15 4.00098Z" stroke="black" stroke-width="1.5" stroke-linecap="round" stroke-linejoin="round"/>
</svg>
