<svg width="16" height="16" viewBox="0 0 16 16" fill="none" xmlns="http://www.w3.org/2000/svg">
<path d="M15 8.5V8.5386C15 9.60633 15 10.4585 14.9101 11.1269C14.8173 11.8178 14.62 12.3865 14.1699 12.8366C13.7198 13.2867 13.1511 13.4839 12.4603 13.5768C11.7919 13.6667 10.9397 13.6667 9.87199 13.6667H9.83332H5.83332H5.79477C4.72702 13.6667 3.8748 13.6667 3.20637 13.5768C2.51554 13.4839 1.94682 13.2867 1.49674 12.8366C1.04665 12.3865 0.849383 11.8178 0.756503 11.1269C0.666634 10.4585 0.666644 9.60633 0.666657 8.5386V8.5V7.16667V7.12807C0.666644 6.06034 0.666634 5.20814 0.756503 4.53971C0.849383 3.84888 1.04665 3.28017 1.49674 2.83008C1.94682 2.37999 2.51554 2.18273 3.20637 2.08985C3.8748 1.99998 4.727 1.99999 5.79472 2H5.83332H9.83332H9.87192C10.9397 1.99999 11.7919 1.99998 12.4603 2.08985C13.1511 2.18273 13.7198 2.37999 14.1699 2.83008C14.62 3.28017 14.8173 3.84888 14.9101 4.53971C15 5.20813 15 6.06032 15 7.128V7.16667V8.5ZM13.1667 8.5C13.1667 8.1318 12.8682 7.83333 12.5 7.83333H10.5C10.1318 7.83333 9.83332 8.1318 9.83332 8.5C9.83332 8.8682 10.1318 9.16667 10.5 9.16667H12.5C12.8682 9.16667 13.1667 8.8682 13.1667 8.5ZM5.79947 7.93227C6.81199 7.93227 7.63279 7.11147 7.63279 6.09896C7.63279 5.08644 6.81199 4.26563 5.79947 4.26563C4.78695 4.26563 3.96614 5.08644 3.96614 6.09896C3.96614 7.11147 4.78695 7.93227 5.79947 7.93227ZM13.1667 5.83333C13.1667 5.46515 12.8682 5.16667 12.5 5.16667H10.5C10.1318 5.16667 9.83332 5.46515 9.83332 5.83333C9.83332 6.20153 10.1318 6.5 10.5 6.5H12.5C12.8682 6.5 13.1667 6.20153 13.1667 5.83333ZM7.86619 9.18427C7.27559 8.74133 6.565 8.5 5.83234 8.5C5.09966 8.5 4.38904 8.74133 3.79848 9.18427C3.20859 9.62667 2.76848 10.2473 2.53286 10.9564C2.41678 11.3057 2.60603 11.6833 2.95538 11.7995C3.30479 11.9155 3.6824 11.7263 3.79848 11.3769C3.95136 10.9168 4.23326 10.5247 4.59861 10.2507C4.96333 9.9772 5.3944 9.83333 5.83234 9.83333C6.27027 9.83333 6.70132 9.9772 7.06606 10.2507C7.43139 10.5247 7.71332 10.9168 7.86619 11.3769C7.98226 11.7263 8.35986 11.9155 8.70926 11.7995C9.05866 11.6834 9.24786 11.3057 9.13179 10.9564C8.89619 10.2473 8.45606 9.62667 7.86619 9.18427Z" fill="black"/>
</svg>
