<svg width="32" height="32" viewBox="0 0 32 32" fill="none" xmlns="http://www.w3.org/2000/svg">
<path opacity="0.4" d="M21.3333 12.0013H25.3333" stroke="black" stroke-width="2" stroke-linecap="round" stroke-linejoin="round"/>
<path opacity="0.4" d="M21.3333 17.3347H25.3333" stroke="black" stroke-width="2" stroke-linecap="round" stroke-linejoin="round"/>
<path opacity="0.4" d="M6.66406 22.137C7.05254 20.9676 7.77426 19.9548 8.72958 19.2383C9.6849 18.5218 10.8267 18.137 11.9974 18.137C13.1681 18.137 14.3098 18.5218 15.2652 19.2383C16.2205 19.9548 16.9422 20.9676 17.3308 22.137" stroke="black" stroke-width="2" stroke-linecap="round" stroke-linejoin="round"/>
<path opacity="0.4" d="M11.9323 15.1992C13.4051 15.1992 14.5989 14.0053 14.5989 12.5325C14.5989 11.0598 13.4051 9.86584 11.9323 9.86584C10.4595 9.86584 9.26562 11.0598 9.26562 12.5325C9.26562 14.0053 10.4595 15.1992 11.9323 15.1992Z" stroke="black" stroke-width="2" stroke-linecap="round" stroke-linejoin="round"/>
<path d="M20 5.33459H12C7.60025 5.33459 5.40035 5.3346 4.03353 6.70142C2.66669 8.06826 2.66669 10.2681 2.66669 14.668V17.3346C2.66669 21.7344 2.66669 23.9342 4.03353 25.3012C5.40035 26.668 7.60025 26.668 12 26.668H20C24.3998 26.668 26.5996 26.668 27.9666 25.3012C29.3334 23.9342 29.3334 21.7344 29.3334 17.3346V14.668C29.3334 10.2681 29.3334 8.06826 27.9666 6.70142C26.5996 5.3346 24.3998 5.33459 20 5.33459Z" stroke="black" stroke-width="2" stroke-linecap="round" stroke-linejoin="round"/>
</svg>
