<svg width="20" height="20" viewBox="0 0 20 20" fill="none" xmlns="http://www.w3.org/2000/svg">
<path opacity="0.4" d="M8.1251 15.2804V2.68689H2.70844V15.2804C2.70844 16.851 3.921 18.1247 5.41677 18.1247C6.91254 18.1247 8.1251 16.851 8.1251 15.2804Z" fill="black"/>
<path d="M8.1251 9.37476H2.70844V15.2805C2.70844 16.8511 3.921 18.1248 5.41677 18.1248C6.91254 18.1248 8.1251 16.8511 8.1251 15.2805V9.37476Z" fill="black"/>
<path opacity="0.4" d="M17.2917 15.2804V2.68689H11.8751V15.2804C11.8751 16.851 13.0876 18.1247 14.5834 18.1247C16.0791 18.1247 17.2917 16.851 17.2917 15.2804Z" fill="black"/>
<path d="M17.2917 1.87463C17.752 1.87463 18.1251 2.24773 18.1251 2.70797C18.1251 3.16821 17.752 3.5413 17.2917 3.5413H11.8751C11.4148 3.5413 11.0417 3.16821 11.0417 2.70797C11.0417 2.24773 11.4148 1.87463 11.8751 1.87463H17.2917Z" fill="black"/>
<path d="M17.2917 9.37476H11.8751V15.2805C11.8751 16.8511 13.0876 18.1248 14.5834 18.1248C16.0791 18.1248 17.2917 16.8511 17.2917 15.2805V9.37476Z" fill="black"/>
<path d="M8.12506 1.87463C8.58532 1.87463 8.9584 2.24773 8.9584 2.70797C8.9584 3.16821 8.58532 3.5413 8.12506 3.5413H2.70839C2.24816 3.5413 1.87506 3.16821 1.87506 2.70797C1.87506 2.24773 2.24816 1.87463 2.70839 1.87463H8.12506Z" fill="black"/>
</svg>
