<svg width="32" height="32" viewBox="0 0 32 32" fill="none" xmlns="http://www.w3.org/2000/svg">
<path d="M27.6667 2.99951C28.4031 2.99951 29.0001 3.59647 29.0001 4.33285C29.0001 5.06923 28.4031 5.66618 27.6667 5.66618H19.0001C18.2637 5.66618 17.6667 5.06923 17.6667 4.33285C17.6667 3.59647 18.2637 2.99951 19.0001 2.99951H27.6667Z" fill="black"/>
<path d="M21.4767 14.9994V4.29895H19.0001V24.4486C19.0001 26.9616 20.9403 28.9994 23.3335 28.9994C25.7267 28.9994 27.6668 26.9616 27.6668 24.4486V4.29895H25.1903V14.9994H21.4767Z" fill="black"/>
<path d="M13.0001 2.99951C13.7365 2.99951 14.3335 3.59647 14.3335 4.33285C14.3335 5.06923 13.7365 5.66618 13.0001 5.66618H4.33346C3.59708 5.66618 3.00012 5.06923 3.00012 4.33285C3.00012 3.59647 3.59708 2.99951 4.33346 2.99951H13.0001Z" fill="black"/>
<path d="M6.81006 14.9994V4.29895H4.3335V24.4486C4.3335 26.9616 6.2736 28.9994 8.66683 28.9994C11.0601 28.9994 13.0002 26.9616 13.0002 24.4486V4.29895H10.5236V14.9994H6.81006Z" fill="black"/>
</svg>
