<svg width="24" height="24" viewBox="0 0 24 24" fill="none" xmlns="http://www.w3.org/2000/svg">
<path d="M20.7501 2.24963C21.3024 2.24963 21.7501 2.69735 21.7501 3.24963C21.7501 3.80192 21.3024 4.24963 20.7501 4.24963H14.2501C13.6978 4.24963 13.2501 3.80192 13.2501 3.24963C13.2501 2.69735 13.6978 2.24963 14.2501 2.24963H20.7501Z" fill="black"/>
<path d="M16.1075 11.2496V3.22424H14.2501V18.3365C14.2501 20.2212 15.7052 21.7496 17.5001 21.7496C19.295 21.7496 20.7501 20.2212 20.7501 18.3365V3.22424H18.8927V11.2496H16.1075Z" fill="black"/>
<path d="M9.75006 2.24963C10.3024 2.24963 10.7501 2.69735 10.7501 3.24963C10.7501 3.80192 10.3024 4.24963 9.75006 4.24963H3.25006C2.69778 4.24963 2.25006 3.80192 2.25006 3.24963C2.25006 2.69735 2.69778 2.24963 3.25006 2.24963H9.75006Z" fill="black"/>
<path d="M5.10748 11.2496V3.22424H3.25006V18.3365C3.25006 20.2212 4.70514 21.7496 6.50006 21.7496C8.29499 21.7496 9.75006 20.2212 9.75006 18.3365V3.22424H7.89264V11.2496H5.10748Z" fill="black"/>
</svg>
