<svg width="24" height="24" viewBox="0 0 24 24" fill="none" xmlns="http://www.w3.org/2000/svg">
<path opacity="0.4" d="M9.75006 18.3365V3.22424H3.25006V18.3365C3.25006 20.2212 4.70514 21.7496 6.50006 21.7496C8.29499 21.7496 9.75006 20.2212 9.75006 18.3365Z" fill="black"/>
<path d="M9.75006 11.2495H3.25006V18.3364C3.25006 20.2211 4.70514 21.7495 6.50006 21.7495C8.29499 21.7495 9.75006 20.2211 9.75006 18.3364V11.2495Z" fill="black"/>
<path opacity="0.4" d="M20.7501 18.3365V3.22424H14.2501V18.3365C14.2501 20.2212 15.7052 21.7496 17.5001 21.7496C19.295 21.7496 20.7501 20.2212 20.7501 18.3365Z" fill="black"/>
<path d="M20.7501 2.24963C21.3024 2.24963 21.7501 2.69735 21.7501 3.24963C21.7501 3.80192 21.3024 4.24963 20.7501 4.24963H14.2501C13.6978 4.24963 13.2501 3.80192 13.2501 3.24963C13.2501 2.69735 13.6978 2.24963 14.2501 2.24963H20.7501Z" fill="black"/>
<path d="M20.7501 11.2495H14.2501V18.3364C14.2501 20.2211 15.7052 21.7495 17.5001 21.7495C19.295 21.7495 20.7501 20.2211 20.7501 18.3364V11.2495Z" fill="black"/>
<path d="M9.75006 2.24963C10.3024 2.24963 10.7501 2.69735 10.7501 3.24963C10.7501 3.80192 10.3024 4.24963 9.75006 4.24963H3.25006C2.69778 4.24963 2.25006 3.80192 2.25006 3.24963C2.25006 2.69735 2.69778 2.24963 3.25006 2.24963H9.75006Z" fill="black"/>
</svg>
