<svg width="16" height="16" viewBox="0 0 16 16" fill="none" xmlns="http://www.w3.org/2000/svg">
<path opacity="0.4" d="M6.50008 12.2244V2.14954H2.16675V12.2244C2.16675 13.4808 3.1368 14.4998 4.33342 14.4998C5.53004 14.4998 6.50008 13.4808 6.50008 12.2244Z" fill="black"/>
<path d="M6.50008 7.49976H2.16675V12.2244C2.16675 13.4808 3.1368 14.4998 4.33342 14.4998C5.53004 14.4998 6.50008 13.4808 6.50008 12.2244V7.49976Z" fill="black"/>
<path opacity="0.4" d="M13.8334 12.2244V2.14954H9.50006V12.2244C9.50006 13.4808 10.4701 14.4998 11.6667 14.4998C12.8633 14.4998 13.8334 13.4808 13.8334 12.2244Z" fill="black"/>
<path d="M13.8334 1.49976C14.2016 1.49976 14.5 1.79824 14.5 2.16642C14.5 2.53462 14.2016 2.83309 13.8334 2.83309H9.50004C9.13184 2.83309 8.83337 2.53462 8.83337 2.16642C8.83337 1.79824 9.13184 1.49976 9.50004 1.49976H13.8334Z" fill="black"/>
<path d="M13.8334 7.49976H9.50006V12.2244C9.50006 13.4808 10.4701 14.4998 11.6667 14.4998C12.8633 14.4998 13.8334 13.4808 13.8334 12.2244V7.49976Z" fill="black"/>
<path d="M6.50006 1.49976C6.86827 1.49976 7.16673 1.79824 7.16673 2.16642C7.16673 2.53462 6.86827 2.83309 6.50006 2.83309H2.16673C1.79854 2.83309 1.50006 2.53462 1.50006 2.16642C1.50006 1.79824 1.79854 1.49976 2.16673 1.49976H6.50006Z" fill="black"/>
</svg>
