<svg width="28" height="28" viewBox="0 0 28 28" fill="none" xmlns="http://www.w3.org/2000/svg">
<path opacity="0.4" d="M11.3751 21.3926V3.7616H3.79175V21.3926C3.79175 23.5914 5.48934 25.3745 7.58342 25.3745C9.6775 25.3745 11.3751 23.5914 11.3751 21.3926Z" fill="black"/>
<path d="M11.3751 13.1245H3.79175V21.3926C3.79175 23.5914 5.48934 25.3745 7.58342 25.3745C9.6775 25.3745 11.3751 23.5914 11.3751 21.3926V13.1245Z" fill="black"/>
<path opacity="0.4" d="M24.2085 21.3926V3.7616H16.6251V21.3926C16.6251 23.5914 18.3227 25.3745 20.4168 25.3745C22.5108 25.3745 24.2085 23.5914 24.2085 21.3926Z" fill="black"/>
<path d="M24.2085 2.62451C24.8528 2.62451 25.3752 3.14685 25.3752 3.79118C25.3752 4.43552 24.8528 4.95784 24.2085 4.95784H16.6252C15.9808 4.95784 15.4585 4.43552 15.4585 3.79118C15.4585 3.14685 15.9808 2.62451 16.6252 2.62451H24.2085Z" fill="black"/>
<path d="M24.2085 13.1245H16.6251V21.3926C16.6251 23.5914 18.3227 25.3745 20.4168 25.3745C22.5108 25.3745 24.2085 23.5914 24.2085 21.3926V13.1245Z" fill="black"/>
<path d="M11.3751 2.62451C12.0195 2.62451 12.5418 3.14685 12.5418 3.79118C12.5418 4.43552 12.0195 4.95784 11.3751 4.95784H3.79179C3.14746 4.95784 2.62512 4.43552 2.62512 3.79118C2.62512 3.14685 3.14746 2.62451 3.79179 2.62451H11.3751Z" fill="black"/>
</svg>
