<svg width="16" height="16" viewBox="0 0 16 16" fill="none" xmlns="http://www.w3.org/2000/svg">
<path opacity="0.4" d="M2.66669 12.3333V8H6.00002V12.3333C6.00002 13.2538 5.25383 14 4.33335 14C3.41288 14 2.66669 13.2538 2.66669 12.3333Z" fill="black"/>
<path opacity="0.4" d="M10 12.3333V8H13.3333V12.3333C13.3333 13.2538 12.5871 14 11.6667 14C10.7462 14 10 13.2538 10 12.3333Z" fill="black"/>
<path d="M2.66669 12.3333V2H6.00002V12.3333C6.00002 13.2538 5.25383 14 4.33335 14C3.41288 14 2.66669 13.2538 2.66669 12.3333Z" stroke="black" stroke-linecap="round" stroke-linejoin="round"/>
<path d="M2.66669 8H6.00002" stroke="black" stroke-linecap="round" stroke-linejoin="round"/>
<path d="M2 2H6.66667" stroke="black" stroke-linecap="round" stroke-linejoin="round"/>
<path d="M9.33331 2H14" stroke="black" stroke-linecap="round" stroke-linejoin="round"/>
<path d="M10 12.3333V2H13.3333V12.3333C13.3333 13.2538 12.5871 14 11.6667 14C10.7462 14 10 13.2538 10 12.3333Z" stroke="black" stroke-linecap="round" stroke-linejoin="round"/>
<path d="M10 8H13.3333" stroke="black" stroke-linecap="round" stroke-linejoin="round"/>
</svg>
