<svg width="32" height="32" viewBox="0 0 32 32" fill="none" xmlns="http://www.w3.org/2000/svg">
<path d="M30.336 16C30.336 23.9162 23.9186 30.3334 16.0026 30.3334C8.0865 30.3334 1.66925 23.9162 1.66925 16C1.66925 8.08394 8.0865 1.66669 16.0026 1.66669C23.9186 1.66669 30.336 8.08394 30.336 16ZM21.6562 11.7696C21.1609 11.2247 20.317 11.1844 19.7721 11.6797L13.3789 17.491L11.612 15.724C11.0913 15.2032 10.2472 15.2032 9.72654 15.724C9.20585 16.2447 9.20585 17.0887 9.72654 17.6094L12.3932 20.276C12.8964 20.7794 13.7064 20.7991 14.233 20.3203L21.5664 13.6536C22.1112 13.1583 22.1514 12.3144 21.6562 11.7696Z" fill="black"/>
</svg>
