<svg width="24" height="24" viewBox="0 0 24 24" fill="none" xmlns="http://www.w3.org/2000/svg">
<path opacity="0.4" d="M22.75 12C22.75 17.9371 17.9371 22.75 12 22.75C6.06294 22.75 1.25 17.9371 1.25 12C1.25 6.06294 6.06294 1.25 12 1.25C17.9371 1.25 22.75 6.06294 22.75 12Z" fill="black"/>
<path d="M14.8271 8.75975C15.2358 8.38829 15.8687 8.41849 16.2402 8.82713C16.6117 9.23579 16.5815 9.86872 16.1729 10.2402L10.6729 15.2402C10.2779 15.5992 9.67038 15.5844 9.29295 15.207L7.29295 13.207C6.90243 12.8165 6.90243 12.1835 7.29295 11.7929C7.68347 11.4024 8.31649 11.4024 8.70701 11.7929L10.0322 13.1181L14.8271 8.75975Z" fill="black"/>
</svg>
