<svg width="28" height="28" viewBox="0 0 28 28" fill="none" xmlns="http://www.w3.org/2000/svg">
<path d="M26.544 14C26.544 20.9266 20.9289 26.5416 14.0024 26.5416C7.07573 26.5416 1.46063 20.9266 1.46063 14C1.46063 7.07341 7.07573 1.45831 14.0024 1.45831C20.9289 1.45831 26.544 7.07341 26.544 14ZM18.9493 10.2983C18.5158 9.82158 17.7775 9.78634 17.3006 10.2197L11.7066 15.3045L10.1605 13.7585C9.70489 13.3028 8.96638 13.3028 8.51076 13.7585C8.05516 14.2141 8.05516 14.9526 8.51076 15.4081L10.8441 17.7415C11.2844 18.1819 11.9931 18.1992 12.454 17.7802L18.8706 11.9469C19.3473 11.5135 19.3826 10.7751 18.9493 10.2983Z" fill="black"/>
</svg>
