<svg width="16" height="16" viewBox="0 0 16 16" fill="none" xmlns="http://www.w3.org/2000/svg">
<path opacity="0.4" d="M15.1666 7.99998C15.1666 11.958 11.958 15.1666 7.99998 15.1666C4.04194 15.1666 0.833313 11.958 0.833313 7.99998C0.833313 4.04194 4.04194 0.833313 7.99998 0.833313C11.958 0.833313 15.1666 4.04194 15.1666 7.99998Z" fill="black"/>
<path d="M9.88476 5.83983C10.1572 5.59219 10.5792 5.61232 10.8268 5.88475C11.0745 6.15719 11.0544 6.57914 10.782 6.8268L7.11529 10.1601C6.85196 10.3995 6.44696 10.3896 6.19534 10.138L4.86201 8.80466C4.60166 8.54433 4.60166 8.12233 4.86201 7.86193C5.12235 7.6016 5.54437 7.6016 5.80471 7.86193L6.68816 8.7454L9.88476 5.83983Z" fill="black"/>
</svg>
