<svg width="16" height="16" viewBox="0 0 16 16" fill="none" xmlns="http://www.w3.org/2000/svg">
<path opacity="0.4" d="M7.99998 14.6666C11.6818 14.6666 14.6666 11.6818 14.6666 7.99998C14.6666 4.31808 11.6818 1.33331 7.99998 1.33331C4.31808 1.33331 1.33331 4.31808 1.33331 7.99998C1.33331 11.6818 4.31808 14.6666 7.99998 14.6666Z" fill="black"/>
<path d="M7.99998 14.6666C11.6818 14.6666 14.6666 11.6818 14.6666 7.99998C14.6666 4.31808 11.6818 1.33331 7.99998 1.33331C4.31808 1.33331 1.33331 4.31808 1.33331 7.99998C1.33331 11.6818 4.31808 14.6666 7.99998 14.6666Z" stroke="black" stroke-linecap="round" stroke-linejoin="round"/>
<path d="M5.33331 8.33331L6.66665 9.66665L10.3333 6.33331" stroke="black" stroke-linecap="round" stroke-linejoin="round"/>
</svg>
