<svg width="16" height="16" viewBox="0 0 16 16" fill="none" xmlns="http://www.w3.org/2000/svg">
<path d="M15.168 7.99998C15.168 11.958 11.9594 15.1666 8.00136 15.1666C4.04328 15.1666 0.834656 11.958 0.834656 7.99998C0.834656 4.04194 4.04328 0.833313 8.00136 0.833313C11.9594 0.833313 15.168 4.04194 15.168 7.99998ZM10.8282 5.88475C10.5805 5.61232 10.1586 5.59219 9.88609 5.83983L6.68949 8.74545L5.80601 7.86198C5.54566 7.60158 5.12366 7.60158 4.8633 7.86198C4.60296 8.12231 4.60296 8.54431 4.8633 8.80465L6.19664 10.138C6.44826 10.3896 6.85322 10.3995 7.11656 10.1601L10.7832 6.82678C11.0556 6.57914 11.0758 6.15719 10.8282 5.88475Z" fill="black"/>
</svg>
