<svg width="28" height="28" viewBox="0 0 28 28" fill="none" xmlns="http://www.w3.org/2000/svg">
<path opacity="0.4" d="M14 25.6666C20.4432 25.6666 25.6666 20.4432 25.6666 14C25.6666 7.55665 20.4432 2.33331 14 2.33331C7.55665 2.33331 2.33331 7.55665 2.33331 14C2.33331 20.4432 7.55665 25.6666 14 25.6666Z" fill="black"/>
<path d="M14 25.6666C20.4432 25.6666 25.6666 20.4432 25.6666 14C25.6666 7.55665 20.4432 2.33331 14 2.33331C7.55665 2.33331 2.33331 7.55665 2.33331 14C2.33331 20.4432 7.55665 25.6666 14 25.6666Z" stroke="black" stroke-width="1.75" stroke-linecap="round" stroke-linejoin="round"/>
<path d="M9.33331 14.5833L11.6666 16.9166L18.0833 11.0833" stroke="black" stroke-width="1.75" stroke-linecap="round" stroke-linejoin="round"/>
</svg>
