<svg width="20" height="20" viewBox="0 0 20 20" fill="none" xmlns="http://www.w3.org/2000/svg">
<path d="M18.96 10C18.96 14.9476 14.9491 18.9584 10.0016 18.9584C5.05406 18.9584 1.04327 14.9476 1.04327 10C1.04327 5.05247 5.05406 1.04169 10.0016 1.04169C14.9491 1.04169 18.96 5.05247 18.96 10ZM13.5351 7.35598C13.2256 7.01545 12.6981 6.99028 12.3576 7.29983L8.36182 10.9319L7.25747 9.82752C6.93203 9.50202 6.40452 9.50202 6.07908 9.82752C5.75365 10.1529 5.75365 10.6804 6.07908 11.0059L7.74575 12.6725C8.06027 12.9871 8.56648 12.9994 8.89565 12.7002L13.479 8.53352C13.8195 8.22397 13.8447 7.69653 13.5351 7.35598Z" fill="black"/>
</svg>
