<svg width="20" height="20" viewBox="0 0 20 20" fill="none" xmlns="http://www.w3.org/2000/svg">
<path opacity="0.4" d="M18.9584 10C18.9584 14.9476 14.9476 18.9584 10 18.9584C5.05247 18.9584 1.04169 14.9476 1.04169 10C1.04169 5.05247 5.05247 1.04169 10 1.04169C14.9476 1.04169 18.9584 5.05247 18.9584 10Z" fill="black"/>
<path d="M12.3559 7.29979C12.6965 6.99024 13.2239 7.01541 13.5335 7.35594C13.8431 7.69649 13.8179 8.22393 13.4774 8.5335L8.89406 12.7002C8.56489 12.9993 8.05864 12.987 7.74412 12.6725L6.07745 11.0058C5.75202 10.6804 5.75202 10.1529 6.07745 9.82741C6.40288 9.502 6.9304 9.502 7.25583 9.82741L8.36014 10.9317L12.3559 7.29979Z" fill="black"/>
</svg>
