<svg width="32" height="32" viewBox="0 0 32 32" fill="none" xmlns="http://www.w3.org/2000/svg">
<path opacity="0.4" d="M30.3334 16C30.3334 23.9162 23.9162 30.3334 16 30.3334C8.08394 30.3334 1.66669 23.9162 1.66669 16C1.66669 8.08394 8.08394 1.66669 16 1.66669C23.9162 1.66669 30.3334 8.08394 30.3334 16Z" fill="black"/>
<path d="M19.7695 11.6797C20.3144 11.1844 21.1583 11.2246 21.6536 11.7695C22.1489 12.3144 22.1087 13.1583 21.5639 13.6536L14.2305 20.3203C13.7039 20.7989 12.8939 20.7792 12.3906 20.276L9.72396 17.6093C9.20326 17.0887 9.20326 16.2447 9.72396 15.7239C10.2446 15.2032 11.0887 15.2032 11.6094 15.7239L13.3763 17.4908L19.7695 11.6797Z" fill="black"/>
</svg>
