<svg width="28" height="28" viewBox="0 0 28 28" fill="none" xmlns="http://www.w3.org/2000/svg">
<path opacity="0.4" d="M26.5416 14C26.5416 20.9266 20.9266 26.5416 14 26.5416C7.07341 26.5416 1.45831 20.9266 1.45831 14C1.45831 7.07341 7.07341 1.45831 14 1.45831C20.9266 1.45831 26.5416 7.07341 26.5416 14Z" fill="black"/>
<path d="M17.2983 10.2197C17.7751 9.78633 18.5135 9.82157 18.9469 10.2983C19.3803 10.7751 19.3451 11.5135 18.8684 11.9469L12.4517 17.7802C11.9909 18.1991 11.2821 18.1818 10.8418 17.7415L8.50845 15.4082C8.05285 14.9526 8.05285 14.2141 8.50845 13.7584C8.96406 13.3028 9.70258 13.3028 10.1582 13.7584L11.7042 15.3044L17.2983 10.2197Z" fill="black"/>
</svg>
