<svg width="24" height="24" viewBox="0 0 24 24" fill="none" xmlns="http://www.w3.org/2000/svg">
<path d="M22.752 12C22.752 17.9371 17.939 22.75 12.002 22.75C6.06489 22.75 1.25195 17.9371 1.25195 12C1.25195 6.06294 6.06489 1.25 12.002 1.25C17.939 1.25 22.752 6.06294 22.752 12ZM16.2422 8.82715C15.8707 8.41851 15.2378 8.38831 14.8291 8.75977L10.0342 13.1182L8.70898 11.793C8.31846 11.4024 7.68545 11.4024 7.29492 11.793C6.9044 12.1835 6.9044 12.8165 7.29492 13.207L9.29492 15.207C9.67235 15.5845 10.2798 15.5993 10.6748 15.2402L16.1748 10.2402C16.5834 9.86874 16.6136 9.23581 16.2422 8.82715Z" fill="black"/>
</svg>
