<svg width="20" height="20" viewBox="0 0 20 20" fill="none" xmlns="http://www.w3.org/2000/svg">
<path fill-rule="evenodd" clip-rule="evenodd" d="M6.75 1.04166C7.19873 1.04166 7.5625 1.40627 7.5625 1.85605V2.67736C8.04408 2.67043 8.56533 2.67043 9.12808 2.67044H10.8719C11.4347 2.67043 11.9559 2.67043 12.4375 2.67736V1.85605C12.4375 1.40627 12.8012 1.04166 13.25 1.04166C13.6987 1.04166 14.0625 1.40627 14.0625 1.85605V2.74955C14.2094 2.76296 14.3508 2.77863 14.4869 2.79697C15.462 2.92838 16.2831 3.2095 16.9351 3.8631C17.5872 4.51669 17.8677 5.33964 17.9987 6.31703C18.125 7.25844 18.125 8.45541 18.125 9.94041V11.6883C18.125 13.1733 18.125 14.3703 17.9987 15.3117C17.8677 16.2892 17.5872 17.1121 16.9351 17.7657C16.2831 18.4192 15.462 18.7004 14.4869 18.8318C13.5477 18.9583 12.3535 18.9583 10.8719 18.9583H9.12808C7.64651 18.9583 6.45233 18.9583 5.51311 18.8318C4.53798 18.7004 3.71696 18.4192 3.06488 17.7657C2.41281 17.1121 2.13233 16.2892 2.00123 15.3117C1.87496 14.3703 1.87498 13.1734 1.875 11.6884V9.94041C1.87498 8.45541 1.87496 7.25842 2.00123 6.31703C2.13233 5.33964 2.41281 4.51669 3.06488 3.8631C3.71696 3.2095 4.53798 2.92838 5.51311 2.79697C5.64918 2.77863 5.79062 2.76296 5.9375 2.74955V1.85605C5.9375 1.40627 6.30127 1.04166 6.75 1.04166ZM3.51155 8.12499C3.50038 8.66316 3.50001 9.28149 3.50001 9.99999V11.6287C3.50001 13.1874 3.50173 14.2745 3.61175 15.0947C3.71863 15.8915 3.91411 16.3134 4.21394 16.6139C4.51377 16.9145 4.93472 17.1104 5.72964 17.2176C6.54793 17.3278 7.63247 17.3296 9.1875 17.3296H10.8125C12.3676 17.3296 13.4521 17.3278 14.2704 17.2176C15.0653 17.1104 15.4862 16.9145 15.7861 16.6139C16.0859 16.3134 16.2814 15.8915 16.3882 15.0947C16.4982 14.2745 16.5 13.1874 16.5 11.6287V9.99999C16.5 9.28149 16.4997 8.66316 16.4885 8.12499H3.51155Z" fill="black"/>
<path fill-rule="evenodd" clip-rule="evenodd" d="M5.40869 11.0612C5.40869 10.601 5.78178 10.2278 6.24202 10.2278H6.2495C6.70973 10.2278 7.08283 10.601 7.08283 11.0612C7.08283 11.5214 6.70973 11.8945 6.2495 11.8945H6.24202C5.78178 11.8945 5.40869 11.5214 5.40869 11.0612ZM9.16292 11.0612C9.16292 10.601 9.53601 10.2278 9.99626 10.2278H10.0038C10.464 10.2278 10.8371 10.601 10.8371 11.0612C10.8371 11.5214 10.464 11.8945 10.0038 11.8945H9.99626C9.53601 11.8945 9.16292 11.5214 9.16292 11.0612ZM12.9167 11.0612C12.9167 10.601 13.2898 10.2278 13.75 10.2278H13.7575C14.2178 10.2278 14.5908 10.601 14.5908 11.0612C14.5908 11.5214 14.2178 11.8945 13.7575 11.8945H13.75C13.2898 11.8945 12.9167 11.5214 12.9167 11.0612ZM5.40869 14.3945C5.40869 13.9343 5.78178 13.5612 6.24202 13.5612H6.2495C6.70973 13.5612 7.08283 13.9343 7.08283 14.3945C7.08283 14.8548 6.70973 15.2278 6.2495 15.2278H6.24202C5.78178 15.2278 5.40869 14.8548 5.40869 14.3945ZM9.16292 14.3945C9.16292 13.9343 9.53601 13.5612 9.99626 13.5612H10.0038C10.464 13.5612 10.8371 13.9343 10.8371 14.3945C10.8371 14.8548 10.464 15.2278 10.0038 15.2278H9.99626C9.53601 15.2278 9.16292 14.8548 9.16292 14.3945Z" fill="black"/>
</svg>
