<svg width="20" height="20" viewBox="0 0 20 20" fill="none" xmlns="http://www.w3.org/2000/svg">
<path d="M13.3334 1.66666V4.99999M6.66669 1.66666V4.99999" stroke="black" stroke-width="1.25" stroke-linecap="round" stroke-linejoin="round"/>
<path d="M10.8333 3.33334H9.16667C6.02397 3.33334 4.45262 3.33334 3.47631 4.30965C2.5 5.28597 2.5 6.85731 2.5 10V11.6667C2.5 14.8093 2.5 16.3808 3.47631 17.357C4.45262 18.3333 6.02397 18.3333 9.16667 18.3333H10.8333C13.976 18.3333 15.5474 18.3333 16.5237 17.357C17.5 16.3808 17.5 14.8093 17.5 11.6667V10C17.5 6.85731 17.5 5.28597 16.5237 4.30965C15.5474 3.33334 13.976 3.33334 10.8333 3.33334Z" stroke="black" stroke-width="1.25" stroke-linecap="round" stroke-linejoin="round"/>
<path d="M2.5 8.33334H17.5" stroke="black" stroke-width="1.25" stroke-linecap="round" stroke-linejoin="round"/>
<path opacity="0.4" d="M10.1049 11.6667H10.0007M10.1049 15H10.0007M6.35419 11.6667H6.25002M6.35419 15H6.25002M13.8542 11.6667H13.75M10.209 11.6667C10.209 11.7818 10.1158 11.875 10.0007 11.875C9.88569 11.875 9.79235 11.7818 9.79235 11.6667C9.79235 11.5516 9.88569 11.4583 10.0007 11.4583C10.1158 11.4583 10.209 11.5516 10.209 11.6667ZM10.209 15C10.209 15.1151 10.1158 15.2083 10.0007 15.2083C9.88569 15.2083 9.79235 15.1151 9.79235 15C9.79235 14.8849 9.88569 14.7917 10.0007 14.7917C10.1158 14.7917 10.209 14.8849 10.209 15ZM6.45835 11.6667C6.45835 11.7818 6.36508 11.875 6.25002 11.875C6.13496 11.875 6.04169 11.7818 6.04169 11.6667C6.04169 11.5516 6.13496 11.4583 6.25002 11.4583C6.36508 11.4583 6.45835 11.5516 6.45835 11.6667ZM6.45835 15C6.45835 15.1151 6.36508 15.2083 6.25002 15.2083C6.13496 15.2083 6.04169 15.1151 6.04169 15C6.04169 14.8849 6.13496 14.7917 6.25002 14.7917C6.36508 14.7917 6.45835 14.8849 6.45835 15ZM13.9584 11.6667C13.9584 11.7818 13.8651 11.875 13.75 11.875C13.6349 11.875 13.5417 11.7818 13.5417 11.6667C13.5417 11.5516 13.6349 11.4583 13.75 11.4583C13.8651 11.4583 13.9584 11.5516 13.9584 11.6667Z" stroke="black" stroke-width="1.25" stroke-linecap="round" stroke-linejoin="round"/>
</svg>
