<svg width="16" height="16" viewBox="0 0 16 16" fill="none" xmlns="http://www.w3.org/2000/svg">
<path d="M10.6666 1.33334V4.00001M5.33331 1.33334V4.00001" stroke="black" stroke-linecap="round" stroke-linejoin="round"/>
<path d="M8.66667 2.66666H7.33333C4.81917 2.66666 3.5621 2.66666 2.78105 3.4477C2 4.22876 2 5.48583 2 7.99999V9.33332C2 11.8475 2 13.1046 2.78105 13.8856C3.5621 14.6667 4.81917 14.6667 7.33333 14.6667H8.66667C11.1808 14.6667 12.4379 14.6667 13.2189 13.8856C14 13.1046 14 11.8475 14 9.33332V7.99999C14 5.48583 14 4.22876 13.2189 3.4477C12.4379 2.66666 11.1808 2.66666 8.66667 2.66666Z" stroke="black" stroke-linecap="round" stroke-linejoin="round"/>
<path d="M2 6.66666H14" stroke="black" stroke-linecap="round" stroke-linejoin="round"/>
<path opacity="0.4" d="M8.08385 9.33332H8.00051M8.08385 12H8.00051M5.08331 9.33332H4.99998M5.08331 12H4.99998M11.0833 9.33332H11M8.16718 9.33332C8.16718 9.42539 8.09258 9.49999 8.00051 9.49999C7.90851 9.49999 7.83385 9.42539 7.83385 9.33332C7.83385 9.24126 7.90851 9.16666 8.00051 9.16666C8.09258 9.16666 8.16718 9.24126 8.16718 9.33332ZM8.16718 12C8.16718 12.0921 8.09258 12.1667 8.00051 12.1667C7.90851 12.1667 7.83385 12.0921 7.83385 12C7.83385 11.9079 7.90851 11.8333 8.00051 11.8333C8.09258 11.8333 8.16718 11.9079 8.16718 12ZM5.16665 9.33332C5.16665 9.42539 5.09203 9.49999 4.99998 9.49999C4.90793 9.49999 4.83331 9.42539 4.83331 9.33332C4.83331 9.24126 4.90793 9.16666 4.99998 9.16666C5.09203 9.16666 5.16665 9.24126 5.16665 9.33332ZM5.16665 12C5.16665 12.0921 5.09203 12.1667 4.99998 12.1667C4.90793 12.1667 4.83331 12.0921 4.83331 12C4.83331 11.9079 4.90793 11.8333 4.99998 11.8333C5.09203 11.8333 5.16665 11.9079 5.16665 12ZM11.1666 9.33332C11.1666 9.42539 11.092 9.49999 11 9.49999C10.9079 9.49999 10.8333 9.42539 10.8333 9.33332C10.8333 9.24126 10.9079 9.16666 11 9.16666C11.092 9.16666 11.1666 9.24126 11.1666 9.33332Z" stroke="black" stroke-linecap="round" stroke-linejoin="round"/>
</svg>
