<svg width="24" height="24" viewBox="0 0 24 24" fill="none" xmlns="http://www.w3.org/2000/svg">
<path d="M8.10026 1.25C8.63874 1.25 9.07526 1.68754 9.07526 2.22727V3.21284C9.65315 3.20453 10.2787 3.20453 10.9539 3.20454H13.0466C13.7219 3.20453 14.3474 3.20453 14.9253 3.21284V2.22727C14.9253 1.68754 15.3618 1.25 15.9003 1.25C16.4387 1.25 16.8753 1.68754 16.8753 2.22727V3.29947C17.0515 3.31556 17.2212 3.33437 17.3845 3.35638C18.5547 3.51407 19.5399 3.85141 20.3224 4.63573C21.1049 5.42004 21.4415 6.40758 21.5988 7.58045C21.6828 8.20706 21.7203 8.92803 21.7369 9.75H2.26361C2.28027 8.92803 2.31769 8.20706 2.40174 7.58045C2.55906 6.40758 2.89562 5.42004 3.67812 4.63573C4.46061 3.85141 5.44584 3.51407 6.61598 3.35638C6.77928 3.33437 6.949 3.31556 7.12526 3.29947V2.22727C7.12526 1.68754 7.56178 1.25 8.10026 1.25Z" fill="black"/>
<path opacity="0.4" d="M21.7499 11.9285V14.026C21.75 15.808 21.75 17.2444 21.5985 18.3741C21.4411 19.547 21.1046 20.5345 20.3221 21.3188C19.5396 22.1031 18.5544 22.4405 17.3842 22.5982C16.2572 22.75 14.8241 22.75 13.0463 22.75H10.9536C9.17575 22.75 7.74273 22.75 6.61566 22.5982C5.44552 22.4405 4.46029 22.1031 3.6778 21.3188C2.8953 20.5345 2.55874 19.547 2.40142 18.3741C2.24989 17.2444 2.24991 15.8081 2.24994 14.0261V11.9285C2.24993 11.135 2.24992 10.4099 2.26329 9.75H4.2138C4.20039 10.3958 4.19995 11.1378 4.19995 12V13.9545C4.19995 15.8249 4.20202 17.1294 4.33404 18.1137C4.46229 19.0698 4.69687 19.5761 5.05666 19.9367C5.41646 20.2974 5.9216 20.5325 6.87551 20.6611C7.85746 20.7934 9.15891 20.7955 11.025 20.7955H12.975C14.841 20.7955 16.1424 20.7934 17.1244 20.6611C18.0783 20.5325 18.5834 20.2974 18.9432 19.9367C19.303 19.5761 19.5376 19.0698 19.6659 18.1137C19.7979 17.1294 19.7999 15.8249 19.7999 13.9545V12C19.7999 11.1378 19.7995 10.3958 19.7861 9.75H21.7366C21.75 10.4099 21.75 11.1349 21.7499 11.9285Z" fill="black"/>
<path fill-rule="evenodd" clip-rule="evenodd" d="M6.49011 13.2734C6.49011 12.7212 6.93783 12.2734 7.49011 12.2734H7.49909C8.05137 12.2734 8.49909 12.7212 8.49909 13.2734C8.49909 13.8257 8.05137 14.2734 7.49909 14.2734H7.49011C6.93783 14.2734 6.49011 13.8257 6.49011 13.2734ZM10.9952 13.2734C10.9952 12.7212 11.4429 12.2734 11.9952 12.2734H12.0041C12.5564 12.2734 13.0041 12.7212 13.0041 13.2734C13.0041 13.8257 12.5564 14.2734 12.0041 14.2734H11.9952C11.4429 14.2734 10.9952 13.8257 10.9952 13.2734ZM15.4997 13.2734C15.4997 12.7212 15.9474 12.2734 16.4997 12.2734H16.5086C17.0609 12.2734 17.5086 12.7212 17.5086 13.2734C17.5086 13.8257 17.0609 14.2734 16.5086 14.2734H16.4997C15.9474 14.2734 15.4997 13.8257 15.4997 13.2734ZM6.49011 17.2734C6.49011 16.7212 6.93783 16.2734 7.49011 16.2734H7.49909C8.05137 16.2734 8.49909 16.7212 8.49909 17.2734C8.49909 17.8257 8.05137 18.2734 7.49909 18.2734H7.49011C6.93783 18.2734 6.49011 17.8257 6.49011 17.2734ZM10.9952 17.2734C10.9952 16.7212 11.4429 16.2734 11.9952 16.2734H12.0041C12.5564 16.2734 13.0041 16.7212 13.0041 17.2734C13.0041 17.8257 12.5564 18.2734 12.0041 18.2734H11.9952C11.4429 18.2734 10.9952 17.8257 10.9952 17.2734Z" fill="black"/>
</svg>
