<svg width="28" height="28" viewBox="0 0 28 28" fill="none" xmlns="http://www.w3.org/2000/svg">
<path fill-rule="evenodd" clip-rule="evenodd" d="M9.45 1.45834C10.0782 1.45834 10.5875 1.96881 10.5875 2.59849V3.74832C11.2617 3.73863 11.9915 3.73863 12.7793 3.73864H15.2207C16.0085 3.73863 16.7383 3.73863 17.4125 3.74832V2.59849C17.4125 1.96881 17.9217 1.45834 18.55 1.45834C19.1782 1.45834 19.6875 1.96881 19.6875 2.59849V3.84939C19.8932 3.86816 20.0912 3.89011 20.2817 3.91579C21.6468 4.09976 22.7963 4.49332 23.7091 5.40836C24.622 6.32339 25.0147 7.47552 25.1982 8.84387C25.375 10.1618 25.375 11.8376 25.375 13.9166V16.3637C25.375 18.4427 25.375 20.1185 25.1982 21.4365C25.0147 22.8048 24.622 23.9569 23.7091 24.8719C22.7963 25.787 21.6468 26.1806 20.2817 26.3646C18.9667 26.5417 17.2949 26.5417 15.2207 26.5417H12.7793C10.7051 26.5417 9.03326 26.5417 7.71835 26.3646C6.35318 26.1806 5.20374 25.787 4.29084 24.8719C3.37793 23.9569 2.98527 22.8048 2.80173 21.4365C2.62494 20.1185 2.62498 18.4428 2.625 16.3638V13.9166C2.62498 11.8376 2.62494 10.1618 2.80173 8.84387C2.98527 7.47552 3.37793 6.32339 4.29084 5.40836C5.20374 4.49332 6.35318 4.09976 7.71835 3.91579C7.90886 3.89011 8.10686 3.86816 8.3125 3.84939V2.59849C8.3125 1.96881 8.82177 1.45834 9.45 1.45834ZM4.91617 11.375C4.90053 12.1284 4.90001 12.9941 4.90001 14V16.2803C4.90001 18.4624 4.90243 19.9843 5.05645 21.1327C5.20608 22.2481 5.47975 22.8388 5.89952 23.2595C6.31927 23.6803 6.9086 23.9546 8.0215 24.1046C9.16711 24.259 10.6855 24.2614 12.8625 24.2614H15.1375C17.3146 24.2614 18.8329 24.259 19.9786 24.1046C21.0915 23.9546 21.6807 23.6803 22.1005 23.2595C22.5203 22.8388 22.794 22.2481 22.9435 21.1327C23.0975 19.9843 23.1 18.4624 23.1 16.2803V14C23.1 12.9941 23.0995 12.1284 23.0839 11.375H4.91617Z" fill="black"/>
<path fill-rule="evenodd" clip-rule="evenodd" d="M7.57214 15.4856C7.57214 14.8414 8.09447 14.319 8.73881 14.319H8.74928C9.3936 14.319 9.91594 14.8414 9.91594 15.4856C9.91594 16.13 9.3936 16.6523 8.74928 16.6523H8.73881C8.09447 16.6523 7.57214 16.13 7.57214 15.4856ZM12.8281 15.4856C12.8281 14.8414 13.3504 14.319 13.9947 14.319H14.0052C14.6496 14.319 15.1719 14.8414 15.1719 15.4856C15.1719 16.13 14.6496 16.6523 14.0052 16.6523H13.9947C13.3504 16.6523 12.8281 16.13 12.8281 15.4856ZM18.0833 15.4856C18.0833 14.8414 18.6056 14.319 19.25 14.319H19.2605C19.9048 14.319 20.4272 14.8414 20.4272 15.4856C20.4272 16.13 19.9048 16.6523 19.2605 16.6523H19.25C18.6056 16.6523 18.0833 16.13 18.0833 15.4856ZM7.57214 20.1523C7.57214 19.5081 8.09447 18.9856 8.73881 18.9856H8.74928C9.3936 18.9856 9.91594 19.5081 9.91594 20.1523C9.91594 20.7967 9.3936 21.319 8.74928 21.319H8.73881C8.09447 21.319 7.57214 20.7967 7.57214 20.1523ZM12.8281 20.1523C12.8281 19.5081 13.3504 18.9856 13.9947 18.9856H14.0052C14.6496 18.9856 15.1719 19.5081 15.1719 20.1523C15.1719 20.7967 14.6496 21.319 14.0052 21.319H13.9947C13.3504 21.319 12.8281 20.7967 12.8281 20.1523Z" fill="black"/>
</svg>
