<svg width="16" height="16" viewBox="0 0 16 16" fill="none" xmlns="http://www.w3.org/2000/svg">
<path d="M5.40019 0.833344C5.75918 0.833344 6.05019 1.12504 6.05019 1.48486V2.1419C6.43545 2.13636 6.85249 2.13636 7.30262 2.13637H8.69775C9.14795 2.13636 9.56495 2.13636 9.95022 2.1419V1.48486C9.95022 1.12504 10.2412 0.833344 10.6002 0.833344C10.9592 0.833344 11.2502 1.12504 11.2502 1.48486V2.19966C11.3677 2.21038 11.4808 2.22292 11.5897 2.2376C12.3698 2.34272 13.0266 2.56762 13.5483 3.0905C14.07 3.61337 14.2944 4.27173 14.3992 5.05364C14.4552 5.47138 14.4802 5.95203 14.4913 6.50001H1.50909C1.5202 5.95203 1.54515 5.47138 1.60118 5.05364C1.70606 4.27173 1.93043 3.61337 2.4521 3.0905C2.97376 2.56762 3.63058 2.34272 4.41067 2.2376C4.51954 2.22292 4.63269 2.21038 4.75019 2.19966V1.48486C4.75019 1.12504 5.04121 0.833344 5.40019 0.833344Z" fill="black"/>
<path opacity="0.4" d="M14.4999 7.95233V9.35067C14.5 10.5387 14.5 11.4963 14.399 12.2494C14.294 13.0313 14.0697 13.6897 13.548 14.2125C13.0264 14.7354 12.3696 14.9603 11.5894 15.0655C10.8381 15.1667 9.88271 15.1667 8.69751 15.1667H7.30238C6.11715 15.1667 5.1618 15.1667 4.41042 15.0655C3.63033 14.9603 2.97351 14.7354 2.45185 14.2125C1.93018 13.6897 1.70581 13.0313 1.60093 12.2494C1.49991 11.4963 1.49992 10.5387 1.49994 9.35073V7.95233C1.49993 7.42333 1.49993 6.93993 1.50884 6.5H2.80918C2.80024 6.93053 2.79995 7.4252 2.79995 8V9.303C2.79995 10.5499 2.80133 11.4196 2.88934 12.0758C2.97484 12.7132 3.13123 13.0507 3.37109 13.2911C3.61095 13.5316 3.94771 13.6883 4.58365 13.7741C5.23829 13.8623 6.10592 13.8637 7.34998 13.8637H8.64998C9.89398 13.8637 10.7616 13.8623 11.4162 13.7741C12.0522 13.6883 12.3889 13.5316 12.6288 13.2911C12.8686 13.0507 13.025 12.7132 13.1106 12.0758C13.1986 11.4196 13.1999 10.5499 13.1999 9.303V8C13.1999 7.4252 13.1996 6.93053 13.1907 6.5H14.491C14.5 6.93993 14.5 7.42327 14.4999 7.95233Z" fill="black"/>
<path fill-rule="evenodd" clip-rule="evenodd" d="M4.32678 8.84892C4.32678 8.48078 4.62526 8.18225 4.99345 8.18225H4.99944C5.36762 8.18225 5.6661 8.48078 5.6661 8.84892C5.6661 9.21712 5.36762 9.51558 4.99944 9.51558H4.99345C4.62526 9.51558 4.32678 9.21712 4.32678 8.84892ZM7.3302 8.84892C7.3302 8.48078 7.62867 8.18225 7.99687 8.18225H8.0028C8.371 8.18225 8.66947 8.48078 8.66947 8.84892C8.66947 9.21712 8.371 9.51558 8.0028 9.51558H7.99687C7.62867 9.51558 7.3302 9.21712 7.3302 8.84892ZM10.3332 8.84892C10.3332 8.48078 10.6317 8.18225 10.9999 8.18225H11.0058C11.374 8.18225 11.6725 8.48078 11.6725 8.84892C11.6725 9.21712 11.374 9.51558 11.0058 9.51558H10.9999C10.6317 9.51558 10.3332 9.21712 10.3332 8.84892ZM4.32678 11.5156C4.32678 11.1475 4.62526 10.8489 4.99345 10.8489H4.99944C5.36762 10.8489 5.6661 11.1475 5.6661 11.5156C5.6661 11.8838 5.36762 12.1823 4.99944 12.1823H4.99345C4.62526 12.1823 4.32678 11.8838 4.32678 11.5156ZM7.3302 11.5156C7.3302 11.1475 7.62867 10.8489 7.99687 10.8489H8.0028C8.371 10.8489 8.66947 11.1475 8.66947 11.5156C8.66947 11.8838 8.371 12.1823 8.0028 12.1823H7.99687C7.62867 12.1823 7.3302 11.8838 7.3302 11.5156Z" fill="black"/>
</svg>
