<svg width="20" height="20" viewBox="0 0 20 20" fill="none" xmlns="http://www.w3.org/2000/svg">
<path d="M6.75023 1.04166C7.19896 1.04166 7.56273 1.40627 7.56273 1.85605V2.67736C8.0443 2.67043 8.56559 2.67043 9.12826 2.67044H10.8722C11.4349 2.67043 11.9562 2.67043 12.4378 2.67736V1.85605C12.4378 1.40627 12.8015 1.04166 13.2503 1.04166C13.6989 1.04166 14.0628 1.40627 14.0628 1.85605V2.74955C14.2096 2.76296 14.351 2.77863 14.4871 2.79697C15.4623 2.92838 16.2833 3.2095 16.9353 3.8631C17.5874 4.51669 17.8679 5.33964 17.999 6.31703C18.069 6.83921 18.1003 7.44002 18.1141 8.12499H1.88635C1.90024 7.44002 1.93142 6.83921 2.00146 6.31703C2.13256 5.33964 2.41303 4.51669 3.06511 3.8631C3.71719 3.2095 4.53821 2.92838 5.51333 2.79697C5.64941 2.77863 5.79084 2.76296 5.93773 2.74955V1.85605C5.93773 1.40627 6.30149 1.04166 6.75023 1.04166Z" fill="black"/>
<path opacity="0.4" d="M18.1249 9.94042V11.6883C18.125 13.1733 18.125 14.3703 17.9987 15.3117C17.8676 16.2892 17.5872 17.1121 16.9351 17.7657C16.283 18.4192 15.462 18.7004 14.4868 18.8318C13.5477 18.9583 12.3534 18.9583 10.8719 18.9583H9.12799C7.64645 18.9583 6.45226 18.9583 5.51304 18.8318C4.53792 18.7004 3.7169 18.4192 3.06482 17.7657C2.41274 17.1121 2.13227 16.2892 2.00117 15.3117C1.8749 14.3703 1.87491 13.1734 1.87494 11.6884V9.94042C1.87493 9.27917 1.87492 8.67492 1.88606 8.125H3.51149C3.50031 8.66317 3.49995 9.2815 3.49995 10V11.6288C3.49995 13.1874 3.50167 14.2745 3.61169 15.0948C3.71856 15.8915 3.91405 16.3134 4.21387 16.6139C4.51371 16.9145 4.93466 17.1104 5.72958 17.2176C6.54787 17.3278 7.63241 17.3296 9.18749 17.3296H10.8125C12.3675 17.3296 13.452 17.3278 14.2703 17.2176C15.0652 17.1104 15.4862 16.9145 15.786 16.6139C16.0858 16.3134 16.2813 15.8915 16.3882 15.0948C16.4982 14.2745 16.4999 13.1874 16.4999 11.6288V10C16.4999 9.2815 16.4996 8.66317 16.4884 8.125H18.1138C18.125 8.67492 18.125 9.27908 18.1249 9.94042Z" fill="black"/>
<path fill-rule="evenodd" clip-rule="evenodd" d="M5.40845 11.0612C5.40845 10.601 5.78155 10.2278 6.24178 10.2278H6.24926C6.7095 10.2278 7.0826 10.601 7.0826 11.0612C7.0826 11.5214 6.7095 11.8945 6.24926 11.8945H6.24178C5.78155 11.8945 5.40845 11.5214 5.40845 11.0612ZM9.16272 11.0612C9.16272 10.601 9.53581 10.2278 9.99606 10.2278H10.0035C10.4637 10.2278 10.8368 10.601 10.8368 11.0612C10.8368 11.5214 10.4637 11.8945 10.0035 11.8945H9.99606C9.53581 11.8945 9.16272 11.5214 9.16272 11.0612ZM12.9165 11.0612C12.9165 10.601 13.2896 10.2278 13.7498 10.2278H13.7572C14.2175 10.2278 14.5906 10.601 14.5906 11.0612C14.5906 11.5214 14.2175 11.8945 13.7572 11.8945H13.7498C13.2896 11.8945 12.9165 11.5214 12.9165 11.0612ZM5.40845 14.3945C5.40845 13.9343 5.78155 13.5612 6.24178 13.5612H6.24926C6.7095 13.5612 7.0826 13.9343 7.0826 14.3945C7.0826 14.8548 6.7095 15.2278 6.24926 15.2278H6.24178C5.78155 15.2278 5.40845 14.8548 5.40845 14.3945ZM9.16272 14.3945C9.16272 13.9343 9.53581 13.5612 9.99606 13.5612H10.0035C10.4637 13.5612 10.8368 13.9343 10.8368 14.3945C10.8368 14.8548 10.4637 15.2278 10.0035 15.2278H9.99606C9.53581 15.2278 9.16272 14.8548 9.16272 14.3945Z" fill="black"/>
</svg>
