<svg width="28" height="28" viewBox="0 0 28 28" fill="none" xmlns="http://www.w3.org/2000/svg">
<path d="M9.45029 1.45834C10.0785 1.45834 10.5878 1.96881 10.5878 2.59849V3.74832C11.262 3.73863 11.9918 3.73863 12.7795 3.73864H15.221C16.0089 3.73863 16.7386 3.73863 17.4128 3.74832V2.59849C17.4128 1.96881 17.9221 1.45834 18.5503 1.45834C19.1785 1.45834 19.6878 1.96881 19.6878 2.59849V3.84939C19.8934 3.86816 20.0914 3.89011 20.2819 3.91579C21.6471 4.09976 22.7965 4.49332 23.7095 5.40836C24.6224 6.32339 25.0151 7.47552 25.1986 8.84387C25.2966 9.57491 25.3403 10.416 25.3597 11.375H2.64087C2.66031 10.416 2.70396 9.57491 2.80202 8.84387C2.98556 7.47552 3.37821 6.32339 4.29113 5.40836C5.20404 4.49332 6.35347 4.09976 7.71863 3.91579C7.90915 3.89011 8.10716 3.86816 8.31279 3.84939V2.59849C8.31279 1.96881 8.82207 1.45834 9.45029 1.45834Z" fill="black"/>
<path opacity="0.4" d="M25.3748 13.9166V16.3637C25.3749 18.4427 25.3749 20.1185 25.1982 21.4365C25.0146 22.8048 24.622 23.9569 23.7091 24.8719C22.7961 25.787 21.6467 26.1806 20.2815 26.3646C18.9667 26.5417 17.2947 26.5417 15.2206 26.5417H12.7791C10.705 26.5417 9.03313 26.5417 7.71822 26.3646C6.35306 26.1806 5.20362 25.787 4.29072 24.8719C3.3778 23.9569 2.98515 22.8048 2.80161 21.4365C2.62482 20.1185 2.62484 18.4428 2.62488 16.3638V13.9166C2.62487 12.9908 2.62486 12.1449 2.64045 11.375H4.91605C4.9004 12.1284 4.89989 12.9941 4.89989 14V16.2803C4.89989 18.4624 4.90231 19.9843 5.05633 21.1327C5.20595 22.2481 5.47963 22.8388 5.89939 23.2595C6.31915 23.6803 6.90848 23.9546 8.02138 24.1046C9.16699 24.259 10.6853 24.2614 12.8624 24.2614H15.1374C17.3144 24.2614 18.8327 24.259 19.9784 24.1046C21.0913 23.9546 21.6806 23.6803 22.1003 23.2595C22.5201 22.8388 22.7938 22.2481 22.9435 21.1327C23.0975 19.9843 23.0998 18.4624 23.0998 16.2803V14C23.0998 12.9941 23.0994 12.1284 23.0837 11.375H25.3593C25.3749 12.1449 25.3749 12.9907 25.3748 13.9166Z" fill="black"/>
<path fill-rule="evenodd" clip-rule="evenodd" d="M7.5719 15.4856C7.5719 14.8414 8.09424 14.319 8.73857 14.319H8.74904C9.39337 14.319 9.91571 14.8414 9.91571 15.4856C9.91571 16.13 9.39337 16.6523 8.74904 16.6523H8.73857C8.09424 16.6523 7.5719 16.13 7.5719 15.4856ZM12.8279 15.4856C12.8279 14.8414 13.3502 14.319 13.9946 14.319H14.0049C14.6493 14.319 15.1716 14.8414 15.1716 15.4856C15.1716 16.13 14.6493 16.6523 14.0049 16.6523H13.9946C13.3502 16.6523 12.8279 16.13 12.8279 15.4856ZM18.0831 15.4856C18.0831 14.8414 18.6055 14.319 19.2498 14.319H19.2602C19.9045 14.319 20.4269 14.8414 20.4269 15.4856C20.4269 16.13 19.9045 16.6523 19.2602 16.6523H19.2498C18.6055 16.6523 18.0831 16.13 18.0831 15.4856ZM7.5719 20.1523C7.5719 19.5081 8.09424 18.9856 8.73857 18.9856H8.74904C9.39337 18.9856 9.91571 19.5081 9.91571 20.1523C9.91571 20.7967 9.39337 21.319 8.74904 21.319H8.73857C8.09424 21.319 7.5719 20.7967 7.5719 20.1523ZM12.8279 20.1523C12.8279 19.5081 13.3502 18.9856 13.9946 18.9856H14.0049C14.6493 18.9856 15.1716 19.5081 15.1716 20.1523C15.1716 20.7967 14.6493 21.319 14.0049 21.319H13.9946C13.3502 21.319 12.8279 20.7967 12.8279 20.1523Z" fill="black"/>
</svg>
