<svg width="32" height="32" viewBox="0 0 32 32" fill="none" xmlns="http://www.w3.org/2000/svg">
<path fill-rule="evenodd" clip-rule="evenodd" d="M10.8 1.66666C11.518 1.66666 12.1 2.25004 12.1 2.96968V4.28378C12.8705 4.2727 13.7045 4.2727 14.6049 4.27271H17.3951C18.2955 4.2727 19.1295 4.2727 19.9 4.28378V2.96968C19.9 2.25004 20.482 1.66666 21.2 1.66666C21.918 1.66666 22.5 2.25004 22.5 2.96968V4.39928C22.7351 4.42074 22.9613 4.44582 23.1791 4.47516C24.7392 4.68542 26.0529 5.1352 27.0961 6.18096C28.1395 7.22671 28.5883 8.54343 28.798 10.1073C29 11.6135 29 13.5287 29 15.9047V18.7013C29 21.0773 29 22.9925 28.798 24.4988C28.5883 26.0627 28.1395 27.3793 27.0961 28.4251C26.0529 29.4708 24.7392 29.9207 23.1791 30.1309C21.6763 30.3333 19.7656 30.3333 17.3951 30.3333H14.6049C12.2344 30.3333 10.3237 30.3333 8.82097 30.1309C7.26077 29.9207 5.94713 29.4708 4.90381 28.4251C3.86049 27.3793 3.41173 26.0627 3.20197 24.4988C2.99993 22.9925 2.99997 21.0775 3 18.7015V15.9047C2.99997 13.5287 2.99993 11.6135 3.20197 10.1073C3.41173 8.54343 3.86049 7.22671 4.90381 6.18096C5.94713 5.1352 7.26077 4.68542 8.82097 4.47516C9.03869 4.44582 9.26499 4.42074 9.5 4.39928V2.96968C9.5 2.25004 10.082 1.66666 10.8 1.66666ZM5.61848 13C5.6006 13.8611 5.60001 14.8504 5.60001 16V18.606C5.60001 21.0999 5.60277 22.8392 5.7788 24.1516C5.9498 25.4264 6.26257 26.1015 6.74231 26.5823C7.22203 27.0632 7.89555 27.3767 9.16743 27.5481C10.4767 27.7245 12.212 27.7273 14.7 27.7273H17.3C19.7881 27.7273 21.5233 27.7245 22.8327 27.5481C24.1045 27.3767 24.778 27.0632 25.2577 26.5823C25.7375 26.1015 26.0503 25.4264 26.2212 24.1516C26.3972 22.8392 26.4 21.0999 26.4 18.606V16C26.4 14.8504 26.3995 13.8611 26.3816 13H5.61848Z" fill="black"/>
<path fill-rule="evenodd" clip-rule="evenodd" d="M8.65393 17.6979C8.65393 16.9616 9.25088 16.3645 9.98726 16.3645H9.99922C10.7356 16.3645 11.3326 16.9616 11.3326 17.6979C11.3326 18.4343 10.7356 19.0312 9.99922 19.0312H9.98726C9.25088 19.0312 8.65393 18.4343 8.65393 17.6979ZM14.6607 17.6979C14.6607 16.9616 15.2576 16.3645 15.994 16.3645H16.006C16.7424 16.3645 17.3394 16.9616 17.3394 17.6979C17.3394 18.4343 16.7424 19.0312 16.006 19.0312H15.994C15.2576 19.0312 14.6607 18.4343 14.6607 17.6979ZM20.6667 17.6979C20.6667 16.9616 21.2636 16.3645 22 16.3645H22.012C22.7484 16.3645 23.3454 16.9616 23.3454 17.6979C23.3454 18.4343 22.7484 19.0312 22.012 19.0312H22C21.2636 19.0312 20.6667 18.4343 20.6667 17.6979ZM8.65393 23.0312C8.65393 22.2949 9.25088 21.6979 9.98726 21.6979H9.99922C10.7356 21.6979 11.3326 22.2949 11.3326 23.0312C11.3326 23.7676 10.7356 24.3645 9.99922 24.3645H9.98726C9.25088 24.3645 8.65393 23.7676 8.65393 23.0312ZM14.6607 23.0312C14.6607 22.2949 15.2576 21.6979 15.994 21.6979H16.006C16.7424 21.6979 17.3394 22.2949 17.3394 23.0312C17.3394 23.7676 16.7424 24.3645 16.006 24.3645H15.994C15.2576 24.3645 14.6607 23.7676 14.6607 23.0312Z" fill="black"/>
</svg>
