<svg width="16" height="16" viewBox="0 0 16 16" fill="none" xmlns="http://www.w3.org/2000/svg">
<path fill-rule="evenodd" clip-rule="evenodd" d="M5.4 0.833344C5.75899 0.833344 6.05 1.12504 6.05 1.48486V2.1419C6.43527 2.13636 6.85227 2.13636 7.30247 2.13637H8.69753C9.14773 2.13636 9.56473 2.13636 9.95 2.1419V1.48486C9.95 1.12504 10.241 0.833344 10.6 0.833344C10.959 0.833344 11.25 1.12504 11.25 1.48486V2.19966C11.3675 2.21038 11.4807 2.22292 11.5895 2.2376C12.3696 2.34272 13.0265 2.56762 13.5481 3.0905C14.0697 3.61337 14.2941 4.27173 14.399 5.05364C14.5 5.80677 14.5 6.76434 14.5 7.95234V9.35068C14.5 10.5387 14.5 11.4963 14.399 12.2494C14.2941 13.0313 14.0697 13.6897 13.5481 14.2125C13.0265 14.7354 12.3696 14.9603 11.5895 15.0655C10.8381 15.1667 9.8828 15.1667 8.69753 15.1667H7.30247C6.11721 15.1667 5.16186 15.1667 4.41049 15.0655C3.63039 14.9603 2.97357 14.7354 2.45191 14.2125C1.93025 13.6897 1.70587 13.0313 1.60099 12.2494C1.49997 11.4963 1.49999 10.5387 1.5 9.35074V7.95234C1.49999 6.76434 1.49997 5.80676 1.60099 5.05364C1.70587 4.27173 1.93025 3.61337 2.45191 3.0905C2.97357 2.56762 3.63039 2.34272 4.41049 2.2376C4.51935 2.22292 4.63249 2.21038 4.75 2.19966V1.48486C4.75 1.12504 5.04101 0.833344 5.4 0.833344ZM2.80924 6.50001C2.8003 6.93054 2.80001 7.42521 2.80001 8.00001V9.30301C2.80001 10.5499 2.80139 11.4196 2.8894 12.0758C2.9749 12.7132 3.13129 13.0507 3.37115 13.2911C3.61101 13.5316 3.94777 13.6883 4.58371 13.7741C5.23835 13.8623 6.10598 13.8637 7.35 13.8637H8.65C9.89407 13.8637 10.7617 13.8623 11.4163 13.7741C12.0523 13.6883 12.389 13.5316 12.6289 13.2911C12.8687 13.0507 13.0251 12.7132 13.1106 12.0758C13.1986 11.4196 13.2 10.5499 13.2 9.30301V8.00001C13.2 7.42521 13.1997 6.93054 13.1908 6.50001H2.80924Z" fill="black"/>
<path fill-rule="evenodd" clip-rule="evenodd" d="M4.32697 8.84892C4.32697 8.48078 4.62544 8.18225 4.99363 8.18225H4.99961C5.3678 8.18225 5.66628 8.48078 5.66628 8.84892C5.66628 9.21712 5.3678 9.51558 4.99961 9.51558H4.99363C4.62544 9.51558 4.32697 9.21712 4.32697 8.84892ZM7.33035 8.84892C7.33035 8.48078 7.62882 8.18225 7.99702 8.18225H8.00302C8.37122 8.18225 8.66969 8.48078 8.66969 8.84892C8.66969 9.21712 8.37122 9.51558 8.00302 9.51558H7.99702C7.62882 9.51558 7.33035 9.21712 7.33035 8.84892ZM10.3334 8.84892C10.3334 8.48078 10.6318 8.18225 11 8.18225H11.006C11.3742 8.18225 11.6727 8.48078 11.6727 8.84892C11.6727 9.21712 11.3742 9.51558 11.006 9.51558H11C10.6318 9.51558 10.3334 9.21712 10.3334 8.84892ZM4.32697 11.5156C4.32697 11.1475 4.62544 10.8489 4.99363 10.8489H4.99961C5.3678 10.8489 5.66628 11.1475 5.66628 11.5156C5.66628 11.8838 5.3678 12.1823 4.99961 12.1823H4.99363C4.62544 12.1823 4.32697 11.8838 4.32697 11.5156ZM7.33035 11.5156C7.33035 11.1475 7.62882 10.8489 7.99702 10.8489H8.00302C8.37122 10.8489 8.66969 11.1475 8.66969 11.5156C8.66969 11.8838 8.37122 12.1823 8.00302 12.1823H7.99702C7.62882 12.1823 7.33035 11.8838 7.33035 11.5156Z" fill="black"/>
</svg>
