<svg width="32" height="32" viewBox="0 0 32 32" fill="none" xmlns="http://www.w3.org/2000/svg">
<path d="M10.8004 1.66666C11.5184 1.66666 12.1004 2.25004 12.1004 2.96968V4.28378C12.8709 4.2727 13.705 4.2727 14.6052 4.27271H17.3955C18.2959 4.2727 19.1299 4.2727 19.9004 4.28378V2.96968C19.9004 2.25004 20.4824 1.66666 21.2004 1.66666C21.9183 1.66666 22.5004 2.25004 22.5004 2.96968V4.39928C22.7354 4.42074 22.9616 4.44582 23.1794 4.47516C24.7396 4.68542 26.0532 5.1352 27.0966 6.18096C28.1399 7.22671 28.5887 8.54343 28.7984 10.1073C28.9104 10.9427 28.9604 11.904 28.9826 13H3.01819C3.0404 11.904 3.0903 10.9427 3.20236 10.1073C3.41212 8.54343 3.86087 7.22671 4.9042 6.18096C5.94752 5.1352 7.26116 4.68542 8.82135 4.47516C9.03908 4.44582 9.26538 4.42074 9.50039 4.39928V2.96968C9.50039 2.25004 10.0824 1.66666 10.8004 1.66666Z" fill="black"/>
<path opacity="0.4" d="M28.9998 15.9047V18.7013C29 21.0773 29 22.9925 28.798 24.4988C28.5881 26.0627 28.1394 27.3793 27.0961 28.4251C26.0528 29.4708 24.7392 29.9207 23.1789 30.1309C21.6762 30.3333 19.7654 30.3333 17.395 30.3333H14.6048C12.2343 30.3333 10.3236 30.3333 8.82084 30.1309C7.26065 29.9207 5.94701 29.4708 4.90369 28.4251C3.86036 27.3793 3.41161 26.0627 3.20185 24.4988C2.99981 22.9925 2.99984 21.0775 2.99988 18.7015V15.9047C2.99987 14.8467 2.99985 13.8799 3.01768 13H5.61836C5.60048 13.8611 5.59989 14.8504 5.59989 16V18.606C5.59989 21.0999 5.60265 22.8392 5.77868 24.1516C5.94968 25.4264 6.26245 26.1015 6.74217 26.5823C7.22191 27.0632 7.89543 27.3767 9.16731 27.5481C10.4766 27.7245 12.2118 27.7273 14.7 27.7273H17.3C19.788 27.7273 21.5232 27.7245 22.8325 27.5481C24.1044 27.3767 24.7778 27.0632 25.2576 26.5823C25.7373 26.1015 26.0501 25.4264 26.2212 24.1516C26.3972 22.8392 26.3998 21.0999 26.3998 18.606V16C26.3998 14.8504 26.3993 13.8611 26.3814 13H28.9821C29 13.8799 29 14.8465 28.9998 15.9047Z" fill="black"/>
<path fill-rule="evenodd" clip-rule="evenodd" d="M8.65356 17.6979C8.65356 16.9616 9.25052 16.3645 9.9869 16.3645H9.99887C10.7352 16.3645 11.3322 16.9616 11.3322 17.6979C11.3322 18.4343 10.7352 19.0312 9.99887 19.0312H9.9869C9.25052 19.0312 8.65356 18.4343 8.65356 17.6979ZM14.6604 17.6979C14.6604 16.9616 15.2573 16.3645 15.9937 16.3645H16.0056C16.742 16.3645 17.3389 16.9616 17.3389 17.6979C17.3389 18.4343 16.742 19.0312 16.0056 19.0312H15.9937C15.2573 19.0312 14.6604 18.4343 14.6604 17.6979ZM20.6664 17.6979C20.6664 16.9616 21.2633 16.3645 21.9997 16.3645H22.0116C22.748 16.3645 23.3449 16.9616 23.3449 17.6979C23.3449 18.4343 22.748 19.0312 22.0116 19.0312H21.9997C21.2633 19.0312 20.6664 18.4343 20.6664 17.6979ZM8.65356 23.0312C8.65356 22.2949 9.25052 21.6979 9.9869 21.6979H9.99887C10.7352 21.6979 11.3322 22.2949 11.3322 23.0312C11.3322 23.7676 10.7352 24.3645 9.99887 24.3645H9.9869C9.25052 24.3645 8.65356 23.7676 8.65356 23.0312ZM14.6604 23.0312C14.6604 22.2949 15.2573 21.6979 15.9937 21.6979H16.0056C16.742 21.6979 17.3389 22.2949 17.3389 23.0312C17.3389 23.7676 16.742 24.3645 16.0056 24.3645H15.9937C15.2573 24.3645 14.6604 23.7676 14.6604 23.0312Z" fill="black"/>
</svg>
