<svg width="28" height="28" viewBox="0 0 28 28" fill="none" xmlns="http://www.w3.org/2000/svg">
<path opacity="0.4" d="M15.1657 4.66667H12.8323C8.43258 4.66667 6.23269 4.66667 4.86585 6.0335C3.76559 7.13377 3.551 8.77384 3.50916 11.6667H24.4888C24.4471 8.77384 24.2324 7.13377 23.1321 6.0335C21.7654 4.66667 19.5655 4.66667 15.1657 4.66667Z" fill="black"/>
<path d="M18.6667 2.33333V6.99999M9.33337 2.33333V6.99999" stroke="black" stroke-width="1.75" stroke-linecap="round" stroke-linejoin="round"/>
<path d="M15.1667 4.66667H12.8333C8.43355 4.66667 6.23367 4.66667 4.86683 6.0335C3.5 7.40035 3.5 9.60022 3.5 14V16.3333C3.5 20.7331 3.5 22.9331 4.86683 24.2998C6.23367 25.6667 8.43355 25.6667 12.8333 25.6667H15.1667C19.5664 25.6667 21.7664 25.6667 23.1331 24.2998C24.5 22.9331 24.5 20.7331 24.5 16.3333V14C24.5 9.60022 24.5 7.40035 23.1331 6.0335C21.7664 4.66667 19.5664 4.66667 15.1667 4.66667Z" stroke="black" stroke-width="1.75" stroke-linecap="round" stroke-linejoin="round"/>
<path d="M3.5 11.6667H24.5" stroke="black" stroke-width="1.75" stroke-linecap="round" stroke-linejoin="round"/>
<path d="M14.1468 16.3333H14.001M14.1468 21H14.001M8.89587 16.3333H8.75004M8.89587 21H8.75004M19.3959 16.3333H19.25M14.2926 16.3333C14.2926 16.4944 14.1621 16.625 14.001 16.625C13.84 16.625 13.7093 16.4944 13.7093 16.3333C13.7093 16.1722 13.84 16.0417 14.001 16.0417C14.1621 16.0417 14.2926 16.1722 14.2926 16.3333ZM14.2926 21C14.2926 21.1611 14.1621 21.2917 14.001 21.2917C13.84 21.2917 13.7093 21.1611 13.7093 21C13.7093 20.8389 13.84 20.7083 14.001 20.7083C14.1621 20.7083 14.2926 20.8389 14.2926 21ZM9.04171 16.3333C9.04171 16.4944 8.91112 16.625 8.75004 16.625C8.58896 16.625 8.45837 16.4944 8.45837 16.3333C8.45837 16.1722 8.58896 16.0417 8.75004 16.0417C8.91112 16.0417 9.04171 16.1722 9.04171 16.3333ZM9.04171 21C9.04171 21.1611 8.91112 21.2917 8.75004 21.2917C8.58896 21.2917 8.45837 21.1611 8.45837 21C8.45837 20.8389 8.58896 20.7083 8.75004 20.7083C8.91112 20.7083 9.04171 20.8389 9.04171 21ZM19.5417 16.3333C19.5417 16.4944 19.4112 16.625 19.25 16.625C19.0889 16.625 18.9584 16.4944 18.9584 16.3333C18.9584 16.1722 19.0889 16.0417 19.25 16.0417C19.4112 16.0417 19.5417 16.1722 19.5417 16.3333Z" stroke="black" stroke-width="1.75" stroke-linecap="round" stroke-linejoin="round"/>
</svg>
