<svg width="32" height="32" viewBox="0 0 32 32" fill="none" xmlns="http://www.w3.org/2000/svg">
<path d="M21.3333 2.66667V8.00001M10.6666 2.66667V8.00001" stroke="black" stroke-width="2" stroke-linecap="round" stroke-linejoin="round"/>
<path d="M17.3333 5.33333H14.6667C9.63835 5.33333 7.1242 5.33333 5.56209 6.89542C4 8.45753 4 10.9717 4 16V18.6667C4 23.6949 4 26.2092 5.56209 27.7712C7.1242 29.3333 9.63835 29.3333 14.6667 29.3333H17.3333C22.3616 29.3333 24.8759 29.3333 26.4379 27.7712C28 26.2092 28 23.6949 28 18.6667V16C28 10.9717 28 8.45753 26.4379 6.89542C24.8759 5.33333 22.3616 5.33333 17.3333 5.33333Z" stroke="black" stroke-width="2" stroke-linecap="round" stroke-linejoin="round"/>
<path d="M4 13.3333H28" stroke="black" stroke-width="2" stroke-linecap="round" stroke-linejoin="round"/>
<path d="M16.1677 18.6667H16.001M16.1677 24H16.001M10.1666 18.6667H9.99996M10.1666 24H9.99996M22.1666 18.6667H22M16.3344 18.6667C16.3344 18.8508 16.1852 19 16.001 19C15.817 19 15.6677 18.8508 15.6677 18.6667C15.6677 18.4825 15.817 18.3333 16.001 18.3333C16.1852 18.3333 16.3344 18.4825 16.3344 18.6667ZM16.3344 24C16.3344 24.1841 16.1852 24.3333 16.001 24.3333C15.817 24.3333 15.6677 24.1841 15.6677 24C15.6677 23.8159 15.817 23.6667 16.001 23.6667C16.1852 23.6667 16.3344 23.8159 16.3344 24ZM10.3333 18.6667C10.3333 18.8508 10.1841 19 9.99996 19C9.81587 19 9.66663 18.8508 9.66663 18.6667C9.66663 18.4825 9.81587 18.3333 9.99996 18.3333C10.1841 18.3333 10.3333 18.4825 10.3333 18.6667ZM10.3333 24C10.3333 24.1841 10.1841 24.3333 9.99996 24.3333C9.81587 24.3333 9.66663 24.1841 9.66663 24C9.66663 23.8159 9.81587 23.6667 9.99996 23.6667C10.1841 23.6667 10.3333 23.8159 10.3333 24ZM22.3333 18.6667C22.3333 18.8508 22.1841 19 22 19C21.8158 19 21.6666 18.8508 21.6666 18.6667C21.6666 18.4825 21.8158 18.3333 22 18.3333C22.1841 18.3333 22.3333 18.4825 22.3333 18.6667Z" stroke="black" stroke-width="2" stroke-linecap="round" stroke-linejoin="round"/>
</svg>
