<svg width="28" height="28" viewBox="0 0 28 28" fill="none" xmlns="http://www.w3.org/2000/svg">
<path d="M23.6251 17.2085V12.5418C23.6251 10.309 23.6224 8.75169 23.4645 7.5767C23.3109 6.43531 23.0302 5.83111 22.5997 5.4006C22.1691 4.97008 21.565 4.68931 20.4236 4.53584C19.2486 4.37788 17.6913 4.37521 15.4585 4.37521H12.5418C10.3089 4.37521 8.75158 4.37788 7.57658 4.53584C6.43518 4.68931 5.83099 4.97008 5.40048 5.4006C4.96997 5.83111 4.6892 6.43531 4.53573 7.5767C4.37775 8.75169 4.37508 10.309 4.37508 12.5418V17.2085C4.37508 17.8528 3.85276 18.3752 3.20842 18.3752C2.56409 18.3752 2.04175 17.8528 2.04175 17.2085V12.5418C2.04175 10.375 2.03917 8.63228 2.22291 7.26567C2.41116 5.86555 2.81446 4.68714 3.75074 3.75085C4.68703 2.81457 5.86544 2.41127 7.26555 2.22302C8.63216 2.03928 10.3748 2.04187 12.5418 2.04187H15.4585C17.6253 2.04187 19.368 2.03928 20.7346 2.22302C22.1347 2.41127 23.3132 2.81457 24.2494 3.75085C25.1857 4.68714 25.589 5.86555 25.7773 7.26567C25.961 8.63228 25.9585 10.375 25.9585 12.5418V17.2085C25.9585 17.8528 25.436 18.3752 24.7918 18.3752C24.1474 18.3752 23.6251 17.8528 23.6251 17.2085Z" fill="black"/>
<path d="M16.3699 6.7085C18.2489 6.70848 19.7365 6.7085 20.9124 6.84749C22.1151 6.98967 23.1056 7.28754 23.9327 7.9663C24.2131 8.19651 24.4704 8.45374 24.7006 8.73421C25.3793 9.56129 25.6773 10.5518 25.8194 11.7545C25.9585 12.9304 25.9585 14.418 25.9585 16.297V16.37C25.9585 18.249 25.9585 19.7365 25.8194 20.9124C25.6773 22.1152 25.3793 23.1057 24.7006 23.9328C24.4704 24.2132 24.2131 24.4705 23.9327 24.7007C23.1056 25.3794 22.1151 25.6773 20.9124 25.8195C19.7365 25.9585 18.2489 25.9585 16.3699 25.9585H11.6303C9.75126 25.9585 8.2637 25.9585 7.08781 25.8195C5.88506 25.6773 4.89454 25.3794 4.06747 24.7007C3.78699 24.4705 3.52976 24.2132 3.29957 23.9328C2.6208 23.1057 2.32293 22.1152 2.18074 20.9124C2.04175 19.7365 2.04175 18.249 2.04175 16.37V16.297C2.04175 14.418 2.04175 12.9304 2.18074 11.7545C2.32293 10.5518 2.6208 9.56129 3.29957 8.73421C3.52976 8.45374 3.78699 8.19651 4.06747 7.9663C4.89454 7.28754 5.88506 6.98967 7.08781 6.84749C8.2637 6.7085 9.75126 6.70848 11.6303 6.7085H16.3699ZM14.0001 11.0835C13.5599 11.0835 13.1935 11.2743 12.9827 11.4014C12.7399 11.5477 12.5039 11.7351 12.2911 11.9232C11.8631 12.3014 11.4154 12.7837 11.023 13.2357C10.6256 13.6934 10.2613 14.1477 9.99764 14.4856C9.86534 14.6551 9.63559 14.9586 9.56014 15.0586C9.17843 15.5773 9.28984 16.3081 9.80852 16.6901C10.3273 17.0718 11.058 16.9604 11.44 16.4417C11.5091 16.3503 11.7129 16.0795 11.8365 15.921C12.0849 15.6026 12.4712 15.1282 12.8335 14.7111V20.4168C12.8335 21.0611 13.3558 21.5834 14.0001 21.5834C14.6444 21.5834 15.1668 21.0611 15.1668 20.4168V14.7111C15.5289 15.1282 15.9152 15.6028 16.1637 15.921C16.2873 16.0795 16.4911 16.3491 16.5601 16.4405C16.9422 16.9594 17.6728 17.071 18.1916 16.6889C18.7102 16.307 18.8217 15.5773 18.44 15.0586C18.3646 14.9588 18.1348 14.6551 18.0025 14.4856C17.7389 14.1477 17.3746 13.6934 16.9771 13.2357C16.5848 12.7837 16.137 12.3014 15.7091 11.9232C15.4964 11.7353 15.2602 11.5477 15.0175 11.4014C14.8068 11.2743 14.4402 11.0835 14.0001 11.0835Z" fill="black"/>
</svg>
