<svg width="16" height="16" viewBox="0 0 16 16" fill="none" xmlns="http://www.w3.org/2000/svg">
<path d="M9.33333 14.3334H6.66663C4.47497 14.3334 3.37915 14.3334 2.64158 13.728C2.50655 13.6172 2.38275 13.4934 2.27193 13.3584C1.66663 12.6208 1.66663 11.525 1.66663 9.33337C1.66663 7.14171 1.66663 6.04589 2.27193 5.30833C2.38275 5.1733 2.50655 5.04949 2.64158 4.93868C3.37915 4.33337 4.47497 4.33337 6.66663 4.33337H9.33333C11.5249 4.33337 12.6208 4.33337 13.3583 4.93868C13.4934 5.04949 13.6172 5.1733 13.728 5.30833C14.3333 6.04589 14.3333 7.14171 14.3333 9.33337C14.3333 11.525 14.3333 12.6208 13.728 13.3584C13.6172 13.4934 13.4934 13.6172 13.3583 13.728C12.6208 14.3334 11.5249 14.3334 9.33333 14.3334Z" stroke="black" stroke-linecap="round" stroke-linejoin="round"/>
<path d="M1.66663 9.66663V6.99996C1.66663 4.4858 1.66663 3.22873 2.44768 2.44767C3.22873 1.66663 4.48581 1.66663 6.99999 1.66663H8.99999C11.5141 1.66663 12.7712 1.66663 13.5523 2.44767C14.3333 3.22873 14.3333 4.4858 14.3333 6.99996V9.66663" stroke="black" stroke-linecap="round" stroke-linejoin="round"/>
<path d="M10 9C10 9 8.52703 7 7.99997 7C7.47297 7 6 9 6 9M7.99997 7.33333L8.00003 11.6667" stroke="black" stroke-linecap="round" stroke-linejoin="round"/>
</svg>
