<svg width="28" height="28" viewBox="0 0 28 28" fill="none" xmlns="http://www.w3.org/2000/svg">
<path opacity="0.4" d="M25.9585 16.3694V16.3335V16.2976C25.9585 14.4183 25.9585 12.9305 25.8194 11.7545C25.6773 10.5518 25.3793 9.56129 24.7006 8.73421C24.4704 8.45374 24.2131 8.19651 23.9327 7.9663C23.1056 7.28754 22.1151 6.98967 20.9124 6.84749C19.7364 6.70848 18.2487 6.70848 16.3693 6.7085H16.3335H11.6668H11.6308C9.75155 6.70848 8.26381 6.70848 7.08781 6.84749C5.88506 6.98967 4.89454 7.28754 4.06747 7.9663C3.78699 8.19651 3.52976 8.45374 3.29957 8.73421C2.6208 9.56129 2.32293 10.5518 2.18074 11.7545C2.04174 12.9305 2.04175 14.4183 2.04175 16.2976V16.3335V16.3694C2.04175 18.2486 2.04174 19.7364 2.18074 20.9124C2.32293 22.1152 2.6208 23.1057 3.29957 23.9328C3.52976 24.2132 3.78699 24.4705 4.06747 24.7007C4.89454 25.3794 5.88506 25.6773 7.08781 25.8195C8.26381 25.9585 9.75154 25.9585 11.6308 25.9585H11.6668H16.3335H16.3693C18.2487 25.9585 19.7364 25.9585 20.9124 25.8195C22.1151 25.6773 23.1056 25.3794 23.9327 24.7007C24.2131 24.4705 24.4704 24.2132 24.7006 23.9328C25.3793 23.1057 25.6773 22.1152 25.8194 20.9124C25.9585 19.7364 25.9585 18.2486 25.9585 16.3694Z" fill="black"/>
<path d="M14 21.5834C13.3558 21.5834 12.8333 21.0611 12.8333 20.4168V14.7111C12.4712 15.1282 12.0849 15.6026 11.8365 15.921C11.7129 16.0795 11.5091 16.3502 11.44 16.4417C11.058 16.9604 10.3273 17.0718 9.80847 16.6901C9.28981 16.3081 9.17839 15.5773 9.5601 15.0586C9.63554 14.9588 9.8653 14.6551 9.9976 14.4856C10.2612 14.1477 10.6256 13.6934 11.023 13.2357C11.4154 12.7837 11.8631 12.3014 12.2911 11.9232C12.5037 11.7351 12.7399 11.5477 12.9827 11.4014C13.1934 11.2743 13.5599 11.0835 14 11.0835C14.4402 11.0835 14.8067 11.2743 15.0174 11.4014C15.2602 11.5477 15.4962 11.7351 15.709 11.9232C16.137 12.3014 16.5847 12.7837 16.9771 13.2357C17.3745 13.6934 17.7388 14.1477 18.0025 14.4856C18.1348 14.6551 18.3645 14.9588 18.44 15.0586C18.8217 15.5773 18.7102 16.307 18.1916 16.6889C17.6728 17.071 16.9422 16.9594 16.5601 16.4405C16.4911 16.3491 16.2872 16.0795 16.1636 15.921C15.9152 15.6026 15.5289 15.1282 15.1667 14.7111V20.4168C15.1667 21.0611 14.6443 21.5834 14 21.5834Z" fill="black"/>
<path d="M16.3699 2.04187C18.2489 2.04186 19.7365 2.04187 20.9124 2.18087C22.1151 2.32305 23.1056 2.62091 23.9327 3.29968C24.2131 3.52988 24.4704 3.78711 24.7006 4.06759C25.3793 4.89466 25.6773 5.88519 25.8194 7.08792C25.9585 8.26382 25.9585 9.75138 25.9585 11.6304V11.7033C25.9585 12.5451 25.9561 13.3083 25.9436 14.0002C25.9282 13.1478 25.8962 12.4037 25.8194 11.7546C25.6773 10.5519 25.3793 9.56133 24.7006 8.73426C24.4704 8.45378 24.2131 8.19655 23.9327 7.96634C23.1056 7.28758 22.1151 6.98972 20.9124 6.84753C19.7365 6.70854 18.2489 6.70853 16.3699 6.70854H11.6303C9.75126 6.70853 8.2637 6.70854 7.08781 6.84753C5.88506 6.98972 4.89454 7.28758 4.06747 7.96634C3.78699 8.19655 3.52976 8.45378 3.29957 8.73426C2.6208 9.56133 2.32293 10.5519 2.18074 11.7546C2.10402 12.4037 2.07082 13.1478 2.05542 14.0002C2.04293 13.3083 2.04175 12.5451 2.04175 11.7033V11.6304C2.04175 9.75138 2.04175 8.26382 2.18074 7.08792C2.32293 5.88519 2.6208 4.89466 3.29957 4.06759C3.52976 3.78711 3.78699 3.52988 4.06747 3.29968C4.89454 2.62091 5.88506 2.32305 7.08781 2.18087C8.2637 2.04187 9.75126 2.04186 11.6303 2.04187H16.3699Z" fill="black"/>
</svg>
