<svg width="20" height="20" viewBox="0 0 20 20" fill="none" xmlns="http://www.w3.org/2000/svg">
<path d="M16.8751 12.2918V8.95846C16.8751 7.36359 16.8732 6.25122 16.7603 5.41195C16.6507 4.59666 16.4502 4.1651 16.1427 3.85759C15.8351 3.55007 15.4036 3.34952 14.5882 3.23991C13.749 3.12707 12.6367 3.12516 11.0417 3.12516H8.95841C7.36347 3.12516 6.25111 3.12707 5.41183 3.23991C4.59654 3.34952 4.16498 3.55007 3.85747 3.85759C3.54996 4.1651 3.34941 4.59666 3.23979 5.41195C3.12695 6.25122 3.12504 7.36359 3.12504 8.95846V12.2918C3.12504 12.752 2.75195 13.1251 2.29171 13.1251C1.83148 13.1251 1.45838 12.752 1.45838 12.2918V8.95846C1.45838 7.41071 1.45653 6.16593 1.58778 5.18978C1.72224 4.1897 2.01031 3.34797 2.67908 2.6792C3.34786 2.01042 4.18958 1.72236 5.18966 1.58789C6.16581 1.45665 7.41058 1.4585 8.95841 1.4585H11.0417C12.5895 1.4585 13.8342 1.45665 14.8104 1.58789C15.8105 1.72236 16.6522 2.01042 17.321 2.6792C17.9897 3.34797 18.2778 4.1897 18.4123 5.18978C18.5436 6.16593 18.5417 7.41071 18.5417 8.95846V12.2918C18.5417 12.752 18.1686 13.1251 17.7084 13.1251C17.2482 13.1251 16.8751 12.752 16.8751 12.2918Z" fill="black"/>
<path d="M11.6927 4.79175C13.0349 4.79174 14.0975 4.79175 14.9374 4.89103C15.7965 4.99259 16.504 5.20535 17.0947 5.69018C17.2951 5.85461 17.4788 6.03835 17.6432 6.23869C18.1281 6.82946 18.3409 7.53697 18.4424 8.39605C18.5417 9.23596 18.5417 10.2985 18.5417 11.6407V11.6928C18.5417 13.035 18.5417 14.0975 18.4424 14.9374C18.3409 15.7965 18.1281 16.504 17.6432 17.0948C17.4788 17.2951 17.2951 17.4789 17.0947 17.6433C16.504 18.1281 15.7965 18.3409 14.9374 18.4425C14.0975 18.5417 13.0349 18.5417 11.6927 18.5417H8.30733C6.96517 18.5417 5.90262 18.5417 5.06271 18.4425C4.2036 18.3409 3.49608 18.1281 2.90532 17.6433C2.70497 17.4789 2.52124 17.2951 2.35682 17.0948C1.87198 16.504 1.65922 15.7965 1.55766 14.9374C1.45837 14.0975 1.45837 13.035 1.45837 11.6928V11.6407C1.45837 10.2985 1.45837 9.23596 1.55766 8.39605C1.65922 7.53697 1.87198 6.82946 2.35682 6.23869C2.52124 6.03835 2.70497 5.85461 2.90532 5.69018C3.49608 5.20535 4.2036 4.99259 5.06271 4.89103C5.90262 4.79175 6.96517 4.79174 8.30733 4.79175H11.6927ZM10.0001 7.91675C9.68566 7.91674 9.42391 8.05304 9.27332 8.1438C9.09991 8.24834 8.93132 8.38221 8.77932 8.51655C8.47366 8.78671 8.15384 9.13121 7.87357 9.45405C7.58972 9.78096 7.32946 10.1055 7.14116 10.3468C7.04666 10.4679 6.88255 10.6847 6.82866 10.7561C6.55601 11.1266 6.63558 11.6486 7.00607 11.9215C7.37662 12.1941 7.89858 12.1145 8.17143 11.744C8.22078 11.6787 8.36632 11.4853 8.45466 11.3721C8.63207 11.1447 8.90799 10.8058 9.16674 10.5079V14.5834C9.16674 15.0436 9.53982 15.4167 10.0001 15.4167C10.4602 15.4167 10.8334 15.0436 10.8334 14.5834V10.5079C11.0921 10.8058 11.368 11.1448 11.5455 11.3721C11.6337 11.4853 11.7793 11.6779 11.8287 11.7432C12.1016 12.1138 12.6234 12.1935 12.994 11.9206C13.3644 11.6478 13.4441 11.1266 13.1714 10.7561C13.1176 10.6848 12.9534 10.4679 12.8589 10.3468C12.6707 10.1055 12.4104 9.78096 12.1265 9.45405C11.8462 9.13121 11.5264 8.78671 11.2207 8.51655C11.0688 8.3823 10.9002 8.24834 10.7267 8.1438C10.5762 8.05305 10.3144 7.91676 10.0001 7.91675Z" fill="black"/>
</svg>
