<svg width="24" height="24" viewBox="0 0 24 24" fill="none" xmlns="http://www.w3.org/2000/svg">
<path d="M20.25 14.7501V10.7501C20.25 8.83623 20.2477 7.50139 20.1123 6.49426C19.9807 5.51592 19.7401 4.99804 19.3711 4.62903C19.002 4.26001 18.4842 4.01935 17.5058 3.88781C16.4987 3.75241 15.1639 3.75012 13.25 3.75012H10.75C8.83611 3.75012 7.50128 3.75241 6.49414 3.88781C5.5158 4.01935 4.99792 4.26001 4.62891 4.62903C4.2599 4.99804 4.01924 5.51592 3.8877 6.49426C3.75229 7.50139 3.75 8.83623 3.75 10.7501V14.7501C3.75 15.3024 3.30229 15.7501 2.75 15.7501C2.19772 15.7501 1.75 15.3024 1.75 14.7501V10.7501C1.75 8.89277 1.74779 7.39904 1.90528 6.22766C2.06664 5.02756 2.41232 4.01749 3.21485 3.21496C4.01738 2.41243 5.02745 2.06675 6.22754 1.90539C7.39892 1.7479 8.89265 1.75012 10.75 1.75012H13.25C15.1073 1.75012 16.601 1.7479 17.7724 1.90539C18.9725 2.06675 19.9826 2.41243 20.7851 3.21496C21.5876 4.01749 21.9333 5.02756 22.0947 6.22766C22.2522 7.39904 22.25 8.89277 22.25 10.7501V14.7501C22.25 15.3024 21.8022 15.7501 21.25 15.7501C20.6977 15.7501 20.25 15.3024 20.25 14.7501Z" fill="black"/>
<path d="M14.0312 5.75012C15.6418 5.75011 16.9169 5.75012 17.9248 5.86926C18.9557 5.99113 19.8047 6.24644 20.5136 6.82824C20.754 7.02556 20.9745 7.24604 21.1718 7.48645C21.7536 8.19537 22.009 9.04439 22.1308 10.0753C22.25 11.0832 22.25 12.3583 22.25 13.9689V14.0314C22.25 15.642 22.25 16.917 22.1308 17.9249C22.009 18.9559 21.7536 19.8049 21.1718 20.5138C20.9745 20.7542 20.754 20.9747 20.5136 21.172C19.8047 21.7538 18.9557 22.0091 17.9248 22.131C16.9169 22.2501 15.6418 22.2501 14.0312 22.2501H9.96875C8.35815 22.2501 7.0831 22.2501 6.0752 22.131C5.04427 22.0091 4.19525 21.7538 3.48633 21.172C3.24592 20.9747 3.02544 20.7542 2.82813 20.5138C2.24633 19.8049 1.99101 18.9559 1.86914 17.9249C1.75 16.917 1.75 15.642 1.75 14.0314V13.9689C1.75 12.3583 1.75 11.0832 1.86914 10.0753C1.99101 9.04439 2.24633 8.19537 2.82813 7.48645C3.02544 7.24604 3.24592 7.02556 3.48633 6.82824C4.19525 6.24644 5.04427 5.99113 6.0752 5.86926C7.0831 5.75012 8.35815 5.75011 9.96875 5.75012H14.0312ZM12 9.50012C11.6227 9.50011 11.3086 9.66367 11.1279 9.77258C10.9198 9.89803 10.7175 10.0587 10.5351 10.2199C10.1683 10.5441 9.78456 10.9575 9.44824 11.3449C9.10761 11.7372 8.7953 12.1266 8.56934 12.4162C8.45594 12.5615 8.25901 12.8217 8.19434 12.9074C7.86716 13.352 7.96265 13.9784 8.40723 14.3058C8.8519 14.633 9.47825 14.5375 9.80567 14.0929C9.86489 14.0145 10.0395 13.7824 10.1455 13.6466C10.3584 13.3737 10.6895 12.967 11 12.6095V17.5001C11 18.0524 11.4477 18.5001 12 18.5001C12.5522 18.5001 13 18.0524 13 17.5001V12.6095C13.3104 12.967 13.6415 13.3738 13.8545 13.6466C13.9604 13.7824 14.1351 14.0135 14.1943 14.0919C14.5218 14.5366 15.148 14.6323 15.5927 14.3048C16.0372 13.9774 16.1328 13.352 15.8056 12.9074C15.741 12.8218 15.544 12.5615 15.4306 12.4162C15.2047 12.1266 14.8924 11.7372 14.5517 11.3449C14.2154 10.9575 13.8316 10.5441 13.4648 10.2199C13.2825 10.0588 13.0801 9.89803 12.872 9.77258C12.6914 9.66368 12.3772 9.50013 12 9.50012Z" fill="black"/>
</svg>
