<svg width="32" height="32" viewBox="0 0 32 32" fill="none" xmlns="http://www.w3.org/2000/svg">
<path d="M27.0001 19.6668V14.3334C27.0001 11.7816 26.997 10.0019 26.8165 8.65902C26.641 7.35457 26.3202 6.66406 25.8282 6.17204C25.3361 5.68002 24.6457 5.35914 23.3412 5.18375C21.9984 5.00322 20.2186 5.00016 17.6668 5.00016H14.3334C11.7815 5.00016 10.0018 5.00322 8.6589 5.18375C7.35444 5.35914 6.66394 5.68002 6.17192 6.17204C5.67991 6.66406 5.35903 7.35457 5.18364 8.65902C5.0031 10.0019 5.00004 11.7816 5.00004 14.3334V19.6668C5.00004 20.4032 4.4031 21.0001 3.66671 21.0001C2.93034 21.0001 2.33338 20.4032 2.33338 19.6668V14.3334C2.33338 11.857 2.33043 9.86539 2.54042 8.30355C2.75556 6.70342 3.21647 5.35666 4.28651 4.28662C5.35655 3.21658 6.70331 2.75567 8.30343 2.54053C9.86527 2.33054 11.8569 2.3335 14.3334 2.3335H17.6668C20.1432 2.3335 22.1348 2.33054 23.6966 2.54053C25.2968 2.75567 26.6436 3.21658 27.7136 4.28662C28.7836 5.35666 29.2445 6.70342 29.4597 8.30355C29.6697 9.86539 29.6668 11.857 29.6668 14.3334V19.6668C29.6668 20.4032 29.0697 21.0001 28.3334 21.0001C27.597 21.0001 27.0001 20.4032 27.0001 19.6668Z" fill="black"/>
<path d="M18.7084 7.66687C20.8558 7.66686 22.556 7.66687 23.8998 7.82572C25.2744 7.98822 26.4064 8.32863 27.3516 9.10436C27.6721 9.36746 27.9661 9.66143 28.2292 9.98198C29.0049 10.9272 29.3454 12.0592 29.5078 13.4338C29.6668 14.7776 29.6668 16.4777 29.6668 18.6252V18.7085C29.6668 20.856 29.6668 22.556 29.5078 23.8999C29.3454 25.2746 29.0049 26.4065 28.2292 27.3517C27.9661 27.6723 27.6721 27.9663 27.3516 28.2294C26.4064 29.0051 25.2744 29.3455 23.8998 29.508C22.556 29.6668 20.8558 29.6668 18.7084 29.6668H13.2917C11.1442 29.6668 9.44417 29.6668 8.10031 29.508C6.72573 29.3455 5.59371 29.0051 4.64848 28.2294C4.32793 27.9663 4.03396 27.6723 3.77088 27.3517C2.99515 26.4065 2.65472 25.2746 2.49223 23.8999C2.33337 22.556 2.33337 20.856 2.33337 18.7085V18.6252C2.33337 16.4777 2.33337 14.7776 2.49223 13.4338C2.65472 12.0592 2.99515 10.9272 3.77088 9.98198C4.03396 9.66143 4.32793 9.36746 4.64848 9.10436C5.59371 8.32863 6.72573 7.98822 8.10031 7.82572C9.44417 7.66687 11.1442 7.66686 13.2917 7.66687H18.7084ZM16.0001 12.6669C15.497 12.6669 15.0782 12.8849 14.8373 13.0302C14.5598 13.1974 14.2901 13.4116 14.0469 13.6266C13.5578 14.0588 13.0461 14.61 12.5977 15.1266C12.1435 15.6496 11.7271 16.1688 11.4258 16.5549C11.2746 16.7487 11.0121 17.0956 10.9258 17.2099C10.4896 17.8027 10.6169 18.6379 11.2097 19.0744C11.8026 19.5107 12.6377 19.3834 13.0743 18.7906C13.1532 18.686 13.3861 18.3765 13.5274 18.1955C13.8113 17.8316 14.2528 17.2894 14.6668 16.8127V23.3335C14.6668 24.0699 15.2637 24.6668 16.0001 24.6668C16.7364 24.6668 17.3334 24.0699 17.3334 23.3335V16.8127C17.7473 17.2894 18.1888 17.8317 18.4728 18.1955C18.614 18.3765 18.8469 18.6847 18.9258 18.7892C19.3625 19.3821 20.1974 19.5098 20.7904 19.0731C21.383 18.6365 21.5105 17.8027 21.0742 17.2099C20.9881 17.0957 20.7254 16.7487 20.5742 16.5549C20.273 16.1688 19.8566 15.6496 19.4024 15.1266C18.954 14.61 18.4422 14.0588 17.9532 13.6266C17.7101 13.4118 17.4402 13.1974 17.1628 13.0302C16.922 12.885 16.503 12.6669 16.0001 12.6669Z" fill="black"/>
</svg>
