<svg width="16" height="16" viewBox="0 0 16 16" fill="none" xmlns="http://www.w3.org/2000/svg">
<path opacity="0.4" d="M14.8334 9.35388V9.33335V9.31288C14.8334 8.23895 14.8334 7.38881 14.754 6.71681C14.6728 6.02955 14.5025 5.46354 14.1146 4.99093C13.9831 4.83065 13.8361 4.68367 13.6758 4.55212C13.2032 4.16425 12.6372 3.99405 11.95 3.9128C11.278 3.83337 10.4278 3.83337 9.35391 3.83337H9.33344H6.66677H6.64623C5.57235 3.83337 4.72221 3.83337 4.05021 3.9128C3.36293 3.99405 2.79691 4.16425 2.3243 4.55212C2.16403 4.68367 2.01704 4.83065 1.8855 4.99093C1.49763 5.46354 1.32742 6.02955 1.24617 6.71681C1.16674 7.38881 1.16675 8.23895 1.16675 9.31288V9.33335V9.35388C1.16675 10.4277 1.16674 11.2779 1.24617 11.9499C1.32742 12.6372 1.49763 13.2032 1.8855 13.6758C2.01704 13.8361 2.16403 13.9831 2.3243 14.1146C2.79691 14.5025 3.36293 14.6727 4.05021 14.7539C4.72221 14.8333 5.57234 14.8333 6.64622 14.8333H6.66677H9.33344H9.35391C10.4278 14.8333 11.278 14.8333 11.95 14.7539C12.6372 14.6727 13.2032 14.5025 13.6758 14.1146C13.8361 13.9831 13.9831 13.8361 14.1146 13.6758C14.5025 13.2032 14.6728 12.6372 14.754 11.9499C14.8334 11.2779 14.8334 10.4277 14.8334 9.35388Z" fill="black"/>
<path d="M7.99996 12.3333C7.63183 12.3333 7.33329 12.0349 7.33329 11.6667V8.40628C7.12636 8.64461 6.90563 8.91575 6.76369 9.09768C6.69303 9.18821 6.57658 9.34295 6.5371 9.39521C6.31882 9.69161 5.90126 9.75528 5.60481 9.53715C5.30843 9.31888 5.24476 8.90128 5.46288 8.60488C5.50599 8.54781 5.63728 8.37428 5.71288 8.27741C5.86353 8.08435 6.07173 7.82475 6.29882 7.56321C6.52303 7.30495 6.77889 7.02935 7.02343 6.81321C7.14496 6.70575 7.27989 6.59865 7.41863 6.51501C7.53903 6.44241 7.74849 6.33337 7.99996 6.33337C8.25149 6.33337 8.46096 6.44241 8.58136 6.51501C8.72009 6.59865 8.85496 6.70575 8.97656 6.81321C9.22109 7.02935 9.47696 7.30495 9.70116 7.56321C9.92823 7.82475 10.1364 8.08435 10.2871 8.27741C10.3627 8.37428 10.494 8.54781 10.5371 8.60488C10.7552 8.90128 10.6915 9.31821 10.3952 9.53648C10.0987 9.75481 9.68123 9.69101 9.46289 9.39455C9.42343 9.34228 9.30696 9.18821 9.23629 9.09768C9.09436 8.91575 8.87363 8.64461 8.66663 8.40628V11.6667C8.66663 12.0349 8.36816 12.3333 7.99996 12.3333Z" fill="black"/>
<path d="M9.35424 1.16675C10.428 1.16674 11.278 1.16675 11.95 1.24617C12.6372 1.32742 13.2032 1.49763 13.6758 1.88549C13.8361 2.01704 13.9831 2.16403 14.1146 2.3243C14.5025 2.79691 14.6728 3.36293 14.754 4.05021C14.8334 4.72215 14.8334 5.57218 14.8334 6.64592V6.68759C14.8334 7.16859 14.8321 7.60472 14.825 8.00005C14.8162 7.51299 14.7978 7.08779 14.754 6.71686C14.6728 6.02959 14.5025 5.46358 14.1146 4.99097C13.9831 4.8307 13.8361 4.68371 13.6758 4.55216C13.2032 4.16429 12.6372 3.99409 11.95 3.91284C11.278 3.83341 10.428 3.83341 9.35424 3.83342H6.64592C5.57218 3.83341 4.72215 3.83341 4.05021 3.91284C3.36293 3.99409 2.79691 4.16429 2.3243 4.55216C2.16403 4.68371 2.01704 4.8307 1.8855 4.99097C1.49763 5.46358 1.32742 6.02959 1.24617 6.71686C1.20233 7.08779 1.18336 7.51299 1.17456 8.00005C1.16742 7.60472 1.16675 7.16859 1.16675 6.68759V6.64592C1.16675 5.57218 1.16675 4.72215 1.24617 4.05021C1.32742 3.36293 1.49763 2.79691 1.8855 2.3243C2.01704 2.16403 2.16403 2.01704 2.3243 1.88549C2.79691 1.49763 3.36293 1.32742 4.05021 1.24617C4.72215 1.16675 5.57218 1.16674 6.64592 1.16675H9.35424Z" fill="black"/>
</svg>
