<svg width="28" height="28" viewBox="0 0 28 28" fill="none" xmlns="http://www.w3.org/2000/svg">
<path opacity="0.4" d="M16.3332 7.58329H11.6666C7.83123 7.58329 5.91354 7.58329 4.62279 8.64258C4.3865 8.8365 4.16982 9.05316 3.97591 9.28946C2.91663 10.5802 2.91663 12.4979 2.91663 16.3333V12.25C2.91663 7.85018 2.91663 5.6503 4.28346 4.28346C5.65029 2.91663 7.85018 2.91663 12.2499 2.91663H15.7499C20.1498 2.91663 22.3496 2.91663 23.7165 4.28346C25.0832 5.6503 25.0832 7.85018 25.0832 12.25V16.3333C25.0832 12.4979 25.0832 10.5802 24.024 9.28946C23.8301 9.05316 23.6134 8.8365 23.3771 8.64258C22.0864 7.58329 20.1687 7.58329 16.3332 7.58329Z" fill="black"/>
<path d="M16.3332 25.0834H11.6666C7.83123 25.0834 5.91354 25.0834 4.62279 24.024C4.3865 23.8301 4.16982 23.6135 3.97591 23.3772C2.91663 22.0864 2.91663 20.1688 2.91663 16.3334C2.91663 12.498 2.91663 10.5803 3.97591 9.28954C4.16982 9.05325 4.3865 8.83658 4.62279 8.64266C5.91354 7.58337 7.83123 7.58337 11.6666 7.58337H16.3332C20.1687 7.58337 22.0864 7.58337 23.3771 8.64266C23.6134 8.83658 23.8301 9.05325 24.024 9.28954C25.0832 10.5803 25.0832 12.498 25.0832 16.3334C25.0832 20.1688 25.0832 22.0864 24.024 23.3772C23.8301 23.6135 23.6134 23.8301 23.3771 24.024C22.0864 25.0834 20.1687 25.0834 16.3332 25.0834Z" stroke="black" stroke-width="1.75" stroke-linecap="round" stroke-linejoin="round"/>
<path d="M2.91663 16.9166V12.25C2.91663 7.85018 2.91663 5.6503 4.28346 4.28346C5.65029 2.91663 7.85018 2.91663 12.2499 2.91663H15.7499C20.1498 2.91663 22.3496 2.91663 23.7165 4.28346C25.0832 5.6503 25.0832 7.85018 25.0832 12.25V16.9166" stroke="black" stroke-width="1.75" stroke-linecap="round" stroke-linejoin="round"/>
<path d="M17.4998 15.75C17.4998 15.75 14.9222 12.25 13.9998 12.25C13.0776 12.25 10.4999 15.75 10.4999 15.75M13.9998 12.8333V20.4167" stroke="black" stroke-width="1.75" stroke-linecap="round" stroke-linejoin="round"/>
</svg>
