<svg width="24" height="24" viewBox="0 0 24 24" fill="none" xmlns="http://www.w3.org/2000/svg">
<path opacity="0.4" d="M22.25 14.0309V14.0001V13.9694C22.25 12.3585 22.25 11.0833 22.1308 10.0753C22.009 9.04439 21.7536 8.19537 21.1718 7.48645C20.9745 7.24604 20.754 7.02556 20.5136 6.82824C19.8047 6.24644 18.9557 5.99113 17.9248 5.86926C16.9168 5.75011 15.6416 5.75011 14.0307 5.75012H14H10H9.96922C8.3584 5.75011 7.0832 5.75011 6.0752 5.86926C5.04427 5.99113 4.19525 6.24644 3.48633 6.82824C3.24592 7.02556 3.02544 7.24604 2.82813 7.48645C2.24633 8.19537 1.99101 9.04439 1.86914 10.0753C1.74999 11.0833 1.75 12.3585 1.75 13.9694V14.0001V14.0309C1.75 15.6417 1.74999 16.9169 1.86914 17.9249C1.99101 18.9559 2.24633 19.8049 2.82813 20.5138C3.02544 20.7542 3.24592 20.9747 3.48633 21.172C4.19525 21.7538 5.04427 22.0091 6.0752 22.131C7.0832 22.2501 8.35839 22.2501 9.96921 22.2501H10H14H14.0307C15.6416 22.2501 16.9168 22.2501 17.9248 22.131C18.9557 22.0091 19.8047 21.7538 20.5136 21.172C20.754 20.9747 20.9745 20.7542 21.1718 20.5138C21.7536 19.8049 22.009 18.9559 22.1308 17.9249C22.25 16.9169 22.25 15.6417 22.25 14.0309Z" fill="black"/>
<path d="M11.9999 18.5001C11.4477 18.5001 10.9999 18.0524 10.9999 17.5001V12.6095C10.6895 12.967 10.3584 13.3737 10.1455 13.6466C10.0395 13.7824 9.86487 14.0145 9.80565 14.0929C9.47823 14.5375 8.85189 14.633 8.40721 14.3058C7.96264 13.9784 7.86714 13.352 8.19432 12.9074C8.25898 12.8218 8.45592 12.5615 8.56932 12.4162C8.79529 12.1266 9.10759 11.7372 9.44823 11.3449C9.78454 10.9575 10.1683 10.5441 10.5351 10.2199C10.7174 10.0587 10.9198 9.89803 11.1279 9.77258C11.3085 9.66367 11.6227 9.50011 11.9999 9.50012C12.3772 9.50012 12.6914 9.66368 12.872 9.77258C13.0801 9.89803 13.2824 10.0587 13.4648 10.2199C13.8316 10.5441 14.2154 10.9575 14.5517 11.3449C14.8923 11.7372 15.2046 12.1266 15.4306 12.4162C15.544 12.5615 15.7409 12.8218 15.8056 12.9074C16.1328 13.352 16.0372 13.9774 15.5927 14.3048C15.148 14.6323 14.5218 14.5366 14.1943 14.0919C14.1351 14.0135 13.9604 13.7824 13.8544 13.6466C13.6415 13.3737 13.3104 12.967 12.9999 12.6095V17.5001C12.9999 18.0524 12.5522 18.5001 11.9999 18.5001Z" fill="black"/>
<path d="M14.0312 1.75012C15.6418 1.75011 16.9169 1.75012 17.9248 1.86926C18.9557 1.99113 19.8047 2.24644 20.5136 2.82824C20.754 3.02556 20.9745 3.24604 21.1718 3.48645C21.7536 4.19537 22.009 5.04439 22.1308 6.07531C22.25 7.08322 22.25 8.35827 22.25 9.96887V10.0314C22.25 10.7529 22.248 11.4071 22.2373 12.0001C22.2241 11.2695 22.1966 10.6317 22.1308 10.0753C22.009 9.04439 21.7536 8.19537 21.1718 7.48645C20.9745 7.24604 20.754 7.02556 20.5136 6.82824C19.8047 6.24644 18.9557 5.99113 17.9248 5.86926C16.9169 5.75012 15.6418 5.75011 14.0312 5.75012H9.96875C8.35815 5.75011 7.0831 5.75012 6.0752 5.86926C5.04427 5.99113 4.19525 6.24644 3.48633 6.82824C3.24592 7.02556 3.02544 7.24604 2.82813 7.48645C2.24633 8.19537 1.99101 9.04439 1.86914 10.0753C1.80338 10.6317 1.77492 11.2695 1.76172 12.0001C1.75101 11.4071 1.75 10.7529 1.75 10.0314V9.96887C1.75 8.35827 1.75 7.08322 1.86914 6.07531C1.99101 5.04439 2.24633 4.19537 2.82813 3.48645C3.02544 3.24604 3.24592 3.02556 3.48633 2.82824C4.19525 2.24644 5.04427 1.99113 6.0752 1.86926C7.0831 1.75012 8.35815 1.75011 9.96875 1.75012H14.0312Z" fill="black"/>
</svg>
