<svg width="20" height="20" viewBox="0 0 20 20" fill="none" xmlns="http://www.w3.org/2000/svg">
<path d="M11.6666 17.9166H8.33325C5.59369 17.9166 4.2239 17.9166 3.30194 17.16C3.13316 17.0215 2.97839 16.8667 2.83989 16.698C2.08325 15.776 2.08325 14.4062 2.08325 11.6666C2.08325 8.92704 2.08325 7.55728 2.83989 6.63532C2.97839 6.46653 3.13316 6.31178 3.30194 6.17326C4.2239 5.41663 5.59369 5.41663 8.33325 5.41663H11.6666C14.4061 5.41663 15.776 5.41663 16.6979 6.17326C16.8666 6.31178 17.0215 6.46653 17.16 6.63532C17.9166 7.55728 17.9166 8.92704 17.9166 11.6666C17.9166 14.4062 17.9166 15.776 17.16 16.698C17.0215 16.8667 16.8666 17.0215 16.6979 17.16C15.776 17.9166 14.4061 17.9166 11.6666 17.9166Z" stroke="black" stroke-width="1.25" stroke-linecap="round" stroke-linejoin="round"/>
<path d="M2.08325 12.0834V8.75004C2.08325 5.60734 2.08325 4.036 3.05956 3.05968C4.03587 2.08337 5.60722 2.08337 8.74989 2.08337H11.2499C14.3926 2.08337 15.964 2.08337 16.9403 3.05968C17.9166 4.036 17.9166 5.60734 17.9166 8.75004V12.0834" stroke="black" stroke-width="1.25" stroke-linecap="round" stroke-linejoin="round"/>
<path opacity="0.4" d="M12.5 11.25C12.5 11.25 10.6588 8.75 9.99997 8.75C9.34122 8.75 7.5 11.25 7.5 11.25M9.99997 9.16667V14.5833" stroke="black" stroke-width="1.25" stroke-linecap="round" stroke-linejoin="round"/>
</svg>
