<svg width="32" height="32" viewBox="0 0 32 32" fill="none" xmlns="http://www.w3.org/2000/svg">
<path opacity="0.4" d="M29.6668 18.7079V18.6668V18.6259C29.6668 16.478 29.6668 14.7778 29.5078 13.4338C29.3454 12.0592 29.0049 10.9272 28.2292 9.98198C27.9661 9.66143 27.6721 9.36746 27.3516 9.10436C26.4064 8.32863 25.2744 7.98822 23.8998 7.82572C22.5558 7.66686 20.8556 7.66686 18.7077 7.66687H18.6668H13.3334H13.2923C11.1446 7.66686 9.44431 7.66686 8.10031 7.82572C6.72573 7.98822 5.59371 8.32863 4.64848 9.10436C4.32793 9.36746 4.03396 9.66143 3.77088 9.98198C2.99515 10.9272 2.65472 12.0592 2.49223 13.4338C2.33336 14.7778 2.33337 16.478 2.33337 18.6259V18.6668V18.7079C2.33337 20.8556 2.33336 22.5559 2.49223 23.8999C2.65472 25.2746 2.99515 26.4065 3.77088 27.3517C4.03396 27.6723 4.32793 27.9663 4.64848 28.2294C5.59371 29.0051 6.72573 29.3455 8.10031 29.508C9.44431 29.6668 11.1446 29.6668 13.2923 29.6668H13.3334H18.6668H18.7077C20.8556 29.6668 22.5558 29.6668 23.8998 29.508C25.2744 29.3455 26.4064 29.0051 27.3516 28.2294C27.6721 27.9663 27.9661 27.6723 28.2292 27.3517C29.0049 26.4065 29.3454 25.2746 29.5078 23.8999C29.6668 22.5559 29.6668 20.8556 29.6668 18.7079Z" fill="black"/>
<path d="M16 24.6668C15.2638 24.6668 14.6667 24.0699 14.6667 23.3335V16.8127C14.2528 17.2894 13.8114 17.8316 13.5275 18.1955C13.3862 18.3765 13.1533 18.686 13.0743 18.7906C12.6378 19.3834 11.8026 19.5107 11.2097 19.0744C10.617 18.6379 10.4896 17.8027 10.9259 17.2099C11.0121 17.0958 11.2747 16.7487 11.4259 16.5549C11.7272 16.1688 12.1436 15.6496 12.5978 15.1266C13.0462 14.61 13.5579 14.0588 14.047 13.6266C14.29 13.4116 14.5599 13.1974 14.8374 13.0302C15.0782 12.8849 15.4971 12.6669 16 12.6669C16.5031 12.6669 16.922 12.885 17.1628 13.0302C17.4403 13.1974 17.71 13.4116 17.9532 13.6266C18.4423 14.0588 18.954 14.61 19.4024 15.1266C19.8566 15.6496 20.273 16.1688 20.5743 16.5549C20.7255 16.7487 20.988 17.0958 21.0743 17.2099C21.5106 17.8027 21.3831 18.6365 20.7904 19.0731C20.1975 19.5097 19.3626 19.3821 18.9259 18.7892C18.847 18.6847 18.614 18.3765 18.4727 18.1955C18.1888 17.8316 17.7474 17.2894 17.3334 16.8127V23.3335C17.3334 24.0699 16.7364 24.6668 16 24.6668Z" fill="black"/>
<path d="M18.7084 2.3335C20.8558 2.33348 22.556 2.3335 23.8998 2.49235C25.2744 2.65484 26.4064 2.99526 27.3516 3.77099C27.6721 4.03408 27.9661 4.32806 28.2292 4.6486C29.0049 5.59383 29.3454 6.72586 29.5078 8.10042C29.6668 9.4443 29.6668 11.1444 29.6668 13.2918V13.3752C29.6668 14.3372 29.6641 15.2094 29.6498 16.0001C29.6322 15.026 29.5956 14.1756 29.5078 13.4337C29.3454 12.0592 29.0049 10.9272 28.2292 9.98194C27.9661 9.66139 27.6721 9.36742 27.3516 9.10432C26.4064 8.32859 25.2744 7.98818 23.8998 7.82568C22.556 7.66683 20.8558 7.66682 18.7084 7.66683H13.2917C11.1442 7.66682 9.44417 7.66683 8.10031 7.82568C6.72573 7.98818 5.59371 8.32859 4.64848 9.10432C4.32793 9.36742 4.03396 9.66139 3.77088 9.98194C2.99515 10.9272 2.65472 12.0592 2.49223 13.4337C2.40455 14.1756 2.3666 15.026 2.349 16.0001C2.33472 15.2094 2.33337 14.3372 2.33337 13.3752V13.2918C2.33337 11.1444 2.33337 9.4443 2.49223 8.10042C2.65472 6.72586 2.99515 5.59383 3.77088 4.6486C4.03396 4.32806 4.32793 4.03408 4.64848 3.77099C5.59371 2.99526 6.72573 2.65484 8.10031 2.49235C9.44417 2.3335 11.1442 2.33348 13.2917 2.3335H18.7084Z" fill="black"/>
</svg>
