<svg width="28" height="28" viewBox="0 0 28 28" fill="none" xmlns="http://www.w3.org/2000/svg">
<path d="M16.3334 25.0834H11.6666C7.83123 25.0834 5.91354 25.0834 4.62279 24.024C4.3865 23.8301 4.16984 23.6135 3.97591 23.3772C2.91663 22.0864 2.91663 20.1688 2.91663 16.3334C2.91663 12.498 2.91663 10.5803 3.97591 9.28954C4.16984 9.05325 4.3865 8.83658 4.62279 8.64266C5.91354 7.58337 7.83123 7.58337 11.6666 7.58337H16.3334C20.1687 7.58337 22.0864 7.58337 23.3771 8.64266C23.6135 8.83658 23.8301 9.05325 24.024 9.28954C25.0834 10.5803 25.0834 12.498 25.0834 16.3334C25.0834 20.1688 25.0834 22.0864 24.024 23.3772C23.8301 23.6135 23.6135 23.8301 23.3771 24.024C22.0864 25.0834 20.1687 25.0834 16.3334 25.0834Z" stroke="black" stroke-width="1.75" stroke-linecap="round" stroke-linejoin="round"/>
<path d="M2.91663 16.9166V12.25C2.91663 7.85018 2.91663 5.6503 4.28347 4.28346C5.6503 2.91663 7.85019 2.91663 12.25 2.91663H15.75C20.1498 2.91663 22.3496 2.91663 23.7165 4.28346C25.0834 5.6503 25.0834 7.85018 25.0834 12.25V16.9166" stroke="black" stroke-width="1.75" stroke-linecap="round" stroke-linejoin="round"/>
<path d="M17.5001 15.75C17.5001 15.75 14.9223 12.25 13.9999 12.25C13.0777 12.25 10.5 15.75 10.5 15.75M13.9999 12.8333L14.0001 20.4167" stroke="black" stroke-width="1.75" stroke-linecap="round" stroke-linejoin="round"/>
</svg>
