<svg width="20" height="20" viewBox="0 0 20 20" fill="none" xmlns="http://www.w3.org/2000/svg">
<path opacity="0.4" d="M18.5417 11.6924V11.6667V11.6411C18.5417 10.2987 18.5417 9.23605 18.4424 8.39605C18.3409 7.53697 18.1281 6.82946 17.6432 6.23869C17.4788 6.03835 17.2951 5.85461 17.0947 5.69018C16.504 5.20535 15.7965 4.99259 14.9374 4.89103C14.0974 4.79174 13.0347 4.79174 11.6923 4.79175H11.6667H8.33341H8.30772C6.96537 4.79174 5.90271 4.79174 5.06271 4.89103C4.2036 4.99259 3.49608 5.20535 2.90532 5.69018C2.70497 5.85461 2.52124 6.03835 2.35682 6.23869C1.87198 6.82946 1.65922 7.53697 1.55766 8.39605C1.45837 9.23605 1.45837 10.2987 1.45837 11.6411V11.6667V11.6924C1.45837 13.0347 1.45837 14.0974 1.55766 14.9374C1.65922 15.7965 1.87198 16.504 2.35682 17.0948C2.52124 17.2951 2.70497 17.4789 2.90532 17.6433C3.49608 18.1281 4.2036 18.3409 5.06271 18.4425C5.90271 18.5417 6.96537 18.5417 8.30772 18.5417H8.33341H11.6667H11.6923C13.0347 18.5417 14.0974 18.5417 14.9374 18.4425C15.7965 18.3409 16.504 18.1281 17.0947 17.6433C17.2951 17.4789 17.4788 17.2951 17.6432 17.0948C18.1281 16.504 18.3409 15.7965 18.4424 14.9374C18.5417 14.0974 18.5417 13.0347 18.5417 11.6924Z" fill="black"/>
<path d="M10 15.4167C9.53984 15.4167 9.16668 15.0436 9.16668 14.5834V10.5079C8.90801 10.8058 8.63209 11.1447 8.45468 11.3721C8.36634 11.4853 8.22079 11.6787 8.17144 11.744C7.89859 12.1145 7.37664 12.1941 7.00607 11.9215C6.63559 11.6486 6.55601 11.1266 6.82866 10.7561C6.88254 10.6848 7.04666 10.4679 7.14116 10.3468C7.32947 10.1055 7.58972 9.78096 7.87359 9.45405C8.15384 9.13121 8.47368 8.78671 8.77934 8.51655C8.93126 8.38221 9.09993 8.24834 9.27334 8.1438C9.42384 8.05304 9.68568 7.91674 10 7.91675C10.3144 7.91675 10.5763 8.05305 10.7268 8.1438C10.9002 8.24834 11.0688 8.38221 11.2208 8.51655C11.5264 8.78671 11.8463 9.13121 12.1265 9.45405C12.4103 9.78096 12.6706 10.1055 12.8589 10.3468C12.9534 10.4679 13.1175 10.6848 13.1714 10.7561C13.4441 11.1266 13.3644 11.6478 12.994 11.9206C12.6234 12.1935 12.1016 12.1138 11.8287 11.7432C11.7793 11.6779 11.6338 11.4853 11.5454 11.3721C11.368 11.1447 11.0921 10.8058 10.8333 10.5079V14.5834C10.8333 15.0436 10.4603 15.4167 10 15.4167Z" fill="black"/>
<path d="M11.6927 1.4585C13.0349 1.45849 14.0975 1.4585 14.9374 1.55778C15.7965 1.65934 16.504 1.8721 17.0947 2.35693C17.2951 2.52136 17.4788 2.7051 17.6432 2.90544C18.1281 3.4962 18.3409 4.20372 18.4424 5.06282C18.5417 5.90275 18.5417 6.96529 18.5417 8.30745V8.35955C18.5417 8.9608 18.5401 9.50596 18.5312 10.0001C18.5202 9.3913 18.4972 8.8598 18.4424 8.39613C18.3409 7.53705 18.1281 6.82954 17.6432 6.23877C17.4788 6.03843 17.2951 5.8547 17.0947 5.69026C16.504 5.20543 15.7965 4.99267 14.9374 4.89111C14.0975 4.79183 13.0349 4.79182 11.6927 4.79183H8.30733C6.96517 4.79182 5.90262 4.79183 5.06271 4.89111C4.2036 4.99267 3.49608 5.20543 2.90532 5.69026C2.70497 5.8547 2.52124 6.03843 2.35682 6.23877C1.87198 6.82954 1.65922 7.53705 1.55766 8.39613C1.50286 8.8598 1.47914 9.3913 1.46814 10.0001C1.45922 9.50596 1.45837 8.9608 1.45837 8.35955V8.30745C1.45837 6.96529 1.45837 5.90275 1.55766 5.06282C1.65922 4.20372 1.87198 3.4962 2.35682 2.90544C2.52124 2.7051 2.70497 2.52136 2.90532 2.35693C3.49608 1.8721 4.2036 1.65934 5.06271 1.55778C5.90262 1.4585 6.96517 1.45849 8.30733 1.4585H11.6927Z" fill="black"/>
</svg>
