<svg width="16" height="16" viewBox="0 0 16 16" fill="none" xmlns="http://www.w3.org/2000/svg">
<path d="M13.5001 9.83339V7.16672C13.5001 5.89082 13.4986 5.00093 13.4083 4.32951C13.3206 3.67728 13.1602 3.33203 12.9142 3.08602C12.6681 2.84001 12.3229 2.67957 11.6706 2.59188C10.9992 2.50161 10.1094 2.50008 8.83344 2.50008H7.16678C5.89082 2.50008 5.00094 2.50161 4.32951 2.59188C3.67728 2.67957 3.33203 2.84001 3.08602 3.08602C2.84002 3.33203 2.67958 3.67728 2.59188 4.32951C2.50161 5.00093 2.50008 5.89082 2.50008 7.16672V9.83339C2.50008 10.2016 2.20161 10.5001 1.83342 10.5001C1.46523 10.5001 1.16675 10.2016 1.16675 9.83339V7.16672C1.16675 5.92852 1.16528 4.9327 1.27027 4.15178C1.37784 3.35171 1.6083 2.67833 2.14332 2.14331C2.67834 1.60829 3.35172 1.37784 4.15178 1.27026C4.9327 1.16527 5.92852 1.16675 7.16678 1.16675H8.83344C10.0716 1.16675 11.0674 1.16527 11.8484 1.27026C12.6484 1.37784 13.3218 1.60829 13.8568 2.14331C14.3918 2.67833 14.6223 3.35171 14.7299 4.15178C14.8349 4.9327 14.8334 5.92852 14.8334 7.16672V9.83339C14.8334 10.2016 14.5349 10.5001 14.1668 10.5001C13.7986 10.5001 13.5001 10.2016 13.5001 9.83339Z" fill="black"/>
<path d="M9.35424 3.83337C10.428 3.83337 11.278 3.83337 11.95 3.9128C12.6372 3.99405 13.2032 4.16425 13.6758 4.55212C13.8361 4.68367 13.9831 4.83065 14.1146 4.99093C14.5025 5.46354 14.6728 6.02955 14.754 6.71681C14.8334 7.38875 14.8334 8.23881 14.8334 9.31255V9.35421C14.8334 10.4279 14.8334 11.2779 14.754 11.9499C14.6728 12.6372 14.5025 13.2032 14.1146 13.6758C13.9831 13.8361 13.8361 13.9831 13.6758 14.1146C13.2032 14.5025 12.6372 14.6727 11.95 14.7539C11.278 14.8333 10.428 14.8333 9.35424 14.8333H6.64592C5.57218 14.8333 4.72215 14.8333 4.05021 14.7539C3.36293 14.6727 2.79691 14.5025 2.3243 14.1146C2.16403 13.9831 2.01704 13.8361 1.8855 13.6758C1.49763 13.2032 1.32742 12.6372 1.24617 11.9499C1.16675 11.2779 1.16675 10.4279 1.16675 9.35421V9.31255C1.16675 8.23881 1.16675 7.38875 1.24617 6.71681C1.32742 6.02955 1.49763 5.46354 1.8855 4.99093C2.01704 4.83065 2.16403 4.68367 2.3243 4.55212C2.79691 4.16425 3.36293 3.99405 4.05021 3.9128C4.72215 3.83337 5.57218 3.83337 6.64592 3.83337H9.35424ZM8.00011 6.33337C7.74857 6.33337 7.53918 6.44241 7.41871 6.51501C7.27997 6.59865 7.14511 6.70575 7.02351 6.81321C6.77898 7.02935 6.52312 7.30495 6.29891 7.56321C6.07182 7.82475 5.86361 8.08435 5.71297 8.27741C5.63737 8.37428 5.50609 8.54775 5.46297 8.60488C5.24485 8.90128 5.30852 9.31888 5.6049 9.53715C5.90135 9.75528 6.31891 9.69161 6.53719 9.39521C6.57667 9.34295 6.69311 9.18821 6.76377 9.09768C6.90571 8.91575 7.12644 8.64461 7.33344 8.40628V11.6667C7.33344 12.0349 7.63191 12.3333 8.00011 12.3333C8.36824 12.3333 8.66677 12.0349 8.66677 11.6667V8.40628C8.87371 8.64461 9.09444 8.91581 9.23644 9.09768C9.30704 9.18821 9.42351 9.34228 9.46297 9.39455C9.68131 9.69101 10.0988 9.75481 10.3952 9.53648C10.6916 9.31821 10.7553 8.90128 10.5372 8.60488C10.4941 8.54781 10.3628 8.37428 10.2872 8.27741C10.1366 8.08435 9.92838 7.82475 9.70124 7.56321C9.47704 7.30495 9.22118 7.02935 8.97664 6.81321C8.85511 6.70581 8.72017 6.59865 8.58144 6.51501C8.46104 6.44241 8.25157 6.33338 8.00011 6.33337Z" fill="black"/>
</svg>
