<svg width="32" height="32" viewBox="0 0 32 32" fill="none" xmlns="http://www.w3.org/2000/svg">
<path d="M18.6665 28.6666H13.3333C8.94995 28.6666 6.75829 28.6666 5.28316 27.456C5.01311 27.2344 4.76548 26.9868 4.54387 26.7168C3.33325 25.2416 3.33325 23.05 3.33325 18.6666C3.33325 14.2833 3.33325 12.0917 4.54387 10.6165C4.76548 10.3465 5.01311 10.0989 5.28316 9.87724C6.75829 8.66663 8.94995 8.66663 13.3333 8.66663H18.6665C23.0499 8.66663 25.2416 8.66663 26.7167 9.87724C26.9867 10.0989 27.2344 10.3465 27.456 10.6165C28.6665 12.0917 28.6665 14.2833 28.6665 18.6666C28.6665 23.05 28.6665 25.2416 27.456 26.7168C27.2344 26.9868 26.9867 27.2344 26.7167 27.456C25.2416 28.6666 23.0499 28.6666 18.6665 28.6666Z" stroke="black" stroke-width="2" stroke-linecap="round" stroke-linejoin="round"/>
<path d="M3.33325 19.3334V14C3.33325 8.97172 3.33325 6.45757 4.89535 4.89547C6.45744 3.33337 8.9716 3.33337 13.9999 3.33337H17.9999C23.0283 3.33337 25.5424 3.33337 27.1045 4.89547C28.6665 6.45757 28.6665 8.97172 28.6665 14V19.3334" stroke="black" stroke-width="2" stroke-linecap="round" stroke-linejoin="round"/>
<path opacity="0.4" d="M19.9998 18C19.9998 18 17.054 14 15.9998 14C14.9458 14 11.9999 18 11.9999 18M15.9998 14.6667V23.3333" stroke="black" stroke-width="2" stroke-linecap="round" stroke-linejoin="round"/>
</svg>
