<svg width="32" height="32" viewBox="0 0 32 32" fill="none" xmlns="http://www.w3.org/2000/svg">
<path fill-rule="evenodd" clip-rule="evenodd" d="M10.8 1.66666C11.518 1.66666 12.1 2.25004 12.1 2.96968V4.28378C12.8705 4.2727 13.7045 4.2727 14.6049 4.27271H17.3951C18.2955 4.2727 19.1295 4.2727 19.9 4.28378V2.96968C19.9 2.25004 20.482 1.66666 21.2 1.66666C21.918 1.66666 22.5 2.25004 22.5 2.96968V4.39928C22.7351 4.42074 22.9613 4.44582 23.1791 4.47516C24.7392 4.68542 26.0529 5.1352 27.0961 6.18096C28.1395 7.22671 28.5883 8.54343 28.798 10.1073C29 11.6135 29 13.5287 29 15.9047V18.7013C29 21.0773 29 22.9925 28.798 24.4988C28.5883 26.0627 28.1395 27.3793 27.0961 28.4251C26.0529 29.4708 24.7392 29.9207 23.1791 30.1309C21.6763 30.3333 19.7656 30.3333 17.3951 30.3333H14.6049C12.2344 30.3333 10.3237 30.3333 8.82097 30.1309C7.26077 29.9207 5.94713 29.4708 4.90381 28.4251C3.86049 27.3793 3.41173 26.0627 3.20197 24.4988C2.99993 22.9925 2.99997 21.0775 3 18.7015V15.9047C2.99997 13.5287 2.99993 11.6135 3.20197 10.1073C3.41173 8.54343 3.86049 7.22671 4.90381 6.18096C5.94713 5.1352 7.26077 4.68542 8.82097 4.47516C9.03869 4.44582 9.26499 4.42074 9.5 4.39928V2.96968C9.5 2.25004 10.082 1.66666 10.8 1.66666ZM5.61848 13C5.6006 13.8611 5.60001 14.8504 5.60001 16V18.606C5.60001 21.0999 5.60277 22.8392 5.7788 24.1516C5.9498 25.4264 6.26257 26.1015 6.74231 26.5823C7.22203 27.0632 7.89555 27.3767 9.16743 27.5481C10.4767 27.7245 12.212 27.7273 14.7 27.7273H17.3C19.7881 27.7273 21.5233 27.7245 22.8327 27.5481C24.1045 27.3767 24.778 27.0632 25.2577 26.5823C25.7375 26.1015 26.0503 25.4264 26.2212 24.1516C26.3972 22.8392 26.4 21.0999 26.4 18.606V16C26.4 14.8504 26.3995 13.8611 26.3816 13H5.61848Z" fill="black"/>
<path d="M21.9235 16.5865C22.1693 17.2807 21.8059 18.0427 21.1118 18.2884C19.5963 18.8252 18.1246 20.2408 16.9641 21.6963C16.4027 22.4001 15.9498 23.0677 15.6377 23.5591C15.4821 23.804 15.2505 24.1999 15.1711 24.3356C14.9174 24.8016 14.411 25.0732 13.8825 25.0264C13.3535 24.9796 12.9029 24.6236 12.7351 24.1199C12.5179 23.4684 12.0768 23.0108 11.6417 22.6999C11.4267 22.5464 11.0513 22.3629 10.9098 22.2959C10.2118 22.0627 9.83564 21.3083 10.0684 20.61C10.3013 19.9113 11.0563 19.5339 11.7549 19.7667C11.8355 19.7985 12.0991 19.9015 12.227 19.962C12.4813 20.0825 12.8233 20.2669 13.1916 20.53C13.4486 20.7135 13.7254 20.9407 13.9958 21.2165C14.253 20.8492 14.5489 20.4477 14.879 20.0337C16.1106 18.4892 17.9722 16.5715 20.2215 15.7748C20.9157 15.5289 21.6777 15.8924 21.9235 16.5865Z" fill="black"/>
</svg>
