<svg width="20" height="20" viewBox="0 0 20 20" fill="none" xmlns="http://www.w3.org/2000/svg">
<path d="M13.3333 1.66666V4.99999M6.66663 1.66666V4.99999" stroke="black" stroke-width="1.25" stroke-linecap="round" stroke-linejoin="round"/>
<path d="M10.8333 3.33334H9.16667C6.02397 3.33334 4.45262 3.33334 3.47631 4.30965C2.5 5.28597 2.5 6.85731 2.5 10V11.6667C2.5 14.8093 2.5 16.3808 3.47631 17.357C4.45262 18.3333 6.02397 18.3333 9.16667 18.3333H10.8333C13.976 18.3333 15.5474 18.3333 16.5237 17.357C17.5 16.3808 17.5 14.8093 17.5 11.6667V10C17.5 6.85731 17.5 5.28597 16.5237 4.30965C15.5474 3.33334 13.976 3.33334 10.8333 3.33334Z" stroke="black" stroke-width="1.25" stroke-linecap="round" stroke-linejoin="round"/>
<path d="M2.5 8.33334H17.5" stroke="black" stroke-width="1.25" stroke-linecap="round" stroke-linejoin="round"/>
<path opacity="0.4" d="M7.5 13.75C7.5 13.75 8.75 14.1667 9.16667 15.4167C9.16667 15.4167 10.9804 12.0833 13.3333 11.25" stroke="black" stroke-width="1.25" stroke-linecap="round" stroke-linejoin="round"/>
</svg>
