<svg width="28" height="28" viewBox="0 0 28 28" fill="none" xmlns="http://www.w3.org/2000/svg">
<path d="M9.45005 1.45834C10.0783 1.45834 10.5875 1.96881 10.5875 2.59849V3.74832C11.2618 3.73863 11.9915 3.73863 12.7793 3.73864H15.2208C16.0086 3.73863 16.7383 3.73863 17.4125 3.74832V2.59849C17.4125 1.96881 17.9218 1.45834 18.55 1.45834C19.1783 1.45834 19.6875 1.96881 19.6875 2.59849V3.84939C19.8932 3.86816 20.0912 3.89011 20.2817 3.91579C21.6468 4.09976 22.7963 4.49332 23.7093 5.40836C24.6222 6.32339 25.0148 7.47552 25.1983 8.84387C25.2964 9.57491 25.34 10.416 25.3595 11.375H2.64062C2.66005 10.416 2.70372 9.57491 2.80178 8.84387C2.98532 7.47552 3.37797 6.32339 4.29087 5.40836C5.20378 4.49332 6.35323 4.09976 7.71839 3.91579C7.90891 3.89011 8.10691 3.86816 8.31255 3.84939V2.59849C8.31255 1.96881 8.82182 1.45834 9.45005 1.45834Z" fill="black"/>
<path opacity="0.4" d="M25.375 13.9166V16.3637C25.375 18.4427 25.375 20.1185 25.1982 21.4365C25.0147 22.8048 24.622 23.9569 23.7091 24.8719C22.7963 25.787 21.6468 26.1806 20.2817 26.3646C18.9667 26.5417 17.2949 26.5417 15.2207 26.5417H12.7793C10.7051 26.5417 9.03326 26.5417 7.71835 26.3646C6.35318 26.1806 5.20374 25.787 4.29084 24.8719C3.37793 23.9569 2.98527 22.8048 2.80173 21.4365C2.62495 20.1185 2.62498 18.4428 2.625 16.3638V13.9166C2.62499 12.9908 2.62498 12.1449 2.64058 11.375H4.91617C4.90053 12.1284 4.90001 12.9941 4.90001 14V16.2803C4.90001 18.4624 4.90243 19.9843 5.05645 21.1327C5.20608 22.2481 5.47975 22.8388 5.89952 23.2595C6.31927 23.6803 6.9086 23.9546 8.0215 24.1046C9.16711 24.259 10.6855 24.2614 12.8625 24.2614H15.1375C17.3146 24.2614 18.8329 24.259 19.9786 24.1046C21.0915 23.9546 21.6807 23.6803 22.1005 23.2595C22.5203 22.8388 22.794 22.2481 22.9435 21.1327C23.0975 19.9843 23.1 18.4624 23.1 16.2803V14C23.1 12.9941 23.0995 12.1284 23.0839 11.375H25.3595C25.375 12.1449 25.375 12.9907 25.375 13.9166Z" fill="black"/>
<path d="M19.1832 14.5132C19.3982 15.1206 19.0803 15.7873 18.4729 16.0023C17.1469 16.472 15.8591 17.7107 14.8436 18.9842C14.3525 19.6001 13.9561 20.1843 13.683 20.6142C13.5469 20.8285 13.3442 21.1749 13.2748 21.2936C13.0528 21.7014 12.6097 21.939 12.1472 21.8981C11.6844 21.8571 11.2901 21.5456 11.1432 21.1049C10.9532 20.5348 10.5673 20.1344 10.1865 19.8624C9.99838 19.7281 9.66994 19.5676 9.54611 19.5089C8.93539 19.3048 8.60625 18.6447 8.8099 18.0337C9.01366 17.4224 9.67437 17.0921 10.2856 17.2958C10.3561 17.3237 10.5868 17.4138 10.6987 17.4667C10.9212 17.5722 11.2204 17.7336 11.5427 17.9637C11.7676 18.1243 12.0098 18.3231 12.2464 18.5645C12.4714 18.243 12.7303 17.8918 13.0192 17.5295C14.0968 16.178 15.7257 14.5 17.6939 13.8029C18.3013 13.5878 18.968 13.9058 19.1832 14.5132Z" fill="black"/>
</svg>
