<svg width="24" height="24" viewBox="0 0 24 24" fill="none" xmlns="http://www.w3.org/2000/svg">
<path d="M8.10008 1.25C8.63855 1.25 9.07508 1.68754 9.07508 2.22727V3.21284C9.65297 3.20453 10.2785 3.20453 10.9538 3.20454H13.0465C13.7217 3.20453 14.3472 3.20453 14.9251 3.21284V2.22727C14.9251 1.68754 15.3616 1.25 15.9001 1.25C16.4386 1.25 16.8751 1.68754 16.8751 2.22727V3.29947C17.0514 3.31556 17.2211 3.33437 17.3844 3.35638C18.5545 3.51407 19.5398 3.85141 20.3223 4.63573C21.1048 5.42004 21.4413 6.40758 21.5986 7.58045C21.6827 8.20706 21.7201 8.92803 21.7368 9.75H2.26343C2.28008 8.92803 2.31751 8.20706 2.40156 7.58045C2.55888 6.40758 2.89544 5.42004 3.67793 4.63573C4.46042 3.85141 5.44566 3.51407 6.6158 3.35638C6.7791 3.33437 6.94882 3.31556 7.12508 3.29947V2.22727C7.12508 1.68754 7.5616 1.25 8.10008 1.25Z" fill="black"/>
<path opacity="0.4" d="M21.75 11.9285V14.026C21.75 15.808 21.75 17.2444 21.5985 18.3741C21.4412 19.547 21.1046 20.5345 20.3221 21.3188C19.5397 22.1031 18.5544 22.4405 17.3843 22.5982C16.2572 22.75 14.8242 22.75 13.0463 22.75H10.9537C9.17581 22.75 7.74279 22.75 6.61573 22.5982C5.44558 22.4405 4.46035 22.1031 3.67786 21.3188C2.89537 20.5345 2.5588 19.547 2.40148 18.3741C2.24996 17.2444 2.24998 15.8081 2.25 14.0261V11.9285C2.24999 11.135 2.24998 10.4099 2.26335 9.75H4.21386C4.20045 10.3958 4.20001 11.1378 4.20001 12V13.9545C4.20001 15.8249 4.20208 17.1294 4.3341 18.1137C4.46235 19.0698 4.69693 19.5761 5.05673 19.9367C5.41652 20.2974 5.92166 20.5325 6.87557 20.6611C7.85752 20.7934 9.15897 20.7955 11.025 20.7955H12.975C14.8411 20.7955 16.1425 20.7934 17.1245 20.6611C18.0784 20.5325 18.5835 20.2974 18.9433 19.9367C19.3031 19.5761 19.5377 19.0698 19.6659 18.1137C19.7979 17.1294 19.8 15.8249 19.8 13.9545V12C19.8 11.1378 19.7996 10.3958 19.7862 9.75H21.7367C21.75 10.4099 21.75 11.1349 21.75 11.9285Z" fill="black"/>
<path d="M16.4427 12.4399C16.627 12.9605 16.3545 13.532 15.8339 13.7163C14.6973 14.1189 13.5935 15.1806 12.7231 16.2722C12.3021 16.8001 11.9624 17.3008 11.7283 17.6693C11.6116 17.853 11.4379 18.1499 11.3784 18.2517C11.1881 18.6012 10.8083 18.8049 10.4119 18.7698C10.0152 18.7347 9.6772 18.4677 9.55129 18.0899C9.38842 17.6013 9.05762 17.2581 8.73124 17.0249C8.56999 16.9098 8.28847 16.7722 8.18233 16.7219C7.65885 16.547 7.37673 15.9812 7.55129 15.4575C7.72594 14.9335 8.29226 14.6504 8.8162 14.825C8.87664 14.8489 9.07434 14.9261 9.17025 14.9715C9.36099 15.0619 9.61747 15.2002 9.89372 15.3975C10.0865 15.5351 10.2941 15.7055 10.4969 15.9124C10.6898 15.6369 10.9117 15.3358 11.1593 15.0253C12.083 13.8669 13.4792 12.4286 15.1662 11.8311C15.6868 11.6467 16.2583 11.9193 16.4427 12.4399Z" fill="black"/>
</svg>
