<svg width="16" height="16" viewBox="0 0 16 16" fill="none" xmlns="http://www.w3.org/2000/svg">
<path d="M5.40001 0.833344C5.75899 0.833344 6.05001 1.12504 6.05001 1.48486V2.1419C6.43527 2.13636 6.85226 2.13636 7.30246 2.13637H8.6976C9.14773 2.13636 9.56473 2.13636 9.95 2.1419V1.48486C9.95 1.12504 10.241 0.833344 10.6 0.833344C10.959 0.833344 11.25 1.12504 11.25 1.48486V2.19966C11.3675 2.21038 11.4807 2.22292 11.5895 2.2376C12.3696 2.34272 13.0265 2.56762 13.5481 3.0905C14.0698 3.61337 14.2941 4.27173 14.399 5.05364C14.4551 5.47138 14.48 5.95203 14.4911 6.50001H1.50891C1.52001 5.95203 1.54496 5.47138 1.601 5.05364C1.70588 4.27173 1.93025 3.61337 2.45191 3.0905C2.97357 2.56762 3.6304 2.34272 4.41049 2.2376C4.51936 2.22292 4.6325 2.21038 4.75001 2.19966V1.48486C4.75001 1.12504 5.04102 0.833344 5.40001 0.833344Z" fill="black"/>
<path opacity="0.4" d="M14.5 7.95233V9.35067C14.5 10.5387 14.5 11.4963 14.399 12.2494C14.2941 13.0313 14.0697 13.6897 13.5481 14.2125C13.0265 14.7354 12.3696 14.9603 11.5895 15.0655C10.8381 15.1667 9.8828 15.1667 8.69753 15.1667H7.30247C6.11721 15.1667 5.16186 15.1667 4.41049 15.0655C3.63039 14.9603 2.97357 14.7354 2.45191 14.2125C1.93025 13.6897 1.70587 13.0313 1.60099 12.2494C1.49997 11.4963 1.49999 10.5387 1.5 9.35073V7.95233C1.49999 7.42333 1.49999 6.93993 1.5089 6.5H2.80924C2.8003 6.93053 2.80001 7.4252 2.80001 8V9.303C2.80001 10.5499 2.80139 11.4196 2.8894 12.0758C2.9749 12.7132 3.13129 13.0507 3.37115 13.2911C3.61101 13.5316 3.94777 13.6883 4.58371 13.7741C5.23835 13.8623 6.10598 13.8637 7.35 13.8637H8.65C9.89407 13.8637 10.7617 13.8623 11.4163 13.7741C12.0523 13.6883 12.389 13.5316 12.6289 13.2911C12.8687 13.0507 13.0251 12.7132 13.1106 12.0758C13.1986 11.4196 13.2 10.5499 13.2 9.303V8C13.2 7.4252 13.1997 6.93053 13.1908 6.5H14.4911C14.5 6.93993 14.5 7.42327 14.5 7.95233Z" fill="black"/>
<path d="M10.9618 8.29327C11.0846 8.64034 10.903 9.02134 10.5559 9.1442C9.79817 9.4126 9.0623 10.1204 8.48203 10.8481C8.20137 11.2001 7.9749 11.5339 7.81883 11.7795C7.74103 11.902 7.62523 12.0999 7.58557 12.1678C7.4587 12.4008 7.2055 12.5366 6.94123 12.5132C6.67677 12.4898 6.45147 12.3118 6.36753 12.0599C6.25895 11.7342 6.03841 11.5054 5.82083 11.3499C5.71333 11.2732 5.52565 11.1815 5.45489 11.1479C5.1059 11.0313 4.91782 10.6541 5.03419 10.305C5.15063 9.95567 5.52817 9.76694 5.87747 9.88334C5.91776 9.89927 6.04956 9.95074 6.1135 9.981C6.24066 10.0413 6.41165 10.1335 6.59581 10.265C6.7243 10.3567 6.8627 10.4703 6.9979 10.6083C7.1265 10.4246 7.27443 10.2239 7.4395 10.0169C8.0553 9.2446 8.9861 8.28574 10.1108 7.8874C10.4578 7.76447 10.8388 7.9462 10.9618 8.29327Z" fill="black"/>
</svg>
