<svg width="28" height="28" viewBox="0 0 28 28" fill="none" xmlns="http://www.w3.org/2000/svg">
<path d="M18.6667 2.33334V7.00001M9.33337 2.33334V7.00001" stroke="black" stroke-width="1.75" stroke-linecap="round" stroke-linejoin="round"/>
<path d="M15.1667 4.66666H12.8333C8.43355 4.66666 6.23367 4.66666 4.86683 6.03349C3.5 7.40033 3.5 9.60021 3.5 14V16.3333C3.5 20.7331 3.5 22.933 4.86683 24.2998C6.23367 25.6667 8.43355 25.6667 12.8333 25.6667H15.1667C19.5664 25.6667 21.7664 25.6667 23.1331 24.2998C24.5 22.933 24.5 20.7331 24.5 16.3333V14C24.5 9.60021 24.5 7.40033 23.1331 6.03349C21.7664 4.66666 19.5664 4.66666 15.1667 4.66666Z" stroke="black" stroke-width="1.75" stroke-linecap="round" stroke-linejoin="round"/>
<path d="M3.5 11.6667H24.5" stroke="black" stroke-width="1.75" stroke-linecap="round" stroke-linejoin="round"/>
<path opacity="0.4" d="M10.5 19.25C10.5 19.25 12.25 19.8333 12.8333 21.5833C12.8333 21.5833 15.3726 16.9167 18.6667 15.75" stroke="black" stroke-width="1.75" stroke-linecap="round" stroke-linejoin="round"/>
</svg>
