<svg width="16" height="16" viewBox="0 0 16 16" fill="none" xmlns="http://www.w3.org/2000/svg">
<path d="M10.6667 1.33333V3.99999M5.33337 1.33333V3.99999" stroke="black" stroke-linecap="round" stroke-linejoin="round"/>
<path d="M8.66667 2.66667H7.33333C4.81917 2.66667 3.5621 2.66667 2.78105 3.44772C2 4.22877 2 5.48585 2 8.00001V9.33334C2 11.8475 2 13.1046 2.78105 13.8856C3.5621 14.6667 4.81917 14.6667 7.33333 14.6667H8.66667C11.1808 14.6667 12.4379 14.6667 13.2189 13.8856C14 13.1046 14 11.8475 14 9.33334V8.00001C14 5.48585 14 4.22877 13.2189 3.44772C12.4379 2.66667 11.1808 2.66667 8.66667 2.66667Z" stroke="black" stroke-linecap="round" stroke-linejoin="round"/>
<path d="M2 6.66667H14" stroke="black" stroke-linecap="round" stroke-linejoin="round"/>
<path d="M6 11C6 11 7 11.3333 7.33333 12.3333C7.33333 12.3333 8.78433 9.66667 10.6667 9" stroke="black" stroke-linecap="round" stroke-linejoin="round"/>
</svg>
