<svg width="20" height="20" viewBox="0 0 20 20" fill="none" xmlns="http://www.w3.org/2000/svg">
<path opacity="0.4" d="M10.8333 3.33333H9.16664C6.02393 3.33333 4.45258 3.33333 3.47627 4.30964C2.69036 5.09554 2.53709 6.26702 2.5072 8.33333H17.4927C17.4628 6.26702 17.3096 5.09554 16.5236 4.30964C15.5473 3.33333 13.976 3.33333 10.8333 3.33333Z" fill="black"/>
<path d="M13.3333 1.66667V5.00001M6.66663 1.66667V5.00001" stroke="black" stroke-width="1.25" stroke-linecap="round" stroke-linejoin="round"/>
<path d="M10.8333 3.33333H9.16667C6.02397 3.33333 4.45262 3.33333 3.47631 4.30964C2.5 5.28595 2.5 6.85729 2.5 9.99999V11.6667C2.5 14.8093 2.5 16.3807 3.47631 17.357C4.45262 18.3333 6.02397 18.3333 9.16667 18.3333H10.8333C13.976 18.3333 15.5474 18.3333 16.5237 17.357C17.5 16.3807 17.5 14.8093 17.5 11.6667V9.99999C17.5 6.85729 17.5 5.28595 16.5237 4.30964C15.5474 3.33333 13.976 3.33333 10.8333 3.33333Z" stroke="black" stroke-width="1.25" stroke-linecap="round" stroke-linejoin="round"/>
<path d="M2.5 8.33333H17.5" stroke="black" stroke-width="1.25" stroke-linecap="round" stroke-linejoin="round"/>
<path d="M7.5 13.75C7.5 13.75 8.75 14.1667 9.16667 15.4167C9.16667 15.4167 10.9804 12.0833 13.3333 11.25" stroke="black" stroke-width="1.25" stroke-linecap="round" stroke-linejoin="round"/>
</svg>
