<svg width="20" height="20" viewBox="0 0 20 20" fill="none" xmlns="http://www.w3.org/2000/svg">
<path fill-rule="evenodd" clip-rule="evenodd" d="M6.75 1.04166C7.19873 1.04166 7.5625 1.40627 7.5625 1.85605V2.67736C8.04408 2.67043 8.56533 2.67043 9.12808 2.67044H10.8719C11.4347 2.67043 11.9559 2.67043 12.4375 2.67736V1.85605C12.4375 1.40627 12.8012 1.04166 13.25 1.04166C13.6987 1.04166 14.0625 1.40627 14.0625 1.85605V2.74955C14.2094 2.76296 14.3508 2.77863 14.4869 2.79697C15.462 2.92838 16.2831 3.2095 16.9351 3.8631C17.5872 4.51669 17.8677 5.33964 17.9987 6.31703C18.125 7.25844 18.125 8.45541 18.125 9.94041V11.6883C18.125 13.1733 18.125 14.3703 17.9987 15.3117C17.8677 16.2892 17.5872 17.1121 16.9351 17.7657C16.2831 18.4192 15.462 18.7004 14.4869 18.8318C13.5477 18.9583 12.3535 18.9583 10.8719 18.9583H9.12808C7.64651 18.9583 6.45233 18.9583 5.51311 18.8318C4.53798 18.7004 3.71696 18.4192 3.06488 17.7657C2.41281 17.1121 2.13233 16.2892 2.00123 15.3117C1.87496 14.3703 1.87498 13.1734 1.875 11.6884V9.94041C1.87498 8.45541 1.87496 7.25842 2.00123 6.31703C2.13233 5.33964 2.41281 4.51669 3.06488 3.8631C3.71696 3.2095 4.53798 2.92838 5.51311 2.79697C5.64918 2.77863 5.79062 2.76296 5.9375 2.74955V1.85605C5.9375 1.40627 6.30127 1.04166 6.75 1.04166ZM3.51155 8.12499C3.50038 8.66316 3.50001 9.28149 3.50001 9.99999V11.6287C3.50001 13.1874 3.50173 14.2745 3.61175 15.0947C3.71863 15.8915 3.91411 16.3134 4.21394 16.6139C4.51377 16.9145 4.93472 17.1104 5.72964 17.2176C6.54793 17.3278 7.63247 17.3296 9.1875 17.3296H10.8125C12.3676 17.3296 13.4521 17.3278 14.2704 17.2176C15.0653 17.1104 15.4862 16.9145 15.7861 16.6139C16.0859 16.3134 16.2814 15.8915 16.3882 15.0947C16.4982 14.2745 16.5 13.1874 16.5 11.6287V9.99999C16.5 9.28149 16.4997 8.66316 16.4885 8.12499H3.51155Z" fill="black"/>
<path d="M13.7023 10.3666C13.8559 10.8004 13.6288 11.2767 13.1949 11.4303C12.2478 11.7658 11.3279 12.6505 10.6026 13.5602C10.2518 14.0001 9.96869 14.4173 9.7736 14.7244C9.67635 14.8775 9.5316 15.1249 9.48202 15.2098C9.32344 15.501 9.00694 15.6708 8.6766 15.6415C8.34602 15.6123 8.0644 15.3898 7.95947 15.0749C7.82375 14.6678 7.54808 14.3818 7.2761 14.1874C7.14172 14.0915 6.90712 13.9768 6.81867 13.9349C6.38244 13.7892 6.14734 13.3177 6.2928 12.8813C6.43835 12.4446 6.91028 12.2087 7.3469 12.3542C7.39726 12.3741 7.56201 12.4384 7.64194 12.4763C7.80089 12.5516 8.01462 12.6668 8.24483 12.8313C8.40544 12.9459 8.57844 13.0879 8.74744 13.2603C8.90819 13.0308 9.0931 12.7798 9.29944 12.5211C10.0692 11.5558 11.2327 10.3572 12.6385 9.85926C13.0724 9.70559 13.5486 9.93276 13.7023 10.3666Z" fill="black"/>
</svg>
