<svg width="32" height="32" viewBox="0 0 32 32" fill="none" xmlns="http://www.w3.org/2000/svg">
<path d="M21.3333 2.66667V8.00001M10.6666 2.66667V8.00001" stroke="black" stroke-width="2" stroke-linecap="round" stroke-linejoin="round"/>
<path d="M17.3333 5.33333H14.6667C9.63835 5.33333 7.1242 5.33333 5.56209 6.89542C4 8.45753 4 10.9717 4 16V18.6667C4 23.6949 4 26.2092 5.56209 27.7712C7.1242 29.3333 9.63835 29.3333 14.6667 29.3333H17.3333C22.3616 29.3333 24.8759 29.3333 26.4379 27.7712C28 26.2092 28 23.6949 28 18.6667V16C28 10.9717 28 8.45753 26.4379 6.89542C24.8759 5.33333 22.3616 5.33333 17.3333 5.33333Z" stroke="black" stroke-width="2" stroke-linecap="round" stroke-linejoin="round"/>
<path d="M4 13.3333H28" stroke="black" stroke-width="2" stroke-linecap="round" stroke-linejoin="round"/>
<path d="M12 22C12 22 14 22.6667 14.6667 24.6667C14.6667 24.6667 17.5687 19.3333 21.3333 18" stroke="black" stroke-width="2" stroke-linecap="round" stroke-linejoin="round"/>
</svg>
