<svg width="32" height="32" viewBox="0 0 32 32" fill="none" xmlns="http://www.w3.org/2000/svg">
<path fill-rule="evenodd" clip-rule="evenodd" d="M14.6003 3C12.2321 2.99996 10.322 2.99993 8.82031 3.20183C7.2604 3.41163 5.94813 3.86177 4.90495 4.90495C3.86177 5.94813 3.41163 7.2604 3.20183 8.82032C2.99993 10.322 2.99996 12.2321 3 14.6003V17.3997C2.99996 19.7679 2.99993 21.678 3.20183 23.1797C3.41163 24.7396 3.86176 26.0519 4.90495 27.0951C5.94813 28.1383 7.2604 28.5884 8.82031 28.7981C10.322 29.0001 12.2321 29 14.6003 29H17.3997C19.7679 29 21.678 29.0001 23.1797 28.7981C24.7396 28.5884 26.0519 28.1383 27.0951 27.0951C28.1383 26.0519 28.5884 24.7396 28.7981 23.1797C29.0001 21.678 29 19.7679 29 17.3997V14.6003C29 12.2321 29.0001 10.322 28.7981 8.82032C28.5884 7.2604 28.1383 5.94813 27.0951 4.90495C26.0519 3.86176 24.7396 3.41163 23.1797 3.20183C21.678 2.99993 19.7679 2.99996 17.3997 3H14.6003ZM17.2995 5.60027C19.7871 5.60027 21.5228 5.60271 22.832 5.77865C24.1039 5.94964 24.7781 6.26251 25.2579 6.74219C25.7375 7.22189 26.0504 7.89619 26.2213 9.16797C26.3973 10.4772 26.3997 12.2129 26.3997 14.7005V17.2995C26.3997 19.7871 26.3973 21.5228 26.2213 22.832C26.0504 24.1039 25.7375 24.7781 25.2579 25.2579C24.7781 25.7375 24.1039 26.0504 22.832 26.2213C21.5228 26.3973 19.7872 26.3997 17.2995 26.3997H14.5585C14.0024 26.3997 13.4835 26.3997 13 26.3972V5.60156C13.5245 5.59869 14.0901 5.60027 14.7005 5.60027H17.2995Z" fill="black"/>
<path d="M21.1717 10.7771C21.7486 10.3196 22.5865 10.4164 23.0441 10.9933C23.5016 11.5702 23.4049 12.4081 22.828 12.8657L21.3501 14.0375C20.4784 14.7287 19.9341 15.164 19.5909 15.5206C19.4434 15.6739 19.3768 15.7707 19.3474 15.8214C19.3768 15.872 19.4433 15.9688 19.5909 16.1222C19.9341 16.4787 20.4784 16.914 21.3501 17.6052L22.828 18.7771C23.4049 19.2347 23.5016 20.0726 23.0441 20.6495C22.5865 21.2266 21.7486 21.3232 21.1717 20.8656L19.6938 19.6951C18.8841 19.0531 18.1668 18.4883 17.669 17.9711C17.1606 17.4427 16.6665 16.7495 16.6665 15.8214C16.6665 14.8934 17.1606 14.2 17.669 13.6716C18.1668 13.1545 18.8841 12.5897 19.6938 11.9477L21.1717 10.7771Z" fill="black"/>
</svg>
