<svg width="20" height="20" viewBox="0 0 20 20" fill="none" xmlns="http://www.w3.org/2000/svg">
<path opacity="0.4" d="M2.49976 10.8405V9.17385C2.49976 6.03113 2.49976 4.45978 3.47606 3.48347C4.26197 2.69756 5.43345 2.5443 7.49976 2.5144V17.4999C5.43345 17.47 4.26197 17.3168 3.47606 16.5309C2.49976 15.5545 2.49976 13.9832 2.49976 10.8405Z" fill="black"/>
<path d="M17.5 9.16667C17.5 6.02397 17.5 4.45262 16.5237 3.47631C15.5474 2.5 13.976 2.5 10.8333 2.5H9.16667C6.02397 2.5 4.45262 2.5 3.47631 3.47631C2.5 4.45262 2.5 6.02397 2.5 9.16667V10.8333C2.5 13.976 2.5 15.5474 3.47631 16.5237C4.45262 17.5 6.02397 17.5 9.16667 17.5H10.8333C13.976 17.5 15.5474 17.5 16.5237 16.5237C17.5 15.5474 17.5 13.976 17.5 10.8333V9.16667Z" stroke="black" stroke-width="1.25" stroke-linecap="round" stroke-linejoin="round"/>
<path d="M7.5 2.5V17.5" stroke="black" stroke-width="1.25" stroke-linecap="round" stroke-linejoin="round"/>
<path d="M13.3333 7.5L12.4098 8.23223C11.3588 9.06558 10.8333 9.48225 10.8333 10C10.8333 10.5177 11.3588 10.9344 12.4098 11.7677L13.3333 12.5" stroke="black" stroke-width="1.25" stroke-linecap="round" stroke-linejoin="round"/>
</svg>
