<svg width="32" height="32" viewBox="0 0 32 32" fill="none" xmlns="http://www.w3.org/2000/svg">
<path opacity="0.4" d="M8.82031 3.20183C10.322 2.99993 12.2321 2.99996 14.6003 3H17.3997C19.7679 2.99996 21.678 2.99993 23.1797 3.20183C24.7396 3.41163 26.0519 3.86177 27.0951 4.90495C28.1383 5.94813 28.5884 7.2604 28.7981 8.82032C29.0001 10.322 29 12.2321 29 14.6003V17.3997C29 19.7679 29.0001 21.678 28.7981 23.1797C28.5884 24.7396 28.1383 26.0519 27.0951 27.0951C26.0519 28.1383 24.7396 28.5884 23.1797 28.7981C21.678 29.0001 19.7679 29 17.3997 29H14.6003C12.2321 29 10.322 29.0001 8.82031 28.7981C7.2604 28.5884 5.94813 28.1383 4.90495 27.0951C3.86176 26.0519 3.41163 24.7396 3.20183 23.1797C2.99993 21.678 2.99996 19.7679 3 17.3997V14.6003C2.99996 12.2321 2.99993 10.322 3.20183 8.82032C3.41163 7.2604 3.86176 5.94813 4.90495 4.90495C5.94813 3.86177 7.2604 3.41163 8.82031 3.20183Z" fill="black"/>
<path d="M4.90495 4.90496C5.94813 3.86177 7.2604 3.41162 8.82031 3.20182C9.96769 3.04757 11.3536 3.01118 13 3.00262V28.9974C11.3536 28.9888 9.96769 28.9524 8.82031 28.7982C7.2604 28.5884 5.94813 28.1383 4.90495 27.0951C3.86176 26.0519 3.41163 24.7396 3.20183 23.1798C2.99993 21.678 2.99996 19.7679 3 17.3998V14.6003C2.99996 12.2321 2.99993 10.322 3.20183 8.82032C3.41163 7.2604 3.86177 5.94813 4.90495 4.90496Z" fill="black"/>
<path d="M21.1717 10.7771C21.7486 10.3196 22.5865 10.4164 23.0441 10.9933C23.5016 11.5702 23.4049 12.4081 22.828 12.8657L21.3501 14.0375C20.4784 14.7287 19.9341 15.164 19.5909 15.5206C19.4434 15.6739 19.3768 15.7707 19.3474 15.8214C19.3768 15.872 19.4433 15.9688 19.5909 16.1222C19.9341 16.4787 20.4784 16.914 21.3501 17.6052L22.828 18.7771C23.4049 19.2347 23.5016 20.0726 23.0441 20.6495C22.5865 21.2266 21.7486 21.3232 21.1717 20.8656L19.6938 19.6951C18.8841 19.0531 18.1668 18.4883 17.669 17.9711C17.1606 17.4427 16.6665 16.7495 16.6665 15.8214C16.6665 14.8934 17.1606 14.2 17.669 13.6716C18.1668 13.1545 18.8841 12.5897 19.6938 11.9477L21.1717 10.7771Z" fill="black"/>
</svg>
