<svg width="28" height="28" viewBox="0 0 28 28" fill="none" xmlns="http://www.w3.org/2000/svg">
<path opacity="0.4" d="M3.49976 15.1767V12.8434C3.49976 8.44356 3.49976 6.24367 4.86659 4.87683C5.96686 3.77656 7.60692 3.56199 10.4998 3.52014V24.4999C7.60692 24.458 5.96686 24.2435 4.86659 23.1432C3.49976 21.7763 3.49976 19.5764 3.49976 15.1767Z" fill="black"/>
<path d="M24.5 12.8333C24.5 8.43355 24.5 6.23367 23.1331 4.86683C21.7664 3.5 19.5664 3.5 15.1667 3.5H12.8333C8.43355 3.5 6.23367 3.5 4.86683 4.86683C3.5 6.23367 3.5 8.43355 3.5 12.8333V15.1667C3.5 19.5664 3.5 21.7664 4.86683 23.1331C6.23367 24.5 8.43355 24.5 12.8333 24.5H15.1667C19.5664 24.5 21.7664 24.5 23.1331 23.1331C24.5 21.7664 24.5 19.5664 24.5 15.1667V12.8333Z" stroke="black" stroke-width="1.75" stroke-linecap="round" stroke-linejoin="round"/>
<path d="M10.5 3.5V24.5" stroke="black" stroke-width="1.75" stroke-linecap="round" stroke-linejoin="round"/>
<path d="M18.6667 10.5L17.3738 11.5251C15.9024 12.6918 15.1667 13.2751 15.1667 14C15.1667 14.7248 15.9024 15.3082 17.3738 16.4748L18.6667 17.5" stroke="black" stroke-width="1.75" stroke-linecap="round" stroke-linejoin="round"/>
</svg>
