<svg width="24" height="24" viewBox="0 0 24 24" fill="none" xmlns="http://www.w3.org/2000/svg">
<path opacity="0.4" d="M2.99976 13.0086V11.0086C2.99976 7.23734 2.99976 5.35172 4.17133 4.18015C5.11442 3.23706 6.52019 3.05314 8.99976 3.01727V20.9999C6.52019 20.964 5.11442 20.7801 4.17133 19.837C2.99976 18.6654 2.99976 16.7798 2.99976 13.0086Z" fill="black"/>
<path d="M21 11C21 7.22876 21 5.34315 19.8284 4.17157C18.6569 3 16.7712 3 13 3H11C7.22876 3 5.34315 3 4.17157 4.17157C3 5.34315 3 7.22876 3 11V13C3 16.7712 3 18.6569 4.17157 19.8284C5.34315 21 7.22876 21 11 21H13C16.7712 21 18.6569 21 19.8284 19.8284C21 18.6569 21 16.7712 21 13V11Z" stroke="black" stroke-width="1.5" stroke-linecap="round" stroke-linejoin="round"/>
<path d="M9 3V21" stroke="black" stroke-width="1.5" stroke-linecap="round" stroke-linejoin="round"/>
<path d="M16 9L14.8918 9.87868C13.6306 10.8787 13 11.3787 13 12C13 12.6213 13.6306 13.1213 14.8918 14.1213L16 15" stroke="black" stroke-width="1.5" stroke-linecap="round" stroke-linejoin="round"/>
</svg>
