<svg width="28" height="28" viewBox="0 0 28 28" fill="none" xmlns="http://www.w3.org/2000/svg">
<path fill-rule="evenodd" clip-rule="evenodd" d="M12.7752 2.625C10.7031 2.62497 9.03173 2.62494 7.71777 2.8016C6.35285 2.98517 5.20462 3.37905 4.29183 4.29183C3.37905 5.20462 2.98517 6.35285 2.8016 7.71778C2.62494 9.03173 2.62497 10.7031 2.625 12.7752V15.2248C2.62497 17.2969 2.62494 18.9683 2.8016 20.2823C2.98517 21.6472 3.37904 22.7954 4.29183 23.7082C5.20462 24.621 6.35285 25.0149 7.71777 25.1984C9.03173 25.3751 10.7031 25.375 12.7752 25.375H15.2248C17.2969 25.375 18.9683 25.3751 20.2823 25.1984C21.6472 25.0149 22.7954 24.621 23.7082 23.7082C24.621 22.7954 25.0149 21.6472 25.1984 20.2823C25.3751 18.9683 25.375 17.2969 25.375 15.2248V12.7752C25.375 10.7031 25.3751 9.03173 25.1984 7.71778C25.0149 6.35285 24.621 5.20462 23.7082 4.29183C22.7954 3.37904 21.6472 2.98517 20.2823 2.8016C18.9683 2.62494 17.2969 2.62497 15.2248 2.625H12.7752ZM15.137 4.90023C17.3137 4.90023 18.8325 4.90237 19.978 5.05632C21.0909 5.20594 21.6809 5.47969 22.1006 5.89941C22.5203 6.31916 22.7941 6.90916 22.9437 8.02198C23.0977 9.16752 23.0998 10.6863 23.0998 12.863V15.137C23.0998 17.3137 23.0977 18.8325 22.9437 19.978C22.7941 21.0909 22.5203 21.6809 22.1006 22.1006C21.6809 22.5203 21.0909 22.7941 19.978 22.9437C18.8325 23.0977 17.3138 23.0998 15.137 23.0998H12.7387C12.2521 23.0998 11.798 23.0998 11.375 23.0975V4.90137C11.834 4.89886 12.3289 4.90023 12.863 4.90023H15.137Z" fill="black"/>
<path d="M18.5253 9.42995C19.0301 9.02965 19.7633 9.11428 20.1637 9.61906C20.5639 10.1239 20.4794 10.8571 19.9745 11.2574L18.6814 12.2828C17.9186 12.8876 17.4424 13.2685 17.1421 13.5804C17.0131 13.7146 16.9547 13.7993 16.9291 13.8436C16.9547 13.888 17.013 13.9727 17.1421 14.1068C17.4424 14.4188 17.9186 14.7997 18.6814 15.4045L19.9745 16.4299C20.4794 16.8303 20.5639 17.5634 20.1637 18.0683C19.7633 18.5732 19.0301 18.6578 18.5253 18.2574L17.2322 17.2332C16.5237 16.6714 15.896 16.1772 15.4605 15.7247C15.0156 15.2623 14.5833 14.6558 14.5833 13.8436C14.5833 13.0316 15.0156 12.425 15.4605 11.9626C15.896 11.5101 16.5237 11.0159 17.2322 10.4542L18.5253 9.42995Z" fill="black"/>
</svg>
