<svg width="28" height="28" viewBox="0 0 28 28" fill="none" xmlns="http://www.w3.org/2000/svg">
<path opacity="0.4" d="M7.71777 2.8016C9.03173 2.62494 10.7031 2.62497 12.7752 2.625H15.2248C17.2969 2.62497 18.9683 2.62494 20.2823 2.8016C21.6472 2.98517 22.7954 3.37905 23.7082 4.29183C24.621 5.20462 25.0149 6.35285 25.1984 7.71778C25.3751 9.03173 25.375 10.7031 25.375 12.7752V15.2248C25.375 17.2969 25.3751 18.9683 25.1984 20.2823C25.0149 21.6472 24.621 22.7954 23.7082 23.7082C22.7954 24.621 21.6472 25.0149 20.2823 25.1984C18.9683 25.3751 17.2969 25.375 15.2248 25.375H12.7752C10.7031 25.375 9.03173 25.3751 7.71777 25.1984C6.35285 25.0149 5.20462 24.621 4.29183 23.7082C3.37904 22.7954 2.98517 21.6472 2.8016 20.2823C2.62494 18.9683 2.62497 17.2969 2.625 15.2248V12.7752C2.62497 10.7031 2.62494 9.03173 2.8016 7.71778C2.98517 6.35285 3.37904 5.20462 4.29183 4.29183C5.20462 3.37905 6.35285 2.98517 7.71777 2.8016Z" fill="black"/>
<path d="M4.29183 4.2918C5.20462 3.37901 6.35285 2.98513 7.71777 2.80156C8.72173 2.66659 9.93437 2.63475 11.375 2.62726V25.3726C9.93437 25.3652 8.72173 25.3333 7.71777 25.1984C6.35285 25.0148 5.20462 24.621 4.29183 23.7082C3.37904 22.7954 2.98517 21.6471 2.8016 20.2822C2.62494 18.9682 2.62497 17.2969 2.625 15.2247V12.7752C2.62497 10.7031 2.62494 9.03169 2.8016 7.71774C2.98517 6.35281 3.37905 5.20458 4.29183 4.2918Z" fill="black"/>
<path d="M18.5253 9.42995C19.0301 9.02965 19.7633 9.11428 20.1637 9.61906C20.5639 10.1239 20.4794 10.8571 19.9745 11.2574L18.6814 12.2828C17.9186 12.8876 17.4424 13.2685 17.1421 13.5804C17.0131 13.7146 16.9547 13.7993 16.9291 13.8436C16.9547 13.888 17.013 13.9727 17.1421 14.1068C17.4424 14.4188 17.9186 14.7997 18.6814 15.4045L19.9745 16.4299C20.4794 16.8303 20.5639 17.5634 20.1637 18.0683C19.7633 18.5732 19.0301 18.6578 18.5253 18.2574L17.2322 17.2332C16.5237 16.6714 15.896 16.1772 15.4605 15.7247C15.0156 15.2623 14.5833 14.6558 14.5833 13.8436C14.5833 13.0316 15.0156 12.425 15.4605 11.9626C15.896 11.5101 16.5237 11.0159 17.2322 10.4542L18.5253 9.42995Z" fill="black"/>
</svg>
