<svg width="20" height="20" viewBox="0 0 20 20" fill="none" xmlns="http://www.w3.org/2000/svg">
<path opacity="0.4" d="M5.51269 2.00114C6.45123 1.87496 7.64508 1.87498 9.12517 1.875H10.8748C12.3549 1.87498 13.5488 1.87496 14.4873 2.00114C15.4623 2.13227 16.2824 2.41361 16.9344 3.06559C17.5864 3.71758 17.8678 4.53775 17.9988 5.5127C18.1251 6.45123 18.125 7.64508 18.125 9.12517V10.8748C18.125 12.3549 18.1251 13.5488 17.9988 14.4873C17.8678 15.4623 17.5864 16.2824 16.9344 16.9344C16.2824 17.5864 15.4623 17.8678 14.4873 17.9988C13.5488 18.1251 12.3549 18.125 10.8748 18.125H9.12517C7.64508 18.125 6.45123 18.1251 5.51269 17.9988C4.53775 17.8678 3.71758 17.5864 3.06559 16.9344C2.4136 16.2824 2.13227 15.4623 2.00114 14.4873C1.87496 13.5488 1.87498 12.3549 1.875 10.8748V9.12517C1.87498 7.64508 1.87496 6.45123 2.00114 5.5127C2.13227 4.53775 2.4136 3.71758 3.06559 3.06559C3.71758 2.41361 4.53775 2.13227 5.51269 2.00114Z" fill="black"/>
<path d="M3.06559 3.06561C3.71758 2.41361 4.53775 2.13227 5.51269 2.00115C6.22981 1.90474 7.09598 1.882 8.125 1.87665V18.1234C7.09598 18.118 6.22981 18.0953 5.51269 17.9989C4.53775 17.8678 3.71758 17.5864 3.06559 16.9344C2.4136 16.2824 2.13227 15.4623 2.00114 14.4874C1.87496 13.5488 1.87498 12.3549 1.875 10.8749V9.12519C1.87498 7.64509 1.87496 6.45124 2.00114 5.51271C2.13227 4.53776 2.41361 3.71759 3.06559 3.06561Z" fill="black"/>
<path d="M13.2323 6.73571C13.5928 6.44979 14.1165 6.51024 14.4025 6.8708C14.6884 7.2314 14.628 7.7551 14.2674 8.04105L13.3438 8.77344C12.7989 9.20544 12.4588 9.47752 12.2443 9.70035C12.1521 9.79619 12.1104 9.85669 12.0921 9.88835C12.1104 9.92002 12.152 9.98052 12.2443 10.0764C12.4588 10.2992 12.7989 10.5713 13.3438 11.0033L14.2674 11.7357C14.628 12.0217 14.6884 12.5454 14.4025 12.9059C14.1165 13.2666 13.5928 13.327 13.2323 13.041L12.3086 12.3094C11.8025 11.9082 11.3542 11.5552 11.0431 11.2319C10.7253 10.9017 10.4165 10.4684 10.4165 9.88835C10.4165 9.30835 10.7253 8.87502 11.0431 8.54477C11.3542 8.22157 11.8025 7.86857 12.3086 7.46732L13.2323 6.73571Z" fill="black"/>
</svg>
