<svg width="32" height="32" viewBox="0 0 32 32" fill="none" xmlns="http://www.w3.org/2000/svg">
<path d="M28 14.6667C28 9.63835 28 7.1242 26.4379 5.56209C24.8759 4 22.3616 4 17.3333 4H14.6667C9.63835 4 7.1242 4 5.56209 5.56209C4 7.1242 4 9.63835 4 14.6667V17.3333C4 22.3616 4 24.8759 5.56209 26.4379C7.1242 28 9.63835 28 14.6667 28H17.3333C22.3616 28 24.8759 28 26.4379 26.4379C28 24.8759 28 22.3616 28 17.3333V14.6667Z" stroke="black" stroke-width="2" stroke-linecap="round" stroke-linejoin="round"/>
<path d="M12 4V28" stroke="black" stroke-width="2" stroke-linecap="round" stroke-linejoin="round"/>
<path opacity="0.4" d="M21.3333 12L19.8557 13.1716C18.1741 14.5049 17.3333 15.1716 17.3333 16C17.3333 16.8284 18.1741 17.4951 19.8557 18.8284L21.3333 20" stroke="black" stroke-width="2" stroke-linecap="round" stroke-linejoin="round"/>
</svg>
