<svg width="16" height="16" viewBox="0 0 16 16" fill="none" xmlns="http://www.w3.org/2000/svg">
<path d="M14 7.33333C14 4.81917 14 3.5621 13.2189 2.78105C12.4379 2 11.1808 2 8.66667 2H7.33333C4.81917 2 3.5621 2 2.78105 2.78105C2 3.5621 2 4.81917 2 7.33333V8.66667C2 11.1808 2 12.4379 2.78105 13.2189C3.5621 14 4.81917 14 7.33333 14H8.66667C11.1808 14 12.4379 14 13.2189 13.2189C14 12.4379 14 11.1808 14 8.66667V7.33333Z" stroke="black" stroke-linecap="round" stroke-linejoin="round"/>
<path d="M6 2V14" stroke="black" stroke-linecap="round" stroke-linejoin="round"/>
<path d="M10.6667 6L9.92795 6.58579C9.08715 7.25247 8.66675 7.5858 8.66675 8C8.66675 8.4142 9.08715 8.74753 9.92795 9.4142L10.6667 10" stroke="black" stroke-linecap="round" stroke-linejoin="round"/>
</svg>
