<svg width="16" height="16" viewBox="0 0 16 16" fill="none" xmlns="http://www.w3.org/2000/svg">
<path fill-rule="evenodd" clip-rule="evenodd" d="M7.30013 1.5C6.11606 1.49998 5.16099 1.49997 4.41015 1.60091C3.6302 1.70581 2.97407 1.93089 2.45247 2.45247C1.93089 2.97407 1.70581 3.6302 1.60091 4.41016C1.49997 5.16099 1.49998 6.11606 1.5 7.30013V8.69987C1.49998 9.88393 1.49997 10.839 1.60091 11.5899C1.70581 12.3698 1.93088 13.0259 2.45247 13.5475C2.97407 14.0691 3.6302 14.2942 4.41015 14.3991C5.16099 14.5001 6.11606 14.5 7.30013 14.5H8.69987C9.88393 14.5 10.839 14.5001 11.5899 14.3991C12.3698 14.2942 13.0259 14.0691 13.5475 13.5475C14.0691 13.0259 14.2942 12.3698 14.3991 11.5899C14.5001 10.839 14.5 9.88393 14.5 8.69987V7.30013C14.5 6.11606 14.5001 5.16099 14.3991 4.41016C14.2942 3.6302 14.0691 2.97407 13.5475 2.45247C13.0259 1.93088 12.3698 1.70581 11.5899 1.60091C10.839 1.49997 9.88393 1.49998 8.69987 1.5H7.30013ZM8.64973 2.80013C9.89353 2.80013 10.7614 2.80135 11.416 2.88933C12.0519 2.97482 12.3891 3.13125 12.6289 3.37109C12.8687 3.61095 13.0252 3.94809 13.1107 4.58399C13.1987 5.23858 13.1999 6.10646 13.1999 7.35027V8.64973C13.1999 9.89353 13.1987 10.7614 13.1107 11.416C13.0252 12.0519 12.8687 12.3891 12.6289 12.6289C12.3891 12.8687 12.0519 13.0252 11.416 13.1107C10.7614 13.1987 9.8936 13.1999 8.64973 13.1999H7.27927C7.0012 13.1999 6.74173 13.1999 6.5 13.1986V2.80078C6.76227 2.79935 7.04507 2.80013 7.35027 2.80013H8.64973Z" fill="black"/>
<path d="M10.5859 5.38853C10.8743 5.15979 11.2933 5.20815 11.5221 5.4966C11.7508 5.78509 11.7025 6.20404 11.414 6.4328L10.6751 7.01871C10.2392 7.36431 9.96705 7.58198 9.79545 7.76025C9.72172 7.83691 9.68839 7.88531 9.67372 7.91065C9.68839 7.93598 9.72165 7.98438 9.79545 8.06105C9.96705 8.23931 10.2392 8.45698 10.6751 8.80258L11.414 9.38851C11.7025 9.61731 11.7508 10.0362 11.5221 10.3247C11.2933 10.6132 10.8743 10.6616 10.5859 10.4328L9.84692 9.84751C9.44205 9.52651 9.08339 9.24411 8.83452 8.98551C8.58032 8.72131 8.33325 8.37471 8.33325 7.91065C8.33325 7.44665 8.58032 7.09998 8.83452 6.83578C9.08339 6.57722 9.44205 6.29482 9.84692 5.97382L10.5859 5.38853Z" fill="black"/>
</svg>
