<svg width="24" height="24" viewBox="0 0 24 24" fill="none" xmlns="http://www.w3.org/2000/svg">
<path opacity="0.4" d="M6.61523 2.40137C7.74148 2.24995 9.17409 2.24997 10.9502 2.25H13.0498C14.8259 2.24997 16.2585 2.24995 17.3848 2.40137C18.5547 2.55872 19.5389 2.89633 20.3213 3.67871C21.1037 4.4611 21.4413 5.4453 21.5986 6.61524C21.7501 7.74148 21.75 9.17409 21.75 10.9502V13.0498C21.75 14.8259 21.7501 16.2585 21.5986 17.3848C21.4413 18.5547 21.1037 19.5389 20.3213 20.3213C19.5389 21.1037 18.5547 21.4413 17.3848 21.5986C16.2585 21.7501 14.8259 21.75 13.0498 21.75H10.9502C9.17409 21.75 7.74148 21.7501 6.61523 21.5986C5.4453 21.4413 4.4611 21.1037 3.67871 20.3213C2.89632 19.5389 2.55872 18.5547 2.40137 17.3848C2.24995 16.2585 2.24997 14.8259 2.25 13.0498V10.9502C2.24997 9.17409 2.24995 7.74148 2.40137 6.61524C2.55872 5.4453 2.89632 4.4611 3.67871 3.67871C4.4611 2.89633 5.4453 2.55872 6.61523 2.40137Z" fill="black"/>
<path d="M3.67871 3.6787C4.4611 2.89631 5.4453 2.5587 6.61523 2.40135C7.47577 2.28566 8.51517 2.25837 9.75 2.25195V21.748C8.51517 21.7416 7.47577 21.7143 6.61523 21.5986C5.4453 21.4413 4.4611 21.1037 3.67871 20.3213C2.89632 19.5389 2.55872 18.5547 2.40137 17.3848C2.24995 16.2585 2.24997 14.8259 2.25 13.0498V10.9502C2.24997 9.17408 2.24995 7.74146 2.40137 6.61522C2.55872 5.44528 2.89633 4.46108 3.67871 3.6787Z" fill="black"/>
<path d="M15.8789 8.08283C16.3116 7.73972 16.94 7.81226 17.2832 8.24493C17.6263 8.67766 17.5538 9.30609 17.1211 9.64923L16.0127 10.5281C15.3589 11.0465 14.9507 11.373 14.6933 11.6404C14.5827 11.7554 14.5327 11.828 14.5107 11.866C14.5327 11.904 14.5826 11.9766 14.6933 12.0916C14.9507 12.359 15.3589 12.6855 16.0127 13.2039L17.1211 14.0828C17.5538 14.426 17.6263 15.0544 17.2832 15.4871C16.94 15.9199 16.3116 15.9924 15.8789 15.6492L14.7705 14.7713C14.1632 14.2898 13.6252 13.8662 13.2519 13.4783C12.8706 13.082 12.5 12.5621 12.5 11.866C12.5 11.17 12.8706 10.65 13.2519 10.2537C13.6252 9.86586 14.1632 9.44226 14.7705 8.96076L15.8789 8.08283Z" fill="black"/>
</svg>
