<svg width="20" height="20" viewBox="0 0 20 20" fill="none" xmlns="http://www.w3.org/2000/svg">
<path fill-rule="evenodd" clip-rule="evenodd" d="M9.12517 1.875C7.64508 1.87498 6.45123 1.87496 5.51269 2.00114C4.53775 2.13227 3.71758 2.41361 3.06559 3.06559C2.41361 3.71758 2.13227 4.53775 2.00114 5.5127C1.87496 6.45123 1.87498 7.64508 1.875 9.12517V10.8748C1.87498 12.3549 1.87496 13.5488 2.00114 14.4873C2.13227 15.4623 2.4136 16.2824 3.06559 16.9344C3.71758 17.5864 4.53775 17.8678 5.51269 17.9988C6.45123 18.1251 7.64508 18.125 9.12517 18.125H10.8748C12.3549 18.125 13.5488 18.1251 14.4873 17.9988C15.4623 17.8678 16.2824 17.5864 16.9344 16.9344C17.5864 16.2824 17.8678 15.4623 17.9988 14.4873C18.1251 13.5488 18.125 12.3549 18.125 10.8748V9.12517C18.125 7.64508 18.1251 6.45123 17.9988 5.5127C17.8678 4.53775 17.5864 3.71758 16.9344 3.06559C16.2824 2.4136 15.4623 2.13227 14.4873 2.00114C13.5488 1.87496 12.3549 1.87498 10.8748 1.875H9.12517ZM10.8122 3.50017C12.3669 3.50017 13.4518 3.50169 14.27 3.61166C15.0649 3.71853 15.4863 3.91407 15.7862 4.21387C16.0859 4.51368 16.2815 4.93512 16.3883 5.72998C16.4983 6.54823 16.4998 7.63308 16.4998 9.18783V10.8122C16.4998 12.3669 16.4983 13.4518 16.3883 14.27C16.2815 15.0649 16.0859 15.4863 15.7862 15.7862C15.4863 16.0859 15.0649 16.2815 14.27 16.3883C13.4518 16.4983 12.367 16.4998 10.8122 16.4998H9.09908C8.7515 16.4998 8.42717 16.4998 8.125 16.4982V3.50098C8.45283 3.49918 8.80633 3.50017 9.18783 3.50017H10.8122Z" fill="black"/>
<path d="M13.2323 6.73571C13.5928 6.44979 14.1165 6.51024 14.4025 6.8708C14.6884 7.2314 14.628 7.7551 14.2674 8.04105L13.3438 8.77344C12.7989 9.20544 12.4588 9.47752 12.2443 9.70035C12.1521 9.79619 12.1104 9.85669 12.0921 9.88835C12.1104 9.92002 12.152 9.98052 12.2443 10.0764C12.4588 10.2992 12.7989 10.5713 13.3438 11.0033L14.2674 11.7357C14.628 12.0217 14.6884 12.5454 14.4025 12.9059C14.1165 13.2666 13.5928 13.327 13.2323 13.041L12.3086 12.3094C11.8025 11.9082 11.3542 11.5552 11.0431 11.2319C10.7253 10.9017 10.4165 10.4684 10.4165 9.88835C10.4165 9.30835 10.7253 8.87502 11.0431 8.54477C11.3542 8.22157 11.8025 7.86857 12.3086 7.46732L13.2323 6.73571Z" fill="black"/>
</svg>
