<svg width="16" height="16" viewBox="0 0 16 16" fill="none" xmlns="http://www.w3.org/2000/svg">
<path opacity="0.4" d="M4.41015 1.60091C5.16099 1.49997 6.11606 1.49998 7.30013 1.5H8.69987C9.88393 1.49998 10.839 1.49997 11.5899 1.60091C12.3698 1.70581 13.0259 1.93089 13.5475 2.45247C14.0691 2.97407 14.2942 3.6302 14.3991 4.41016C14.5001 5.16099 14.5 6.11606 14.5 7.30013V8.69987C14.5 9.88393 14.5001 10.839 14.3991 11.5899C14.2942 12.3698 14.0691 13.0259 13.5475 13.5475C13.0259 14.0691 12.3698 14.2942 11.5899 14.3991C10.839 14.5001 9.88393 14.5 8.69987 14.5H7.30013C6.11606 14.5 5.16099 14.5001 4.41015 14.3991C3.6302 14.2942 2.97407 14.0691 2.45247 13.5475C1.93088 13.0259 1.70581 12.3698 1.60091 11.5899C1.49997 10.839 1.49998 9.88393 1.5 8.69987V7.30013C1.49998 6.11606 1.49997 5.16099 1.60091 4.41016C1.70581 3.6302 1.93088 2.97407 2.45247 2.45247C2.97407 1.93089 3.6302 1.70581 4.41015 1.60091Z" fill="black"/>
<path d="M2.45247 2.45245C2.97407 1.93086 3.6302 1.70578 4.41015 1.60088C4.98385 1.52376 5.67678 1.50556 6.5 1.50128V14.4986C5.67678 14.4944 4.98385 14.4762 4.41015 14.399C3.6302 14.2942 2.97407 14.0691 2.45247 13.5475C1.93088 13.0259 1.70581 12.3698 1.60091 11.5898C1.49997 10.839 1.49998 9.88391 1.5 8.69985V7.30012C1.49998 6.11603 1.49997 5.16095 1.60091 4.41013C1.70581 3.63017 1.93089 2.97404 2.45247 2.45245Z" fill="black"/>
<path d="M10.5859 5.38853C10.8743 5.15979 11.2933 5.20815 11.5221 5.4966C11.7508 5.78509 11.7025 6.20404 11.414 6.4328L10.6751 7.01871C10.2392 7.36431 9.96705 7.58198 9.79545 7.76025C9.72172 7.83691 9.68839 7.88531 9.67372 7.91065C9.68839 7.93598 9.72165 7.98438 9.79545 8.06105C9.96705 8.23931 10.2392 8.45698 10.6751 8.80258L11.414 9.38851C11.7025 9.61731 11.7508 10.0362 11.5221 10.3247C11.2933 10.6132 10.8743 10.6616 10.5859 10.4328L9.84692 9.84751C9.44205 9.52651 9.08339 9.24411 8.83452 8.98551C8.58032 8.72131 8.33325 8.37471 8.33325 7.91065C8.33325 7.44665 8.58032 7.09998 8.83452 6.83578C9.08339 6.57722 9.44205 6.29482 9.84692 5.97382L10.5859 5.38853Z" fill="black"/>
</svg>
